<svg width="123" height="123" viewBox="0 0 123 123" fill="none" xmlns="http://www.w3.org/2000/svg">
<rect x="35.0005" y="112" width="8" height="8" fill="black"/>
<rect x="43.0005" y="112" width="8" height="8" fill="black"/>
<rect x="51.0005" y="112" width="9" height="8" fill="black"/>
<rect x="60.0005" y="112" width="8" height="8" fill="black"/>
<rect x="68.0005" y="112" width="8" height="8" fill="black"/>
<rect x="76.0005" y="112" width="8" height="8" fill="black"/>
<rect x="27.0005" y="104" width="8" height="8" fill="black"/>
<rect x="27.0005" y="95.9999" width="8" height="8" fill="black"/>
<rect x="18.0005" y="87.9999" width="9" height="8" fill="black"/>
<rect x="84.0005" y="104" width="8" height="8" fill="black"/>
<rect x="84.0005" y="95.9999" width="8" height="8" fill="black"/>
<rect x="93.0005" y="87.9999" width="8" height="8" fill="black"/>
<rect x="101" y="78.9999" width="8" height="9" fill="black"/>
<rect x="101" y="70.9999" width="8" height="8" fill="black"/>
<rect x="101" y="62.9999" width="8" height="8" fill="black"/>
<rect x="101" y="54.9999" width="8" height="8" fill="black"/>
<rect x="10.0005" y="78.9999" width="8" height="9" fill="black"/>
<rect x="10.0005" y="70.9999" width="8" height="8" fill="black"/>
<rect x="10.0005" y="62.9999" width="8" height="8" fill="black"/>
<rect x="10.0005" y="54.9999" width="8" height="8" fill="black"/>
<rect x="18.0005" y="45.9999" width="9" height="8" fill="black"/>
<rect x="18.0005" y="37.9999" width="9" height="8" fill="black"/>
<rect x="27.0005" y="29.9999" width="8" height="8" fill="black"/>
<rect x="27.0005" y="21.9999" width="8" height="8" fill="black"/>
<rect x="35.0005" y="12.9999" width="8" height="8" fill="black"/>
<rect x="43.0005" y="4.99988" width="8" height="8" fill="black"/>
<rect x="51.0005" y="4.99988" width="9" height="8" fill="black"/>
<rect x="60.0005" y="4.99988" width="8" height="8" fill="black"/>
<rect x="68.0005" y="4.99988" width="8" height="8" fill="black"/>
<rect x="93.0005" y="45.9999" width="8" height="8" fill="black"/>
<rect x="93.0005" y="37.9999" width="8" height="8" fill="black"/>
<rect x="84.0005" y="29.9999" width="8" height="8" fill="black"/>
<rect x="84.0005" y="21.9999" width="8" height="8" fill="black"/>
<rect x="76.0005" y="12.9999" width="8" height="8" fill="black"/>
<rect x="43.0005" y="12.9999" width="8" height="8" fill="#7EC928"/>
<rect x="51.0005" y="12.9999" width="9" height="9" fill="#7EC928"/>
<rect x="60.0005" y="12.9999" width="8" height="9" fill="#7EC928"/>
<rect x="68.0005" y="12.9999" width="8" height="9" fill="#7EC928"/>
<rect x="68.0005" y="21.9999" width="8" height="8" fill="#7EC928"/>
<rect x="60.0005" y="21.9999" width="8" height="8" fill="#7EC928"/>
<rect x="51.0005" y="21.9999" width="9" height="8" fill="#7EC928"/>
<rect x="43.0005" y="21.9999" width="8" height="8" fill="#7EC928"/>
<rect x="35.0005" y="21.9999" width="8" height="8" fill="#7EC928"/>
<rect x="35.0005" y="29.9999" width="8" height="8" fill="#7EC928"/>
<rect x="43.0005" y="29.9999" width="8" height="8" fill="#7EC928"/>
<rect x="51.0005" y="29.9999" width="9" height="8" fill="#7EC928"/>
<rect x="60.0005" y="29.9999" width="8" height="8" fill="#7EC928"/>
<rect x="68.0005" y="29.9999" width="8" height="8" fill="#7EC928"/>
<rect x="76.0005" y="29.9999" width="8" height="8" fill="#7EC928"/>
<rect x="76.0005" y="21.9999" width="8" height="8" fill="#7EC928"/>
<rect x="76.0005" y="37.9999" width="8" height="8" fill="#7EC928"/>
<rect x="84.0005" y="37.9999" width="8" height="8" fill="#7EC928"/>
<rect x="84.0005" y="45.9999" width="8" height="8" fill="#7EC928"/>
<rect x="76.0005" y="45.9999" width="8" height="8" fill="#7EC928"/>
<rect x="68.0005" y="45.9999" width="8" height="8" fill="black"/>
<rect x="60.0005" y="45.9999" width="8" height="8" fill="black"/>
<rect x="51.0005" y="45.9999" width="9" height="8" fill="black"/>
<rect x="43.0005" y="45.9999" width="8" height="8" fill="black"/>
<rect x="35.0005" y="45.9999" width="8" height="8" fill="#7EC928"/>
<rect x="27.0005" y="45.9999" width="8" height="8" fill="#7EC928"/>
<rect x="27.0005" y="37.9999" width="8" height="8" fill="#7EC928"/>
<rect x="35.0005" y="37.9999" width="8" height="8" fill="#7EC928"/>
<rect x="43.0005" y="37.9999" width="8" height="8" fill="#7EC928"/>
<rect x="51.0005" y="37.9999" width="9" height="8" fill="#7EC928"/>
<rect x="60.0005" y="37.9999" width="8" height="8" fill="#7EC928"/>
<rect x="68.0005" y="37.9999" width="8" height="8" fill="#7EC928"/>
<rect x="51.0005" y="54.9999" width="9" height="8" fill="#633804"/>
<rect x="43.0005" y="54.9999" width="8" height="8" fill="#633804"/>
<rect x="35.0005" y="54.9999" width="8" height="8" fill="black"/>
<rect x="27.0005" y="54.9999" width="8" height="8" fill="#7EC928"/>
<rect x="18.0005" y="54.9999" width="9" height="8" fill="#7EC928"/>
<rect x="18.0005" y="62.9999" width="9" height="8" fill="#7EC928"/>
<rect x="18.0005" y="70.9999" width="9" height="8" fill="#7EC928"/>
<rect x="18.0005" y="78.9999" width="9" height="9" fill="#7EC928"/>
<rect x="27.0005" y="78.9999" width="8" height="9" fill="#7EC928"/>
<rect x="27.0005" y="87.9999" width="8" height="8" fill="#7EC928"/>
<rect x="27.0005" y="70.9999" width="8" height="8" fill="#7EC928"/>
<rect x="27.0005" y="62.9999" width="8" height="8" fill="#7EC928"/>
<rect x="35.0005" y="62.9999" width="8" height="8" fill="black"/>
<rect x="43.0005" y="62.9999" width="8" height="8" fill="#633804"/>
<rect x="51.0005" y="62.9999" width="9" height="8" fill="#633804"/>
<rect x="60.0005" y="54.9999" width="8" height="8" fill="#633804"/>
<rect x="68.0005" y="54.9999" width="8" height="8" fill="#633804"/>
<rect x="76.0005" y="54.9999" width="8" height="8" fill="black"/>
<rect x="93.0005" y="54.9999" width="8" height="8" fill="#7EC928"/>
<rect x="84.0005" y="54.9999" width="8" height="8" fill="#7EC928"/>
<rect x="84.0005" y="62.9999" width="8" height="8" fill="#7EC928"/>
<rect x="93.0005" y="62.9999" width="8" height="8" fill="#7EC928"/>
<rect x="93.0005" y="70.9999" width="8" height="8" fill="#7EC928"/>
<rect x="93.0005" y="78.9999" width="8" height="9" fill="#7EC928"/>
<rect x="84.0005" y="78.9999" width="8" height="9" fill="#7EC928"/>
<rect x="84.0005" y="70.9999" width="8" height="8" fill="#7EC928"/>
<rect x="76.0005" y="70.9999" width="8" height="8" fill="black"/>
<rect x="76.0005" y="62.9999" width="8" height="8" fill="black"/>
<rect x="68.0005" y="62.9999" width="8" height="8" fill="#633804"/>
<rect x="60.0005" y="62.9999" width="8" height="8" fill="#633804"/>
<rect x="60.0005" y="70.9999" width="8" height="8" fill="#633804"/>
<rect x="51.0005" y="70.9999" width="9" height="8" fill="#633804"/>
<rect x="43.0005" y="70.9999" width="8" height="8" fill="#633804"/>
<rect x="35.0005" y="70.9999" width="8" height="8" fill="black"/>
<rect x="68.0005" y="70.9999" width="8" height="8" fill="#633804"/>
<rect x="76.0005" y="78.9999" width="8" height="9" fill="black"/>
<rect x="84.0005" y="87.9999" width="8" height="8" fill="#7EC928"/>
<rect x="76.0005" y="87.9999" width="8" height="8" fill="#7EC928"/>
<rect x="68.0005" y="87.9999" width="8" height="8" fill="black"/>
<rect x="60.0005" y="87.9999" width="8" height="8" fill="black"/>
<rect x="51.0005" y="87.9999" width="9" height="8" fill="black"/>
<rect x="43.0005" y="87.9999" width="8" height="8" fill="black"/>
<rect x="35.0005" y="78.9999" width="8" height="9" fill="black"/>
<rect x="43.0005" y="78.9999" width="8" height="9" fill="#633804"/>
<rect x="51.0005" y="78.9999" width="9" height="9" fill="#633804"/>
<rect x="60.0005" y="78.9999" width="8" height="9" fill="#633804"/>
<rect x="68.0005" y="78.9999" width="8" height="9" fill="#633804"/>
<rect x="35.0005" y="87.9999" width="8" height="8" fill="#7EC928"/>
<rect x="35.0005" y="95.9999" width="8" height="8" fill="#7EC928"/>
<rect x="35.0005" y="104" width="8" height="8" fill="#7EC928"/>
<rect x="43.0005" y="104" width="8" height="8" fill="#7EC928"/>
<rect x="51.0005" y="104" width="9" height="8" fill="#7EC928"/>
<rect x="60.0005" y="104" width="8" height="8" fill="#7EC928"/>
<rect x="68.0005" y="104" width="8" height="8" fill="#7EC928"/>
<rect x="76.0005" y="104" width="8" height="8" fill="#7EC928"/>
<rect x="76.0005" y="95.9999" width="8" height="8" fill="#7EC928"/>
<rect x="68.0005" y="95.9999" width="8" height="8" fill="#7EC928"/>
<rect x="60.0005" y="95.9999" width="8" height="8" fill="#7EC928"/>
<rect x="51.0005" y="95.9999" width="9" height="8" fill="#7EC928"/>
<rect x="43.0005" y="95.9999" width="8" height="8" fill="#7EC928"/>
<rect x="18.0005" y="95.9999" width="9" height="8" fill="black"/>
<rect x="93.0005" y="95.9999" width="8" height="8" fill="black"/>
</svg>
