<svg width="123" height="123" viewBox="0 0 123 123" fill="none" xmlns="http://www.w3.org/2000/svg">
<rect width="8" height="8" transform="matrix(4.37114e-08 1 1 -4.37114e-08 46.5 4.99988)" fill="black"/>
<rect width="8" height="8" transform="matrix(4.37114e-08 1 1 -4.37114e-08 54.5 4.99988)" fill="black"/>
<rect width="7" height="7" transform="matrix(4.37114e-08 1 1 -4.37114e-08 39.5 12.9999)" fill="black"/>
<rect width="8" height="8" transform="matrix(4.37114e-08 1 1 -4.37114e-08 61.5 4.99988)" fill="black"/>
<rect width="8" height="8" transform="matrix(4.37114e-08 1 1 -4.37114e-08 69.5 4.99988)" fill="black"/>
<rect width="7" height="8" transform="matrix(4.37114e-08 1 1 -4.37114e-08 99.5 27.9999)" fill="black"/>
<rect width="8" height="7" transform="matrix(4.37114e-08 1 1 -4.37114e-08 92.5 19.9999)" fill="black"/>
<rect width="7" height="8" transform="matrix(4.37114e-08 1 1 -4.37114e-08 84.5 12.9999)" fill="black"/>
<rect width="8" height="7" transform="matrix(4.37114e-08 1 1 -4.37114e-08 77.5 4.99988)" fill="black"/>
<rect width="8" height="8" transform="matrix(4.37114e-08 1 1 -4.37114e-08 31.5 19.9999)" fill="black"/>
<rect width="7" height="7" transform="matrix(4.37114e-08 1 1 -4.37114e-08 24.5 27.9999)" fill="black"/>
<rect width="7" height="8" transform="matrix(4.37114e-08 1 1 -4.37114e-08 16.5 42.9999)" fill="black"/>
<rect width="8" height="8" transform="matrix(4.37114e-08 1 1 -4.37114e-08 16.5 49.9999)" fill="black"/>
<rect width="8" height="8" transform="matrix(4.37114e-08 1 1 -4.37114e-08 16.5 34.9999)" fill="black"/>
<rect width="8" height="7" transform="matrix(4.37114e-08 1 1 -4.37114e-08 24.5 57.9999)" fill="black"/>
<rect width="7" height="7" transform="matrix(4.37114e-08 1 1 -4.37114e-08 24.5 65.9999)" fill="black"/>
<rect width="8" height="7" transform="matrix(4.37114e-08 1 1 -4.37114e-08 24.5 72.9999)" fill="black"/>
<rect width="7" height="7" transform="matrix(4.37114e-08 1 1 -4.37114e-08 24.5 80.9999)" fill="black"/>
<rect width="8" height="7" transform="matrix(4.37114e-08 1 1 -4.37114e-08 24.5 87.9999)" fill="black"/>
<rect width="7" height="7" transform="matrix(4.37114e-08 1 1 -4.37114e-08 24.5 95.9999)" fill="black"/>
<rect width="8" height="8" transform="matrix(4.37114e-08 1 1 -4.37114e-08 107.5 34.9999)" fill="black"/>
<rect width="7" height="8" transform="matrix(4.37114e-08 1 1 -4.37114e-08 107.5 42.9999)" fill="black"/>
<rect width="8" height="8" transform="matrix(4.37114e-08 1 1 -4.37114e-08 107.5 49.9999)" fill="black"/>
<rect width="8" height="8" transform="matrix(4.37114e-08 1 1 -4.37114e-08 99.5 57.9999)" fill="black"/>
<rect width="7" height="8" transform="matrix(4.37114e-08 1 1 -4.37114e-08 99.5 65.9999)" fill="black"/>
<rect width="8" height="8" transform="matrix(4.37114e-08 1 1 -4.37114e-08 99.5 72.9999)" fill="black"/>
<rect width="7" height="8" transform="matrix(4.37114e-08 1 1 -4.37114e-08 99.5 80.9999)" fill="black"/>
<rect width="8" height="8" transform="matrix(4.37114e-08 1 1 -4.37114e-08 99.5 87.9999)" fill="black"/>
<rect width="7" height="8" transform="matrix(4.37114e-08 1 1 -4.37114e-08 99.5 95.9999)" fill="black"/>
<rect width="8" height="8" transform="matrix(4.37114e-08 1 1 -4.37114e-08 31.5 103)" fill="black"/>
<rect width="8" height="7" transform="matrix(4.37114e-08 1 1 -4.37114e-08 39.5 103)" fill="black"/>
<rect width="8" height="8" transform="matrix(4.37114e-08 1 1 -4.37114e-08 46.5 103)" fill="black"/>
<rect width="8" height="8" transform="matrix(4.37114e-08 1 1 -4.37114e-08 54.5 103)" fill="black"/>
<rect width="8" height="8" transform="matrix(4.37114e-08 1 1 -4.37114e-08 61.5 103)" fill="black"/>
<rect width="8" height="8" transform="matrix(4.37114e-08 1 1 -4.37114e-08 69.5 103)" fill="black"/>
<rect width="8" height="7" transform="matrix(4.37114e-08 1 1 -4.37114e-08 77.5 103)" fill="black"/>
<rect width="8" height="8" transform="matrix(4.37114e-08 1 1 -4.37114e-08 84.5 103)" fill="black"/>
<rect width="8" height="7" transform="matrix(4.37114e-08 1 1 -4.37114e-08 92.5 103)" fill="black"/>
<rect width="7" height="8" transform="matrix(4.37114e-08 1 1 -4.37114e-08 31.5 12.9999)" fill="black"/>
<rect width="7" height="7" transform="matrix(4.37114e-08 1 1 -4.37114e-08 92.5 12.9999)" fill="black"/>
<rect width="8" height="8" transform="matrix(4.37114e-08 1 1 -4.37114e-08 46.5 34.9999)" fill="#FACD96"/>
<rect width="7" height="8" transform="matrix(4.37114e-08 1 1 -4.37114e-08 46.5 42.9999)" fill="#FACD96"/>
<rect width="8" height="8" transform="matrix(4.37114e-08 1 1 -4.37114e-08 46.5 49.9999)" fill="#FACD96"/>
<rect width="8" height="8" transform="matrix(4.37114e-08 1 1 -4.37114e-08 46.5 57.9999)" fill="#FACD96"/>
<rect width="7" height="8" transform="matrix(4.37114e-08 1 1 -4.37114e-08 46.5 65.9999)" fill="#FACD96"/>
<rect width="8" height="8" transform="matrix(4.37114e-08 1 1 -4.37114e-08 46.5 72.9999)" fill="#FACD96"/>
<rect width="8" height="8" transform="matrix(4.37114e-08 1 1 -4.37114e-08 61.5 34.9999)" fill="#FACD96"/>
<rect width="7" height="8" transform="matrix(4.37114e-08 1 1 -4.37114e-08 61.5 42.9999)" fill="#FACD96"/>
<rect width="8" height="8" transform="matrix(4.37114e-08 1 1 -4.37114e-08 61.5 49.9999)" fill="#FACD96"/>
<rect width="8" height="8" transform="matrix(4.37114e-08 1 1 -4.37114e-08 61.5 57.9999)" fill="#FACD96"/>
<rect width="7" height="8" transform="matrix(4.37114e-08 1 1 -4.37114e-08 61.5 65.9999)" fill="#F9E28E"/>
<rect width="8" height="8" transform="matrix(4.37114e-08 1 1 -4.37114e-08 61.5 72.9999)" fill="#F9E28E"/>
<rect width="8" height="7" transform="matrix(4.37114e-08 1 1 -4.37114e-08 77.5 34.9999)" fill="#FACD96"/>
<rect width="7" height="7" transform="matrix(4.37114e-08 1 1 -4.37114e-08 77.5 42.9999)" fill="#FACD96"/>
<rect width="8" height="7" transform="matrix(4.37114e-08 1 1 -4.37114e-08 77.5 49.9999)" fill="#F9E28E"/>
<rect width="8" height="7" transform="matrix(4.37114e-08 1 1 -4.37114e-08 77.5 57.9999)" fill="#F9E28E"/>
<rect width="7" height="7" transform="matrix(4.37114e-08 1 1 -4.37114e-08 77.5 65.9999)" fill="#F9E28E"/>
<rect width="8" height="7" transform="matrix(4.37114e-08 1 1 -4.37114e-08 77.5 72.9999)" fill="#F9E28E"/>
<rect width="8" height="8" transform="matrix(4.37114e-08 1 1 -4.37114e-08 99.5 49.9999)" fill="#BF8954"/>
<rect width="7" height="8" transform="matrix(4.37114e-08 1 1 -4.37114e-08 99.5 42.9999)" fill="#BF8954"/>
<rect width="8" height="8" transform="matrix(4.37114e-08 1 1 -4.37114e-08 99.5 34.9999)" fill="#BF8954"/>
<rect width="8" height="7" transform="matrix(4.37114e-08 1 1 -4.37114e-08 92.5 34.9999)" fill="#BF8954"/>
<rect width="8" height="8" transform="matrix(4.37114e-08 1 1 -4.37114e-08 84.5 34.9999)" fill="#FACD96"/>
<rect width="7" height="8" transform="matrix(4.37114e-08 1 1 -4.37114e-08 84.5 27.9999)" fill="#BF8954"/>
<rect width="7" height="7" transform="matrix(4.37114e-08 1 1 -4.37114e-08 92.5 27.9999)" fill="#BF8954"/>
<rect width="8" height="8" transform="matrix(4.37114e-08 1 1 -4.37114e-08 84.5 19.9999)" fill="#BF8954"/>
<rect width="8" height="7" transform="matrix(4.37114e-08 1 1 -4.37114e-08 77.5 19.9999)" fill="#BF8954"/>
<rect width="7" height="7" transform="matrix(4.37114e-08 1 1 -4.37114e-08 77.5 12.9999)" fill="#BF8954"/>
<rect width="7" height="8" transform="matrix(4.37114e-08 1 1 -4.37114e-08 69.5 12.9999)" fill="#BF8954"/>
<rect width="7" height="8" transform="matrix(4.37114e-08 1 1 -4.37114e-08 61.5 12.9999)" fill="#BF8954"/>
<rect width="7" height="8" transform="matrix(4.37114e-08 1 1 -4.37114e-08 54.5 12.9999)" fill="#BF8954"/>
<rect width="7" height="8" transform="matrix(4.37114e-08 1 1 -4.37114e-08 46.5 12.9999)" fill="#BF8954"/>
<rect width="8" height="8" transform="matrix(4.37114e-08 1 1 -4.37114e-08 46.5 19.9999)" fill="#BF8954"/>
<rect width="8" height="7" transform="matrix(4.37114e-08 1 1 -4.37114e-08 39.5 19.9999)" fill="#BF8954"/>
<rect width="7" height="7" transform="matrix(4.37114e-08 1 1 -4.37114e-08 39.5 27.9999)" fill="#BF8954"/>
<rect width="7" height="8" transform="matrix(4.37114e-08 1 1 -4.37114e-08 31.5 27.9999)" fill="#BF8954"/>
<rect width="8" height="8" transform="matrix(4.37114e-08 1 1 -4.37114e-08 31.5 34.9999)" fill="#BF8954"/>
<rect width="7" height="8" transform="matrix(4.37114e-08 1 1 -4.37114e-08 31.5 42.9999)" fill="#BF8954"/>
<rect width="8" height="8" transform="matrix(4.37114e-08 1 1 -4.37114e-08 31.5 49.9999)" fill="#BF8954"/>
<rect width="8" height="8" transform="matrix(4.37114e-08 1 1 -4.37114e-08 31.5 57.9999)" fill="#BF8954"/>
<rect width="7" height="8" transform="matrix(4.37114e-08 1 1 -4.37114e-08 31.5 65.9999)" fill="#BF8954"/>
<rect width="8" height="8" transform="matrix(4.37114e-08 1 1 -4.37114e-08 31.5 72.9999)" fill="#BF8954"/>
<rect width="7" height="8" transform="matrix(4.37114e-08 1 1 -4.37114e-08 31.5 80.9999)" fill="#BF8954"/>
<rect width="8" height="8" transform="matrix(4.37114e-08 1 1 -4.37114e-08 31.5 87.9999)" fill="#BF8954"/>
<rect width="7" height="8" transform="matrix(4.37114e-08 1 1 -4.37114e-08 31.5 95.9999)" fill="#BF8954"/>
<rect width="7" height="7" transform="matrix(4.37114e-08 1 1 -4.37114e-08 39.5 95.9999)" fill="#BF8954"/>
<rect width="7" height="8" transform="matrix(4.37114e-08 1 1 -4.37114e-08 46.5 95.9999)" fill="#BF8954"/>
<rect width="7" height="8" transform="matrix(4.37114e-08 1 1 -4.37114e-08 54.5 95.9999)" fill="#BF8954"/>
<rect width="7" height="8" transform="matrix(4.37114e-08 1 1 -4.37114e-08 61.5 95.9999)" fill="#BF8954"/>
<rect width="7" height="8" transform="matrix(4.37114e-08 1 1 -4.37114e-08 69.5 95.9999)" fill="#BF8954"/>
<rect width="7" height="7" transform="matrix(4.37114e-08 1 1 -4.37114e-08 77.5 95.9999)" fill="#BF8954"/>
<rect width="7" height="8" transform="matrix(4.37114e-08 1 1 -4.37114e-08 84.5 95.9999)" fill="#BF8954"/>
<rect width="7" height="7" transform="matrix(4.37114e-08 1 1 -4.37114e-08 92.5 95.9999)" fill="#BF8954"/>
<rect width="8" height="7" transform="matrix(4.37114e-08 1 1 -4.37114e-08 92.5 87.9999)" fill="#BF8954"/>
<rect width="7" height="7" transform="matrix(4.37114e-08 1 1 -4.37114e-08 92.5 80.9999)" fill="#BF8954"/>
<rect width="8" height="7" transform="matrix(4.37114e-08 1 1 -4.37114e-08 92.5 72.9999)" fill="#BF8954"/>
<rect width="7" height="7" transform="matrix(4.37114e-08 1 1 -4.37114e-08 92.5 65.9999)" fill="#BF8954"/>
<rect width="8" height="7" transform="matrix(4.37114e-08 1 1 -4.37114e-08 92.5 57.9999)" fill="#BF8954"/>
<rect width="8" height="7" transform="matrix(4.37114e-08 1 1 -4.37114e-08 92.5 49.9999)" fill="#BF8954"/>
<rect width="7" height="7" transform="matrix(4.37114e-08 1 1 -4.37114e-08 92.5 42.9999)" fill="#BF8954"/>
<rect width="7" height="8" transform="matrix(4.37114e-08 1 1 -4.37114e-08 84.5 42.9999)" fill="#F9E28E"/>
<rect width="8" height="8" transform="matrix(4.37114e-08 1 1 -4.37114e-08 84.5 49.9999)" fill="#F9E28E"/>
<rect width="8" height="8" transform="matrix(4.37114e-08 1 1 -4.37114e-08 84.5 57.9999)" fill="#F9E28E"/>
<rect width="7" height="8" transform="matrix(4.37114e-08 1 1 -4.37114e-08 84.5 65.9999)" fill="#F9E28E"/>
<rect width="8" height="8" transform="matrix(4.37114e-08 1 1 -4.37114e-08 84.5 72.9999)" fill="#F9E28E"/>
<rect width="7" height="8" transform="matrix(4.37114e-08 1 1 -4.37114e-08 84.5 80.9999)" fill="#F9E28E"/>
<rect width="8" height="8" transform="matrix(4.37114e-08 1 1 -4.37114e-08 84.5 87.9999)" fill="#F9E28E"/>
<rect width="8" height="7" transform="matrix(4.37114e-08 1 1 -4.37114e-08 77.5 87.9999)" fill="#F9E28E"/>
<rect width="8" height="8" transform="matrix(4.37114e-08 1 1 -4.37114e-08 69.5 87.9999)" fill="#F9E28E"/>
<rect width="8" height="8" transform="matrix(4.37114e-08 1 1 -4.37114e-08 61.5 87.9999)" fill="#F9E28E"/>
<rect width="8" height="8" transform="matrix(4.37114e-08 1 1 -4.37114e-08 54.5 87.9999)" fill="#F9E28E"/>
<rect width="8" height="8" transform="matrix(4.37114e-08 1 1 -4.37114e-08 46.5 87.9999)" fill="#F9E28E"/>
<rect width="8" height="7" transform="matrix(4.37114e-08 1 1 -4.37114e-08 39.5 87.9999)" fill="#F9E28E"/>
<rect width="7" height="7" transform="matrix(4.37114e-08 1 1 -4.37114e-08 39.5 80.9999)" fill="#FACD96"/>
<rect width="7" height="8" transform="matrix(4.37114e-08 1 1 -4.37114e-08 46.5 80.9999)" fill="#F9E28E"/>
<rect width="7" height="8" transform="matrix(4.37114e-08 1 1 -4.37114e-08 54.5 80.9999)" fill="#F9E28E"/>
<rect width="7" height="8" transform="matrix(4.37114e-08 1 1 -4.37114e-08 61.5 80.9999)" fill="#F9E28E"/>
<rect width="7" height="8" transform="matrix(4.37114e-08 1 1 -4.37114e-08 69.5 80.9999)" fill="#F9E28E"/>
<rect width="7" height="7" transform="matrix(4.37114e-08 1 1 -4.37114e-08 77.5 80.9999)" fill="#F9E28E"/>
<rect width="8" height="7" transform="matrix(4.37114e-08 1 1 -4.37114e-08 39.5 72.9999)" fill="#FACD96"/>
<rect width="7" height="7" transform="matrix(4.37114e-08 1 1 -4.37114e-08 39.5 65.9999)" fill="#FACD96"/>
<rect width="8" height="7" transform="matrix(4.37114e-08 1 1 -4.37114e-08 39.5 57.9999)" fill="#FACD96"/>
<rect width="8" height="7" transform="matrix(4.37114e-08 1 1 -4.37114e-08 39.5 49.9999)" fill="#FACD96"/>
<rect width="7" height="7" transform="matrix(4.37114e-08 1 1 -4.37114e-08 39.5 42.9999)" fill="#FACD96"/>
<rect width="8" height="7" transform="matrix(4.37114e-08 1 1 -4.37114e-08 39.5 34.9999)" fill="#FACD96"/>
<rect width="7" height="8" transform="matrix(4.37114e-08 1 1 -4.37114e-08 46.5 27.9999)" fill="#FACD96"/>
<rect width="7" height="8" transform="matrix(4.37114e-08 1 1 -4.37114e-08 54.5 27.9999)" fill="#FACD96"/>
<rect width="7" height="8" transform="matrix(4.37114e-08 1 1 -4.37114e-08 61.5 27.9999)" fill="#FACD96"/>
<rect width="7" height="8" transform="matrix(4.37114e-08 1 1 -4.37114e-08 69.5 27.9999)" fill="#FACD96"/>
<rect width="7" height="7" transform="matrix(4.37114e-08 1 1 -4.37114e-08 77.5 27.9999)" fill="#FACD96"/>
<rect width="8" height="8" transform="matrix(4.37114e-08 1 1 -4.37114e-08 54.5 19.9999)" fill="#FACD96"/>
<rect width="8" height="8" transform="matrix(4.37114e-08 1 1 -4.37114e-08 61.5 19.9999)" fill="#FACD96"/>
<rect width="8" height="8" transform="matrix(4.37114e-08 1 1 -4.37114e-08 69.5 19.9999)" fill="#FACD96"/>
<rect width="8" height="8" transform="matrix(4.37114e-08 1 1 -4.37114e-08 54.5 34.9999)" fill="#FACD96"/>
<rect width="7" height="8" transform="matrix(4.37114e-08 1 1 -4.37114e-08 54.5 42.9999)" fill="#FACD96"/>
<rect width="8" height="8" transform="matrix(4.37114e-08 1 1 -4.37114e-08 54.5 49.9999)" fill="#FACD96"/>
<rect width="8" height="8" transform="matrix(4.37114e-08 1 1 -4.37114e-08 54.5 57.9999)" fill="#FACD96"/>
<rect width="7" height="8" transform="matrix(4.37114e-08 1 1 -4.37114e-08 54.5 65.9999)" fill="#FACD96"/>
<rect width="8" height="8" transform="matrix(4.37114e-08 1 1 -4.37114e-08 54.5 72.9999)" fill="#F9E28E"/>
<rect width="8" height="8" transform="matrix(4.37114e-08 1 1 -4.37114e-08 69.5 72.9999)" fill="#F9E28E"/>
<rect width="7" height="8" transform="matrix(4.37114e-08 1 1 -4.37114e-08 69.5 65.9999)" fill="#F9E28E"/>
<rect width="8" height="8" transform="matrix(4.37114e-08 1 1 -4.37114e-08 69.5 57.9999)" fill="#F9E28E"/>
<rect width="8" height="8" transform="matrix(4.37114e-08 1 1 -4.37114e-08 69.5 49.9999)" fill="#FACD96"/>
<rect width="7" height="8" transform="matrix(4.37114e-08 1 1 -4.37114e-08 69.5 42.9999)" fill="#FACD96"/>
<rect width="8" height="8" transform="matrix(4.37114e-08 1 1 -4.37114e-08 69.5 34.9999)" fill="#FACD96"/>
<rect width="8" height="7" transform="matrix(4.37114e-08 1 1 -4.37114e-08 24.5 49.9999)" fill="#BF8954"/>
<rect width="7" height="7" transform="matrix(4.37114e-08 1 1 -4.37114e-08 24.5 42.9999)" fill="#BF8954"/>
<rect width="8" height="7" transform="matrix(4.37114e-08 1 1 -4.37114e-08 24.5 34.9999)" fill="#BF8954"/>
<rect width="8" height="8" transform="matrix(4.37114e-08 1 1 -4.37114e-08 99.5 19.9999)" fill="black"/>
<rect width="7" height="8" transform="matrix(4.37114e-08 1 1 -4.37114e-08 107.5 27.9999)" fill="black"/>
<rect width="8" height="7" transform="matrix(4.37114e-08 1 1 -4.37114e-08 24.5 19.9999)" fill="black"/>
<rect width="7" height="8" transform="matrix(4.37114e-08 1 1 -4.37114e-08 16.5 27.9999)" fill="black"/>
</svg>
