<svg width="128" height="128" viewBox="0 0 128 128" fill="none" xmlns="http://www.w3.org/2000/svg">
<rect x="38.9995" y="4.99963" width="8" height="9" fill="black"/>
<rect x="46.9995" y="4.99963" width="9" height="9" fill="black"/>
<rect x="55.9995" y="4.99963" width="8" height="9" fill="black"/>
<rect x="63.9995" y="4.99963" width="8" height="9" fill="black"/>
<rect x="71.9995" y="4.99963" width="9" height="9" fill="black"/>
<rect x="80.9995" y="4.99963" width="8" height="9" fill="black"/>
<rect x="29.9995" y="13.9996" width="9" height="8" fill="black"/>
<rect x="21.9995" y="13.9996" width="8" height="8" fill="black"/>
<rect x="88.9995" y="13.9996" width="9" height="8" fill="black"/>
<rect x="97.9995" y="13.9996" width="8" height="8" fill="black"/>
<rect x="12.9995" y="21.9996" width="9" height="8" fill="black"/>
<rect x="106" y="21.9996" width="9" height="8" fill="black"/>
<rect x="4.99951" y="29.9996" width="8" height="9" fill="black"/>
<rect x="4.99951" y="38.9996" width="8" height="8" fill="black"/>
<rect x="115" y="29.9996" width="8" height="9" fill="black"/>
<rect x="115" y="38.9996" width="8" height="8" fill="black"/>
<rect x="12.9995" y="115" width="9" height="8" fill="black"/>
<rect x="21.9995" y="115" width="8" height="8" fill="black"/>
<rect x="29.9995" y="115" width="9" height="8" fill="black"/>
<rect x="38.9995" y="115" width="8" height="8" fill="black"/>
<rect x="46.9995" y="115" width="9" height="8" fill="black"/>
<rect x="55.9995" y="115" width="8" height="8" fill="black"/>
<rect x="63.9995" y="115" width="8" height="8" fill="black"/>
<rect x="71.9995" y="115" width="9" height="8" fill="black"/>
<rect x="80.9995" y="115" width="8" height="8" fill="black"/>
<rect x="88.9995" y="115" width="9" height="8" fill="black"/>
<rect x="97.9995" y="115" width="8" height="8" fill="black"/>
<rect x="106" y="115" width="9" height="8" fill="black"/>
<rect x="115" y="106" width="8" height="9" fill="black"/>
<rect x="115" y="97.9996" width="8" height="8" fill="black"/>
<rect x="4.99951" y="106" width="8" height="9" fill="black"/>
<rect x="4.99951" y="97.9996" width="8" height="8" fill="black"/>
<rect x="4.99951" y="88.9996" width="8" height="9" fill="black"/>
<rect x="12.9995" y="88.9996" width="9" height="9" fill="black"/>
<rect x="21.9995" y="88.9996" width="8" height="9" fill="black"/>
<rect x="29.9995" y="88.9996" width="9" height="9" fill="black"/>
<rect x="38.9995" y="88.9996" width="8" height="9" fill="black"/>
<rect x="46.9995" y="88.9996" width="9" height="9" fill="black"/>
<rect x="55.9995" y="88.9996" width="8" height="9" fill="black"/>
<rect x="63.9995" y="88.9996" width="8" height="9" fill="black"/>
<rect x="71.9995" y="88.9996" width="9" height="9" fill="black"/>
<rect x="80.9995" y="88.9996" width="8" height="9" fill="black"/>
<rect x="88.9995" y="88.9996" width="9" height="9" fill="black"/>
<rect x="97.9995" y="88.9996" width="8" height="9" fill="black"/>
<rect x="106" y="88.9996" width="9" height="9" fill="black"/>
<rect x="115" y="88.9996" width="8" height="9" fill="black"/>
<rect x="12.9995" y="29.9996" width="9" height="9" fill="#FEC200"/>
<rect x="21.9995" y="29.9996" width="8" height="9" fill="#FEC200"/>
<rect x="29.9995" y="29.9996" width="9" height="9" fill="#B17C25"/>
<rect x="38.9995" y="29.9996" width="8" height="9" fill="#FEC200"/>
<rect x="46.9995" y="29.9996" width="9" height="9" fill="#FEC200"/>
<rect x="55.9995" y="29.9996" width="8" height="9" fill="#FEC200"/>
<rect x="63.9995" y="29.9996" width="8" height="9" fill="#B17C25"/>
<rect x="71.9995" y="29.9996" width="9" height="9" fill="#FEC200"/>
<rect x="80.9995" y="29.9996" width="8" height="9" fill="#FEC200"/>
<rect x="88.9995" y="29.9996" width="9" height="9" fill="#FEC200"/>
<rect x="97.9995" y="29.9996" width="8" height="9" fill="#B17C25"/>
<rect x="106" y="29.9996" width="9" height="9" fill="#FEC200"/>
<rect x="21.9995" y="21.9996" width="8" height="8" fill="#FEC200"/>
<rect x="29.9995" y="21.9996" width="9" height="8" fill="#FEC200"/>
<rect x="38.9995" y="13.9996" width="8" height="8" fill="#FEC200"/>
<rect x="38.9995" y="21.9996" width="8" height="8" fill="#FEC200"/>
<rect x="46.9995" y="21.9996" width="9" height="8" fill="#B17C25"/>
<rect x="46.9995" y="13.9996" width="9" height="8" fill="#FEC200"/>
<rect x="55.9995" y="13.9996" width="8" height="8" fill="#FEC200"/>
<rect x="63.9995" y="13.9996" width="8" height="8" fill="#FEC200"/>
<rect x="63.9995" y="21.9996" width="8" height="8" fill="#FEC200"/>
<rect x="55.9995" y="21.9996" width="8" height="8" fill="#FEC200"/>
<rect x="71.9995" y="21.9996" width="9" height="8" fill="#FEC200"/>
<rect x="71.9995" y="13.9996" width="9" height="8" fill="#FEC200"/>
<rect x="80.9995" y="13.9996" width="8" height="8" fill="#FEC200"/>
<rect x="80.9995" y="21.9996" width="8" height="8" fill="#B17C25"/>
<rect x="88.9995" y="21.9996" width="9" height="8" fill="#FEC200"/>
<rect x="97.9995" y="21.9996" width="8" height="8" fill="#FEC200"/>
<rect x="12.9995" y="97.9996" width="9" height="8" fill="#FEC200"/>
<rect x="12.9995" y="106" width="9" height="9" fill="#FEC200"/>
<rect x="21.9995" y="106" width="8" height="9" fill="#FEC200"/>
<rect x="29.9995" y="106" width="9" height="9" fill="#FEC200"/>
<rect x="38.9995" y="97.9996" width="8" height="8" fill="#FEC200"/>
<rect x="46.9995" y="97.9996" width="9" height="8" fill="#FEC200"/>
<rect x="55.9995" y="97.9996" width="8" height="8" fill="#FEC200"/>
<rect x="63.9995" y="97.9996" width="8" height="8" fill="#FEC200"/>
<rect x="71.9995" y="97.9996" width="9" height="8" fill="#FEC200"/>
<rect x="80.9995" y="97.9996" width="8" height="8" fill="#FEC200"/>
<rect x="29.9995" y="97.9996" width="9" height="8" fill="#FEC200"/>
<rect x="21.9995" y="97.9996" width="8" height="8" fill="#FEC200"/>
<rect x="38.9995" y="106" width="8" height="9" fill="#FEC200"/>
<rect x="46.9995" y="106" width="9" height="9" fill="#FEC200"/>
<rect x="55.9995" y="106" width="8" height="9" fill="#FEC200"/>
<rect x="63.9995" y="106" width="8" height="9" fill="#FEC200"/>
<rect x="71.9995" y="106" width="9" height="9" fill="#FEC200"/>
<rect x="80.9995" y="106" width="8" height="9" fill="#FEC200"/>
<rect x="88.9995" y="106" width="9" height="9" fill="#FEC200"/>
<rect x="97.9995" y="106" width="8" height="9" fill="#FEC200"/>
<rect x="106" y="106" width="9" height="9" fill="#FEC200"/>
<rect x="106" y="97.9996" width="9" height="8" fill="#FEC200"/>
<rect x="97.9995" y="97.9996" width="8" height="8" fill="#FEC200"/>
<rect x="88.9995" y="97.9996" width="9" height="8" fill="#FEC200"/>
<rect x="4.99951" y="55.9996" width="8" height="8" fill="black"/>
<rect x="12.9995" y="80.9996" width="9" height="8" fill="#FF8B00"/>
<rect x="21.9995" y="80.9996" width="8" height="8" fill="#FF8B00"/>
<rect x="29.9995" y="80.9996" width="9" height="8" fill="#FF8B00"/>
<rect x="38.9995" y="80.9996" width="8" height="8" fill="#FF8B00"/>
<rect x="46.9995" y="80.9996" width="9" height="8" fill="#FF8B00"/>
<rect x="55.9995" y="80.9996" width="8" height="8" fill="#FF8B00"/>
<rect x="63.9995" y="80.9996" width="8" height="8" fill="#FF8B00"/>
<rect x="71.9995" y="80.9996" width="9" height="8" fill="#FF8B00"/>
<rect x="80.9995" y="80.9996" width="8" height="8" fill="#FF8B00"/>
<rect x="88.9995" y="80.9996" width="9" height="8" fill="#FF8B00"/>
<rect x="97.9995" y="80.9996" width="8" height="8" fill="#FF8B00"/>
<rect x="106" y="80.9996" width="9" height="8" fill="#FF8B00"/>
<rect x="12.9995" y="38.9996" width="9" height="8" fill="#B17C25"/>
<rect x="21.9995" y="38.9996" width="8" height="8" fill="#FEC200"/>
<rect x="29.9995" y="38.9996" width="9" height="8" fill="#FEC200"/>
<rect x="38.9995" y="38.9996" width="8" height="8" fill="#FEC200"/>
<rect x="46.9995" y="38.9996" width="9" height="8" fill="#B17C25"/>
<rect x="55.9995" y="38.9996" width="8" height="8" fill="#FEC200"/>
<rect x="63.9995" y="38.9996" width="8" height="8" fill="#FEC200"/>
<rect x="71.9995" y="38.9996" width="9" height="8" fill="#FEC200"/>
<rect x="80.9995" y="38.9996" width="8" height="8" fill="#B17C25"/>
<rect x="88.9995" y="38.9996" width="9" height="8" fill="#FEC200"/>
<rect x="97.9995" y="38.9996" width="8" height="8" fill="#FEC200"/>
<rect x="106" y="38.9996" width="9" height="8" fill="#FEC200"/>
<rect x="12.9995" y="46.9996" width="9" height="9" fill="black"/>
<rect x="21.9995" y="46.9996" width="8" height="9" fill="black"/>
<rect x="29.9995" y="46.9996" width="9" height="9" fill="black"/>
<rect x="38.9995" y="46.9996" width="8" height="9" fill="black"/>
<rect x="46.9995" y="46.9996" width="9" height="9" fill="black"/>
<rect x="55.9995" y="46.9996" width="8" height="9" fill="black"/>
<rect x="63.9995" y="46.9996" width="8" height="9" fill="black"/>
<rect x="71.9995" y="46.9996" width="9" height="9" fill="black"/>
<rect x="80.9995" y="46.9996" width="8" height="9" fill="black"/>
<rect x="88.9995" y="46.9996" width="9" height="9" fill="black"/>
<rect x="97.9995" y="46.9996" width="8" height="9" fill="black"/>
<rect x="106" y="46.9996" width="9" height="9" fill="black"/>
<rect x="12.9995" y="55.9996" width="9" height="8" fill="#0BD30B"/>
<rect x="21.9995" y="55.9996" width="8" height="8" fill="#0BD30B"/>
<rect x="29.9995" y="55.9996" width="9" height="8" fill="#0BD30B"/>
<rect x="38.9995" y="55.9996" width="8" height="8" fill="#0BD30B"/>
<rect x="46.9995" y="55.9996" width="9" height="8" fill="#0BD30B"/>
<rect x="55.9995" y="55.9996" width="8" height="8" fill="#0BD30B"/>
<rect x="63.9995" y="55.9996" width="8" height="8" fill="#0BD30B"/>
<rect x="71.9995" y="55.9996" width="9" height="8" fill="#0BD30B"/>
<rect x="80.9995" y="55.9996" width="8" height="8" fill="#0BD30B"/>
<rect x="88.9995" y="55.9996" width="9" height="8" fill="#0BD30B"/>
<rect x="97.9995" y="55.9996" width="8" height="8" fill="#0BD30B"/>
<rect x="106" y="55.9996" width="9" height="8" fill="#0BD30B"/>
<rect x="21.9995" y="63.9996" width="8" height="9" fill="#0BD30B"/>
<rect x="29.9995" y="63.9996" width="9" height="9" fill="#0BD30B"/>
<rect x="55.9995" y="63.9996" width="8" height="9" fill="#0BD30B"/>
<rect x="63.9995" y="63.9996" width="8" height="9" fill="#0BD30B"/>
<rect x="88.9995" y="63.9996" width="9" height="9" fill="#0BD30B"/>
<rect x="97.9995" y="63.9996" width="8" height="9" fill="#0BD30B"/>
<rect x="38.9995" y="72.9996" width="8" height="8" fill="#FE0002"/>
<rect x="46.9995" y="72.9996" width="9" height="8" fill="#FE0002"/>
<rect x="71.9995" y="72.9996" width="9" height="8" fill="#FE0002"/>
<rect x="80.9995" y="72.9996" width="8" height="8" fill="#FE0002"/>
<rect x="29.9995" y="72.9996" width="9" height="8" fill="black"/>
<rect x="21.9995" y="72.9996" width="8" height="8" fill="black"/>
<rect x="12.9995" y="72.9996" width="9" height="8" fill="black"/>
<rect x="12.9995" y="63.9996" width="9" height="9" fill="black"/>
<rect x="38.9995" y="63.9996" width="8" height="9" fill="black"/>
<rect x="46.9995" y="63.9996" width="9" height="9" fill="black"/>
<rect x="55.9995" y="72.9996" width="8" height="8" fill="black"/>
<rect x="63.9995" y="72.9996" width="8" height="8" fill="black"/>
<rect x="71.9995" y="63.9996" width="9" height="9" fill="black"/>
<rect x="80.9995" y="63.9996" width="8" height="9" fill="black"/>
<rect x="88.9995" y="72.9996" width="9" height="8" fill="black"/>
<rect x="97.9995" y="72.9996" width="8" height="8" fill="black"/>
<rect x="106" y="72.9996" width="9" height="8" fill="black"/>
<rect x="106" y="63.9996" width="9" height="9" fill="black"/>
<rect x="115" y="80.9996" width="8" height="8" fill="black"/>
<rect x="4.99951" y="80.9996" width="8" height="8" fill="black"/>
<rect x="115" y="55.9996" width="8" height="8" fill="black"/>
</svg>
