<svg width="123" height="123" viewBox="0 0 123 123" fill="none" xmlns="http://www.w3.org/2000/svg">
<rect x="51.0005" y="103" width="8" height="8" fill="#FE0002"/>
<rect x="59.0005" y="103" width="8" height="8" fill="#FE0002"/>
<rect x="43.0005" y="103" width="8" height="8" fill="#FE0002"/>
<rect x="67.0005" y="103" width="8" height="8" fill="#FE0002"/>
<rect x="35.0005" y="111" width="8" height="8" fill="black"/>
<rect x="75.0005" y="111" width="8" height="8" fill="black"/>
<rect x="83.0005" y="103" width="9" height="8" fill="black"/>
<rect x="83.0005" y="94.9996" width="9" height="8" fill="black"/>
<rect x="92.0005" y="86.9996" width="8" height="8" fill="black"/>
<rect x="92.0005" y="77.9996" width="8" height="9" fill="black"/>
<rect x="26.0005" y="103" width="8" height="8" fill="black"/>
<rect x="26.0005" y="94.9996" width="9" height="8" fill="black"/>
<rect x="18.0005" y="86.9996" width="8" height="8" fill="black"/>
<rect x="18.0005" y="77.9996" width="8" height="9" fill="black"/>
<rect x="18.0005" y="61.9996" width="8" height="8" fill="black"/>
<rect x="18.0005" y="69.9996" width="8" height="9" fill="black"/>
<rect x="92.0005" y="61.9996" width="8" height="8" fill="black"/>
<rect x="92.0005" y="69.9996" width="8" height="9" fill="black"/>
<rect x="83.0005" y="53.9996" width="9" height="8" fill="#F9ED32"/>
<rect x="75.0005" y="53.9996" width="8" height="8" fill="#FF8B00"/>
<rect x="43.0005" y="61.9996" width="8" height="8" fill="black"/>
<rect x="67.0005" y="61.9996" width="8" height="8" fill="black"/>
<rect x="59.0005" y="69.9996" width="8" height="9" fill="black"/>
<rect x="51.0005" y="69.9996" width="8" height="9" fill="black"/>
<rect x="43.0005" y="111" width="8" height="8" fill="black"/>
<rect x="51.0005" y="111" width="8" height="8" fill="black"/>
<rect x="59.0005" y="111" width="8" height="8" fill="black"/>
<rect x="67.0005" y="111" width="8" height="8" fill="black"/>
<rect x="35.0005" y="103" width="8" height="8" fill="#FE0002"/>
<rect x="75.0005" y="103" width="8" height="8" fill="#FE0002"/>
<rect x="75.0005" y="94.9996" width="8" height="8" fill="#FE0002"/>
<rect x="67.0005" y="94.9996" width="8" height="8" fill="#FE0002"/>
<rect x="59.0005" y="94.9996" width="8" height="8" fill="white"/>
<rect x="51.0005" y="94.9996" width="8" height="8" fill="white"/>
<rect x="43.0005" y="94.9996" width="8" height="8" fill="#FE0002"/>
<rect x="35.0005" y="94.9996" width="8" height="8" fill="#FE0002"/>
<rect x="35.0005" y="86.9996" width="8" height="8" fill="#FE0002"/>
<rect x="26.0005" y="86.9996" width="9" height="8" fill="#FE0002"/>
<rect x="26.0005" y="77.9996" width="9" height="9" fill="#FE0002"/>
<rect x="26.0005" y="69.9996" width="9" height="9" fill="#FE0002"/>
<rect x="26.0005" y="61.9996" width="8" height="8" fill="black"/>
<rect x="35.0005" y="61.9996" width="8" height="8" fill="black"/>
<rect x="35.0005" y="69.9996" width="8" height="9" fill="#FE0002"/>
<rect x="35.0005" y="77.9996" width="8" height="9" fill="#FE0002"/>
<rect x="43.0005" y="69.9996" width="8" height="9" fill="#FE0002"/>
<rect x="43.0005" y="77.9996" width="8" height="9" fill="#FE0002"/>
<rect x="43.0005" y="86.9996" width="8" height="8" fill="white"/>
<rect x="51.0005" y="86.9996" width="8" height="8" fill="#FE0002"/>
<rect x="51.0005" y="77.9996" width="8" height="9" fill="#FE0002"/>
<rect x="59.0005" y="77.9996" width="8" height="9" fill="#FE0002"/>
<rect x="67.0005" y="77.9996" width="8" height="9" fill="#FE0002"/>
<rect x="67.0005" y="86.9996" width="8" height="8" fill="white"/>
<rect x="59.0005" y="86.9996" width="8" height="8" fill="#FE0002"/>
<rect x="75.0005" y="86.9996" width="8" height="8" fill="#FE0002"/>
<rect x="83.0005" y="86.9996" width="9" height="8" fill="#FE0002"/>
<rect x="83.0005" y="77.9996" width="9" height="9" fill="#FE0002"/>
<rect x="83.0005" y="69.9996" width="9" height="9" fill="#FE0002"/>
<rect x="83.0005" y="61.9996" width="9" height="8" fill="black"/>
<rect x="75.0005" y="61.9996" width="8" height="8" fill="black"/>
<rect x="75.0005" y="69.9996" width="8" height="9" fill="#FE0002"/>
<rect x="75.0005" y="77.9996" width="8" height="9" fill="#FE0002"/>
<rect x="67.0005" y="69.9996" width="8" height="9" fill="#FE0002"/>
<rect x="26.0005" y="45.9996" width="8" height="8" fill="#F9ED32"/>
<rect x="26.0005" y="37.9996" width="9" height="8" fill="#F9ED32"/>
<rect x="18.0005" y="29.9996" width="8" height="8" fill="#F9ED32"/>
<rect x="18.0005" y="20.9996" width="8" height="8" fill="#F9ED32"/>
<rect x="18.0005" y="12.9996" width="8" height="8" fill="black"/>
<rect x="26.0005" y="20.9996" width="8" height="8" fill="#FF8B00"/>
<rect x="26.0005" y="29.9996" width="9" height="8" fill="#FF8B00"/>
<rect x="35.0005" y="37.9996" width="8" height="8" fill="#FF8B00"/>
<rect x="35.0005" y="45.9996" width="8" height="8" fill="#FF8B00"/>
<rect x="26.0005" y="12.9996" width="8" height="8" fill="black"/>
<rect x="10.0005" y="20.9996" width="8" height="8" fill="black"/>
<rect x="10.0005" y="29.9996" width="8" height="8" fill="black"/>
<rect x="18.0005" y="37.9996" width="8" height="8" fill="#F9ED32"/>
<rect x="18.0005" y="45.9996" width="8" height="8" fill="black"/>
<rect x="18.0005" y="53.9996" width="8" height="8" fill="black"/>
<rect x="35.0005" y="20.9996" width="8" height="8" fill="black"/>
<rect x="35.0005" y="29.9996" width="8" height="8" fill="black"/>
<rect x="43.0005" y="45.9996" width="8" height="8" fill="#F9ED32"/>
<rect x="51.0005" y="45.9996" width="8" height="8" fill="#F9ED32"/>
<rect x="51.0005" y="53.9996" width="8" height="8" fill="#F9ED32"/>
<rect x="59.0005" y="45.9996" width="8" height="8" fill="#FF8B00"/>
<rect x="59.0005" y="53.9996" width="8" height="8" fill="#FF8B00"/>
<rect x="59.0005" y="61.9996" width="8" height="8" fill="#FF8B00"/>
<rect x="51.0005" y="61.9996" width="8" height="8" fill="#F9ED32"/>
<rect x="43.0005" y="37.9996" width="8" height="8" fill="#F9ED32"/>
<rect x="43.0005" y="29.9996" width="8" height="8" fill="#F9ED32"/>
<rect x="51.0005" y="37.9996" width="8" height="8" fill="#FF8B00"/>
<rect x="51.0005" y="29.9996" width="8" height="8" fill="#FF8B00"/>
<rect x="43.0005" y="20.9996" width="8" height="8" fill="black"/>
<rect x="51.0005" y="20.9996" width="8" height="8" fill="black"/>
<rect x="59.0005" y="29.9996" width="8" height="8" fill="#F9ED32"/>
<rect x="59.0005" y="37.9996" width="8" height="8" fill="#FF8B00"/>
<rect x="67.0005" y="45.9996" width="8" height="8" fill="#F9ED32"/>
<rect x="67.0005" y="53.9996" width="8" height="8" fill="#F9ED32"/>
<rect x="43.0005" y="53.9996" width="8" height="8" fill="#F9ED32"/>
<rect x="59.0005" y="20.9996" width="8" height="8" fill="#F9ED32"/>
<rect x="59.0005" y="12.9996" width="8" height="8" fill="#F9ED32"/>
<rect x="67.0005" y="20.9996" width="8" height="8" fill="#FF8B00"/>
<rect x="67.0005" y="29.9996" width="8" height="8" fill="#F9ED32"/>
<rect x="67.0005" y="37.9996" width="8" height="8" fill="#F9ED32"/>
<rect x="59.0005" y="4.99963" width="8" height="8" fill="black"/>
<rect x="75.0005" y="20.9996" width="8" height="8" fill="#FF8B00"/>
<rect x="75.0005" y="29.9996" width="8" height="8" fill="#FF8B00"/>
<rect x="75.0005" y="37.9996" width="8" height="8" fill="#FF8B00"/>
<rect x="67.0005" y="12.9996" width="8" height="8" fill="#FF8B00"/>
<rect x="67.0005" y="4.99963" width="8" height="8" fill="black"/>
<rect x="10.0005" y="37.9996" width="8" height="8" fill="black"/>
<rect x="75.0005" y="4.99963" width="8" height="8" fill="black"/>
<rect x="75.0005" y="12.9996" width="8" height="8" fill="black"/>
<rect x="75.0005" y="45.9996" width="8" height="8" fill="#FF8B00"/>
<rect x="83.0005" y="29.9996" width="9" height="8" fill="#F9ED32"/>
<rect x="83.0005" y="37.9996" width="9" height="8" fill="#F9ED32"/>
<rect x="83.0005" y="45.9996" width="9" height="8" fill="#F9ED32"/>
<rect x="51.0005" y="12.9996" width="8" height="8" fill="black"/>
<rect x="92.0005" y="53.9996" width="8" height="8" fill="black"/>
<rect x="92.0005" y="37.9996" width="8" height="8" fill="#FF8B00"/>
<rect x="92.0005" y="29.9996" width="8" height="8" fill="#FF8B00"/>
<rect x="92.0005" y="20.9996" width="8" height="8" fill="#FF8B00"/>
<rect x="92.0005" y="45.9996" width="8" height="8" fill="#FF8B00"/>
<rect x="100" y="37.9996" width="8" height="8" fill="black"/>
<rect x="100" y="29.9996" width="8" height="8" fill="black"/>
<rect x="100" y="20.9996" width="8" height="8" fill="black"/>
<rect x="92.0005" y="12.9996" width="8" height="8" fill="black"/>
<rect x="100" y="12.9996" width="8" height="8" fill="black"/>
<rect x="83.0005" y="20.9996" width="9" height="8" fill="black"/>
<rect x="100" y="45.9996" width="8" height="8" fill="black"/>
<rect x="26.0005" y="53.9996" width="8" height="8" fill="#F9ED32"/>
<rect x="35.0005" y="53.9996" width="8" height="8" fill="#FF8B00"/>
</svg>
