<svg width="123" height="123" viewBox="0 0 123 123" fill="none" xmlns="http://www.w3.org/2000/svg">
<rect x="12.9995" y="4.99963" width="8" height="8" fill="black"/>
<rect x="20.9995" y="4.99963" width="8" height="8" fill="black"/>
<rect x="4.99951" y="4.99963" width="8" height="8" fill="black"/>
<rect x="4.99951" y="12.9996" width="8" height="8" fill="black"/>
<rect x="4.99951" y="20.9996" width="8" height="8" fill="black"/>
<rect x="12.9995" y="28.9996" width="8" height="9" fill="black"/>
<rect x="12.9995" y="37.9996" width="8" height="8" fill="black"/>
<rect x="12.9995" y="45.9996" width="8" height="8" fill="black"/>
<rect x="20.9995" y="53.9996" width="8" height="8" fill="black"/>
<rect x="20.9995" y="61.9996" width="8" height="8" fill="black"/>
<rect x="20.9995" y="69.9996" width="8" height="8" fill="black"/>
<rect x="28.9995" y="77.9996" width="9" height="8" fill="black"/>
<rect x="28.9995" y="85.9996" width="9" height="9" fill="black"/>
<rect x="28.9995" y="94.9996" width="9" height="8" fill="black"/>
<rect x="37.9995" y="103" width="8" height="8" fill="black"/>
<rect x="37.9995" y="111" width="8" height="8" fill="black"/>
<rect x="45.9995" y="111" width="8" height="8" fill="black"/>
<rect x="53.9995" y="111" width="8" height="8" fill="black"/>
<rect x="61.9995" y="103" width="8" height="8" fill="black"/>
<rect x="69.9995" y="103" width="8" height="8" fill="black"/>
<rect x="77.9995" y="94.9996" width="8" height="8" fill="black"/>
<rect x="85.9995" y="85.9996" width="9" height="9" fill="black"/>
<rect x="94.9995" y="77.9996" width="8" height="8" fill="black"/>
<rect x="103" y="69.9996" width="8" height="8" fill="black"/>
<rect x="103" y="61.9996" width="8" height="8" fill="black"/>
<rect x="111" y="53.9996" width="8" height="8" fill="black"/>
<rect x="111" y="45.9996" width="8" height="8" fill="black"/>
<rect x="111" y="37.9996" width="8" height="8" fill="black"/>
<rect x="103" y="37.9996" width="8" height="8" fill="black"/>
<rect x="94.9995" y="37.9996" width="8" height="8" fill="#FEC200"/>
<rect x="28.9995" y="12.9996" width="9" height="8" fill="black"/>
<rect x="37.9995" y="12.9996" width="8" height="8" fill="black"/>
<rect x="45.9995" y="12.9996" width="8" height="8" fill="black"/>
<rect x="53.9995" y="20.9996" width="8" height="8" fill="black"/>
<rect x="61.9995" y="20.9996" width="8" height="8" fill="black"/>
<rect x="69.9995" y="20.9996" width="8" height="8" fill="black"/>
<rect x="77.9995" y="28.9996" width="8" height="9" fill="black"/>
<rect x="85.9995" y="28.9996" width="9" height="9" fill="black"/>
<rect x="94.9995" y="28.9996" width="8" height="9" fill="black"/>
<rect x="45.9995" y="94.9996" width="8" height="8" fill="black"/>
<rect x="53.9995" y="85.9996" width="8" height="9" fill="#FEC200"/>
<rect x="61.9995" y="77.9996" width="8" height="8" fill="#FEC200"/>
<rect x="69.9995" y="69.9996" width="8" height="8" fill="#FEC200"/>
<rect x="77.9995" y="61.9996" width="8" height="8" fill="#FEC200"/>
<rect x="85.9995" y="53.9996" width="9" height="8" fill="#FEC200"/>
<rect x="94.9995" y="45.9996" width="8" height="8" fill="black"/>
<rect x="45.9995" y="103" width="8" height="8" fill="#FF8B00"/>
<rect x="53.9995" y="103" width="8" height="8" fill="#FF8B00"/>
<rect x="53.9995" y="94.9996" width="8" height="8" fill="black"/>
<rect x="61.9995" y="94.9996" width="8" height="8" fill="#FF8B00"/>
<rect x="69.9995" y="94.9996" width="8" height="8" fill="#FF8B00"/>
<rect x="61.9995" y="85.9996" width="8" height="9" fill="black"/>
<rect x="69.9995" y="85.9996" width="8" height="9" fill="#FF8B00"/>
<rect x="77.9995" y="85.9996" width="8" height="9" fill="#FF8B00"/>
<rect x="77.9995" y="77.9996" width="8" height="8" fill="#FF8B00"/>
<rect x="69.9995" y="77.9996" width="8" height="8" fill="black"/>
<rect x="85.9995" y="77.9996" width="9" height="8" fill="#FF8B00"/>
<rect x="85.9995" y="69.9996" width="9" height="8" fill="#FF8B00"/>
<rect x="77.9995" y="69.9996" width="8" height="8" fill="black"/>
<rect x="94.9995" y="69.9996" width="8" height="8" fill="#FF8B00"/>
<rect x="94.9995" y="61.9996" width="8" height="8" fill="#FF8B00"/>
<rect x="85.9995" y="61.9996" width="9" height="8" fill="black"/>
<rect x="94.9995" y="53.9996" width="8" height="8" fill="black"/>
<rect x="103" y="53.9996" width="8" height="8" fill="#FF8B00"/>
<rect x="103" y="45.9996" width="8" height="8" fill="#FF8B00"/>
<rect x="69.9995" y="61.9996" width="8" height="8" fill="#FEC200"/>
<rect x="20.9995" y="12.9996" width="8" height="8" fill="#FEC200"/>
<rect x="20.9995" y="20.9996" width="8" height="8" fill="black"/>
<rect x="28.9995" y="28.9996" width="9" height="9" fill="black"/>
<rect x="37.9995" y="28.9996" width="8" height="9" fill="#FEC200"/>
<rect x="45.9995" y="20.9996" width="8" height="8" fill="black"/>
<rect x="37.9995" y="20.9996" width="8" height="8" fill="#FEC200"/>
<rect x="28.9995" y="20.9996" width="9" height="8" fill="#FEC200"/>
<rect x="28.9995" y="45.9996" width="9" height="8" fill="#FEC200"/>
<rect x="37.9995" y="45.9996" width="8" height="8" fill="#FEC200"/>
<rect x="45.9995" y="53.9996" width="8" height="8" fill="#FEC200"/>
<rect x="45.9995" y="61.9996" width="8" height="8" fill="black"/>
<rect x="37.9995" y="69.9996" width="8" height="8" fill="#FE0002"/>
<rect x="28.9995" y="53.9996" width="9" height="8" fill="#FEC200"/>
<rect x="28.9995" y="61.9996" width="9" height="8" fill="#FEC200"/>
<rect x="37.9995" y="61.9996" width="8" height="8" fill="black"/>
<rect x="37.9995" y="53.9996" width="8" height="8" fill="#FEC200"/>
<rect x="37.9995" y="37.9996" width="8" height="8" fill="#FEC200"/>
<rect x="45.9995" y="45.9996" width="8" height="8" fill="#FEC200"/>
<rect x="53.9995" y="53.9996" width="8" height="8" fill="#FEC200"/>
<rect x="53.9995" y="61.9996" width="8" height="8" fill="#FEC200"/>
<rect x="61.9995" y="69.9996" width="8" height="8" fill="#FEC200"/>
<rect x="53.9995" y="69.9996" width="8" height="8" fill="black"/>
<rect x="28.9995" y="37.9996" width="9" height="8" fill="black"/>
<rect x="28.9995" y="69.9996" width="9" height="8" fill="black"/>
<rect x="37.9995" y="94.9996" width="8" height="8" fill="#FEC200"/>
<rect x="37.9995" y="85.9996" width="8" height="9" fill="black"/>
<rect x="37.9995" y="77.9996" width="8" height="8" fill="#FE0002"/>
<rect x="20.9995" y="28.9996" width="8" height="9" fill="#FE0002"/>
<rect x="20.9995" y="37.9996" width="8" height="8" fill="#FE0002"/>
<rect x="20.9995" y="45.9996" width="8" height="8" fill="black"/>
<rect x="12.9995" y="12.9996" width="8" height="8" fill="#FEC200"/>
<rect x="12.9995" y="20.9996" width="8" height="8" fill="#FEC200"/>
<rect x="45.9995" y="28.9996" width="8" height="9" fill="#FEC200"/>
<rect x="45.9995" y="37.9996" width="8" height="8" fill="#FEC200"/>
<rect x="45.9995" y="69.9996" width="8" height="8" fill="#FE0002"/>
<rect x="45.9995" y="77.9996" width="8" height="8" fill="#FE0002"/>
<rect x="45.9995" y="85.9996" width="8" height="9" fill="black"/>
<rect x="53.9995" y="77.9996" width="8" height="8" fill="black"/>
<rect x="53.9995" y="45.9996" width="8" height="8" fill="#FEC200"/>
<rect x="53.9995" y="37.9996" width="8" height="8" fill="black"/>
<rect x="53.9995" y="28.9996" width="8" height="9" fill="black"/>
<rect x="61.9995" y="28.9996" width="8" height="9" fill="#FE0002"/>
<rect x="69.9995" y="28.9996" width="8" height="9" fill="black"/>
<rect x="69.9995" y="37.9996" width="8" height="8" fill="#FE0002"/>
<rect x="69.9995" y="45.9996" width="8" height="8" fill="black"/>
<rect x="69.9995" y="53.9996" width="8" height="8" fill="#FEC200"/>
<rect x="61.9995" y="61.9996" width="8" height="8" fill="#FEC200"/>
<rect x="61.9995" y="53.9996" width="8" height="8" fill="#FEC200"/>
<rect x="61.9995" y="45.9996" width="8" height="8" fill="black"/>
<rect x="61.9995" y="37.9996" width="8" height="8" fill="#FE0002"/>
<rect x="77.9995" y="37.9996" width="8" height="8" fill="black"/>
<rect x="85.9995" y="37.9996" width="9" height="8" fill="#FEC200"/>
<rect x="85.9995" y="45.9996" width="9" height="8" fill="#FEC200"/>
<rect x="77.9995" y="53.9996" width="8" height="8" fill="#FEC200"/>
<rect x="77.9995" y="45.9996" width="8" height="8" fill="#FEC200"/>
</svg>
