<svg width="280" height="280" viewBox="0 0 280 280" fill="none" xmlns="http://www.w3.org/2000/svg">
<rect x="92" y="226" width="14" height="14" fill="black"/>
<rect x="106" y="226" width="14" height="14" fill="black"/>
<rect x="120" y="226" width="15" height="14" fill="black"/>
<rect x="135" y="226" width="13" height="14" fill="black"/>
<rect x="148" y="226" width="14" height="14" fill="black"/>
<rect x="162" y="226" width="13" height="14" fill="black"/>
<rect x="79" y="213" width="13" height="13" fill="black"/>
<rect x="79" y="199" width="13" height="14" fill="black"/>
<rect x="64" y="186" width="15" height="13" fill="black"/>
<rect x="175" y="213" width="14" height="13" fill="black"/>
<rect x="175" y="199" width="14" height="14" fill="black"/>
<rect x="191" y="186" width="13" height="13" fill="black"/>
<rect x="204" y="170" width="14" height="16" fill="black"/>
<rect x="204" y="157" width="14" height="13" fill="black"/>
<rect x="204" y="143" width="14" height="14" fill="black"/>
<rect x="204" y="130" width="14" height="13" fill="black"/>
<rect x="50" y="170" width="14" height="16" fill="black"/>
<rect x="50" y="157" width="14" height="13" fill="black"/>
<rect x="50" y="143" width="14" height="14" fill="black"/>
<rect x="50" y="130" width="14" height="13" fill="black"/>
<rect x="64" y="115" width="15" height="13" fill="black"/>
<rect x="64" y="101" width="15" height="14" fill="black"/>
<rect x="79" y="87" width="13" height="14" fill="black"/>
<rect x="79" y="74" width="13" height="13" fill="black"/>
<rect x="92" y="59" width="14" height="13" fill="black"/>
<rect x="106" y="45" width="14" height="14" fill="black"/>
<rect x="120" y="45" width="15" height="14" fill="black"/>
<rect x="135" y="45" width="13" height="14" fill="black"/>
<rect x="148" y="45" width="14" height="14" fill="black"/>
<rect x="191" y="115" width="13" height="13" fill="black"/>
<rect x="191" y="101" width="13" height="14" fill="black"/>
<rect x="175" y="87" width="14" height="14" fill="black"/>
<rect x="175" y="74" width="14" height="13" fill="black"/>
<rect x="162" y="59" width="13" height="13" fill="black"/>
<rect x="106" y="59" width="14" height="13" fill="#7EC928"/>
<rect x="120" y="59" width="15" height="15" fill="#7EC928"/>
<rect x="135" y="59" width="13" height="15" fill="#7EC928"/>
<rect x="148" y="59" width="14" height="15" fill="#7EC928"/>
<rect x="148" y="74" width="14" height="13" fill="#7EC928"/>
<rect x="135" y="74" width="13" height="13" fill="#7EC928"/>
<rect x="120" y="74" width="15" height="13" fill="#7EC928"/>
<rect x="106" y="74" width="14" height="13" fill="#7EC928"/>
<rect x="92" y="74" width="14" height="13" fill="#7EC928"/>
<rect x="92" y="87" width="14" height="14" fill="#7EC928"/>
<rect x="106" y="87" width="14" height="14" fill="#7EC928"/>
<rect x="120" y="87" width="15" height="14" fill="#7EC928"/>
<rect x="135" y="87" width="13" height="14" fill="#7EC928"/>
<rect x="148" y="87" width="14" height="14" fill="#7EC928"/>
<rect x="162" y="87" width="13" height="14" fill="#7EC928"/>
<rect x="162" y="74" width="13" height="13" fill="#7EC928"/>
<rect x="162" y="101" width="13" height="14" fill="#7EC928"/>
<rect x="175" y="101" width="14" height="14" fill="#7EC928"/>
<rect x="175" y="115" width="14" height="13" fill="#7EC928"/>
<rect x="162" y="115" width="13" height="13" fill="#7EC928"/>
<rect x="148" y="115" width="14" height="13" fill="black"/>
<rect x="135" y="115" width="13" height="13" fill="black"/>
<rect x="120" y="115" width="15" height="13" fill="black"/>
<rect x="106" y="115" width="14" height="13" fill="black"/>
<rect x="92" y="115" width="14" height="13" fill="#7EC928"/>
<rect x="79" y="115" width="13" height="13" fill="#7EC928"/>
<rect x="79" y="101" width="13" height="14" fill="#7EC928"/>
<rect x="92" y="101" width="14" height="14" fill="#7EC928"/>
<rect x="106" y="101" width="14" height="14" fill="#7EC928"/>
<rect x="120" y="101" width="15" height="14" fill="#7EC928"/>
<rect x="135" y="101" width="13" height="14" fill="#7EC928"/>
<rect x="148" y="101" width="14" height="14" fill="#7EC928"/>
<rect x="120" y="130" width="15" height="13" fill="#633804"/>
<rect x="106" y="130" width="14" height="13" fill="#633804"/>
<rect x="92" y="130" width="14" height="13" fill="black"/>
<rect x="79" y="130" width="13" height="13" fill="#7EC928"/>
<rect x="64" y="130" width="15" height="13" fill="#7EC928"/>
<rect x="64" y="143" width="15" height="14" fill="#7EC928"/>
<rect x="64" y="157" width="15" height="13" fill="#7EC928"/>
<rect x="64" y="170" width="15" height="16" fill="#7EC928"/>
<rect x="79" y="170" width="13" height="16" fill="#7EC928"/>
<rect x="79" y="186" width="13" height="13" fill="#7EC928"/>
<rect x="79" y="157" width="13" height="13" fill="#7EC928"/>
<rect x="79" y="143" width="13" height="14" fill="#7EC928"/>
<rect x="92" y="143" width="14" height="14" fill="black"/>
<rect x="106" y="143" width="14" height="14" fill="#633804"/>
<rect x="120" y="143" width="15" height="14" fill="#633804"/>
<rect x="135" y="130" width="13" height="13" fill="#633804"/>
<rect x="148" y="130" width="14" height="13" fill="#633804"/>
<rect x="162" y="130" width="13" height="13" fill="black"/>
<rect x="191" y="130" width="13" height="13" fill="#7EC928"/>
<rect x="175" y="130" width="14" height="13" fill="#7EC928"/>
<rect x="175" y="143" width="14" height="14" fill="#7EC928"/>
<rect x="191" y="143" width="13" height="14" fill="#7EC928"/>
<rect x="191" y="157" width="13" height="13" fill="#7EC928"/>
<rect x="191" y="170" width="13" height="16" fill="#7EC928"/>
<rect x="175" y="170" width="14" height="16" fill="#7EC928"/>
<rect x="175" y="157" width="14" height="13" fill="#7EC928"/>
<rect x="162" y="157" width="13" height="13" fill="black"/>
<rect x="162" y="143" width="13" height="14" fill="black"/>
<rect x="148" y="143" width="14" height="14" fill="#633804"/>
<rect x="135" y="143" width="13" height="14" fill="#633804"/>
<rect x="135" y="157" width="13" height="13" fill="#633804"/>
<rect x="120" y="157" width="15" height="13" fill="#633804"/>
<rect x="106" y="157" width="14" height="13" fill="#633804"/>
<rect x="92" y="157" width="14" height="13" fill="black"/>
<rect x="148" y="157" width="14" height="13" fill="#633804"/>
<rect x="162" y="170" width="13" height="16" fill="black"/>
<rect x="175" y="186" width="14" height="13" fill="#7EC928"/>
<rect x="162" y="186" width="13" height="13" fill="#7EC928"/>
<rect x="148" y="186" width="14" height="13" fill="black"/>
<rect x="135" y="186" width="13" height="13" fill="black"/>
<rect x="120" y="186" width="15" height="13" fill="black"/>
<rect x="106" y="186" width="14" height="13" fill="black"/>
<rect x="92" y="170" width="14" height="16" fill="black"/>
<rect x="106" y="170" width="14" height="16" fill="#633804"/>
<rect x="120" y="170" width="15" height="16" fill="#633804"/>
<rect x="135" y="170" width="13" height="16" fill="#633804"/>
<rect x="148" y="170" width="14" height="16" fill="#633804"/>
<rect x="92" y="186" width="14" height="13" fill="#7EC928"/>
<rect x="92" y="199" width="14" height="14" fill="#7EC928"/>
<rect x="92" y="213" width="14" height="13" fill="#7EC928"/>
<rect x="106" y="213" width="14" height="13" fill="#7EC928"/>
<rect x="120" y="213" width="15" height="13" fill="#7EC928"/>
<rect x="135" y="213" width="13" height="13" fill="#7EC928"/>
<rect x="148" y="213" width="14" height="13" fill="#7EC928"/>
<rect x="162" y="213" width="13" height="13" fill="#7EC928"/>
<rect x="162" y="199" width="13" height="14" fill="#7EC928"/>
<rect x="148" y="199" width="14" height="14" fill="#7EC928"/>
<rect x="135" y="199" width="13" height="14" fill="#7EC928"/>
<rect x="120" y="199" width="15" height="14" fill="#7EC928"/>
<rect x="106" y="199" width="14" height="14" fill="#7EC928"/>
<rect x="64" y="199" width="15" height="14" fill="black"/>
<rect x="191" y="199" width="13" height="14" fill="black"/>
</svg>
