<svg width="281" height="280" viewBox="0 0 281 280" fill="none" xmlns="http://www.w3.org/2000/svg">
<g clip-path="url(#clip0_15874_10962)">
<rect x="175.167" y="45" width="15" height="15" transform="rotate(90 175.167 45)" fill="black"/>
<rect x="160.167" y="45" width="15" height="15" transform="rotate(90 160.167 45)" fill="black"/>
<rect x="188.167" y="60" width="13" height="13" transform="rotate(90 188.167 60)" fill="black"/>
<rect x="147.167" y="45" width="15" height="15" transform="rotate(90 147.167 45)" fill="black"/>
<rect x="132.167" y="45" width="15" height="14" transform="rotate(90 132.167 45)" fill="black"/>
<rect x="77.1665" y="87" width="13" height="15" transform="rotate(90 77.1665 87)" fill="black"/>
<rect x="90.1665" y="73" width="14" height="13" transform="rotate(90 90.1665 73)" fill="black"/>
<rect x="105.167" y="60" width="13" height="15" transform="rotate(90 105.167 60)" fill="black"/>
<rect x="118.167" y="45" width="15" height="13" transform="rotate(90 118.167 45)" fill="black"/>
<rect x="202.167" y="73" width="14" height="14" transform="rotate(90 202.167 73)" fill="black"/>
<rect x="215.167" y="87" width="13" height="13" transform="rotate(90 215.167 87)" fill="black"/>
<rect x="230.167" y="115" width="13" height="15" transform="rotate(90 230.167 115)" fill="black"/>
<rect x="230.167" y="128" width="15" height="15" transform="rotate(90 230.167 128)" fill="black"/>
<rect x="230.167" y="100" width="15" height="15" transform="rotate(90 230.167 100)" fill="black"/>
<rect x="215.167" y="143" width="14" height="13" transform="rotate(90 215.167 143)" fill="black"/>
<rect x="215.167" y="157" width="13" height="13" transform="rotate(90 215.167 157)" fill="black"/>
<rect x="215.167" y="170" width="15" height="13" transform="rotate(90 215.167 170)" fill="black"/>
<rect x="215.167" y="185" width="13" height="13" transform="rotate(90 215.167 185)" fill="black"/>
<rect x="215.167" y="198" width="15" height="13" transform="rotate(90 215.167 198)" fill="black"/>
<rect x="215.167" y="213" width="13" height="13" transform="rotate(90 215.167 213)" fill="black"/>
<rect x="62.1665" y="100" width="15" height="14" transform="rotate(90 62.1665 100)" fill="black"/>
<rect x="62.1665" y="115" width="13" height="14" transform="rotate(90 62.1665 115)" fill="black"/>
<rect x="62.1665" y="128" width="15" height="14" transform="rotate(90 62.1665 128)" fill="black"/>
<rect x="77.1665" y="143" width="14" height="15" transform="rotate(90 77.1665 143)" fill="black"/>
<rect x="77.1665" y="157" width="13" height="15" transform="rotate(90 77.1665 157)" fill="black"/>
<rect x="77.1665" y="170" width="15" height="15" transform="rotate(90 77.1665 170)" fill="black"/>
<rect x="77.1665" y="185" width="13" height="15" transform="rotate(90 77.1665 185)" fill="black"/>
<rect x="77.1665" y="198" width="15" height="15" transform="rotate(90 77.1665 198)" fill="black"/>
<rect x="77.1665" y="213" width="13" height="15" transform="rotate(90 77.1665 213)" fill="black"/>
<rect x="202.167" y="226" width="14" height="14" transform="rotate(90 202.167 226)" fill="black"/>
<rect x="188.167" y="226" width="14" height="13" transform="rotate(90 188.167 226)" fill="black"/>
<rect x="175.167" y="226" width="14" height="15" transform="rotate(90 175.167 226)" fill="black"/>
<rect x="160.167" y="226" width="14" height="15" transform="rotate(90 160.167 226)" fill="black"/>
<rect x="147.167" y="226" width="14" height="15" transform="rotate(90 147.167 226)" fill="black"/>
<rect x="132.167" y="226" width="14" height="14" transform="rotate(90 132.167 226)" fill="black"/>
<rect x="118.167" y="226" width="14" height="13" transform="rotate(90 118.167 226)" fill="black"/>
<rect x="105.167" y="226" width="14" height="15" transform="rotate(90 105.167 226)" fill="black"/>
<rect x="90.1665" y="226" width="14" height="13" transform="rotate(90 90.1665 226)" fill="black"/>
<rect x="202.167" y="60" width="13" height="14" transform="rotate(90 202.167 60)" fill="black"/>
<rect x="90.1665" y="60" width="13" height="13" transform="rotate(90 90.1665 60)" fill="black"/>
<rect x="175.167" y="100" width="15" height="15" transform="rotate(90 175.167 100)" fill="#FACD96"/>
<rect x="175.167" y="115" width="13" height="15" transform="rotate(90 175.167 115)" fill="#FACD96"/>
<rect x="175.167" y="128" width="15" height="15" transform="rotate(90 175.167 128)" fill="#FACD96"/>
<rect x="175.167" y="143" width="14" height="15" transform="rotate(90 175.167 143)" fill="#FACD96"/>
<rect x="175.167" y="157" width="13" height="15" transform="rotate(90 175.167 157)" fill="#FACD96"/>
<rect x="175.167" y="170" width="15" height="15" transform="rotate(90 175.167 170)" fill="#FACD96"/>
<rect x="147.167" y="100" width="15" height="15" transform="rotate(90 147.167 100)" fill="#FACD96"/>
<rect x="147.167" y="115" width="13" height="15" transform="rotate(90 147.167 115)" fill="#FACD96"/>
<rect x="147.167" y="128" width="15" height="15" transform="rotate(90 147.167 128)" fill="#FACD96"/>
<rect x="147.167" y="143" width="14" height="15" transform="rotate(90 147.167 143)" fill="#FACD96"/>
<rect x="147.167" y="157" width="13" height="15" transform="rotate(90 147.167 157)" fill="#F9E28E"/>
<rect x="147.167" y="170" width="15" height="15" transform="rotate(90 147.167 170)" fill="#F9E28E"/>
<rect x="118.167" y="100" width="15" height="13" transform="rotate(90 118.167 100)" fill="#FACD96"/>
<rect x="118.167" y="115" width="13" height="13" transform="rotate(90 118.167 115)" fill="#FACD96"/>
<rect x="118.167" y="128" width="15" height="13" transform="rotate(90 118.167 128)" fill="#F9E28E"/>
<rect x="118.167" y="143" width="14" height="13" transform="rotate(90 118.167 143)" fill="#F9E28E"/>
<rect x="118.167" y="157" width="13" height="13" transform="rotate(90 118.167 157)" fill="#F9E28E"/>
<rect x="118.167" y="170" width="15" height="13" transform="rotate(90 118.167 170)" fill="#F9E28E"/>
<rect x="77.1665" y="128" width="15" height="15" transform="rotate(90 77.1665 128)" fill="#BF8954"/>
<rect x="77.1665" y="115" width="13" height="15" transform="rotate(90 77.1665 115)" fill="#BF8954"/>
<rect x="77.1665" y="100" width="15" height="15" transform="rotate(90 77.1665 100)" fill="#BF8954"/>
<rect x="90.1665" y="100" width="15" height="13" transform="rotate(90 90.1665 100)" fill="#BF8954"/>
<rect x="105.167" y="100" width="15" height="15" transform="rotate(90 105.167 100)" fill="#FACD96"/>
<rect x="105.167" y="87" width="13" height="15" transform="rotate(90 105.167 87)" fill="#BF8954"/>
<rect x="90.1665" y="87" width="13" height="13" transform="rotate(90 90.1665 87)" fill="#BF8954"/>
<rect x="105.167" y="73" width="14" height="15" transform="rotate(90 105.167 73)" fill="#BF8954"/>
<rect x="118.167" y="73" width="14" height="13" transform="rotate(90 118.167 73)" fill="#BF8954"/>
<rect x="118.167" y="60" width="13" height="13" transform="rotate(90 118.167 60)" fill="#BF8954"/>
<rect x="132.167" y="60" width="13" height="14" transform="rotate(90 132.167 60)" fill="#BF8954"/>
<rect x="147.167" y="60" width="13" height="15" transform="rotate(90 147.167 60)" fill="#BF8954"/>
<rect x="160.167" y="60" width="13" height="15" transform="rotate(90 160.167 60)" fill="#BF8954"/>
<rect x="175.167" y="60" width="13" height="15" transform="rotate(90 175.167 60)" fill="#BF8954"/>
<rect x="175.167" y="73" width="14" height="15" transform="rotate(90 175.167 73)" fill="#BF8954"/>
<rect x="188.167" y="73" width="14" height="13" transform="rotate(90 188.167 73)" fill="#BF8954"/>
<rect x="188.167" y="87" width="13" height="13" transform="rotate(90 188.167 87)" fill="#BF8954"/>
<rect x="202.167" y="87" width="13" height="14" transform="rotate(90 202.167 87)" fill="#BF8954"/>
<rect x="202.167" y="100" width="15" height="14" transform="rotate(90 202.167 100)" fill="#BF8954"/>
<rect x="202.167" y="115" width="13" height="14" transform="rotate(90 202.167 115)" fill="#BF8954"/>
<rect x="202.167" y="128" width="15" height="14" transform="rotate(90 202.167 128)" fill="#BF8954"/>
<rect x="202.167" y="143" width="14" height="14" transform="rotate(90 202.167 143)" fill="#BF8954"/>
<rect x="202.167" y="157" width="13" height="14" transform="rotate(90 202.167 157)" fill="#BF8954"/>
<rect x="202.167" y="170" width="15" height="14" transform="rotate(90 202.167 170)" fill="#BF8954"/>
<rect x="202.167" y="185" width="13" height="14" transform="rotate(90 202.167 185)" fill="#BF8954"/>
<rect x="202.167" y="198" width="15" height="14" transform="rotate(90 202.167 198)" fill="#BF8954"/>
<rect x="202.167" y="213" width="13" height="14" transform="rotate(90 202.167 213)" fill="#BF8954"/>
<rect x="188.167" y="213" width="13" height="13" transform="rotate(90 188.167 213)" fill="#BF8954"/>
<rect x="175.167" y="213" width="13" height="15" transform="rotate(90 175.167 213)" fill="#BF8954"/>
<rect x="160.167" y="213" width="13" height="15" transform="rotate(90 160.167 213)" fill="#BF8954"/>
<rect x="147.167" y="213" width="13" height="15" transform="rotate(90 147.167 213)" fill="#BF8954"/>
<rect x="132.167" y="213" width="13" height="14" transform="rotate(90 132.167 213)" fill="#BF8954"/>
<rect x="118.167" y="213" width="13" height="13" transform="rotate(90 118.167 213)" fill="#BF8954"/>
<rect x="105.167" y="213" width="13" height="15" transform="rotate(90 105.167 213)" fill="#BF8954"/>
<rect x="90.1665" y="213" width="13" height="13" transform="rotate(90 90.1665 213)" fill="#BF8954"/>
<rect x="90.1665" y="198" width="15" height="13" transform="rotate(90 90.1665 198)" fill="#BF8954"/>
<rect x="90.1665" y="185" width="13" height="13" transform="rotate(90 90.1665 185)" fill="#BF8954"/>
<rect x="90.1665" y="170" width="15" height="13" transform="rotate(90 90.1665 170)" fill="#BF8954"/>
<rect x="90.1665" y="157" width="13" height="13" transform="rotate(90 90.1665 157)" fill="#BF8954"/>
<rect x="90.1665" y="143" width="14" height="13" transform="rotate(90 90.1665 143)" fill="#BF8954"/>
<rect x="90.1665" y="128" width="15" height="13" transform="rotate(90 90.1665 128)" fill="#BF8954"/>
<rect x="90.1665" y="115" width="13" height="13" transform="rotate(90 90.1665 115)" fill="#BF8954"/>
<rect x="105.167" y="115" width="13" height="15" transform="rotate(90 105.167 115)" fill="#F9E28E"/>
<rect x="105.167" y="128" width="15" height="15" transform="rotate(90 105.167 128)" fill="#F9E28E"/>
<rect x="105.167" y="143" width="14" height="15" transform="rotate(90 105.167 143)" fill="#F9E28E"/>
<rect x="105.167" y="157" width="13" height="15" transform="rotate(90 105.167 157)" fill="#F9E28E"/>
<rect x="105.167" y="170" width="15" height="15" transform="rotate(90 105.167 170)" fill="#F9E28E"/>
<rect x="105.167" y="185" width="13" height="15" transform="rotate(90 105.167 185)" fill="#F9E28E"/>
<rect x="105.167" y="198" width="15" height="15" transform="rotate(90 105.167 198)" fill="#F9E28E"/>
<rect x="118.167" y="198" width="15" height="13" transform="rotate(90 118.167 198)" fill="#F9E28E"/>
<rect x="132.167" y="198" width="15" height="14" transform="rotate(90 132.167 198)" fill="#F9E28E"/>
<rect x="147.167" y="198" width="15" height="15" transform="rotate(90 147.167 198)" fill="#F9E28E"/>
<rect x="160.167" y="198" width="15" height="15" transform="rotate(90 160.167 198)" fill="#F9E28E"/>
<rect x="175.167" y="198" width="15" height="15" transform="rotate(90 175.167 198)" fill="#F9E28E"/>
<rect x="188.167" y="198" width="15" height="13" transform="rotate(90 188.167 198)" fill="#F9E28E"/>
<rect x="188.167" y="185" width="13" height="13" transform="rotate(90 188.167 185)" fill="#FACD96"/>
<rect x="175.167" y="185" width="13" height="15" transform="rotate(90 175.167 185)" fill="#F9E28E"/>
<rect x="160.167" y="185" width="13" height="15" transform="rotate(90 160.167 185)" fill="#F9E28E"/>
<rect x="147.167" y="185" width="13" height="15" transform="rotate(90 147.167 185)" fill="#F9E28E"/>
<rect x="132.167" y="185" width="13" height="14" transform="rotate(90 132.167 185)" fill="#F9E28E"/>
<rect x="118.167" y="185" width="13" height="13" transform="rotate(90 118.167 185)" fill="#F9E28E"/>
<rect x="188.167" y="170" width="15" height="13" transform="rotate(90 188.167 170)" fill="#FACD96"/>
<rect x="188.167" y="157" width="13" height="13" transform="rotate(90 188.167 157)" fill="#FACD96"/>
<rect x="188.167" y="143" width="14" height="13" transform="rotate(90 188.167 143)" fill="#FACD96"/>
<rect x="188.167" y="128" width="15" height="13" transform="rotate(90 188.167 128)" fill="#FACD96"/>
<rect x="188.167" y="115" width="13" height="13" transform="rotate(90 188.167 115)" fill="#FACD96"/>
<rect x="188.167" y="100" width="15" height="13" transform="rotate(90 188.167 100)" fill="#FACD96"/>
<rect x="175.167" y="87" width="13" height="15" transform="rotate(90 175.167 87)" fill="#FACD96"/>
<rect x="160.167" y="87" width="13" height="15" transform="rotate(90 160.167 87)" fill="#FACD96"/>
<rect x="147.167" y="87" width="13" height="15" transform="rotate(90 147.167 87)" fill="#FACD96"/>
<rect x="132.167" y="87" width="13" height="14" transform="rotate(90 132.167 87)" fill="#FACD96"/>
<rect x="118.167" y="87" width="13" height="13" transform="rotate(90 118.167 87)" fill="#FACD96"/>
<rect x="160.167" y="73" width="14" height="15" transform="rotate(90 160.167 73)" fill="#FACD96"/>
<rect x="147.167" y="73" width="14" height="15" transform="rotate(90 147.167 73)" fill="#FACD96"/>
<rect x="132.167" y="73" width="14" height="14" transform="rotate(90 132.167 73)" fill="#FACD96"/>
<rect x="160.167" y="100" width="15" height="15" transform="rotate(90 160.167 100)" fill="#FACD96"/>
<rect x="160.167" y="115" width="13" height="15" transform="rotate(90 160.167 115)" fill="#FACD96"/>
<rect x="160.167" y="128" width="15" height="15" transform="rotate(90 160.167 128)" fill="#FACD96"/>
<rect x="160.167" y="143" width="14" height="15" transform="rotate(90 160.167 143)" fill="#FACD96"/>
<rect x="160.167" y="157" width="13" height="15" transform="rotate(90 160.167 157)" fill="#FACD96"/>
<rect x="160.167" y="170" width="15" height="15" transform="rotate(90 160.167 170)" fill="#F9E28E"/>
<rect x="132.167" y="170" width="15" height="14" transform="rotate(90 132.167 170)" fill="#F9E28E"/>
<rect x="132.167" y="157" width="13" height="14" transform="rotate(90 132.167 157)" fill="#F9E28E"/>
<rect x="132.167" y="143" width="14" height="14" transform="rotate(90 132.167 143)" fill="#F9E28E"/>
<rect x="132.167" y="128" width="15" height="14" transform="rotate(90 132.167 128)" fill="#FACD96"/>
<rect x="132.167" y="115" width="13" height="14" transform="rotate(90 132.167 115)" fill="#FACD96"/>
<rect x="132.167" y="100" width="15" height="14" transform="rotate(90 132.167 100)" fill="#FACD96"/>
<rect x="215.167" y="128" width="15" height="13" transform="rotate(90 215.167 128)" fill="#BF8954"/>
<rect x="215.167" y="115" width="13" height="13" transform="rotate(90 215.167 115)" fill="#BF8954"/>
<rect x="215.167" y="100" width="15" height="13" transform="rotate(90 215.167 100)" fill="#BF8954"/>
<rect x="77.1665" y="73" width="14" height="15" transform="rotate(90 77.1665 73)" fill="black"/>
<rect x="62.1665" y="87" width="13" height="14" transform="rotate(90 62.1665 87)" fill="black"/>
<rect x="215.167" y="73" width="14" height="13" transform="rotate(90 215.167 73)" fill="black"/>
<rect x="230.167" y="87" width="13" height="15" transform="rotate(90 230.167 87)" fill="black"/>
</g>
<defs>
<clipPath id="clip0_15874_10962">
<rect width="200" height="200" fill="white" transform="translate(40.6665 40)"/>
</clipPath>
</defs>
</svg>
