<svg width="281" height="280" viewBox="0 0 281 280" fill="none" xmlns="http://www.w3.org/2000/svg">
<g clip-path="url(#clip0_15874_10961)">
<rect x="101.333" y="45" width="13" height="15" fill="black"/>
<rect x="114.333" y="45" width="15" height="15" fill="black"/>
<rect x="129.333" y="45" width="13" height="15" fill="black"/>
<rect x="142.333" y="45" width="14" height="15" fill="black"/>
<rect x="156.333" y="45" width="15" height="15" fill="black"/>
<rect x="171.333" y="45" width="13" height="15" fill="black"/>
<rect x="86.333" y="60" width="15" height="13" fill="black"/>
<rect x="73.333" y="60" width="13" height="13" fill="black"/>
<rect x="184.333" y="60" width="15" height="13" fill="black"/>
<rect x="199.333" y="60" width="13" height="13" fill="black"/>
<rect x="58.333" y="73" width="15" height="13" fill="black"/>
<rect x="212.333" y="73" width="15" height="13" fill="black"/>
<rect x="45.333" y="86" width="13" height="15" fill="black"/>
<rect x="45.333" y="101" width="13" height="13" fill="black"/>
<rect x="227.333" y="86" width="13" height="15" fill="black"/>
<rect x="227.333" y="101" width="13" height="13" fill="black"/>
<rect x="58.333" y="227" width="15" height="13" fill="black"/>
<rect x="73.333" y="227" width="13" height="13" fill="black"/>
<rect x="86.333" y="227" width="15" height="13" fill="black"/>
<rect x="101.333" y="227" width="13" height="13" fill="black"/>
<rect x="114.333" y="227" width="15" height="13" fill="black"/>
<rect x="129.333" y="227" width="13" height="13" fill="black"/>
<rect x="142.333" y="227" width="14" height="13" fill="black"/>
<rect x="156.333" y="227" width="15" height="13" fill="black"/>
<rect x="171.333" y="227" width="13" height="13" fill="black"/>
<rect x="184.333" y="227" width="15" height="13" fill="black"/>
<rect x="199.333" y="227" width="13" height="13" fill="black"/>
<rect x="212.333" y="227" width="15" height="13" fill="black"/>
<rect x="227.333" y="212" width="13" height="15" fill="black"/>
<rect x="227.333" y="199" width="13" height="13" fill="black"/>
<rect x="45.333" y="212" width="13" height="15" fill="black"/>
<rect x="45.333" y="199" width="13" height="13" fill="black"/>
<rect x="45.333" y="184" width="13" height="15" fill="black"/>
<rect x="58.333" y="184" width="15" height="15" fill="black"/>
<rect x="73.333" y="184" width="13" height="15" fill="black"/>
<rect x="86.333" y="184" width="15" height="15" fill="black"/>
<rect x="101.333" y="184" width="13" height="15" fill="black"/>
<rect x="114.333" y="184" width="15" height="15" fill="black"/>
<rect x="129.333" y="184" width="13" height="15" fill="black"/>
<rect x="142.333" y="184" width="14" height="15" fill="black"/>
<rect x="156.333" y="184" width="15" height="15" fill="black"/>
<rect x="171.333" y="184" width="13" height="15" fill="black"/>
<rect x="184.333" y="184" width="15" height="15" fill="black"/>
<rect x="199.333" y="184" width="13" height="15" fill="black"/>
<rect x="212.333" y="184" width="15" height="15" fill="black"/>
<rect x="227.333" y="184" width="13" height="15" fill="black"/>
<rect x="58.333" y="86" width="15" height="15" fill="#FEC200"/>
<rect x="73.333" y="86" width="13" height="15" fill="#FEC200"/>
<rect x="86.333" y="86" width="15" height="15" fill="#B17C25"/>
<rect x="101.333" y="86" width="13" height="15" fill="#FEC200"/>
<rect x="114.333" y="86" width="15" height="15" fill="#FEC200"/>
<rect x="129.333" y="86" width="13" height="15" fill="#FEC200"/>
<rect x="142.333" y="86" width="14" height="15" fill="#B17C25"/>
<rect x="156.333" y="86" width="15" height="15" fill="#FEC200"/>
<rect x="171.333" y="86" width="13" height="15" fill="#FEC200"/>
<rect x="184.333" y="86" width="15" height="15" fill="#FEC200"/>
<rect x="199.333" y="86" width="13" height="15" fill="#B17C25"/>
<rect x="212.333" y="86" width="15" height="15" fill="#FEC200"/>
<rect x="73.333" y="73" width="13" height="13" fill="#FEC200"/>
<rect x="86.333" y="73" width="15" height="13" fill="#FEC200"/>
<rect x="101.333" y="60" width="13" height="13" fill="#FEC200"/>
<rect x="101.333" y="73" width="13" height="13" fill="#FEC200"/>
<rect x="114.333" y="73" width="15" height="13" fill="#B17C25"/>
<rect x="114.333" y="60" width="15" height="13" fill="#FEC200"/>
<rect x="129.333" y="60" width="13" height="13" fill="#FEC200"/>
<rect x="142.333" y="60" width="14" height="13" fill="#FEC200"/>
<rect x="142.333" y="73" width="14" height="13" fill="#FEC200"/>
<rect x="129.333" y="73" width="13" height="13" fill="#FEC200"/>
<rect x="156.333" y="73" width="15" height="13" fill="#FEC200"/>
<rect x="156.333" y="60" width="15" height="13" fill="#FEC200"/>
<rect x="171.333" y="60" width="13" height="13" fill="#FEC200"/>
<rect x="171.333" y="73" width="13" height="13" fill="#B17C25"/>
<rect x="184.333" y="73" width="15" height="13" fill="#FEC200"/>
<rect x="199.333" y="73" width="13" height="13" fill="#FEC200"/>
<rect x="58.333" y="199" width="15" height="13" fill="#FEC200"/>
<rect x="58.333" y="212" width="15" height="15" fill="#FEC200"/>
<rect x="73.333" y="212" width="13" height="15" fill="#FEC200"/>
<rect x="86.333" y="212" width="15" height="15" fill="#FEC200"/>
<rect x="101.333" y="199" width="13" height="13" fill="#FEC200"/>
<rect x="114.333" y="199" width="15" height="13" fill="#FEC200"/>
<rect x="129.333" y="199" width="13" height="13" fill="#FEC200"/>
<rect x="142.333" y="199" width="14" height="13" fill="#FEC200"/>
<rect x="156.333" y="199" width="15" height="13" fill="#FEC200"/>
<rect x="171.333" y="199" width="13" height="13" fill="#FEC200"/>
<rect x="86.333" y="199" width="15" height="13" fill="#FEC200"/>
<rect x="73.333" y="199" width="13" height="13" fill="#FEC200"/>
<rect x="101.333" y="212" width="13" height="15" fill="#FEC200"/>
<rect x="114.333" y="212" width="15" height="15" fill="#FEC200"/>
<rect x="129.333" y="212" width="13" height="15" fill="#FEC200"/>
<rect x="142.333" y="212" width="14" height="15" fill="#FEC200"/>
<rect x="156.333" y="212" width="15" height="15" fill="#FEC200"/>
<rect x="171.333" y="212" width="13" height="15" fill="#FEC200"/>
<rect x="184.333" y="212" width="15" height="15" fill="#FEC200"/>
<rect x="199.333" y="212" width="13" height="15" fill="#FEC200"/>
<rect x="212.333" y="212" width="15" height="15" fill="#FEC200"/>
<rect x="212.333" y="199" width="15" height="13" fill="#FEC200"/>
<rect x="199.333" y="199" width="13" height="13" fill="#FEC200"/>
<rect x="184.333" y="199" width="15" height="13" fill="#FEC200"/>
<rect x="45.333" y="129" width="13" height="13" fill="black"/>
<rect x="58.333" y="171" width="15" height="13" fill="#FF8B00"/>
<rect x="73.333" y="171" width="13" height="13" fill="#FF8B00"/>
<rect x="86.333" y="171" width="15" height="13" fill="#FF8B00"/>
<rect x="101.333" y="171" width="13" height="13" fill="#FF8B00"/>
<rect x="114.333" y="171" width="15" height="13" fill="#FF8B00"/>
<rect x="129.333" y="171" width="13" height="13" fill="#FF8B00"/>
<rect x="142.333" y="171" width="14" height="13" fill="#FF8B00"/>
<rect x="156.333" y="171" width="15" height="13" fill="#FF8B00"/>
<rect x="171.333" y="171" width="13" height="13" fill="#FF8B00"/>
<rect x="184.333" y="171" width="15" height="13" fill="#FF8B00"/>
<rect x="199.333" y="171" width="13" height="13" fill="#FF8B00"/>
<rect x="212.333" y="171" width="15" height="13" fill="#FF8B00"/>
<rect x="58.333" y="101" width="15" height="13" fill="#B17C25"/>
<rect x="73.333" y="101" width="13" height="13" fill="#FEC200"/>
<rect x="86.333" y="101" width="15" height="13" fill="#FEC200"/>
<rect x="101.333" y="101" width="13" height="13" fill="#FEC200"/>
<rect x="114.333" y="101" width="15" height="13" fill="#B17C25"/>
<rect x="129.333" y="101" width="13" height="13" fill="#FEC200"/>
<rect x="142.333" y="101" width="14" height="13" fill="#FEC200"/>
<rect x="156.333" y="101" width="15" height="13" fill="#FEC200"/>
<rect x="171.333" y="101" width="13" height="13" fill="#B17C25"/>
<rect x="184.333" y="101" width="15" height="13" fill="#FEC200"/>
<rect x="199.333" y="101" width="13" height="13" fill="#FEC200"/>
<rect x="212.333" y="101" width="15" height="13" fill="#FEC200"/>
<rect x="58.333" y="114" width="15" height="15" fill="black"/>
<rect x="73.333" y="114" width="13" height="15" fill="black"/>
<rect x="86.333" y="114" width="15" height="15" fill="black"/>
<rect x="101.333" y="114" width="13" height="15" fill="black"/>
<rect x="114.333" y="114" width="15" height="15" fill="black"/>
<rect x="129.333" y="114" width="13" height="15" fill="black"/>
<rect x="142.333" y="114" width="14" height="15" fill="black"/>
<rect x="156.333" y="114" width="15" height="15" fill="black"/>
<rect x="171.333" y="114" width="13" height="15" fill="black"/>
<rect x="184.333" y="114" width="15" height="15" fill="black"/>
<rect x="199.333" y="114" width="13" height="15" fill="black"/>
<rect x="212.333" y="114" width="15" height="15" fill="black"/>
<rect x="58.333" y="129" width="15" height="13" fill="#0BD30B"/>
<rect x="73.333" y="129" width="13" height="13" fill="#0BD30B"/>
<rect x="86.333" y="129" width="15" height="13" fill="#0BD30B"/>
<rect x="101.333" y="129" width="13" height="13" fill="#0BD30B"/>
<rect x="114.333" y="129" width="15" height="13" fill="#0BD30B"/>
<rect x="129.333" y="129" width="13" height="13" fill="#0BD30B"/>
<rect x="142.333" y="129" width="14" height="13" fill="#0BD30B"/>
<rect x="156.333" y="129" width="15" height="13" fill="#0BD30B"/>
<rect x="171.333" y="129" width="13" height="13" fill="#0BD30B"/>
<rect x="184.333" y="129" width="15" height="13" fill="#0BD30B"/>
<rect x="199.333" y="129" width="13" height="13" fill="#0BD30B"/>
<rect x="212.333" y="129" width="15" height="13" fill="#0BD30B"/>
<rect x="73.333" y="142" width="13" height="15" fill="#0BD30B"/>
<rect x="86.333" y="142" width="15" height="15" fill="#0BD30B"/>
<rect x="129.333" y="142" width="13" height="15" fill="#0BD30B"/>
<rect x="142.333" y="142" width="14" height="15" fill="#0BD30B"/>
<rect x="184.333" y="142" width="15" height="15" fill="#0BD30B"/>
<rect x="199.333" y="142" width="13" height="15" fill="#0BD30B"/>
<rect x="101.333" y="157" width="13" height="14" fill="#FE0002"/>
<rect x="114.333" y="157" width="15" height="14" fill="#FE0002"/>
<rect x="156.333" y="157" width="15" height="14" fill="#FE0002"/>
<rect x="171.333" y="157" width="13" height="14" fill="#FE0002"/>
<rect x="86.333" y="157" width="15" height="14" fill="black"/>
<rect x="73.333" y="157" width="13" height="14" fill="black"/>
<rect x="58.333" y="157" width="15" height="14" fill="black"/>
<rect x="58.333" y="142" width="15" height="15" fill="black"/>
<rect x="101.333" y="142" width="13" height="15" fill="black"/>
<rect x="114.333" y="142" width="15" height="15" fill="black"/>
<rect x="129.333" y="157" width="13" height="14" fill="black"/>
<rect x="142.333" y="157" width="14" height="14" fill="black"/>
<rect x="156.333" y="142" width="15" height="15" fill="black"/>
<rect x="171.333" y="142" width="13" height="15" fill="black"/>
<rect x="184.333" y="157" width="15" height="14" fill="black"/>
<rect x="199.333" y="157" width="13" height="14" fill="black"/>
<rect x="212.333" y="157" width="15" height="14" fill="black"/>
<rect x="212.333" y="142" width="15" height="15" fill="black"/>
<rect x="227.333" y="171" width="13" height="13" fill="black"/>
<rect x="45.333" y="171" width="13" height="13" fill="black"/>
<rect x="227.333" y="129" width="13" height="13" fill="black"/>
</g>
<defs>
<clipPath id="clip0_15874_10961">
<rect width="200" height="200" fill="white" transform="translate(40.3335 40)"/>
</clipPath>
</defs>
</svg>
