<svg width="123" height="123" viewBox="0 0 123 123" fill="none" xmlns="http://www.w3.org/2000/svg">
<rect x="43" y="111" width="8" height="8" fill="black"/>
<rect x="51" y="111" width="8" height="8" fill="black"/>
<rect x="59" y="111" width="8" height="8" fill="black"/>
<rect x="67" y="111" width="8" height="8" fill="black"/>
<rect x="35" y="103" width="8" height="8" fill="#FF8000"/>
<rect x="75" y="103" width="8" height="8" fill="#FF8000"/>
<rect x="84" y="94.9996" width="8" height="8" fill="black"/>
<rect x="84" y="86.9996" width="8" height="8" fill="black"/>
<rect x="26" y="94.9996" width="8" height="8" fill="black"/>
<rect x="26" y="86.9996" width="8" height="8" fill="black"/>
<rect x="18" y="77.9996" width="8" height="9" fill="black"/>
<rect x="18" y="69.9996" width="8" height="8" fill="black"/>
<rect x="92" y="77.9996" width="8" height="9" fill="black"/>
<rect x="92" y="69.9996" width="8" height="8" fill="black"/>
<rect x="18" y="61.9996" width="8" height="8" fill="black"/>
<rect x="26" y="61.9996" width="8" height="8" fill="black"/>
<rect x="35" y="69.9996" width="8" height="8" fill="black"/>
<rect x="43" y="69.9996" width="8" height="8" fill="black"/>
<rect x="51" y="61.9996" width="8" height="8" fill="black"/>
<rect x="59" y="61.9996" width="8" height="8" fill="black"/>
<rect x="67" y="69.9996" width="8" height="8" fill="black"/>
<rect x="75" y="69.9996" width="8" height="8" fill="black"/>
<rect x="84" y="61.9996" width="8" height="8" fill="black"/>
<rect x="92" y="61.9996" width="8" height="8" fill="black"/>
<rect x="10" y="53.9996" width="8" height="8" fill="black"/>
<rect x="10" y="45.9996" width="8" height="8" fill="black"/>
<rect x="18" y="37.9996" width="8" height="8" fill="black"/>
<rect x="26" y="29.9996" width="8" height="8" fill="black"/>
<rect x="26" y="21" width="8" height="8" fill="black"/>
<rect x="35" y="12.9996" width="8" height="8" fill="black"/>
<rect x="43" y="4.99963" width="8" height="8" fill="black"/>
<rect x="43" y="12.9996" width="8" height="8" fill="black"/>
<rect x="51" y="4.99963" width="8" height="8" fill="black"/>
<rect x="59" y="4.99963" width="8" height="8" fill="black"/>
<rect x="67" y="12.9996" width="8" height="8" fill="black"/>
<rect x="75" y="12.9996" width="8" height="8" fill="black"/>
<rect x="84" y="20.9996" width="8" height="8" fill="black"/>
<rect x="84" y="29.9996" width="8" height="8" fill="black"/>
<rect x="92" y="37.9996" width="8" height="8" fill="black"/>
<rect x="100" y="45.9996" width="8" height="8" fill="black"/>
<rect x="100" y="53.9996" width="8" height="8" fill="black"/>
<rect x="43" y="61.9996" width="8" height="8" fill="#FF8FAC"/>
<rect x="35" y="61.9996" width="8" height="8" fill="#FF8FAC"/>
<rect x="35" y="53.9996" width="8" height="8" fill="#FF8FAC"/>
<rect x="26" y="53.9996" width="8" height="8" fill="#FF8FAC"/>
<rect x="18" y="53.9996" width="8" height="8" fill="#FF8FAC"/>
<rect x="18" y="45.9996" width="8" height="8" fill="#FF8FAC"/>
<rect x="26" y="45.9996" width="8" height="8" fill="#FF8FAC"/>
<rect x="35" y="45.9996" width="8" height="8" fill="#FF8FAC"/>
<rect x="43" y="45.9996" width="8" height="8" fill="#FF8FAC"/>
<rect x="51" y="45.9996" width="8" height="8" fill="#FF8FAC"/>
<rect x="59" y="45.9996" width="8" height="8" fill="#FF8FAC"/>
<rect x="67" y="45.9996" width="8" height="8" fill="#F34A69"/>
<rect x="75" y="45.9996" width="8" height="8" fill="#F34A69"/>
<rect x="84" y="45.9996" width="8" height="8" fill="#F34A69"/>
<rect x="92" y="45.9996" width="8" height="8" fill="#F34A69"/>
<rect x="92" y="53.9996" width="8" height="8" fill="#F34A69"/>
<rect x="84" y="53.9996" width="8" height="8" fill="#F34A69"/>
<rect x="75" y="53.9996" width="8" height="8" fill="#FF8FAC"/>
<rect x="67" y="53.9996" width="8" height="8" fill="#FF8FAC"/>
<rect x="59" y="53.9996" width="8" height="8" fill="#FF8FAC"/>
<rect x="51" y="53.9996" width="8" height="8" fill="#FF8FAC"/>
<rect x="43" y="53.9996" width="8" height="8" fill="#FF8FAC"/>
<rect x="26" y="37.9996" width="8" height="8" fill="#FF8FAC"/>
<rect x="35" y="37.9996" width="8" height="8" fill="#FF8FAC"/>
<rect x="43" y="37.9996" width="8" height="8" fill="#FF8FAC"/>
<rect x="51" y="37.9996" width="8" height="8" fill="#FF8FAC"/>
<rect x="59" y="37.9996" width="8" height="8" fill="#F34A69"/>
<rect x="67" y="37.9996" width="8" height="8" fill="#F34A69"/>
<rect x="75" y="37.9996" width="8" height="8" fill="#F34A69"/>
<rect x="84" y="37.9996" width="8" height="8" fill="#F34A69"/>
<rect x="75" y="29.9996" width="8" height="8" fill="#F34A69"/>
<rect x="67" y="29.9996" width="8" height="8" fill="#F34A69"/>
<rect x="59" y="29.9996" width="8" height="8" fill="#F34A69"/>
<rect x="51" y="29.9996" width="8" height="8" fill="#F34A69"/>
<rect x="43" y="29.9996" width="8" height="8" fill="#FF8FAC"/>
<rect x="35" y="29.9996" width="8" height="8" fill="#FF8FAC"/>
<rect x="35" y="20.9996" width="8" height="8" fill="#F34A69"/>
<rect x="43" y="20.9996" width="8" height="8" fill="#F34A69"/>
<rect x="51" y="20.9996" width="8" height="8" fill="#F34A69"/>
<rect x="59" y="20.9996" width="8" height="8" fill="#F34A69"/>
<rect x="67" y="20.9996" width="8" height="8" fill="#F34A69"/>
<rect x="75" y="20.9996" width="8" height="8" fill="#F34A69"/>
<rect x="59" y="12.9996" width="8" height="8" fill="#F34A69"/>
<rect x="51" y="12.9996" width="8" height="8" fill="#F34A69"/>
<rect x="75" y="61.9996" width="8" height="8" fill="#FF8FAC"/>
<rect x="67" y="61.9996" width="8" height="8" fill="#FF8FAC"/>
<rect x="26" y="69.9996" width="8" height="8" fill="#FF8000"/>
<rect x="26" y="77.9996" width="8" height="9" fill="#FF8000"/>
<rect x="35" y="77.9996" width="8" height="9" fill="#FF8000"/>
<rect x="43" y="77.9996" width="8" height="9" fill="#FF8000"/>
<rect x="43" y="86.9996" width="8" height="8" fill="#FF8000"/>
<rect x="35" y="86.9996" width="8" height="8" fill="#FFB524"/>
<rect x="35" y="94.9996" width="8" height="8" fill="#FFB524"/>
<rect x="43" y="94.9996" width="8" height="8" fill="#FF8000"/>
<rect x="43" y="103" width="8" height="8" fill="#FF8000"/>
<rect x="51" y="103" width="8" height="8" fill="#FF8000"/>
<rect x="59" y="103" width="8" height="8" fill="#FF8000"/>
<rect x="67" y="103" width="8" height="8" fill="#FF8000"/>
<rect x="67" y="94.9996" width="8" height="8" fill="#FF8000"/>
<rect x="59" y="94.9996" width="8" height="8" fill="#FFB524"/>
<rect x="59" y="86.9996" width="8" height="8" fill="#FFB524"/>
<rect x="51" y="86.9996" width="8" height="8" fill="#FFB524"/>
<rect x="51" y="77.9996" width="8" height="9" fill="#FF8000"/>
<rect x="51" y="69.9996" width="8" height="8" fill="#FF8000"/>
<rect x="59" y="69.9996" width="8" height="8" fill="#FF8000"/>
<rect x="59" y="77.9996" width="8" height="9" fill="#FF8000"/>
<rect x="51" y="94.9996" width="8" height="8" fill="#FFB524"/>
<rect x="67" y="86.9996" width="8" height="8" fill="#FF8000"/>
<rect x="67" y="77.9996" width="8" height="9" fill="#FF8000"/>
<rect x="75" y="77.9996" width="8" height="9" fill="#FF8000"/>
<rect x="84" y="77.9996" width="8" height="9" fill="#FF8000"/>
<rect x="84" y="69.9996" width="8" height="8" fill="#FF8000"/>
<rect x="75" y="86.9996" width="8" height="8" fill="#FFB524"/>
<rect x="75" y="94.9996" width="8" height="8" fill="#FFB524"/>
<rect x="18" y="20.9996" width="8" height="8" fill="#FE0002"/>
<rect x="18" y="12.9996" width="8" height="8" fill="#FE0002"/>
<rect x="26" y="12.9996" width="8" height="8" fill="#FE0002"/>
<rect x="18" y="29.9996" width="8" height="8" fill="black"/>
<rect x="10" y="20.9996" width="8" height="8" fill="black"/>
<rect x="10" y="12.9996" width="8" height="8" fill="black"/>
<rect x="18" y="4.99963" width="8" height="8" fill="black"/>
<rect x="26" y="4.99963" width="8" height="8" fill="black"/>
<rect x="92" y="29.9996" width="8" height="8" fill="black"/>
<rect x="67" y="4.99963" width="8" height="8" fill="black"/>
<rect x="26" y="103" width="8" height="8" fill="black"/>
<rect x="84" y="103" width="8" height="8" fill="black"/>
<rect x="35" y="111" width="8" height="8" fill="black"/>
<rect x="75" y="111" width="8" height="8" fill="black"/>
</svg>
