<svg width="123" height="123" viewBox="0 0 123 123" fill="none" xmlns="http://www.w3.org/2000/svg">
<rect x="51.4995" y="7.49976" width="8" height="9" fill="black"/>
<rect x="59.4995" y="7.49976" width="9" height="9" fill="black"/>
<rect x="68.4995" y="7.49976" width="9" height="9" fill="black"/>
<rect x="77.4995" y="16.4998" width="8" height="9" fill="black"/>
<rect x="85.4995" y="16.4998" width="9" height="9" fill="black"/>
<rect x="94.4995" y="25.4998" width="9" height="8" fill="black"/>
<rect x="103.5" y="33.4998" width="8" height="9" fill="black"/>
<rect x="103.5" y="42.4998" width="8" height="9" fill="black"/>
<rect x="111.5" y="51.4998" width="9" height="8" fill="black"/>
<rect x="111.5" y="59.4998" width="9" height="9" fill="black"/>
<rect x="111.5" y="68.4998" width="9" height="9" fill="black"/>
<rect x="111.5" y="77.4998" width="9" height="8" fill="black"/>
<rect x="103.5" y="85.4998" width="8" height="9" fill="black"/>
<rect x="94.4995" y="94.4998" width="9" height="9" fill="black"/>
<rect x="85.4995" y="103.5" width="9" height="8" fill="black"/>
<rect x="77.4995" y="111.5" width="8" height="9" fill="black"/>
<rect x="68.4995" y="111.5" width="9" height="9" fill="black"/>
<rect x="59.4995" y="111.5" width="9" height="9" fill="black"/>
<rect x="51.4995" y="111.5" width="8" height="9" fill="black"/>
<rect x="42.4995" y="103.5" width="9" height="8" fill="black"/>
<rect x="33.4995" y="103.5" width="9" height="8" fill="black"/>
<rect x="25.4995" y="94.4998" width="8" height="9" fill="black"/>
<rect x="16.4995" y="85.4998" width="9" height="9" fill="black"/>
<rect x="16.4995" y="77.4998" width="9" height="8" fill="black"/>
<rect x="7.49951" y="68.4998" width="9" height="9" fill="black"/>
<rect x="7.49951" y="59.4998" width="9" height="9" fill="black"/>
<rect x="8.49951" y="51.4998" width="8" height="8" fill="black"/>
<rect x="8.49951" y="42.4998" width="8" height="9" fill="black"/>
<rect x="16.4995" y="33.4998" width="9" height="9" fill="black"/>
<rect x="25.4995" y="25.4998" width="8" height="8" fill="black"/>
<rect x="33.4995" y="16.4998" width="9" height="9" fill="black"/>
<rect x="42.4995" y="7.49976" width="9" height="9" fill="black"/>
<rect x="42.4995" y="33.4998" width="9" height="9" fill="black"/>
<rect x="51.4995" y="33.4998" width="8" height="9" fill="black"/>
<rect x="51.4995" y="77.4998" width="8" height="8" fill="black"/>
<rect x="42.4995" y="77.4998" width="9" height="8" fill="black"/>
<rect x="33.4995" y="68.4998" width="9" height="9" fill="black"/>
<rect x="25.4995" y="59.4998" width="8" height="9" fill="black"/>
<rect x="25.4995" y="51.4998" width="8" height="8" fill="black"/>
<rect x="33.4995" y="42.4998" width="9" height="9" fill="black"/>
<rect x="42.4995" y="42.4998" width="9" height="9" fill="#F9ED32"/>
<rect x="42.4995" y="51.4998" width="9" height="8" fill="#F9ED32"/>
<rect x="33.4995" y="51.4998" width="9" height="8" fill="#F9ED32"/>
<rect x="33.4995" y="59.4998" width="9" height="9" fill="#F9ED32"/>
<rect x="42.4995" y="59.4998" width="9" height="9" fill="#FF8B00"/>
<rect x="42.4995" y="68.4998" width="9" height="9" fill="#FF8B00"/>
<rect x="51.4995" y="68.4998" width="8" height="9" fill="#FF8B00"/>
<rect x="51.4995" y="59.4998" width="8" height="9" fill="#FF8B00"/>
<rect x="51.4995" y="51.4998" width="8" height="8" fill="#FF8B00"/>
<rect x="51.4995" y="42.4998" width="8" height="9" fill="#FF8B00"/>
<rect x="59.4995" y="42.4998" width="9" height="9" fill="black"/>
<rect x="68.4995" y="51.4998" width="9" height="8" fill="black"/>
<rect x="68.4995" y="59.4998" width="9" height="9" fill="black"/>
<rect x="59.4995" y="68.4998" width="9" height="9" fill="black"/>
<rect x="59.4995" y="51.4998" width="9" height="8" fill="#FF8B00"/>
<rect x="59.4995" y="59.4998" width="9" height="9" fill="#FF8B00"/>
<rect x="16.6528" y="68.5764" width="8.65388" height="8.65388" fill="white"/>
<rect x="16.6528" y="59.923" width="8.65388" height="8.65388" fill="white"/>
<rect x="16.6528" y="51.2684" width="8.65388" height="8.65388" fill="white"/>
<rect x="16.6528" y="42.6152" width="8.65388" height="8.65388" fill="white"/>
<rect x="25.3076" y="42.6152" width="8.65388" height="8.65388" fill="white"/>
<rect x="25.3076" y="33.9607" width="8.65388" height="8.65388" fill="white"/>
<rect x="33.9604" y="33.9607" width="8.65388" height="8.65388" fill="white"/>
<rect x="33.9604" y="25.3075" width="8.65388" height="8.65388" fill="white"/>
<rect x="42.6152" y="25.3075" width="8.65388" height="8.65388" fill="white"/>
<rect x="42.6152" y="16.653" width="8.65388" height="8.65388" fill="white"/>
<rect x="51.2686" y="16.653" width="8.65388" height="8.65388" fill="white"/>
<rect x="59.9229" y="16.653" width="8.65388" height="8.65388" fill="white"/>
<rect x="68.5762" y="16.653" width="8.65388" height="8.65388" fill="white"/>
<rect x="68.5762" y="25.3075" width="8.65388" height="8.65388" fill="white"/>
<rect x="59.9229" y="25.3075" width="8.65388" height="8.65388" fill="white"/>
<rect x="51.2686" y="25.3075" width="8.65388" height="8.65388" fill="white"/>
<rect x="59.9229" y="33.9607" width="8.65388" height="8.65388" fill="white"/>
<rect x="68.5762" y="33.9607" width="8.65388" height="8.65388" fill="white"/>
<rect x="68.5762" y="42.6152" width="8.65388" height="8.65388" fill="white"/>
<rect x="77.231" y="42.6152" width="8.65388" height="8.65388" fill="white"/>
<rect x="77.231" y="33.9607" width="8.65388" height="8.65388" fill="white"/>
<rect x="77.231" y="25.3075" width="8.65388" height="8.65388" fill="white"/>
<rect x="85.8838" y="25.3075" width="8.65388" height="8.65388" fill="white"/>
<rect x="85.8838" y="33.9607" width="8.65388" height="8.65388" fill="white"/>
<rect x="85.8838" y="42.6152" width="8.65388" height="8.65388" fill="white"/>
<rect x="94.5386" y="42.6152" width="8.65388" height="8.65388" fill="white"/>
<rect x="94.5386" y="33.9607" width="8.65388" height="8.65388" fill="white"/>
<rect x="77.231" y="51.2684" width="8.65388" height="8.65388" fill="white"/>
<rect x="85.8838" y="51.2684" width="8.65388" height="8.65388" fill="white"/>
<rect x="94.5386" y="51.2684" width="8.65388" height="8.65388" fill="white"/>
<rect x="103.192" y="51.2684" width="8.65388" height="8.65388" fill="white"/>
<rect x="103.192" y="59.923" width="8.65388" height="8.65388" fill="white"/>
<rect x="103.192" y="68.5764" width="8.65388" height="8.65388" fill="white"/>
<rect x="103.192" y="77.2307" width="8.65388" height="8.65388" fill="white"/>
<rect x="94.5386" y="77.2307" width="8.65388" height="8.65388" fill="white"/>
<rect x="94.5386" y="68.5764" width="8.65388" height="8.65388" fill="white"/>
<rect x="94.5386" y="59.923" width="8.65388" height="8.65388" fill="white"/>
<rect x="85.8838" y="59.923" width="8.65388" height="8.65388" fill="white"/>
<rect x="77.231" y="59.923" width="8.65388" height="8.65388" fill="white"/>
<rect x="77.231" y="68.5764" width="8.65388" height="8.65388" fill="white"/>
<rect x="77.231" y="77.2307" width="8.65388" height="8.65388" fill="white"/>
<rect x="85.8838" y="77.2307" width="8.65388" height="8.65388" fill="white"/>
<rect x="85.8838" y="68.5764" width="8.65388" height="8.65388" fill="white"/>
<rect x="68.5762" y="68.5764" width="8.65388" height="8.65388" fill="white"/>
<rect x="68.5762" y="77.2307" width="8.65388" height="8.65388" fill="white"/>
<rect x="59.9229" y="77.2307" width="8.65388" height="8.65388" fill="white"/>
<rect x="59.9229" y="85.8843" width="8.65388" height="8.65388" fill="white"/>
<rect x="51.2686" y="85.8843" width="8.65388" height="8.65388" fill="white"/>
<rect x="42.6152" y="85.8843" width="8.65388" height="8.65388" fill="white"/>
<rect x="33.9604" y="85.8843" width="8.65388" height="8.65388" fill="white"/>
<rect x="33.9604" y="77.2307" width="8.65388" height="8.65388" fill="white"/>
<rect x="25.3076" y="77.2307" width="8.65388" height="8.65388" fill="white"/>
<rect x="25.3076" y="68.5764" width="8.65388" height="8.65388" fill="white"/>
<rect x="25.3076" y="85.8843" width="8.65388" height="8.65388" fill="white"/>
<rect x="68.5762" y="85.8843" width="8.65388" height="8.65388" fill="white"/>
<rect x="77.231" y="85.8843" width="8.65388" height="8.65388" fill="white"/>
<rect x="85.8838" y="85.8843" width="8.65388" height="8.65388" fill="white"/>
<rect x="94.5386" y="85.8843" width="8.65388" height="8.65388" fill="white"/>
<rect x="85.8838" y="94.5386" width="8.65388" height="8.65388" fill="white"/>
<rect x="77.231" y="94.5386" width="8.65388" height="8.65388" fill="white"/>
<rect x="68.5762" y="94.5386" width="8.65388" height="8.65388" fill="white"/>
<rect x="59.9229" y="94.5386" width="8.65388" height="8.65388" fill="white"/>
<rect x="51.2686" y="94.5386" width="8.65388" height="8.65388" fill="white"/>
<rect x="42.6152" y="94.5386" width="8.65388" height="8.65388" fill="white"/>
<rect x="33.9604" y="94.5386" width="8.65388" height="8.65388" fill="white"/>
<rect x="51.2686" y="103.192" width="8.65388" height="8.65388" fill="white"/>
<rect x="59.9229" y="103.192" width="8.65388" height="8.65388" fill="white"/>
<rect x="68.5762" y="103.192" width="8.65388" height="8.65388" fill="white"/>
<rect x="77.231" y="103.192" width="8.65388" height="8.65388" fill="white"/>
</svg>
