<svg width="280" height="280" viewBox="0 0 280 280" fill="none" xmlns="http://www.w3.org/2000/svg">
<rect x="120" y="213" width="14" height="13" fill="#FE0002"/>
<rect x="134" y="213" width="14" height="13" fill="#FE0002"/>
<rect x="106" y="213" width="14" height="13" fill="#FE0002"/>
<rect x="148" y="213" width="13" height="13" fill="#FE0002"/>
<rect x="93.0005" y="226" width="13" height="14" fill="black"/>
<rect x="161" y="226" width="14" height="14" fill="black"/>
<rect x="175" y="213" width="15" height="13" fill="black"/>
<rect x="175" y="199" width="15" height="14" fill="black"/>
<rect x="190" y="185" width="14" height="14" fill="black"/>
<rect x="190" y="170" width="14" height="15" fill="black"/>
<rect x="77.0005" y="213" width="14" height="13" fill="black"/>
<rect x="77.0005" y="199" width="16" height="14" fill="black"/>
<rect x="64.0005" y="185" width="13" height="14" fill="black"/>
<rect x="64.0005" y="170" width="13" height="15" fill="black"/>
<rect x="64.0005" y="142" width="13" height="14" fill="black"/>
<rect x="64.0005" y="156" width="13" height="16" fill="black"/>
<rect x="190" y="142" width="14" height="14" fill="black"/>
<rect x="190" y="156" width="14" height="16" fill="black"/>
<rect x="175" y="129" width="15" height="13" fill="#F9ED32"/>
<rect x="161" y="129" width="14" height="13" fill="#FF8B00"/>
<rect x="106" y="142" width="14" height="14" fill="black"/>
<rect x="148" y="142" width="13" height="14" fill="black"/>
<rect x="134" y="156" width="14" height="16" fill="black"/>
<rect x="120" y="156" width="14" height="16" fill="black"/>
<rect x="106" y="226" width="14" height="14" fill="black"/>
<rect x="120" y="226" width="14" height="14" fill="black"/>
<rect x="134" y="226" width="14" height="14" fill="black"/>
<rect x="148" y="226" width="13" height="14" fill="black"/>
<rect x="93.0005" y="213" width="13" height="13" fill="#FE0002"/>
<rect x="161" y="213" width="14" height="13" fill="#FE0002"/>
<rect x="161" y="199" width="14" height="14" fill="#FE0002"/>
<rect x="148" y="199" width="13" height="14" fill="#FE0002"/>
<rect x="134" y="199" width="14" height="14" fill="white"/>
<rect x="120" y="199" width="14" height="14" fill="white"/>
<rect x="106" y="199" width="14" height="14" fill="#FE0002"/>
<rect x="93.0005" y="199" width="13" height="14" fill="#FE0002"/>
<rect x="93.0005" y="185" width="13" height="14" fill="#FE0002"/>
<rect x="77.0005" y="185" width="16" height="14" fill="#FE0002"/>
<rect x="77.0005" y="170" width="16" height="15" fill="#FE0002"/>
<rect x="77.0005" y="156" width="16" height="16" fill="#FE0002"/>
<rect x="77.0005" y="142" width="14" height="14" fill="black"/>
<rect x="93.0005" y="142" width="13" height="14" fill="black"/>
<rect x="93.0005" y="156" width="13" height="16" fill="#FE0002"/>
<rect x="93.0005" y="170" width="13" height="15" fill="#FE0002"/>
<rect x="106" y="156" width="14" height="16" fill="#FE0002"/>
<rect x="106" y="170" width="14" height="15" fill="#FE0002"/>
<rect x="106" y="185" width="14" height="14" fill="white"/>
<rect x="120" y="185" width="14" height="14" fill="#FE0002"/>
<rect x="120" y="170" width="14" height="15" fill="#FE0002"/>
<rect x="134" y="170" width="14" height="15" fill="#FE0002"/>
<rect x="148" y="170" width="13" height="15" fill="#FE0002"/>
<rect x="148" y="185" width="13" height="14" fill="white"/>
<rect x="134" y="185" width="14" height="14" fill="#FE0002"/>
<rect x="161" y="185" width="14" height="14" fill="#FE0002"/>
<rect x="175" y="185" width="15" height="14" fill="#FE0002"/>
<rect x="175" y="170" width="15" height="15" fill="#FE0002"/>
<rect x="175" y="156" width="15" height="16" fill="#FE0002"/>
<rect x="175" y="142" width="15" height="14" fill="black"/>
<rect x="161" y="142" width="14" height="14" fill="black"/>
<rect x="161" y="156" width="14" height="16" fill="#FE0002"/>
<rect x="161" y="170" width="14" height="15" fill="#FE0002"/>
<rect x="148" y="156" width="13" height="16" fill="#FE0002"/>
<rect x="77.0005" y="115" width="14" height="14" fill="#F9ED32"/>
<rect x="77.0005" y="101" width="16" height="14" fill="#F9ED32"/>
<rect x="64.0005" y="88" width="13" height="13" fill="#F9ED32"/>
<rect x="64.0005" y="72" width="13" height="14" fill="#F9ED32"/>
<rect x="64.0005" y="59" width="13" height="13" fill="black"/>
<rect x="77.0005" y="72" width="14" height="14" fill="#FF8B00"/>
<rect x="77.0005" y="88" width="16" height="13" fill="#FF8B00"/>
<rect x="93.0005" y="101" width="13" height="14" fill="#FF8B00"/>
<rect x="93.0005" y="115" width="13" height="14" fill="#FF8B00"/>
<rect x="77.0005" y="59" width="14" height="13" fill="black"/>
<rect x="50.0005" y="72" width="14" height="14" fill="black"/>
<rect x="50.0005" y="88" width="14" height="13" fill="black"/>
<rect x="64.0005" y="101" width="13" height="14" fill="#F9ED32"/>
<rect x="64.0005" y="115" width="13" height="14" fill="black"/>
<rect x="64.0005" y="129" width="13" height="13" fill="black"/>
<rect x="93.0005" y="72" width="13" height="14" fill="black"/>
<rect x="93.0005" y="88" width="13" height="13" fill="black"/>
<rect x="106" y="115" width="14" height="14" fill="#F9ED32"/>
<rect x="120" y="115" width="14" height="14" fill="#F9ED32"/>
<rect x="120" y="129" width="14" height="13" fill="#F9ED32"/>
<rect x="134" y="115" width="14" height="14" fill="#FF8B00"/>
<rect x="134" y="129" width="14" height="13" fill="#FF8B00"/>
<rect x="134" y="142" width="14" height="14" fill="#FF8B00"/>
<rect x="120" y="142" width="14" height="14" fill="#F9ED32"/>
<rect x="106" y="101" width="14" height="14" fill="#F9ED32"/>
<rect x="106" y="88" width="14" height="13" fill="#F9ED32"/>
<rect x="120" y="101" width="14" height="14" fill="#FF8B00"/>
<rect x="120" y="88" width="14" height="13" fill="#FF8B00"/>
<rect x="106" y="72" width="14" height="14" fill="black"/>
<rect x="120" y="72" width="14" height="14" fill="black"/>
<rect x="134" y="88" width="14" height="13" fill="#F9ED32"/>
<rect x="134" y="101" width="14" height="14" fill="#FF8B00"/>
<rect x="148" y="115" width="13" height="14" fill="#F9ED32"/>
<rect x="148" y="129" width="13" height="13" fill="#F9ED32"/>
<rect x="106" y="129" width="14" height="13" fill="#F9ED32"/>
<rect x="134" y="72" width="14" height="14" fill="#F9ED32"/>
<rect x="134" y="59" width="14" height="13" fill="#F9ED32"/>
<rect x="148" y="72" width="13" height="14" fill="#FF8B00"/>
<rect x="148" y="88" width="13" height="13" fill="#F9ED32"/>
<rect x="148" y="101" width="13" height="14" fill="#F9ED32"/>
<rect x="134" y="45" width="14" height="14" fill="black"/>
<rect x="161" y="72" width="14" height="14" fill="#FF8B00"/>
<rect x="161" y="88" width="14" height="13" fill="#FF8B00"/>
<rect x="161" y="101" width="14" height="14" fill="#FF8B00"/>
<rect x="148" y="59" width="13" height="13" fill="#FF8B00"/>
<rect x="148" y="45" width="13" height="14" fill="black"/>
<rect x="50.0005" y="101" width="14" height="14" fill="black"/>
<rect x="161" y="45" width="14" height="14" fill="black"/>
<rect x="161" y="59" width="14" height="13" fill="black"/>
<rect x="161" y="115" width="14" height="14" fill="#FF8B00"/>
<rect x="175" y="88" width="15" height="13" fill="#F9ED32"/>
<rect x="175" y="101" width="15" height="14" fill="#F9ED32"/>
<rect x="175" y="115" width="15" height="14" fill="#F9ED32"/>
<rect x="120" y="59" width="14" height="13" fill="black"/>
<rect x="190" y="129" width="14" height="13" fill="black"/>
<rect x="190" y="101" width="14" height="14" fill="#FF8B00"/>
<rect x="190" y="88" width="14" height="13" fill="#FF8B00"/>
<rect x="190" y="72" width="14" height="14" fill="#FF8B00"/>
<rect x="190" y="115" width="14" height="14" fill="#FF8B00"/>
<rect x="204" y="101" width="14" height="14" fill="black"/>
<rect x="204" y="88" width="14" height="13" fill="black"/>
<rect x="204" y="72" width="14" height="14" fill="black"/>
<rect x="190" y="59" width="14" height="13" fill="black"/>
<rect x="204" y="59" width="14" height="13" fill="black"/>
<rect x="175" y="72" width="15" height="14" fill="black"/>
<rect x="204" y="115" width="14" height="14" fill="black"/>
<rect x="77.0005" y="129" width="14" height="13" fill="#F9ED32"/>
<rect x="93.0005" y="129" width="13" height="13" fill="#FF8B00"/>
</svg>
