<svg width="123" height="123" viewBox="0 0 123 123" fill="none" xmlns="http://www.w3.org/2000/svg">
<rect x="38.9995" y="107" width="7" height="8" fill="black"/>
<rect x="45.9995" y="107" width="8" height="8" fill="black"/>
<rect x="53.9995" y="107" width="8" height="8" fill="black"/>
<rect x="61.9995" y="107" width="8" height="8" fill="black"/>
<rect x="30.9995" y="98.9999" width="7" height="8" fill="black"/>
<rect x="30.9995" y="90.9999" width="7" height="8" fill="black"/>
<rect x="30.9995" y="82.9999" width="7" height="8" fill="black"/>
<rect x="30.9995" y="75.9999" width="7" height="7" fill="black"/>
<rect x="69.9995" y="98.9999" width="8" height="8" fill="black"/>
<rect x="69.9995" y="90.9999" width="8" height="8" fill="black"/>
<rect x="69.9995" y="82.9999" width="8" height="8" fill="black"/>
<rect x="69.9995" y="75.9999" width="8" height="7" fill="black"/>
<rect x="22.9995" y="67.9999" width="8" height="8" fill="black"/>
<rect x="22.9995" y="59.9999" width="8" height="8" fill="black"/>
<rect x="22.9995" y="51.9999" width="8" height="8" fill="black"/>
<rect x="22.9995" y="43.9999" width="8" height="8" fill="black"/>
<rect x="77.9995" y="67.9999" width="8" height="7" fill="black"/>
<rect x="77.9995" y="59.9999" width="8" height="8" fill="black"/>
<rect x="77.9995" y="51.9999" width="8" height="8" fill="black"/>
<rect x="77.9995" y="43.9999" width="8" height="8" fill="black"/>
<rect x="14.9995" y="35.9999" width="8" height="8" fill="black"/>
<rect x="14.9995" y="27.9999" width="8" height="8" fill="black"/>
<rect x="22.9995" y="27.9999" width="8" height="8" fill="black"/>
<rect x="30.9995" y="27.9999" width="7" height="8" fill="black"/>
<rect x="38.9995" y="27.9999" width="7" height="8" fill="black"/>
<rect x="45.9995" y="27.9999" width="8" height="8" fill="black"/>
<rect x="53.9995" y="27.9999" width="8" height="8" fill="black"/>
<rect x="61.9995" y="27.9999" width="8" height="8" fill="black"/>
<rect x="69.9995" y="27.9999" width="8" height="8" fill="black"/>
<rect x="77.9995" y="27.9999" width="8" height="8" fill="black"/>
<rect x="85.9995" y="27.9999" width="7" height="8" fill="black"/>
<rect x="85.9995" y="35.9999" width="7" height="8" fill="black"/>
<rect x="69.9995" y="51.9999" width="8" height="8" fill="#FEC200"/>
<rect x="61.9995" y="51.9999" width="8" height="8" fill="#FEC200"/>
<rect x="53.9995" y="51.9999" width="8" height="8" fill="#E4AE00"/>
<rect x="45.9995" y="51.9999" width="8" height="8" fill="#FEC200"/>
<rect x="38.9995" y="51.9999" width="7" height="8" fill="#FEC200"/>
<rect x="30.9995" y="51.9999" width="7" height="8" fill="#FEC200"/>
<rect x="30.9995" y="59.9999" width="7" height="8" fill="#FEC200"/>
<rect x="30.9995" y="67.9999" width="7" height="8" fill="#FEC200"/>
<rect x="38.9995" y="67.9999" width="7" height="7" fill="#FEC200"/>
<rect x="45.9995" y="67.9999" width="8" height="7" fill="#FEC200"/>
<rect x="53.9995" y="67.9999" width="8" height="8" fill="#FEC200"/>
<rect x="61.9995" y="75.9999" width="8" height="7" fill="#FEC200"/>
<rect x="69.9995" y="67.9999" width="8" height="7" fill="#FEC200"/>
<rect x="61.9995" y="67.9999" width="8" height="8" fill="#E4AE00"/>
<rect x="61.9995" y="59.9999" width="8" height="8" fill="#FEC200"/>
<rect x="69.9995" y="59.9999" width="8" height="8" fill="#FEC200"/>
<rect x="53.9995" y="59.9999" width="8" height="8" fill="#FEC200"/>
<rect x="45.9995" y="59.9999" width="8" height="8" fill="#FEC200"/>
<rect x="38.9995" y="59.9999" width="7" height="8" fill="#E4AE00"/>
<rect x="38.9995" y="75.9999" width="7" height="7" fill="#FEC200"/>
<rect x="38.9995" y="82.9999" width="7" height="8" fill="#FEC200"/>
<rect x="38.9995" y="90.9999" width="7" height="8" fill="#E4AE00"/>
<rect x="38.9995" y="98.9999" width="7" height="8" fill="#FEC200"/>
<rect x="45.9995" y="98.9999" width="8" height="8" fill="#FEC200"/>
<rect x="53.9995" y="98.9999" width="8" height="8" fill="#E4AE00"/>
<rect x="61.9995" y="98.9999" width="8" height="8" fill="#FEC200"/>
<rect x="61.9995" y="90.9999" width="8" height="8" fill="#FEC200"/>
<rect x="61.9995" y="82.9999" width="8" height="8" fill="#E4AE00"/>
<rect x="53.9995" y="82.9999" width="8" height="8" fill="#FEC200"/>
<rect x="45.9995" y="82.9999" width="8" height="8" fill="#FEC200"/>
<rect x="45.9995" y="75.9999" width="8" height="7" fill="#E4AE00"/>
<rect x="53.9995" y="75.9999" width="8" height="7" fill="#FEC200"/>
<rect x="53.9995" y="90.9999" width="8" height="8" fill="#FEC200"/>
<rect x="45.9995" y="90.9999" width="8" height="8" fill="#FEC200"/>
<rect x="22.9995" y="35.9999" width="8" height="8" fill="#A5E1FF"/>
<rect x="30.9995" y="35.9999" width="7" height="8" fill="#A5E1FF"/>
<rect x="38.9995" y="35.9999" width="7" height="8" fill="#A5E1FF"/>
<rect x="45.9995" y="35.9999" width="8" height="8" fill="#A5E1FF"/>
<rect x="53.9995" y="35.9999" width="8" height="8" fill="#A5E1FF"/>
<rect x="61.9995" y="35.9999" width="8" height="8" fill="#A5E1FF"/>
<rect x="69.9995" y="35.9999" width="8" height="8" fill="#A5E1FF"/>
<rect x="77.9995" y="35.9999" width="8" height="8" fill="#A5E1FF"/>
<rect x="69.9995" y="43.9999" width="8" height="8" fill="#A5E1FF"/>
<rect x="61.9995" y="43.9999" width="8" height="8" fill="#A5E1FF"/>
<rect x="53.9995" y="43.9999" width="8" height="8" fill="#A5E1FF"/>
<rect x="45.9995" y="43.9999" width="8" height="8" fill="#A5E1FF"/>
<rect x="38.9995" y="43.9999" width="7" height="8" fill="#A5E1FF"/>
<rect x="30.9995" y="43.9999" width="7" height="8" fill="#A5E1FF"/>
<rect x="69.9995" y="20.9999" width="8" height="8" fill="black"/>
<rect x="69.9995" y="12.9999" width="8" height="8" fill="black"/>
<rect x="77.9995" y="20.9999" width="8" height="8" fill="#FEC200"/>
<rect x="77.9995" y="12.9999" width="8" height="8" fill="#FEC200"/>
<rect x="85.9995" y="12.9999" width="7" height="8" fill="#FEC200"/>
<rect x="92.9995" y="12.9999" width="8" height="8" fill="#FEC200"/>
<rect x="92.9995" y="20.9999" width="8" height="8" fill="#FEC200"/>
<rect x="85.9995" y="20.9999" width="7" height="8" fill="#FEC200"/>
<rect x="92.9995" y="27.9999" width="8" height="8" fill="#FEC200"/>
<rect x="77.9995" y="4.99988" width="8" height="8" fill="black"/>
<rect x="85.9995" y="4.99988" width="7" height="8" fill="black"/>
<rect x="92.9995" y="4.99988" width="8" height="8" fill="black"/>
<rect x="101" y="12.9999" width="8" height="8" fill="black"/>
<rect x="101" y="20.9999" width="8" height="8" fill="black"/>
<rect x="101" y="27.9999" width="8" height="8" fill="black"/>
<rect x="92.9995" y="35.9999" width="8" height="8" fill="black"/>
</svg>
