<svg width="200" height="200" viewBox="0 0 200 200" fill="none" xmlns="http://www.w3.org/2000/svg">
<rect x="18" y="5" width="14" height="13" fill="black"/>
<rect x="32" y="5" width="14" height="13" fill="black"/>
<rect x="5" y="5" width="13" height="13" fill="black"/>
<rect x="5" y="18" width="13" height="14" fill="black"/>
<rect x="5" y="32" width="13" height="14" fill="black"/>
<rect x="18" y="46" width="14" height="15" fill="black"/>
<rect x="18" y="61" width="14" height="15" fill="black"/>
<rect x="18" y="76" width="14" height="13" fill="black"/>
<rect x="32" y="89" width="14" height="13" fill="black"/>
<rect x="32" y="102" width="14" height="14" fill="black"/>
<rect x="32" y="116" width="14" height="13" fill="black"/>
<rect x="46" y="129" width="15" height="15" fill="black"/>
<rect x="46" y="144" width="15" height="15" fill="black"/>
<rect x="46" y="159" width="15" height="14" fill="black"/>
<rect x="61" y="173" width="15" height="14" fill="black"/>
<rect x="61" y="187" width="15" height="13" fill="black"/>
<rect x="76" y="187" width="13" height="13" fill="black"/>
<rect x="88.9995" y="187" width="13" height="13" fill="black"/>
<rect x="102" y="173" width="14" height="14" fill="black"/>
<rect x="116" y="173" width="13" height="14" fill="black"/>
<rect x="129" y="159" width="15" height="14" fill="black"/>
<rect x="144" y="144" width="15" height="15" fill="black"/>
<rect x="159" y="129" width="14" height="15" fill="black"/>
<rect x="173" y="116" width="14" height="13" fill="black"/>
<rect x="173" y="102" width="14" height="14" fill="black"/>
<rect x="187" y="89" width="13" height="13" fill="black"/>
<rect x="187" y="76" width="13" height="13" fill="black"/>
<rect x="187" y="61" width="13" height="15" fill="black"/>
<rect x="173" y="61" width="14" height="15" fill="black"/>
<rect x="159" y="61" width="14" height="15" fill="#FEC200"/>
<rect x="46" y="18" width="15" height="14" fill="black"/>
<rect x="61" y="18" width="15" height="14" fill="black"/>
<rect x="76" y="18" width="13" height="14" fill="black"/>
<rect x="88.9995" y="32" width="13" height="14" fill="black"/>
<rect x="102" y="32" width="14" height="14" fill="black"/>
<rect x="116" y="32" width="13" height="14" fill="black"/>
<rect x="129" y="46" width="15" height="15" fill="black"/>
<rect x="144" y="46" width="15" height="15" fill="black"/>
<rect x="159" y="46" width="14" height="15" fill="black"/>
<rect x="76" y="159" width="13" height="14" fill="black"/>
<rect x="88.9995" y="144" width="13" height="15" fill="#FEC200"/>
<rect x="102" y="129" width="14" height="15" fill="#FEC200"/>
<rect x="116" y="116" width="13" height="13" fill="#FEC200"/>
<rect x="129" y="102" width="15" height="14" fill="#FEC200"/>
<rect x="144" y="89" width="15" height="13" fill="#FEC200"/>
<rect x="159" y="76" width="14" height="13" fill="black"/>
<rect x="76" y="173" width="13" height="14" fill="#FF8B00"/>
<rect x="88.9995" y="173" width="13" height="14" fill="#FF8B00"/>
<rect x="88.9995" y="159" width="13" height="14" fill="black"/>
<rect x="102" y="159" width="14" height="14" fill="#FF8B00"/>
<rect x="116" y="159" width="13" height="14" fill="#FF8B00"/>
<rect x="102" y="144" width="14" height="15" fill="black"/>
<rect x="116" y="144" width="13" height="15" fill="#FF8B00"/>
<rect x="129" y="144" width="15" height="15" fill="#FF8B00"/>
<rect x="129" y="129" width="15" height="15" fill="#FF8B00"/>
<rect x="116" y="129" width="13" height="15" fill="black"/>
<rect x="144" y="129" width="15" height="15" fill="#FF8B00"/>
<rect x="144" y="116" width="15" height="13" fill="#FF8B00"/>
<rect x="129" y="116" width="15" height="13" fill="black"/>
<rect x="159" y="116" width="14" height="13" fill="#FF8B00"/>
<rect x="159" y="102" width="14" height="14" fill="#FF8B00"/>
<rect x="144" y="102" width="15" height="14" fill="black"/>
<rect x="159" y="89" width="14" height="13" fill="black"/>
<rect x="173" y="89" width="14" height="13" fill="#FF8B00"/>
<rect x="173" y="76" width="14" height="13" fill="#FF8B00"/>
<rect x="116" y="102" width="13" height="14" fill="#FEC200"/>
<rect x="32" y="18" width="14" height="14" fill="#FEC200"/>
<rect x="32" y="32" width="14" height="14" fill="black"/>
<rect x="46" y="46" width="15" height="15" fill="black"/>
<rect x="61" y="46" width="15" height="15" fill="#FEC200"/>
<rect x="76" y="32" width="13" height="14" fill="black"/>
<rect x="61" y="32" width="15" height="14" fill="#FEC200"/>
<rect x="46" y="32" width="15" height="14" fill="#FEC200"/>
<rect x="46" y="76" width="15" height="13" fill="#FEC200"/>
<rect x="61" y="76" width="15" height="13" fill="#FEC200"/>
<rect x="76" y="89" width="13" height="13" fill="#FEC200"/>
<rect x="76" y="102" width="13" height="14" fill="black"/>
<rect x="61" y="116" width="15" height="13" fill="#FE0002"/>
<rect x="46" y="89" width="15" height="13" fill="#FEC200"/>
<rect x="46" y="102" width="15" height="14" fill="#FEC200"/>
<rect x="61" y="102" width="15" height="14" fill="black"/>
<rect x="61" y="89" width="15" height="13" fill="#FEC200"/>
<rect x="61" y="61" width="15" height="15" fill="#FEC200"/>
<rect x="76" y="76" width="13" height="13" fill="#FEC200"/>
<rect x="88.9995" y="89" width="13" height="13" fill="#FEC200"/>
<rect x="88.9995" y="102" width="13" height="14" fill="#FEC200"/>
<rect x="102" y="116" width="14" height="13" fill="#FEC200"/>
<rect x="88.9995" y="116" width="13" height="13" fill="black"/>
<rect x="46" y="61" width="15" height="15" fill="black"/>
<rect x="46" y="116" width="15" height="13" fill="black"/>
<rect x="61" y="159" width="15" height="14" fill="#FEC200"/>
<rect x="61" y="144" width="15" height="15" fill="black"/>
<rect x="61" y="129" width="15" height="15" fill="#FE0002"/>
<rect x="32" y="46" width="14" height="15" fill="#FE0002"/>
<rect x="32" y="61" width="14" height="15" fill="#FE0002"/>
<rect x="32" y="76" width="14" height="13" fill="black"/>
<rect x="18" y="18" width="14" height="14" fill="#FEC200"/>
<rect x="18" y="32" width="14" height="14" fill="#FEC200"/>
<rect x="76" y="46" width="13" height="15" fill="#FEC200"/>
<rect x="76" y="61" width="13" height="15" fill="#FEC200"/>
<rect x="76" y="116" width="13" height="13" fill="#FE0002"/>
<rect x="76" y="129" width="13" height="15" fill="#FE0002"/>
<rect x="76" y="144" width="13" height="15" fill="black"/>
<rect x="88.9995" y="129" width="13" height="15" fill="black"/>
<rect x="88.9995" y="76" width="13" height="13" fill="#FEC200"/>
<rect x="88.9995" y="61" width="13" height="15" fill="black"/>
<rect x="88.9995" y="46" width="13" height="15" fill="black"/>
<rect x="102" y="46" width="14" height="15" fill="#FE0002"/>
<rect x="116" y="46" width="13" height="15" fill="black"/>
<rect x="116" y="61" width="13" height="15" fill="#FE0002"/>
<rect x="116" y="76" width="13" height="13" fill="black"/>
<rect x="116" y="89" width="13" height="13" fill="#FEC200"/>
<rect x="102" y="102" width="14" height="14" fill="#FEC200"/>
<rect x="102" y="89" width="14" height="13" fill="#FEC200"/>
<rect x="102" y="76" width="14" height="13" fill="black"/>
<rect x="102" y="61" width="14" height="15" fill="#FE0002"/>
<rect x="129" y="61" width="15" height="15" fill="black"/>
<rect x="144" y="61" width="15" height="15" fill="#FEC200"/>
<rect x="144" y="76" width="15" height="13" fill="#FEC200"/>
<rect x="129" y="89" width="15" height="13" fill="#FEC200"/>
<rect x="129" y="76" width="15" height="13" fill="#FEC200"/>
</svg>
