<?xml version="1.0" encoding="UTF-8"?>
<svg version="1.1" xmlns="http://www.w3.org/2000/svg" width="512" height="512">
<path d="M0 0 C30.36 0 60.72 0 92 0 C92 9.9 92 19.8 92 30 C101.9 30 111.8 30 122 30 C122 39.9 122 49.8 122 60 C131.9 60 141.8 60 152 60 C152 80.13 152 100.26 152 121 C142.1 121 132.2 121 122 121 C122 130.57 122 140.14 122 150 C131.9 150 141.8 150 152 150 C152 159.9 152 169.8 152 180 C161.9 180 171.8 180 182 180 C182 189.9 182 199.8 182 210 C191.9 210 201.8 210 212 210 C212 230.13 212 250.26 212 271 C221.9 271 231.8 271 242 271 C242 290.8 242 310.6 242 331 C251.9 331 261.8 331 272 331 C272 340.9 272 350.8 272 361 C281.9 361 291.8 361 302 361 C302 400.93 302 440.86 302 482 C292.1 482 282.2 482 272 482 C272 491.9 272 501.8 272 512 C122.84 512 -26.32 512 -180 512 C-180 502.1 -180 492.2 -180 482 C-189.9 482 -199.8 482 -210 482 C-210 442.07 -210 402.14 -210 361 C-200.1 361 -190.2 361 -180 361 C-180 351.1 -180 341.2 -180 331 C-170.1 331 -160.2 331 -150 331 C-150 311.2 -150 291.4 -150 271 C-140.1 271 -130.2 271 -120 271 C-120 250.87 -120 230.74 -120 210 C-110.1 210 -100.2 210 -90 210 C-90 200.1 -90 190.2 -90 180 C-80.1 180 -70.2 180 -60 180 C-60 170.1 -60 160.2 -60 150 C-50.1 150 -40.2 150 -30 150 C-30 140.43 -30 130.86 -30 121 C-39.9 121 -49.8 121 -60 121 C-60 100.87 -60 80.74 -60 60 C-50.1 60 -40.2 60 -30 60 C-30 50.1 -30 40.2 -30 30 C-20.1 30 -10.2 30 0 30 C0 20.1 0 10.2 0 0 Z " fill="#CA7300" transform="translate(210,0)"/>
<path d="M0 0 C30.36 0 60.72 0 92 0 C92 9.9 92 19.8 92 30 C101.9 30 111.8 30 122 30 C122 39.9 122 49.8 122 60 C131.9 60 141.8 60 152 60 C152 80.13 152 100.26 152 121 C142.1 121 132.2 121 122 121 C122 130.57 122 140.14 122 150 C131.9 150 141.8 150 152 150 C152 159.9 152 169.8 152 180 C161.9 180 171.8 180 182 180 C182 189.9 182 199.8 182 210 C191.9 210 201.8 210 212 210 C212 249.93 212 289.86 212 331 C102.44 331 -7.12 331 -120 331 C-120 291.07 -120 251.14 -120 210 C-110.1 210 -100.2 210 -90 210 C-90 200.1 -90 190.2 -90 180 C-80.1 180 -70.2 180 -60 180 C-60 170.1 -60 160.2 -60 150 C-50.1 150 -40.2 150 -30 150 C-30 140.43 -30 130.86 -30 121 C-39.9 121 -49.8 121 -60 121 C-60 100.87 -60 80.74 -60 60 C-50.1 60 -40.2 60 -30 60 C-30 50.1 -30 40.2 -30 30 C-20.1 30 -10.2 30 0 30 C0 20.1 0 10.2 0 0 Z " fill="#3C98E0" transform="translate(210,0)"/>
<path d="M0 0 C30.36 0 60.72 0 92 0 C92 9.9 92 19.8 92 30 C101.9 30 111.8 30 122 30 C122 39.9 122 49.8 122 60 C131.9 60 141.8 60 152 60 C152 80.13 152 100.26 152 121 C142.1 121 132.2 121 122 121 C122 130.57 122 140.14 122 150 C131.9 150 141.8 150 152 150 C152 159.9 152 169.8 152 180 C161.9 180 171.8 180 182 180 C182 189.9 182 199.8 182 210 C191.9 210 201.8 210 212 210 C212 230.13 212 250.26 212 271 C192.2 271 172.4 271 152 271 C152 261.1 152 251.2 152 241 C161.57 241 171.14 241 181 241 C181 231.1 181 221.2 181 211 C171.1 211 161.2 211 151 211 C151 201.1 151 191.2 151 181 C141.1 181 131.2 181 121 181 C121 171.1 121 161.2 121 151 C71.5 151 22 151 -29 151 C-29 160.9 -29 170.8 -29 181 C-38.9 181 -48.8 181 -59 181 C-59 190.9 -59 200.8 -59 211 C-68.9 211 -78.8 211 -89 211 C-89 220.9 -89 230.8 -89 241 C-79.43 241 -69.86 241 -60 241 C-60 250.9 -60 260.8 -60 271 C-79.8 271 -99.6 271 -120 271 C-120 250.87 -120 230.74 -120 210 C-110.1 210 -100.2 210 -90 210 C-90 200.1 -90 190.2 -90 180 C-80.1 180 -70.2 180 -60 180 C-60 170.1 -60 160.2 -60 150 C-50.1 150 -40.2 150 -30 150 C-30 140.43 -30 130.86 -30 121 C-39.9 121 -49.8 121 -60 121 C-60 100.87 -60 80.74 -60 60 C-50.1 60 -40.2 60 -30 60 C-30 50.1 -30 40.2 -30 30 C-20.1 30 -10.2 30 0 30 C0 20.1 0 10.2 0 0 Z " fill="#000000" transform="translate(210,0)"/>
<path d="M0 0 C9.57 0 19.14 0 29 0 C29 19.8 29 39.6 29 60 C38.9 60 48.8 60 59 60 C59 40.2 59 20.4 59 0 C68.9 0 78.8 0 89 0 C89 19.8 89 39.6 89 60 C99.23 60 109.46 60 120 60 C120 40.2 120 20.4 120 0 C129.9 0 139.8 0 150 0 C150 19.8 150 39.6 150 60 C159.9 60 169.8 60 180 60 C180 40.2 180 20.4 180 0 C189.9 0 199.8 0 210 0 C210 19.8 210 39.6 210 60 C219.9 60 229.8 60 240 60 C240 40.2 240 20.4 240 0 C249.9 0 259.8 0 270 0 C270 19.8 270 39.6 270 60 C279.9 60 289.8 60 300 60 C300 40.2 300 20.4 300 0 C309.9 0 319.8 0 330 0 C330 19.8 330 39.6 330 60 C340.23 60 350.46 60 361 60 C361 40.2 361 20.4 361 0 C370.9 0 380.8 0 391 0 C391 19.8 391 39.6 391 60 C400.9 60 410.8 60 421 60 C421 40.2 421 20.4 421 0 C430.9 0 440.8 0 451 0 C451 29.37 451 58.74 451 89 C447.47870936 90.17376355 444.31538722 90.13793605 440.65268517 90.12584114 C439.89482019 90.12729458 439.13695522 90.12874802 438.35612464 90.13024551 C435.79610227 90.13391834 433.23613896 90.13041315 430.67611694 90.12698364 C428.83045439 90.12813495 426.98479207 90.12972254 425.13913023 90.13171089 C420.05132923 90.13590281 414.96354687 90.13381413 409.87574577 90.13072467 C404.39515427 90.12847027 398.91456607 90.13195036 393.43397522 90.13470459 C382.69171547 90.13916067 371.94946269 90.13818659 361.20720266 90.13529195 C352.48111777 90.13303752 343.75503484 90.13272557 335.02894974 90.13381577 C333.16911282 90.13404561 333.16911282 90.13404561 331.27170343 90.13428011 C328.75325476 90.13459982 326.23480609 90.13492403 323.71635742 90.1352527 C300.75348531 90.13802552 277.79061629 90.13514571 254.82774493 90.1299101 C233.84837739 90.12516313 212.86901592 90.12558991 191.88964844 90.13037109 C168.33636781 90.13572089 144.78308976 90.13783343 121.22980845 90.13475883 C118.72101188 90.13444026 116.2122153 90.13412589 113.70341873 90.13381577 C112.46888712 90.13366149 111.2343555 90.13350721 109.96241384 90.13334826 C101.240479 90.13248291 92.5185463 90.13394635 83.79661179 90.13629532 C73.17676014 90.13909244 62.5569159 90.13835687 51.93706511 90.13301457 C46.51325255 90.13037654 41.08945236 90.12937422 35.66563988 90.13266373 C30.70903244 90.13562454 25.75244892 90.1340375 20.79584368 90.12868617 C18.99444722 90.12756108 17.19304878 90.12815519 15.39165358 90.13056196 C12.95961707 90.13356423 10.52766453 90.13052327 8.09563255 90.12584114 C7.02514577 90.12935289 7.02514577 90.12935289 5.93303299 90.13293558 C1.11415038 90.11415038 1.11415038 90.11415038 0 89 C-0.09517803 86.23061034 -0.12554265 83.48622841 -0.11352539 80.71655273 C-0.11367142 79.84833893 -0.11381744 78.98012512 -0.1139679 78.08560181 C-0.11326846 75.20157414 -0.10547463 72.3176102 -0.09765625 69.43359375 C-0.09579218 67.43962133 -0.09436823 65.44564845 -0.09336853 63.45167542 C-0.08954248 58.19254298 -0.07971145 52.93343797 -0.06866455 47.67431641 C-0.0584523 42.31217825 -0.05387131 36.95003569 -0.04882812 31.58789062 C-0.03808926 21.05857973 -0.02049176 10.52929643 0 0 Z " fill="#FE8F00" transform="translate(31,362)"/>
<path d="M0 0 C49.5 0 99 0 150 0 C150 9.9 150 19.8 150 30 C159.9 30 169.8 30 180 30 C180 39.9 180 49.8 180 60 C189.9 60 199.8 60 210 60 C210 69.9 210 79.8 210 90 C200.43 90 190.86 90 181 90 C181 99.9 181 109.8 181 120 C180.67 120 180.34 120 180 120 C180 110.1 180 100.2 180 90 C170.1 90 160.2 90 150 90 C150 99.9 150 109.8 150 120 C140.1 120 130.2 120 120 120 C120 110.1 120 100.2 120 90 C110.1 90 100.2 90 90 90 C90 99.9 90 109.8 90 120 C80.1 120 70.2 120 60 120 C60 110.1 60 100.2 60 90 C50.1 90 40.2 90 30 90 C30 99.9 30 109.8 30 120 C20.1 120 10.2 120 0 120 C0 110.1 0 100.2 0 90 C-9.9 90 -19.8 90 -30 90 C-30 99.9 -30 109.8 -30 120 C-30.33 120 -30.66 120 -31 120 C-31 110.1 -31 100.2 -31 90 C-40.57 90 -50.14 90 -60 90 C-60 80.1 -60 70.2 -60 60 C-50.1 60 -40.2 60 -30 60 C-30 50.1 -30 40.2 -30 30 C-20.1 30 -10.2 30 0 30 C0 20.1 0 10.2 0 0 Z " fill="#3C98E0" transform="translate(181,151)"/>
<path d="M0 0 C9.9 0 19.8 0 30 0 C30 19.8 30 39.6 30 60 C139.56 60 249.12 60 362 60 C362 40.2 362 20.4 362 0 C371.9 0 381.8 0 392 0 C392 19.8 392 39.6 392 60 C401.9 60 411.8 60 422 60 C422 69.9 422 79.8 422 90 C272.84 90 123.68 90 -30 90 C-30 80.1 -30 70.2 -30 60 C-20.1 60 -10.2 60 0 60 C0 40.2 0 20.4 0 0 Z " fill="#000001" transform="translate(60,271)"/>
<path d="M0 0 C149.16 0 298.32 0 452 0 C452 39.93 452 79.86 452 121 C442.1 121 432.2 121 422 121 C422 81.4 422 41.8 422 1 C412.1 1 402.2 1 392 1 C392 20.8 392 40.6 392 61 C382.1 61 372.2 61 362 61 C362 41.2 362 21.4 362 1 C352.1 1 342.2 1 332 1 C332 20.8 332 40.6 332 61 C321.77 61 311.54 61 301 61 C301 41.2 301 21.4 301 1 C291.1 1 281.2 1 271 1 C271 20.8 271 40.6 271 61 C261.1 61 251.2 61 241 61 C241 41.2 241 21.4 241 1 C231.1 1 221.2 1 211 1 C211 20.8 211 40.6 211 61 C201.1 61 191.2 61 181 61 C181 41.2 181 21.4 181 1 C171.1 1 161.2 1 151 1 C151 20.8 151 40.6 151 61 C141.1 61 131.2 61 121 61 C121 41.2 121 21.4 121 1 C111.1 1 101.2 1 91 1 C91 20.8 91 40.6 91 61 C80.77 61 70.54 61 60 61 C60 41.2 60 21.4 60 1 C50.1 1 40.2 1 30 1 C30 20.8 30 40.6 30 61 C20.1 61 10.2 61 0 61 C0 40.87 0 20.74 0 0 Z " fill="#8F4912" transform="translate(60,361)"/>
<path d="M0 0 C149.16 0 298.32 0 452 0 C452 9.9 452 19.8 452 30 C302.84 30 153.68 30 0 30 C0 20.1 0 10.2 0 0 Z " fill="#000000" transform="translate(30,482)"/>
<path d="M0 0 C29.7 0 59.4 0 90 0 C90 9.9 90 19.8 90 30 C99.9 30 109.8 30 120 30 C120 49.8 120 69.6 120 90 C70.5 90 21 90 -30 90 C-30 70.2 -30 50.4 -30 30 C-20.1 30 -10.2 30 0 30 C0 20.1 0 10.2 0 0 Z " fill="#FE8F00" transform="translate(211,30)"/>
<path d="M0 0 C0.33 0 0.66 0 1 0 C1 9.9 1 19.8 1 30 C109.9 30 218.8 30 331 30 C331 20.1 331 10.2 331 0 C331.33 0 331.66 0 332 0 C332 19.8 332 39.6 332 60 C222.44 60 112.88 60 0 60 C0 40.2 0 20.4 0 0 Z " fill="#1C77BD" transform="translate(90,271)"/>
<path d="M0 0 C69.96 0 139.92 0 212 0 C212 9.9 212 19.8 212 30 C221.9 30 231.8 30 242 30 C242 39.9 242 49.8 242 60 C251.9 60 261.8 60 272 60 C272 80.13 272 100.26 272 121 C252.2 121 232.4 121 212 121 C212 111.1 212 101.2 212 91 C221.57 91 231.14 91 241 91 C241 81.1 241 71.2 241 61 C231.1 61 221.2 61 211 61 C211 51.1 211 41.2 211 31 C201.1 31 191.2 31 181 31 C181 21.1 181 11.2 181 1 C131.5 1 82 1 31 1 C31 10.9 31 20.8 31 31 C21.1 31 11.2 31 1 31 C1 40.9 1 50.8 1 61 C-8.9 61 -18.8 61 -29 61 C-29 70.9 -29 80.8 -29 91 C-19.43 91 -9.86 91 0 91 C0 100.9 0 110.8 0 121 C-19.8 121 -39.6 121 -60 121 C-60 100.87 -60 80.74 -60 60 C-50.1 60 -40.2 60 -30 60 C-30 50.1 -30 40.2 -30 30 C-20.1 30 -10.2 30 0 30 C0 20.1 0 10.2 0 0 Z " fill="#12466D" transform="translate(150,150)"/>
<path d="M0 0 C49.5 0 99 0 150 0 C150 9.9 150 19.8 150 30 C100.5 30 51 30 0 30 C0 20.1 0 10.2 0 0 Z " fill="#1C78BE" transform="translate(181,151)"/>
<path d="M0 0 C49.5 0 99 0 150 0 C150 9.9 150 19.8 150 30 C100.5 30 51 30 0 30 C0 20.1 0 10.2 0 0 Z " fill="#CB7400" transform="translate(181,90)"/>
<path d="M0 0 C9.9 0 19.8 0 30 0 C30 39.93 30 79.86 30 121 C20.1 121 10.2 121 0 121 C0 81.07 0 41.14 0 0 Z " fill="#000000" transform="translate(482,361)"/>
<path d="M0 0 C9.9 0 19.8 0 30 0 C30 39.93 30 79.86 30 121 C20.1 121 10.2 121 0 121 C0 81.07 0 41.14 0 0 Z " fill="#000000" transform="translate(0,361)"/>
<path d="M0 0 C29.7 0 59.4 0 90 0 C90 9.9 90 19.8 90 30 C60.3 30 30.6 30 0 30 C0 20.1 0 10.2 0 0 Z " fill="#FED197" transform="translate(211,30)"/>
<path d="M0 0 C19.8 0 39.6 0 60 0 C60 9.9 60 19.8 60 30 C50.43 30 40.86 30 31 30 C31 39.9 31 49.8 31 60 C30.67 60 30.34 60 30 60 C30 50.1 30 40.2 30 30 C20.1 30 10.2 30 0 30 C0 20.1 0 10.2 0 0 Z " fill="#155585" transform="translate(331,211)"/>
<path d="M0 0 C19.8 0 39.6 0 60 0 C60 9.9 60 19.8 60 30 C50.1 30 40.2 30 30 30 C30 39.9 30 49.8 30 60 C29.67 60 29.34 60 29 60 C29 50.1 29 40.2 29 30 C19.43 30 9.86 30 0 30 C0 20.1 0 10.2 0 0 Z " fill="#155585" transform="translate(121,211)"/>
<path d="M0 0 C9.9 0 19.8 0 30 0 C30 20.13 30 40.26 30 61 C20.1 61 10.2 61 0 61 C0 40.87 0 20.74 0 0 Z " fill="#000000" transform="translate(392,210)"/>
<path d="M0 0 C9.9 0 19.8 0 30 0 C30 20.13 30 40.26 30 61 C20.1 61 10.2 61 0 61 C0 40.87 0 20.74 0 0 Z " fill="#000000" transform="translate(90,210)"/>
<path d="M0 0 C9.9 0 19.8 0 30 0 C30 9.9 30 19.8 30 30 C20.43 30 10.86 30 1 30 C1 49.8 1 69.6 1 90 C50.5 90 100 90 151 90 C151 70.2 151 50.4 151 30 C151.33 30 151.66 30 152 30 C152 50.13 152 70.26 152 91 C101.84 91 51.68 91 0 91 C0 60.97 0 30.94 0 0 Z " fill="#130A00" transform="translate(180,30)"/>
<path d="M0 0 C9.9 0 19.8 0 30 0 C30 9.9 30 19.8 30 30 C20.1 30 10.2 30 0 30 C0 20.1 0 10.2 0 0 Z " fill="#145382" transform="translate(301,241)"/>
<path d="M0 0 C9.9 0 19.8 0 30 0 C30 9.9 30 19.8 30 30 C20.1 30 10.2 30 0 30 C0 20.1 0 10.2 0 0 Z " fill="#145382" transform="translate(241,241)"/>
<path d="M0 0 C9.9 0 19.8 0 30 0 C30 9.9 30 19.8 30 30 C20.1 30 10.2 30 0 30 C0 20.1 0 10.2 0 0 Z " fill="#145382" transform="translate(181,241)"/>
<path d="M0 0 C9.9 0 19.8 0 30 0 C30 9.9 30 19.8 30 30 C20.1 30 10.2 30 0 30 C0 20.1 0 10.2 0 0 Z " fill="#145382" transform="translate(271,211)"/>
<path d="M0 0 C9.9 0 19.8 0 30 0 C30 9.9 30 19.8 30 30 C20.1 30 10.2 30 0 30 C0 20.1 0 10.2 0 0 Z " fill="#145382" transform="translate(211,211)"/>
<path d="M0 0 C9.9 0 19.8 0 30 0 C30 9.9 30 19.8 30 30 C20.1 30 10.2 30 0 30 C0 20.1 0 10.2 0 0 Z " fill="#000000" transform="translate(362,180)"/>
<path d="M0 0 C9.9 0 19.8 0 30 0 C30 9.9 30 19.8 30 30 C20.1 30 10.2 30 0 30 C0 20.1 0 10.2 0 0 Z " fill="#000000" transform="translate(120,180)"/>
<path d="M0 0 C9.9 0 19.8 0 30 0 C30 9.9 30 19.8 30 30 C20.1 30 10.2 30 0 30 C0 20.1 0 10.2 0 0 Z " fill="#000000" transform="translate(332,150)"/>
<path d="M0 0 C9.9 0 19.8 0 30 0 C30 9.9 30 19.8 30 30 C20.1 30 10.2 30 0 30 C0 20.1 0 10.2 0 0 Z " fill="#000000" transform="translate(150,150)"/>
<path d="M0 0 C9.57 0 19.14 0 29 0 C29 9.9 29 19.8 29 30 C19.43 30 9.86 30 0 30 C0 20.1 0 10.2 0 0 Z " fill="#145382" transform="translate(362,241)"/>
<path d="M0 0 C9.57 0 19.14 0 29 0 C29 9.9 29 19.8 29 30 C19.43 30 9.86 30 0 30 C0 20.1 0 10.2 0 0 Z " fill="#3C98E0" transform="translate(362,211)"/>
<path d="M0 0 C9.57 0 19.14 0 29 0 C29 9.9 29 19.8 29 30 C19.43 30 9.86 30 0 30 C0 20.1 0 10.2 0 0 Z " fill="#3C98E0" transform="translate(121,211)"/>
</svg>
