<?xml version="1.0" encoding="UTF-8"?>
<svg version="1.1" xmlns="http://www.w3.org/2000/svg" width="512" height="512">
<path d="M0 0 C50.16 0 100.32 0 152 0 C152 9.9 152 19.8 152 30 C161.9 30 171.8 30 182 30 C182 39.9 182 49.8 182 60 C201.8 60 221.6 60 242 60 C242 69.9 242 79.8 242 90 C261.8 90 281.6 90 302 90 C302 99.9 302 109.8 302 120 C311.9 120 321.8 120 332 120 C332 239.46 332 358.92 332 482 C322.1 482 312.2 482 302 482 C302 491.9 302 501.8 302 512 C152.84 512 3.68 512 -150 512 C-150 502.1 -150 492.2 -150 482 C-159.9 482 -169.8 482 -180 482 C-180 362.54 -180 243.08 -180 120 C-170.1 120 -160.2 120 -150 120 C-150 110.1 -150 100.2 -150 90 C-130.2 90 -110.4 90 -90 90 C-90 80.1 -90 70.2 -90 60 C-70.2 60 -50.4 60 -30 60 C-30 50.1 -30 40.2 -30 30 C-20.1 30 -10.2 30 0 30 C0 20.1 0 10.2 0 0 Z " fill="#340460" transform="translate(180,0)"/>
<path d="M0 0 C9.9 0 19.8 0 30 0 C30 9.9 30 19.8 30 30 C20.43 30 10.86 30 1 30 C1 69.6 1 109.2 1 150 C10.9 150 20.8 150 31 150 C31 180.03 31 210.06 31 241 C40.9 241 50.8 241 61 241 C61 280.6 61 320.2 61 361 C70.9 361 80.8 361 91 361 C91 371.23 91 381.46 91 392 C100.9 392 110.8 392 121 392 C121 401.9 121 411.8 121 422 C130.9 422 140.8 422 151 422 C151 431.9 151 441.8 151 452 C210.73 452 270.46 452 332 452 C332 461.9 332 471.8 332 482 C182.84 482 33.68 482 -120 482 C-120 472.1 -120 462.2 -120 452 C-129.9 452 -139.8 452 -150 452 C-150 332.54 -150 213.08 -150 90 C-140.1 90 -130.2 90 -120 90 C-120 80.1 -120 70.2 -120 60 C-100.2 60 -80.4 60 -60 60 C-60 50.1 -60 40.2 -60 30 C-40.2 30 -20.4 30 0 30 C0 20.1 0 10.2 0 0 Z " fill="#494872" transform="translate(150,30)"/>
<path d="M0 0 C9.57 0 19.14 0 29 0 C29.33 9.9 29.66 19.8 30 30 C44.85 30.495 44.85 30.495 60 31 C60 40.57 60 50.14 60 60 C69.9 60 79.8 60 90 60 C90 50.43 90 40.86 90 31 C99.9 31 109.8 31 120 31 C120 40.57 120 50.14 120 60 C129.9 60 139.8 60 150 60 C150 50.43 150 40.86 150 31 C159.9 30.67 169.8 30.34 180 30 C180.33 20.1 180.66 10.2 181 0 C190.57 0 200.14 0 210 0 C210 39.93 210 79.86 210 121 C200.1 121 190.2 121 180 121 C180 150.7 180 180.4 180 211 C170.1 211 160.2 211 150 211 C150 250.93 150 290.86 150 332 C140.1 332 130.2 332 120 332 C120 341.9 120 351.8 120 362 C110.1 362 100.2 362 90 362 C90 351.77 90 341.54 90 331 C80.1 331 70.2 331 60 331 C60 291.4 60 251.8 60 211 C50.1 211 40.2 211 30 211 C30 180.97 30 150.94 30 120 C20.1 120 10.2 120 0 120 C0 80.4 0 40.8 0 0 Z " fill="#E6F1FE" transform="translate(151,60)"/>
<path d="M0 0 C9.57 0 19.14 0 29 0 C29 29.7 29 59.4 29 90 C38.9 90 48.8 90 59 90 C59 119.7 59 149.4 59 180 C68.9 180 78.8 180 89 180 C89 219.6 89 259.2 89 300 C79.43 300 69.86 300 60 300 C60 280.2 60 260.4 60 240 C50.1 240 40.2 240 30 240 C30 230.1 30 220.2 30 210 C19.77 210 9.54 210 -1 210 C-1 220.23 -1 230.46 -1 241 C8.9 241 18.8 241 29 241 C29 260.8 29 280.6 29 301 C38.9 301 48.8 301 59 301 C59 310.9 59 320.8 59 331 C68.9 331 78.8 331 89 331 C89 340.9 89 350.8 89 361 C99.23 361 109.46 361 120 361 C120 370.9 120 380.8 120 391 C60.27 391 0.54 391 -61 391 C-61 271.87 -61 152.74 -61 30 C-51.1 30 -41.2 30 -31 30 C-31 69.6 -31 109.2 -31 150 C-21.1 150 -11.2 150 -1 150 C-1 159.9 -1 169.8 -1 180 C8.9 180 18.8 180 29 180 C29 170.1 29 160.2 29 150 C19.43 150 9.86 150 0 150 C0 100.5 0 51 0 0 Z " fill="#53459B" transform="translate(91,91)"/>
<path d="M0 0 C50.16 0 100.32 0 152 0 C152 9.9 152 19.8 152 30 C161.9 30 171.8 30 182 30 C182 79.83 182 129.66 182 181 C191.9 181 201.8 181 212 181 C212 151.3 212 121.6 212 91 C221.57 91 231.14 91 241 91 C241 140.5 241 190 241 241 C231.43 241 221.86 241 212 241 C212 250.9 212 260.8 212 271 C221.57 271 231.14 271 241 271 C241 280.9 241 290.8 241 301 C231.1 301 221.2 301 211 301 C211 310.9 211 320.8 211 331 C201.1 331 191.2 331 181 331 C181 350.8 181 370.6 181 391 C171.1 391 161.2 391 151 391 C151 321.7 151 252.4 151 181 C160.9 181 170.8 181 181 181 C181 141.07 181 101.14 181 60 C171.43 60 161.86 60 152 60 C152.01160156 62.15402344 152.02320313 64.30804688 152.03515625 66.52734375 C152.04294737 68.60571139 152.04902381 70.68407743 152.05493164 72.76245117 C152.05997101 74.21070073 152.06680253 75.65894517 152.07543945 77.10717773 C152.08752247 79.18474588 152.09323211 81.26224697 152.09765625 83.33984375 C152.10289307 84.59144287 152.10812988 85.84304199 152.11352539 87.13256836 C152 90 152 90 151 91 C148.78144736 91.08783542 146.56011504 91.10694609 144.33984375 91.09765625 C143.34314415 91.09553383 143.34314415 91.09553383 142.3263092 91.09336853 C140.19666101 91.08775518 138.06711661 91.07520054 135.9375 91.0625 C134.49674631 91.05748671 133.05599097 91.05292351 131.61523438 91.04882812 C128.07675042 91.03863076 124.53849187 91.0190583 121 91 C121 100.57 121 110.14 121 120 C111.1 120 101.2 120 91 120 C91 110.43 91 100.86 91 91 C81.1 91 71.2 91 61 91 C61 100.57 61 110.14 61 120 C51.1 120 41.2 120 31 120 C31 110.43 31 100.86 31 91 C28.84597656 91.01160156 26.69195312 91.02320312 24.47265625 91.03515625 C22.39428861 91.04294737 20.31592257 91.04902381 18.23754883 91.05493164 C16.78929927 91.05997101 15.34105483 91.06680253 13.89282227 91.07543945 C11.81525412 91.08752247 9.73775303 91.09323211 7.66015625 91.09765625 C6.40855713 91.10289307 5.15695801 91.10812988 3.86743164 91.11352539 C1 91 1 91 0 90 C-0.0951949 87.20006693 -0.12552637 84.42497184 -0.11352539 81.62475586 C-0.11364593 80.73253861 -0.11376646 79.84032137 -0.11389065 78.92106724 C-0.11314135 76.01896781 -0.10551237 73.11693177 -0.09765625 70.21484375 C-0.09618688 68.42875194 -0.09516614 66.64265971 -0.09460449 64.85656738 C-0.08935101 58.21687171 -0.07538993 51.57718524 -0.0625 44.9375 C-0.041875 30.108125 -0.02125 15.27875 0 0 Z " fill="#B1B4D7" transform="translate(180,0)"/>
<path d="M0 0 C19.8 0 39.6 0 60 0 C60 49.83 60 99.66 60 151 C50.1 151 40.2 151 30 151 C30 111.4 30 71.8 30 31 C20.1 31 10.2 31 0 31 C0 150.13 0 269.26 0 392 C-9.9 392 -19.8 392 -30 392 C-30 272.54 -30 153.08 -30 30 C-20.1 30 -10.2 30 0 30 C0 20.1 0 10.2 0 0 Z " fill="#000000" transform="translate(30,90)"/>
<path d="M0 0 C0.33 0 0.66 0 1 0 C1 39.93 1 79.86 1 121 C10.9 121 20.8 121 31 121 C31 91.3 31 61.6 31 31 C40.57 31 50.14 31 60 31 C60 80.5 60 130 60 181 C50.43 181 40.86 181 31 181 C31 190.9 31 200.8 31 211 C40.57 211 50.14 211 60 211 C60 220.9 60 230.8 60 241 C50.1 241 40.2 241 30 241 C30 250.9 30 260.8 30 271 C20.1 271 10.2 271 0 271 C0 290.8 0 310.6 0 331 C-9.9 331 -19.8 331 -30 331 C-30 261.7 -30 192.4 -30 121 C-20.1 121 -10.2 121 0 121 C0 81.07 0 41.14 0 0 Z " fill="#6D66D2" transform="translate(361,60)"/>
<path d="M0 0 C9.9 0 19.8 0 30 0 C30 9.9 30 19.8 30 30 C39.9 30 49.8 30 60 30 C60 20.1 60 10.2 60 0 C69.9 0 79.8 0 90 0 C90 9.9 90 19.8 90 30 C149.73 30 209.46 30 271 30 C271 39.9 271 49.8 271 60 C121.84 60 -27.32 60 -181 60 C-181 50.1 -181 40.2 -181 30 C-121.27 30 -61.54 30 0 30 C0 20.1 0 10.2 0 0 Z " fill="#000000" transform="translate(211,452)"/>
<path d="M0 0 C9.57 0 19.14 0 29 0 C29 29.7 29 59.4 29 90 C38.9 90 48.8 90 59 90 C59 119.7 59 149.4 59 180 C68.9 180 78.8 180 89 180 C89 219.6 89 259.2 89 300 C79.43 300 69.86 300 60 300 C60 280.2 60 260.4 60 240 C50.1 240 40.2 240 30 240 C30 230.1 30 220.2 30 210 C19.77 210 9.54 210 -1 210 C-1 200.1 -1 190.2 -1 180 C8.9 180 18.8 180 29 180 C29 170.1 29 160.2 29 150 C19.43 150 9.86 150 0 150 C0 100.5 0 51 0 0 Z " fill="#6D66D4" transform="translate(91,91)"/>
<path d="M0 0 C9.9 0 19.8 0 30 0 C30 39.93 30 79.86 30 121 C20.1 121 10.2 121 0 121 C0 130.9 0 140.8 0 151 C-9.9 151 -19.8 151 -30 151 C-30 160.9 -30 170.8 -30 181 C-60.03 181 -90.06 181 -121 181 C-121 171.1 -121 161.2 -121 151 C-111.1 151 -101.2 151 -91 151 C-91 141.1 -91 131.2 -91 121 C-80.77 121 -70.54 121 -60 121 C-60 111.1 -60 101.2 -60 91 C-50.1 91 -40.2 91 -30 91 C-30 71.2 -30 51.4 -30 31 C-20.1 31 -10.2 31 0 31 C0 20.77 0 10.54 0 0 Z " fill="#53459B" transform="translate(422,301)"/>
<path d="M0 0 C9.9 0 19.8 0 30 0 C30 119.46 30 238.92 30 362 C20.1 362 10.2 362 0 362 C0 242.54 0 123.08 0 0 Z " fill="#000000" transform="translate(482,120)"/>
<path d="M0 0 C19.8 0 39.6 0 60 0 C60 39.93 60 79.86 60 121 C50.1 121 40.2 121 30 121 C30 111.1 30 101.2 30 91 C20.1 91 10.2 91 0 91 C0 80.77 0 70.54 0 60 C9.9 60 19.8 60 30 60 C30 50.43 30 40.86 30 31 C20.1 31 10.2 31 0 31 C0 20.77 0 10.54 0 0 Z " fill="#B4B8DB" transform="translate(241,271)"/>
<path d="M0 0 C19.8 0 39.6 0 60 0 C60 9.9 60 19.8 60 30 C49.77 30 39.54 30 29 30 C29 69.93 29 109.86 29 151 C19.43 151 9.86 151 0 151 C0 101.17 0 51.34 0 0 Z " fill="#000000" transform="translate(422,90)"/>
<path d="M0 0 C50.16 0 100.32 0 152 0 C152 9.9 152 19.8 152 30 C101.84 30 51.68 30 0 30 C0 20.1 0 10.2 0 0 Z " fill="#000000" transform="translate(180,0)"/>
<path d="M0 0 C19.8 0 39.6 0 60 0 C60 9.9 60 19.8 60 30 C49.77 30 39.54 30 29 30 C29 59.7 29 89.4 29 120 C19.43 120 9.86 120 0 120 C0 80.4 0 40.8 0 0 Z " fill="#000000" transform="translate(362,60)"/>
<path d="M0 0 C19.8 0 39.6 0 60 0 C60 39.6 60 79.2 60 120 C50.43 120 40.86 120 31 120 C31 90.3 31 60.6 31 30 C20.77 30 10.54 30 0 30 C0 20.1 0 10.2 0 0 Z " fill="#000000" transform="translate(90,60)"/>
<path d="M0 0 C9.57 0 19.14 0 29 0 C29 39.93 29 79.86 29 121 C19.1 121 9.2 121 -1 121 C-1.02285819 109.65319575 -1.04108902 98.30640752 -1.05181217 86.95958519 C-1.05696628 81.6872406 -1.06392259 76.41491296 -1.07543945 71.14257812 C-1.1259834 47.39836831 -0.97770874 23.72675862 0 0 Z " fill="#B5B8DC" transform="translate(332,60)"/>
<path d="M0 0 C9.57 0 19.14 0 29 0 C29 39.6 29 79.2 29 120 C19.43 120 9.86 120 0 120 C0 80.4 0 40.8 0 0 Z " fill="#000000" transform="translate(302,271)"/>
<path d="M0 0 C9.57 0 19.14 0 29 0 C29 39.6 29 79.2 29 120 C19.43 120 9.86 120 0 120 C0 80.4 0 40.8 0 0 Z " fill="#000000" transform="translate(181,271)"/>
<path d="M0 0 C9.9 0 19.8 0 30 0 C30 29.7 30 59.4 30 90 C20.1 90 10.2 90 0 90 C0 60.3 0 30.6 0 0 Z " fill="#B5B8DC" transform="translate(301,181)"/>
<path d="M0 0 C9.57 0 19.14 0 29 0 C29 29.7 29 59.4 29 90 C19.43 90 9.86 90 0 90 C0 60.3 0 30.6 0 0 Z " fill="#000000" transform="translate(332,181)"/>
<path d="M0 0 C9.57 0 19.14 0 29 0 C29 29.7 29 59.4 29 90 C19.43 90 9.86 90 0 90 C0 60.3 0 30.6 0 0 Z " fill="#000000" transform="translate(151,181)"/>
<path d="M0 0 C9.57 0 19.14 0 29 0 C29 19.47 29 38.94 29 59 C19.43 59 9.86 59 0 59 C0 39.53 0 20.06 0 0 Z " fill="#000000" transform="translate(362,332)"/>
<path d="M0 0 C9.57 0 19.14 0 29 0 C29 19.47 29 38.94 29 59 C19.43 59 9.86 59 0 59 C0 39.53 0 20.06 0 0 Z " fill="#000000" transform="translate(121,332)"/>
<path d="M0 0 C9.9 0 19.8 0 30 0 C30 9.9 30 19.8 30 30 C20.1 30 10.2 30 0 30 C0 20.1 0 10.2 0 0 Z " fill="#6D66D4" transform="translate(241,452)"/>
<path d="M0 0 C9.9 0 19.8 0 30 0 C30 9.9 30 19.8 30 30 C20.1 30 10.2 30 0 30 C0 20.1 0 10.2 0 0 Z " fill="#010102" transform="translate(301,422)"/>
<path d="M0 0 C9.9 0 19.8 0 30 0 C30 9.9 30 19.8 30 30 C20.1 30 10.2 30 0 30 C0 20.1 0 10.2 0 0 Z " fill="#6D66D3" transform="translate(271,422)"/>
<path d="M0 0 C9.9 0 19.8 0 30 0 C30 9.9 30 19.8 30 30 C20.1 30 10.2 30 0 30 C0 20.1 0 10.2 0 0 Z " fill="#000001" transform="translate(241,422)"/>
<path d="M0 0 C9.9 0 19.8 0 30 0 C30 9.9 30 19.8 30 30 C20.1 30 10.2 30 0 30 C0 20.1 0 10.2 0 0 Z " fill="#6C65D2" transform="translate(211,422)"/>
<path d="M0 0 C9.9 0 19.8 0 30 0 C30 9.9 30 19.8 30 30 C20.1 30 10.2 30 0 30 C0 20.1 0 10.2 0 0 Z " fill="#B4B7DB" transform="translate(241,392)"/>
<path d="M0 0 C9.9 0 19.8 0 30 0 C30 9.9 30 19.8 30 30 C20.1 30 10.2 30 0 30 C0 20.1 0 10.2 0 0 Z " fill="#020203" transform="translate(211,392)"/>
<path d="M0 0 C9.9 0 19.8 0 30 0 C30 9.9 30 19.8 30 30 C20.1 30 10.2 30 0 30 C0 20.1 0 10.2 0 0 Z " fill="#55479C" transform="translate(241,331)"/>
<path d="M0 0 C9.9 0 19.8 0 30 0 C30 9.9 30 19.8 30 30 C20.1 30 10.2 30 0 30 C0 20.1 0 10.2 0 0 Z " fill="#54469C" transform="translate(241,271)"/>
<path d="M0 0 C9.9 0 19.8 0 30 0 C30 9.9 30 19.8 30 30 C20.1 30 10.2 30 0 30 C0 20.1 0 10.2 0 0 Z " fill="#000001" transform="translate(60,271)"/>
<path d="M0 0 C9.9 0 19.8 0 30 0 C30 9.9 30 19.8 30 30 C20.1 30 10.2 30 0 30 C0 20.1 0 10.2 0 0 Z " fill="#000001" transform="translate(90,241)"/>
<path d="M0 0 C9.9 0 19.8 0 30 0 C30 9.9 30 19.8 30 30 C20.1 30 10.2 30 0 30 C0 20.1 0 10.2 0 0 Z " fill="#54469C" transform="translate(241,211)"/>
<path d="M0 0 C9.9 0 19.8 0 30 0 C30 9.9 30 19.8 30 30 C20.1 30 10.2 30 0 30 C0 20.1 0 10.2 0 0 Z " fill="#55479C" transform="translate(241,151)"/>
<path d="M0 0 C9.9 0 19.8 0 30 0 C30 9.9 30 19.8 30 30 C20.1 30 10.2 30 0 30 C0 20.1 0 10.2 0 0 Z " fill="#020203" transform="translate(241,60)"/>
<path d="M0 0 C9.9 0 19.8 0 30 0 C30 9.9 30 19.8 30 30 C20.1 30 10.2 30 0 30 C0 20.1 0 10.2 0 0 Z " fill="#000000" transform="translate(332,30)"/>
<path d="M0 0 C9.9 0 19.8 0 30 0 C30 9.9 30 19.8 30 30 C20.1 30 10.2 30 0 30 C0 20.1 0 10.2 0 0 Z " fill="#000000" transform="translate(150,30)"/>
<path d="M0 0 C9.9 0 19.8 0 30 0 C30 9.57 30 19.14 30 29 C20.1 29 10.2 29 0 29 C0 19.43 0 9.86 0 0 Z " fill="#6D66D4" transform="translate(301,392)"/>
<path d="M0 0 C9.9 0 19.8 0 30 0 C30 9.57 30 19.14 30 29 C20.1 29 10.2 29 0 29 C0 19.43 0 9.86 0 0 Z " fill="#000000" transform="translate(271,392)"/>
<path d="M0 0 C9.57 0 19.14 0 29 0 C29 9.9 29 19.8 29 30 C19.43 30 9.86 30 0 30 C0 20.1 0 10.2 0 0 Z " fill="#000000" transform="translate(422,271)"/>
<path d="M0 0 C9.57 0 19.14 0 29 0 C29 9.9 29 19.8 29 30 C19.43 30 9.86 30 0 30 C0 20.1 0 10.2 0 0 Z " fill="#000000" transform="translate(392,241)"/>
<path d="M0 0 C9.9 0 19.8 0 30 0 C30 9.57 30 19.14 30 29 C20.1 29 10.2 29 0 29 C0 19.43 0 9.86 0 0 Z " fill="#000000" transform="translate(271,91)"/>
<path d="M0 0 C9.9 0 19.8 0 30 0 C30 9.57 30 19.14 30 29 C20.1 29 10.2 29 0 29 C0 19.43 0 9.86 0 0 Z " fill="#000000" transform="translate(211,91)"/>
<path d="M0 0 C9.57 0 19.14 0 29 0 C29 9.57 29 19.14 29 29 C19.43 29 9.86 29 0 29 C0 19.43 0 9.86 0 0 Z " fill="#000000" transform="translate(181,422)"/>
<path d="M0 0 C9.57 0 19.14 0 29 0 C29 9.57 29 19.14 29 29 C19.43 29 9.86 29 0 29 C0 19.43 0 9.86 0 0 Z " fill="#000000" transform="translate(332,392)"/>
<path d="M0 0 C9.57 0 19.14 0 29 0 C29 9.57 29 19.14 29 29 C19.43 29 9.86 29 0 29 C0 19.43 0 9.86 0 0 Z " fill="#6E67D5" transform="translate(181,392)"/>
<path d="M0 0 C9.57 0 19.14 0 29 0 C29 9.57 29 19.14 29 29 C19.43 29 9.86 29 0 29 C0 19.43 0 9.86 0 0 Z " fill="#000000" transform="translate(151,392)"/>
<path d="M0 0 C9.57 0 19.14 0 29 0 C29 9.57 29 19.14 29 29 C19.43 29 9.86 29 0 29 C0 19.43 0 9.86 0 0 Z " fill="#000000" transform="translate(392,302)"/>
<path d="M0 0 C9.57 0 19.14 0 29 0 C29 9.57 29 19.14 29 29 C19.43 29 9.86 29 0 29 C0 19.43 0 9.86 0 0 Z " fill="#000000" transform="translate(91,302)"/>
<path d="M0 0 C9.57 0 19.14 0 29 0 C29 9.57 29 19.14 29 29 C19.43 29 9.86 29 0 29 C0 19.43 0 9.86 0 0 Z " fill="#000000" transform="translate(302,61)"/>
<path d="M0 0 C9.57 0 19.14 0 29 0 C29 9.57 29 19.14 29 29 C19.43 29 9.86 29 0 29 C0 19.43 0 9.86 0 0 Z " fill="#000000" transform="translate(181,61)"/>
<path d="M0 0 C0.33 0 0.66 0 1 0 C1 39.6 1 79.2 1 120 C20.47 120 39.94 120 60 120 C60 100.2 60 80.4 60 60 C69.9 60 79.8 60 90 60 C90 50.1 90 40.2 90 30 C100.23 30 110.46 30 121 30 C121 40.23 121 50.46 121 61 C111.1 61 101.2 61 91 61 C91 80.8 91 100.6 91 121 C81.1 121 71.2 121 61 121 C61 130.9 61 140.8 61 151 C30.97 151 0.94 151 -30 151 C-30 150.67 -30 150.34 -30 150 C-10.2 150 9.6 150 30 150 C30 140.43 30 130.86 30 121 C20.1 121 10.2 121 0 121 C0 81.07 0 41.14 0 0 Z M91 31 C91 40.57 91 50.14 91 60 C100.57 60 110.14 60 120 60 C120 50.43 120 40.86 120 31 C110.43 31 100.86 31 91 31 Z M61 61 C61 80.47 61 99.94 61 120 C70.57 120 80.14 120 90 120 C90 100.53 90 81.06 90 61 C80.43 61 70.86 61 61 61 Z M31 121 C31 130.57 31 140.14 31 150 C40.57 150 50.14 150 60 150 C60 140.43 60 130.86 60 121 C50.43 121 40.86 121 31 121 Z " fill="#323052" transform="translate(301,271)"/>
<path d="M0 0 C10.23 0 20.46 0 31 0 C31 9.9 31 19.8 31 30 C40.9 30 50.8 30 61 30 C61 59.7 61 89.4 61 120 C70.57 120 80.14 120 90 120 C90 110.43 90 100.86 90 91 C90.33 91 90.66 91 91 91 C91 110.47 91 129.94 91 150 C100.57 150 110.14 150 120 150 C120 140.43 120 130.86 120 121 C120.33 121 120.66 121 121 121 C121 130.9 121 140.8 121 151 C110.77 151 100.54 151 90 151 C90 141.1 90 131.2 90 121 C80.1 121 70.2 121 60 121 C60 111.1 60 101.2 60 91 C50.1 91 40.2 91 30 91 C30 71.2 30 51.4 30 31 C20.1 31 10.2 31 0 31 C0 20.77 0 10.54 0 0 Z M1 1 C1 10.57 1 20.14 1 30 C10.57 30 20.14 30 30 30 C30 20.43 30 10.86 30 1 C20.43 1 10.86 1 1 1 Z M31 31 C31 50.47 31 69.94 31 90 C40.57 90 50.14 90 60 90 C60 70.53 60 51.06 60 31 C50.43 31 40.86 31 31 31 Z " fill="#27224A" transform="translate(90,301)"/>
<path d="M0 0 C10.23 0 20.46 0 31 0 C31 10.23 31 20.46 31 31 C21.1 31 11.2 31 1 31 C1 50.8 1 70.6 1 91 C-8.9 91 -18.8 91 -29 91 C-29 90.67 -29 90.34 -29 90 C-19.43 90 -9.86 90 0 90 C0 70.53 0 51.06 0 31 C-9.57 31 -19.14 31 -29 31 C-29 30.67 -29 30.34 -29 30 C-19.43 30 -9.86 30 0 30 C0 20.1 0 10.2 0 0 Z M1 1 C1 10.57 1 20.14 1 30 C10.57 30 20.14 30 30 30 C30 20.43 30 10.86 30 1 C20.43 1 10.86 1 1 1 Z " fill="#28234C" transform="translate(391,301)"/>
</svg>
