<svg width="52" height="50" viewBox="0 0 52 50" fill="none" shape-rendering="crispEdges" xmlns="http://www.w3.org/2000/svg">
<g clip-path="url(#clip0_16309_30490)">
<path d="M15.8263 0H13.5654V2.27273H15.8263V0Z" fill="#AD8C14"/>
<path d="M18.087 0H15.8262V2.27273H18.087V0Z" fill="#AD8C14"/>
<path d="M20.3478 0H18.0869V2.27273H20.3478V0Z" fill="#AD8C14"/>
<path d="M22.6085 0H20.3477V2.27273H22.6085V0Z" fill="#AD8C14"/>
<path d="M24.8698 0H22.6089V2.27273H24.8698V0Z" fill="#AD8C14"/>
<path d="M27.1305 0H24.8696V2.27273H27.1305V0Z" fill="#AD8C14"/>
<path d="M29.3912 0H27.1304V2.27273H29.3912V0Z" fill="#AD8C14"/>
<path d="M31.652 0H29.3911V2.27273H31.652V0Z" fill="#AD8C14"/>
<path d="M33.9132 0H31.6523V2.27273H33.9132V0Z" fill="#AD8C14"/>
<path d="M36.174 0H33.9131V2.27273H36.174V0Z" fill="#AD8C14"/>
<path d="M9.04358 2.27274H6.78271V4.54546H9.04358V2.27274Z" fill="#AD8C14"/>
<path d="M11.3043 2.27274H9.04346V4.54546H11.3043V2.27274Z" fill="#AD8C14"/>
<path d="M13.5651 2.27274H11.3042V4.54546H13.5651V2.27274Z" fill="#AD8C14"/>
<path d="M15.8263 2.27274H13.5654V4.54546H15.8263V2.27274Z" fill="#AD8C14"/>
<path d="M18.087 2.27274H15.8262V4.54546H18.087V2.27274Z" fill="#F6D14B"/>
<path d="M20.3478 2.27274H18.0869V4.54546H20.3478V2.27274Z" fill="#F6D14B"/>
<path d="M22.6085 2.27274H20.3477V4.54546H22.6085V2.27274Z" fill="#F6D14B"/>
<path d="M24.8698 2.27274H22.6089V4.54546H24.8698V2.27274Z" fill="#F6D14B"/>
<path d="M27.1305 2.27274H24.8696V4.54546H27.1305V2.27274Z" fill="#F6D14B"/>
<path d="M29.3912 2.27274H27.1304V4.54546H29.3912V2.27274Z" fill="#F6D14B"/>
<path d="M31.652 2.27274H29.3911V4.54546H31.652V2.27274Z" fill="#F6D14B"/>
<path d="M33.9132 2.27274H31.6523V4.54546H33.9132V2.27274Z" fill="#F6D14B"/>
<path d="M36.174 2.27274H33.9131V4.54546H36.174V2.27274Z" fill="#AD8C14"/>
<path d="M38.4347 2.27274H36.1738V4.54546H38.4347V2.27274Z" fill="#AD8C14"/>
<path d="M40.6954 2.27274H38.4346V4.54546H40.6954V2.27274Z" fill="#AD8C14"/>
<path d="M42.9567 2.27274H40.6958V4.54546H42.9567V2.27274Z" fill="#AD8C14"/>
<path d="M9.04358 4.54544H6.78271V6.81817H9.04358V4.54544Z" fill="#AD8C14"/>
<path d="M11.3043 4.54544H9.04346V6.81817H11.3043V4.54544Z" fill="#F6D14B"/>
<path d="M13.5651 4.54544H11.3042V6.81817H13.5651V4.54544Z" fill="#F6D14B"/>
<path d="M15.8263 4.54544H13.5654V6.81817H15.8263V4.54544Z" fill="#F6D14B"/>
<path d="M18.087 4.54544H15.8262V6.81817H18.087V4.54544Z" fill="#F6D14B"/>
<path d="M20.3478 4.54544H18.0869V6.81817H20.3478V4.54544Z" fill="#F6D14B"/>
<path d="M22.6085 4.54544H20.3477V6.81817H22.6085V4.54544Z" fill="#F6D14B"/>
<path d="M24.8698 4.54544H22.6089V6.81817H24.8698V4.54544Z" fill="#F6D14B"/>
<path d="M27.1305 4.54544H24.8696V6.81817H27.1305V4.54544Z" fill="#F6D14B"/>
<path d="M29.3912 4.54544H27.1304V6.81817H29.3912V4.54544Z" fill="#F6D14B"/>
<path d="M31.652 4.54544H29.3911V6.81817H31.652V4.54544Z" fill="#F6D14B"/>
<path d="M33.9132 4.54544H31.6523V6.81817H33.9132V4.54544Z" fill="#F6D14B"/>
<path d="M36.174 4.54544H33.9131V6.81817H36.174V4.54544Z" fill="#F6D14B"/>
<path d="M38.4347 4.54544H36.1738V6.81817H38.4347V4.54544Z" fill="#F6D14B"/>
<path d="M40.6954 4.54544H38.4346V6.81817H40.6954V4.54544Z" fill="#F6D14B"/>
<path d="M42.9567 4.54544H40.6958V6.81817H42.9567V4.54544Z" fill="#AD8C14"/>
<path d="M4.52161 6.81818H2.26074V9.0909H4.52161V6.81818Z" fill="#AD8C14"/>
<path d="M6.78284 6.81818H4.52197V9.0909H6.78284V6.81818Z" fill="#AD8C14"/>
<path d="M9.04358 6.81818H6.78271V9.0909H9.04358V6.81818Z" fill="#AD8C14"/>
<path d="M11.3043 6.81818H9.04346V9.0909H11.3043V6.81818Z" fill="#F6D14B"/>
<path d="M13.5651 6.81818H11.3042V9.0909H13.5651V6.81818Z" fill="#F6D14B"/>
<path d="M15.8263 6.81818H13.5654V9.0909H15.8263V6.81818Z" fill="#F6D14B"/>
<path d="M18.087 6.81818H15.8262V9.0909H18.087V6.81818Z" fill="#F6D14B"/>
<path d="M20.3478 6.81818H18.0869V9.0909H20.3478V6.81818Z" fill="#F6D14B"/>
<path d="M22.6085 6.81818H20.3477V9.0909H22.6085V6.81818Z" fill="#F6D14B"/>
<path d="M24.8698 6.81818H22.6089V9.0909H24.8698V6.81818Z" fill="#AD8C14"/>
<path d="M27.1305 6.81818H24.8696V9.0909H27.1305V6.81818Z" fill="#AD8C14"/>
<path d="M29.3912 6.81818H27.1304V9.0909H29.3912V6.81818Z" fill="#F6D14B"/>
<path d="M31.652 6.81818H29.3911V9.0909H31.652V6.81818Z" fill="#F6D14B"/>
<path d="M33.9132 6.81818H31.6523V9.0909H33.9132V6.81818Z" fill="#F6D14B"/>
<path d="M36.174 6.81818H33.9131V9.0909H36.174V6.81818Z" fill="#F6D14B"/>
<path d="M38.4347 6.81818H36.1738V9.0909H38.4347V6.81818Z" fill="#F6D14B"/>
<path d="M40.6954 6.81818H38.4346V9.0909H40.6954V6.81818Z" fill="#F6D14B"/>
<path d="M42.9567 6.81818H40.6958V9.0909H42.9567V6.81818Z" fill="#AD8C14"/>
<path d="M45.2174 6.81818H42.9565V9.0909H45.2174V6.81818Z" fill="#AD8C14"/>
<path d="M47.4782 6.81818H45.2173V9.0909H47.4782V6.81818Z" fill="#AD8C14"/>
<path d="M4.52161 9.09091H2.26074V11.3636H4.52161V9.09091Z" fill="#AD8C14"/>
<path d="M6.78284 9.09091H4.52197V11.3636H6.78284V9.09091Z" fill="#F6D14B"/>
<path d="M9.04358 9.09091H6.78271V11.3636H9.04358V9.09091Z" fill="#F6D14B"/>
<path d="M11.3043 9.09091H9.04346V11.3636H11.3043V9.09091Z" fill="#F6D14B"/>
<path d="M13.5651 9.09091H11.3042V11.3636H13.5651V9.09091Z" fill="#F1E58F"/>
<path d="M15.8263 9.09091H13.5654V11.3636H15.8263V9.09091Z" fill="#AD8C14"/>
<path d="M18.087 9.09091H15.8262V11.3636H18.087V9.09091Z" fill="#AD8C14"/>
<path d="M20.3478 9.09091H18.0869V11.3636H20.3478V9.09091Z" fill="#F6D14B"/>
<path d="M22.6085 9.09091H20.3477V11.3636H22.6085V9.09091Z" fill="#F1E58F"/>
<path d="M24.8698 9.09091H22.6089V11.3636H24.8698V9.09091Z" fill="#AD8C14"/>
<path d="M27.1305 9.09091H24.8696V11.3636H27.1305V9.09091Z" fill="#AD8C14"/>
<path d="M29.3912 9.09091H27.1304V11.3636H29.3912V9.09091Z" fill="#F6D14B"/>
<path d="M31.652 9.09091H29.3911V11.3636H31.652V9.09091Z" fill="#F1E58F"/>
<path d="M33.9132 9.09091H31.6523V11.3636H33.9132V9.09091Z" fill="#AD8C14"/>
<path d="M36.174 9.09091H33.9131V11.3636H36.174V9.09091Z" fill="#F6D14B"/>
<path d="M38.4347 9.09091H36.1738V11.3636H38.4347V9.09091Z" fill="#F6D14B"/>
<path d="M40.6954 9.09091H38.4346V11.3636H40.6954V9.09091Z" fill="#F6D14B"/>
<path d="M42.9567 9.09091H40.6958V11.3636H42.9567V9.09091Z" fill="#F6D14B"/>
<path d="M45.2174 9.09091H42.9565V11.3636H45.2174V9.09091Z" fill="#F6D14B"/>
<path d="M47.4782 9.09091H45.2173V11.3636H47.4782V9.09091Z" fill="#AD8C14"/>
<path d="M4.52161 11.3636H2.26074V13.6364H4.52161V11.3636Z" fill="#AD8C14"/>
<path d="M6.78284 11.3636H4.52197V13.6364H6.78284V11.3636Z" fill="#F1E58F"/>
<path d="M9.04358 11.3636H6.78271V13.6364H9.04358V11.3636Z" fill="#F1E58F"/>
<path d="M11.3043 11.3636H9.04346V13.6364H11.3043V11.3636Z" fill="#F6D14B"/>
<path d="M13.5651 11.3636H11.3042V13.6364H13.5651V11.3636Z" fill="#F6D14B"/>
<path d="M15.8263 11.3636H13.5654V13.6364H15.8263V11.3636Z" fill="#AD8C14"/>
<path d="M18.087 11.3636H15.8262V13.6364H18.087V11.3636Z" fill="#AD8C14"/>
<path d="M20.3478 11.3636H18.0869V13.6364H20.3478V11.3636Z" fill="#F6D14B"/>
<path d="M22.6085 11.3636H20.3477V13.6364H22.6085V11.3636Z" fill="#F6D14B"/>
<path d="M24.8698 11.3636H22.6089V13.6364H24.8698V11.3636Z" fill="#AD8C14"/>
<path d="M27.1305 11.3636H24.8696V13.6364H27.1305V11.3636Z" fill="#AD8C14"/>
<path d="M29.3912 11.3636H27.1304V13.6364H29.3912V11.3636Z" fill="#F6D14B"/>
<path d="M31.652 11.3636H29.3911V13.6364H31.652V11.3636Z" fill="#AD8C14"/>
<path d="M33.9132 11.3636H31.6523V13.6364H33.9132V11.3636Z" fill="#AD8C14"/>
<path d="M36.174 11.3636H33.9131V13.6364H36.174V11.3636Z" fill="#AD8C14"/>
<path d="M38.4347 11.3636H36.1738V13.6364H38.4347V11.3636Z" fill="#F6D14B"/>
<path d="M40.6954 11.3636H38.4346V13.6364H40.6954V11.3636Z" fill="#F6D14B"/>
<path d="M42.9567 11.3636H40.6958V13.6364H42.9567V11.3636Z" fill="#F6D14B"/>
<path d="M45.2174 11.3636H42.9565V13.6364H45.2174V11.3636Z" fill="#F6D14B"/>
<path d="M47.4782 11.3636H45.2173V13.6364H47.4782V11.3636Z" fill="#AD8C14"/>
<path d="M49.7389 11.3636H47.478V13.6364H49.7389V11.3636Z" fill="#AD8C14"/>
<path d="M2.26087 13.6364H0V15.9091H2.26087V13.6364Z" fill="#AD8C14"/>
<path d="M4.52161 13.6364H2.26074V15.9091H4.52161V13.6364Z" fill="#AD8C14"/>
<path d="M6.78284 13.6364H4.52197V15.9091H6.78284V13.6364Z" fill="#F1E58F"/>
<path d="M9.04358 13.6364H6.78271V15.9091H9.04358V13.6364Z" fill="#AD8C14"/>
<path d="M11.3043 13.6364H9.04346V15.9091H11.3043V13.6364Z" fill="#AD8C14"/>
<path d="M13.5651 13.6364H11.3042V15.9091H13.5651V13.6364Z" fill="#F6D14B"/>
<path d="M15.8263 13.6364H13.5654V15.9091H15.8263V13.6364Z" fill="#F6D14B"/>
<path d="M18.087 13.6364H15.8262V15.9091H18.087V13.6364Z" fill="#AD8C14"/>
<path d="M20.3478 13.6364H18.0869V15.9091H20.3478V13.6364Z" fill="#F6D14B"/>
<path d="M22.6085 13.6364H20.3477V15.9091H22.6085V13.6364Z" fill="#F6D14B"/>
<path d="M24.8698 13.6364H22.6089V15.9091H24.8698V13.6364Z" fill="#AD8C14"/>
<path d="M27.1305 13.6364H24.8696V15.9091H27.1305V13.6364Z" fill="#AD8C14"/>
<path d="M29.3912 13.6364H27.1304V15.9091H29.3912V13.6364Z" fill="#F6D14B"/>
<path d="M31.652 13.6364H29.3911V15.9091H31.652V13.6364Z" fill="#AD8C14"/>
<path d="M33.9132 13.6364H31.6523V15.9091H33.9132V13.6364Z" fill="#AD8C14"/>
<path d="M36.174 13.6364H33.9131V15.9091H36.174V13.6364Z" fill="#F6D14B"/>
<path d="M38.4347 13.6364H36.1738V15.9091H38.4347V13.6364Z" fill="#F6D14B"/>
<path d="M40.6954 13.6364H38.4346V15.9091H40.6954V13.6364Z" fill="#F6D14B"/>
<path d="M42.9567 13.6364H40.6958V15.9091H42.9567V13.6364Z" fill="#F6D14B"/>
<path d="M45.2174 13.6364H42.9565V15.9091H45.2174V13.6364Z" fill="#F6D14B"/>
<path d="M47.4782 13.6364H45.2173V15.9091H47.4782V13.6364Z" fill="#F6D14B"/>
<path d="M49.7389 13.6364H47.478V15.9091H49.7389V13.6364Z" fill="#AD8C14"/>
<path d="M52.0001 13.6364H49.7393V15.9091H52.0001V13.6364Z" fill="#AD8C14"/>
<path d="M2.26087 15.9091H0V18.1818H2.26087V15.9091Z" fill="#AD8C14"/>
<path d="M4.52161 15.9091H2.26074V18.1818H4.52161V15.9091Z" fill="#F6D14B"/>
<path d="M6.78284 15.9091H4.52197V18.1818H6.78284V15.9091Z" fill="#F6D14B"/>
<path d="M9.04358 15.9091H6.78271V18.1818H9.04358V15.9091Z" fill="#AD8C14"/>
<path d="M11.3043 15.9091H9.04346V18.1818H11.3043V15.9091Z" fill="#AD8C14"/>
<path d="M13.5651 15.9091H11.3042V18.1818H13.5651V15.9091Z" fill="#AD8C14"/>
<path d="M15.8263 15.9091H13.5654V18.1818H15.8263V15.9091Z" fill="#F6D14B"/>
<path d="M18.087 15.9091H15.8262V18.1818H18.087V15.9091Z" fill="#AD8C14"/>
<path d="M20.3478 15.9091H18.0869V18.1818H20.3478V15.9091Z" fill="#AD8C14"/>
<path d="M22.6085 15.9091H20.3477V18.1818H22.6085V15.9091Z" fill="#F6D14B"/>
<path d="M24.8698 15.9091H22.6089V18.1818H24.8698V15.9091Z" fill="#AD8C14"/>
<path d="M27.1305 15.9091H24.8696V18.1818H27.1305V15.9091Z" fill="#F6D14B"/>
<path d="M29.3912 15.9091H27.1304V18.1818H29.3912V15.9091Z" fill="#F6D14B"/>
<path d="M31.652 15.9091H29.3911V18.1818H31.652V15.9091Z" fill="#AD8C14"/>
<path d="M33.9132 15.9091H31.6523V18.1818H33.9132V15.9091Z" fill="#AD8C14"/>
<path d="M36.174 15.9091H33.9131V18.1818H36.174V15.9091Z" fill="#F6D14B"/>
<path d="M38.4347 15.9091H36.1738V18.1818H38.4347V15.9091Z" fill="#F1E58F"/>
<path d="M40.6954 15.9091H38.4346V18.1818H40.6954V15.9091Z" fill="#AD8C14"/>
<path d="M42.9567 15.9091H40.6958V18.1818H42.9567V15.9091Z" fill="#F6D14B"/>
<path d="M45.2174 15.9091H42.9565V18.1818H45.2174V15.9091Z" fill="#F6D14B"/>
<path d="M47.4782 15.9091H45.2173V18.1818H47.4782V15.9091Z" fill="#F6D14B"/>
<path d="M49.7389 15.9091H47.478V18.1818H49.7389V15.9091Z" fill="#AD8C14"/>
<path d="M52.0001 15.9091H49.7393V18.1818H52.0001V15.9091Z" fill="#AD8C14"/>
<path d="M2.26087 18.1818H0V20.4546H2.26087V18.1818Z" fill="#AD8C14"/>
<path d="M4.52161 18.1818H2.26074V20.4546H4.52161V18.1818Z" fill="#F6D14B"/>
<path d="M6.78284 18.1818H4.52197V20.4546H6.78284V18.1818Z" fill="#F6D14B"/>
<path d="M9.04358 18.1818H6.78271V20.4546H9.04358V18.1818Z" fill="#F6D14B"/>
<path d="M11.3043 18.1818H9.04346V20.4546H11.3043V18.1818Z" fill="#AD8C14"/>
<path d="M13.5651 18.1818H11.3042V20.4546H13.5651V18.1818Z" fill="#AD8C14"/>
<path d="M15.8263 18.1818H13.5654V20.4546H15.8263V18.1818Z" fill="#F6D14B"/>
<path d="M18.087 18.1818H15.8262V20.4546H18.087V18.1818Z" fill="#F6D14B"/>
<path d="M20.3478 18.1818H18.0869V20.4546H20.3478V18.1818Z" fill="#AD8C14"/>
<path d="M22.6085 18.1818H20.3477V20.4546H22.6085V18.1818Z" fill="#F6D14B"/>
<path d="M24.8698 18.1818H22.6089V20.4546H24.8698V18.1818Z" fill="#AD8C14"/>
<path d="M27.1305 18.1818H24.8696V20.4546H27.1305V18.1818Z" fill="#F6D14B"/>
<path d="M29.3912 18.1818H27.1304V20.4546H29.3912V18.1818Z" fill="#F6D14B"/>
<path d="M31.652 18.1818H29.3911V20.4546H31.652V18.1818Z" fill="#AD8C14"/>
<path d="M33.9132 18.1818H31.6523V20.4546H33.9132V18.1818Z" fill="#F6D14B"/>
<path d="M36.174 18.1818H33.9131V20.4546H36.174V18.1818Z" fill="#F6D14B"/>
<path d="M38.4347 18.1818H36.1738V20.4546H38.4347V18.1818Z" fill="#AD8C14"/>
<path d="M40.6954 18.1818H38.4346V20.4546H40.6954V18.1818Z" fill="#AD8C14"/>
<path d="M42.9567 18.1818H40.6958V20.4546H42.9567V18.1818Z" fill="#AD8C14"/>
<path d="M45.2174 18.1818H42.9565V20.4546H45.2174V18.1818Z" fill="#F6D14B"/>
<path d="M47.4782 18.1818H45.2173V20.4546H47.4782V18.1818Z" fill="#F6D14B"/>
<path d="M49.7389 18.1818H47.478V20.4546H49.7389V18.1818Z" fill="#AD8C14"/>
<path d="M52.0001 18.1818H49.7393V20.4546H52.0001V18.1818Z" fill="#AD8C14"/>
<path d="M2.26087 20.4546H0V22.7273H2.26087V20.4546Z" fill="#AD8C14"/>
<path d="M4.52161 20.4546H2.26074V22.7273H4.52161V20.4546Z" fill="#F6D14B"/>
<path d="M6.78284 20.4546H4.52197V22.7273H6.78284V20.4546Z" fill="#F6D14B"/>
<path d="M9.04358 20.4546H6.78271V22.7273H9.04358V20.4546Z" fill="#F6D14B"/>
<path d="M11.3043 20.4546H9.04346V22.7273H11.3043V20.4546Z" fill="#F6D14B"/>
<path d="M13.5651 20.4546H11.3042V22.7273H13.5651V20.4546Z" fill="#AD8C14"/>
<path d="M15.8263 20.4546H13.5654V22.7273H15.8263V20.4546Z" fill="#AD8C14"/>
<path d="M18.087 20.4546H15.8262V22.7273H18.087V20.4546Z" fill="#F6D14B"/>
<path d="M20.3478 20.4546H18.0869V22.7273H20.3478V20.4546Z" fill="#AD8C14"/>
<path d="M22.6085 20.4546H20.3477V22.7273H22.6085V20.4546Z" fill="#F6D14B"/>
<path d="M24.8698 20.4546H22.6089V22.7273H24.8698V20.4546Z" fill="#AD8C14"/>
<path d="M27.1305 20.4546H24.8696V22.7273H27.1305V20.4546Z" fill="#F6D14B"/>
<path d="M29.3912 20.4546H27.1304V22.7273H29.3912V20.4546Z" fill="#AD8C14"/>
<path d="M31.652 20.4546H29.3911V22.7273H31.652V20.4546Z" fill="#F6D14B"/>
<path d="M33.9132 20.4546H31.6523V22.7273H33.9132V20.4546Z" fill="#F6D14B"/>
<path d="M36.174 20.4546H33.9131V22.7273H36.174V20.4546Z" fill="#AD8C14"/>
<path d="M38.4347 20.4546H36.1738V22.7273H38.4347V20.4546Z" fill="#AD8C14"/>
<path d="M40.6954 20.4546H38.4346V22.7273H40.6954V20.4546Z" fill="#AD8C14"/>
<path d="M42.9567 20.4546H40.6958V22.7273H42.9567V20.4546Z" fill="#F6D14B"/>
<path d="M45.2174 20.4546H42.9565V22.7273H45.2174V20.4546Z" fill="#F6D14B"/>
<path d="M47.4782 20.4546H45.2173V22.7273H47.4782V20.4546Z" fill="#F6D14B"/>
<path d="M49.7389 20.4546H47.478V22.7273H49.7389V20.4546Z" fill="#AD8C14"/>
<path d="M52.0001 20.4546H49.7393V22.7273H52.0001V20.4546Z" fill="#AD8C14"/>
<path d="M2.26087 22.7273H0V25H2.26087V22.7273Z" fill="#AD8C14"/>
<path d="M4.52161 22.7273H2.26074V25H4.52161V22.7273Z" fill="#F6D14B"/>
<path d="M6.78284 22.7273H4.52197V25H6.78284V22.7273Z" fill="#F6D14B"/>
<path d="M9.04358 22.7273H6.78271V25H9.04358V22.7273Z" fill="#F6D14B"/>
<path d="M11.3043 22.7273H9.04346V25H11.3043V22.7273Z" fill="#F6D14B"/>
<path d="M13.5651 22.7273H11.3042V25H13.5651V22.7273Z" fill="#F6D14B"/>
<path d="M15.8263 22.7273H13.5654V25H15.8263V22.7273Z" fill="#F6D14B"/>
<path d="M18.087 22.7273H15.8262V25H18.087V22.7273Z" fill="#F6D14B"/>
<path d="M20.3478 22.7273H18.0869V25H20.3478V22.7273Z" fill="#F6D14B"/>
<path d="M22.6085 22.7273H20.3477V25H22.6085V22.7273Z" fill="#F6D14B"/>
<path d="M24.8698 22.7273H22.6089V25H24.8698V22.7273Z" fill="#F6D14B"/>
<path d="M27.1305 22.7273H24.8696V25H27.1305V22.7273Z" fill="#F6D14B"/>
<path d="M29.3912 22.7273H27.1304V25H29.3912V22.7273Z" fill="#F6D14B"/>
<path d="M31.652 22.7273H29.3911V25H31.652V22.7273Z" fill="#F6D14B"/>
<path d="M33.9132 22.7273H31.6523V25H33.9132V22.7273Z" fill="#AD8C14"/>
<path d="M36.174 22.7273H33.9131V25H36.174V22.7273Z" fill="#AD8C14"/>
<path d="M38.4347 22.7273H36.1738V25H38.4347V22.7273Z" fill="#AD8C14"/>
<path d="M40.6954 22.7273H38.4346V25H40.6954V22.7273Z" fill="#F6D14B"/>
<path d="M42.9567 22.7273H40.6958V25H42.9567V22.7273Z" fill="#F6D14B"/>
<path d="M45.2174 22.7273H42.9565V25H45.2174V22.7273Z" fill="#F6D14B"/>
<path d="M47.4782 22.7273H45.2173V25H47.4782V22.7273Z" fill="#F6D14B"/>
<path d="M49.7389 22.7273H47.478V25H49.7389V22.7273Z" fill="#AD8C14"/>
<path d="M52.0001 22.7273H49.7393V25H52.0001V22.7273Z" fill="#AD8C14"/>
<path d="M2.26087 25H0V27.2727H2.26087V25Z" fill="#AD8C14"/>
<path d="M4.52161 25H2.26074V27.2727H4.52161V25Z" fill="#F6D14B"/>
<path d="M6.78284 25H4.52197V27.2727H6.78284V25Z" fill="#F6D14B"/>
<path d="M9.04358 25H6.78271V27.2727H9.04358V25Z" fill="#F6D14B"/>
<path d="M11.3043 25H9.04346V27.2727H11.3043V25Z" fill="#F6D14B"/>
<path d="M13.5651 25H11.3042V27.2727H13.5651V25Z" fill="#F6D14B"/>
<path d="M15.8263 25H13.5654V27.2727H15.8263V25Z" fill="#F6D14B"/>
<path d="M18.087 25H15.8262V27.2727H18.087V25Z" fill="#AD8C14"/>
<path d="M20.3478 25H18.0869V27.2727H20.3478V25Z" fill="#F1E58F"/>
<path d="M22.6085 25H20.3477V27.2727H22.6085V25Z" fill="#F1E58F"/>
<path d="M24.8698 25H22.6089V27.2727H24.8698V25Z" fill="#AD8C14"/>
<path d="M27.1305 25H24.8696V27.2727H27.1305V25Z" fill="#AD8C14"/>
<path d="M29.3912 25H27.1304V27.2727H29.3912V25Z" fill="#F1E58F"/>
<path d="M31.652 25H29.3911V27.2727H31.652V25Z" fill="#F6D14B"/>
<path d="M33.9132 25H31.6523V27.2727H33.9132V25Z" fill="#F6D14B"/>
<path d="M36.174 25H33.9131V27.2727H36.174V25Z" fill="#F6D14B"/>
<path d="M38.4347 25H36.1738V27.2727H38.4347V25Z" fill="#F6D14B"/>
<path d="M40.6954 25H38.4346V27.2727H40.6954V25Z" fill="#F6D14B"/>
<path d="M42.9567 25H40.6958V27.2727H42.9567V25Z" fill="#F1E58F"/>
<path d="M45.2174 25H42.9565V27.2727H45.2174V25Z" fill="#F6D14B"/>
<path d="M47.4782 25H45.2173V27.2727H47.4782V25Z" fill="#F6D14B"/>
<path d="M49.7389 25H47.478V27.2727H49.7389V25Z" fill="#AD8C14"/>
<path d="M52.0001 25H49.7393V27.2727H52.0001V25Z" fill="#AD8C14"/>
<path d="M2.26087 27.2727H0V29.5455H2.26087V27.2727Z" fill="#AD8C14"/>
<path d="M4.52161 27.2727H2.26074V29.5455H4.52161V27.2727Z" fill="#F6D14B"/>
<path d="M6.78284 27.2727H4.52197V29.5455H6.78284V27.2727Z" fill="#F6D14B"/>
<path d="M9.04358 27.2727H6.78271V29.5455H9.04358V27.2727Z" fill="#F6D14B"/>
<path d="M11.3043 27.2727H9.04346V29.5455H11.3043V27.2727Z" fill="#F6D14B"/>
<path d="M13.5651 27.2727H11.3042V29.5455H13.5651V27.2727Z" fill="#F6D14B"/>
<path d="M15.8263 27.2727H13.5654V29.5455H15.8263V27.2727Z" fill="#F1E58F"/>
<path d="M18.087 27.2727H15.8262V29.5455H18.087V27.2727Z" fill="#AD8C14"/>
<path d="M20.3478 27.2727H18.0869V29.5455H20.3478V27.2727Z" fill="#F1E58F"/>
<path d="M22.6085 27.2727H20.3477V29.5455H22.6085V27.2727Z" fill="#F1E58F"/>
<path d="M24.8698 27.2727H22.6089V29.5455H24.8698V27.2727Z" fill="#AD8C14"/>
<path d="M27.1305 27.2727H24.8696V29.5455H27.1305V27.2727Z" fill="#AD8C14"/>
<path d="M29.3912 27.2727H27.1304V29.5455H29.3912V27.2727Z" fill="#F1E58F"/>
<path d="M31.652 27.2727H29.3911V29.5455H31.652V27.2727Z" fill="#F6D14B"/>
<path d="M33.9132 27.2727H31.6523V29.5455H33.9132V27.2727Z" fill="#F6D14B"/>
<path d="M36.174 27.2727H33.9131V29.5455H36.174V27.2727Z" fill="#AD8C14"/>
<path d="M38.4347 27.2727H36.1738V29.5455H38.4347V27.2727Z" fill="#AD8C14"/>
<path d="M40.6954 27.2727H38.4346V29.5455H40.6954V27.2727Z" fill="#AD8C14"/>
<path d="M42.9567 27.2727H40.6958V29.5455H42.9567V27.2727Z" fill="#AD8C14"/>
<path d="M45.2174 27.2727H42.9565V29.5455H45.2174V27.2727Z" fill="#AD8C14"/>
<path d="M47.4782 27.2727H45.2173V29.5455H47.4782V27.2727Z" fill="#F6D14B"/>
<path d="M49.7389 27.2727H47.478V29.5455H49.7389V27.2727Z" fill="#AD8C14"/>
<path d="M52.0001 27.2727H49.7393V29.5455H52.0001V27.2727Z" fill="#AD8C14"/>
<path d="M2.26087 29.5454H0V31.8182H2.26087V29.5454Z" fill="#AD8C14"/>
<path d="M4.52161 29.5454H2.26074V31.8182H4.52161V29.5454Z" fill="#F6D14B"/>
<path d="M6.78284 29.5454H4.52197V31.8182H6.78284V29.5454Z" fill="#F6D14B"/>
<path d="M9.04358 29.5454H6.78271V31.8182H9.04358V29.5454Z" fill="#F6D14B"/>
<path d="M11.3043 29.5454H9.04346V31.8182H11.3043V29.5454Z" fill="#F6D14B"/>
<path d="M13.5651 29.5454H11.3042V31.8182H13.5651V29.5454Z" fill="#F6D14B"/>
<path d="M15.8263 29.5454H13.5654V31.8182H15.8263V29.5454Z" fill="#F1E58F"/>
<path d="M18.087 29.5454H15.8262V31.8182H18.087V29.5454Z" fill="#AD8C14"/>
<path d="M20.3478 29.5454H18.0869V31.8182H20.3478V29.5454Z" fill="#AD8C14"/>
<path d="M22.6085 29.5454H20.3477V31.8182H22.6085V29.5454Z" fill="#AD8C14"/>
<path d="M24.8698 29.5454H22.6089V31.8182H24.8698V29.5454Z" fill="#AD8C14"/>
<path d="M27.1305 29.5454H24.8696V31.8182H27.1305V29.5454Z" fill="#AD8C14"/>
<path d="M29.3912 29.5454H27.1304V31.8182H29.3912V29.5454Z" fill="#AD8C14"/>
<path d="M31.652 29.5454H29.3911V31.8182H31.652V29.5454Z" fill="#F6D14B"/>
<path d="M33.9132 29.5454H31.6523V31.8182H33.9132V29.5454Z" fill="#AD8C14"/>
<path d="M36.174 29.5454H33.9131V31.8182H36.174V29.5454Z" fill="#AD8C14"/>
<path d="M38.4347 29.5454H36.1738V31.8182H38.4347V29.5454Z" fill="#AD8C14"/>
<path d="M40.6954 29.5454H38.4346V31.8182H40.6954V29.5454Z" fill="#AD8C14"/>
<path d="M42.9567 29.5454H40.6958V31.8182H42.9567V29.5454Z" fill="#AD8C14"/>
<path d="M45.2174 29.5454H42.9565V31.8182H45.2174V29.5454Z" fill="#AD8C14"/>
<path d="M47.4782 29.5454H45.2173V31.8182H47.4782V29.5454Z" fill="#F6D14B"/>
<path d="M49.7389 29.5454H47.478V31.8182H49.7389V29.5454Z" fill="#AD8C14"/>
<path d="M52.0001 29.5454H49.7393V31.8182H52.0001V29.5454Z" fill="#AD8C14"/>
<path d="M2.26087 31.8182H0V34.0909H2.26087V31.8182Z" fill="#AD8C14"/>
<path d="M4.52161 31.8182H2.26074V34.0909H4.52161V31.8182Z" fill="#AD8C14"/>
<path d="M6.78284 31.8182H4.52197V34.0909H6.78284V31.8182Z" fill="#F6D14B"/>
<path d="M9.04358 31.8182H6.78271V34.0909H9.04358V31.8182Z" fill="#F6D14B"/>
<path d="M11.3043 31.8182H9.04346V34.0909H11.3043V31.8182Z" fill="#F6D14B"/>
<path d="M13.5651 31.8182H11.3042V34.0909H13.5651V31.8182Z" fill="#F6D14B"/>
<path d="M15.8263 31.8182H13.5654V34.0909H15.8263V31.8182Z" fill="#F6D14B"/>
<path d="M18.087 31.8182H15.8262V34.0909H18.087V31.8182Z" fill="#AD8C14"/>
<path d="M20.3478 31.8182H18.0869V34.0909H20.3478V31.8182Z" fill="#AD8C14"/>
<path d="M22.6085 31.8182H20.3477V34.0909H22.6085V31.8182Z" fill="#AD8C14"/>
<path d="M24.8698 31.8182H22.6089V34.0909H24.8698V31.8182Z" fill="#AD8C14"/>
<path d="M27.1305 31.8182H24.8696V34.0909H27.1305V31.8182Z" fill="#AD8C14"/>
<path d="M29.3912 31.8182H27.1304V34.0909H29.3912V31.8182Z" fill="#F1E58F"/>
<path d="M31.652 31.8182H29.3911V34.0909H31.652V31.8182Z" fill="#F6D14B"/>
<path d="M33.9132 31.8182H31.6523V34.0909H33.9132V31.8182Z" fill="#F6D14B"/>
<path d="M36.174 31.8182H33.9131V34.0909H36.174V31.8182Z" fill="#F6D14B"/>
<path d="M38.4347 31.8182H36.1738V34.0909H38.4347V31.8182Z" fill="#F6D14B"/>
<path d="M40.6954 31.8182H38.4346V34.0909H40.6954V31.8182Z" fill="#F6D14B"/>
<path d="M42.9567 31.8182H40.6958V34.0909H42.9567V31.8182Z" fill="#F6D14B"/>
<path d="M45.2174 31.8182H42.9565V34.0909H45.2174V31.8182Z" fill="#F6D14B"/>
<path d="M47.4782 31.8182H45.2173V34.0909H47.4782V31.8182Z" fill="#F6D14B"/>
<path d="M49.7389 31.8182H47.478V34.0909H49.7389V31.8182Z" fill="#AD8C14"/>
<path d="M52.0001 31.8182H49.7393V34.0909H52.0001V31.8182Z" fill="#AD8C14"/>
<path d="M2.26087 34.0909H0V36.3636H2.26087V34.0909Z" fill="#AD8C14"/>
<path d="M4.52161 34.0909H2.26074V36.3636H4.52161V34.0909Z" fill="#AD8C14"/>
<path d="M6.78284 34.0909H4.52197V36.3636H6.78284V34.0909Z" fill="#F6D14B"/>
<path d="M9.04358 34.0909H6.78271V36.3636H9.04358V34.0909Z" fill="#F6D14B"/>
<path d="M11.3043 34.0909H9.04346V36.3636H11.3043V34.0909Z" fill="#F6D14B"/>
<path d="M13.5651 34.0909H11.3042V36.3636H13.5651V34.0909Z" fill="#F6D14B"/>
<path d="M15.8263 34.0909H13.5654V36.3636H15.8263V34.0909Z" fill="#F6D14B"/>
<path d="M18.087 34.0909H15.8262V36.3636H18.087V34.0909Z" fill="#AD8C14"/>
<path d="M20.3478 34.0909H18.0869V36.3636H20.3478V34.0909Z" fill="#F1E58F"/>
<path d="M22.6085 34.0909H20.3477V36.3636H22.6085V34.0909Z" fill="#AD8C14"/>
<path d="M24.8698 34.0909H22.6089V36.3636H24.8698V34.0909Z" fill="#AD8C14"/>
<path d="M27.1305 34.0909H24.8696V36.3636H27.1305V34.0909Z" fill="#F1E58F"/>
<path d="M29.3912 34.0909H27.1304V36.3636H29.3912V34.0909Z" fill="#F1E58F"/>
<path d="M31.652 34.0909H29.3911V36.3636H31.652V34.0909Z" fill="#F6D14B"/>
<path d="M33.9132 34.0909H31.6523V36.3636H33.9132V34.0909Z" fill="#F6D14B"/>
<path d="M36.174 34.0909H33.9131V36.3636H36.174V34.0909Z" fill="#F6D14B"/>
<path d="M38.4347 34.0909H36.1738V36.3636H38.4347V34.0909Z" fill="#F6D14B"/>
<path d="M40.6954 34.0909H38.4346V36.3636H40.6954V34.0909Z" fill="#F6D14B"/>
<path d="M42.9567 34.0909H40.6958V36.3636H42.9567V34.0909Z" fill="#F6D14B"/>
<path d="M45.2174 34.0909H42.9565V36.3636H45.2174V34.0909Z" fill="#F6D14B"/>
<path d="M47.4782 34.0909H45.2173V36.3636H47.4782V34.0909Z" fill="#AD8C14"/>
<path d="M49.7389 34.0909H47.478V36.3636H49.7389V34.0909Z" fill="#AD8C14"/>
<path d="M52.0001 34.0909H49.7393V36.3636H52.0001V34.0909Z" fill="#AD8C14"/>
<path d="M4.52161 36.3636H2.26074V38.6364H4.52161V36.3636Z" fill="#AD8C14"/>
<path d="M6.78284 36.3636H4.52197V38.6364H6.78284V36.3636Z" fill="#F6D14B"/>
<path d="M9.04358 36.3636H6.78271V38.6364H9.04358V36.3636Z" fill="#F6D14B"/>
<path d="M11.3043 36.3636H9.04346V38.6364H11.3043V36.3636Z" fill="#F6D14B"/>
<path d="M13.5651 36.3636H11.3042V38.6364H13.5651V36.3636Z" fill="#F6D14B"/>
<path d="M15.8263 36.3636H13.5654V38.6364H15.8263V36.3636Z" fill="#F6D14B"/>
<path d="M18.087 36.3636H15.8262V38.6364H18.087V36.3636Z" fill="#AD8C14"/>
<path d="M20.3478 36.3636H18.0869V38.6364H20.3478V36.3636Z" fill="#F1E58F"/>
<path d="M22.6085 36.3636H20.3477V38.6364H22.6085V36.3636Z" fill="#F1E58F"/>
<path d="M24.8698 36.3636H22.6089V38.6364H24.8698V36.3636Z" fill="#AD8C14"/>
<path d="M27.1305 36.3636H24.8696V38.6364H27.1305V36.3636Z" fill="#AD8C14"/>
<path d="M29.3912 36.3636H27.1304V38.6364H29.3912V36.3636Z" fill="#F1E58F"/>
<path d="M31.652 36.3636H29.3911V38.6364H31.652V36.3636Z" fill="#F6D14B"/>
<path d="M33.9132 36.3636H31.6523V38.6364H33.9132V36.3636Z" fill="#F6D14B"/>
<path d="M36.174 36.3636H33.9131V38.6364H36.174V36.3636Z" fill="#F6D14B"/>
<path d="M38.4347 36.3636H36.1738V38.6364H38.4347V36.3636Z" fill="#F6D14B"/>
<path d="M40.6954 36.3636H38.4346V38.6364H40.6954V36.3636Z" fill="#F6D14B"/>
<path d="M42.9567 36.3636H40.6958V38.6364H42.9567V36.3636Z" fill="#F6D14B"/>
<path d="M45.2174 36.3636H42.9565V38.6364H45.2174V36.3636Z" fill="#F6D14B"/>
<path d="M47.4782 36.3636H45.2173V38.6364H47.4782V36.3636Z" fill="#AD8C14"/>
<path d="M49.7389 36.3636H47.478V38.6364H49.7389V36.3636Z" fill="#AD8C14"/>
<path d="M52.0001 36.3636H49.7393V38.6364H52.0001V36.3636Z" fill="#AD8C14"/>
<path d="M4.52161 38.6364H2.26074V40.9091H4.52161V38.6364Z" fill="#AD8C14"/>
<path d="M6.78284 38.6364H4.52197V40.9091H6.78284V38.6364Z" fill="#AD8C14"/>
<path d="M9.04358 38.6364H6.78271V40.9091H9.04358V38.6364Z" fill="#AD8C14"/>
<path d="M11.3043 38.6364H9.04346V40.9091H11.3043V38.6364Z" fill="#F6D14B"/>
<path d="M13.5651 38.6364H11.3042V40.9091H13.5651V38.6364Z" fill="#F6D14B"/>
<path d="M15.8263 38.6364H13.5654V40.9091H15.8263V38.6364Z" fill="#F6D14B"/>
<path d="M18.087 38.6364H15.8262V40.9091H18.087V38.6364Z" fill="#F6D14B"/>
<path d="M20.3478 38.6364H18.0869V40.9091H20.3478V38.6364Z" fill="#F6D14B"/>
<path d="M22.6085 38.6364H20.3477V40.9091H22.6085V38.6364Z" fill="#AD8C14"/>
<path d="M24.8698 38.6364H22.6089V40.9091H24.8698V38.6364Z" fill="#AD8C14"/>
<path d="M27.1305 38.6364H24.8696V40.9091H27.1305V38.6364Z" fill="#F6D14B"/>
<path d="M29.3912 38.6364H27.1304V40.9091H29.3912V38.6364Z" fill="#F6D14B"/>
<path d="M31.652 38.6364H29.3911V40.9091H31.652V38.6364Z" fill="#F6D14B"/>
<path d="M33.9132 38.6364H31.6523V40.9091H33.9132V38.6364Z" fill="#F6D14B"/>
<path d="M36.174 38.6364H33.9131V40.9091H36.174V38.6364Z" fill="#F6D14B"/>
<path d="M38.4347 38.6364H36.1738V40.9091H38.4347V38.6364Z" fill="#F6D14B"/>
<path d="M40.6954 38.6364H38.4346V40.9091H40.6954V38.6364Z" fill="#F6D14B"/>
<path d="M42.9567 38.6364H40.6958V40.9091H42.9567V38.6364Z" fill="#AD8C14"/>
<path d="M45.2174 38.6364H42.9565V40.9091H45.2174V38.6364Z" fill="#AD8C14"/>
<path d="M47.4782 38.6364H45.2173V40.9091H47.4782V38.6364Z" fill="#AD8C14"/>
<path d="M49.7389 38.6364H47.478V40.9091H49.7389V38.6364Z" fill="#AD8C14"/>
<path d="M9.04358 40.9091H6.78271V43.1818H9.04358V40.9091Z" fill="#AD8C14"/>
<path d="M11.3043 40.9091H9.04346V43.1818H11.3043V40.9091Z" fill="#F6D14B"/>
<path d="M13.5651 40.9091H11.3042V43.1818H13.5651V40.9091Z" fill="#F6D14B"/>
<path d="M15.8263 40.9091H13.5654V43.1818H15.8263V40.9091Z" fill="#F6D14B"/>
<path d="M18.087 40.9091H15.8262V43.1818H18.087V40.9091Z" fill="#F6D14B"/>
<path d="M20.3478 40.9091H18.0869V43.1818H20.3478V40.9091Z" fill="#F6D14B"/>
<path d="M22.6085 40.9091H20.3477V43.1818H22.6085V40.9091Z" fill="#F6D14B"/>
<path d="M24.8698 40.9091H22.6089V43.1818H24.8698V40.9091Z" fill="#F6D14B"/>
<path d="M27.1305 40.9091H24.8696V43.1818H27.1305V40.9091Z" fill="#F6D14B"/>
<path d="M29.3912 40.9091H27.1304V43.1818H29.3912V40.9091Z" fill="#F6D14B"/>
<path d="M31.652 40.9091H29.3911V43.1818H31.652V40.9091Z" fill="#F6D14B"/>
<path d="M33.9132 40.9091H31.6523V43.1818H33.9132V40.9091Z" fill="#F6D14B"/>
<path d="M36.174 40.9091H33.9131V43.1818H36.174V40.9091Z" fill="#F6D14B"/>
<path d="M38.4347 40.9091H36.1738V43.1818H38.4347V40.9091Z" fill="#F6D14B"/>
<path d="M40.6954 40.9091H38.4346V43.1818H40.6954V40.9091Z" fill="#F6D14B"/>
<path d="M42.9567 40.9091H40.6958V43.1818H42.9567V40.9091Z" fill="#AD8C14"/>
<path d="M45.2174 40.9091H42.9565V43.1818H45.2174V40.9091Z" fill="#AD8C14"/>
<path d="M47.4782 40.9091H45.2173V43.1818H47.4782V40.9091Z" fill="#AD8C14"/>
<path d="M49.7389 40.9091H47.478V43.1818H49.7389V40.9091Z" fill="#AD8C14"/>
<path d="M9.04358 43.1818H6.78271V45.4546H9.04358V43.1818Z" fill="#AD8C14"/>
<path d="M11.3043 43.1818H9.04346V45.4546H11.3043V43.1818Z" fill="#AD8C14"/>
<path d="M13.5651 43.1818H11.3042V45.4546H13.5651V43.1818Z" fill="#AD8C14"/>
<path d="M15.8263 43.1818H13.5654V45.4546H15.8263V43.1818Z" fill="#F6D14B"/>
<path d="M18.087 43.1818H15.8262V45.4546H18.087V43.1818Z" fill="#F6D14B"/>
<path d="M20.3478 43.1818H18.0869V45.4546H20.3478V43.1818Z" fill="#F6D14B"/>
<path d="M22.6085 43.1818H20.3477V45.4546H22.6085V43.1818Z" fill="#F6D14B"/>
<path d="M24.8698 43.1818H22.6089V45.4546H24.8698V43.1818Z" fill="#F6D14B"/>
<path d="M27.1305 43.1818H24.8696V45.4546H27.1305V43.1818Z" fill="#F6D14B"/>
<path d="M29.3912 43.1818H27.1304V45.4546H29.3912V43.1818Z" fill="#F6D14B"/>
<path d="M31.652 43.1818H29.3911V45.4546H31.652V43.1818Z" fill="#F6D14B"/>
<path d="M33.9132 43.1818H31.6523V45.4546H33.9132V43.1818Z" fill="#F6D14B"/>
<path d="M36.174 43.1818H33.9131V45.4546H36.174V43.1818Z" fill="#AD8C14"/>
<path d="M38.4347 43.1818H36.1738V45.4546H38.4347V43.1818Z" fill="#AD8C14"/>
<path d="M40.6954 43.1818H38.4346V45.4546H40.6954V43.1818Z" fill="#AD8C14"/>
<path d="M42.9567 43.1818H40.6958V45.4546H42.9567V43.1818Z" fill="#AD8C14"/>
<path d="M45.2174 43.1818H42.9565V45.4546H45.2174V43.1818Z" fill="#AD8C14"/>
<path d="M13.5651 45.4545H11.3042V47.7273H13.5651V45.4545Z" fill="#AD8C14"/>
<path d="M15.8263 45.4545H13.5654V47.7273H15.8263V45.4545Z" fill="#AD8C14"/>
<path d="M18.087 45.4545H15.8262V47.7273H18.087V45.4545Z" fill="#AD8C14"/>
<path d="M20.3478 45.4545H18.0869V47.7273H20.3478V45.4545Z" fill="#AD8C14"/>
<path d="M22.6085 45.4545H20.3477V47.7273H22.6085V45.4545Z" fill="#AD8C14"/>
<path d="M24.8698 45.4545H22.6089V47.7273H24.8698V45.4545Z" fill="#AD8C14"/>
<path d="M27.1305 45.4545H24.8696V47.7273H27.1305V45.4545Z" fill="#AD8C14"/>
<path d="M29.3912 45.4545H27.1304V47.7273H29.3912V45.4545Z" fill="#AD8C14"/>
<path d="M31.652 45.4545H29.3911V47.7273H31.652V45.4545Z" fill="#AD8C14"/>
<path d="M33.9132 45.4545H31.6523V47.7273H33.9132V45.4545Z" fill="#AD8C14"/>
<path d="M36.174 45.4545H33.9131V47.7273H36.174V45.4545Z" fill="#AD8C14"/>
<path d="M38.4347 45.4545H36.1738V47.7273H38.4347V45.4545Z" fill="#AD8C14"/>
<path d="M40.6954 45.4545H38.4346V47.7273H40.6954V45.4545Z" fill="#AD8C14"/>
<path d="M42.9567 45.4545H40.6958V47.7273H42.9567V45.4545Z" fill="#AD8C14"/>
<path d="M45.2174 45.4545H42.9565V47.7273H45.2174V45.4545Z" fill="#AD8C14"/>
<path d="M18.087 47.7273H15.8262V50H18.087V47.7273Z" fill="#AD8C14"/>
<path d="M20.3478 47.7273H18.0869V50H20.3478V47.7273Z" fill="#AD8C14"/>
<path d="M22.6085 47.7273H20.3477V50H22.6085V47.7273Z" fill="#AD8C14"/>
<path d="M24.8698 47.7273H22.6089V50H24.8698V47.7273Z" fill="#AD8C14"/>
<path d="M27.1305 47.7273H24.8696V50H27.1305V47.7273Z" fill="#AD8C14"/>
<path d="M29.3912 47.7273H27.1304V50H29.3912V47.7273Z" fill="#AD8C14"/>
<path d="M31.652 47.7273H29.3911V50H31.652V47.7273Z" fill="#AD8C14"/>
<path d="M33.9132 47.7273H31.6523V50H33.9132V47.7273Z" fill="#AD8C14"/>
<path d="M36.174 47.7273H33.9131V50H36.174V47.7273Z" fill="#AD8C14"/>
<path d="M38.4347 47.7273H36.1738V50H38.4347V47.7273Z" fill="#AD8C14"/>
<path d="M40.6954 47.7273H38.4346V50H40.6954V47.7273Z" fill="#AD8C14"/>
</g>
<defs>
<clipPath id="clip0_16309_30490">
<rect width="52" height="50" fill="white"/>
</clipPath>
</defs>
</svg>
