<svg width="38" height="39" viewBox="0 0 38 39" fill="none" xmlns="http://www.w3.org/2000/svg">
<g clip-path="url(#clip0_15230_16490)">
<path d="M9.5 1.68734H7.52084V3.6665V4.854H6.33334H4.35417V6.83317V8.02067H3.16667H1.18751V9.99984V28.9998V30.979H3.16667H4.35417V32.1665V34.1457H6.33334H7.52084V35.3332V37.3123H9.5H28.5H30.4792V35.3332V34.1457H31.6667H33.6458V32.1665V30.979H34.8333H36.8125V28.9998V9.99984V8.02067H34.8333H33.6458V6.83317V4.854H31.6667H30.4792V3.6665V1.68734H28.5H9.5ZM26.5208 8.81234V9.604H25.3333H22.5625V8.81234H26.5208ZM15.4375 8.81234V9.604H12.6667H11.4792V8.81234H15.4375ZM9.5 11.979H10.6875V21.0832V22.2707V23.0623V24.2498V27.0207H9.5H8.3125V11.979H9.5ZM12.6667 29.3957H15.4375V30.1873H11.4792V29.3957H12.6667ZM22.5625 30.1873V29.3957H25.3333H26.5208V30.1873H22.5625ZM28.5 27.0207H27.3125V17.9165V16.729V15.9373V14.7498V11.979H28.5H29.6875V27.0207H28.5Z" fill="black" stroke="#EFAF09" stroke-width="3.95833"/>
</g>
<defs>
<clipPath id="clip0_15230_16490">
<rect width="38" height="38" fill="white" transform="translate(0 0.5)"/>
</clipPath>
</defs>
</svg>
