<svg width="51" height="51" viewBox="0 0 51 51" fill="none" xmlns="http://www.w3.org/2000/svg">
<g filter="url(#filter0_d_17234_55190)">
<path d="M7.77295 42.6449V34.6592L32.5755 9.90366C32.9513 9.55918 33.3666 9.29299 33.8213 9.10509C34.276 8.91719 34.7532 8.82324 35.253 8.82324C35.7529 8.82324 36.2383 8.91719 36.7093 9.10509C37.1803 9.29299 37.5874 9.57483 37.9306 9.95063L40.5142 12.5812C40.89 12.9257 41.1643 13.3328 41.3372 13.8025C41.5101 14.2723 41.5959 14.742 41.5946 15.2118C41.5946 15.7128 41.5088 16.1907 41.3372 16.6454C41.1656 17.1002 40.8912 17.5148 40.5142 17.8893L15.7586 42.6449H7.77295ZM35.2061 17.8424L37.8366 15.2118L35.2061 12.5812L32.5755 15.2118L35.2061 17.8424Z" fill="white"/>
<path d="M35.2534 9.45312C35.6719 9.45317 36.0784 9.53177 36.4761 9.69043C36.8582 9.84293 37.1861 10.0703 37.4653 10.376L37.4731 10.3838L37.481 10.3926L40.0649 13.0225L40.0757 13.0342L40.0884 13.0459C40.3915 13.3237 40.6081 13.6469 40.7456 14.0205C40.8943 14.4245 40.9654 14.82 40.9644 15.21V15.2119C40.9643 15.6393 40.8915 16.0415 40.7476 16.4229C40.6107 16.7855 40.3889 17.1254 40.0698 17.4424L15.4976 42.0146H8.40283V34.9209L33.0073 10.3623C33.3291 10.0686 33.6804 9.84521 34.062 9.6875C34.4392 9.53167 34.8349 9.45312 35.2534 9.45312ZM31.6841 15.2119L34.7603 18.2881L35.2065 18.7334L38.728 15.2119L35.6519 12.1357L35.2065 11.6895L31.6841 15.2119Z" stroke="black" stroke-width="1.26044"/>
</g>
<defs>
<filter id="filter0_d_17234_55190" x="7.77295" y="8.82324" width="33.8218" height="38.8635" filterUnits="userSpaceOnUse" color-interpolation-filters="sRGB">
<feFlood flood-opacity="0" result="BackgroundImageFix"/>
<feColorMatrix in="SourceAlpha" type="matrix" values="0 0 0 0 0 0 0 0 0 0 0 0 0 0 0 0 0 0 127 0" result="hardAlpha"/>
<feOffset dy="5.04177"/>
<feComposite in2="hardAlpha" operator="out"/>
<feColorMatrix type="matrix" values="0 0 0 0 0.490196 0 0 0 0 0.513726 0 0 0 0 0.698039 0 0 0 1 0"/>
<feBlend mode="normal" in2="BackgroundImageFix" result="effect1_dropShadow_17234_55190"/>
<feBlend mode="normal" in="SourceGraphic" in2="effect1_dropShadow_17234_55190" result="shape"/>
</filter>
</defs>
</svg>
