<svg width="40" height="40" viewBox="0 0 40 40" fill="none" xmlns="http://www.w3.org/2000/svg">
<path d="M6.16699 33.8332V27.4976L25.8447 7.85723C26.1428 7.58393 26.4722 7.37274 26.833 7.22367C27.1938 7.0746 27.5724 7.00006 27.9689 7.00006C28.3655 7.00006 28.7506 7.0746 29.1243 7.22367C29.4979 7.37274 29.8209 7.59635 30.0932 7.8945L32.143 9.98152C32.4411 10.2548 32.6588 10.5778 32.7959 10.9505C32.9331 11.3232 33.0012 11.6959 33.0002 12.0685C33.0002 12.4661 32.9321 12.8452 32.7959 13.206C32.6598 13.5667 32.4421 13.8957 32.143 14.1928L12.5026 33.8332H6.16699ZM27.9317 14.1556L30.0187 12.0685L27.9317 9.98152L25.8447 12.0685L27.9317 14.1556Z" fill="white"/>
</svg>
