<svg width="80" height="80" viewBox="0 0 80 80" fill="none" xmlns="http://www.w3.org/2000/svg">
<g filter="url(#filter0_d_13912_308)">
<path d="M67.5692 13.0873C72.0846 13.313 75.4628 17.3181 74.9242 21.8069L71.4115 51.0794C70.941 54.9996 67.6154 57.9501 63.667 57.9501H19.4666C15.6003 57.9501 12.3174 55.1177 11.7508 51.2931L7.02573 19.3987C6.30455 14.5308 10.2161 10.2196 15.131 10.4654L67.5692 13.0873Z" fill="#D9802E" stroke="#8F3400" stroke-width="2" stroke-linejoin="round"/>
<path d="M44.2311 58.1559C43.9599 58.2722 43.7538 58.5022 43.6681 58.7846C43.5824 59.0669 43.6258 59.3727 43.7866 59.6201L49.2739 68.0621C49.6678 68.8942 50.2729 69.8556 51.0417 70.5674C51.8204 71.2884 52.9615 71.9145 54.2733 71.5046C54.3026 71.4954 54.3315 71.4849 54.3598 71.4731L56.6084 70.5355C57.4623 70.2608 58.1383 69.8207 58.6456 69.1057C59.1304 68.4223 59.406 67.5614 59.6255 66.5705L62.1746 55.474C62.2362 55.2059 62.1847 54.9242 62.0321 54.6954L60.332 52.1454C60.0646 51.7443 59.5492 51.591 59.1061 51.7809L44.2311 58.1559Z" fill="#D9802E" stroke="#8F3400" stroke-width="2" stroke-linejoin="round"/>
<mask id="path-3-outside-1_13912_308" maskUnits="userSpaceOnUse" x="40.2871" y="52.7429" width="21" height="20" fill="black">
<rect fill="white" x="40.2871" y="52.7429" width="21" height="20"/>
<path fill-rule="evenodd" clip-rule="evenodd" d="M42.2871 55.2498L51.1017 69.3531C51.5671 70.0977 52.3832 70.5501 53.2613 70.5501C54.43 70.5501 55.4486 69.7548 55.7321 68.621L59.2016 54.7429C58.4044 55.07 57.5329 55.2498 56.6221 55.2498H42.2871Z"/>
</mask>
<path fill-rule="evenodd" clip-rule="evenodd" d="M42.2871 55.2498L51.1017 69.3531C51.5671 70.0977 52.3832 70.5501 53.2613 70.5501C54.43 70.5501 55.4486 69.7548 55.7321 68.621L59.2016 54.7429C58.4044 55.07 57.5329 55.2498 56.6221 55.2498H42.2871Z" fill="#D79F11"/>
<path d="M42.2871 55.2498V53.2498C41.5601 53.2498 40.8903 53.6444 40.5378 54.2803C40.1854 54.9162 40.2058 55.6933 40.5911 56.3098L42.2871 55.2498ZM51.1017 69.3531L49.4057 70.4131L49.4057 70.4131L51.1017 69.3531ZM55.7321 68.621L57.6723 69.1061L55.7321 68.621ZM59.2016 54.7429L61.1419 55.228C61.3248 54.4963 61.0805 53.7238 60.5101 53.2304C59.9397 52.7369 59.1401 52.6063 58.4423 52.8926L59.2016 54.7429ZM40.5911 56.3098L49.4057 70.4131L52.7977 68.2931L43.9831 54.1898L40.5911 56.3098ZM49.4057 70.4131C50.2365 71.7425 51.6936 72.5501 53.2613 72.5501V68.5501C53.0728 68.5501 52.8976 68.453 52.7977 68.2931L49.4057 70.4131ZM53.2613 72.5501C55.3477 72.5501 57.1663 71.1302 57.6723 69.1061L53.7918 68.1359C53.7309 68.3793 53.5122 68.5501 53.2613 68.5501V72.5501ZM57.6723 69.1061L61.1419 55.228L57.2613 54.2578L53.7918 68.1359L57.6723 69.1061ZM58.4423 52.8926C57.8818 53.1227 57.2678 53.2498 56.6221 53.2498V57.2498C57.7979 57.2498 58.9271 57.0174 59.9609 56.5932L58.4423 52.8926ZM56.6221 53.2498H42.2871V57.2498H56.6221V53.2498Z" fill="#8F3400" mask="url(#path-3-outside-1_13912_308)"/>
<path d="M52.2748 68.85L45.0498 56.525" stroke="#FFD232" stroke-width="2" stroke-linecap="round" stroke-linejoin="round"/>
<path d="M68.0597 12.9416C68.0491 12.9408 68.0384 12.9402 68.0277 12.9397L15.2946 10.6842C10.3323 10.3223 6.30216 14.6384 7.00621 19.5667L11.7757 52.953C12.0112 54.6015 13.2929 55.8924 14.9299 56.1555C15.3102 56.2166 15.7005 56.2498 16.0973 56.2498H60.0219C64.08 56.2498 67.4585 53.1386 67.795 49.0974L71.8463 17.991C71.8484 17.9746 71.8502 17.9581 71.8515 17.9416C71.8841 17.5346 71.8847 17.1317 71.8554 16.7356C71.7058 14.7133 70.0771 13.0929 68.0597 12.9416Z" fill="#FFD232" stroke="#8F3400" stroke-width="2" stroke-linejoin="round"/>
<path fill-rule="evenodd" clip-rule="evenodd" d="M12.8955 53.3426C13.2302 54.2938 14.0635 55.0035 15.0886 55.1683C15.4191 55.2214 15.7563 55.2499 16.0973 55.2499H60.022C63.5672 55.2499 66.5176 52.5261 66.8003 48.9922L70.8547 17.862C70.8832 17.5062 70.8837 17.1547 70.8582 16.8095C70.7699 15.6165 69.9966 14.6046 68.9343 14.1649C69.0562 14.4602 69.1337 14.7779 69.1582 15.1095C69.1837 15.4547 69.1832 15.8062 69.1547 16.162L65.1003 47.2922C64.8176 50.8261 61.8672 53.5499 58.322 53.5499H14.3973C14.0563 53.5499 13.7191 53.5214 13.3886 53.4683C13.2185 53.4409 13.0537 53.3986 12.8955 53.3426Z" fill="#D79F11"/>
<path d="M7.99616 19.4253C7.38169 15.124 10.9036 11.3577 15.2364 11.6827L41.6107 12.8107C37.4995 31.5593 19.0778 36.1611 10.3809 36.1184L7.99616 19.4253Z" fill="#FFDB5B"/>
<path d="M27.1996 13.2463L15.7096 12.7676C11.94 12.4761 8.87581 15.8545 9.41041 19.7129L10.4478 27.2" stroke="#FFEBA6" stroke-width="2" stroke-linecap="round" stroke-linejoin="round"/>
<path d="M9.41041 19.7129C8.87581 15.8545 11.94 12.4761 15.7096 12.7676" stroke="#F3FCFF" stroke-width="2" stroke-linecap="round" stroke-linejoin="round"/>
<circle cx="56.5245" cy="48.0251" r="1.275" fill="#EFAF09"/>
<circle cx="61.6246" cy="48.0251" r="1.275" fill="#EFAF09"/>
<circle cx="50.5748" cy="49.7251" r="1.275" fill="#EFAF09"/>
<circle cx="58.2247" cy="36.1251" r="1.275" fill="#EFAF09"/>
<circle cx="62.0497" cy="44.2001" r="0.85" fill="#EFAF09"/>
<circle cx="56.0995" cy="43.3501" r="0.85" fill="#EFAF09"/>
<circle cx="61.1996" cy="39.9501" r="0.85" fill="#EFAF09"/>
<circle cx="52.6996" cy="45.0501" r="0.85" fill="#EFAF09"/>
<circle cx="45.8998" cy="48.4501" r="0.85" fill="#EFAF09"/>
<circle cx="40.3747" cy="50.575" r="0.425" fill="#EFAF09"/>
<circle cx="43.7746" cy="50.575" r="0.425" fill="#EFAF09"/>
<circle cx="47.1745" cy="51.4251" r="0.425" fill="#EFAF09"/>
<circle cx="53.1247" cy="48.0251" r="0.425" fill="#EFAF09"/>
<circle cx="54.8249" cy="51.4251" r="0.425" fill="#EFAF09"/>
<circle cx="59.0749" cy="50.575" r="0.425" fill="#EFAF09"/>
<circle cx="59.9245" cy="45.475" r="0.425" fill="#EFAF09"/>
<circle cx="63.3249" cy="41.225" r="0.425" fill="#EFAF09"/>
<circle cx="60.7746" cy="33.575" r="0.425" fill="#EFAF09"/>
<circle cx="59.0749" cy="42.075" r="0.425" fill="#EFAF09"/>
<circle cx="54.8249" cy="41.225" r="0.425" fill="#EFAF09"/>
<circle cx="57.3747" cy="39.5251" r="0.425" fill="#EFAF09"/>
<circle cx="60.7746" cy="36.975" r="0.425" fill="#EFAF09"/>
<circle cx="57.3747" cy="31.8751" r="0.425" fill="#EFAF09"/>
<circle cx="48.8747" cy="46.325" r="0.425" fill="#EFAF09"/>
<circle cx="22.0996" cy="32.3001" r="5.25001" fill="#FFE6A5" stroke="#8F3400" stroke-width="2" stroke-linejoin="round"/>
<path fill-rule="evenodd" clip-rule="evenodd" d="M26.0876 30.8276C25.3822 30.0696 24.3758 29.5955 23.2587 29.5955C21.1249 29.5955 19.3951 31.3253 19.3951 33.4591C19.3951 34.5763 19.8692 35.5827 20.6272 36.2881C19.0057 35.6892 17.8496 34.1296 17.8496 32.3001C17.8496 29.9528 19.7524 28.05 22.0996 28.05C23.9292 28.05 25.4888 29.2061 26.0876 30.8276Z" fill="#EA9F2F"/>
<path d="M24.8332 32.5773C24.3774 34.2786 22.6762 35.3009 21.0336 34.8608" stroke="#FFF7E3" stroke-width="2" stroke-linecap="round" stroke-linejoin="round"/>
<circle cx="39.0999" cy="32.3001" r="6.95" fill="#FFE6A5" stroke="#8F3400" stroke-width="2" stroke-linejoin="round"/>
<path fill-rule="evenodd" clip-rule="evenodd" d="M44.6831 30.2388C43.6956 29.1775 42.2866 28.5138 40.7226 28.5138C37.7352 28.5138 35.3135 30.9355 35.3135 33.9228C35.3135 35.4868 35.9773 36.8957 37.0384 37.8833C34.7684 37.0448 33.1499 34.8615 33.1499 32.3001C33.1499 29.014 35.8138 26.3501 39.0999 26.3501C41.6613 26.3501 43.8447 27.9686 44.6831 30.2388Z" fill="#EA9F2F"/>
<path d="M42.927 32.6883C42.2888 35.07 39.9072 36.5013 37.6076 35.8851" stroke="#FFF7E3" stroke-width="2" stroke-linecap="round" stroke-linejoin="round"/>
<circle cx="55.25" cy="33.15" r="5.25001" fill="#FFE6A5" stroke="#8F3400" stroke-width="2" stroke-linejoin="round"/>
<path fill-rule="evenodd" clip-rule="evenodd" d="M59.238 31.6776C58.5326 30.9196 57.5262 30.4455 56.4091 30.4455C54.2753 30.4455 52.5455 32.1753 52.5455 34.3091C52.5455 35.4262 53.0196 36.4327 53.7776 37.1381C52.1561 36.5392 51 34.9796 51 33.15C51 30.8028 52.9028 28.9 55.25 28.9C57.0796 28.9 58.6391 30.0561 59.238 31.6776Z" fill="#EA9F2F"/>
<path d="M57.9836 33.4273C57.5277 35.1285 55.8266 36.1509 54.184 35.7108" stroke="#FFF7E3" stroke-width="2" stroke-linecap="round" stroke-linejoin="round"/>
</g>
<defs>
<filter id="filter0_d_13912_308" x="5.92578" y="9.45532" width="70.0552" height="67.1812" filterUnits="userSpaceOnUse" color-interpolation-filters="sRGB">
<feFlood flood-opacity="0" result="BackgroundImageFix"/>
<feColorMatrix in="SourceAlpha" type="matrix" values="0 0 0 0 0 0 0 0 0 0 0 0 0 0 0 0 0 0 127 0" result="hardAlpha"/>
<feOffset dy="4"/>
<feComposite in2="hardAlpha" operator="out"/>
<feColorMatrix type="matrix" values="0 0 0 0 0.545098 0 0 0 0 0.568627 0 0 0 0 0.729412 0 0 0 1 0"/>
<feBlend mode="normal" in2="BackgroundImageFix" result="effect1_dropShadow_13912_308"/>
<feBlend mode="normal" in="SourceGraphic" in2="effect1_dropShadow_13912_308" result="shape"/>
</filter>
</defs>
</svg>
