<svg xmlns="http://www.w3.org/2000/svg" width="34" height="35" viewBox="0 0 34 35" fill="none">
  <path d="M28.7433 5.75948C27.4168 4.43297 25.6176 3.68774 23.7416 3.68774C21.8656 3.68774 20.0664 4.43297 18.7399 5.75948L5.2594 19.2386C3.96062 20.5708 3.239 22.3611 3.25088 24.2216C3.26276 26.0821 4.00718 27.8631 5.32287 29.1786C6.63857 30.4941 8.41959 31.2383 10.2801 31.2499C12.1406 31.2616 13.9308 30.5397 15.2628 29.2407L28.7446 15.7616C30.0689 14.4341 30.8126 12.6354 30.8123 10.7603C30.8121 8.88513 30.068 7.08667 28.7433 5.75948ZM13.7607 27.7386C12.8328 28.6668 11.5741 29.1883 10.2616 29.1884C8.94911 29.1885 7.69033 28.6673 6.76218 27.7393C5.83402 26.8113 5.31252 25.5526 5.3124 24.2401C5.31227 22.9277 5.83354 21.6689 6.76151 20.7407L12.75 14.7522L19.7492 21.7501L13.7607 27.7386ZM27.2412 14.2595L21.25 20.248L14.2535 13.2501L20.2433 7.26159C21.175 6.35146 22.4279 5.84531 23.7303 5.85292C25.0327 5.86053 26.2796 6.38128 27.2006 7.30224C28.1215 8.2232 28.6423 9.4701 28.6499 10.7725C28.6575 12.0749 28.1513 13.3278 27.2412 14.2595ZM25.1919 11.4359C25.2907 11.5346 25.3691 11.6517 25.4225 11.7807C25.476 11.9097 25.5035 12.048 25.5035 12.1876C25.5035 12.3272 25.476 12.4655 25.4225 12.5945C25.3691 12.7235 25.2907 12.8406 25.1919 12.9393L22.0044 16.1268C21.9057 16.2255 21.7885 16.3037 21.6596 16.357C21.5306 16.4104 21.3924 16.4378 21.2529 16.4377C21.1133 16.4377 20.9752 16.4101 20.8463 16.3567C20.7174 16.3032 20.6003 16.2249 20.5016 16.1262C20.403 16.0274 20.3248 15.9103 20.2714 15.7813C20.2181 15.6524 20.1907 15.5142 20.1907 15.3746C20.1908 15.2351 20.2183 15.0969 20.2718 14.968C20.3253 14.8391 20.4036 14.722 20.5023 14.6234L23.6898 11.4359C23.889 11.2368 24.1592 11.1249 24.4408 11.1249C24.7225 11.1249 24.9927 11.2368 25.1919 11.4359Z" fill="black"/>
</svg>