<svg width="80" height="80" viewBox="0 0 80 80" fill="none" xmlns="http://www.w3.org/2000/svg">
<g filter="url(#filter0_d_13912_367)">
<mask id="path-1-outside-1_13912_367" maskUnits="userSpaceOnUse" x="9.8999" y="13.2998" width="62" height="62" fill="black">
<rect fill="white" x="9.8999" y="13.2998" width="62" height="62"/>
<path fill-rule="evenodd" clip-rule="evenodd" d="M12.3978 58.2977C12.079 57.9789 11.8999 57.5465 11.8999 57.0956V31.304C11.8999 30.8531 12.079 30.4207 12.3978 30.1019L26.702 15.7977C27.0208 15.4789 27.4532 15.2998 27.9041 15.2998H53.6957C54.1466 15.2998 54.579 15.4789 54.8978 15.7977L69.202 30.1019C69.5208 30.4207 69.6999 30.8531 69.6999 31.304V57.0956C69.6999 57.5465 69.5208 57.9789 69.202 58.2977L54.8978 72.6019C54.579 72.9207 54.1466 73.0998 53.6957 73.0998L27.9041 73.0998C27.4532 73.0998 27.0208 72.9207 26.702 72.6019L12.3978 58.2977ZM40.7999 60.3498C49.7193 60.3498 56.9499 53.1192 56.9499 44.1998C56.9499 35.2804 49.7193 28.0498 40.7999 28.0498C31.8805 28.0498 24.6499 35.2804 24.6499 44.1998C24.6499 53.1192 31.8805 60.3498 40.7999 60.3498Z"/>
</mask>
<path fill-rule="evenodd" clip-rule="evenodd" d="M12.3978 58.2977C12.079 57.9789 11.8999 57.5465 11.8999 57.0956V31.304C11.8999 30.8531 12.079 30.4207 12.3978 30.1019L26.702 15.7977C27.0208 15.4789 27.4532 15.2998 27.9041 15.2998H53.6957C54.1466 15.2998 54.579 15.4789 54.8978 15.7977L69.202 30.1019C69.5208 30.4207 69.6999 30.8531 69.6999 31.304V57.0956C69.6999 57.5465 69.5208 57.9789 69.202 58.2977L54.8978 72.6019C54.579 72.9207 54.1466 73.0998 53.6957 73.0998L27.9041 73.0998C27.4532 73.0998 27.0208 72.9207 26.702 72.6019L12.3978 58.2977ZM40.7999 60.3498C49.7193 60.3498 56.9499 53.1192 56.9499 44.1998C56.9499 35.2804 49.7193 28.0498 40.7999 28.0498C31.8805 28.0498 24.6499 35.2804 24.6499 44.1998C24.6499 53.1192 31.8805 60.3498 40.7999 60.3498Z" fill="#68848F"/>
<path d="M27.9041 73.0998V71.0998V73.0998ZM26.702 72.6019L28.1162 71.1877L26.702 72.6019ZM54.8978 72.6019L53.4836 71.1877L54.8978 72.6019ZM53.6957 73.0998V71.0998V73.0998ZM69.202 58.2977L70.6162 59.7119L69.202 58.2977ZM69.202 30.1019L70.6162 28.6877L69.202 30.1019ZM54.8978 15.7977L53.4836 17.2119L54.8978 15.7977ZM26.702 15.7977L25.2878 14.3835L26.702 15.7977ZM9.8999 31.304L9.8999 57.0956H13.8999L13.8999 31.304H9.8999ZM25.2878 14.3835L10.9836 28.6877L13.812 31.5161L28.1162 17.2119L25.2878 14.3835ZM53.6957 13.2998L27.9041 13.2998V17.2998L53.6957 17.2998V13.2998ZM70.6162 28.6877L56.312 14.3835L53.4836 17.2119L67.7878 31.5161L70.6162 28.6877ZM71.6999 57.0956V31.304H67.6999V57.0956H71.6999ZM56.312 74.0161L70.6162 59.7119L67.7878 56.8835L53.4836 71.1877L56.312 74.0161ZM27.9041 75.0998L53.6957 75.0998V71.0998L27.9041 71.0998V75.0998ZM10.9836 59.7119L25.2878 74.0161L28.1162 71.1877L13.812 56.8835L10.9836 59.7119ZM54.9499 44.1998C54.9499 52.0146 48.6147 58.3498 40.7999 58.3498V62.3498C50.8239 62.3498 58.9499 54.2238 58.9499 44.1998H54.9499ZM40.7999 30.0498C48.6147 30.0498 54.9499 36.385 54.9499 44.1998H58.9499C58.9499 34.1758 50.8239 26.0498 40.7999 26.0498V30.0498ZM26.6499 44.1998C26.6499 36.385 32.9851 30.0498 40.7999 30.0498V26.0498C30.7759 26.0498 22.6499 34.1758 22.6499 44.1998H26.6499ZM40.7999 58.3498C32.9851 58.3498 26.6499 52.0146 26.6499 44.1998H22.6499C22.6499 54.2238 30.7759 62.3498 40.7999 62.3498V58.3498ZM27.9041 71.0998C27.9836 71.0998 28.0599 71.1314 28.1162 71.1877L25.2878 74.0161C25.9817 74.71 26.9228 75.0998 27.9041 75.0998V71.0998ZM53.4836 71.1877C53.5399 71.1314 53.6162 71.0998 53.6957 71.0998V75.0998C54.677 75.0998 55.6181 74.71 56.312 74.0161L53.4836 71.1877ZM67.6999 57.0956C67.6999 57.0161 67.7315 56.9398 67.7878 56.8835L70.6162 59.7119C71.3101 59.0181 71.6999 58.0769 71.6999 57.0956H67.6999ZM67.7878 31.5161C67.7315 31.4598 67.6999 31.3835 67.6999 31.304H71.6999C71.6999 30.3227 71.3101 29.3816 70.6162 28.6877L67.7878 31.5161ZM53.6957 17.2998C53.6162 17.2998 53.5399 17.2682 53.4836 17.2119L56.312 14.3835C55.6181 13.6896 54.677 13.2998 53.6957 13.2998V17.2998ZM28.1162 17.2119C28.0599 17.2682 27.9836 17.2998 27.9041 17.2998V13.2998C26.9228 13.2998 25.9817 13.6896 25.2878 14.3835L28.1162 17.2119ZM9.8999 57.0956C9.8999 58.0769 10.2897 59.018 10.9836 59.7119L13.812 56.8835C13.8683 56.9398 13.8999 57.0161 13.8999 57.0956H9.8999ZM13.8999 31.304C13.8999 31.3835 13.8683 31.4598 13.812 31.5161L10.9836 28.6877C10.2897 29.3816 9.8999 30.3227 9.8999 31.304H13.8999Z" fill="#1B343E" mask="url(#path-1-outside-1_13912_367)"/>
<path d="M12.3978 30.1019L26.702 15.7977C27.0208 15.4789 27.4532 15.2998 27.9041 15.2998H40.7999V28.0498C31.8805 28.0498 24.6499 35.2804 24.6499 44.1998L11.8999 31.304C11.8999 30.8531 12.079 30.4207 12.3978 30.1019Z" fill="#44626D"/>
<path d="M11.8999 57.7998L11.8999 50.9998L27.1999 66.2998L27.1999 73.0998L11.8999 57.7998Z" fill="#A7C2CD"/>
<path d="M69.7 31.3041V57.0958C69.7 57.5466 69.5209 57.979 69.2021 58.2978L54.8979 72.602V52.0844C56.2049 49.7525 56.95 47.0632 56.95 44.1999L69.7 31.3041Z" fill="#44626D"/>
<mask id="path-6-outside-2_13912_367" maskUnits="userSpaceOnUse" x="9.8999" y="6.49976" width="62" height="62" fill="black">
<rect fill="white" x="9.8999" y="6.49976" width="62" height="62"/>
<path fill-rule="evenodd" clip-rule="evenodd" d="M12.3978 51.4977C12.079 51.1789 11.8999 50.7465 11.8999 50.2956V24.5039C11.8999 24.053 12.079 23.6206 12.3978 23.3018L26.702 8.99767C27.0208 8.67886 27.4532 8.49976 27.9041 8.49976H53.6957C54.1466 8.49976 54.579 8.67886 54.8978 8.99767L69.202 23.3018C69.5208 23.6206 69.6999 24.053 69.6999 24.5039V50.2956C69.6999 50.7465 69.5208 51.1789 69.202 51.4977L54.8978 65.8018C54.579 66.1206 54.1466 66.2998 53.6957 66.2998L27.9041 66.2998C27.4532 66.2998 27.0208 66.1206 26.702 65.8018L12.3978 51.4977ZM40.7999 53.5498C49.7193 53.5498 56.9499 46.3192 56.9499 37.3998C56.9499 28.4804 49.7193 21.2498 40.7999 21.2498C31.8805 21.2498 24.6499 28.4804 24.6499 37.3998C24.6499 46.3192 31.8805 53.5498 40.7999 53.5498Z"/>
</mask>
<path fill-rule="evenodd" clip-rule="evenodd" d="M12.3978 51.4977C12.079 51.1789 11.8999 50.7465 11.8999 50.2956V24.5039C11.8999 24.053 12.079 23.6206 12.3978 23.3018L26.702 8.99767C27.0208 8.67886 27.4532 8.49976 27.9041 8.49976H53.6957C54.1466 8.49976 54.579 8.67886 54.8978 8.99767L69.202 23.3018C69.5208 23.6206 69.6999 24.053 69.6999 24.5039V50.2956C69.6999 50.7465 69.5208 51.1789 69.202 51.4977L54.8978 65.8018C54.579 66.1206 54.1466 66.2998 53.6957 66.2998L27.9041 66.2998C27.4532 66.2998 27.0208 66.1206 26.702 65.8018L12.3978 51.4977ZM40.7999 53.5498C49.7193 53.5498 56.9499 46.3192 56.9499 37.3998C56.9499 28.4804 49.7193 21.2498 40.7999 21.2498C31.8805 21.2498 24.6499 28.4804 24.6499 37.3998C24.6499 46.3192 31.8805 53.5498 40.7999 53.5498Z" fill="#A7C2CD"/>
<path d="M27.9041 66.2998V64.2998V66.2998ZM26.702 65.8018L28.1162 64.3876L26.702 65.8018ZM54.8978 65.8018L53.4836 64.3876L54.8978 65.8018ZM53.6957 66.2998V64.2998V66.2998ZM69.202 51.4977L70.6162 52.9119L69.202 51.4977ZM69.202 23.3018L70.6162 21.8876L69.202 23.3018ZM54.8978 8.99767L53.4836 10.4119L54.8978 8.99767ZM26.702 8.99767L25.2878 7.58346L26.702 8.99767ZM9.8999 24.5039L9.8999 50.2956H13.8999L13.8999 24.5039H9.8999ZM25.2878 7.58346L10.9836 21.8876L13.812 24.716L28.1162 10.4119L25.2878 7.58346ZM53.6957 6.49976L27.9041 6.49976V10.4998L53.6957 10.4998V6.49976ZM70.6162 21.8876L56.312 7.58346L53.4836 10.4119L67.7878 24.716L70.6162 21.8876ZM71.6999 50.2956V24.5039H67.6999V50.2956H71.6999ZM56.312 67.216L70.6162 52.9119L67.7878 50.0835L53.4836 64.3876L56.312 67.216ZM27.9041 68.2998L53.6957 68.2998V64.2998L27.9041 64.2998V68.2998ZM10.9836 52.9119L25.2878 67.216L28.1162 64.3876L13.812 50.0835L10.9836 52.9119ZM54.9499 37.3998C54.9499 45.2146 48.6147 51.5498 40.7999 51.5498V55.5498C50.8239 55.5498 58.9499 47.4237 58.9499 37.3998H54.9499ZM40.7999 23.2498C48.6147 23.2498 54.9499 29.5849 54.9499 37.3998H58.9499C58.9499 27.3758 50.8239 19.2498 40.7999 19.2498V23.2498ZM26.6499 37.3998C26.6499 29.5849 32.9851 23.2498 40.7999 23.2498V19.2498C30.7759 19.2498 22.6499 27.3758 22.6499 37.3998H26.6499ZM40.7999 51.5498C32.9851 51.5498 26.6499 45.2146 26.6499 37.3998H22.6499C22.6499 47.4237 30.7759 55.5498 40.7999 55.5498V51.5498ZM27.9041 64.2998C27.9836 64.2998 28.0599 64.3314 28.1162 64.3876L25.2878 67.216C25.9817 67.9099 26.9228 68.2998 27.9041 68.2998V64.2998ZM53.4836 64.3876C53.5399 64.3314 53.6162 64.2998 53.6957 64.2998V68.2998C54.677 68.2998 55.6181 67.9099 56.312 67.216L53.4836 64.3876ZM67.6999 50.2956C67.6999 50.216 67.7315 50.1397 67.7878 50.0835L70.6162 52.9119C71.3101 52.218 71.6999 51.2769 71.6999 50.2956H67.6999ZM67.7878 24.716C67.7315 24.6598 67.6999 24.5835 67.6999 24.5039H71.6999C71.6999 23.5226 71.3101 22.5815 70.6162 21.8876L67.7878 24.716ZM53.6957 10.4998C53.6162 10.4998 53.5399 10.4681 53.4836 10.4119L56.312 7.58346C55.6181 6.88958 54.677 6.49976 53.6957 6.49976V10.4998ZM28.1162 10.4119C28.0599 10.4681 27.9836 10.4998 27.9041 10.4998V6.49976C26.9228 6.49976 25.9817 6.88958 25.2878 7.58346L28.1162 10.4119ZM9.8999 50.2956C9.8999 51.2769 10.2897 52.218 10.9836 52.9119L13.812 50.0835C13.8683 50.1397 13.8999 50.216 13.8999 50.2956H9.8999ZM13.8999 24.5039C13.8999 24.5835 13.8683 24.6598 13.812 24.716L10.9836 21.8876C10.2897 22.5815 9.8999 23.5226 9.8999 24.5039H13.8999Z" fill="#1B343E" mask="url(#path-6-outside-2_13912_367)"/>
<path d="M11.8999 50.2956V24.5039C11.8999 24.053 12.079 23.6206 12.3978 23.3018L26.702 8.99767C27.0208 8.67886 27.4532 8.49976 27.9041 8.49976H53.6957L40.7999 21.2498C31.8805 21.2498 24.6499 28.4804 24.6499 37.3998L11.8999 50.2956Z" fill="#B9D4DF"/>
<circle cx="37.6659" cy="12.8495" r="0.85" fill="#D0EBF7"/>
<circle cx="41.1493" cy="11.9162" r="0.85" fill="#D0EBF7"/>
<circle cx="45.574" cy="12.1724" r="0.6375" fill="#D0EBF7"/>
<circle cx="38.41" cy="10.9808" r="0.6375" fill="#D0EBF7"/>
<circle cx="40.4065" cy="15.5779" r="0.386353" transform="rotate(15 40.4065 15.5779)" fill="#D0EBF7"/>
<circle cx="40.3586" cy="13.6098" r="0.386353" transform="rotate(15 40.3586 13.6098)" fill="#D0EBF7"/>
<circle cx="34.0447" cy="10.946" r="0.386353" transform="rotate(15 34.0447 10.946)" fill="#D0EBF7"/>
<circle cx="35.5168" cy="11.7959" r="0.386353" transform="rotate(15 35.5168 11.7959)" fill="#D0EBF7"/>
<circle cx="33.9309" cy="12.8432" r="0.386353" transform="rotate(15 33.9309 12.8432)" fill="#D0EBF7"/>
<circle cx="32.1477" cy="10.8321" r="0.386353" transform="rotate(15 32.1477 10.8321)" fill="#D0EBF7"/>
<circle cx="35.7141" cy="14.8543" r="0.386353" transform="rotate(15 35.7141 14.8543)" fill="#D0EBF7"/>
<circle cx="38.7727" cy="14.657" r="0.386353" transform="rotate(15 38.7727 14.657)" fill="#D0EBF7"/>
<circle cx="44.3811" cy="10.0431" r="0.386353" transform="rotate(15 44.3811 10.0431)" fill="#D0EBF7"/>
<circle cx="47.4392" cy="9.84586" r="0.386353" transform="rotate(15 47.4392 9.84586)" fill="#D0EBF7"/>
<circle cx="42.9919" cy="14.1487" r="0.386353" transform="rotate(15 42.9919 14.1487)" fill="#D0EBF7"/>
<circle cx="43.531" cy="11.5153" r="0.386353" transform="rotate(15 43.531 11.5153)" fill="#D0EBF7"/>
<path d="M68 25.4998V50.1498L54.4 63.7498" stroke="#91ACB7" stroke-width="2" stroke-linecap="round" stroke-linejoin="round"/>
<path d="M13.6001 49.2998L13.6001 24.6498L27.2001 11.0498" stroke="#D4EFFB" stroke-width="2" stroke-linecap="round" stroke-linejoin="round"/>
<path d="M13.6001 28.8998V24.6498" stroke="#FAFEFF" stroke-width="2" stroke-linecap="round" stroke-linejoin="round"/>
<circle cx="40.7997" cy="37.3998" r="17.85" stroke="#CBE1EB" stroke-width="2" stroke-linejoin="round"/>
<path d="M29.7571 23.3748C26.2424 26.146 23.7945 30.2101 23.1309 34.8498" stroke="#E1F7FF" stroke-width="2" stroke-linecap="round" stroke-linejoin="round"/>
<circle cx="44.6251" cy="59.0748" r="1.275" fill="#8DADBA"/>
<circle cx="48.4501" cy="57.7998" r="0.85" fill="#8DADBA"/>
<circle cx="55.2499" cy="56.0998" r="0.85" fill="#8DADBA"/>
<circle cx="50.5749" cy="58.2248" r="0.425" fill="#8DADBA"/>
<circle cx="43.7751" cy="62.4748" r="0.425" fill="#8DADBA"/>
<circle cx="41.2248" cy="59.9248" r="0.425" fill="#8DADBA"/>
<circle cx="38.675" cy="61.6248" r="0.425" fill="#8DADBA"/>
<circle cx="34.425" cy="58.2248" r="0.425" fill="#8DADBA"/>
<circle cx="53.1252" cy="59.0748" r="0.425" fill="#8DADBA"/>
<circle cx="55.675" cy="52.2749" r="0.425" fill="#8DADBA"/>
<circle cx="57.3752" cy="53.1248" r="0.425" fill="#8DADBA"/>
<circle cx="57.3752" cy="49.7248" r="0.425" fill="#8DADBA"/>
<circle cx="50.1498" cy="61.1999" r="0.85" fill="#8DADBA"/>
<circle cx="46.7499" cy="62.0498" r="0.85" fill="#8DADBA"/>
<circle cx="37.3998" cy="59.4998" r="0.85" fill="#8DADBA"/>
<circle cx="51.85" cy="55.2498" r="0.85" fill="#8DADBA"/>
</g>
<defs>
<filter id="filter0_d_13912_367" x="9.8999" y="6.49976" width="61.7998" height="72.6001" filterUnits="userSpaceOnUse" color-interpolation-filters="sRGB">
<feFlood flood-opacity="0" result="BackgroundImageFix"/>
<feColorMatrix in="SourceAlpha" type="matrix" values="0 0 0 0 0 0 0 0 0 0 0 0 0 0 0 0 0 0 127 0" result="hardAlpha"/>
<feOffset dy="4"/>
<feComposite in2="hardAlpha" operator="out"/>
<feColorMatrix type="matrix" values="0 0 0 0 0.545098 0 0 0 0 0.568627 0 0 0 0 0.729412 0 0 0 1 0"/>
<feBlend mode="normal" in2="BackgroundImageFix" result="effect1_dropShadow_13912_367"/>
<feBlend mode="normal" in="SourceGraphic" in2="effect1_dropShadow_13912_367" result="shape"/>
</filter>
</defs>
</svg>
