<svg width="48" height="46" viewBox="0 0 48 46" fill="none" xmlns="http://www.w3.org/2000/svg">
<g id="Group 1552">
<path id="Vector 387" d="M13.9225 15.3739L3.96368 17.372C1.78424 17.8093 0.968978 20.4972 2.5383 22.0715L10.7653 30.3245C11.159 30.7195 11.3299 31.2849 11.2208 31.8318L9.34541 41.2387C8.89186 43.5136 11.2541 45.3144 13.3276 44.2743L23.2505 39.2972C23.7222 39.0605 24.278 39.0605 24.7497 39.2972L34.6726 44.2743C36.7461 45.3144 39.1083 43.5136 38.6548 41.2387L36.7794 31.8318C36.6703 31.2849 36.8412 30.7195 37.2349 30.3245L45.4619 22.0715C47.0312 20.4972 46.216 17.8093 44.0365 17.372L34.0777 15.3739C33.6154 15.2812 33.2137 14.9975 32.9717 14.5928L26.3916 3.59118C25.31 1.78285 22.6902 1.78285 21.6086 3.59118L19.0218 7.91624L15.0285 14.5928C14.7865 14.9975 14.3848 15.2812 13.9225 15.3739Z" fill="#F7B307" stroke="#5B3303" stroke-width="1.11464" stroke-linecap="round" stroke-linejoin="round"/>
<path id="Vector 1740" d="M21.7147 24.1072L16.5718 32.1072" stroke="#FFC530" stroke-width="1.11464" stroke-linecap="round" stroke-linejoin="round"/>
<path id="Vector 1739" d="M44.9934 21.7526L38.0363 28.7317C37.3397 29.4306 36.2665 29.5883 35.3982 29.1194L24.0005 22.9642L33.1021 15.5356C33.3649 15.7259 33.668 15.8601 33.993 15.9254L43.8242 17.8978C45.6119 18.2565 46.2806 20.4613 44.9934 21.7526Z" fill="#FFC01D"/>
<path id="Vector 1741" d="M28.5713 21.25L37.7142 20.1072" stroke="#FFD363" stroke-width="1.11464" stroke-linecap="round" stroke-linejoin="round"/>
<path id="Vector 389" d="M22.9753 38.8119L13.181 43.7246C12.3519 44.1405 11.4665 44.0026 10.8198 43.5358L24.0001 22.9643L45.6614 20.1072C45.6722 20.6879 45.463 21.2812 44.993 21.7527L36.8615 29.9099C36.3232 30.4499 36.0897 31.2228 36.2387 31.9705L38.0857 41.2346C38.4577 43.1006 36.5201 44.5777 34.8193 43.7246L25.0249 38.8119C24.38 38.4884 23.6202 38.4884 22.9753 38.8119Z" fill="#CF9500"/>
<path id="Vector 390" d="M36.2392 31.9704L38.0861 41.2345C38.2768 42.1909 37.8608 43.0451 37.1809 43.5358L24.0005 22.9642L36.862 29.9099C36.3237 30.4498 36.0901 31.2227 36.2392 31.9704Z" fill="#B97D08"/>
<path id="Vector 388" d="M4.17646 17.8978L14.0076 15.9253C14.6397 15.7985 15.1888 15.4107 15.5196 14.8575L22.0385 3.95829C22.4821 3.21667 23.241 2.84584 24.0001 2.84583V22.9642L2.42139 19.5356C2.63629 18.7521 3.25902 18.0819 4.17646 17.8978Z" fill="#FFD056"/>
<path id="Vector 1737" d="M6.85742 18.9643L22.5718 20.9643L22.8575 6.39282" stroke="#FFE39A" stroke-width="1.11464" stroke-linecap="round" stroke-linejoin="round"/>
<path id="Vector 1738" d="M22.5717 20.9643L18.8574 20.4916" stroke="#FFFBF0" stroke-width="1.11464" stroke-linecap="round" stroke-linejoin="round"/>
<g id="Group 1551">
<circle id="Ellipse 799" cx="23.7141" cy="27.25" r="0.857146" fill="#BA8600"/>
<circle id="Ellipse 800" cx="26.0001" cy="29.5357" r="0.285715" fill="#BA8600"/>
<circle id="Ellipse 804" cx="22.0001" cy="31.8215" r="0.285715" fill="#BA8600"/>
<circle id="Ellipse 805" cx="25.4288" cy="31.2501" r="0.285715" fill="#BA8600"/>
<circle id="Ellipse 806" cx="29.4288" cy="33.5358" r="0.285715" fill="#BA8600"/>
<circle id="Ellipse 808" cx="25.4288" cy="27.2501" r="0.285715" fill="#BA8600"/>
<circle id="Ellipse 809" cx="23.7144" cy="24.9643" r="0.285715" fill="#BA8600"/>
<circle id="Ellipse 810" cx="26.5714" cy="32.9643" r="0.285715" fill="#BA8600"/>
<circle id="Ellipse 801" cx="24.5714" cy="29.25" r="0.571431" fill="#BA8600"/>
<circle id="Ellipse 803" cx="24.0001" cy="31.5358" r="0.571431" fill="#BA8600"/>
<circle id="Ellipse 807" cx="27.4284" cy="31.5358" r="0.571431" fill="#BA8600"/>
<circle id="Ellipse 802" cx="22.2858" cy="29.8214" r="0.571431" fill="#BA8600"/>
</g>
</g>
</svg>
