<svg width="1032" height="606" viewBox="0 0 1032 606" fill="none" xmlns="http://www.w3.org/2000/svg">
<rect width="658" height="412" transform="translate(190 109)" fill="url(#paint0_radial_16104_29761)" fill-opacity="0.95"/>
<path d="M435 320.5L226 253.5L207 190.5L296 163L435 320.5L454.5 489.5L190 498L327 463.5L435 320.5L244.5 419.5L207 331.5L435 320.5Z" fill="url(#paint1_radial_16104_29761)" fill-opacity="0.5"/>
<path d="M683 459.5L596 320.5C595.688 320.347 595.773 320.07 596.223 319.683L651.5 117.5L780 176.5C716.563 225.791 626.024 299.071 601.967 316.622C629.294 304.406 740.999 268.221 802 263L816 340.5C814.667 339.833 763.2 356.1 596 320.5L780 389L816 476L683 459.5Z" fill="url(#paint2_radial_16104_29761)" fill-opacity="0.5"/>
<path d="M518 489.5V361L596 476L518 489.5Z" fill="url(#paint3_radial_16104_29761)" fill-opacity="0.5"/>
<path d="M512 271.5L383.5 125.5L544 117.5L512 271.5Z" fill="url(#paint4_radial_16104_29761)" fill-opacity="0.5"/>
<g filter="url(#filter0_d_16104_29761)">
<mask id="path-2-outside-1_16104_29761" maskUnits="userSpaceOnUse" x="281" y="147" width="475" height="65" fill="black">
<rect fill="white" x="281" y="147" width="475" height="65"/>
<path d="M307.484 182.88H316.444V192.032L309.02 196.32H290.908L283.484 192.032V155.168L290.908 150.88H309.02L316.444 155.168V164.32H307.484V158.56H292.444V188.64H307.484V182.88ZM351.951 192.032L344.527 196.32H330.895L323.471 192.032V167.968L330.895 163.68H344.527L351.951 167.968V192.032ZM332.239 171.168V188.832H343.183V171.168H332.239ZM387.454 167.968V196H378.686V171.168H367.742V196H358.974V163.68H366.206L367.742 166.304L372.286 163.68H380.03L387.454 167.968ZM393.196 204.832V200.352L400.62 196L394.476 192.416V186.656L399.02 184.032L394.476 181.408V168.288L401.9 164H423.596V168.096L417.772 171.488L421.676 173.792V180.704L414.252 184.992H403.244V189.152H416.172L423.596 193.44V204.832L416.172 209.12H400.62L393.196 204.832ZM414.828 196H401.964V201.76H414.828V196ZM403.244 171.168V177.824H412.908V171.168H403.244ZM449.13 171.488H438.122V196H429.354V164H436.586L438.122 166.624L442.666 164H449.13V171.488ZM460.469 183.392V188.96H469.493V183.392H460.469ZM459.125 196.32L451.701 192.032V180.96L459.125 176.672H469.493V171.488H454.901V164H470.837L478.261 168.288V196.32H474.037L469.493 193.696L464.949 196.32H459.125ZM482.736 171.488V164H488.624V158.624L497.392 153.568V164H504.432V171.488H497.392V188.512H504.432V196H496.048L488.624 191.712V171.488H482.736ZM510.174 192.032V164H518.942V188.832H529.886V164H538.654V196.32H531.422L529.886 193.696L525.342 196.32H517.598L510.174 192.032ZM553.1 196L545.676 191.712V149.28H554.444V188.512H560.844V196H553.1ZM571.542 183.392V188.96H580.566V183.392H571.542ZM570.198 196.32L562.774 192.032V180.96L570.198 176.672H580.566V171.488H565.974V164H581.91L589.334 168.288V196.32H585.11L580.566 193.696L576.022 196.32H570.198ZM593.809 171.488V164H599.697V158.624L608.465 153.568V164H615.505V171.488H608.465V188.512H615.505V196H607.121L599.697 191.712V171.488H593.809ZM630.014 164V196H621.246V164H630.014ZM620.926 158.048V149.28H630.334V158.048H620.926ZM665.541 192.032L658.117 196.32H644.485L637.061 192.032V167.968L644.485 163.68H658.117L665.541 167.968V192.032ZM645.829 171.168V188.832H656.773V171.168H645.829ZM701.044 167.968V196H692.276V171.168H681.332V196H672.564V163.68H679.796L681.332 166.304L685.876 163.68H693.62L701.044 167.968ZM733.41 180.256V191.712L725.986 196H708.066V188.512H724.642V183.584H715.49L708.066 179.296V168.288L715.49 164H732.77V171.488H716.834V175.968H725.986L733.41 180.256ZM741.724 196V183.84H753.884V196H741.724ZM743.964 177.568L742.3 149.28H753.308L751.644 177.568H743.964Z"/>
</mask>
<path d="M307.484 182.88H316.444V192.032L309.02 196.32H290.908L283.484 192.032V155.168L290.908 150.88H309.02L316.444 155.168V164.32H307.484V158.56H292.444V188.64H307.484V182.88ZM351.951 192.032L344.527 196.32H330.895L323.471 192.032V167.968L330.895 163.68H344.527L351.951 167.968V192.032ZM332.239 171.168V188.832H343.183V171.168H332.239ZM387.454 167.968V196H378.686V171.168H367.742V196H358.974V163.68H366.206L367.742 166.304L372.286 163.68H380.03L387.454 167.968ZM393.196 204.832V200.352L400.62 196L394.476 192.416V186.656L399.02 184.032L394.476 181.408V168.288L401.9 164H423.596V168.096L417.772 171.488L421.676 173.792V180.704L414.252 184.992H403.244V189.152H416.172L423.596 193.44V204.832L416.172 209.12H400.62L393.196 204.832ZM414.828 196H401.964V201.76H414.828V196ZM403.244 171.168V177.824H412.908V171.168H403.244ZM449.13 171.488H438.122V196H429.354V164H436.586L438.122 166.624L442.666 164H449.13V171.488ZM460.469 183.392V188.96H469.493V183.392H460.469ZM459.125 196.32L451.701 192.032V180.96L459.125 176.672H469.493V171.488H454.901V164H470.837L478.261 168.288V196.32H474.037L469.493 193.696L464.949 196.32H459.125ZM482.736 171.488V164H488.624V158.624L497.392 153.568V164H504.432V171.488H497.392V188.512H504.432V196H496.048L488.624 191.712V171.488H482.736ZM510.174 192.032V164H518.942V188.832H529.886V164H538.654V196.32H531.422L529.886 193.696L525.342 196.32H517.598L510.174 192.032ZM553.1 196L545.676 191.712V149.28H554.444V188.512H560.844V196H553.1ZM571.542 183.392V188.96H580.566V183.392H571.542ZM570.198 196.32L562.774 192.032V180.96L570.198 176.672H580.566V171.488H565.974V164H581.91L589.334 168.288V196.32H585.11L580.566 193.696L576.022 196.32H570.198ZM593.809 171.488V164H599.697V158.624L608.465 153.568V164H615.505V171.488H608.465V188.512H615.505V196H607.121L599.697 191.712V171.488H593.809ZM630.014 164V196H621.246V164H630.014ZM620.926 158.048V149.28H630.334V158.048H620.926ZM665.541 192.032L658.117 196.32H644.485L637.061 192.032V167.968L644.485 163.68H658.117L665.541 167.968V192.032ZM645.829 171.168V188.832H656.773V171.168H645.829ZM701.044 167.968V196H692.276V171.168H681.332V196H672.564V163.68H679.796L681.332 166.304L685.876 163.68H693.62L701.044 167.968ZM733.41 180.256V191.712L725.986 196H708.066V188.512H724.642V183.584H715.49L708.066 179.296V168.288L715.49 164H732.77V171.488H716.834V175.968H725.986L733.41 180.256ZM741.724 196V183.84H753.884V196H741.724ZM743.964 177.568L742.3 149.28H753.308L751.644 177.568H743.964Z" fill="white"/>
<path d="M307.484 182.88V180.88H305.484V182.88H307.484ZM316.444 182.88H318.444V180.88H316.444V182.88ZM316.444 192.032L317.444 193.764L318.444 193.186V192.032H316.444ZM309.02 196.32V198.32H309.556L310.02 198.052L309.02 196.32ZM290.908 196.32L289.907 198.052L290.372 198.32H290.908V196.32ZM283.484 192.032H281.484V193.186L282.483 193.764L283.484 192.032ZM283.484 155.168L282.483 153.436L281.484 154.014V155.168H283.484ZM290.908 150.88V148.88H290.372L289.907 149.148L290.908 150.88ZM309.02 150.88L310.02 149.148L309.556 148.88H309.02V150.88ZM316.444 155.168H318.444V154.014L317.444 153.436L316.444 155.168ZM316.444 164.32V166.32H318.444V164.32H316.444ZM307.484 164.32H305.484V166.32H307.484V164.32ZM307.484 158.56H309.484V156.56H307.484V158.56ZM292.444 158.56V156.56H290.444V158.56H292.444ZM292.444 188.64H290.444V190.64H292.444V188.64ZM307.484 188.64V190.64H309.484V188.64H307.484ZM307.484 184.88H316.444V180.88H307.484V184.88ZM314.444 182.88V192.032H318.444V182.88H314.444ZM315.443 190.3L308.019 194.588L310.02 198.052L317.444 193.764L315.443 190.3ZM309.02 194.32H290.908V198.32H309.02V194.32ZM291.908 194.588L284.484 190.3L282.483 193.764L289.907 198.052L291.908 194.588ZM285.484 192.032V155.168H281.484V192.032H285.484ZM284.484 156.9L291.908 152.612L289.907 149.148L282.483 153.436L284.484 156.9ZM290.908 152.88H309.02V148.88H290.908V152.88ZM308.019 152.612L315.443 156.9L317.444 153.436L310.02 149.148L308.019 152.612ZM314.444 155.168V164.32H318.444V155.168H314.444ZM316.444 162.32H307.484V166.32H316.444V162.32ZM309.484 164.32V158.56H305.484V164.32H309.484ZM307.484 156.56H292.444V160.56H307.484V156.56ZM290.444 158.56V188.64H294.444V158.56H290.444ZM292.444 190.64H307.484V186.64H292.444V190.64ZM309.484 188.64V182.88H305.484V188.64H309.484ZM351.951 192.032L352.952 193.764L353.951 193.186V192.032H351.951ZM344.527 196.32V198.32H345.063L345.528 198.052L344.527 196.32ZM330.895 196.32L329.895 198.052L330.359 198.32H330.895V196.32ZM323.471 192.032H321.471V193.186L322.471 193.764L323.471 192.032ZM323.471 167.968L322.471 166.236L321.471 166.814V167.968H323.471ZM330.895 163.68V161.68H330.359L329.895 161.948L330.895 163.68ZM344.527 163.68L345.528 161.948L345.063 161.68H344.527V163.68ZM351.951 167.968H353.951V166.814L352.952 166.236L351.951 167.968ZM332.239 171.168V169.168H330.239V171.168H332.239ZM332.239 188.832H330.239V190.832H332.239V188.832ZM343.183 188.832V190.832H345.183V188.832H343.183ZM343.183 171.168H345.183V169.168H343.183V171.168ZM350.951 190.3L343.527 194.588L345.528 198.052L352.952 193.764L350.951 190.3ZM344.527 194.32H330.895V198.32H344.527V194.32ZM331.896 194.588L324.472 190.3L322.471 193.764L329.895 198.052L331.896 194.588ZM325.471 192.032V167.968H321.471V192.032H325.471ZM324.472 169.7L331.896 165.412L329.895 161.948L322.471 166.236L324.472 169.7ZM330.895 165.68H344.527V161.68H330.895V165.68ZM343.527 165.412L350.951 169.7L352.952 166.236L345.528 161.948L343.527 165.412ZM349.951 167.968V192.032H353.951V167.968H349.951ZM330.239 171.168V188.832H334.239V171.168H330.239ZM332.239 190.832H343.183V186.832H332.239V190.832ZM345.183 188.832V171.168H341.183V188.832H345.183ZM343.183 169.168H332.239V173.168H343.183V169.168ZM387.454 167.968H389.454V166.814L388.454 166.236L387.454 167.968ZM387.454 196V198H389.454V196H387.454ZM378.686 196H376.686V198H378.686V196ZM378.686 171.168H380.686V169.168H378.686V171.168ZM367.742 171.168V169.168H365.742V171.168H367.742ZM367.742 196V198H369.742V196H367.742ZM358.974 196H356.974V198H358.974V196ZM358.974 163.68V161.68H356.974V163.68H358.974ZM366.206 163.68L367.932 162.67L367.352 161.68H366.206V163.68ZM367.742 166.304L366.016 167.314L367.02 169.03L368.742 168.036L367.742 166.304ZM372.286 163.68V161.68H371.75L371.286 161.948L372.286 163.68ZM380.03 163.68L381.03 161.948L380.566 161.68H380.03V163.68ZM385.454 167.968V196H389.454V167.968H385.454ZM387.454 194H378.686V198H387.454V194ZM380.686 196V171.168H376.686V196H380.686ZM378.686 169.168H367.742V173.168H378.686V169.168ZM365.742 171.168V196H369.742V171.168H365.742ZM367.742 194H358.974V198H367.742V194ZM360.974 196V163.68H356.974V196H360.974ZM358.974 165.68H366.206V161.68H358.974V165.68ZM364.48 164.69L366.016 167.314L369.468 165.294L367.932 162.67L364.48 164.69ZM368.742 168.036L373.286 165.412L371.286 161.948L366.742 164.572L368.742 168.036ZM372.286 165.68H380.03V161.68H372.286V165.68ZM379.029 165.412L386.453 169.7L388.454 166.236L381.03 161.948L379.029 165.412ZM393.196 204.832H391.196V205.986L392.196 206.564L393.196 204.832ZM393.196 200.352L392.185 198.627L391.196 199.206V200.352H393.196ZM400.62 196L401.632 197.725L404.582 195.996L401.628 194.272L400.62 196ZM394.476 192.416H392.476V193.565L393.469 194.144L394.476 192.416ZM394.476 186.656L393.476 184.924L392.476 185.501V186.656H394.476ZM399.02 184.032L400.02 185.764L403.02 184.032L400.02 182.3L399.02 184.032ZM394.476 181.408H392.476V182.563L393.476 183.14L394.476 181.408ZM394.476 168.288L393.476 166.556L392.476 167.134V168.288H394.476ZM401.9 164V162H401.364L400.9 162.268L401.9 164ZM423.596 164H425.596V162H423.596V164ZM423.596 168.096L424.603 169.824L425.596 169.246V168.096H423.596ZM417.772 171.488L416.766 169.76L413.818 171.477L416.756 173.21L417.772 171.488ZM421.676 173.792H423.676V172.65L422.693 172.07L421.676 173.792ZM421.676 180.704L422.677 182.436L423.676 181.858V180.704H421.676ZM414.252 184.992V186.992H414.788L415.253 186.724L414.252 184.992ZM403.244 184.992V182.992H401.244V184.992H403.244ZM403.244 189.152H401.244V191.152H403.244V189.152ZM416.172 189.152L417.173 187.42L416.708 187.152H416.172V189.152ZM423.596 193.44H425.596V192.286L424.597 191.708L423.596 193.44ZM423.596 204.832L424.597 206.564L425.596 205.986V204.832H423.596ZM416.172 209.12V211.12H416.708L417.173 210.852L416.172 209.12ZM400.62 209.12L399.62 210.852L400.084 211.12H400.62V209.12ZM414.828 196H416.828V194H414.828V196ZM401.964 196V194H399.964V196H401.964ZM401.964 201.76H399.964V203.76H401.964V201.76ZM414.828 201.76V203.76H416.828V201.76H414.828ZM403.244 171.168V169.168H401.244V171.168H403.244ZM403.244 177.824H401.244V179.824H403.244V177.824ZM412.908 177.824V179.824H414.908V177.824H412.908ZM412.908 171.168H414.908V169.168H412.908V171.168ZM395.196 204.832V200.352H391.196V204.832H395.196ZM394.208 202.077L401.632 197.725L399.609 194.275L392.185 198.627L394.208 202.077ZM401.628 194.272L395.484 190.688L393.469 194.144L399.613 197.728L401.628 194.272ZM396.476 192.416V186.656H392.476V192.416H396.476ZM395.476 188.388L400.02 185.764L398.02 182.3L393.476 184.924L395.476 188.388ZM400.02 182.3L395.476 179.676L393.476 183.14L398.02 185.764L400.02 182.3ZM396.476 181.408V168.288H392.476V181.408H396.476ZM395.477 170.02L402.901 165.732L400.9 162.268L393.476 166.556L395.477 170.02ZM401.9 166H423.596V162H401.9V166ZM421.596 164V168.096H425.596V164H421.596ZM422.59 166.368L416.766 169.76L418.779 173.216L424.603 169.824L422.59 166.368ZM416.756 173.21L420.66 175.514L422.693 172.07L418.789 169.766L416.756 173.21ZM419.676 173.792V180.704H423.676V173.792H419.676ZM420.676 178.972L413.252 183.26L415.253 186.724L422.677 182.436L420.676 178.972ZM414.252 182.992H403.244V186.992H414.252V182.992ZM401.244 184.992V189.152H405.244V184.992H401.244ZM403.244 191.152H416.172V187.152H403.244V191.152ZM415.172 190.884L422.596 195.172L424.597 191.708L417.173 187.42L415.172 190.884ZM421.596 193.44V204.832H425.596V193.44H421.596ZM422.596 203.1L415.172 207.388L417.173 210.852L424.597 206.564L422.596 203.1ZM416.172 207.12H400.62V211.12H416.172V207.12ZM401.621 207.388L394.197 203.1L392.196 206.564L399.62 210.852L401.621 207.388ZM414.828 194H401.964V198H414.828V194ZM399.964 196V201.76H403.964V196H399.964ZM401.964 203.76H414.828V199.76H401.964V203.76ZM416.828 201.76V196H412.828V201.76H416.828ZM401.244 171.168V177.824H405.244V171.168H401.244ZM403.244 179.824H412.908V175.824H403.244V179.824ZM414.908 177.824V171.168H410.908V177.824H414.908ZM412.908 169.168H403.244V173.168H412.908V169.168ZM449.13 171.488V173.488H451.13V171.488H449.13ZM438.122 171.488V169.488H436.122V171.488H438.122ZM438.122 196V198H440.122V196H438.122ZM429.354 196H427.354V198H429.354V196ZM429.354 164V162H427.354V164H429.354ZM436.586 164L438.312 162.99L437.732 162H436.586V164ZM438.122 166.624L436.396 167.634L437.4 169.35L439.122 168.356L438.122 166.624ZM442.666 164V162H442.13L441.666 162.268L442.666 164ZM449.13 164H451.13V162H449.13V164ZM449.13 169.488H438.122V173.488H449.13V169.488ZM436.122 171.488V196H440.122V171.488H436.122ZM438.122 194H429.354V198H438.122V194ZM431.354 196V164H427.354V196H431.354ZM429.354 166H436.586V162H429.354V166ZM434.86 165.01L436.396 167.634L439.848 165.614L438.312 162.99L434.86 165.01ZM439.122 168.356L443.666 165.732L441.666 162.268L437.122 164.892L439.122 168.356ZM442.666 166H449.13V162H442.666V166ZM447.13 164V171.488H451.13V164H447.13ZM460.469 183.392V181.392H458.469V183.392H460.469ZM460.469 188.96H458.469V190.96H460.469V188.96ZM469.493 188.96V190.96H471.493V188.96H469.493ZM469.493 183.392H471.493V181.392H469.493V183.392ZM459.125 196.32L458.125 198.052L458.589 198.32H459.125V196.32ZM451.701 192.032H449.701V193.186L450.701 193.764L451.701 192.032ZM451.701 180.96L450.701 179.228L449.701 179.806V180.96H451.701ZM459.125 176.672V174.672H458.589L458.125 174.94L459.125 176.672ZM469.493 176.672V178.672H471.493V176.672H469.493ZM469.493 171.488H471.493V169.488H469.493V171.488ZM454.901 171.488H452.901V173.488H454.901V171.488ZM454.901 164V162H452.901V164H454.901ZM470.837 164L471.838 162.268L471.373 162H470.837V164ZM478.261 168.288H480.261V167.134L479.262 166.556L478.261 168.288ZM478.261 196.32V198.32H480.261V196.32H478.261ZM474.037 196.32L473.037 198.052L473.501 198.32H474.037V196.32ZM469.493 193.696L470.493 191.964L469.493 191.386L468.493 191.964L469.493 193.696ZM464.949 196.32V198.32H465.485L465.949 198.052L464.949 196.32ZM458.469 183.392V188.96H462.469V183.392H458.469ZM460.469 190.96H469.493V186.96H460.469V190.96ZM471.493 188.96V183.392H467.493V188.96H471.493ZM469.493 181.392H460.469V185.392H469.493V181.392ZM460.126 194.588L452.702 190.3L450.701 193.764L458.125 198.052L460.126 194.588ZM453.701 192.032V180.96H449.701V192.032H453.701ZM452.702 182.692L460.126 178.404L458.125 174.94L450.701 179.228L452.702 182.692ZM459.125 178.672H469.493V174.672H459.125V178.672ZM471.493 176.672V171.488H467.493V176.672H471.493ZM469.493 169.488H454.901V173.488H469.493V169.488ZM456.901 171.488V164H452.901V171.488H456.901ZM454.901 166H470.837V162H454.901V166ZM469.837 165.732L477.261 170.02L479.262 166.556L471.838 162.268L469.837 165.732ZM476.261 168.288V196.32H480.261V168.288H476.261ZM478.261 194.32H474.037V198.32H478.261V194.32ZM475.037 194.588L470.493 191.964L468.493 195.428L473.037 198.052L475.037 194.588ZM468.493 191.964L463.949 194.588L465.949 198.052L470.493 195.428L468.493 191.964ZM464.949 194.32H459.125V198.32H464.949V194.32ZM482.736 171.488H480.736V173.488H482.736V171.488ZM482.736 164V162H480.736V164H482.736ZM488.624 164V166H490.624V164H488.624ZM488.624 158.624L487.625 156.891L486.624 157.469V158.624H488.624ZM497.392 153.568H499.392V150.106L496.393 151.835L497.392 153.568ZM497.392 164H495.392V166H497.392V164ZM504.432 164H506.432V162H504.432V164ZM504.432 171.488V173.488H506.432V171.488H504.432ZM497.392 171.488V169.488H495.392V171.488H497.392ZM497.392 188.512H495.392V190.512H497.392V188.512ZM504.432 188.512H506.432V186.512H504.432V188.512ZM504.432 196V198H506.432V196H504.432ZM496.048 196L495.048 197.732L495.512 198H496.048V196ZM488.624 191.712H486.624V192.866L487.624 193.444L488.624 191.712ZM488.624 171.488H490.624V169.488H488.624V171.488ZM484.736 171.488V164H480.736V171.488H484.736ZM482.736 166H488.624V162H482.736V166ZM490.624 164V158.624H486.624V164H490.624ZM489.623 160.357L498.391 155.301L496.393 151.835L487.625 156.891L489.623 160.357ZM495.392 153.568V164H499.392V153.568H495.392ZM497.392 166H504.432V162H497.392V166ZM502.432 164V171.488H506.432V164H502.432ZM504.432 169.488H497.392V173.488H504.432V169.488ZM495.392 171.488V188.512H499.392V171.488H495.392ZM497.392 190.512H504.432V186.512H497.392V190.512ZM502.432 188.512V196H506.432V188.512H502.432ZM504.432 194H496.048V198H504.432V194ZM497.049 194.268L489.625 189.98L487.624 193.444L495.048 197.732L497.049 194.268ZM490.624 191.712V171.488H486.624V191.712H490.624ZM488.624 169.488H482.736V173.488H488.624V169.488ZM510.174 192.032H508.174V193.186L509.173 193.764L510.174 192.032ZM510.174 164V162H508.174V164H510.174ZM518.942 164H520.942V162H518.942V164ZM518.942 188.832H516.942V190.832H518.942V188.832ZM529.886 188.832V190.832H531.886V188.832H529.886ZM529.886 164V162H527.886V164H529.886ZM538.654 164H540.654V162H538.654V164ZM538.654 196.32V198.32H540.654V196.32H538.654ZM531.422 196.32L529.696 197.33L530.275 198.32H531.422V196.32ZM529.886 193.696L531.612 192.686L530.607 190.97L528.886 191.964L529.886 193.696ZM525.342 196.32V198.32H525.878L526.342 198.052L525.342 196.32ZM517.598 196.32L516.597 198.052L517.062 198.32H517.598V196.32ZM512.174 192.032V164H508.174V192.032H512.174ZM510.174 166H518.942V162H510.174V166ZM516.942 164V188.832H520.942V164H516.942ZM518.942 190.832H529.886V186.832H518.942V190.832ZM531.886 188.832V164H527.886V188.832H531.886ZM529.886 166H538.654V162H529.886V166ZM536.654 164V196.32H540.654V164H536.654ZM538.654 194.32H531.422V198.32H538.654V194.32ZM533.148 195.31L531.612 192.686L528.16 194.706L529.696 197.33L533.148 195.31ZM528.886 191.964L524.342 194.588L526.342 198.052L530.886 195.428L528.886 191.964ZM525.342 194.32H517.598V198.32H525.342V194.32ZM518.598 194.588L511.174 190.3L509.173 193.764L516.597 198.052L518.598 194.588ZM553.1 196L552.1 197.732L552.564 198H553.1V196ZM545.676 191.712H543.676V192.866L544.676 193.444L545.676 191.712ZM545.676 149.28V147.28H543.676V149.28H545.676ZM554.444 149.28H556.444V147.28H554.444V149.28ZM554.444 188.512H552.444V190.512H554.444V188.512ZM560.844 188.512H562.844V186.512H560.844V188.512ZM560.844 196V198H562.844V196H560.844ZM554.101 194.268L546.677 189.98L544.676 193.444L552.1 197.732L554.101 194.268ZM547.676 191.712V149.28H543.676V191.712H547.676ZM545.676 151.28H554.444V147.28H545.676V151.28ZM552.444 149.28V188.512H556.444V149.28H552.444ZM554.444 190.512H560.844V186.512H554.444V190.512ZM558.844 188.512V196H562.844V188.512H558.844ZM560.844 194H553.1V198H560.844V194ZM571.542 183.392V181.392H569.542V183.392H571.542ZM571.542 188.96H569.542V190.96H571.542V188.96ZM580.566 188.96V190.96H582.566V188.96H580.566ZM580.566 183.392H582.566V181.392H580.566V183.392ZM570.198 196.32L569.197 198.052L569.662 198.32H570.198V196.32ZM562.774 192.032H560.774V193.186L561.773 193.764L562.774 192.032ZM562.774 180.96L561.773 179.228L560.774 179.806V180.96H562.774ZM570.198 176.672V174.672H569.662L569.197 174.94L570.198 176.672ZM580.566 176.672V178.672H582.566V176.672H580.566ZM580.566 171.488H582.566V169.488H580.566V171.488ZM565.974 171.488H563.974V173.488H565.974V171.488ZM565.974 164V162H563.974V164H565.974ZM581.91 164L582.91 162.268L582.446 162H581.91V164ZM589.334 168.288H591.334V167.134L590.334 166.556L589.334 168.288ZM589.334 196.32V198.32H591.334V196.32H589.334ZM585.11 196.32L584.11 198.052L584.574 198.32H585.11V196.32ZM580.566 193.696L581.566 191.964L580.566 191.386L579.566 191.964L580.566 193.696ZM576.022 196.32V198.32H576.558L577.022 198.052L576.022 196.32ZM569.542 183.392V188.96H573.542V183.392H569.542ZM571.542 190.96H580.566V186.96H571.542V190.96ZM582.566 188.96V183.392H578.566V188.96H582.566ZM580.566 181.392H571.542V185.392H580.566V181.392ZM571.198 194.588L563.774 190.3L561.773 193.764L569.197 198.052L571.198 194.588ZM564.774 192.032V180.96H560.774V192.032H564.774ZM563.774 182.692L571.198 178.404L569.197 174.94L561.773 179.228L563.774 182.692ZM570.198 178.672H580.566V174.672H570.198V178.672ZM582.566 176.672V171.488H578.566V176.672H582.566ZM580.566 169.488H565.974V173.488H580.566V169.488ZM567.974 171.488V164H563.974V171.488H567.974ZM565.974 166H581.91V162H565.974V166ZM580.909 165.732L588.333 170.02L590.334 166.556L582.91 162.268L580.909 165.732ZM587.334 168.288V196.32H591.334V168.288H587.334ZM589.334 194.32H585.11V198.32H589.334V194.32ZM586.11 194.588L581.566 191.964L579.566 195.428L584.11 198.052L586.11 194.588ZM579.566 191.964L575.022 194.588L577.022 198.052L581.566 195.428L579.566 191.964ZM576.022 194.32H570.198V198.32H576.022V194.32ZM593.809 171.488H591.809V173.488H593.809V171.488ZM593.809 164V162H591.809V164H593.809ZM599.697 164V166H601.697V164H599.697ZM599.697 158.624L598.698 156.891L597.697 157.469V158.624H599.697ZM608.465 153.568H610.465V150.106L607.466 151.835L608.465 153.568ZM608.465 164H606.465V166H608.465V164ZM615.505 164H617.505V162H615.505V164ZM615.505 171.488V173.488H617.505V171.488H615.505ZM608.465 171.488V169.488H606.465V171.488H608.465ZM608.465 188.512H606.465V190.512H608.465V188.512ZM615.505 188.512H617.505V186.512H615.505V188.512ZM615.505 196V198H617.505V196H615.505ZM607.121 196L606.12 197.732L606.585 198H607.121V196ZM599.697 191.712H597.697V192.866L598.696 193.444L599.697 191.712ZM599.697 171.488H601.697V169.488H599.697V171.488ZM595.809 171.488V164H591.809V171.488H595.809ZM593.809 166H599.697V162H593.809V166ZM601.697 164V158.624H597.697V164H601.697ZM600.696 160.357L609.464 155.301L607.466 151.835L598.698 156.891L600.696 160.357ZM606.465 153.568V164H610.465V153.568H606.465ZM608.465 166H615.505V162H608.465V166ZM613.505 164V171.488H617.505V164H613.505ZM615.505 169.488H608.465V173.488H615.505V169.488ZM606.465 171.488V188.512H610.465V171.488H606.465ZM608.465 190.512H615.505V186.512H608.465V190.512ZM613.505 188.512V196H617.505V188.512H613.505ZM615.505 194H607.121V198H615.505V194ZM608.121 194.268L600.697 189.98L598.696 193.444L606.12 197.732L608.121 194.268ZM601.697 191.712V171.488H597.697V191.712H601.697ZM599.697 169.488H593.809V173.488H599.697V169.488ZM630.014 164H632.014V162H630.014V164ZM630.014 196V198H632.014V196H630.014ZM621.246 196H619.246V198H621.246V196ZM621.246 164V162H619.246V164H621.246ZM620.926 158.048H618.926V160.048H620.926V158.048ZM620.926 149.28V147.28H618.926V149.28H620.926ZM630.334 149.28H632.334V147.28H630.334V149.28ZM630.334 158.048V160.048H632.334V158.048H630.334ZM628.014 164V196H632.014V164H628.014ZM630.014 194H621.246V198H630.014V194ZM623.246 196V164H619.246V196H623.246ZM621.246 166H630.014V162H621.246V166ZM622.926 158.048V149.28H618.926V158.048H622.926ZM620.926 151.28H630.334V147.28H620.926V151.28ZM628.334 149.28V158.048H632.334V149.28H628.334ZM630.334 156.048H620.926V160.048H630.334V156.048ZM665.541 192.032L666.542 193.764L667.541 193.186V192.032H665.541ZM658.117 196.32V198.32H658.653L659.118 198.052L658.117 196.32ZM644.485 196.32L643.485 198.052L643.949 198.32H644.485V196.32ZM637.061 192.032H635.061V193.186L636.061 193.764L637.061 192.032ZM637.061 167.968L636.061 166.236L635.061 166.814V167.968H637.061ZM644.485 163.68V161.68H643.949L643.485 161.948L644.485 163.68ZM658.117 163.68L659.118 161.948L658.653 161.68H658.117V163.68ZM665.541 167.968H667.541V166.814L666.542 166.236L665.541 167.968ZM645.829 171.168V169.168H643.829V171.168H645.829ZM645.829 188.832H643.829V190.832H645.829V188.832ZM656.773 188.832V190.832H658.773V188.832H656.773ZM656.773 171.168H658.773V169.168H656.773V171.168ZM664.541 190.3L657.117 194.588L659.118 198.052L666.542 193.764L664.541 190.3ZM658.117 194.32H644.485V198.32H658.117V194.32ZM645.486 194.588L638.062 190.3L636.061 193.764L643.485 198.052L645.486 194.588ZM639.061 192.032V167.968H635.061V192.032H639.061ZM638.062 169.7L645.486 165.412L643.485 161.948L636.061 166.236L638.062 169.7ZM644.485 165.68H658.117V161.68H644.485V165.68ZM657.117 165.412L664.541 169.7L666.542 166.236L659.118 161.948L657.117 165.412ZM663.541 167.968V192.032H667.541V167.968H663.541ZM643.829 171.168V188.832H647.829V171.168H643.829ZM645.829 190.832H656.773V186.832H645.829V190.832ZM658.773 188.832V171.168H654.773V188.832H658.773ZM656.773 169.168H645.829V173.168H656.773V169.168ZM701.044 167.968H703.044V166.814L702.044 166.236L701.044 167.968ZM701.044 196V198H703.044V196H701.044ZM692.276 196H690.276V198H692.276V196ZM692.276 171.168H694.276V169.168H692.276V171.168ZM681.332 171.168V169.168H679.332V171.168H681.332ZM681.332 196V198H683.332V196H681.332ZM672.564 196H670.564V198H672.564V196ZM672.564 163.68V161.68H670.564V163.68H672.564ZM679.796 163.68L681.522 162.67L680.942 161.68H679.796V163.68ZM681.332 166.304L679.606 167.314L680.61 169.03L682.332 168.036L681.332 166.304ZM685.876 163.68V161.68H685.34L684.876 161.948L685.876 163.68ZM693.62 163.68L694.62 161.948L694.156 161.68H693.62V163.68ZM699.044 167.968V196H703.044V167.968H699.044ZM701.044 194H692.276V198H701.044V194ZM694.276 196V171.168H690.276V196H694.276ZM692.276 169.168H681.332V173.168H692.276V169.168ZM679.332 171.168V196H683.332V171.168H679.332ZM681.332 194H672.564V198H681.332V194ZM674.564 196V163.68H670.564V196H674.564ZM672.564 165.68H679.796V161.68H672.564V165.68ZM678.07 164.69L679.606 167.314L683.058 165.294L681.522 162.67L678.07 164.69ZM682.332 168.036L686.876 165.412L684.876 161.948L680.332 164.572L682.332 168.036ZM685.876 165.68H693.62V161.68H685.876V165.68ZM692.619 165.412L700.043 169.7L702.044 166.236L694.62 161.948L692.619 165.412ZM733.41 180.256H735.41V179.102L734.411 178.524L733.41 180.256ZM733.41 191.712L734.411 193.444L735.41 192.866V191.712H733.41ZM725.986 196V198H726.522L726.987 197.732L725.986 196ZM708.066 196H706.066V198H708.066V196ZM708.066 188.512V186.512H706.066V188.512H708.066ZM724.642 188.512V190.512H726.642V188.512H724.642ZM724.642 183.584H726.642V181.584H724.642V183.584ZM715.49 183.584L714.49 185.316L714.954 185.584H715.49V183.584ZM708.066 179.296H706.066V180.45L707.066 181.028L708.066 179.296ZM708.066 168.288L707.066 166.556L706.066 167.134V168.288H708.066ZM715.49 164V162H714.954L714.49 162.268L715.49 164ZM732.77 164H734.77V162H732.77V164ZM732.77 171.488V173.488H734.77V171.488H732.77ZM716.834 171.488V169.488H714.834V171.488H716.834ZM716.834 175.968H714.834V177.968H716.834V175.968ZM725.986 175.968L726.987 174.236L726.522 173.968H725.986V175.968ZM731.41 180.256V191.712H735.41V180.256H731.41ZM732.41 189.98L724.986 194.268L726.987 197.732L734.411 193.444L732.41 189.98ZM725.986 194H708.066V198H725.986V194ZM710.066 196V188.512H706.066V196H710.066ZM708.066 190.512H724.642V186.512H708.066V190.512ZM726.642 188.512V183.584H722.642V188.512H726.642ZM724.642 181.584H715.49V185.584H724.642V181.584ZM716.491 181.852L709.067 177.564L707.066 181.028L714.49 185.316L716.491 181.852ZM710.066 179.296V168.288H706.066V179.296H710.066ZM709.067 170.02L716.491 165.732L714.49 162.268L707.066 166.556L709.067 170.02ZM715.49 166H732.77V162H715.49V166ZM730.77 164V171.488H734.77V164H730.77ZM732.77 169.488H716.834V173.488H732.77V169.488ZM714.834 171.488V175.968H718.834V171.488H714.834ZM716.834 177.968H725.986V173.968H716.834V177.968ZM724.986 177.7L732.41 181.988L734.411 178.524L726.987 174.236L724.986 177.7ZM741.724 196H739.724V198H741.724V196ZM741.724 183.84V181.84H739.724V183.84H741.724ZM753.884 183.84H755.884V181.84H753.884V183.84ZM753.884 196V198H755.884V196H753.884ZM743.964 177.568L741.967 177.685L742.078 179.568H743.964V177.568ZM742.3 149.28V147.28H740.179L740.303 149.397L742.3 149.28ZM753.308 149.28L755.304 149.397L755.429 147.28H753.308V149.28ZM751.644 177.568V179.568H753.53L753.64 177.685L751.644 177.568ZM743.724 196V183.84H739.724V196H743.724ZM741.724 185.84H753.884V181.84H741.724V185.84ZM751.884 183.84V196H755.884V183.84H751.884ZM753.884 194H741.724V198H753.884V194ZM745.96 177.451L744.296 149.163L740.303 149.397L741.967 177.685L745.96 177.451ZM742.3 151.28H753.308V147.28H742.3V151.28ZM751.311 149.163L749.647 177.451L753.64 177.685L755.304 149.397L751.311 149.163ZM751.644 175.568H743.964V179.568H751.644V175.568Z" fill="black" mask="url(#path-2-outside-1_16104_29761)"/>
</g>
<g clip-path="url(#paint5_diamond_16104_29761_clip_path)" data-figma-skip-parse="true"><g transform="matrix(0 0.149 -0.282984 0 519 339)"><rect x="0" y="0" width="1008.8" height="870.407" fill="url(#paint5_diamond_16104_29761)" opacity="1" shape-rendering="crispEdges"/><rect x="0" y="0" width="1008.8" height="870.407" transform="scale(1 -1)" fill="url(#paint5_diamond_16104_29761)" opacity="1" shape-rendering="crispEdges"/><rect x="0" y="0" width="1008.8" height="870.407" transform="scale(-1 1)" fill="url(#paint5_diamond_16104_29761)" opacity="1" shape-rendering="crispEdges"/><rect x="0" y="0" width="1008.8" height="870.407" transform="scale(-1)" fill="url(#paint5_diamond_16104_29761)" opacity="1" shape-rendering="crispEdges"/></g></g><rect width="490" height="258" transform="translate(274 230)" data-figma-gradient-fill="{&#34;type&#34;:&#34;GRADIENT_DIAMOND&#34;,&#34;stops&#34;:[{&#34;color&#34;:{&#34;r&#34;:1.0,&#34;g&#34;:1.0,&#34;b&#34;:1.0,&#34;a&#34;:1.0},&#34;position&#34;:0.55000001192092896},{&#34;color&#34;:{&#34;r&#34;:0.76078432798385620,&#34;g&#34;:0.75686275959014893,&#34;b&#34;:0.98823529481887817,&#34;a&#34;:0.0},&#34;position&#34;:1.0}],&#34;stopsVar&#34;:[{&#34;color&#34;:{&#34;r&#34;:1.0,&#34;g&#34;:1.0,&#34;b&#34;:1.0,&#34;a&#34;:1.0},&#34;position&#34;:0.55000001192092896},{&#34;color&#34;:{&#34;r&#34;:0.76078432798385620,&#34;g&#34;:0.75686275959014893,&#34;b&#34;:0.98823529481887817,&#34;a&#34;:0.0},&#34;position&#34;:1.0}],&#34;transform&#34;:{&#34;m00&#34;:-5.9295498198996821e-12,&#34;m01&#34;:-565.9689941406250,&#34;m02&#34;:801.98449707031250,&#34;m10&#34;:298.0,&#34;m11&#34;:-1.3351392040561461e-11,&#34;m12&#34;:190.0},&#34;opacity&#34;:1.0,&#34;blendMode&#34;:&#34;NORMAL&#34;,&#34;visible&#34;:true}"/>
<defs>
<filter id="filter0_d_16104_29761" x="281.484" y="147.28" width="474.4" height="67.8398" filterUnits="userSpaceOnUse" color-interpolation-filters="sRGB">
<feFlood flood-opacity="0" result="BackgroundImageFix"/>
<feColorMatrix in="SourceAlpha" type="matrix" values="0 0 0 0 0 0 0 0 0 0 0 0 0 0 0 0 0 0 127 0" result="hardAlpha"/>
<feOffset dy="4"/>
<feComposite in2="hardAlpha" operator="out"/>
<feColorMatrix type="matrix" values="0 0 0 0 0.490196 0 0 0 0 0.513726 0 0 0 0 0.698039 0 0 0 1 0"/>
<feBlend mode="normal" in2="BackgroundImageFix" result="effect1_dropShadow_16104_29761"/>
<feBlend mode="normal" in="SourceGraphic" in2="effect1_dropShadow_16104_29761" result="shape"/>
</filter>
<clipPath id="paint5_diamond_16104_29761_clip_path"><rect width="490" height="258" transform="translate(274 230)"/></clipPath><radialGradient id="paint0_radial_16104_29761" cx="0" cy="0" r="1" gradientUnits="userSpaceOnUse" gradientTransform="translate(329 216.123) rotate(90) scale(195.877 312.833)">
<stop stop-color="white"/>
<stop offset="1" stop-color="#4C539B" stop-opacity="0.9"/>
</radialGradient>
<radialGradient id="paint1_radial_16104_29761" cx="0" cy="0" r="1" gradientUnits="userSpaceOnUse" gradientTransform="translate(518.5 306.5) rotate(90) scale(191.5 328.5)">
<stop offset="0.395" stop-color="white"/>
<stop offset="0.88" stop-color="white" stop-opacity="0.5"/>
<stop offset="1" stop-color="#999999" stop-opacity="0"/>
</radialGradient>
<radialGradient id="paint2_radial_16104_29761" cx="0" cy="0" r="1" gradientUnits="userSpaceOnUse" gradientTransform="translate(518.5 306.5) rotate(90) scale(191.5 328.5)">
<stop offset="0.395" stop-color="white"/>
<stop offset="0.88" stop-color="white" stop-opacity="0.5"/>
<stop offset="1" stop-color="#999999" stop-opacity="0"/>
</radialGradient>
<radialGradient id="paint3_radial_16104_29761" cx="0" cy="0" r="1" gradientUnits="userSpaceOnUse" gradientTransform="translate(518.5 306.5) rotate(90) scale(191.5 328.5)">
<stop offset="0.395" stop-color="white"/>
<stop offset="0.88" stop-color="white" stop-opacity="0.5"/>
<stop offset="1" stop-color="#999999" stop-opacity="0"/>
</radialGradient>
<radialGradient id="paint4_radial_16104_29761" cx="0" cy="0" r="1" gradientUnits="userSpaceOnUse" gradientTransform="translate(518.5 306.5) rotate(90) scale(191.5 328.5)">
<stop offset="0.395" stop-color="white"/>
<stop offset="0.88" stop-color="white" stop-opacity="0.5"/>
<stop offset="1" stop-color="#999999" stop-opacity="0"/>
</radialGradient>
<linearGradient id="paint5_diamond_16104_29761" x1="0" y1="0" x2="500" y2="500" gradientUnits="userSpaceOnUse">
<stop offset="0.55" stop-color="white"/>
<stop offset="1" stop-color="#C2C1FC" stop-opacity="0"/>
</linearGradient>
</defs>
</svg>
