<svg xmlns="http://www.w3.org/2000/svg" width="25" height="25" viewBox="0 0 25 25" fill="none">
  <path d="M11.5 15.5H13.5V17.5H11.5V15.5ZM11.5 7.5H13.5V13.5H11.5V7.5ZM12.5 2.5C6.97 2.5 2.5 7 2.5 12.5C2.5 15.1522 3.55357 17.6957 5.42893 19.5711C6.35752 20.4997 7.45991 21.2362 8.67317 21.7388C9.88642 22.2413 11.1868 22.5 12.5 22.5C15.1522 22.5 17.6957 21.4464 19.5711 19.5711C21.4464 17.6957 22.5 15.1522 22.5 12.5C22.5 11.1868 22.2413 9.88642 21.7388 8.67317C21.2362 7.45991 20.4997 6.35752 19.5711 5.42893C18.6425 4.50035 17.5401 3.76375 16.3268 3.2612C15.1136 2.75866 13.8132 2.5 12.5 2.5ZM12.5 20.5C10.3783 20.5 8.34344 19.6571 6.84315 18.1569C5.34285 16.6566 4.5 14.6217 4.5 12.5C4.5 10.3783 5.34285 8.34344 6.84315 6.84315C8.34344 5.34285 10.3783 4.5 12.5 4.5C14.6217 4.5 16.6566 5.34285 18.1569 6.84315C19.6571 8.34344 20.5 10.3783 20.5 12.5C20.5 14.6217 19.6571 16.6566 18.1569 18.1569C16.6566 19.6571 14.6217 20.5 12.5 20.5Z" fill="black"/>
</svg>