<svg xmlns="http://www.w3.org/2000/svg" width="47" height="46" viewBox="0 0 47 46" fill="none">
  <path d="M42.2938 19.2463H40.7499V19.1667H23.4999V26.8334H34.332C32.7517 31.2963 28.5053 34.5 23.4999 34.5C17.149 34.5 11.9999 29.3509 11.9999 23C11.9999 16.6492 17.149 11.5 23.4999 11.5C26.4315 11.5 29.0985 12.606 31.1292 14.4124L36.5505 8.99112C33.1273 5.80083 28.5484 3.83337 23.4999 3.83337C12.9151 3.83337 4.33325 12.4152 4.33325 23C4.33325 33.5848 12.9151 42.1667 23.4999 42.1667C34.0847 42.1667 42.6666 33.5848 42.6666 23C42.6666 21.7149 42.5343 20.4605 42.2938 19.2463Z" fill="#FFC107"/>
  <path d="M6.54297 14.0789L12.8402 18.6971C14.5441 14.4785 18.6707 11.5 23.4997 11.5C26.4313 11.5 29.0983 12.606 31.129 14.4124L36.5503 8.99112C33.1271 5.80083 28.5482 3.83337 23.4997 3.83337C16.1378 3.83337 9.75339 7.98967 6.54297 14.0789Z" fill="#FF3D00"/>
  <path d="M23.5004 42.1667C28.4511 42.1667 32.9495 40.2721 36.3507 37.191L30.4186 32.1713C28.4299 33.6846 25.9993 34.5027 23.5004 34.5C18.5151 34.5 14.2822 31.3213 12.6875 26.8851L6.43726 31.7008C9.60934 37.9079 16.0513 42.1667 23.5004 42.1667Z" fill="#4CAF50"/>
  <path d="M42.2939 19.2462H40.75V19.1666H23.5V26.8333H34.332C33.5761 28.9574 32.2145 30.8134 30.4153 32.1722L30.4182 32.1703L36.3503 37.19C35.9305 37.5714 42.6667 32.5833 42.6667 23C42.6667 21.7148 42.5344 20.4604 42.2939 19.2462Z" fill="#1976D2"/>
</svg>