<?xml version="1.0" encoding="UTF-8"?>
<svg version="1.1" xmlns="http://www.w3.org/2000/svg" width="1236" height="1522">
<path d="M0 0 C31.68 0 63.36 0 96 0 C96 15.51 96 31.02 96 47 C111.84 47 127.68 47 144 47 C144 62.84 144 78.68 144 95 C159.51 95 175.02 95 191 95 C191 126.35 191 157.7 191 190 C253.37 190 315.74 190 380 190 C380 158.65 380 127.3 380 95 C395.84 95 411.68 95 428 95 C428 79.16 428 63.32 428 47 C443.84 47 459.68 47 476 47 C476 31.49 476 15.98 476 0 C507.35 0 538.7 0 571 0 C571 15.51 571 31.02 571 47 C586.84 47 602.68 47 619 47 C619 62.84 619 78.68 619 95 C634.84 95 650.68 95 667 95 C667 110.51 667 126.02 667 142 C682.51 142 698.02 142 714 142 C714 173.35 714 204.7 714 237 C729.84 237 745.68 237 762 237 C762 299.7 762 362.4 762 427 C777.51 427 793.02 427 809 427 C809 490.03 809 553.06 809 618 C793.49 618 777.98 618 762 618 C762 665.19 762 712.38 762 761 C746.16 761 730.32 761 714 761 C714 792.35 714 823.7 714 856 C698.49 856 682.98 856 667 856 C667.0396079 871.42274686 667.0396079 871.42274686 667.09008789 886.84545898 C667.09300691 888.77067001 667.0955555 890.69588165 667.09765625 892.62109375 C667.10277222 893.63079224 667.10788818 894.64049072 667.11315918 895.68078613 C667.11328003 896.6348938 667.11340088 897.58900146 667.11352539 898.57202148 C667.115746 899.40475082 667.11796661 900.23748016 667.12025452 901.09544373 C667 903 667 903 666 904 C664.52645652 904.09304018 663.04849409 904.11746265 661.57202148 904.11352539 C660.61791382 904.11340454 659.66380615 904.11328369 658.68078613 904.11315918 C657.1662384 904.10548523 657.1662384 904.10548523 655.62109375 904.09765625 C654.69816528 904.09664917 653.77523682 904.09564209 652.82434082 904.09460449 C649.36204799 904.08935494 645.8997728 904.07539381 642.4375 904.0625 C634.703125 904.041875 626.96875 904.02125 619 904 C619 919.51 619 935.02 619 951 C603.16 951 587.32 951 571 951 C571 966.51 571 982.02 571 998 C586.84 998 602.68 998 619 998 C619 1013.51 619 1029.02 619 1045 C634.84 1045 650.68 1045 667 1045 C667 1060.84 667 1076.68 667 1093 C682.51 1093 698.02 1093 714 1093 C714 1108.51 714 1124.02 714 1140 C729.84 1140 745.68 1140 762 1140 C762 1171.68 762 1203.36 762 1236 C745.83 1236 729.66 1236 713 1236 C713 1204.65 713 1173.3 713 1141 C697.82 1141 682.64 1141 667 1141 C667 1187.86 667 1234.72 667 1283 C682.51 1283 698.02 1283 714 1283 C714 1298.51 714 1314.02 714 1330 C729.42274686 1329.9603921 729.42274686 1329.9603921 744.84545898 1329.90991211 C746.77067001 1329.90699309 748.69588165 1329.9044445 750.62109375 1329.90234375 C751.63079224 1329.89722778 752.64049072 1329.89211182 753.68078613 1329.88684082 C754.6348938 1329.88671997 755.58900146 1329.88659912 756.57202148 1329.88647461 C757.40475082 1329.884254 758.23748016 1329.88203339 759.09544373 1329.87974548 C761 1330 761 1330 762 1331 C762 1346.51 762 1362.02 762 1378 C808.53 1378 855.06 1378 903 1378 C903 1362.16 903 1346.32 903 1330 C918.84 1330 934.68 1330 951 1330 C951 1283.47 951 1236.94 951 1189 C935.16 1189 919.32 1189 903 1189 C903 1157.32 903 1125.64 903 1093 C919.17 1093 935.34 1093 952 1093 C952 1124.35 952 1155.7 952 1188 C967.51 1188 983.02 1188 999 1188 C999 1235.19 999 1282.38 999 1331 C983.49 1331 967.98 1331 952 1331 C952 1346.84 952 1362.68 952 1379 C936.16 1379 920.32 1379 904 1379 C904 1394.51 904 1410.02 904 1426 C856.81 1426 809.62 1426 761 1426 C761 1410.49 761 1394.98 761 1379 C745.16 1379 729.32 1379 713 1379 C713 1363.16 713 1347.32 713 1331 C681.98 1331 650.96 1331 619 1331 C619 1346.84 619 1362.68 619 1379 C603.16 1379 587.32 1379 571 1379 C571 1394.51 571 1410.02 571 1426 C602.68 1426 634.36 1426 667 1426 C667 1457.35 667 1488.7 667 1521 C588.13 1521 509.26 1521 428 1521 C428 1474.14 428 1427.28 428 1379 C334.28 1379 240.56 1379 144 1379 C144 1425.86 144 1472.72 144 1521 C65.13 1521 -13.74 1521 -95 1521 C-95 1489.65 -95 1458.3 -95 1426 C-63.65 1426 -32.3 1426 0 1426 C0 1410.49 0 1394.98 0 1379 C-15.51 1379 -31.02 1379 -47 1379 C-47 1363.16 -47 1347.32 -47 1331 C-62.84 1331 -78.68 1331 -95 1331 C-95 1268.3 -95 1205.6 -95 1141 C-110.18 1141 -125.36 1141 -141 1141 C-141 1172.35 -141 1203.7 -141 1236 C-157.17 1236 -173.34 1236 -190 1236 C-190 1204.32 -190 1172.64 -190 1140 C-174.16 1140 -158.32 1140 -142 1140 C-142 1124.49 -142 1108.98 -142 1093 C-126.49 1093 -110.98 1093 -95 1093 C-95 1077.16 -95 1061.32 -95 1045 C-79.16 1045 -63.32 1045 -47 1045 C-47 1029.49 -47 1013.98 -47 998 C-31.49 998 -15.98 998 0 998 C0 982.49 0 966.98 0 951 C-15.51 951 -31.02 951 -47 951 C-47 935.49 -47 919.98 -47 904 C-62.84 904 -78.68 904 -95 904 C-95 888.16 -95 872.32 -95 856 C-110.51 856 -126.02 856 -142 856 C-142 824.65 -142 793.3 -142 761 C-157.84 761 -173.68 761 -190 761 C-190 713.81 -190 666.62 -190 618 C-205.51 618 -221.02 618 -237 618 C-237 554.97 -237 491.94 -237 427 C-221.49 427 -205.98 427 -190 427 C-190 364.3 -190 301.6 -190 237 C-174.16 237 -158.32 237 -142 237 C-142 205.65 -142 174.3 -142 142 C-126.49 142 -110.98 142 -95 142 C-95 126.49 -95 110.98 -95 95 C-79.16 95 -63.32 95 -47 95 C-47 79.16 -47 63.32 -47 47 C-31.49 47 -15.98 47 0 47 C0 31.49 0 15.98 0 0 Z " fill="#DE7025" transform="translate(237,0)"/>
<path d="M0 0 C15.84 0 31.68 0 48 0 C48 15.84 48 31.68 48 48 C32.49 48 16.98 48 1 48 C1 79.35 1 110.7 1 143 C-14.84 143 -30.68 143 -47 143 C-47 205.7 -47 268.4 -47 333 C-62.51 333 -78.02 333 -94 333 C-94 395.7 -94 458.4 -94 523 C-78.49 523 -62.98 523 -47 523 C-47 569.86 -47 616.72 -47 665 C-31.16 665 -15.32 665 1 665 C1 680.84 1 696.68 1 713 C16.51 713 32.02 713 48 713 C48 728.84 48 744.68 48 761 C63.51 761 79.02 761 95 761 C95 776.51 95 792.02 95 808 C283.43 808 471.86 808 666 808 C666 792.49 666 776.98 666 761 C681.84 761 697.68 761 714 761 C714 745.16 714 729.32 714 713 C729.51 713 745.02 713 761 713 C761 697.49 761 681.98 761 666 C776.84 666 792.68 666 809 666 C809 697.35 809 728.7 809 761 C793.49 761 777.98 761 762 761 C762.0396079 776.42274686 762.0396079 776.42274686 762.09008789 791.84545898 C762.09300691 793.77067001 762.0955555 795.69588165 762.09765625 797.62109375 C762.10277222 798.63079224 762.10788818 799.64049072 762.11315918 800.68078613 C762.11328003 801.6348938 762.11340088 802.58900146 762.11352539 803.57202148 C762.115746 804.40475082 762.11796661 805.23748016 762.12025452 806.09544373 C762 808 762 808 761 809 C759.52645652 809.09304018 758.04849409 809.11746265 756.57202148 809.11352539 C755.61791382 809.11340454 754.66380615 809.11328369 753.68078613 809.11315918 C752.1662384 809.10548523 752.1662384 809.10548523 750.62109375 809.09765625 C749.69816528 809.09664917 748.77523682 809.09564209 747.82434082 809.09460449 C744.36204799 809.08935494 740.8997728 809.07539381 737.4375 809.0625 C729.703125 809.041875 721.96875 809.02125 714 809 C714 824.51 714 840.02 714 856 C698.16 856 682.32 856 666 856 C666 871.51 666 887.02 666 903 C681.84 903 697.68 903 714 903 C714 918.51 714 934.02 714 950 C729.84 950 745.68 950 762 950 C762 965.84 762 981.68 762 998 C777.51 998 793.02 998 809 998 C809 1013.51 809 1029.02 809 1045 C824.84 1045 840.68 1045 857 1045 C857 1076.68 857 1108.36 857 1141 C840.83 1141 824.66 1141 808 1141 C808 1109.65 808 1078.3 808 1046 C792.82 1046 777.64 1046 762 1046 C762 1092.86 762 1139.72 762 1188 C777.51 1188 793.02 1188 809 1188 C809 1203.51 809 1219.02 809 1235 C824.42274686 1234.9603921 824.42274686 1234.9603921 839.84545898 1234.90991211 C841.77067001 1234.90699309 843.69588165 1234.9044445 845.62109375 1234.90234375 C846.63079224 1234.89722778 847.64049072 1234.89211182 848.68078613 1234.88684082 C849.6348938 1234.88671997 850.58900146 1234.88659912 851.57202148 1234.88647461 C852.40475082 1234.884254 853.23748016 1234.88203339 854.09544373 1234.87974548 C856 1235 856 1235 857 1236 C857 1251.51 857 1267.02 857 1283 C903.53 1283 950.06 1283 998 1283 C998 1267.16 998 1251.32 998 1235 C1013.84 1235 1029.68 1235 1046 1235 C1046 1188.47 1046 1141.94 1046 1094 C1030.16 1094 1014.32 1094 998 1094 C998 1062.32 998 1030.64 998 998 C1014.17 998 1030.34 998 1047 998 C1047 1029.35 1047 1060.7 1047 1093 C1062.51 1093 1078.02 1093 1094 1093 C1094 1140.19 1094 1187.38 1094 1236 C1078.49 1236 1062.98 1236 1047 1236 C1047 1251.84 1047 1267.68 1047 1284 C1031.16 1284 1015.32 1284 999 1284 C999 1299.51 999 1315.02 999 1331 C951.81 1331 904.62 1331 856 1331 C856 1315.49 856 1299.98 856 1284 C840.16 1284 824.32 1284 808 1284 C808 1268.16 808 1252.32 808 1236 C776.98 1236 745.96 1236 714 1236 C714 1251.84 714 1267.68 714 1284 C698.16 1284 682.32 1284 666 1284 C666 1299.51 666 1315.02 666 1331 C697.68 1331 729.36 1331 762 1331 C762 1362.35 762 1393.7 762 1426 C683.13 1426 604.26 1426 523 1426 C523 1379.14 523 1332.28 523 1284 C429.28 1284 335.56 1284 239 1284 C239 1330.86 239 1377.72 239 1426 C160.13 1426 81.26 1426 0 1426 C0 1394.65 0 1363.3 0 1331 C31.35 1331 62.7 1331 95 1331 C95 1315.49 95 1299.98 95 1284 C79.49 1284 63.98 1284 48 1284 C48 1268.16 48 1252.32 48 1236 C32.16 1236 16.32 1236 0 1236 C0 1173.3 0 1110.6 0 1046 C-15.18 1046 -30.36 1046 -46 1046 C-46 1077.35 -46 1108.7 -46 1141 C-62.17 1141 -78.34 1141 -95 1141 C-95 1109.32 -95 1077.64 -95 1045 C-79.16 1045 -63.32 1045 -47 1045 C-47 1029.49 -47 1013.98 -47 998 C-31.49 998 -15.98 998 0 998 C0 982.16 0 966.32 0 950 C15.84 950 31.68 950 48 950 C48 934.49 48 918.98 48 903 C63.51 903 79.02 903 95 903 C95 887.49 95 871.98 95 856 C79.49 856 63.98 856 48 856 C48 840.49 48 824.98 48 809 C32.16 809 16.32 809 0 809 C0 793.16 0 777.32 0 761 C-15.51 761 -31.02 761 -47 761 C-47 729.65 -47 698.3 -47 666 C-62.84 666 -78.68 666 -95 666 C-95 618.81 -95 571.62 -95 523 C-110.51 523 -126.02 523 -142 523 C-142 459.97 -142 396.94 -142 332 C-126.49 332 -110.98 332 -95 332 C-95 269.3 -95 206.6 -95 142 C-79.16 142 -63.32 142 -47 142 C-47 110.65 -47 79.3 -47 47 C-31.49 47 -15.98 47 0 47 C0 31.49 0 15.98 0 0 Z " fill="#DE7025" transform="translate(142,95)"/>
<path d="M0 0 C15.84 0 31.68 0 48 0 C48 15.84 48 31.68 48 48 C32.49 48 16.98 48 1 48 C1 79.35 1 110.7 1 143 C-14.84 143 -30.68 143 -47 143 C-47 205.7 -47 268.4 -47 333 C-62.51 333 -78.02 333 -94 333 C-94 395.7 -94 458.4 -94 523 C-78.49 523 -62.98 523 -47 523 C-47 569.86 -47 616.72 -47 665 C-31.16 665 -15.32 665 1 665 C1 680.84 1 696.68 1 713 C16.51 713 32.02 713 48 713 C48 728.84 48 744.68 48 761 C63.51 761 79.02 761 95 761 C95 776.51 95 792.02 95 808 C283.43 808 471.86 808 666 808 C666 792.49 666 776.98 666 761 C681.84 761 697.68 761 714 761 C714 745.16 714 729.32 714 713 C729.51 713 745.02 713 761 713 C761 697.49 761 681.98 761 666 C776.84 666 792.68 666 809 666 C809 697.35 809 728.7 809 761 C793.49 761 777.98 761 762 761 C762.0396079 776.42274686 762.0396079 776.42274686 762.09008789 791.84545898 C762.09300691 793.77067001 762.0955555 795.69588165 762.09765625 797.62109375 C762.10277222 798.63079224 762.10788818 799.64049072 762.11315918 800.68078613 C762.11328003 801.6348938 762.11340088 802.58900146 762.11352539 803.57202148 C762.115746 804.40475082 762.11796661 805.23748016 762.12025452 806.09544373 C762 808 762 808 761 809 C759.52645652 809.09304018 758.04849409 809.11746265 756.57202148 809.11352539 C755.61791382 809.11340454 754.66380615 809.11328369 753.68078613 809.11315918 C752.1662384 809.10548523 752.1662384 809.10548523 750.62109375 809.09765625 C749.69816528 809.09664917 748.77523682 809.09564209 747.82434082 809.09460449 C744.36204799 809.08935494 740.8997728 809.07539381 737.4375 809.0625 C729.703125 809.041875 721.96875 809.02125 714 809 C714 824.51 714 840.02 714 856 C698.16 856 682.32 856 666 856 C666 871.51 666 887.02 666 903 C650.49 903 634.98 903 619 903 C619 887.49 619 871.98 619 856 C461.92 856 304.84 856 143 856 C143 871.51 143 887.02 143 903 C127.49 903 111.98 903 96 903 C96 918.84 96 934.68 96 951 C80.16 951 64.32 951 48 951 C48 1045.05 48 1139.1 48 1236 C32.16 1236 16.32 1236 0 1236 C0 1173.3 0 1110.6 0 1046 C-15.18 1046 -30.36 1046 -46 1046 C-46 1077.35 -46 1108.7 -46 1141 C-62.17 1141 -78.34 1141 -95 1141 C-95 1109.32 -95 1077.64 -95 1045 C-79.16 1045 -63.32 1045 -47 1045 C-47 1029.49 -47 1013.98 -47 998 C-31.49 998 -15.98 998 0 998 C0 982.16 0 966.32 0 950 C15.84 950 31.68 950 48 950 C48 934.49 48 918.98 48 903 C63.51 903 79.02 903 95 903 C95 887.49 95 871.98 95 856 C79.49 856 63.98 856 48 856 C48 840.49 48 824.98 48 809 C32.16 809 16.32 809 0 809 C0 793.16 0 777.32 0 761 C-15.51 761 -31.02 761 -47 761 C-47 729.65 -47 698.3 -47 666 C-62.84 666 -78.68 666 -95 666 C-95 618.81 -95 571.62 -95 523 C-110.51 523 -126.02 523 -142 523 C-142 459.97 -142 396.94 -142 332 C-126.49 332 -110.98 332 -95 332 C-95 269.3 -95 206.6 -95 142 C-79.16 142 -63.32 142 -47 142 C-47 110.65 -47 79.3 -47 47 C-31.49 47 -15.98 47 0 47 C0 31.49 0 15.98 0 0 Z " fill="#000000" transform="translate(142,95)"/>
<path d="M0 0 C219.78 0 439.56 0 666 0 C666 15.84 666 31.68 666 48 C650.16 48 634.32 48 618 48 C618 63.51 618 79.02 618 95 C649.68 95 681.36 95 714 95 C714 126.35 714 157.7 714 190 C635.13 190 556.26 190 475 190 C475 143.14 475 96.28 475 48 C381.28 48 287.56 48 191 48 C191 94.86 191 141.72 191 190 C112.13 190 33.26 190 -48 190 C-48 158.65 -48 127.3 -48 95 C-16.65 95 14.7 95 47 95 C47 79.49 47 63.98 47 48 C31.49 48 15.98 48 0 48 C0 32.16 0 16.32 0 0 Z " fill="#000000" transform="translate(190,1331)"/>
<path d="M0 0 C15.84 0 31.68 0 48 0 C48 15.51 48 31.02 48 47 C63.84 47 79.68 47 96 47 C96 62.84 96 78.68 96 95 C111.51 95 127.02 95 143 95 C143 110.51 143 126.02 143 142 C158.84 142 174.68 142 191 142 C191 173.68 191 205.36 191 238 C174.83 238 158.66 238 142 238 C142 206.65 142 175.3 142 143 C126.82 143 111.64 143 96 143 C96 189.86 96 236.72 96 285 C111.51 285 127.02 285 143 285 C143 300.51 143 316.02 143 332 C158.42274686 331.9603921 158.42274686 331.9603921 173.84545898 331.90991211 C175.77067001 331.90699309 177.69588165 331.9044445 179.62109375 331.90234375 C180.63079224 331.89722778 181.64049072 331.89211182 182.68078613 331.88684082 C183.6348938 331.88671997 184.58900146 331.88659912 185.57202148 331.88647461 C186.40475082 331.884254 187.23748016 331.88203339 188.09544373 331.87974548 C190 332 190 332 191 333 C191 348.51 191 364.02 191 380 C237.53 380 284.06 380 332 380 C332 364.16 332 348.32 332 332 C347.84 332 363.68 332 380 332 C380 285.47 380 238.94 380 191 C364.16 191 348.32 191 332 191 C332 159.32 332 127.64 332 95 C348.17 95 364.34 95 381 95 C381 126.35 381 157.7 381 190 C396.51 190 412.02 190 428 190 C428 237.19 428 284.38 428 333 C412.49 333 396.98 333 381 333 C381 348.84 381 364.68 381 381 C365.16 381 349.32 381 333 381 C333 396.51 333 412.02 333 428 C285.81 428 238.62 428 190 428 C190 412.49 190 396.98 190 381 C174.16 381 158.32 381 142 381 C142 365.16 142 349.32 142 333 C110.98 333 79.96 333 48 333 C48 238.95 48 144.9 48 48 C32.16 48 16.32 48 0 48 C0 32.16 0 16.32 0 0 Z " fill="#000000" transform="translate(808,998)"/>
<path d="M0 0 C15.84 0 31.68 0 48 0 C48 15.84 48 31.68 48 48 C63.84 48 79.68 48 96 48 C96 63.51 96 79.02 96 95 C111.51 95 127.02 95 143 95 C143 126.35 143 157.7 143 190 C158.84 190 174.68 190 191 190 C191 252.7 191 315.4 191 380 C206.51 380 222.02 380 238 380 C238 443.03 238 506.06 238 571 C222.49 571 206.98 571 191 571 C191 618.19 191 665.38 191 714 C175.16 714 159.32 714 143 714 C143 666.81 143 619.62 143 571 C158.51 571 174.02 571 190 571 C190 508.3 190 445.6 190 381 C174.16 381 158.32 381 142 381 C142 318.3 142 255.6 142 191 C126.49 191 110.98 191 95 191 C95 159.65 95 128.3 95 96 C79.16 96 63.32 96 47 96 C47 80.16 47 64.32 47 48 C31.49 48 15.98 48 0 48 C0 32.16 0 16.32 0 0 Z " fill="#010000" transform="translate(808,47)"/>
<path d="M0 0 C15.84 0 31.68 0 48 0 C48 15.84 48 31.68 48 48 C32.49 48 16.98 48 1 48 C1 79.35 1 110.7 1 143 C-14.84 143 -30.68 143 -47 143 C-47 158.84 -47 174.68 -47 191 C-109.7 191 -172.4 191 -237 191 C-237 175.16 -237 159.32 -237 143 C-174.63 143 -112.26 143 -48 143 C-48 111.65 -48 80.3 -48 48 C-32.16 48 -16.32 48 0 48 C0 32.16 0 16.32 0 0 Z " fill="#010000" transform="translate(665,47)"/>
<path d="M0 0 C31.68 0 63.36 0 96 0 C96 15.51 96 31.02 96 47 C111.84 47 127.68 47 144 47 C144 62.84 144 78.68 144 95 C159.51 95 175.02 95 191 95 C191 126.35 191 157.7 191 190 C175.16 190 159.32 190 143 190 C143 158.65 143 127.3 143 95 C127.49 95 111.98 95 96 95 C96 79.49 96 63.98 96 48 C64.65 48 33.3 48 1 48 C1 63.51 1 79.02 1 95 C-14.84 95 -30.68 95 -47 95 C-47 79.16 -47 63.32 -47 47 C-31.49 47 -15.98 47 0 47 C0 31.49 0 15.98 0 0 Z " fill="#010000" transform="translate(237,0)"/>
<path d="M0 0 C15.51 0 31.02 0 47 0 C47 62.7 47 125.4 47 190 C31.49 190 15.98 190 0 190 C0 127.3 0 64.6 0 0 Z " fill="#000000" transform="translate(666,333)"/>
<path d="M0 0 C15.51 0 31.02 0 47 0 C47 62.7 47 125.4 47 190 C31.49 190 15.98 190 0 190 C0 127.3 0 64.6 0 0 Z " fill="#000000" transform="translate(333,333)"/>
<path d="M0 0 C15.84 0 31.68 0 48 0 C48 31.68 48 63.36 48 96 C16.65 96 -14.7 96 -47 96 C-47 80.16 -47 64.32 -47 48 C-31.49 48 -15.98 48 0 48 C0 32.16 0 16.32 0 0 Z " fill="#DB6F25" transform="translate(285,1378)"/>
<path d="M0 0 C15.51 0 31.02 0 47 0 C47 15.51 47 31.02 47 47 C62.84 47 78.68 47 95 47 C95 62.51 95 78.02 95 94 C63.65 94 32.3 94 0 94 C0 62.98 0 31.96 0 0 Z " fill="#DF7126" transform="translate(713,1379)"/>
<path d="M0 0 C31.35 0 62.7 0 95 0 C95 15.51 95 31.02 95 47 C63.65 47 32.3 47 0 47 C0 31.49 0 15.98 0 0 Z " fill="#000000" transform="translate(380,713)"/>
<path d="M0 0 C31.35 0 62.7 0 95 0 C95 15.51 95 31.02 95 47 C63.65 47 32.3 47 0 47 C0 31.49 0 15.98 0 0 Z " fill="#000000" transform="translate(713,0)"/>
<path d="M0 0 C31.02 0 62.04 0 94 0 C94 15.51 94 31.02 94 47 C62.98 47 31.96 47 0 47 C0 31.49 0 15.98 0 0 Z " fill="#000000" transform="translate(571,713)"/>
<path d="M0 0 C31.02 0 62.04 0 94 0 C94 15.51 94 31.02 94 47 C62.98 47 31.96 47 0 47 C0 31.49 0 15.98 0 0 Z " fill="#000000" transform="translate(476,666)"/>
<path d="M0 0 C15.84 0 31.68 0 48 0 C48 15.51 48 31.02 48 47 C32.16 47 16.32 47 0 47 C0 31.49 0 15.98 0 0 Z " fill="#020100" transform="translate(285,618)"/>
<path d="M0 0 C15.84 0 31.68 0 48 0 C48 15.51 48 31.02 48 47 C32.16 47 16.32 47 0 47 C0 31.49 0 15.98 0 0 Z " fill="#000000" transform="translate(856,95)"/>
<path d="M0 0 C15.51 0 31.02 0 47 0 C47 15.51 47 31.02 47 47 C31.49 47 15.98 47 0 47 C0 31.49 0 15.98 0 0 Z " fill="#000000" transform="translate(666,666)"/>
<path d="M0 0 C15.51 0 31.02 0 47 0 C47 15.51 47 31.02 47 47 C31.49 47 15.98 47 0 47 C0 31.49 0 15.98 0 0 Z " fill="#000000" transform="translate(333,666)"/>
<path d="M0 0 C15.51 0 31.02 0 47 0 C47 15.51 47 31.02 47 47 C31.49 47 15.98 47 0 47 C0 31.49 0 15.98 0 0 Z " fill="#000000" transform="translate(713,618)"/>
</svg>
