<?xml version="1.0" encoding="UTF-8"?>
<svg version="1.1" xmlns="http://www.w3.org/2000/svg" width="1236" height="1522">
<path d="M0 0 C172.92 0 345.84 0 524 0 C524 15.51 524 31.02 524 47 C539.84 47 555.68 47 572 47 C572 62.84 572 78.68 572 95 C587.51 95 603.02 95 619 95 C619 330.29 619 565.58 619 808 C603.49 808 587.98 808 572 808 C572 823.84 572 839.68 572 856 C556.16 856 540.32 856 524 856 C524 887.02 524 918.04 524 950 C539.84 950 555.68 950 572 950 C572 965.84 572 981.68 572 998 C618.86 998 665.72 998 714 998 C714 1013.51 714 1029.02 714 1045 C729.84 1045 745.68 1045 762 1045 C762 1060.84 762 1076.68 762 1093 C777.51 1093 793.02 1093 809 1093 C809 1108.84 809 1124.68 809 1141 C746.3 1141 683.6 1141 619 1141 C619 1188.19 619 1235.38 619 1284 C603.49 1284 587.98 1284 572 1284 C572 1315.02 572 1346.04 572 1378 C587.51 1378 603.02 1378 619 1378 C619 1409.68 619 1441.36 619 1474 C603.49 1474 587.98 1474 572 1474 C572 1489.51 572 1505.02 572 1521 C524.48 1521 476.96 1521 428 1521 C428 1505.49 428 1489.98 428 1474 C412.49 1474 396.98 1474 381 1474 C381 1426.81 381 1379.62 381 1331 C302.79 1331 224.58 1331 144 1331 C144 1346.51 144 1362.02 144 1378 C159.51 1378 175.02 1378 191 1378 C191 1409.68 191 1441.36 191 1474 C175.49 1474 159.98 1474 144 1474 C144 1489.51 144 1505.02 144 1521 C96.48 1521 48.96 1521 0 1521 C0 1505.49 0 1489.98 0 1474 C-15.51 1474 -31.02 1474 -47 1474 C-47 1442.65 -47 1411.3 -47 1379 C-78.02 1379 -109.04 1379 -141 1379 C-141 1394.51 -141 1410.02 -141 1426 C-235.38 1426 -329.76 1426 -427 1426 C-427 1394.32 -427 1362.64 -427 1330 C-411.49 1330 -395.98 1330 -380 1330 C-380 1314.49 -380 1298.98 -380 1283 C-364.16 1283 -348.32 1283 -332 1283 C-332 1267.16 -332 1251.32 -332 1235 C-316.49 1235 -300.98 1235 -285 1235 C-285 1219.49 -285 1203.98 -285 1188 C-269.16 1188 -253.32 1188 -237 1188 C-237 1172.49 -237 1156.98 -237 1141 C-268.35 1141 -299.7 1141 -332 1141 C-332 1125.16 -332 1109.32 -332 1093 C-316.49 1093 -300.98 1093 -285 1093 C-285 1077.16 -285 1061.32 -285 1045 C-269.16 1045 -253.32 1045 -237 1045 C-237 1029.49 -237 1013.98 -237 998 C-205.65 998 -174.3 998 -142 998 C-142 982.16 -142 966.32 -142 950 C-110.65 950 -79.3 950 -47 950 C-47 934.49 -47 918.98 -47 903 C-31.49 903 -15.98 903 0 903 C0 887.49 0 871.98 0 856 C-15.51 856 -31.02 856 -47 856 C-47 840.16 -47 824.32 -47 808 C-62.84 808 -78.68 808 -95 808 C-95 572.71 -95 337.42 -95 95 C-79.16 95 -63.32 95 -47 95 C-47 79.16 -47 63.32 -47 47 C-31.49 47 -15.98 47 0 47 C0 31.49 0 15.98 0 0 Z " fill="#9BDA43" transform="translate(427,0)"/>
<path d="M0 0 C15.84 0 31.68 0 48 0 C48 15.84 48 31.68 48 48 C63.51 48 79.02 48 95 48 C95 63.51 95 79.02 95 95 C79.49 95 63.98 95 48 95 C48 110.84 48 126.68 48 143 C32.16 143 16.32 143 0 143 C0 158.51 0 174.02 0 190 C-15.51 190 -31.02 190 -47 190 C-47 284.05 -47 378.1 -47 475 C172.45 475 391.9 475 618 475 C618 380.95 618 286.9 618 190 C602.49 190 586.98 190 571 190 C571 174.16 571 158.32 571 142 C586.84 142 602.68 142 619 142 C619 157.84 619 173.68 619 190 C665.86 190 712.72 190 761 190 C761 205.51 761 221.02 761 237 C776.84 237 792.68 237 809 237 C809 252.84 809 268.68 809 285 C824.51 285 840.02 285 856 285 C856 300.84 856 316.68 856 333 C793.3 333 730.6 333 666 333 C666 380.19 666 427.38 666 476 C650.49 476 634.98 476 619 476 C619 507.02 619 538.04 619 570 C634.51 570 650.02 570 666 570 C666 601.68 666 633.36 666 666 C650.49 666 634.98 666 619 666 C619 681.51 619 697.02 619 713 C571.48 713 523.96 713 475 713 C475 697.49 475 681.98 475 666 C459.49 666 443.98 666 428 666 C428 618.81 428 571.62 428 523 C349.79 523 271.58 523 191 523 C191 538.51 191 554.02 191 570 C206.51 570 222.02 570 238 570 C238 601.68 238 633.36 238 666 C222.49 666 206.98 666 191 666 C191 681.51 191 697.02 191 713 C143.48 713 95.96 713 47 713 C47 697.49 47 681.98 47 666 C31.49 666 15.98 666 0 666 C0 634.65 0 603.3 0 571 C-31.02 571 -62.04 571 -94 571 C-94 586.51 -94 602.02 -94 618 C-188.38 618 -282.76 618 -380 618 C-380 586.32 -380 554.64 -380 522 C-364.49 522 -348.98 522 -333 522 C-333 506.49 -333 490.98 -333 475 C-317.16 475 -301.32 475 -285 475 C-285 459.16 -285 443.32 -285 427 C-269.49 427 -253.98 427 -238 427 C-238 411.49 -238 395.98 -238 380 C-222.16 380 -206.32 380 -190 380 C-190 364.49 -190 348.98 -190 333 C-221.35 333 -252.7 333 -285 333 C-285 317.16 -285 301.32 -285 285 C-269.49 285 -253.98 285 -238 285 C-238 269.16 -238 253.32 -238 237 C-222.16 237 -206.32 237 -190 237 C-190 221.49 -190 205.98 -190 190 C-158.65 190 -127.3 190 -95 190 C-95 174.16 -95 158.32 -95 142 C-63.65 142 -32.3 142 0 142 C0 126.49 0 110.98 0 95 C15.51 95 31.02 95 47 95 C47 79.49 47 63.98 47 48 C31.49 48 15.98 48 0 48 C0 32.16 0 16.32 0 0 Z " fill="#000000" transform="translate(380,808)"/>
<path d="M0 0 C125.4 0 250.8 0 380 0 C380 15.84 380 31.68 380 48 C395.51 48 411.02 48 427 48 C427 142.05 427 236.1 427 333 C270.25 333 113.5 333 -48 333 C-48 238.62 -48 144.24 -48 47 C-32.16 47 -16.32 47 0 47 C0 31.49 0 15.98 0 0 Z " fill="#D5F163" transform="translate(523,903)"/>
<path d="M0 0 C15.84 0 31.68 0 48 0 C48 15.84 48 31.68 48 48 C63.51 48 79.02 48 95 48 C95 63.51 95 79.02 95 95 C79.49 95 63.98 95 48 95 C48 110.84 48 126.68 48 143 C32.16 143 16.32 143 0 143 C0 158.51 0 174.02 0 190 C-15.84 190 -31.68 190 -48 190 C-48 284.05 -48 378.1 -48 475 C-63.18 475 -78.36 475 -94 475 C-94 428.14 -94 381.28 -94 333 C-109.84 333 -125.68 333 -142 333 C-142 348.51 -142 364.02 -142 380 C-157.84 380 -173.68 380 -190 380 C-190 364.49 -190 348.98 -190 333 C-221.35 333 -252.7 333 -285 333 C-285 317.16 -285 301.32 -285 285 C-269.49 285 -253.98 285 -238 285 C-238 269.16 -238 253.32 -238 237 C-222.16 237 -206.32 237 -190 237 C-190 221.49 -190 205.98 -190 190 C-158.65 190 -127.3 190 -95 190 C-95 174.16 -95 158.32 -95 142 C-63.65 142 -32.3 142 0 142 C0 126.49 0 110.98 0 95 C15.51 95 31.02 95 47 95 C47 79.49 47 63.98 47 48 C31.49 48 15.98 48 0 48 C0 32.16 0 16.32 0 0 Z " fill="#000000" transform="translate(380,808)"/>
<path d="M0 0 C15.84 0 31.68 0 48 0 C48 15.84 48 31.68 48 48 C63.51 48 79.02 48 95 48 C95 283.29 95 518.58 95 761 C79.49 761 63.98 761 48 761 C48 776.84 48 792.68 48 809 C32.16 809 16.32 809 0 809 C0 793.16 0 777.32 0 761 C15.51 761 31.02 761 47 761 C47 525.71 47 290.42 47 48 C31.49 48 15.98 48 0 48 C0 32.16 0 16.32 0 0 Z " fill="#000000" transform="translate(951,47)"/>
<path d="M0 0 C15.51 0 31.02 0 47 0 C47 47.19 47 94.38 47 143 C62.51 143 78.02 143 94 143 C94 158.51 94 174.02 94 190 C62.98 190 31.96 190 0 190 C0 205.84 0 221.68 0 238 C-63.03 238 -126.06 238 -191 238 C-191 222.16 -191 206.32 -191 190 C-175.16 190 -159.32 190 -143 190 C-143 158.32 -143 126.64 -143 94 C-127.49 94 -111.98 94 -96 94 C-96 78.49 -96 62.98 -96 47 C-64.32 47 -32.64 47 0 47 C0 31.49 0 15.98 0 0 Z " fill="#9AD942" transform="translate(238,1141)"/>
<path d="M0 0 C15.84 0 31.68 0 48 0 C48 15.84 48 31.68 48 48 C63.84 48 79.68 48 96 48 C96 32.16 96 16.32 96 0 C111.51 0 127.02 0 143 0 C143 15.84 143 31.68 143 48 C174.35 48 205.7 48 238 48 C238 32.16 238 16.32 238 0 C253.51 0 269.02 0 285 0 C285.33 15.51 285.66 31.02 286 47 C317.35 47.33 348.7 47.66 381 48 C381 32.16 381 16.32 381 0 C412.35 0 443.7 0 476 0 C476 15.84 476 31.68 476 48 C491.51 48 507.02 48 523 48 C523 63.51 523 79.02 523 95 C350.41 95 177.82 95 0 95 C0 63.65 0 32.3 0 0 Z " fill="#1A7A3E" transform="translate(475,618)"/>
<path d="M0 0 C15.84 0 31.68 0 48 0 C48 235.29 48 470.58 48 713 C32.16 713 16.32 713 0 713 C0 477.71 0 242.42 0 0 Z " fill="#000000" transform="translate(332,95)"/>
<path d="M0 0 C46.86 0 93.72 0 142 0 C142 15.51 142 31.02 142 47 C157.84 47 173.68 47 190 47 C190 62.84 190 78.68 190 95 C205.51 95 221.02 95 237 95 C237 110.84 237 126.68 237 143 C174.3 143 111.6 143 47 143 C47 190.19 47 237.38 47 286 C31.49 286 15.98 286 0 286 C0 191.62 0 97.24 0 0 Z " fill="#000000" transform="translate(999,998)"/>
<path d="M0 0 C172.92 0 345.84 0 524 0 C524 15.51 524 31.02 524 47 C351.41 47 178.82 47 1 47 C1 62.84 1 78.68 1 95 C-14.84 95 -30.68 95 -47 95 C-47 79.16 -47 63.32 -47 47 C-31.49 47 -15.98 47 0 47 C0 31.49 0 15.98 0 0 Z " fill="#000000" transform="translate(427,0)"/>
<path d="M0 0 C0.33 0 0.66 0 1 0 C1 46.86 1 93.72 1 142 C-14.84 142 -30.68 142 -47 142 C-47 126.49 -47 110.98 -47 95 C-172.4 95 -297.8 95 -427 95 C-427 79.16 -427 63.32 -427 47 C-286.09 47 -145.18 47 0 47 C0 31.49 0 15.98 0 0 Z " fill="#59C135" transform="translate(950,808)"/>
<path d="M0 0 C31.35 0 62.7 0 95 0 C95 15.84 95 31.68 95 48 C110.51 48 126.02 48 142 48 C142 79.02 142 110.04 142 142 C95.14 142 48.28 142 0 142 C0 95.14 0 48.28 0 0 Z " fill="#9BDA42" transform="translate(428,1331)"/>
<path d="M0 0 C31.02 0 62.04 0 94 0 C94 15.84 94 31.68 94 48 C109.84 48 125.68 48 142 48 C142 79.02 142 110.04 142 142 C95.14 142 48.28 142 0 142 C0 95.14 0 48.28 0 0 Z " fill="#9CDB43" transform="translate(856,1331)"/>
<path d="M0 0 C31.35 0 62.7 0 95 0 C95 31.68 95 63.36 95 96 C63.65 96 32.3 96 0 96 C0 64.32 0 32.64 0 0 Z " fill="#FDFEFD" transform="translate(618,570)"/>
<path d="M0 0 C15.84 0 31.68 0 48 0 C48 62.7 48 125.4 48 190 C32.16 190 16.32 190 0 190 C0 127.3 0 64.6 0 0 Z " fill="#040504" transform="translate(903,333)"/>
<path d="M0 0 C15.84 0 31.68 0 48 0 C48 62.7 48 125.4 48 190 C32.16 190 16.32 190 0 190 C0 127.3 0 64.6 0 0 Z " fill="#040504" transform="translate(618,333)"/>
<path d="M0 0 C31.02 0 62.04 0 94 0 C94 31.02 94 62.04 94 94 C62.98 94 31.96 94 0 94 C0 62.98 0 31.96 0 0 Z " fill="#FFFFFF" transform="translate(761,571)"/>
<path d="M0 0 C15.84 0 31.68 0 48 0 C48 15.84 48 31.68 48 48 C63.51 48 79.02 48 95 48 C95 63.51 95 79.02 95 95 C79.49 95 63.98 95 48 95 C48 110.84 48 126.68 48 143 C32.16 143 16.32 143 0 143 C0 127.16 0 111.32 0 95 C15.51 95 31.02 95 47 95 C47 79.49 47 63.98 47 48 C31.49 48 15.98 48 0 48 C0 32.16 0 16.32 0 0 Z " fill="#070708" transform="translate(380,808)"/>
<path d="M0 0 C31.35 0 62.7 0 95 0 C95 31.68 95 63.36 95 96 C79.49 96 63.98 96 48 96 C48 80.16 48 64.32 48 48 C32.16 48 16.32 48 0 48 C0 32.16 0 16.32 0 0 Z " fill="#FDFEFD" transform="translate(903,570)"/>
<path d="M0 0 C47.025 0.495 47.025 0.495 95 1 C95 32.02 95 63.04 95 95 C79.49 95 63.98 95 48 95 C48 79.49 48 63.98 48 48 C32.16 48 16.32 48 0 48 C0 32.16 0 16.32 0 0 Z " fill="#FEFEFE" transform="translate(475,570)"/>
<path d="M0 0 C15.84 0 31.68 0 48 0 C48 15.84 48 31.68 48 48 C32.16 48 16.32 48 0 48 C0 63.51 0 79.02 0 95 C-15.51 95 -31.02 95 -47 95 C-47 79.16 -47 63.32 -47 47 C-31.49 47 -15.98 47 0 47 C0 31.49 0 15.98 0 0 Z " fill="#000000" transform="translate(142,1188)"/>
<path d="M0 0 C15.84 0 31.68 0 48 0 C48 31.02 48 62.04 48 94 C32.16 94 16.32 94 0 94 C0 62.98 0 31.96 0 0 Z " fill="#060608" transform="translate(903,856)"/>
<path d="M0 0 C31.35 0 62.7 0 95 0 C95 15.51 95 31.02 95 47 C63.65 47 32.3 47 0 47 C0 31.49 0 15.98 0 0 Z " fill="#9BDA42" transform="translate(1046,1046)"/>
<path d="M0 0 C31.35 0 62.7 0 95 0 C95 15.51 95 31.02 95 47 C63.65 47 32.3 47 0 47 C0 31.49 0 15.98 0 0 Z " fill="#9BCB46" transform="translate(190,1046)"/>
<path d="M0 0 C15.84 0 31.68 0 48 0 C48 110.22 48 220.44 48 334 C-171.78 334 -391.56 334 -618 334 C-618 349.51 -618 365.02 -618 381 C-618.33 381 -618.66 381 -619 381 C-619 365.49 -619 349.98 -619 334 C-634.51 334 -650.02 334 -666 334 C-666 286.81 -666 239.62 -666 191 C-665.67 191 -665.34 191 -665 191 C-665 237.86 -665 284.72 -665 333 C-649.82 333 -634.64 333 -619 333 C-619 238.95 -619 144.9 -619 48 C-618.67 48 -618.34 48 -618 48 C-618 142.05 -618 236.1 -618 333 C-398.55 333 -179.1 333 47 333 C47 238.95 47 144.9 47 48 C31.49 48 15.98 48 0 48 C0 32.16 0 16.32 0 0 Z " fill="#020200" transform="translate(951,950)"/>
<path d="M0 0 C15.51 0 31.02 0 47 0 C47 15.51 47 31.02 47 47 C31.49 47 15.98 47 0 47 C0 31.49 0 15.98 0 0 Z " fill="#000000" transform="translate(904,903)"/>
<path d="M0 0 C15.51 0 31.02 0 47 0 C47 15.51 47 31.02 47 47 C31.49 47 15.98 47 0 47 C0 31.49 0 15.98 0 0 Z " fill="#000000" transform="translate(380,903)"/>
<path d="M0 0 C0.33 0 0.66 0 1 0 C1 94.05 1 188.1 1 285 C220.45 285 439.9 285 666 285 C666 285.33 666 285.66 666 286 C446.55 286 227.1 286 1 286 C1 301.51 1 317.02 1 333 C0.67 333 0.34 333 0 333 C0 317.49 0 301.98 0 286 C-15.51 286 -31.02 286 -47 286 C-47 238.81 -47 191.62 -47 143 C-46.67 143 -46.34 143 -46 143 C-46 189.86 -46 236.72 -46 285 C-30.82 285 -15.64 285 0 285 C0 190.95 0 96.9 0 0 Z " fill="#374D17" transform="translate(332,998)"/>
</svg>
