<?xml version="1.0" encoding="UTF-8"?>
<svg version="1.1" xmlns="http://www.w3.org/2000/svg" width="1379" height="1522">
<path d="M0 0 C63.03 0 126.06 0 191 0 C191 15.51 191 31.02 191 47 C253.7 47 316.4 47 381 47 C381 31.49 381 15.98 381 0 C428.19 0 475.38 0 524 0 C524 15.51 524 31.02 524 47 C539.84 47 555.68 47 572 47 C572 62.84 572 78.68 572 95 C587.51 95 603.02 95 619 95 C619 126.35 619 157.7 619 190 C634.84 190 650.68 190 667 190 C667 205.51 667 221.02 667 237 C682.51 237 698.02 237 714 237 C714 268.35 714 299.7 714 332 C729.84 332 745.68 332 762 332 C762 379.19 762 426.38 762 475 C793.35 475 824.7 475 857 475 C857 490.51 857 506.02 857 522 C872.51 522 888.02 522 904 522 C904 537.84 904 553.68 904 570 C919.84 570 935.68 570 952 570 C952 617.19 952 664.38 952 713 C936.16 713 920.32 713 904 713 C904 728.84 904 744.68 904 761 C888.49 761 872.98 761 857 761 C857 776.51 857 792.02 857 808 C809.81 808 762.62 808 714 808 C714 823.84 714 839.68 714 856 C698.49 856 682.98 856 667 856 C667 871.84 667 887.68 667 904 C651.16 904 635.32 904 619 904 C619 919.51 619 935.02 619 951 C603.49 951 587.98 951 572 951 C572 966.51 572 982.02 572 998 C587.51 998 603.02 998 619 998 C619 1013.51 619 1029.02 619 1045 C634.84 1045 650.68 1045 667 1045 C667 1060.84 667 1076.68 667 1093 C682.51 1093 698.02 1093 714 1093 C714 1108.51 714 1124.02 714 1140 C729.84 1140 745.68 1140 762 1140 C762 1171.68 762 1203.36 762 1236 C745.83 1236 729.66 1236 713 1236 C713 1204.65 713 1173.3 713 1141 C697.82 1141 682.64 1141 667 1141 C667 1219.54 667 1298.08 667 1379 C635.65 1379 604.3 1379 572 1379 C572 1394.51 572 1410.02 572 1426 C603.35 1426 634.7 1426 667 1426 C667 1457.35 667 1488.7 667 1521 C588.13 1521 509.26 1521 428 1521 C428 1474.14 428 1427.28 428 1379 C334.28 1379 240.56 1379 144 1379 C144 1425.86 144 1472.72 144 1521 C65.13 1521 -13.74 1521 -95 1521 C-95 1489.65 -95 1458.3 -95 1426 C-63.65 1426 -32.3 1426 0 1426 C0 1410.49 0 1394.98 0 1379 C-15.51 1379 -31.02 1379 -47 1379 C-47 1363.16 -47 1347.32 -47 1331 C-62.51 1331 -78.02 1331 -94 1331 C-94 1346.84 -94 1362.68 -94 1379 C-172.54 1379 -251.08 1379 -332 1379 C-332 1363.16 -332 1347.32 -332 1331 C-347.84 1331 -363.68 1331 -380 1331 C-380 1315.49 -380 1299.98 -380 1284 C-395.51 1284 -411.02 1284 -427 1284 C-427 1236.48 -427 1188.96 -427 1140 C-411.49 1140 -395.98 1140 -380 1140 C-380 1124.49 -380 1108.98 -380 1093 C-348.32 1093 -316.64 1093 -284 1093 C-284 1108.51 -284 1124.02 -284 1140 C-268.16 1140 -252.32 1140 -236 1140 C-236 1155.84 -236 1171.68 -236 1188 C-220.82 1188 -205.64 1188 -190 1188 C-190 1172.16 -190 1156.32 -190 1140 C-174.16 1140 -158.32 1140 -142 1140 C-142 1124.49 -142 1108.98 -142 1093 C-126.49 1093 -110.98 1093 -95 1093 C-95 1077.16 -95 1061.32 -95 1045 C-79.16 1045 -63.32 1045 -47 1045 C-47 1029.49 -47 1013.98 -47 998 C-31.49 998 -15.98 998 0 998 C0 982.49 0 966.98 0 951 C-15.51 951 -31.02 951 -47 951 C-47 935.49 -47 919.98 -47 904 C-62.42274686 904.0396079 -62.42274686 904.0396079 -77.84545898 904.09008789 C-79.77067001 904.09300691 -81.69588165 904.0955555 -83.62109375 904.09765625 C-84.63079224 904.10277222 -85.64049072 904.10788818 -86.68078613 904.11315918 C-88.11194763 904.11334045 -88.11194763 904.11334045 -89.57202148 904.11352539 C-90.40475082 904.115746 -91.23748016 904.11796661 -92.09544373 904.12025452 C-94 904 -94 904 -95 903 C-95.09304018 901.52645652 -95.11746265 900.04849409 -95.11352539 898.57202148 C-95.11340454 897.61791382 -95.11328369 896.66380615 -95.11315918 895.68078613 C-95.10804321 894.67108765 -95.10292725 893.66138916 -95.09765625 892.62109375 C-95.09664917 891.69816528 -95.09564209 890.77523682 -95.09460449 889.82434082 C-95.08935494 886.36204799 -95.07539381 882.8997728 -95.0625 879.4375 C-95.041875 871.703125 -95.02125 863.96875 -95 856 C-110.51 856 -126.02 856 -142 856 C-142 824.65 -142 793.3 -142 761 C-157.84 761 -173.68 761 -190 761 C-190 713.81 -190 666.62 -190 618 C-205.51 618 -221.02 618 -237 618 C-237 554.97 -237 491.94 -237 427 C-221.49 427 -205.98 427 -190 427 C-190 380.14 -190 333.28 -190 285 C-174.16 285 -158.32 285 -142 285 C-142 253.65 -142 222.3 -142 190 C-126.49 190 -110.98 190 -95 190 C-95 174.16 -95 158.32 -95 142 C-79.16 142 -63.32 142 -47 142 C-47 110.65 -47 79.3 -47 47 C-31.49 47 -15.98 47 0 47 C0 31.49 0 15.98 0 0 Z M-141 1141 C-141 1156.51 -141 1172.02 -141 1188 C-125.82 1188 -110.64 1188 -95 1188 C-95 1172.49 -95 1156.98 -95 1141 C-110.18 1141 -125.36 1141 -141 1141 Z " fill="#D89F65" transform="translate(427,0)"/>
<path d="M0 0 C156.42 0 312.84 0 474 0 C474 15.51 474 31.02 474 47 C489.84 47 505.68 47 522 47 C522 62.84 522 78.68 522 95 C537.84 95 553.68 95 570 95 C570 189.05 570 283.1 570 380 C350.22 380 130.44 380 -96 380 C-96 285.95 -96 191.9 -96 95 C-80.16 95 -64.32 95 -48 95 C-48 79.16 -48 63.32 -48 47 C-32.16 47 -16.32 47 0 47 C0 31.49 0 15.98 0 0 Z " fill="#D89F66" transform="translate(476,951)"/>
<path d="M0 0 C63.03 0 126.06 0 191 0 C191 15.51 191 31.02 191 47 C253.7 47 316.4 47 381 47 C381 31.49 381 15.98 381 0 C428.19 0 475.38 0 524 0 C524 15.51 524 31.02 524 47 C476.975 47.495 476.975 47.495 429 48 C428.67 110.37 428.34 172.74 428 237 C412.49 237 396.98 237 381 237 C381 190.14 381 143.28 381 95 C318.3 95 255.6 95 191 95 C191 142.19 191 189.38 191 238 C175.49 238 159.98 238 144 238 C144 253.51 144 269.02 144 285 C112.32 285 80.64 285 48 285 C48 269.16 48 253.32 48 237 C79.35 237 110.7 237 143 237 C143 174.63 143 112.26 143 48 C96.14 48 49.28 48 1 48 C1 79.35 1 110.7 1 143 C-14.84 143 -30.68 143 -47 143 C-47 189.86 -47 236.72 -47 285 C-62.51 285 -78.02 285 -94 285 C-94 300.84 -94 316.68 -94 333 C-109.84 333 -125.68 333 -142 333 C-142 364.35 -142 395.7 -142 428 C-157.51 428 -173.02 428 -189 428 C-189 490.7 -189 553.4 -189 618 C-173.49 618 -157.98 618 -142 618 C-142 664.86 -142 711.72 -142 760 C-126.16 760 -110.32 760 -94 760 C-94 775.84 -94 791.68 -94 808 C-78.49 808 -62.98 808 -47 808 C-47 823.84 -47 839.68 -47 856 C-31.16 856 -15.32 856 1 856 C1 871.51 1 887.02 1 903 C16.51 903 32.02 903 48 903 C48 934.35 48 965.7 48 998 C32.49 998 16.98 998 1 998 C1 1013.84 1 1029.68 1 1046 C-14.84 1046 -30.68 1046 -47 1046 C-47 1140.05 -47 1234.1 -47 1331 C-62.51 1331 -78.02 1331 -94 1331 C-94 1346.84 -94 1362.68 -94 1379 C-172.54 1379 -251.08 1379 -332 1379 C-332 1363.16 -332 1347.32 -332 1331 C-347.84 1331 -363.68 1331 -380 1331 C-380 1315.49 -380 1299.98 -380 1284 C-395.51 1284 -411.02 1284 -427 1284 C-427 1236.48 -427 1188.96 -427 1140 C-411.49 1140 -395.98 1140 -380 1140 C-380 1124.49 -380 1108.98 -380 1093 C-348.32 1093 -316.64 1093 -284 1093 C-284 1108.51 -284 1124.02 -284 1140 C-268.16 1140 -252.32 1140 -236 1140 C-236 1155.84 -236 1171.68 -236 1188 C-220.82 1188 -205.64 1188 -190 1188 C-190 1172.16 -190 1156.32 -190 1140 C-174.16 1140 -158.32 1140 -142 1140 C-142 1124.49 -142 1108.98 -142 1093 C-126.49 1093 -110.98 1093 -95 1093 C-95 1077.16 -95 1061.32 -95 1045 C-79.16 1045 -63.32 1045 -47 1045 C-47 1029.49 -47 1013.98 -47 998 C-31.49 998 -15.98 998 0 998 C0 982.49 0 966.98 0 951 C-15.51 951 -31.02 951 -47 951 C-47 935.49 -47 919.98 -47 904 C-62.42274686 904.0396079 -62.42274686 904.0396079 -77.84545898 904.09008789 C-79.77067001 904.09300691 -81.69588165 904.0955555 -83.62109375 904.09765625 C-84.63079224 904.10277222 -85.64049072 904.10788818 -86.68078613 904.11315918 C-88.11194763 904.11334045 -88.11194763 904.11334045 -89.57202148 904.11352539 C-90.40475082 904.115746 -91.23748016 904.11796661 -92.09544373 904.12025452 C-94 904 -94 904 -95 903 C-95.09304018 901.52645652 -95.11746265 900.04849409 -95.11352539 898.57202148 C-95.11340454 897.61791382 -95.11328369 896.66380615 -95.11315918 895.68078613 C-95.10804321 894.67108765 -95.10292725 893.66138916 -95.09765625 892.62109375 C-95.09664917 891.69816528 -95.09564209 890.77523682 -95.09460449 889.82434082 C-95.08935494 886.36204799 -95.07539381 882.8997728 -95.0625 879.4375 C-95.041875 871.703125 -95.02125 863.96875 -95 856 C-110.51 856 -126.02 856 -142 856 C-142 824.65 -142 793.3 -142 761 C-157.84 761 -173.68 761 -190 761 C-190 713.81 -190 666.62 -190 618 C-205.51 618 -221.02 618 -237 618 C-237 554.97 -237 491.94 -237 427 C-221.49 427 -205.98 427 -190 427 C-190 380.14 -190 333.28 -190 285 C-174.16 285 -158.32 285 -142 285 C-142 253.65 -142 222.3 -142 190 C-126.49 190 -110.98 190 -95 190 C-95 174.16 -95 158.32 -95 142 C-79.16 142 -63.32 142 -47 142 C-47 110.65 -47 79.3 -47 47 C-31.49 47 -15.98 47 0 47 C0 31.49 0 15.98 0 0 Z M-141 1141 C-141 1156.51 -141 1172.02 -141 1188 C-125.82 1188 -110.64 1188 -95 1188 C-95 1172.49 -95 1156.98 -95 1141 C-110.18 1141 -125.36 1141 -141 1141 Z " fill="#000000" transform="translate(427,0)"/>
<path d="M0 0 C15.84 0 31.68 0 48 0 C48 15.84 48 31.68 48 48 C32.49 48 16.98 48 1 48 C1 63.51 1 79.02 1 95 C-46.19 95 -93.38 95 -142 95 C-142 110.84 -142 126.68 -142 143 C-157.51 143 -173.02 143 -189 143 C-189 158.84 -189 174.68 -189 191 C-204.84 191 -220.68 191 -237 191 C-237 206.51 -237 222.02 -237 238 C-252.51 238 -268.02 238 -284 238 C-284 253.51 -284 269.02 -284 285 C-268.49 285 -252.98 285 -237 285 C-237 300.51 -237 316.02 -237 332 C-221.16 332 -205.32 332 -189 332 C-189 347.84 -189 363.68 -189 380 C-173.49 380 -157.98 380 -142 380 C-142 395.51 -142 411.02 -142 427 C-126.16 427 -110.32 427 -94 427 C-94 458.68 -94 490.36 -94 523 C-110.17 523 -126.34 523 -143 523 C-143 491.65 -143 460.3 -143 428 C-158.18 428 -173.36 428 -189 428 C-189 506.54 -189 585.08 -189 666 C-220.35 666 -251.7 666 -284 666 C-284 681.51 -284 697.02 -284 713 C-252.65 713 -221.3 713 -189 713 C-189 744.35 -189 775.7 -189 808 C-267.87 808 -346.74 808 -428 808 C-428 761.14 -428 714.28 -428 666 C-521.72 666 -615.44 666 -712 666 C-712 712.86 -712 759.72 -712 808 C-790.87 808 -869.74 808 -951 808 C-951 776.65 -951 745.3 -951 713 C-919.65 713 -888.3 713 -856 713 C-856 697.49 -856 681.98 -856 666 C-871.51 666 -887.02 666 -903 666 C-903 650.16 -903 634.32 -903 618 C-683.22 618 -463.44 618 -237 618 C-237 523.95 -237 429.9 -237 333 C-252.84 333 -268.68 333 -285 333 C-285 317.16 -285 301.32 -285 285 C-300.51 285 -316.02 285 -332 285 C-332 253.65 -332 222.3 -332 190 C-316.49 190 -300.98 190 -285 190 C-285 174.16 -285 158.32 -285 142 C-253.65 142 -222.3 142 -190 142 C-190 110.65 -190 79.3 -190 47 C-127.3 47 -64.6 47 0 47 C0 31.49 0 15.98 0 0 Z " fill="#000000" transform="translate(1283,713)"/>
<path d="M0 0 C63.03 0 126.06 0 191 0 C191 15.51 191 31.02 191 47 C253.7 47 316.4 47 381 47 C381 31.49 381 15.98 381 0 C428.19 0 475.38 0 524 0 C524 15.51 524 31.02 524 47 C476.975 47.495 476.975 47.495 429 48 C428.67 110.37 428.34 172.74 428 237 C412.49 237 396.98 237 381 237 C381 190.14 381 143.28 381 95 C318.3 95 255.6 95 191 95 C191 142.19 191 189.38 191 238 C175.49 238 159.98 238 144 238 C144 253.51 144 269.02 144 285 C112.32 285 80.64 285 48 285 C48 269.16 48 253.32 48 237 C79.35 237 110.7 237 143 237 C143 174.63 143 112.26 143 48 C96.14 48 49.28 48 1 48 C1 79.35 1 110.7 1 143 C-14.84 143 -30.68 143 -47 143 C-47 111.32 -47 79.64 -47 47 C-31.49 47 -15.98 47 0 47 C0 31.49 0 15.98 0 0 Z " fill="#000000" transform="translate(427,0)"/>
<path d="M0 0 C31.35 0 62.7 0 95 0 C95 31.35 95 62.7 95 95 C157.7 95 220.4 95 285 95 C285 142.19 285 189.38 285 238 C206.46 238 127.92 238 47 238 C47 206.32 47 174.64 47 142 C31.49 142 15.98 142 0 142 C0 95.14 0 48.28 0 0 Z " fill="#D89F65" transform="translate(48,1141)"/>
<path d="M0 0 C15.84 0 31.68 0 48 0 C48 15.84 48 31.68 48 48 C63.51 48 79.02 48 95 48 C95 79.35 95 110.7 95 143 C110.84 143 126.68 143 143 143 C143 158.51 143 174.02 143 190 C158.51 190 174.02 190 190 190 C190 221.35 190 252.7 190 285 C205.84 285 221.68 285 238 285 C238 332.19 238 379.38 238 428 C269.35 428 300.7 428 333 428 C333 443.51 333 459.02 333 475 C348.51 475 364.02 475 380 475 C380 490.84 380 506.68 380 523 C348.65 523 317.3 523 285 523 C285 507.49 285 491.98 285 476 C253.65 476 222.3 476 190 476 C190 413.3 190 350.6 190 286 C174.16 286 158.32 286 142 286 C142 254.65 142 223.3 142 191 C126.49 191 110.98 191 95 191 C95 222.35 95 253.7 95 286 C63.65 286 32.3 286 0 286 C0 270.16 0 254.32 0 238 C15.51 238 31.02 238 47 238 C47 175.3 47 112.6 47 48 C31.49 48 15.98 48 0 48 C0 32.16 0 16.32 0 0 Z " fill="#000000" transform="translate(951,47)"/>
<path d="M0 0 C46.86 0 93.72 0 142 0 C142 62.37 142 124.74 142 189 C110.65 189 79.3 189 47 189 C47 220.68 47 252.36 47 285 C15.65 285 -15.7 285 -48 285 C-48 222.3 -48 159.6 -48 95 C-32.16 95 -16.32 95 0 95 C0 63.65 0 32.3 0 0 Z " fill="#8E553A" transform="translate(428,48)"/>
<path d="M0 0 C1.32708733 0.00539291 1.32708733 0.00539291 2.6809845 0.01089478 C4.07108734 0.01067574 4.07108734 0.01067574 5.48927307 0.01045227 C8.56809285 0.01115178 11.64685295 0.01894595 14.72566223 0.02676392 C16.85415616 0.02862796 18.98265051 0.03005193 21.11114502 0.03105164 C26.72537919 0.03487789 32.33958766 0.04470909 37.95381165 0.05575562 C44.68350951 0.06776147 51.41321595 0.07237146 58.14292145 0.07820892 C68.37755085 0.08792079 78.61212384 0.1070766 88.84675598 0.12442017 C88.84675598 15.96442017 88.84675598 31.80442017 88.84675598 48.12442017 C104.35675598 48.12442017 119.86675598 48.12442017 135.84675598 48.12442017 C135.84675598 110.82442017 135.84675598 173.52442017 135.84675598 238.12442017 C88.65675598 238.12442017 41.46675598 238.12442017 -7.15324402 238.12442017 C-7.15324402 222.61442017 -7.15324402 207.10442017 -7.15324402 191.12442017 C-22.66324402 191.12442017 -38.17324402 191.12442017 -54.15324402 191.12442017 C-54.15324402 190.79442017 -54.15324402 190.46442017 -54.15324402 190.12442017 C-38.64324402 190.12442017 -23.13324402 190.12442017 -7.15324402 190.12442017 C-7.15848083 184.40428589 -7.16371765 178.68415161 -7.16911316 172.79067993 C-7.18564364 153.94332596 -7.19676388 135.09597172 -7.20505619 116.2486124 C-7.21021977 104.8155283 -7.21726363 93.38245105 -7.22868347 81.94937134 C-7.23862843 71.98815991 -7.245097 62.02695344 -7.24733251 52.06573719 C-7.24863994 46.78787843 -7.25172781 41.51003387 -7.25897408 36.23217964 C-7.26573133 31.27058133 -7.26786158 26.30900314 -7.2663517 21.34740067 C-7.26662816 19.52079217 -7.26863502 17.69418304 -7.27244949 15.86757851 C-7.27738215 13.38497564 -7.27624391 10.90245001 -7.27349854 8.41984558 C-7.27641138 7.68736919 -7.27932422 6.95489281 -7.28232533 6.20022017 C-7.26266316 -0.32095232 -6.4089166 0.01100274 0 0 Z " fill="#8E553A" transform="translate(862.1532440185547,46.875579833984375)"/>
<path d="M0 0 C15.84 0 31.68 0 48 0 C48 15.84 48 31.68 48 48 C32.49 48 16.98 48 1 48 C1 63.51 1 79.02 1 95 C-46.19 95 -93.38 95 -142 95 C-142 110.84 -142 126.68 -142 143 C-157.51 143 -173.02 143 -189 143 C-189 158.84 -189 174.68 -189 191 C-204.84 191 -220.68 191 -237 191 C-237 206.51 -237 222.02 -237 238 C-252.51 238 -268.02 238 -284 238 C-284 253.51 -284 269.02 -284 285 C-268.49 285 -252.98 285 -237 285 C-237 300.84 -237 316.68 -237 333 C-252.84 333 -268.68 333 -285 333 C-285 317.16 -285 301.32 -285 285 C-300.51 285 -316.02 285 -332 285 C-332 253.65 -332 222.3 -332 190 C-316.49 190 -300.98 190 -285 190 C-285 174.16 -285 158.32 -285 142 C-253.65 142 -222.3 142 -190 142 C-190 110.65 -190 79.3 -190 47 C-127.3 47 -64.6 47 0 47 C0 31.49 0 15.98 0 0 Z " fill="#000000" transform="translate(1283,713)"/>
<path d="M0 0 C31.35 0 62.7 0 95 0 C95 15.84 95 31.68 95 48 C110.51 48 126.02 48 142 48 C142 79.35 142 110.7 142 143 C126.16 143 110.32 143 94 143 C94 158.51 94 174.02 94 190 C62.98 190 31.96 190 0 190 C0 174.49 0 158.98 0 143 C-15.84 143 -31.68 143 -48 143 C-48 111.65 -48 80.3 -48 48 C-32.16 48 -16.32 48 0 48 C0 32.16 0 16.32 0 0 Z " fill="#FEFEFE" transform="translate(856,1093)"/>
<path d="M0 0 C31.35 0 62.7 0 95 0 C95 15.84 95 31.68 95 48 C110.84 48 126.68 48 143 48 C143 79.35 143 110.7 143 143 C127.16 143 111.32 143 95 143 C95 158.51 95 174.02 95 190 C63.98 190 32.96 190 1 190 C1 174.49 1 158.98 1 143 C-14.84 143 -30.68 143 -47 143 C-47 111.65 -47 80.3 -47 48 C-31.49 48 -15.98 48 0 48 C0 32.16 0 16.32 0 0 Z " fill="#FEFEFE" transform="translate(285,475)"/>
<path d="M0 0 C157.08 0 314.16 0 476 0 C476 31.35 476 62.7 476 95 C475.67 95 475.34 95 475 95 C475 79.49 475 63.98 475 48 C318.58 48 162.16 48 1 48 C1 63.51 1 79.02 1 95 C0.67 95 0.34 95 0 95 C0 63.65 0 32.3 0 0 Z " fill="#AC3332" transform="translate(475,903)"/>
<path d="M0 0 C78.54 0 157.08 0 238 0 C238 15.84 238 31.68 238 48 C159.46 48 80.92 48 0 48 C0 32.16 0 16.32 0 0 Z " fill="#000000" transform="translate(95,1331)"/>
<path d="M0 0 C15.51 0 31.02 0 47 0 C47 31.35 47 62.7 47 95 C31.49 95 15.98 95 0 95 C0 110.84 0 126.68 0 143 C-15.84 143 -31.68 143 -48 143 C-48 111.65 -48 80.3 -48 48 C-32.16 48 -16.32 48 0 48 C0 32.16 0 16.32 0 0 Z " fill="#FEFDFD" transform="translate(428,998)"/>
<path d="M0 0 C15.51 0 31.02 0 47 0 C47 15.84 47 31.68 47 48 C78.35 48 109.7 48 142 48 C142 63.51 142 79.02 142 95 C95.14 95 48.28 95 0 95 C0 63.65 0 32.3 0 0 Z " fill="#000000" transform="translate(1046,570)"/>
<path d="M0 0 C15.51 0 31.02 0 47 0 C47 62.7 47 125.4 47 190 C31.49 190 15.98 190 0 190 C0 127.3 0 64.6 0 0 Z " fill="#000000" transform="translate(856,333)"/>
<path d="M0 0 C15.51 0 31.02 0 47 0 C47 62.7 47 125.4 47 190 C31.49 190 15.98 190 0 190 C0 127.3 0 64.6 0 0 Z " fill="#000000" transform="translate(618,333)"/>
<path d="M0 0 C15.51 0 31.02 0 47 0 C47 46.86 47 93.72 47 142 C15.65 142 -15.7 142 -48 142 C-48 126.49 -48 110.98 -48 95 C-32.16 95 -16.32 95 0 95 C0 63.65 0 32.3 0 0 Z " fill="#FEFEFE" transform="translate(1046,238)"/>
<path d="M0 0 C15.84 0 31.68 0 48 0 C48 47.19 48 94.38 48 143 C32.16 143 16.32 143 0 143 C0 95.81 0 48.62 0 0 Z " fill="#000000" transform="translate(1331,570)"/>
<path d="M0 0 C15.84 0 31.68 0 48 0 C48 15.84 48 31.68 48 48 C63.51 48 79.02 48 95 48 C95 63.51 95 79.02 95 95 C63.65 95 32.3 95 0 95 C0 63.65 0 32.3 0 0 Z " fill="#D79E65" transform="translate(903,1378)"/>
<path d="M0 0 C15.84 0 31.68 0 48 0 C48 31.35 48 62.7 48 95 C16.65 95 -14.7 95 -47 95 C-47 79.49 -47 63.98 -47 48 C-31.49 48 -15.98 48 0 48 C0 32.16 0 16.32 0 0 Z " fill="#D79E65" transform="translate(475,1378)"/>
<path d="M0 0 C31.35 0 62.7 0 95 0 C95 15.84 95 31.68 95 48 C63.65 48 32.3 48 0 48 C0 32.16 0 16.32 0 0 Z " fill="#FDFCFC" transform="translate(1093,570)"/>
<path d="M0 0 C31.35 0 62.7 0 95 0 C95 15.84 95 31.68 95 48 C63.65 48 32.3 48 0 48 C0 32.16 0 16.32 0 0 Z " fill="#020101" transform="translate(380,285)"/>
<path d="M0 0 C31.68 0 63.36 0 96 0 C96 15.51 96 31.02 96 47 C64.32 47 32.64 47 0 47 C0 31.49 0 15.98 0 0 Z " fill="#FAF136" transform="translate(665,951)"/>
<path d="M0 0 C31.02 0 62.04 0 94 0 C94 15.51 94 31.02 94 47 C62.98 47 31.96 47 0 47 C0 31.49 0 15.98 0 0 Z " fill="#000000" transform="translate(856,238)"/>
<path d="M0 0 C15.84 0 31.68 0 48 0 C48 15.84 48 31.68 48 48 C-30.21 48 -108.42 48 -189 48 C-189 79.35 -189 110.7 -189 143 C-220.68 143 -252.36 143 -285 143 C-285 142.67 -285 142.34 -285 142 C-253.65 142 -222.3 142 -190 142 C-190 110.65 -190 79.3 -190 47 C-127.3 47 -64.6 47 0 47 C0 31.49 0 15.98 0 0 Z " fill="#0F0B07" transform="translate(1283,713)"/>
<path d="M0 0 C47.52 0 95.04 0 144 0 C144 62.7 144 125.4 144 190 C159.51 190 175.02 190 191 190 C191 190.33 191 190.66 191 191 C175.49 191 159.98 191 144 191 C144 206.51 144 222.02 144 238 C143.67 238 143.34 238 143 238 C143 222.49 143 206.98 143 191 C111.98 191 80.96 191 49 191 C49 206.51 49 222.02 49 238 C48.67 238 48.34 238 48 238 C48 222.16 48 206.32 48 190 C79.35 190 110.7 190 143 190 C143 127.63 143 65.26 143 1 C96.14 1 49.28 1 1 1 C1 32.35 1 63.7 1 96 C-14.84 96 -30.68 96 -47 96 C-47 95.67 -47 95.34 -47 95 C-31.49 95 -15.98 95 0 95 C0 63.65 0 32.3 0 0 Z " fill="#422A1C" transform="translate(427,47)"/>
<path d="M0 0 C0.33 0 0.66 0 1 0 C1 62.37 1 124.74 1 189 C32.35 189 63.7 189 96 189 C96 204.84 96 220.68 96 237 C95.67 237 95.34 237 95 237 C95 221.49 95 205.98 95 190 C63.98 190 32.96 190 1 190 C1 205.51 1 221.02 1 237 C0.67 237 0.34 237 0 237 C0 221.49 0 205.98 0 190 C-15.51 190 -31.02 190 -47 190 C-47 189.67 -47 189.34 -47 189 C-31.49 189 -15.98 189 0 189 C0 126.63 0 64.26 0 0 Z " fill="#492F1F" transform="translate(855,48)"/>
</svg>
