<?xml version="1.0" encoding="UTF-8"?>
<svg version="1.1" xmlns="http://www.w3.org/2000/svg" width="1100" height="1522">
<path d="M0 0 C94.38 0 188.76 0 286 0 C286 15.84 286 31.68 286 48 C301.84 48 317.68 48 334 48 C334 63.51 334 79.02 334 95 C349.51 95 365.02 95 381 95 C381 110.84 381 126.68 381 143 C396.84 143 412.68 143 429 143 C429 158.51 429 174.02 429 190 C444.51 190 460.02 190 476 190 C476 362.92 476 535.84 476 714 C460.49 714 444.98 714 429 714 C429 729.84 429 745.68 429 762 C413.16 762 397.32 762 381 762 C381 777.51 381 793.02 381 809 C365.49 809 349.98 809 334 809 C334 840.02 334 871.04 334 903 C365.35 903 396.7 903 429 903 C429 918.84 429 934.68 429 951 C460.35 951 491.7 951 524 951 C524 966.51 524 982.02 524 998 C539.51 998 555.02 998 571 998 C571 1013.84 571 1029.68 571 1046 C586.84 1046 602.68 1046 619 1046 C619 1061.51 619 1077.02 619 1093 C634.51 1093 650.02 1093 666 1093 C666 1108.84 666 1124.68 666 1141 C674.91 1141 683.82 1141 693 1141 C693 1172.68 693 1204.36 693 1237 C652.41 1237 611.82 1237 570 1237 C570 1221.16 570 1205.32 570 1189 C554.82 1189 539.64 1189 524 1189 C524 1236.19 524 1283.38 524 1332 C476.81 1332 429.62 1332 381 1332 C381 1363.02 381 1394.04 381 1426 C412.35 1426 443.7 1426 476 1426 C476 1457.02 476 1488.04 476 1520 C381.62 1520 287.24 1520 190 1520 C190 1488.98 190 1457.96 190 1426 C205.84 1426 221.68 1426 238 1426 C238 1394.98 238 1363.96 238 1332 C191.14 1332 144.28 1332 96 1332 C96 1363.02 96 1394.04 96 1426 C111.51 1426 127.02 1426 143 1426 C143 1457.02 143 1488.04 143 1520 C48.62 1520 -45.76 1520 -143 1520 C-143 1488.98 -143 1457.96 -143 1426 C-111.65 1426 -80.3 1426 -48 1426 C-48 1394.98 -48 1363.96 -48 1332 C-94.86 1332 -141.72 1332 -190 1332 C-190 1316.16 -190 1300.32 -190 1284 C-205.84 1284 -221.68 1284 -238 1284 C-238 1252.65 -238 1221.3 -238 1189 C-253.18 1189 -268.36 1189 -284 1189 C-284 1204.84 -284 1220.68 -284 1237 C-324.59 1237 -365.18 1237 -407 1237 C-407 1205.32 -407 1173.64 -407 1141 C-398.09 1141 -389.18 1141 -380 1141 C-380 1125.16 -380 1109.32 -380 1093 C-364.49 1093 -348.98 1093 -333 1093 C-333 1077.49 -333 1061.98 -333 1046 C-317.16 1046 -301.32 1046 -285 1046 C-285 1030.16 -285 1014.32 -285 998 C-269.49 998 -253.98 998 -238 998 C-238 982.49 -238 966.98 -238 951 C-206.65 951 -175.3 951 -143 951 C-143 935.16 -143 919.32 -143 903 C-111.65 903 -80.3 903 -48 903 C-48 871.98 -48 840.96 -48 809 C-63.51 809 -79.02 809 -95 809 C-95 793.49 -95 777.98 -95 762 C-110.42274686 762.0396079 -110.42274686 762.0396079 -125.84545898 762.09008789 C-127.77067001 762.09300691 -129.69588165 762.0955555 -131.62109375 762.09765625 C-132.63079224 762.10277222 -133.64049072 762.10788818 -134.68078613 762.11315918 C-136.11194763 762.11334045 -136.11194763 762.11334045 -137.57202148 762.11352539 C-138.40475082 762.115746 -139.23748016 762.11796661 -140.09544373 762.12025452 C-142 762 -142 762 -143 761 C-143.09304018 759.52645652 -143.11746265 758.04849409 -143.11352539 756.57202148 C-143.11340454 755.61791382 -143.11328369 754.66380615 -143.11315918 753.68078613 C-143.10804321 752.67108765 -143.10292725 751.66138916 -143.09765625 750.62109375 C-143.09664917 749.69816528 -143.09564209 748.77523682 -143.09460449 747.82434082 C-143.08935494 744.36204799 -143.07539381 740.8997728 -143.0625 737.4375 C-143.041875 729.703125 -143.02125 721.96875 -143 714 C-158.51 714 -174.02 714 -190 714 C-190 541.08 -190 368.16 -190 190 C-174.49 190 -158.98 190 -143 190 C-143 174.49 -143 158.98 -143 143 C-127.16 143 -111.32 143 -95 143 C-95 127.16 -95 111.32 -95 95 C-79.49 95 -63.98 95 -48 95 C-48 79.49 -48 63.98 -48 48 C-32.16 48 -16.32 48 0 48 C0 32.16 0 16.32 0 0 Z " fill="#FEFEFE" transform="translate(407,2)"/>
<path d="M0 0 C15.84 0 31.68 0 48 0 C48 15.51 48 31.02 48 47 C63.51 47 79.02 47 95 47 C95 219.92 95 392.84 95 571 C79.49 571 63.98 571 48 571 C48 586.84 48 602.68 48 619 C32.16 619 16.32 619 0 619 C0 634.51 0 650.02 0 666 C-15.51 666 -31.02 666 -47 666 C-47 697.02 -47 728.04 -47 760 C-15.65 760 15.7 760 48 760 C48 775.84 48 791.68 48 808 C79.35 808 110.7 808 143 808 C143 823.51 143 839.02 143 855 C158.51 855 174.02 855 190 855 C190 870.84 190 886.68 190 903 C205.84 903 221.68 903 238 903 C238 918.51 238 934.02 238 950 C253.51 950 269.02 950 285 950 C285 965.84 285 981.68 285 998 C293.91 998 302.82 998 312 998 C312 1029.68 312 1061.36 312 1094 C271.41 1094 230.82 1094 189 1094 C189 1078.16 189 1062.32 189 1046 C173.82 1046 158.64 1046 143 1046 C143 1093.19 143 1140.38 143 1189 C95.81 1189 48.62 1189 0 1189 C0 1220.02 0 1251.04 0 1283 C31.35 1283 62.7 1283 95 1283 C95 1314.02 95 1345.04 95 1377 C0.62 1377 -93.76 1377 -191 1377 C-191 1345.98 -191 1314.96 -191 1283 C-175.16 1283 -159.32 1283 -143 1283 C-143 1251.98 -143 1220.96 -143 1189 C-189.86 1189 -236.72 1189 -285 1189 C-285 1220.02 -285 1251.04 -285 1283 C-269.49 1283 -253.98 1283 -238 1283 C-238 1314.02 -238 1345.04 -238 1377 C-332.38 1377 -426.76 1377 -524 1377 C-524 1345.98 -524 1314.96 -524 1283 C-492.65 1283 -461.3 1283 -429 1283 C-429 1251.98 -429 1220.96 -429 1189 C-475.86 1189 -522.72 1189 -571 1189 C-571 1173.16 -571 1157.32 -571 1141 C-351.22 1141 -131.44 1141 95 1141 C95 1046.95 95 952.9 95 856 C79.16 856 63.32 856 47 856 C47 840.16 47 824.32 47 808 C15.65 808 -15.7 808 -48 808 C-48 792.49 -48 776.98 -48 761 C-63.51 761 -79.02 761 -95 761 C-95 729.65 -95 698.3 -95 666 C-79.49 666 -63.98 666 -48 666 C-48 650.16 -48 634.32 -48 618 C-32.16 618 -16.32 618 0 618 C0 602.49 0 586.98 0 571 C15.51 571 31.02 571 47 571 C47 398.41 47 225.82 47 48 C31.49 48 15.98 48 0 48 C0 32.16 0 16.32 0 0 Z " fill="#030304" transform="translate(788,145)"/>
<path d="M0 0 C15.84 0 31.68 0 48 0 C48 15.84 48 31.68 48 48 C32.49 48 16.98 48 1 48 C1 220.59 1 393.18 1 571 C16.51 571 32.02 571 48 571 C48 586.51 48 602.02 48 618 C63.84 618 79.68 618 96 618 C96 633.84 96 649.68 96 666 C111.51 666 127.02 666 143 666 C143 697.35 143 728.7 143 761 C127.49 761 111.98 761 96 761 C96 776.51 96 792.02 96 808 C64.65 808 33.3 808 1 808 C1 823.84 1 839.68 1 856 C-14.84 856 -30.68 856 -47 856 C-47 950.05 -47 1044.1 -47 1141 C-62.84 1141 -78.68 1141 -95 1141 C-95 1109.65 -95 1078.3 -95 1046 C-110.18 1046 -125.36 1046 -141 1046 C-141 1061.84 -141 1077.68 -141 1094 C-181.59 1094 -222.18 1094 -264 1094 C-264 1062.32 -264 1030.64 -264 998 C-255.09 998 -246.18 998 -237 998 C-237 982.16 -237 966.32 -237 950 C-221.49 950 -205.98 950 -190 950 C-190 934.49 -190 918.98 -190 903 C-174.16 903 -158.32 903 -142 903 C-142 887.16 -142 871.32 -142 855 C-126.49 855 -110.98 855 -95 855 C-95 839.49 -95 823.98 -95 808 C-63.65 808 -32.3 808 0 808 C0 792.16 0 776.32 0 760 C31.35 760 62.7 760 95 760 C95 728.98 95 697.96 95 666 C79.49 666 63.98 666 48 666 C48 650.49 48 634.98 48 619 C32.57725314 619.0396079 32.57725314 619.0396079 17.15454102 619.09008789 C15.22932999 619.09300691 13.30411835 619.0955555 11.37890625 619.09765625 C10.36920776 619.10277222 9.35950928 619.10788818 8.31921387 619.11315918 C6.88805237 619.11334045 6.88805237 619.11334045 5.42797852 619.11352539 C4.59524918 619.115746 3.76251984 619.11796661 2.90455627 619.12025452 C1 619 1 619 0 618 C-0.09304018 616.52645652 -0.11746265 615.04849409 -0.11352539 613.57202148 C-0.11340454 612.61791382 -0.11328369 611.66380615 -0.11315918 610.68078613 C-0.10804321 609.67108765 -0.10292725 608.66138916 -0.09765625 607.62109375 C-0.09664917 606.69816528 -0.09564209 605.77523682 -0.09460449 604.82434082 C-0.08935494 601.36204799 -0.07539381 597.8997728 -0.0625 594.4375 C-0.041875 586.703125 -0.02125 578.96875 0 571 C-15.51 571 -31.02 571 -47 571 C-47 398.08 -47 225.16 -47 47 C-31.49 47 -15.98 47 0 47 C0 31.49 0 15.98 0 0 Z " fill="#010101" transform="translate(264,145)"/>
<path d="M0 0 C62.7 0 125.4 0 190 0 C190 15.51 190 31.02 190 47 C205.84 47 221.68 47 238 47 C238 94.19 238 141.38 238 190 C143.62 190 49.24 190 -48 190 C-48 142.81 -48 95.62 -48 47 C-32.16 47 -16.32 47 0 47 C0 31.49 0 15.98 0 0 Z " fill="#FFD541" transform="translate(455,526)"/>
<path d="M0 0 C15.84 0 31.68 0 48 0 C48 15.51 48 31.02 48 47 C63.51 47 79.02 47 95 47 C95 219.92 95 392.84 95 571 C79.49 571 63.98 571 48 571 C48 586.84 48 602.68 48 619 C32.16 619 16.32 619 0 619 C0 634.51 0 650.02 0 666 C-15.51 666 -31.02 666 -47 666 C-47 697.02 -47 728.04 -47 760 C-15.65 760 15.7 760 48 760 C48 775.84 48 791.68 48 808 C16.32 808 -15.36 808 -48 808 C-48 792.49 -48 776.98 -48 761 C-63.51 761 -79.02 761 -95 761 C-95 729.65 -95 698.3 -95 666 C-79.49 666 -63.98 666 -48 666 C-48 650.16 -48 634.32 -48 618 C-32.16 618 -16.32 618 0 618 C0 602.49 0 586.98 0 571 C15.51 571 31.02 571 47 571 C47 398.41 47 225.82 47 48 C31.49 48 15.98 48 0 48 C0 32.16 0 16.32 0 0 Z " fill="#010101" transform="translate(788,145)"/>
<path d="M0 0 C15.84 0 31.68 0 48 0 C48 15.84 48 31.68 48 48 C32.49 48 16.98 48 1 48 C1 220.59 1 393.18 1 571 C16.51 571 32.02 571 48 571 C48 586.51 48 602.02 48 618 C63.84 618 79.68 618 96 618 C96 633.84 96 649.68 96 666 C111.51 666 127.02 666 143 666 C143 697.35 143 728.7 143 761 C127.49 761 111.98 761 96 761 C96 776.51 96 792.02 96 808 C64.32 808 32.64 808 0 808 C0 792.16 0 776.32 0 760 C31.35 760 62.7 760 95 760 C95 728.98 95 697.96 95 666 C79.49 666 63.98 666 48 666 C48 650.49 48 634.98 48 619 C32.57725314 619.0396079 32.57725314 619.0396079 17.15454102 619.09008789 C15.22932999 619.09300691 13.30411835 619.0955555 11.37890625 619.09765625 C10.36920776 619.10277222 9.35950928 619.10788818 8.31921387 619.11315918 C6.88805237 619.11334045 6.88805237 619.11334045 5.42797852 619.11352539 C4.59524918 619.115746 3.76251984 619.11796661 2.90455627 619.12025452 C1 619 1 619 0 618 C-0.09304018 616.52645652 -0.11746265 615.04849409 -0.11352539 613.57202148 C-0.11340454 612.61791382 -0.11328369 611.66380615 -0.11315918 610.68078613 C-0.10804321 609.67108765 -0.10292725 608.66138916 -0.09765625 607.62109375 C-0.09664917 606.69816528 -0.09564209 605.77523682 -0.09460449 604.82434082 C-0.08935494 601.36204799 -0.07539381 597.8997728 -0.0625 594.4375 C-0.041875 586.703125 -0.02125 578.96875 0 571 C-15.51 571 -31.02 571 -47 571 C-47 398.08 -47 225.16 -47 47 C-31.49 47 -15.98 47 0 47 C0 31.49 0 15.98 0 0 Z " fill="#010101" transform="translate(264,145)"/>
<path d="M0 0 C15.84 0 31.68 0 48 0 C48 31.35 48 62.7 48 95 C110.7 95 173.4 95 238 95 C238 63.65 238 32.3 238 0 C253.84 0 269.68 0 286 0 C286 47.19 286 94.38 286 143 C191.62 143 97.24 143 0 143 C0 95.81 0 48.62 0 0 Z " fill="#FA6B0C" transform="translate(407,573)"/>
<path d="M0 0 C31.68 0 63.36 0 96 0 C96 15.51 96 31.02 96 47 C111.51 47 127.02 47 143 47 C143 78.68 143 110.36 143 143 C111.65 143 80.3 143 48 143 C48 127.16 48 111.32 48 95 C32.16 95 16.32 95 0 95 C0 63.65 0 32.3 0 0 Z " fill="#FDFDFD" transform="translate(930,1048)"/>
<path d="M0 0 C31.68 0 63.36 0 96 0 C96 31.35 96 62.7 96 95 C80.16 95 64.32 95 48 95 C48 110.84 48 126.68 48 143 C16.65 143 -14.7 143 -47 143 C-47 111.32 -47 79.64 -47 47 C-31.49 47 -15.98 47 0 47 C0 31.49 0 15.98 0 0 Z " fill="#FDFDFD" transform="translate(74,1048)"/>
<path d="M0 0 C94.38 0 188.76 0 286 0 C286 15.84 286 31.68 286 48 C191.62 48 97.24 48 0 48 C0 32.16 0 16.32 0 0 Z " fill="#000000" transform="translate(407,2)"/>
<path d="M0 0 C15.84 0 31.68 0 48 0 C48 47.19 48 94.38 48 143 C16.65 143 -14.7 143 -47 143 C-47 127.49 -47 111.98 -47 96 C-31.49 96 -15.98 96 0 96 C0 64.32 0 32.64 0 0 Z " fill="#F76909" transform="translate(407,1333)"/>
<path d="M0 0 C62.7 0 125.4 0 190 0 C190 15.51 190 31.02 190 47 C127.3 47 64.6 47 0 47 C0 31.49 0 15.98 0 0 Z " fill="#FA6A0A" transform="translate(455,526)"/>
<path d="M0 0 C15.51 0 31.02 0 47 0 C47 31.35 47 62.7 47 95 C62.51 95 78.02 95 94 95 C94 110.51 94 126.02 94 142 C62.98 142 31.96 142 0 142 C0 95.14 0 48.28 0 0 Z " fill="#FA6A0A" transform="translate(693,1334)"/>
<path d="M0 0 C15.51 0 31.02 0 47 0 C47 62.37 47 124.74 47 189 C31.49 189 15.98 189 0 189 C0 126.63 0 64.26 0 0 Z " fill="#000000" transform="translate(693,336)"/>
<path d="M0 0 C15.51 0 31.02 0 47 0 C47 62.37 47 124.74 47 189 C31.49 189 15.98 189 0 189 C0 126.63 0 64.26 0 0 Z " fill="#060608" transform="translate(360,336)"/>
<path d="M0 0 C8.91 0 17.82 0 27 0 C27 15.84 27 31.68 27 48 C58.35 48 89.7 48 122 48 C122 32.16 122 16.32 122 0 C137.84 0 153.68 0 170 0 C170 0.33 170 0.66 170 1 C154.49 1 138.98 1 123 1 C123 32.35 123 63.7 123 96 C82.41 96 41.82 96 0 96 C0 64.32 0 32.64 0 0 Z " fill="#060609" transform="translate(0,1143)"/>
<path d="M0 0 C15.84 0 31.68 0 48 0 C48 15.51 48 31.02 48 47 C63.51 47 79.02 47 95 47 C95 62.84 95 78.68 95 95 C79.16 95 63.32 95 47 95 C47 79.49 47 63.98 47 48 C31.49 48 15.98 48 0 48 C0 32.16 0 16.32 0 0 Z " fill="#070709" transform="translate(978,1048)"/>
<path d="M0 0 C15.84 0 31.68 0 48 0 C48 15.84 48 31.68 48 48 C32.49 48 16.98 48 1 48 C1 63.51 1 79.02 1 95 C-14.84 95 -30.68 95 -47 95 C-47 79.16 -47 63.32 -47 47 C-31.49 47 -15.98 47 0 47 C0 31.49 0 15.98 0 0 Z " fill="#070709" transform="translate(74,1048)"/>
<path d="M0 0 C15.84 0 31.68 0 48 0 C48 15.51 48 31.02 48 47 C63.51 47 79.02 47 95 47 C95 62.84 95 78.68 95 95 C79.16 95 63.32 95 47 95 C47 79.49 47 63.98 47 48 C31.49 48 15.98 48 0 48 C0 32.16 0 16.32 0 0 Z " fill="#000000" transform="translate(693,50)"/>
<path d="M0 0 C15.84 0 31.68 0 48 0 C48 15.84 48 31.68 48 48 C32.49 48 16.98 48 1 48 C1 63.51 1 79.02 1 95 C-14.84 95 -30.68 95 -47 95 C-47 79.16 -47 63.32 -47 47 C-31.49 47 -15.98 47 0 47 C0 31.49 0 15.98 0 0 Z " fill="#000000" transform="translate(359,50)"/>
<path d="M0 0 C15.51 0 31.02 0 47 0 C47 31.02 47 62.04 47 94 C31.49 94 15.98 94 0 94 C0 62.98 0 31.96 0 0 Z " fill="#060608" transform="translate(693,336)"/>
<path d="M0 0 C15.84 0 31.68 0 48 0 C48 15.51 48 31.02 48 47 C32.16 47 16.32 47 0 47 C0 31.49 0 15.98 0 0 Z " fill="#000000" transform="translate(788,145)"/>
<path d="M0 0 C15.84 0 31.68 0 48 0 C48 15.51 48 31.02 48 47 C32.16 47 16.32 47 0 47 C0 31.49 0 15.98 0 0 Z " fill="#000000" transform="translate(264,145)"/>
<path d="M0 0 C15.51 0 31.02 0 47 0 C47 15.51 47 31.02 47 47 C31.49 47 15.98 47 0 47 C0 31.49 0 15.98 0 0 Z " fill="#000000" transform="translate(741,764)"/>
<path d="M0 0 C15.51 0 31.02 0 47 0 C47 15.51 47 31.02 47 47 C31.49 47 15.98 47 0 47 C0 31.49 0 15.98 0 0 Z " fill="#000000" transform="translate(312,764)"/>
<path d="M0 0 C15.51 0 31.02 0 47 0 C47 15.51 47 31.02 47 47 C31.49 47 15.98 47 0 47 C0 31.49 0 15.98 0 0 Z " fill="#000000" transform="translate(360,478)"/>
</svg>
