<?xml version="1.0" encoding="UTF-8"?>
<svg version="1.1" xmlns="http://www.w3.org/2000/svg" width="1046" height="1522">
<path d="M0 0 C94.38 0 188.76 0 286 0 C286 15.51 286 31.02 286 47 C317.35 47 348.7 47 381 47 C381 62.84 381 78.68 381 95 C396.51 95 412.02 95 428 95 C428 110.51 428 126.02 428 142 C443.84 142 459.68 142 476 142 C476 157.84 476 173.68 476 190 C491.84 190 507.68 190 524 190 C524 205.51 524 221.02 524 237 C539.51 237 555.02 237 571 237 C571 268.35 571 299.7 571 332 C586.84 332 602.68 332 619 332 C619 426.38 619 520.76 619 618 C603.16 618 587.32 618 571 618 C571 649.35 571 680.7 571 713 C555.49 713 539.98 713 524 713 C524 744.35 524 775.7 524 808 C508.16 808 492.32 808 476 808 C476 823.51 476 839.02 476 855 C507.35 855 538.7 855 571 855 C571 870.84 571 886.68 571 903 C586.84 903 602.68 903 619 903 C619 918.51 619 934.02 619 950 C634.51 950 650.02 950 666 950 C666 966.17 666 982.34 666 999 C603.3 999 540.6 999 476 999 C476 1014.18 476 1029.36 476 1045 C491.84 1045 507.68 1045 524 1045 C524 1139.38 524 1233.76 524 1331 C508.16 1331 492.32 1331 476 1331 C476 1346.84 476 1362.68 476 1379 C444.65 1379 413.3 1379 381 1379 C381 1394.51 381 1410.02 381 1426 C412.35 1426 443.7 1426 476 1426 C476 1457.35 476 1488.7 476 1521 C397.13 1521 318.26 1521 237 1521 C237 1474.14 237 1427.28 237 1379 C174.63 1379 112.26 1379 48 1379 C48 1425.86 48 1472.72 48 1521 C-30.54 1521 -109.08 1521 -190 1521 C-190 1489.65 -190 1458.3 -190 1426 C-158.65 1426 -127.3 1426 -95 1426 C-95 1410.49 -95 1394.98 -95 1379 C-126.35 1379 -157.7 1379 -190 1379 C-190 1363.16 -190 1347.32 -190 1331 C-205.84 1331 -221.68 1331 -238 1331 C-238 1236.62 -238 1142.24 -238 1045 C-222.16 1045 -206.32 1045 -190 1045 C-190 1029.82 -190 1014.64 -190 999 C-252.7 999 -315.4 999 -380 999 C-380 982.83 -380 966.66 -380 950 C-364.49 950 -348.98 950 -333 950 C-333 934.49 -333 918.98 -333 903 C-317.16 903 -301.32 903 -285 903 C-285 887.16 -285 871.32 -285 855 C-253.65 855 -222.3 855 -190 855 C-190 839.49 -190 823.98 -190 808 C-205.84 808 -221.68 808 -238 808 C-238 776.65 -238 745.3 -238 713 C-253.51 713 -269.02 713 -285 713 C-285 681.65 -285 650.3 -285 618 C-300.84 618 -316.68 618 -333 618 C-333 523.62 -333 429.24 -333 332 C-317.16 332 -301.32 332 -285 332 C-285 300.65 -285 269.3 -285 237 C-269.49 237 -253.98 237 -238 237 C-238 221.49 -238 205.98 -238 190 C-222.16 190 -206.32 190 -190 190 C-190 174.16 -190 158.32 -190 142 C-174.49 142 -158.98 142 -143 142 C-143 126.49 -143 110.98 -143 95 C-127.16 95 -111.32 95 -95 95 C-95 79.16 -95 63.32 -95 47 C-63.65 47 -32.3 47 0 47 C0 31.49 0 15.98 0 0 Z " fill="#222034" transform="translate(380,0)"/>
<path d="M0 0 C47.19 0 94.38 0 143 0 C143 15.84 143 31.68 143 48 C158.51 48 174.02 48 190 48 C190 63.51 190 79.02 190 95 C221.35 95 252.7 95 285 95 C285 79.49 285 63.98 285 48 C300.84 48 316.68 48 333 48 C333 32.16 333 16.32 333 0 C380.19 0 427.38 0 476 0 C476 15.84 476 31.68 476 48 C491.51 48 507.02 48 523 48 C523 63.51 523 79.02 523 95 C538.84 95 554.68 95 571 95 C571 173.54 571 252.08 571 333 C539.32 333 507.64 333 475 333 C475 348.51 475 364.02 475 380 C459.49 380 443.98 380 428 380 C428 395.84 428 411.68 428 428 C412.16 428 396.32 428 380 428 C380 506.54 380 585.08 380 666 C395.84 666 411.68 666 428 666 C428 681.51 428 697.02 428 713 C443.51 713 459.02 713 475 713 C475 775.7 475 838.4 475 903 C459.49 903 443.98 903 428 903 C428 918.84 428 934.68 428 951 C412.16 951 396.32 951 380 951 C380 966.51 380 982.02 380 998 C285.95 998 191.9 998 95 998 C95 982.49 95 966.98 95 951 C79.49 951 63.98 951 48 951 C48 935.16 48 919.32 48 903 C32.16 903 16.32 903 0 903 C0 840.3 0 777.6 0 713 C15.84 713 31.68 713 48 713 C48 697.49 48 681.98 48 666 C63.51 666 79.02 666 95 666 C95 587.46 95 508.92 95 428 C79.49 428 63.98 428 48 428 C48 412.16 48 396.32 48 380 C16.65 380 -14.7 380 -47 380 C-47 364.49 -47 348.98 -47 333 C-62.84 333 -78.68 333 -95 333 C-95 254.46 -95 175.92 -95 95 C-79.16 95 -63.32 95 -47 95 C-47 79.49 -47 63.98 -47 48 C-31.49 48 -15.98 48 0 48 C0 32.16 0 16.32 0 0 Z " fill="#FEFEFE" transform="translate(285,285)"/>
<path d="M0 0 C15.84 0 31.68 0 48 0 C48 15.51 48 31.02 48 47 C95.19 47 142.38 47 191 47 C191 78.68 191 110.36 191 143 C175.16 143 159.32 143 143 143 C143 189.86 143 236.72 143 285 C158.84 285 174.68 285 191 285 C191 300.84 191 316.68 191 333 C206.51 333 222.02 333 238 333 C238 348.51 238 364.02 238 380 C253.84 380 269.68 380 286 380 C286 395.84 286 411.68 286 428 C411.4 428 536.8 428 666 428 C666 412.16 666 396.32 666 380 C681.84 380 697.68 380 714 380 C714 364.49 714 348.98 714 333 C729.51 333 745.02 333 761 333 C761 317.16 761 301.32 761 285 C776.84 285 792.68 285 809 285 C809 238.14 809 191.28 809 143 C793.16 143 777.32 143 761 143 C761 111.65 761 80.3 761 48 C808.19 48 855.38 48 904 48 C904 32.16 904 16.32 904 0 C919.84 0 935.68 0 952 0 C952 15.51 952 31.02 952 47 C967.51 47 983.02 47 999 47 C999 63.17 999 79.34 999 96 C936.3 96 873.6 96 809 96 C809 111.18 809 126.36 809 142 C824.84 142 840.68 142 857 142 C857 236.38 857 330.76 857 428 C841.16 428 825.32 428 809 428 C809 443.84 809 459.68 809 476 C777.65 476 746.3 476 714 476 C714 491.51 714 507.02 714 523 C745.35 523 776.7 523 809 523 C809 554.35 809 585.7 809 618 C730.13 618 651.26 618 570 618 C570 571.14 570 524.28 570 476 C507.63 476 445.26 476 381 476 C381 522.86 381 569.72 381 618 C302.46 618 223.92 618 143 618 C143 586.65 143 555.3 143 523 C174.35 523 205.7 523 238 523 C238 507.49 238 491.98 238 476 C206.65 476 175.3 476 143 476 C143 460.16 143 444.32 143 428 C127.16 428 111.32 428 95 428 C95 333.62 95 239.24 95 142 C110.84 142 126.68 142 143 142 C143 126.82 143 111.64 143 96 C80.3 96 17.6 96 -47 96 C-47 79.83 -47 63.66 -47 47 C-31.49 47 -15.98 47 0 47 C0 31.49 0 15.98 0 0 Z " fill="#000000" transform="translate(47,903)"/>
<path d="M0 0 C94.38 0 188.76 0 286 0 C286 15.51 286 31.02 286 47 C317.35 47 348.7 47 381 47 C381 62.84 381 78.68 381 95 C396.51 95 412.02 95 428 95 C428 110.51 428 126.02 428 142 C443.84 142 459.68 142 476 142 C476 157.84 476 173.68 476 190 C460.16 190 444.32 190 428 190 C428 174.49 428 158.98 428 143 C412.16 143 396.32 143 380 143 C380 127.16 380 111.32 380 95 C348.65 95 317.3 95 285 95 C285 79.49 285 63.98 285 48 C190.95 48 96.9 48 0 48 C0 63.51 0 79.02 0 95 C-31.35 95 -62.7 95 -95 95 C-95 79.16 -95 63.32 -95 47 C-63.65 47 -32.3 47 0 47 C0 31.49 0 15.98 0 0 Z " fill="#000000" transform="translate(380,0)"/>
<path d="M0 0 C15.84 0 31.68 0 48 0 C48 15.84 48 31.68 48 48 C32.49 48 16.98 48 1 48 C1 79.35 1 110.7 1 143 C-14.84 143 -30.68 143 -47 143 C-47 237.05 -47 331.1 -47 428 C-62.84 428 -78.68 428 -95 428 C-95 333.62 -95 239.24 -95 142 C-79.16 142 -63.32 142 -47 142 C-47 110.65 -47 79.3 -47 47 C-31.49 47 -15.98 47 0 47 C0 31.49 0 15.98 0 0 Z " fill="#000000" transform="translate(142,190)"/>
<path d="M0 0 C15.84 0 31.68 0 48 0 C48 15.51 48 31.02 48 47 C63.51 47 79.02 47 95 47 C95 78.35 95 109.7 95 142 C110.84 142 126.68 142 143 142 C143 236.38 143 330.76 143 428 C127.16 428 111.32 428 95 428 C95 333.95 95 239.9 95 143 C79.16 143 63.32 143 47 143 C47 111.32 47 79.64 47 47 C31.49 47 15.98 47 0 47 C0 31.49 0 15.98 0 0 Z " fill="#000000" transform="translate(856,190)"/>
<path d="M0 0 C15.84 0 31.68 0 48 0 C48 15.51 48 31.02 48 47 C95.19 47 142.38 47 191 47 C191 78.68 191 110.36 191 143 C175.16 143 159.32 143 143 143 C143 127.49 143 111.98 143 96 C80.3 96 17.6 96 -47 96 C-47 79.83 -47 63.66 -47 47 C-31.49 47 -15.98 47 0 47 C0 31.49 0 15.98 0 0 Z " fill="#000000" transform="translate(47,903)"/>
<path d="M0 0 C15.84 0 31.68 0 48 0 C48 15.51 48 31.02 48 47 C63.51 47 79.02 47 95 47 C95 63.17 95 79.34 95 96 C32.3 96 -30.4 96 -95 96 C-95 111.51 -95 127.02 -95 143 C-110.84 143 -126.68 143 -143 143 C-143 111.65 -143 80.3 -143 48 C-95.81 48 -48.62 48 0 48 C0 32.16 0 16.32 0 0 Z " fill="#000000" transform="translate(951,903)"/>
<path d="M0 0 C62.7 0 125.4 0 190 0 C190 15.51 190 31.02 190 47 C174.16 47 158.32 47 142 47 C142 62.84 142 78.68 142 95 C110.65 95 79.3 95 47 95 C47 79.49 47 63.98 47 48 C31.49 48 15.98 48 0 48 C0 32.16 0 16.32 0 0 Z " fill="#DF7127" transform="translate(428,523)"/>
<path d="M0 0 C15.84 0 31.68 0 48 0 C48 15.51 48 31.02 48 47 C79.35 47 110.7 47 143 47 C143 62.84 143 78.68 143 95 C95.81 95 48.62 95 0 95 C0 63.65 0 32.3 0 0 Z " fill="#000000" transform="translate(808,808)"/>
<path d="M0 0 C15.84 0 31.68 0 48 0 C48 31.35 48 62.7 48 95 C0.81 95 -46.38 95 -95 95 C-95 79.16 -95 63.32 -95 47 C-63.65 47 -32.3 47 0 47 C0 31.49 0 15.98 0 0 Z " fill="#000000" transform="translate(190,808)"/>
<path d="M0 0 C15.84 0 31.68 0 48 0 C48 31.35 48 62.7 48 95 C63.51 95 79.02 95 95 95 C95 126.35 95 157.7 95 190 C79.16 190 63.32 190 47 190 C47 158.65 47 127.3 47 95 C31.49 95 15.98 95 0 95 C0 63.65 0 32.3 0 0 Z " fill="#000000" transform="translate(95,618)"/>
<path d="M0 0 C15.84 0 31.68 0 48 0 C48 31.35 48 62.7 48 95 C32.49 95 16.98 95 1 95 C1 126.35 1 157.7 1 190 C-14.84 190 -30.68 190 -47 190 C-47 158.65 -47 127.3 -47 95 C-31.49 95 -15.98 95 0 95 C0 63.65 0 32.3 0 0 Z " fill="#000000" transform="translate(903,618)"/>
<path d="M0 0 C15.51 0 31.02 0 47 0 C47 47.19 47 94.38 47 143 C31.49 143 15.98 143 0 143 C0 95.81 0 48.62 0 0 Z " fill="#000000" transform="translate(666,380)"/>
<path d="M0 0 C15.51 0 31.02 0 47 0 C47 47.19 47 94.38 47 143 C31.49 143 15.98 143 0 143 C0 95.81 0 48.62 0 0 Z " fill="#000000" transform="translate(333,380)"/>
<path d="M0 0 C15.51 0 31.02 0 47 0 C47 31.02 47 62.04 47 94 C15.65 94 -15.7 94 -48 94 C-48 78.49 -48 62.98 -48 47 C-32.16 47 -16.32 47 0 47 C0 31.49 0 15.98 0 0 Z " fill="#DE7025" transform="translate(333,1379)"/>
<path d="M0 0 C15.51 0 31.02 0 47 0 C47 15.51 47 31.02 47 47 C62.51 47 78.02 47 94 47 C94 62.51 94 78.02 94 94 C62.98 94 31.96 94 0 94 C0 62.98 0 31.96 0 0 Z " fill="#DF7126" transform="translate(666,1379)"/>
<path d="M0 0 C0.33 0 0.66 0 1 0 C1 62.7 1 125.4 1 190 C-30.35 190 -61.7 190 -94 190 C-94 174.49 -94 158.98 -94 143 C-62.98 143 -31.96 143 0 143 C0 95.81 0 48.62 0 0 Z " fill="#D67DBA" transform="translate(332,380)"/>
<path d="M0 0 C15.84 0 31.68 0 48 0 C48 15.84 48 31.68 48 48 C32.49 48 16.98 48 1 48 C1 63.51 1 79.02 1 95 C-14.84 95 -30.68 95 -47 95 C-47 79.16 -47 63.32 -47 47 C-31.49 47 -15.98 47 0 47 C0 31.49 0 15.98 0 0 Z " fill="#000000" transform="translate(237,95)"/>
<path d="M0 0 C31.35 0 62.7 0 95 0 C95 15.51 95 31.02 95 47 C63.65 47 32.3 47 0 47 C0 31.49 0 15.98 0 0 Z " fill="#D77BBA" transform="translate(713,523)"/>
</svg>
