<svg width="405" height="141" viewBox="0 0 405 141" fill="none" xmlns="http://www.w3.org/2000/svg">
<g filter="url(#filter0_d_16099_27616)">
<path d="M91.0791 87.936L84.459 50.178C83.4455 44.397 77.9412 40.5293 72.1588 41.5349L70.3028 41.8577L7.18418 58.6954C4.60386 59.3837 3.6818 62.5696 5.49559 64.5297L26.3441 87.0601C28.9611 89.8882 29.8441 93.9104 28.6525 97.5747L19.054 127.09C18.1405 129.898 20.9185 132.729 23.7767 131.984C30.8026 130.153 43.8447 127.145 65.9854 123.253C82.6364 120.326 93.9988 104.588 91.0791 87.936Z" fill="url(#paint0_linear_16099_27616)"/>
<path d="M69.9601 39.8873L69.8729 39.9025L69.7873 39.9253L6.66868 56.763C2.63293 57.8396 1.1908 62.8223 4.02764 65.888L5.49559 64.5297L4.02764 65.888L24.8762 88.4185C27.0011 90.7149 27.7181 93.9808 26.7505 96.9561L17.1521 126.471C15.7241 130.862 19.9745 135.042 24.2812 133.919C31.2424 132.105 44.2297 129.108 66.3316 125.223C84.0386 122.11 96.1649 105.362 93.0491 87.5906L86.429 49.8326C85.2248 42.9647 78.6857 38.3698 71.8161 39.5645L69.9601 39.8873Z" stroke="#784122" stroke-width="4"/>
</g>
<path fill-rule="evenodd" clip-rule="evenodd" d="M52.1886 45.1279L66.1995 102.978C71.7452 104.247 75.9557 107.521 79.0012 115.429C79.3035 116.214 79.3788 116.907 79.2401 117.526C88.1457 110.852 93.1272 99.619 91.0788 87.936L84.1672 48.5153C83.275 43.4267 78.8557 39.7148 73.6896 39.7148H71.9282C70.9008 39.7148 69.8789 39.8637 68.8942 40.1567L52.1886 45.1279ZM70.7318 122.03C67.8279 122.676 64.2523 123.275 60.1075 123.97C55.471 124.747 50.1222 125.643 44.2045 126.858C38.4854 128.032 34.0104 129.194 30.5022 130.106L30.5021 130.106C26.3025 131.197 23.4882 131.928 21.583 131.888C22.2633 132.127 23.017 132.182 23.7764 131.984C30.8023 130.153 43.8443 127.145 65.9851 123.253C67.6213 122.965 69.2063 122.554 70.7318 122.03Z" fill="#70451A"/>
<path fill-rule="evenodd" clip-rule="evenodd" d="M39.5147 50.0703L7.18396 58.695C4.60363 59.3833 3.68157 62.5691 5.49536 64.5292L26.3439 87.0597C28.9609 89.8878 29.8439 93.91 28.6523 97.5742L19.0538 127.089C18.1403 129.898 20.9183 132.728 23.7765 131.983C30.1197 130.33 41.3667 127.718 59.7859 124.362C26.4346 87.0425 27.4101 64.277 39.5147 50.0703Z" fill="#DE9223"/>
<g filter="url(#filter1_d_16099_27616)">
<path d="M313.716 87.936L320.336 50.178C321.349 44.397 326.854 40.5293 332.636 41.5349L334.492 41.8577L397.611 58.6954C400.191 59.3837 401.113 62.5696 399.299 64.5297L378.451 87.0601C375.834 89.8882 374.951 93.9104 376.142 97.5747L385.741 127.09C386.654 129.898 383.876 132.729 381.018 131.984C373.992 130.153 360.95 127.145 338.81 123.253C322.158 120.326 310.796 104.588 313.716 87.936Z" fill="url(#paint1_linear_16099_27616)"/>
<path d="M334.835 39.8873L334.922 39.9025L335.008 39.9253L398.126 56.763C402.162 57.8396 403.604 62.8223 400.767 65.888L399.299 64.5297L400.767 65.888L379.919 88.4185C377.794 90.7149 377.077 93.9808 378.044 96.9561L387.643 126.471C389.071 130.862 384.82 135.042 380.514 133.919C373.553 132.105 360.565 129.108 338.463 125.223C320.756 122.11 308.63 105.362 311.746 87.5906L318.366 49.8326C319.57 42.9647 326.109 38.3698 332.979 39.5645L334.835 39.8873Z" stroke="#784122" stroke-width="4"/>
</g>
<path fill-rule="evenodd" clip-rule="evenodd" d="M352.606 45.1279L338.595 102.978C333.05 104.247 328.839 107.521 325.794 115.429C325.491 116.214 325.416 116.907 325.555 117.526C316.649 110.852 311.668 99.619 313.716 87.936L320.628 48.5153C321.52 43.4267 325.939 39.7148 331.105 39.7148H332.867C333.894 39.7148 334.916 39.8637 335.901 40.1567L352.606 45.1279ZM334.063 122.03C336.967 122.676 340.543 123.275 344.687 123.97C349.324 124.747 354.673 125.643 360.59 126.858C366.31 128.032 370.784 129.194 374.293 130.106L374.293 130.106C378.492 131.197 381.307 131.928 383.212 131.888C382.532 132.127 381.778 132.182 381.018 131.984C373.993 130.153 360.951 127.145 338.81 123.253C337.174 122.965 335.589 122.554 334.063 122.03Z" fill="#70451A"/>
<path fill-rule="evenodd" clip-rule="evenodd" d="M365.28 50.0703L397.611 58.695C400.191 59.3833 401.113 62.5691 399.3 64.5292L378.451 87.0597C375.834 89.8878 374.951 93.91 376.143 97.5742L385.741 127.089C386.655 129.898 383.877 132.728 381.018 131.983C374.675 130.33 363.428 127.718 345.009 124.362C378.36 87.0425 377.385 64.277 365.28 50.0703Z" fill="#DE9223"/>
<g filter="url(#filter2_d_16099_27616)">
<path d="M44.7546 36.4365C43.5415 31.1483 46.5155 25.83 51.7236 24.3093C72.8852 18.1305 129.068 4 200.309 4C271.538 4 326.371 18.1259 346.953 24.3063C352.048 25.8363 354.967 31.0238 353.858 36.2268L340.588 98.4773C339.296 104.538 333.112 108.272 327.092 106.8C305.987 101.642 257.076 91.4427 200.309 91.4427C143.243 91.4427 93.6306 101.75 72.4676 106.882C66.5234 108.323 60.4123 104.691 59.0447 98.7291L44.7546 36.4365Z" fill="url(#paint2_linear_16099_27616)"/>
<path d="M51.163 22.3895C44.8943 24.2198 41.3657 30.6084 42.8053 36.8836L57.0953 99.1763C58.7212 106.264 65.9522 110.519 72.9389 108.825C94.0201 103.714 143.462 93.4427 200.309 93.4427C256.857 93.4427 305.596 103.606 326.617 108.743C333.692 110.472 341.008 106.099 342.544 98.8943L355.814 36.6438C357.13 30.4698 353.667 24.234 347.528 22.3908C326.825 16.1739 271.791 2 200.309 2C128.818 2 72.4377 16.1777 51.163 22.3895Z" stroke="#784122" stroke-width="4"/>
</g>
<path fill-rule="evenodd" clip-rule="evenodd" d="M87.6018 15.5059C71.6731 18.7842 59.3967 22.0698 51.7241 24.3101C46.5161 25.8307 43.5421 31.149 44.7552 36.4372L59.0453 98.7298C60.4129 104.691 66.524 108.324 72.4682 106.882C78.7261 105.365 87.4716 103.395 98.1618 101.373C53.8395 52.8649 66.6157 28.4539 87.6018 15.5059Z" fill="#EFA63B"/>
<path fill-rule="evenodd" clip-rule="evenodd" d="M311.817 15.5059C327.746 18.7842 340.022 22.0698 347.695 24.3101C352.903 25.8307 355.877 31.149 354.664 36.4372L340.374 98.7298C339.006 104.691 332.895 108.324 326.951 106.882C320.693 105.365 311.947 103.395 301.257 101.373C345.579 52.8649 332.803 28.4539 311.817 15.5059Z" fill="#EFA63B"/>
<defs>
<filter id="filter0_d_16099_27616" x="0.547852" y="37.375" width="94.9902" height="102.729" filterUnits="userSpaceOnUse" color-interpolation-filters="sRGB">
<feFlood flood-opacity="0" result="BackgroundImageFix"/>
<feColorMatrix in="SourceAlpha" type="matrix" values="0 0 0 0 0 0 0 0 0 0 0 0 0 0 0 0 0 0 127 0" result="hardAlpha"/>
<feOffset dy="4"/>
<feColorMatrix type="matrix" values="0 0 0 0 0.45 0 0 0 0 0.382075 0 0 0 0 0.319375 0 0 0 1 0"/>
<feBlend mode="normal" in2="BackgroundImageFix" result="effect1_dropShadow_16099_27616"/>
<feBlend mode="normal" in="SourceGraphic" in2="effect1_dropShadow_16099_27616" result="shape"/>
</filter>
<filter id="filter1_d_16099_27616" x="309.257" y="37.375" width="94.9902" height="102.729" filterUnits="userSpaceOnUse" color-interpolation-filters="sRGB">
<feFlood flood-opacity="0" result="BackgroundImageFix"/>
<feColorMatrix in="SourceAlpha" type="matrix" values="0 0 0 0 0 0 0 0 0 0 0 0 0 0 0 0 0 0 127 0" result="hardAlpha"/>
<feOffset dy="4"/>
<feColorMatrix type="matrix" values="0 0 0 0 0.45 0 0 0 0 0.382075 0 0 0 0 0.319375 0 0 0 1 0"/>
<feBlend mode="normal" in2="BackgroundImageFix" result="effect1_dropShadow_16099_27616"/>
<feBlend mode="normal" in="SourceGraphic" in2="effect1_dropShadow_16099_27616" result="shape"/>
</filter>
<filter id="filter2_d_16099_27616" x="40.4854" y="0" width="317.606" height="115.195" filterUnits="userSpaceOnUse" color-interpolation-filters="sRGB">
<feFlood flood-opacity="0" result="BackgroundImageFix"/>
<feColorMatrix in="SourceAlpha" type="matrix" values="0 0 0 0 0 0 0 0 0 0 0 0 0 0 0 0 0 0 127 0" result="hardAlpha"/>
<feOffset dy="4"/>
<feColorMatrix type="matrix" values="0 0 0 0 0.45098 0 0 0 0 0.380392 0 0 0 0 0.317647 0 0 0 1 0"/>
<feBlend mode="normal" in2="BackgroundImageFix" result="effect1_dropShadow_16099_27616"/>
<feBlend mode="normal" in="SourceGraphic" in2="effect1_dropShadow_16099_27616" result="shape"/>
</filter>
<linearGradient id="paint0_linear_16099_27616" x1="49.2836" y1="39.7148" x2="49.2836" y2="134.001" gradientUnits="userSpaceOnUse">
<stop stop-color="#E18616"/>
<stop offset="1" stop-color="#CE8923"/>
</linearGradient>
<linearGradient id="paint1_linear_16099_27616" x1="355.511" y1="39.7148" x2="355.511" y2="134.001" gradientUnits="userSpaceOnUse">
<stop stop-color="#E18616"/>
<stop offset="1" stop-color="#CE8923"/>
</linearGradient>
<linearGradient id="paint2_linear_16099_27616" x1="200.309" y1="4" x2="200.309" y2="109.714" gradientUnits="userSpaceOnUse">
<stop stop-color="#F0CE46"/>
<stop offset="1" stop-color="#F89F32"/>
</linearGradient>
</defs>
</svg>
