<svg viewBox="0 0 274 141" preserveAspectRatio="none" shape-rendering="crispEdges" fill="none" xmlns="http://www.w3.org/2000/svg">
<g clip-path="url(#clip0_16478_98635)">
<path d="M23.8261 0H17.8696V5.875H23.8261V0Z" fill="black"/>
<path d="M29.7827 0H23.8262V5.875H29.7827V0Z" fill="black"/>
<path d="M35.7392 0H29.7827V5.875H35.7392V0Z" fill="black"/>
<path d="M41.6958 0H35.7393V5.875H41.6958V0Z" fill="black"/>
<path d="M47.6523 0H41.6958V5.875H47.6523V0Z" fill="black"/>
<path d="M53.6089 0H47.6523V5.875H53.6089V0Z" fill="black"/>
<path d="M59.5654 0H53.6089V5.875H59.5654V0Z" fill="black"/>
<path d="M65.522 0H59.5654V5.875H65.522V0Z" fill="black"/>
<path d="M71.4785 0H65.522V5.875H71.4785V0Z" fill="black"/>
<path d="M77.4345 0H71.478V5.875H77.4345V0Z" fill="black"/>
<path d="M83.3911 0H77.4346V5.875H83.3911V0Z" fill="black"/>
<path d="M89.3476 0H83.3911V5.875H89.3476V0Z" fill="black"/>
<path d="M95.3042 0H89.3477V5.875H95.3042V0Z" fill="black"/>
<path d="M101.261 0H95.3042V5.875H101.261V0Z" fill="black"/>
<path d="M107.217 0H101.261V5.875H107.217V0Z" fill="black"/>
<path d="M113.174 0H107.217V5.875H113.174V0Z" fill="black"/>
<path d="M119.13 0H113.174V5.875H119.13V0Z" fill="black"/>
<path d="M125.087 0H119.13V5.875H125.087V0Z" fill="black"/>
<path d="M131.043 0H125.087V5.875H131.043V0Z" fill="black"/>
<path d="M137 0H131.043V5.875H137V0Z" fill="black"/>
<path d="M142.957 0H137V5.875H142.957V0Z" fill="black"/>
<path d="M148.913 0H142.957V5.875H148.913V0Z" fill="black"/>
<path d="M154.87 0H148.913V5.875H154.87V0Z" fill="black"/>
<path d="M160.826 0H154.87V5.875H160.826V0Z" fill="black"/>
<path d="M166.783 0H160.826V5.875H166.783V0Z" fill="black"/>
<path d="M172.739 0H166.783V5.875H172.739V0Z" fill="black"/>
<path d="M178.696 0H172.739V5.875H178.696V0Z" fill="black"/>
<path d="M184.652 0H178.696V5.875H184.652V0Z" fill="black"/>
<path d="M190.609 0H184.652V5.875H190.609V0Z" fill="black"/>
<path d="M196.565 0H190.609V5.875H196.565V0Z" fill="black"/>
<path d="M202.522 0H196.565V5.875H202.522V0Z" fill="black"/>
<path d="M208.478 0H202.522V5.875H208.478V0Z" fill="black"/>
<path d="M214.435 0H208.478V5.875H214.435V0Z" fill="black"/>
<path d="M220.391 0H214.435V5.875H220.391V0Z" fill="black"/>
<path d="M226.348 0H220.391V5.875H226.348V0Z" fill="black"/>
<path d="M232.304 0H226.348V5.875H232.304V0Z" fill="black"/>
<path d="M238.261 0H232.304V5.875H238.261V0Z" fill="black"/>
<path d="M244.217 0H238.261V5.875H244.217V0Z" fill="black"/>
<path d="M250.174 0H244.217V5.875H250.174V0Z" fill="black"/>
<path d="M256.13 0H250.174V5.875H256.13V0Z" fill="black"/>
<path d="M17.8696 5.875H11.9131V11.75H17.8696V5.875Z" fill="black"/>
<path d="M23.8261 5.875H17.8696V11.75H23.8261V5.875Z" fill="#ACCC6E"/>
<path d="M29.7827 5.875H23.8262V11.75H29.7827V5.875Z" fill="#ACCC6E"/>
<path d="M35.7392 5.875H29.7827V11.75H35.7392V5.875Z" fill="#ACCC6E"/>
<path d="M41.6958 5.875H35.7393V11.75H41.6958V5.875Z" fill="#ACCC6E"/>
<path d="M47.6523 5.875H41.6958V11.75H47.6523V5.875Z" fill="#ACCC6E"/>
<path d="M53.6089 5.875H47.6523V11.75H53.6089V5.875Z" fill="#ACCC6E"/>
<path d="M59.5654 5.875H53.6089V11.75H59.5654V5.875Z" fill="#ACCC6E"/>
<path d="M65.522 5.875H59.5654V11.75H65.522V5.875Z" fill="#ACCC6E"/>
<path d="M71.4785 5.875H65.522V11.75H71.4785V5.875Z" fill="#ACCC6E"/>
<path d="M77.4345 5.875H71.478V11.75H77.4345V5.875Z" fill="#ACCC6E"/>
<path d="M83.3911 5.875H77.4346V11.75H83.3911V5.875Z" fill="#ACCC6E"/>
<path d="M89.3476 5.875H83.3911V11.75H89.3476V5.875Z" fill="#ACCC6E"/>
<path d="M95.3042 5.875H89.3477V11.75H95.3042V5.875Z" fill="#ACCC6E"/>
<path d="M101.261 5.875H95.3042V11.75H101.261V5.875Z" fill="#ACCC6E"/>
<path d="M107.217 5.875H101.261V11.75H107.217V5.875Z" fill="#ACCC6E"/>
<path d="M113.174 5.875H107.217V11.75H113.174V5.875Z" fill="#ACCC6E"/>
<path d="M119.13 5.875H113.174V11.75H119.13V5.875Z" fill="#ACCC6E"/>
<path d="M125.087 5.875H119.13V11.75H125.087V5.875Z" fill="#ACCC6E"/>
<path d="M131.043 5.875H125.087V11.75H131.043V5.875Z" fill="#ACCC6E"/>
<path d="M137 5.875H131.043V11.75H137V5.875Z" fill="#ACCC6E"/>
<path d="M142.957 5.875H137V11.75H142.957V5.875Z" fill="#ACCC6E"/>
<path d="M148.913 5.875H142.957V11.75H148.913V5.875Z" fill="#ACCC6E"/>
<path d="M154.87 5.875H148.913V11.75H154.87V5.875Z" fill="#ACCC6E"/>
<path d="M160.826 5.875H154.87V11.75H160.826V5.875Z" fill="#ACCC6E"/>
<path d="M166.783 5.875H160.826V11.75H166.783V5.875Z" fill="#ACCC6E"/>
<path d="M172.739 5.875H166.783V11.75H172.739V5.875Z" fill="#ACCC6E"/>
<path d="M178.696 5.875H172.739V11.75H178.696V5.875Z" fill="#ACCC6E"/>
<path d="M184.652 5.875H178.696V11.75H184.652V5.875Z" fill="#ACCC6E"/>
<path d="M190.609 5.875H184.652V11.75H190.609V5.875Z" fill="#ACCC6E"/>
<path d="M196.565 5.875H190.609V11.75H196.565V5.875Z" fill="#ACCC6E"/>
<path d="M202.522 5.875H196.565V11.75H202.522V5.875Z" fill="#ACCC6E"/>
<path d="M208.478 5.875H202.522V11.75H208.478V5.875Z" fill="#ACCC6E"/>
<path d="M214.435 5.875H208.478V11.75H214.435V5.875Z" fill="#ACCC6E"/>
<path d="M220.391 5.875H214.435V11.75H220.391V5.875Z" fill="#ACCC6E"/>
<path d="M226.348 5.875H220.391V11.75H226.348V5.875Z" fill="#ACCC6E"/>
<path d="M232.304 5.875H226.348V11.75H232.304V5.875Z" fill="#ACCC6E"/>
<path d="M238.261 5.875H232.304V11.75H238.261V5.875Z" fill="#ACCC6E"/>
<path d="M244.217 5.875H238.261V11.75H244.217V5.875Z" fill="#ACCC6E"/>
<path d="M250.174 5.875H244.217V11.75H250.174V5.875Z" fill="#ACCC6E"/>
<path d="M256.13 5.875H250.174V11.75H256.13V5.875Z" fill="#ACCC6E"/>
<path d="M262.087 5.875H256.13V11.75H262.087V5.875Z" fill="black"/>
<path d="M11.9131 11.75H5.95654V17.625H11.9131V11.75Z" fill="black"/>
<path d="M17.8696 11.75H11.9131V17.625H17.8696V11.75Z" fill="#ACCC6E"/>
<path d="M23.8261 11.75H17.8696V17.625H23.8261V11.75Z" fill="#ACCC6E"/>
<path d="M29.7827 11.75H23.8262V17.625H29.7827V11.75Z" fill="#ACCC6E"/>
<path d="M35.7392 11.75H29.7827V17.625H35.7392V11.75Z" fill="#ACCC6E"/>
<path d="M41.6958 11.75H35.7393V17.625H41.6958V11.75Z" fill="#ACCC6E"/>
<path d="M47.6523 11.75H41.6958V17.625H47.6523V11.75Z" fill="#ACCC6E"/>
<path d="M53.6089 11.75H47.6523V17.625H53.6089V11.75Z" fill="#ACCC6E"/>
<path d="M59.5654 11.75H53.6089V17.625H59.5654V11.75Z" fill="#ACCC6E"/>
<path d="M65.522 11.75H59.5654V17.625H65.522V11.75Z" fill="#ACCC6E"/>
<path d="M71.4785 11.75H65.522V17.625H71.4785V11.75Z" fill="#ACCC6E"/>
<path d="M77.4345 11.75H71.478V17.625H77.4345V11.75Z" fill="#ACCC6E"/>
<path d="M83.3911 11.75H77.4346V17.625H83.3911V11.75Z" fill="#ACCC6E"/>
<path d="M89.3476 11.75H83.3911V17.625H89.3476V11.75Z" fill="#ACCC6E"/>
<path d="M95.3042 11.75H89.3477V17.625H95.3042V11.75Z" fill="#ACCC6E"/>
<path d="M101.261 11.75H95.3042V17.625H101.261V11.75Z" fill="#ACCC6E"/>
<path d="M107.217 11.75H101.261V17.625H107.217V11.75Z" fill="#ACCC6E"/>
<path d="M113.174 11.75H107.217V17.625H113.174V11.75Z" fill="#ACCC6E"/>
<path d="M119.13 11.75H113.174V17.625H119.13V11.75Z" fill="#ACCC6E"/>
<path d="M125.087 11.75H119.13V17.625H125.087V11.75Z" fill="#ACCC6E"/>
<path d="M131.043 11.75H125.087V17.625H131.043V11.75Z" fill="#ACCC6E"/>
<path d="M137 11.75H131.043V17.625H137V11.75Z" fill="#ACCC6E"/>
<path d="M142.957 11.75H137V17.625H142.957V11.75Z" fill="#ACCC6E"/>
<path d="M148.913 11.75H142.957V17.625H148.913V11.75Z" fill="#ACCC6E"/>
<path d="M154.87 11.75H148.913V17.625H154.87V11.75Z" fill="#ACCC6E"/>
<path d="M160.826 11.75H154.87V17.625H160.826V11.75Z" fill="#ACCC6E"/>
<path d="M166.783 11.75H160.826V17.625H166.783V11.75Z" fill="#ACCC6E"/>
<path d="M172.739 11.75H166.783V17.625H172.739V11.75Z" fill="#ACCC6E"/>
<path d="M178.696 11.75H172.739V17.625H178.696V11.75Z" fill="#ACCC6E"/>
<path d="M184.652 11.75H178.696V17.625H184.652V11.75Z" fill="#ACCC6E"/>
<path d="M190.609 11.75H184.652V17.625H190.609V11.75Z" fill="#ACCC6E"/>
<path d="M196.565 11.75H190.609V17.625H196.565V11.75Z" fill="#ACCC6E"/>
<path d="M202.522 11.75H196.565V17.625H202.522V11.75Z" fill="#ACCC6E"/>
<path d="M208.478 11.75H202.522V17.625H208.478V11.75Z" fill="#ACCC6E"/>
<path d="M214.435 11.75H208.478V17.625H214.435V11.75Z" fill="#ACCC6E"/>
<path d="M220.391 11.75H214.435V17.625H220.391V11.75Z" fill="#ACCC6E"/>
<path d="M226.348 11.75H220.391V17.625H226.348V11.75Z" fill="#ACCC6E"/>
<path d="M232.304 11.75H226.348V17.625H232.304V11.75Z" fill="#ACCC6E"/>
<path d="M238.261 11.75H232.304V17.625H238.261V11.75Z" fill="#ACCC6E"/>
<path d="M244.217 11.75H238.261V17.625H244.217V11.75Z" fill="#ACCC6E"/>
<path d="M250.174 11.75H244.217V17.625H250.174V11.75Z" fill="#ACCC6E"/>
<path d="M256.13 11.75H250.174V17.625H256.13V11.75Z" fill="#ACCC6E"/>
<path d="M262.087 11.75H256.13V17.625H262.087V11.75Z" fill="#ACCC6E"/>
<path d="M268.043 11.75H262.087V17.625H268.043V11.75Z" fill="black"/>
<path d="M5.95652 17.625H0V23.5H5.95652V17.625Z" fill="black"/>
<path d="M11.9131 17.625H5.95654V23.5H11.9131V17.625Z" fill="#ACCC6E"/>
<path d="M17.8696 17.625H11.9131V23.5H17.8696V17.625Z" fill="#ACCC6E"/>
<path d="M23.8261 17.625H17.8696V23.5H23.8261V17.625Z" fill="#ACCC6E"/>
<path d="M29.7827 17.625H23.8262V23.5H29.7827V17.625Z" fill="#ACCC6E"/>
<path d="M35.7392 17.625H29.7827V23.5H35.7392V17.625Z" fill="#ACCC6E"/>
<path d="M41.6958 17.625H35.7393V23.5H41.6958V17.625Z" fill="#ACCC6E"/>
<path d="M47.6523 17.625H41.6958V23.5H47.6523V17.625Z" fill="#ACCC6E"/>
<path d="M53.6089 17.625H47.6523V23.5H53.6089V17.625Z" fill="#ACCC6E"/>
<path d="M59.5654 17.625H53.6089V23.5H59.5654V17.625Z" fill="#ACCC6E"/>
<path d="M65.522 17.625H59.5654V23.5H65.522V17.625Z" fill="#ACCC6E"/>
<path d="M71.4785 17.625H65.522V23.5H71.4785V17.625Z" fill="#ACCC6E"/>
<path d="M77.4345 17.625H71.478V23.5H77.4345V17.625Z" fill="#ACCC6E"/>
<path d="M83.3911 17.625H77.4346V23.5H83.3911V17.625Z" fill="#ACCC6E"/>
<path d="M89.3476 17.625H83.3911V23.5H89.3476V17.625Z" fill="#ACCC6E"/>
<path d="M95.3042 17.625H89.3477V23.5H95.3042V17.625Z" fill="#ACCC6E"/>
<path d="M101.261 17.625H95.3042V23.5H101.261V17.625Z" fill="#ACCC6E"/>
<path d="M107.217 17.625H101.261V23.5H107.217V17.625Z" fill="#ACCC6E"/>
<path d="M113.174 17.625H107.217V23.5H113.174V17.625Z" fill="#ACCC6E"/>
<path d="M119.13 17.625H113.174V23.5H119.13V17.625Z" fill="#ACCC6E"/>
<path d="M125.087 17.625H119.13V23.5H125.087V17.625Z" fill="#ACCC6E"/>
<path d="M131.043 17.625H125.087V23.5H131.043V17.625Z" fill="#ACCC6E"/>
<path d="M137 17.625H131.043V23.5H137V17.625Z" fill="#ACCC6E"/>
<path d="M142.957 17.625H137V23.5H142.957V17.625Z" fill="#ACCC6E"/>
<path d="M148.913 17.625H142.957V23.5H148.913V17.625Z" fill="#ACCC6E"/>
<path d="M154.87 17.625H148.913V23.5H154.87V17.625Z" fill="#ACCC6E"/>
<path d="M160.826 17.625H154.87V23.5H160.826V17.625Z" fill="#ACCC6E"/>
<path d="M166.783 17.625H160.826V23.5H166.783V17.625Z" fill="#ACCC6E"/>
<path d="M172.739 17.625H166.783V23.5H172.739V17.625Z" fill="#ACCC6E"/>
<path d="M178.696 17.625H172.739V23.5H178.696V17.625Z" fill="#ACCC6E"/>
<path d="M184.652 17.625H178.696V23.5H184.652V17.625Z" fill="#ACCC6E"/>
<path d="M190.609 17.625H184.652V23.5H190.609V17.625Z" fill="#ACCC6E"/>
<path d="M196.565 17.625H190.609V23.5H196.565V17.625Z" fill="#ACCC6E"/>
<path d="M202.522 17.625H196.565V23.5H202.522V17.625Z" fill="#ACCC6E"/>
<path d="M208.478 17.625H202.522V23.5H208.478V17.625Z" fill="#ACCC6E"/>
<path d="M214.435 17.625H208.478V23.5H214.435V17.625Z" fill="#ACCC6E"/>
<path d="M220.391 17.625H214.435V23.5H220.391V17.625Z" fill="#ACCC6E"/>
<path d="M226.348 17.625H220.391V23.5H226.348V17.625Z" fill="#ACCC6E"/>
<path d="M232.304 17.625H226.348V23.5H232.304V17.625Z" fill="#ACCC6E"/>
<path d="M238.261 17.625H232.304V23.5H238.261V17.625Z" fill="#ACCC6E"/>
<path d="M244.217 17.625H238.261V23.5H244.217V17.625Z" fill="#ACCC6E"/>
<path d="M250.174 17.625H244.217V23.5H250.174V17.625Z" fill="#ACCC6E"/>
<path d="M256.13 17.625H250.174V23.5H256.13V17.625Z" fill="#ACCC6E"/>
<path d="M262.087 17.625H256.13V23.5H262.087V17.625Z" fill="#ACCC6E"/>
<path d="M268.043 17.625H262.087V23.5H268.043V17.625Z" fill="#F3FFDB"/>
<path d="M274 17.625H268.043V23.5H274V17.625Z" fill="black"/>
<path d="M5.95652 23.5H0V29.375H5.95652V23.5Z" fill="black"/>
<path d="M11.9131 23.5H5.95654V29.375H11.9131V23.5Z" fill="#ACCC6E"/>
<path d="M17.8696 23.5H11.9131V29.375H17.8696V23.5Z" fill="#ACCC6E"/>
<path d="M23.8261 23.5H17.8696V29.375H23.8261V23.5Z" fill="#ACCC6E"/>
<path d="M29.7827 23.5H23.8262V29.375H29.7827V23.5Z" fill="#ACCC6E"/>
<path d="M35.7392 23.5H29.7827V29.375H35.7392V23.5Z" fill="#ACCC6E"/>
<path d="M41.6958 23.5H35.7393V29.375H41.6958V23.5Z" fill="#ACCC6E"/>
<path d="M47.6523 23.5H41.6958V29.375H47.6523V23.5Z" fill="#ACCC6E"/>
<path d="M53.6089 23.5H47.6523V29.375H53.6089V23.5Z" fill="#ACCC6E"/>
<path d="M59.5654 23.5H53.6089V29.375H59.5654V23.5Z" fill="#ACCC6E"/>
<path d="M65.522 23.5H59.5654V29.375H65.522V23.5Z" fill="#ACCC6E"/>
<path d="M71.4785 23.5H65.522V29.375H71.4785V23.5Z" fill="#ACCC6E"/>
<path d="M77.4345 23.5H71.478V29.375H77.4345V23.5Z" fill="#ACCC6E"/>
<path d="M83.3911 23.5H77.4346V29.375H83.3911V23.5Z" fill="#ACCC6E"/>
<path d="M89.3476 23.5H83.3911V29.375H89.3476V23.5Z" fill="#ACCC6E"/>
<path d="M95.3042 23.5H89.3477V29.375H95.3042V23.5Z" fill="#ACCC6E"/>
<path d="M101.261 23.5H95.3042V29.375H101.261V23.5Z" fill="#ACCC6E"/>
<path d="M107.217 23.5H101.261V29.375H107.217V23.5Z" fill="#ACCC6E"/>
<path d="M113.174 23.5H107.217V29.375H113.174V23.5Z" fill="#ACCC6E"/>
<path d="M119.13 23.5H113.174V29.375H119.13V23.5Z" fill="#ACCC6E"/>
<path d="M125.087 23.5H119.13V29.375H125.087V23.5Z" fill="#ACCC6E"/>
<path d="M131.043 23.5H125.087V29.375H131.043V23.5Z" fill="#ACCC6E"/>
<path d="M137 23.5H131.043V29.375H137V23.5Z" fill="#ACCC6E"/>
<path d="M142.957 23.5H137V29.375H142.957V23.5Z" fill="#ACCC6E"/>
<path d="M148.913 23.5H142.957V29.375H148.913V23.5Z" fill="#ACCC6E"/>
<path d="M154.87 23.5H148.913V29.375H154.87V23.5Z" fill="#ACCC6E"/>
<path d="M160.826 23.5H154.87V29.375H160.826V23.5Z" fill="#ACCC6E"/>
<path d="M166.783 23.5H160.826V29.375H166.783V23.5Z" fill="#ACCC6E"/>
<path d="M172.739 23.5H166.783V29.375H172.739V23.5Z" fill="#ACCC6E"/>
<path d="M178.696 23.5H172.739V29.375H178.696V23.5Z" fill="#ACCC6E"/>
<path d="M184.652 23.5H178.696V29.375H184.652V23.5Z" fill="#ACCC6E"/>
<path d="M190.609 23.5H184.652V29.375H190.609V23.5Z" fill="#ACCC6E"/>
<path d="M196.565 23.5H190.609V29.375H196.565V23.5Z" fill="#ACCC6E"/>
<path d="M202.522 23.5H196.565V29.375H202.522V23.5Z" fill="#ACCC6E"/>
<path d="M208.478 23.5H202.522V29.375H208.478V23.5Z" fill="#ACCC6E"/>
<path d="M214.435 23.5H208.478V29.375H214.435V23.5Z" fill="#ACCC6E"/>
<path d="M220.391 23.5H214.435V29.375H220.391V23.5Z" fill="#ACCC6E"/>
<path d="M226.348 23.5H220.391V29.375H226.348V23.5Z" fill="#ACCC6E"/>
<path d="M232.304 23.5H226.348V29.375H232.304V23.5Z" fill="#ACCC6E"/>
<path d="M238.261 23.5H232.304V29.375H238.261V23.5Z" fill="#ACCC6E"/>
<path d="M244.217 23.5H238.261V29.375H244.217V23.5Z" fill="#ACCC6E"/>
<path d="M250.174 23.5H244.217V29.375H250.174V23.5Z" fill="#ACCC6E"/>
<path d="M256.13 23.5H250.174V29.375H256.13V23.5Z" fill="#ACCC6E"/>
<path d="M262.087 23.5H256.13V29.375H262.087V23.5Z" fill="#ACCC6E"/>
<path d="M268.043 23.5H262.087V29.375H268.043V23.5Z" fill="#F3FFDB"/>
<path d="M274 23.5H268.043V29.375H274V23.5Z" fill="black"/>
<path d="M5.95652 29.375H0V35.25H5.95652V29.375Z" fill="black"/>
<path d="M11.9131 29.375H5.95654V35.25H11.9131V29.375Z" fill="#ACCC6E"/>
<path d="M17.8696 29.375H11.9131V35.25H17.8696V29.375Z" fill="#ACCC6E"/>
<path d="M23.8261 29.375H17.8696V35.25H23.8261V29.375Z" fill="#ACCC6E"/>
<path d="M29.7827 29.375H23.8262V35.25H29.7827V29.375Z" fill="#ACCC6E"/>
<path d="M35.7392 29.375H29.7827V35.25H35.7392V29.375Z" fill="#ACCC6E"/>
<path d="M41.6958 29.375H35.7393V35.25H41.6958V29.375Z" fill="#ACCC6E"/>
<path d="M47.6523 29.375H41.6958V35.25H47.6523V29.375Z" fill="#ACCC6E"/>
<path d="M53.6089 29.375H47.6523V35.25H53.6089V29.375Z" fill="#ACCC6E"/>
<path d="M59.5654 29.375H53.6089V35.25H59.5654V29.375Z" fill="#ACCC6E"/>
<path d="M65.522 29.375H59.5654V35.25H65.522V29.375Z" fill="#ACCC6E"/>
<path d="M71.4785 29.375H65.522V35.25H71.4785V29.375Z" fill="#ACCC6E"/>
<path d="M77.4345 29.375H71.478V35.25H77.4345V29.375Z" fill="#ACCC6E"/>
<path d="M83.3911 29.375H77.4346V35.25H83.3911V29.375Z" fill="#ACCC6E"/>
<path d="M89.3476 29.375H83.3911V35.25H89.3476V29.375Z" fill="#ACCC6E"/>
<path d="M95.3042 29.375H89.3477V35.25H95.3042V29.375Z" fill="#ACCC6E"/>
<path d="M101.261 29.375H95.3042V35.25H101.261V29.375Z" fill="#ACCC6E"/>
<path d="M107.217 29.375H101.261V35.25H107.217V29.375Z" fill="#ACCC6E"/>
<path d="M113.174 29.375H107.217V35.25H113.174V29.375Z" fill="#ACCC6E"/>
<path d="M119.13 29.375H113.174V35.25H119.13V29.375Z" fill="#ACCC6E"/>
<path d="M125.087 29.375H119.13V35.25H125.087V29.375Z" fill="#ACCC6E"/>
<path d="M131.043 29.375H125.087V35.25H131.043V29.375Z" fill="#ACCC6E"/>
<path d="M137 29.375H131.043V35.25H137V29.375Z" fill="#ACCC6E"/>
<path d="M142.957 29.375H137V35.25H142.957V29.375Z" fill="#ACCC6E"/>
<path d="M148.913 29.375H142.957V35.25H148.913V29.375Z" fill="#ACCC6E"/>
<path d="M154.87 29.375H148.913V35.25H154.87V29.375Z" fill="#ACCC6E"/>
<path d="M160.826 29.375H154.87V35.25H160.826V29.375Z" fill="#ACCC6E"/>
<path d="M166.783 29.375H160.826V35.25H166.783V29.375Z" fill="#ACCC6E"/>
<path d="M172.739 29.375H166.783V35.25H172.739V29.375Z" fill="#ACCC6E"/>
<path d="M178.696 29.375H172.739V35.25H178.696V29.375Z" fill="#ACCC6E"/>
<path d="M184.652 29.375H178.696V35.25H184.652V29.375Z" fill="#ACCC6E"/>
<path d="M190.609 29.375H184.652V35.25H190.609V29.375Z" fill="#ACCC6E"/>
<path d="M196.565 29.375H190.609V35.25H196.565V29.375Z" fill="#ACCC6E"/>
<path d="M202.522 29.375H196.565V35.25H202.522V29.375Z" fill="#ACCC6E"/>
<path d="M208.478 29.375H202.522V35.25H208.478V29.375Z" fill="#ACCC6E"/>
<path d="M214.435 29.375H208.478V35.25H214.435V29.375Z" fill="#ACCC6E"/>
<path d="M220.391 29.375H214.435V35.25H220.391V29.375Z" fill="#ACCC6E"/>
<path d="M226.348 29.375H220.391V35.25H226.348V29.375Z" fill="#ACCC6E"/>
<path d="M232.304 29.375H226.348V35.25H232.304V29.375Z" fill="#ACCC6E"/>
<path d="M238.261 29.375H232.304V35.25H238.261V29.375Z" fill="#ACCC6E"/>
<path d="M244.217 29.375H238.261V35.25H244.217V29.375Z" fill="#ACCC6E"/>
<path d="M250.174 29.375H244.217V35.25H250.174V29.375Z" fill="#ACCC6E"/>
<path d="M256.13 29.375H250.174V35.25H256.13V29.375Z" fill="#ACCC6E"/>
<path d="M262.087 29.375H256.13V35.25H262.087V29.375Z" fill="#ACCC6E"/>
<path d="M268.043 29.375H262.087V35.25H268.043V29.375Z" fill="#F3FFDB"/>
<path d="M274 29.375H268.043V35.25H274V29.375Z" fill="black"/>
<path d="M5.95652 35.25H0V41.125H5.95652V35.25Z" fill="black"/>
<path d="M11.9131 35.25H5.95654V41.125H11.9131V35.25Z" fill="#ACCC6E"/>
<path d="M17.8696 35.25H11.9131V41.125H17.8696V35.25Z" fill="#ACCC6E"/>
<path d="M23.8261 35.25H17.8696V41.125H23.8261V35.25Z" fill="#ACCC6E"/>
<path d="M29.7827 35.25H23.8262V41.125H29.7827V35.25Z" fill="#ACCC6E"/>
<path d="M35.7392 35.25H29.7827V41.125H35.7392V35.25Z" fill="#ACCC6E"/>
<path d="M41.6958 35.25H35.7393V41.125H41.6958V35.25Z" fill="#ACCC6E"/>
<path d="M47.6523 35.25H41.6958V41.125H47.6523V35.25Z" fill="#ACCC6E"/>
<path d="M53.6089 35.25H47.6523V41.125H53.6089V35.25Z" fill="#ACCC6E"/>
<path d="M59.5654 35.25H53.6089V41.125H59.5654V35.25Z" fill="#ACCC6E"/>
<path d="M65.522 35.25H59.5654V41.125H65.522V35.25Z" fill="#ACCC6E"/>
<path d="M71.4785 35.25H65.522V41.125H71.4785V35.25Z" fill="#ACCC6E"/>
<path d="M77.4345 35.25H71.478V41.125H77.4345V35.25Z" fill="#ACCC6E"/>
<path d="M83.3911 35.25H77.4346V41.125H83.3911V35.25Z" fill="#ACCC6E"/>
<path d="M89.3476 35.25H83.3911V41.125H89.3476V35.25Z" fill="#ACCC6E"/>
<path d="M95.3042 35.25H89.3477V41.125H95.3042V35.25Z" fill="#ACCC6E"/>
<path d="M101.261 35.25H95.3042V41.125H101.261V35.25Z" fill="#ACCC6E"/>
<path d="M107.217 35.25H101.261V41.125H107.217V35.25Z" fill="#ACCC6E"/>
<path d="M113.174 35.25H107.217V41.125H113.174V35.25Z" fill="#ACCC6E"/>
<path d="M119.13 35.25H113.174V41.125H119.13V35.25Z" fill="#ACCC6E"/>
<path d="M125.087 35.25H119.13V41.125H125.087V35.25Z" fill="#ACCC6E"/>
<path d="M131.043 35.25H125.087V41.125H131.043V35.25Z" fill="#ACCC6E"/>
<path d="M137 35.25H131.043V41.125H137V35.25Z" fill="#ACCC6E"/>
<path d="M142.957 35.25H137V41.125H142.957V35.25Z" fill="#ACCC6E"/>
<path d="M148.913 35.25H142.957V41.125H148.913V35.25Z" fill="#ACCC6E"/>
<path d="M154.87 35.25H148.913V41.125H154.87V35.25Z" fill="#ACCC6E"/>
<path d="M160.826 35.25H154.87V41.125H160.826V35.25Z" fill="#ACCC6E"/>
<path d="M166.783 35.25H160.826V41.125H166.783V35.25Z" fill="#ACCC6E"/>
<path d="M172.739 35.25H166.783V41.125H172.739V35.25Z" fill="#ACCC6E"/>
<path d="M178.696 35.25H172.739V41.125H178.696V35.25Z" fill="#ACCC6E"/>
<path d="M184.652 35.25H178.696V41.125H184.652V35.25Z" fill="#ACCC6E"/>
<path d="M190.609 35.25H184.652V41.125H190.609V35.25Z" fill="#ACCC6E"/>
<path d="M196.565 35.25H190.609V41.125H196.565V35.25Z" fill="#ACCC6E"/>
<path d="M202.522 35.25H196.565V41.125H202.522V35.25Z" fill="#ACCC6E"/>
<path d="M208.478 35.25H202.522V41.125H208.478V35.25Z" fill="#ACCC6E"/>
<path d="M214.435 35.25H208.478V41.125H214.435V35.25Z" fill="#ACCC6E"/>
<path d="M220.391 35.25H214.435V41.125H220.391V35.25Z" fill="#ACCC6E"/>
<path d="M226.348 35.25H220.391V41.125H226.348V35.25Z" fill="#ACCC6E"/>
<path d="M232.304 35.25H226.348V41.125H232.304V35.25Z" fill="#ACCC6E"/>
<path d="M238.261 35.25H232.304V41.125H238.261V35.25Z" fill="#ACCC6E"/>
<path d="M244.217 35.25H238.261V41.125H244.217V35.25Z" fill="#ACCC6E"/>
<path d="M250.174 35.25H244.217V41.125H250.174V35.25Z" fill="#ACCC6E"/>
<path d="M256.13 35.25H250.174V41.125H256.13V35.25Z" fill="#ACCC6E"/>
<path d="M262.087 35.25H256.13V41.125H262.087V35.25Z" fill="#ACCC6E"/>
<path d="M268.043 35.25H262.087V41.125H268.043V35.25Z" fill="#F3FFDB"/>
<path d="M274 35.25H268.043V41.125H274V35.25Z" fill="black"/>
<path d="M5.95652 41.125H0V47H5.95652V41.125Z" fill="black"/>
<path d="M11.9131 41.125H5.95654V47H11.9131V41.125Z" fill="#ACCC6E"/>
<path d="M17.8696 41.125H11.9131V47H17.8696V41.125Z" fill="#ACCC6E"/>
<path d="M23.8261 41.125H17.8696V47H23.8261V41.125Z" fill="#ACCC6E"/>
<path d="M29.7827 41.125H23.8262V47H29.7827V41.125Z" fill="#ACCC6E"/>
<path d="M35.7392 41.125H29.7827V47H35.7392V41.125Z" fill="#ACCC6E"/>
<path d="M41.6958 41.125H35.7393V47H41.6958V41.125Z" fill="#ACCC6E"/>
<path d="M47.6523 41.125H41.6958V47H47.6523V41.125Z" fill="#ACCC6E"/>
<path d="M53.6089 41.125H47.6523V47H53.6089V41.125Z" fill="#ACCC6E"/>
<path d="M59.5654 41.125H53.6089V47H59.5654V41.125Z" fill="#ACCC6E"/>
<path d="M65.522 41.125H59.5654V47H65.522V41.125Z" fill="#ACCC6E"/>
<path d="M71.4785 41.125H65.522V47H71.4785V41.125Z" fill="#ACCC6E"/>
<path d="M77.4345 41.125H71.478V47H77.4345V41.125Z" fill="#ACCC6E"/>
<path d="M83.3911 41.125H77.4346V47H83.3911V41.125Z" fill="#ACCC6E"/>
<path d="M89.3476 41.125H83.3911V47H89.3476V41.125Z" fill="#ACCC6E"/>
<path d="M95.3042 41.125H89.3477V47H95.3042V41.125Z" fill="#ACCC6E"/>
<path d="M101.261 41.125H95.3042V47H101.261V41.125Z" fill="#ACCC6E"/>
<path d="M107.217 41.125H101.261V47H107.217V41.125Z" fill="#ACCC6E"/>
<path d="M113.174 41.125H107.217V47H113.174V41.125Z" fill="#ACCC6E"/>
<path d="M119.13 41.125H113.174V47H119.13V41.125Z" fill="#ACCC6E"/>
<path d="M125.087 41.125H119.13V47H125.087V41.125Z" fill="#ACCC6E"/>
<path d="M131.043 41.125H125.087V47H131.043V41.125Z" fill="#ACCC6E"/>
<path d="M137 41.125H131.043V47H137V41.125Z" fill="#ACCC6E"/>
<path d="M142.957 41.125H137V47H142.957V41.125Z" fill="#ACCC6E"/>
<path d="M148.913 41.125H142.957V47H148.913V41.125Z" fill="#ACCC6E"/>
<path d="M154.87 41.125H148.913V47H154.87V41.125Z" fill="#ACCC6E"/>
<path d="M160.826 41.125H154.87V47H160.826V41.125Z" fill="#ACCC6E"/>
<path d="M166.783 41.125H160.826V47H166.783V41.125Z" fill="#ACCC6E"/>
<path d="M172.739 41.125H166.783V47H172.739V41.125Z" fill="#ACCC6E"/>
<path d="M178.696 41.125H172.739V47H178.696V41.125Z" fill="#ACCC6E"/>
<path d="M184.652 41.125H178.696V47H184.652V41.125Z" fill="#ACCC6E"/>
<path d="M190.609 41.125H184.652V47H190.609V41.125Z" fill="#ACCC6E"/>
<path d="M196.565 41.125H190.609V47H196.565V41.125Z" fill="#ACCC6E"/>
<path d="M202.522 41.125H196.565V47H202.522V41.125Z" fill="#ACCC6E"/>
<path d="M208.478 41.125H202.522V47H208.478V41.125Z" fill="#ACCC6E"/>
<path d="M214.435 41.125H208.478V47H214.435V41.125Z" fill="#ACCC6E"/>
<path d="M220.391 41.125H214.435V47H220.391V41.125Z" fill="#ACCC6E"/>
<path d="M226.348 41.125H220.391V47H226.348V41.125Z" fill="#ACCC6E"/>
<path d="M232.304 41.125H226.348V47H232.304V41.125Z" fill="#ACCC6E"/>
<path d="M238.261 41.125H232.304V47H238.261V41.125Z" fill="#ACCC6E"/>
<path d="M244.217 41.125H238.261V47H244.217V41.125Z" fill="#ACCC6E"/>
<path d="M250.174 41.125H244.217V47H250.174V41.125Z" fill="#ACCC6E"/>
<path d="M256.13 41.125H250.174V47H256.13V41.125Z" fill="#ACCC6E"/>
<path d="M262.087 41.125H256.13V47H262.087V41.125Z" fill="#ACCC6E"/>
<path d="M268.043 41.125H262.087V47H268.043V41.125Z" fill="#F3FFDB"/>
<path d="M274 41.125H268.043V47H274V41.125Z" fill="black"/>
<path d="M5.95652 47H0V52.875H5.95652V47Z" fill="black"/>
<path d="M11.9131 47H5.95654V52.875H11.9131V47Z" fill="#ACCC6E"/>
<path d="M17.8696 47H11.9131V52.875H17.8696V47Z" fill="#ACCC6E"/>
<path d="M23.8261 47H17.8696V52.875H23.8261V47Z" fill="#ACCC6E"/>
<path d="M29.7827 47H23.8262V52.875H29.7827V47Z" fill="#ACCC6E"/>
<path d="M35.7392 47H29.7827V52.875H35.7392V47Z" fill="#ACCC6E"/>
<path d="M41.6958 47H35.7393V52.875H41.6958V47Z" fill="#ACCC6E"/>
<path d="M47.6523 47H41.6958V52.875H47.6523V47Z" fill="#ACCC6E"/>
<path d="M53.6089 47H47.6523V52.875H53.6089V47Z" fill="#ACCC6E"/>
<path d="M59.5654 47H53.6089V52.875H59.5654V47Z" fill="#ACCC6E"/>
<path d="M65.522 47H59.5654V52.875H65.522V47Z" fill="#ACCC6E"/>
<path d="M71.4785 47H65.522V52.875H71.4785V47Z" fill="#ACCC6E"/>
<path d="M77.4345 47H71.478V52.875H77.4345V47Z" fill="#ACCC6E"/>
<path d="M83.3911 47H77.4346V52.875H83.3911V47Z" fill="#ACCC6E"/>
<path d="M89.3476 47H83.3911V52.875H89.3476V47Z" fill="#ACCC6E"/>
<path d="M95.3042 47H89.3477V52.875H95.3042V47Z" fill="#ACCC6E"/>
<path d="M101.261 47H95.3042V52.875H101.261V47Z" fill="#ACCC6E"/>
<path d="M107.217 47H101.261V52.875H107.217V47Z" fill="#ACCC6E"/>
<path d="M113.174 47H107.217V52.875H113.174V47Z" fill="#ACCC6E"/>
<path d="M119.13 47H113.174V52.875H119.13V47Z" fill="#ACCC6E"/>
<path d="M125.087 47H119.13V52.875H125.087V47Z" fill="#ACCC6E"/>
<path d="M131.043 47H125.087V52.875H131.043V47Z" fill="#ACCC6E"/>
<path d="M137 47H131.043V52.875H137V47Z" fill="#ACCC6E"/>
<path d="M142.957 47H137V52.875H142.957V47Z" fill="#ACCC6E"/>
<path d="M148.913 47H142.957V52.875H148.913V47Z" fill="#ACCC6E"/>
<path d="M154.87 47H148.913V52.875H154.87V47Z" fill="#ACCC6E"/>
<path d="M160.826 47H154.87V52.875H160.826V47Z" fill="#ACCC6E"/>
<path d="M166.783 47H160.826V52.875H166.783V47Z" fill="#ACCC6E"/>
<path d="M172.739 47H166.783V52.875H172.739V47Z" fill="#ACCC6E"/>
<path d="M178.696 47H172.739V52.875H178.696V47Z" fill="#ACCC6E"/>
<path d="M184.652 47H178.696V52.875H184.652V47Z" fill="#ACCC6E"/>
<path d="M190.609 47H184.652V52.875H190.609V47Z" fill="#ACCC6E"/>
<path d="M196.565 47H190.609V52.875H196.565V47Z" fill="#ACCC6E"/>
<path d="M202.522 47H196.565V52.875H202.522V47Z" fill="#ACCC6E"/>
<path d="M208.478 47H202.522V52.875H208.478V47Z" fill="#ACCC6E"/>
<path d="M214.435 47H208.478V52.875H214.435V47Z" fill="#ACCC6E"/>
<path d="M220.391 47H214.435V52.875H220.391V47Z" fill="#ACCC6E"/>
<path d="M226.348 47H220.391V52.875H226.348V47Z" fill="#ACCC6E"/>
<path d="M232.304 47H226.348V52.875H232.304V47Z" fill="#ACCC6E"/>
<path d="M238.261 47H232.304V52.875H238.261V47Z" fill="#ACCC6E"/>
<path d="M244.217 47H238.261V52.875H244.217V47Z" fill="#ACCC6E"/>
<path d="M250.174 47H244.217V52.875H250.174V47Z" fill="#ACCC6E"/>
<path d="M256.13 47H250.174V52.875H256.13V47Z" fill="#ACCC6E"/>
<path d="M262.087 47H256.13V52.875H262.087V47Z" fill="#ACCC6E"/>
<path d="M268.043 47H262.087V52.875H268.043V47Z" fill="#F3FFDB"/>
<path d="M274 47H268.043V52.875H274V47Z" fill="black"/>
<path d="M5.95652 52.875H0V58.75H5.95652V52.875Z" fill="black"/>
<path d="M11.9131 52.875H5.95654V58.75H11.9131V52.875Z" fill="#ACCC6E"/>
<path d="M17.8696 52.875H11.9131V58.75H17.8696V52.875Z" fill="#ACCC6E"/>
<path d="M23.8261 52.875H17.8696V58.75H23.8261V52.875Z" fill="#ACCC6E"/>
<path d="M29.7827 52.875H23.8262V58.75H29.7827V52.875Z" fill="#ACCC6E"/>
<path d="M35.7392 52.875H29.7827V58.75H35.7392V52.875Z" fill="#ACCC6E"/>
<path d="M41.6958 52.875H35.7393V58.75H41.6958V52.875Z" fill="#ACCC6E"/>
<path d="M47.6523 52.875H41.6958V58.75H47.6523V52.875Z" fill="#ACCC6E"/>
<path d="M53.6089 52.875H47.6523V58.75H53.6089V52.875Z" fill="#ACCC6E"/>
<path d="M59.5654 52.875H53.6089V58.75H59.5654V52.875Z" fill="#ACCC6E"/>
<path d="M65.522 52.875H59.5654V58.75H65.522V52.875Z" fill="#ACCC6E"/>
<path d="M71.4785 52.875H65.522V58.75H71.4785V52.875Z" fill="#ACCC6E"/>
<path d="M77.4345 52.875H71.478V58.75H77.4345V52.875Z" fill="#ACCC6E"/>
<path d="M83.3911 52.875H77.4346V58.75H83.3911V52.875Z" fill="#ACCC6E"/>
<path d="M89.3476 52.875H83.3911V58.75H89.3476V52.875Z" fill="#ACCC6E"/>
<path d="M95.3042 52.875H89.3477V58.75H95.3042V52.875Z" fill="#ACCC6E"/>
<path d="M101.261 52.875H95.3042V58.75H101.261V52.875Z" fill="#ACCC6E"/>
<path d="M107.217 52.875H101.261V58.75H107.217V52.875Z" fill="#ACCC6E"/>
<path d="M113.174 52.875H107.217V58.75H113.174V52.875Z" fill="#ACCC6E"/>
<path d="M119.13 52.875H113.174V58.75H119.13V52.875Z" fill="#ACCC6E"/>
<path d="M125.087 52.875H119.13V58.75H125.087V52.875Z" fill="#ACCC6E"/>
<path d="M131.043 52.875H125.087V58.75H131.043V52.875Z" fill="#ACCC6E"/>
<path d="M137 52.875H131.043V58.75H137V52.875Z" fill="#ACCC6E"/>
<path d="M142.957 52.875H137V58.75H142.957V52.875Z" fill="#ACCC6E"/>
<path d="M148.913 52.875H142.957V58.75H148.913V52.875Z" fill="#ACCC6E"/>
<path d="M154.87 52.875H148.913V58.75H154.87V52.875Z" fill="#ACCC6E"/>
<path d="M160.826 52.875H154.87V58.75H160.826V52.875Z" fill="#ACCC6E"/>
<path d="M166.783 52.875H160.826V58.75H166.783V52.875Z" fill="#ACCC6E"/>
<path d="M172.739 52.875H166.783V58.75H172.739V52.875Z" fill="#ACCC6E"/>
<path d="M178.696 52.875H172.739V58.75H178.696V52.875Z" fill="#ACCC6E"/>
<path d="M184.652 52.875H178.696V58.75H184.652V52.875Z" fill="#ACCC6E"/>
<path d="M190.609 52.875H184.652V58.75H190.609V52.875Z" fill="#ACCC6E"/>
<path d="M196.565 52.875H190.609V58.75H196.565V52.875Z" fill="#ACCC6E"/>
<path d="M202.522 52.875H196.565V58.75H202.522V52.875Z" fill="#ACCC6E"/>
<path d="M208.478 52.875H202.522V58.75H208.478V52.875Z" fill="#ACCC6E"/>
<path d="M214.435 52.875H208.478V58.75H214.435V52.875Z" fill="#ACCC6E"/>
<path d="M220.391 52.875H214.435V58.75H220.391V52.875Z" fill="#ACCC6E"/>
<path d="M226.348 52.875H220.391V58.75H226.348V52.875Z" fill="#ACCC6E"/>
<path d="M232.304 52.875H226.348V58.75H232.304V52.875Z" fill="#ACCC6E"/>
<path d="M238.261 52.875H232.304V58.75H238.261V52.875Z" fill="#ACCC6E"/>
<path d="M244.217 52.875H238.261V58.75H244.217V52.875Z" fill="#ACCC6E"/>
<path d="M250.174 52.875H244.217V58.75H250.174V52.875Z" fill="#ACCC6E"/>
<path d="M256.13 52.875H250.174V58.75H256.13V52.875Z" fill="#ACCC6E"/>
<path d="M262.087 52.875H256.13V58.75H262.087V52.875Z" fill="#ACCC6E"/>
<path d="M268.043 52.875H262.087V58.75H268.043V52.875Z" fill="#F3FFDB"/>
<path d="M274 52.875H268.043V58.75H274V52.875Z" fill="black"/>
<path d="M5.95652 58.75H0V64.625H5.95652V58.75Z" fill="black"/>
<path d="M11.9131 58.75H5.95654V64.625H11.9131V58.75Z" fill="#ACCC6E"/>
<path d="M17.8696 58.75H11.9131V64.625H17.8696V58.75Z" fill="#ACCC6E"/>
<path d="M23.8261 58.75H17.8696V64.625H23.8261V58.75Z" fill="#ACCC6E"/>
<path d="M29.7827 58.75H23.8262V64.625H29.7827V58.75Z" fill="#ACCC6E"/>
<path d="M35.7392 58.75H29.7827V64.625H35.7392V58.75Z" fill="#ACCC6E"/>
<path d="M41.6958 58.75H35.7393V64.625H41.6958V58.75Z" fill="#ACCC6E"/>
<path d="M47.6523 58.75H41.6958V64.625H47.6523V58.75Z" fill="#ACCC6E"/>
<path d="M53.6089 58.75H47.6523V64.625H53.6089V58.75Z" fill="#ACCC6E"/>
<path d="M59.5654 58.75H53.6089V64.625H59.5654V58.75Z" fill="#ACCC6E"/>
<path d="M65.522 58.75H59.5654V64.625H65.522V58.75Z" fill="#ACCC6E"/>
<path d="M71.4785 58.75H65.522V64.625H71.4785V58.75Z" fill="#ACCC6E"/>
<path d="M77.4345 58.75H71.478V64.625H77.4345V58.75Z" fill="#ACCC6E"/>
<path d="M83.3911 58.75H77.4346V64.625H83.3911V58.75Z" fill="#ACCC6E"/>
<path d="M89.3476 58.75H83.3911V64.625H89.3476V58.75Z" fill="#ACCC6E"/>
<path d="M95.3042 58.75H89.3477V64.625H95.3042V58.75Z" fill="#ACCC6E"/>
<path d="M101.261 58.75H95.3042V64.625H101.261V58.75Z" fill="#ACCC6E"/>
<path d="M107.217 58.75H101.261V64.625H107.217V58.75Z" fill="#ACCC6E"/>
<path d="M113.174 58.75H107.217V64.625H113.174V58.75Z" fill="#ACCC6E"/>
<path d="M119.13 58.75H113.174V64.625H119.13V58.75Z" fill="#ACCC6E"/>
<path d="M125.087 58.75H119.13V64.625H125.087V58.75Z" fill="#ACCC6E"/>
<path d="M131.043 58.75H125.087V64.625H131.043V58.75Z" fill="#ACCC6E"/>
<path d="M137 58.75H131.043V64.625H137V58.75Z" fill="#ACCC6E"/>
<path d="M142.957 58.75H137V64.625H142.957V58.75Z" fill="#ACCC6E"/>
<path d="M148.913 58.75H142.957V64.625H148.913V58.75Z" fill="#ACCC6E"/>
<path d="M154.87 58.75H148.913V64.625H154.87V58.75Z" fill="#ACCC6E"/>
<path d="M160.826 58.75H154.87V64.625H160.826V58.75Z" fill="#ACCC6E"/>
<path d="M166.783 58.75H160.826V64.625H166.783V58.75Z" fill="#ACCC6E"/>
<path d="M172.739 58.75H166.783V64.625H172.739V58.75Z" fill="#ACCC6E"/>
<path d="M178.696 58.75H172.739V64.625H178.696V58.75Z" fill="#ACCC6E"/>
<path d="M184.652 58.75H178.696V64.625H184.652V58.75Z" fill="#ACCC6E"/>
<path d="M190.609 58.75H184.652V64.625H190.609V58.75Z" fill="#ACCC6E"/>
<path d="M196.565 58.75H190.609V64.625H196.565V58.75Z" fill="#ACCC6E"/>
<path d="M202.522 58.75H196.565V64.625H202.522V58.75Z" fill="#ACCC6E"/>
<path d="M208.478 58.75H202.522V64.625H208.478V58.75Z" fill="#ACCC6E"/>
<path d="M214.435 58.75H208.478V64.625H214.435V58.75Z" fill="#ACCC6E"/>
<path d="M220.391 58.75H214.435V64.625H220.391V58.75Z" fill="#ACCC6E"/>
<path d="M226.348 58.75H220.391V64.625H226.348V58.75Z" fill="#ACCC6E"/>
<path d="M232.304 58.75H226.348V64.625H232.304V58.75Z" fill="#ACCC6E"/>
<path d="M238.261 58.75H232.304V64.625H238.261V58.75Z" fill="#ACCC6E"/>
<path d="M244.217 58.75H238.261V64.625H244.217V58.75Z" fill="#ACCC6E"/>
<path d="M250.174 58.75H244.217V64.625H250.174V58.75Z" fill="#ACCC6E"/>
<path d="M256.13 58.75H250.174V64.625H256.13V58.75Z" fill="#ACCC6E"/>
<path d="M262.087 58.75H256.13V64.625H262.087V58.75Z" fill="#ACCC6E"/>
<path d="M268.043 58.75H262.087V64.625H268.043V58.75Z" fill="#F3FFDB"/>
<path d="M274 58.75H268.043V64.625H274V58.75Z" fill="black"/>
<path d="M5.95652 64.625H0V70.5H5.95652V64.625Z" fill="black"/>
<path d="M11.9131 64.625H5.95654V70.5H11.9131V64.625Z" fill="#ACCC6E"/>
<path d="M17.8696 64.625H11.9131V70.5H17.8696V64.625Z" fill="#ACCC6E"/>
<path d="M23.8261 64.625H17.8696V70.5H23.8261V64.625Z" fill="#ACCC6E"/>
<path d="M29.7827 64.625H23.8262V70.5H29.7827V64.625Z" fill="#ACCC6E"/>
<path d="M35.7392 64.625H29.7827V70.5H35.7392V64.625Z" fill="#ACCC6E"/>
<path d="M41.6958 64.625H35.7393V70.5H41.6958V64.625Z" fill="#ACCC6E"/>
<path d="M47.6523 64.625H41.6958V70.5H47.6523V64.625Z" fill="#ACCC6E"/>
<path d="M53.6089 64.625H47.6523V70.5H53.6089V64.625Z" fill="#ACCC6E"/>
<path d="M59.5654 64.625H53.6089V70.5H59.5654V64.625Z" fill="#ACCC6E"/>
<path d="M65.522 64.625H59.5654V70.5H65.522V64.625Z" fill="#ACCC6E"/>
<path d="M71.4785 64.625H65.522V70.5H71.4785V64.625Z" fill="#ACCC6E"/>
<path d="M77.4345 64.625H71.478V70.5H77.4345V64.625Z" fill="#ACCC6E"/>
<path d="M83.3911 64.625H77.4346V70.5H83.3911V64.625Z" fill="#ACCC6E"/>
<path d="M89.3476 64.625H83.3911V70.5H89.3476V64.625Z" fill="#ACCC6E"/>
<path d="M95.3042 64.625H89.3477V70.5H95.3042V64.625Z" fill="#ACCC6E"/>
<path d="M101.261 64.625H95.3042V70.5H101.261V64.625Z" fill="#ACCC6E"/>
<path d="M107.217 64.625H101.261V70.5H107.217V64.625Z" fill="#ACCC6E"/>
<path d="M113.174 64.625H107.217V70.5H113.174V64.625Z" fill="#ACCC6E"/>
<path d="M119.13 64.625H113.174V70.5H119.13V64.625Z" fill="#ACCC6E"/>
<path d="M125.087 64.625H119.13V70.5H125.087V64.625Z" fill="#ACCC6E"/>
<path d="M131.043 64.625H125.087V70.5H131.043V64.625Z" fill="#ACCC6E"/>
<path d="M137 64.625H131.043V70.5H137V64.625Z" fill="#ACCC6E"/>
<path d="M142.957 64.625H137V70.5H142.957V64.625Z" fill="#ACCC6E"/>
<path d="M148.913 64.625H142.957V70.5H148.913V64.625Z" fill="#ACCC6E"/>
<path d="M154.87 64.625H148.913V70.5H154.87V64.625Z" fill="#ACCC6E"/>
<path d="M160.826 64.625H154.87V70.5H160.826V64.625Z" fill="#ACCC6E"/>
<path d="M166.783 64.625H160.826V70.5H166.783V64.625Z" fill="#ACCC6E"/>
<path d="M172.739 64.625H166.783V70.5H172.739V64.625Z" fill="#ACCC6E"/>
<path d="M178.696 64.625H172.739V70.5H178.696V64.625Z" fill="#ACCC6E"/>
<path d="M184.652 64.625H178.696V70.5H184.652V64.625Z" fill="#ACCC6E"/>
<path d="M190.609 64.625H184.652V70.5H190.609V64.625Z" fill="#ACCC6E"/>
<path d="M196.565 64.625H190.609V70.5H196.565V64.625Z" fill="#ACCC6E"/>
<path d="M202.522 64.625H196.565V70.5H202.522V64.625Z" fill="#ACCC6E"/>
<path d="M208.478 64.625H202.522V70.5H208.478V64.625Z" fill="#ACCC6E"/>
<path d="M214.435 64.625H208.478V70.5H214.435V64.625Z" fill="#ACCC6E"/>
<path d="M220.391 64.625H214.435V70.5H220.391V64.625Z" fill="#ACCC6E"/>
<path d="M226.348 64.625H220.391V70.5H226.348V64.625Z" fill="#ACCC6E"/>
<path d="M232.304 64.625H226.348V70.5H232.304V64.625Z" fill="#ACCC6E"/>
<path d="M238.261 64.625H232.304V70.5H238.261V64.625Z" fill="#ACCC6E"/>
<path d="M244.217 64.625H238.261V70.5H244.217V64.625Z" fill="#ACCC6E"/>
<path d="M250.174 64.625H244.217V70.5H250.174V64.625Z" fill="#ACCC6E"/>
<path d="M256.13 64.625H250.174V70.5H256.13V64.625Z" fill="#ACCC6E"/>
<path d="M262.087 64.625H256.13V70.5H262.087V64.625Z" fill="#ACCC6E"/>
<path d="M268.043 64.625H262.087V70.5H268.043V64.625Z" fill="#F3FFDB"/>
<path d="M274 64.625H268.043V70.5H274V64.625Z" fill="black"/>
<path d="M5.95652 70.5H0V76.375H5.95652V70.5Z" fill="black"/>
<path d="M11.9131 70.5H5.95654V76.375H11.9131V70.5Z" fill="#ACCC6E"/>
<path d="M17.8696 70.5H11.9131V76.375H17.8696V70.5Z" fill="#ACCC6E"/>
<path d="M23.8261 70.5H17.8696V76.375H23.8261V70.5Z" fill="#ACCC6E"/>
<path d="M29.7827 70.5H23.8262V76.375H29.7827V70.5Z" fill="#ACCC6E"/>
<path d="M35.7392 70.5H29.7827V76.375H35.7392V70.5Z" fill="#ACCC6E"/>
<path d="M41.6958 70.5H35.7393V76.375H41.6958V70.5Z" fill="#ACCC6E"/>
<path d="M47.6523 70.5H41.6958V76.375H47.6523V70.5Z" fill="#ACCC6E"/>
<path d="M53.6089 70.5H47.6523V76.375H53.6089V70.5Z" fill="#ACCC6E"/>
<path d="M59.5654 70.5H53.6089V76.375H59.5654V70.5Z" fill="#ACCC6E"/>
<path d="M65.522 70.5H59.5654V76.375H65.522V70.5Z" fill="#ACCC6E"/>
<path d="M71.4785 70.5H65.522V76.375H71.4785V70.5Z" fill="#ACCC6E"/>
<path d="M77.4345 70.5H71.478V76.375H77.4345V70.5Z" fill="#ACCC6E"/>
<path d="M83.3911 70.5H77.4346V76.375H83.3911V70.5Z" fill="#ACCC6E"/>
<path d="M89.3476 70.5H83.3911V76.375H89.3476V70.5Z" fill="#ACCC6E"/>
<path d="M95.3042 70.5H89.3477V76.375H95.3042V70.5Z" fill="#ACCC6E"/>
<path d="M101.261 70.5H95.3042V76.375H101.261V70.5Z" fill="#ACCC6E"/>
<path d="M107.217 70.5H101.261V76.375H107.217V70.5Z" fill="#ACCC6E"/>
<path d="M113.174 70.5H107.217V76.375H113.174V70.5Z" fill="#ACCC6E"/>
<path d="M119.13 70.5H113.174V76.375H119.13V70.5Z" fill="#ACCC6E"/>
<path d="M125.087 70.5H119.13V76.375H125.087V70.5Z" fill="#ACCC6E"/>
<path d="M131.043 70.5H125.087V76.375H131.043V70.5Z" fill="#ACCC6E"/>
<path d="M137 70.5H131.043V76.375H137V70.5Z" fill="#ACCC6E"/>
<path d="M142.957 70.5H137V76.375H142.957V70.5Z" fill="#ACCC6E"/>
<path d="M148.913 70.5H142.957V76.375H148.913V70.5Z" fill="#ACCC6E"/>
<path d="M154.87 70.5H148.913V76.375H154.87V70.5Z" fill="#ACCC6E"/>
<path d="M160.826 70.5H154.87V76.375H160.826V70.5Z" fill="#ACCC6E"/>
<path d="M166.783 70.5H160.826V76.375H166.783V70.5Z" fill="#ACCC6E"/>
<path d="M172.739 70.5H166.783V76.375H172.739V70.5Z" fill="#ACCC6E"/>
<path d="M178.696 70.5H172.739V76.375H178.696V70.5Z" fill="#ACCC6E"/>
<path d="M184.652 70.5H178.696V76.375H184.652V70.5Z" fill="#ACCC6E"/>
<path d="M190.609 70.5H184.652V76.375H190.609V70.5Z" fill="#ACCC6E"/>
<path d="M196.565 70.5H190.609V76.375H196.565V70.5Z" fill="#ACCC6E"/>
<path d="M202.522 70.5H196.565V76.375H202.522V70.5Z" fill="#ACCC6E"/>
<path d="M208.478 70.5H202.522V76.375H208.478V70.5Z" fill="#ACCC6E"/>
<path d="M214.435 70.5H208.478V76.375H214.435V70.5Z" fill="#ACCC6E"/>
<path d="M220.391 70.5H214.435V76.375H220.391V70.5Z" fill="#ACCC6E"/>
<path d="M226.348 70.5H220.391V76.375H226.348V70.5Z" fill="#ACCC6E"/>
<path d="M232.304 70.5H226.348V76.375H232.304V70.5Z" fill="#ACCC6E"/>
<path d="M238.261 70.5H232.304V76.375H238.261V70.5Z" fill="#ACCC6E"/>
<path d="M244.217 70.5H238.261V76.375H244.217V70.5Z" fill="#ACCC6E"/>
<path d="M250.174 70.5H244.217V76.375H250.174V70.5Z" fill="#ACCC6E"/>
<path d="M256.13 70.5H250.174V76.375H256.13V70.5Z" fill="#ACCC6E"/>
<path d="M262.087 70.5H256.13V76.375H262.087V70.5Z" fill="#ACCC6E"/>
<path d="M268.043 70.5H262.087V76.375H268.043V70.5Z" fill="#F3FFDB"/>
<path d="M274 70.5H268.043V76.375H274V70.5Z" fill="black"/>
<path d="M5.95652 76.375H0V82.25H5.95652V76.375Z" fill="black"/>
<path d="M11.9131 76.375H5.95654V82.25H11.9131V76.375Z" fill="#ACCC6E"/>
<path d="M17.8696 76.375H11.9131V82.25H17.8696V76.375Z" fill="#ACCC6E"/>
<path d="M23.8261 76.375H17.8696V82.25H23.8261V76.375Z" fill="#ACCC6E"/>
<path d="M29.7827 76.375H23.8262V82.25H29.7827V76.375Z" fill="#ACCC6E"/>
<path d="M35.7392 76.375H29.7827V82.25H35.7392V76.375Z" fill="#ACCC6E"/>
<path d="M41.6958 76.375H35.7393V82.25H41.6958V76.375Z" fill="#ACCC6E"/>
<path d="M47.6523 76.375H41.6958V82.25H47.6523V76.375Z" fill="#ACCC6E"/>
<path d="M53.6089 76.375H47.6523V82.25H53.6089V76.375Z" fill="#ACCC6E"/>
<path d="M59.5654 76.375H53.6089V82.25H59.5654V76.375Z" fill="#ACCC6E"/>
<path d="M65.522 76.375H59.5654V82.25H65.522V76.375Z" fill="#ACCC6E"/>
<path d="M71.4785 76.375H65.522V82.25H71.4785V76.375Z" fill="#ACCC6E"/>
<path d="M77.4345 76.375H71.478V82.25H77.4345V76.375Z" fill="#ACCC6E"/>
<path d="M83.3911 76.375H77.4346V82.25H83.3911V76.375Z" fill="#ACCC6E"/>
<path d="M89.3476 76.375H83.3911V82.25H89.3476V76.375Z" fill="#ACCC6E"/>
<path d="M95.3042 76.375H89.3477V82.25H95.3042V76.375Z" fill="#ACCC6E"/>
<path d="M101.261 76.375H95.3042V82.25H101.261V76.375Z" fill="#ACCC6E"/>
<path d="M107.217 76.375H101.261V82.25H107.217V76.375Z" fill="#ACCC6E"/>
<path d="M113.174 76.375H107.217V82.25H113.174V76.375Z" fill="#ACCC6E"/>
<path d="M119.13 76.375H113.174V82.25H119.13V76.375Z" fill="#ACCC6E"/>
<path d="M125.087 76.375H119.13V82.25H125.087V76.375Z" fill="#ACCC6E"/>
<path d="M131.043 76.375H125.087V82.25H131.043V76.375Z" fill="#ACCC6E"/>
<path d="M137 76.375H131.043V82.25H137V76.375Z" fill="#ACCC6E"/>
<path d="M142.957 76.375H137V82.25H142.957V76.375Z" fill="#ACCC6E"/>
<path d="M148.913 76.375H142.957V82.25H148.913V76.375Z" fill="#ACCC6E"/>
<path d="M154.87 76.375H148.913V82.25H154.87V76.375Z" fill="#ACCC6E"/>
<path d="M160.826 76.375H154.87V82.25H160.826V76.375Z" fill="#ACCC6E"/>
<path d="M166.783 76.375H160.826V82.25H166.783V76.375Z" fill="#ACCC6E"/>
<path d="M172.739 76.375H166.783V82.25H172.739V76.375Z" fill="#ACCC6E"/>
<path d="M178.696 76.375H172.739V82.25H178.696V76.375Z" fill="#ACCC6E"/>
<path d="M184.652 76.375H178.696V82.25H184.652V76.375Z" fill="#ACCC6E"/>
<path d="M190.609 76.375H184.652V82.25H190.609V76.375Z" fill="#ACCC6E"/>
<path d="M196.565 76.375H190.609V82.25H196.565V76.375Z" fill="#ACCC6E"/>
<path d="M202.522 76.375H196.565V82.25H202.522V76.375Z" fill="#ACCC6E"/>
<path d="M208.478 76.375H202.522V82.25H208.478V76.375Z" fill="#ACCC6E"/>
<path d="M214.435 76.375H208.478V82.25H214.435V76.375Z" fill="#ACCC6E"/>
<path d="M220.391 76.375H214.435V82.25H220.391V76.375Z" fill="#ACCC6E"/>
<path d="M226.348 76.375H220.391V82.25H226.348V76.375Z" fill="#ACCC6E"/>
<path d="M232.304 76.375H226.348V82.25H232.304V76.375Z" fill="#ACCC6E"/>
<path d="M238.261 76.375H232.304V82.25H238.261V76.375Z" fill="#ACCC6E"/>
<path d="M244.217 76.375H238.261V82.25H244.217V76.375Z" fill="#ACCC6E"/>
<path d="M250.174 76.375H244.217V82.25H250.174V76.375Z" fill="#ACCC6E"/>
<path d="M256.13 76.375H250.174V82.25H256.13V76.375Z" fill="#ACCC6E"/>
<path d="M262.087 76.375H256.13V82.25H262.087V76.375Z" fill="#ACCC6E"/>
<path d="M268.043 76.375H262.087V82.25H268.043V76.375Z" fill="#F3FFDB"/>
<path d="M274 76.375H268.043V82.25H274V76.375Z" fill="black"/>
<path d="M5.95652 82.25H0V88.125H5.95652V82.25Z" fill="black"/>
<path d="M11.9131 82.25H5.95654V88.125H11.9131V82.25Z" fill="#ACCC6E"/>
<path d="M17.8696 82.25H11.9131V88.125H17.8696V82.25Z" fill="#ACCC6E"/>
<path d="M23.8261 82.25H17.8696V88.125H23.8261V82.25Z" fill="#ACCC6E"/>
<path d="M29.7827 82.25H23.8262V88.125H29.7827V82.25Z" fill="#ACCC6E"/>
<path d="M35.7392 82.25H29.7827V88.125H35.7392V82.25Z" fill="#ACCC6E"/>
<path d="M41.6958 82.25H35.7393V88.125H41.6958V82.25Z" fill="#ACCC6E"/>
<path d="M47.6523 82.25H41.6958V88.125H47.6523V82.25Z" fill="#ACCC6E"/>
<path d="M53.6089 82.25H47.6523V88.125H53.6089V82.25Z" fill="#ACCC6E"/>
<path d="M59.5654 82.25H53.6089V88.125H59.5654V82.25Z" fill="#ACCC6E"/>
<path d="M65.522 82.25H59.5654V88.125H65.522V82.25Z" fill="#ACCC6E"/>
<path d="M71.4785 82.25H65.522V88.125H71.4785V82.25Z" fill="#ACCC6E"/>
<path d="M77.4345 82.25H71.478V88.125H77.4345V82.25Z" fill="#ACCC6E"/>
<path d="M83.3911 82.25H77.4346V88.125H83.3911V82.25Z" fill="#ACCC6E"/>
<path d="M89.3476 82.25H83.3911V88.125H89.3476V82.25Z" fill="#ACCC6E"/>
<path d="M95.3042 82.25H89.3477V88.125H95.3042V82.25Z" fill="#ACCC6E"/>
<path d="M101.261 82.25H95.3042V88.125H101.261V82.25Z" fill="#ACCC6E"/>
<path d="M107.217 82.25H101.261V88.125H107.217V82.25Z" fill="#ACCC6E"/>
<path d="M113.174 82.25H107.217V88.125H113.174V82.25Z" fill="#ACCC6E"/>
<path d="M119.13 82.25H113.174V88.125H119.13V82.25Z" fill="#ACCC6E"/>
<path d="M125.087 82.25H119.13V88.125H125.087V82.25Z" fill="#ACCC6E"/>
<path d="M131.043 82.25H125.087V88.125H131.043V82.25Z" fill="#ACCC6E"/>
<path d="M137 82.25H131.043V88.125H137V82.25Z" fill="#ACCC6E"/>
<path d="M142.957 82.25H137V88.125H142.957V82.25Z" fill="#ACCC6E"/>
<path d="M148.913 82.25H142.957V88.125H148.913V82.25Z" fill="#ACCC6E"/>
<path d="M154.87 82.25H148.913V88.125H154.87V82.25Z" fill="#ACCC6E"/>
<path d="M160.826 82.25H154.87V88.125H160.826V82.25Z" fill="#ACCC6E"/>
<path d="M166.783 82.25H160.826V88.125H166.783V82.25Z" fill="#ACCC6E"/>
<path d="M172.739 82.25H166.783V88.125H172.739V82.25Z" fill="#ACCC6E"/>
<path d="M178.696 82.25H172.739V88.125H178.696V82.25Z" fill="#ACCC6E"/>
<path d="M184.652 82.25H178.696V88.125H184.652V82.25Z" fill="#ACCC6E"/>
<path d="M190.609 82.25H184.652V88.125H190.609V82.25Z" fill="#ACCC6E"/>
<path d="M196.565 82.25H190.609V88.125H196.565V82.25Z" fill="#ACCC6E"/>
<path d="M202.522 82.25H196.565V88.125H202.522V82.25Z" fill="#ACCC6E"/>
<path d="M208.478 82.25H202.522V88.125H208.478V82.25Z" fill="#ACCC6E"/>
<path d="M214.435 82.25H208.478V88.125H214.435V82.25Z" fill="#ACCC6E"/>
<path d="M220.391 82.25H214.435V88.125H220.391V82.25Z" fill="#ACCC6E"/>
<path d="M226.348 82.25H220.391V88.125H226.348V82.25Z" fill="#ACCC6E"/>
<path d="M232.304 82.25H226.348V88.125H232.304V82.25Z" fill="#ACCC6E"/>
<path d="M238.261 82.25H232.304V88.125H238.261V82.25Z" fill="#ACCC6E"/>
<path d="M244.217 82.25H238.261V88.125H244.217V82.25Z" fill="#ACCC6E"/>
<path d="M250.174 82.25H244.217V88.125H250.174V82.25Z" fill="#ACCC6E"/>
<path d="M256.13 82.25H250.174V88.125H256.13V82.25Z" fill="#ACCC6E"/>
<path d="M262.087 82.25H256.13V88.125H262.087V82.25Z" fill="#ACCC6E"/>
<path d="M268.043 82.25H262.087V88.125H268.043V82.25Z" fill="#F3FFDB"/>
<path d="M274 82.25H268.043V88.125H274V82.25Z" fill="black"/>
<path d="M5.95652 88.125H0V94H5.95652V88.125Z" fill="black"/>
<path d="M11.9131 88.125H5.95654V94H11.9131V88.125Z" fill="#ACCC6E"/>
<path d="M17.8696 88.125H11.9131V94H17.8696V88.125Z" fill="#ACCC6E"/>
<path d="M23.8261 88.125H17.8696V94H23.8261V88.125Z" fill="#ACCC6E"/>
<path d="M29.7827 88.125H23.8262V94H29.7827V88.125Z" fill="#ACCC6E"/>
<path d="M35.7392 88.125H29.7827V94H35.7392V88.125Z" fill="#ACCC6E"/>
<path d="M41.6958 88.125H35.7393V94H41.6958V88.125Z" fill="#ACCC6E"/>
<path d="M47.6523 88.125H41.6958V94H47.6523V88.125Z" fill="#ACCC6E"/>
<path d="M53.6089 88.125H47.6523V94H53.6089V88.125Z" fill="#ACCC6E"/>
<path d="M59.5654 88.125H53.6089V94H59.5654V88.125Z" fill="#ACCC6E"/>
<path d="M65.522 88.125H59.5654V94H65.522V88.125Z" fill="#ACCC6E"/>
<path d="M71.4785 88.125H65.522V94H71.4785V88.125Z" fill="#ACCC6E"/>
<path d="M77.4345 88.125H71.478V94H77.4345V88.125Z" fill="#ACCC6E"/>
<path d="M83.3911 88.125H77.4346V94H83.3911V88.125Z" fill="#ACCC6E"/>
<path d="M89.3476 88.125H83.3911V94H89.3476V88.125Z" fill="#ACCC6E"/>
<path d="M95.3042 88.125H89.3477V94H95.3042V88.125Z" fill="#ACCC6E"/>
<path d="M101.261 88.125H95.3042V94H101.261V88.125Z" fill="#ACCC6E"/>
<path d="M107.217 88.125H101.261V94H107.217V88.125Z" fill="#ACCC6E"/>
<path d="M113.174 88.125H107.217V94H113.174V88.125Z" fill="#ACCC6E"/>
<path d="M119.13 88.125H113.174V94H119.13V88.125Z" fill="#ACCC6E"/>
<path d="M125.087 88.125H119.13V94H125.087V88.125Z" fill="#ACCC6E"/>
<path d="M131.043 88.125H125.087V94H131.043V88.125Z" fill="#ACCC6E"/>
<path d="M137 88.125H131.043V94H137V88.125Z" fill="#ACCC6E"/>
<path d="M142.957 88.125H137V94H142.957V88.125Z" fill="#ACCC6E"/>
<path d="M148.913 88.125H142.957V94H148.913V88.125Z" fill="#ACCC6E"/>
<path d="M154.87 88.125H148.913V94H154.87V88.125Z" fill="#ACCC6E"/>
<path d="M160.826 88.125H154.87V94H160.826V88.125Z" fill="#ACCC6E"/>
<path d="M166.783 88.125H160.826V94H166.783V88.125Z" fill="#ACCC6E"/>
<path d="M172.739 88.125H166.783V94H172.739V88.125Z" fill="#ACCC6E"/>
<path d="M178.696 88.125H172.739V94H178.696V88.125Z" fill="#ACCC6E"/>
<path d="M184.652 88.125H178.696V94H184.652V88.125Z" fill="#ACCC6E"/>
<path d="M190.609 88.125H184.652V94H190.609V88.125Z" fill="#ACCC6E"/>
<path d="M196.565 88.125H190.609V94H196.565V88.125Z" fill="#ACCC6E"/>
<path d="M202.522 88.125H196.565V94H202.522V88.125Z" fill="#ACCC6E"/>
<path d="M208.478 88.125H202.522V94H208.478V88.125Z" fill="#ACCC6E"/>
<path d="M214.435 88.125H208.478V94H214.435V88.125Z" fill="#ACCC6E"/>
<path d="M220.391 88.125H214.435V94H220.391V88.125Z" fill="#ACCC6E"/>
<path d="M226.348 88.125H220.391V94H226.348V88.125Z" fill="#ACCC6E"/>
<path d="M232.304 88.125H226.348V94H232.304V88.125Z" fill="#ACCC6E"/>
<path d="M238.261 88.125H232.304V94H238.261V88.125Z" fill="#ACCC6E"/>
<path d="M244.217 88.125H238.261V94H244.217V88.125Z" fill="#ACCC6E"/>
<path d="M250.174 88.125H244.217V94H250.174V88.125Z" fill="#ACCC6E"/>
<path d="M256.13 88.125H250.174V94H256.13V88.125Z" fill="#ACCC6E"/>
<path d="M262.087 88.125H256.13V94H262.087V88.125Z" fill="#ACCC6E"/>
<path d="M268.043 88.125H262.087V94H268.043V88.125Z" fill="#F3FFDB"/>
<path d="M274 88.125H268.043V94H274V88.125Z" fill="black"/>
<path d="M5.95652 94H0V99.875H5.95652V94Z" fill="black"/>
<path d="M11.9131 94H5.95654V99.875H11.9131V94Z" fill="#ACCC6E"/>
<path d="M17.8696 94H11.9131V99.875H17.8696V94Z" fill="#ACCC6E"/>
<path d="M23.8261 94H17.8696V99.875H23.8261V94Z" fill="#ACCC6E"/>
<path d="M29.7827 94H23.8262V99.875H29.7827V94Z" fill="#ACCC6E"/>
<path d="M35.7392 94H29.7827V99.875H35.7392V94Z" fill="#ACCC6E"/>
<path d="M41.6958 94H35.7393V99.875H41.6958V94Z" fill="#ACCC6E"/>
<path d="M47.6523 94H41.6958V99.875H47.6523V94Z" fill="#ACCC6E"/>
<path d="M53.6089 94H47.6523V99.875H53.6089V94Z" fill="#ACCC6E"/>
<path d="M59.5654 94H53.6089V99.875H59.5654V94Z" fill="#ACCC6E"/>
<path d="M65.522 94H59.5654V99.875H65.522V94Z" fill="#ACCC6E"/>
<path d="M71.4785 94H65.522V99.875H71.4785V94Z" fill="#ACCC6E"/>
<path d="M77.4345 94H71.478V99.875H77.4345V94Z" fill="#ACCC6E"/>
<path d="M83.3911 94H77.4346V99.875H83.3911V94Z" fill="#ACCC6E"/>
<path d="M89.3476 94H83.3911V99.875H89.3476V94Z" fill="#ACCC6E"/>
<path d="M95.3042 94H89.3477V99.875H95.3042V94Z" fill="#ACCC6E"/>
<path d="M101.261 94H95.3042V99.875H101.261V94Z" fill="#ACCC6E"/>
<path d="M107.217 94H101.261V99.875H107.217V94Z" fill="#ACCC6E"/>
<path d="M113.174 94H107.217V99.875H113.174V94Z" fill="#ACCC6E"/>
<path d="M119.13 94H113.174V99.875H119.13V94Z" fill="#ACCC6E"/>
<path d="M125.087 94H119.13V99.875H125.087V94Z" fill="#ACCC6E"/>
<path d="M131.043 94H125.087V99.875H131.043V94Z" fill="#ACCC6E"/>
<path d="M137 94H131.043V99.875H137V94Z" fill="#ACCC6E"/>
<path d="M142.957 94H137V99.875H142.957V94Z" fill="#ACCC6E"/>
<path d="M148.913 94H142.957V99.875H148.913V94Z" fill="#ACCC6E"/>
<path d="M154.87 94H148.913V99.875H154.87V94Z" fill="#ACCC6E"/>
<path d="M160.826 94H154.87V99.875H160.826V94Z" fill="#ACCC6E"/>
<path d="M166.783 94H160.826V99.875H166.783V94Z" fill="#ACCC6E"/>
<path d="M172.739 94H166.783V99.875H172.739V94Z" fill="#ACCC6E"/>
<path d="M178.696 94H172.739V99.875H178.696V94Z" fill="#ACCC6E"/>
<path d="M184.652 94H178.696V99.875H184.652V94Z" fill="#ACCC6E"/>
<path d="M190.609 94H184.652V99.875H190.609V94Z" fill="#ACCC6E"/>
<path d="M196.565 94H190.609V99.875H196.565V94Z" fill="#ACCC6E"/>
<path d="M202.522 94H196.565V99.875H202.522V94Z" fill="#ACCC6E"/>
<path d="M208.478 94H202.522V99.875H208.478V94Z" fill="#ACCC6E"/>
<path d="M214.435 94H208.478V99.875H214.435V94Z" fill="#ACCC6E"/>
<path d="M220.391 94H214.435V99.875H220.391V94Z" fill="#ACCC6E"/>
<path d="M226.348 94H220.391V99.875H226.348V94Z" fill="#ACCC6E"/>
<path d="M232.304 94H226.348V99.875H232.304V94Z" fill="#ACCC6E"/>
<path d="M238.261 94H232.304V99.875H238.261V94Z" fill="#ACCC6E"/>
<path d="M244.217 94H238.261V99.875H244.217V94Z" fill="#ACCC6E"/>
<path d="M250.174 94H244.217V99.875H250.174V94Z" fill="#ACCC6E"/>
<path d="M256.13 94H250.174V99.875H256.13V94Z" fill="#ACCC6E"/>
<path d="M262.087 94H256.13V99.875H262.087V94Z" fill="#ACCC6E"/>
<path d="M268.043 94H262.087V99.875H268.043V94Z" fill="#F3FFDB"/>
<path d="M274 94H268.043V99.875H274V94Z" fill="black"/>
<path d="M5.95652 99.875H0V105.75H5.95652V99.875Z" fill="black"/>
<path d="M11.9131 99.875H5.95654V105.75H11.9131V99.875Z" fill="#77A000"/>
<path d="M17.8696 99.875H11.9131V105.75H17.8696V99.875Z" fill="#F3FFDB"/>
<path d="M23.8261 99.875H17.8696V105.75H23.8261V99.875Z" fill="#ACCC6E"/>
<path d="M29.7827 99.875H23.8262V105.75H29.7827V99.875Z" fill="#ACCC6E"/>
<path d="M35.7392 99.875H29.7827V105.75H35.7392V99.875Z" fill="#ACCC6E"/>
<path d="M41.6958 99.875H35.7393V105.75H41.6958V99.875Z" fill="#ACCC6E"/>
<path d="M47.6523 99.875H41.6958V105.75H47.6523V99.875Z" fill="#ACCC6E"/>
<path d="M53.6089 99.875H47.6523V105.75H53.6089V99.875Z" fill="#ACCC6E"/>
<path d="M59.5654 99.875H53.6089V105.75H59.5654V99.875Z" fill="#ACCC6E"/>
<path d="M65.522 99.875H59.5654V105.75H65.522V99.875Z" fill="#ACCC6E"/>
<path d="M71.4785 99.875H65.522V105.75H71.4785V99.875Z" fill="#ACCC6E"/>
<path d="M77.4345 99.875H71.478V105.75H77.4345V99.875Z" fill="#ACCC6E"/>
<path d="M83.3911 99.875H77.4346V105.75H83.3911V99.875Z" fill="#ACCC6E"/>
<path d="M89.3476 99.875H83.3911V105.75H89.3476V99.875Z" fill="#ACCC6E"/>
<path d="M95.3042 99.875H89.3477V105.75H95.3042V99.875Z" fill="#ACCC6E"/>
<path d="M101.261 99.875H95.3042V105.75H101.261V99.875Z" fill="#ACCC6E"/>
<path d="M107.217 99.875H101.261V105.75H107.217V99.875Z" fill="#ACCC6E"/>
<path d="M113.174 99.875H107.217V105.75H113.174V99.875Z" fill="#ACCC6E"/>
<path d="M119.13 99.875H113.174V105.75H119.13V99.875Z" fill="#ACCC6E"/>
<path d="M125.087 99.875H119.13V105.75H125.087V99.875Z" fill="#ACCC6E"/>
<path d="M131.043 99.875H125.087V105.75H131.043V99.875Z" fill="#ACCC6E"/>
<path d="M137 99.875H131.043V105.75H137V99.875Z" fill="#ACCC6E"/>
<path d="M142.957 99.875H137V105.75H142.957V99.875Z" fill="#ACCC6E"/>
<path d="M148.913 99.875H142.957V105.75H148.913V99.875Z" fill="#ACCC6E"/>
<path d="M154.87 99.875H148.913V105.75H154.87V99.875Z" fill="#ACCC6E"/>
<path d="M160.826 99.875H154.87V105.75H160.826V99.875Z" fill="#ACCC6E"/>
<path d="M166.783 99.875H160.826V105.75H166.783V99.875Z" fill="#ACCC6E"/>
<path d="M172.739 99.875H166.783V105.75H172.739V99.875Z" fill="#ACCC6E"/>
<path d="M178.696 99.875H172.739V105.75H178.696V99.875Z" fill="#ACCC6E"/>
<path d="M184.652 99.875H178.696V105.75H184.652V99.875Z" fill="#ACCC6E"/>
<path d="M190.609 99.875H184.652V105.75H190.609V99.875Z" fill="#ACCC6E"/>
<path d="M196.565 99.875H190.609V105.75H196.565V99.875Z" fill="#ACCC6E"/>
<path d="M202.522 99.875H196.565V105.75H202.522V99.875Z" fill="#ACCC6E"/>
<path d="M208.478 99.875H202.522V105.75H208.478V99.875Z" fill="#ACCC6E"/>
<path d="M214.435 99.875H208.478V105.75H214.435V99.875Z" fill="#ACCC6E"/>
<path d="M220.391 99.875H214.435V105.75H220.391V99.875Z" fill="#ACCC6E"/>
<path d="M226.348 99.875H220.391V105.75H226.348V99.875Z" fill="#ACCC6E"/>
<path d="M232.304 99.875H226.348V105.75H232.304V99.875Z" fill="#ACCC6E"/>
<path d="M238.261 99.875H232.304V105.75H238.261V99.875Z" fill="#ACCC6E"/>
<path d="M244.217 99.875H238.261V105.75H244.217V99.875Z" fill="#ACCC6E"/>
<path d="M250.174 99.875H244.217V105.75H250.174V99.875Z" fill="#ACCC6E"/>
<path d="M256.13 99.875H250.174V105.75H256.13V99.875Z" fill="#ACCC6E"/>
<path d="M262.087 99.875H256.13V105.75H262.087V99.875Z" fill="#F3FFDB"/>
<path d="M268.043 99.875H262.087V105.75H268.043V99.875Z" fill="#77A000"/>
<path d="M274 99.875H268.043V105.75H274V99.875Z" fill="black"/>
<path d="M5.95652 105.75H0V111.625H5.95652V105.75Z" fill="black"/>
<path d="M11.9131 105.75H5.95654V111.625H11.9131V105.75Z" fill="#77A000"/>
<path d="M17.8696 105.75H11.9131V111.625H17.8696V105.75Z" fill="#77A000"/>
<path d="M23.8261 105.75H17.8696V111.625H23.8261V105.75Z" fill="#F3FFDB"/>
<path d="M29.7827 105.75H23.8262V111.625H29.7827V105.75Z" fill="#F3FFDB"/>
<path d="M35.7392 105.75H29.7827V111.625H35.7392V105.75Z" fill="#F3FFDB"/>
<path d="M41.6958 105.75H35.7393V111.625H41.6958V105.75Z" fill="#F3FFDB"/>
<path d="M47.6523 105.75H41.6958V111.625H47.6523V105.75Z" fill="#F3FFDB"/>
<path d="M53.6089 105.75H47.6523V111.625H53.6089V105.75Z" fill="#F3FFDB"/>
<path d="M59.5654 105.75H53.6089V111.625H59.5654V105.75Z" fill="#F3FFDB"/>
<path d="M65.522 105.75H59.5654V111.625H65.522V105.75Z" fill="#F3FFDB"/>
<path d="M71.4785 105.75H65.522V111.625H71.4785V105.75Z" fill="#F3FFDB"/>
<path d="M77.4345 105.75H71.478V111.625H77.4345V105.75Z" fill="#F3FFDB"/>
<path d="M83.3911 105.75H77.4346V111.625H83.3911V105.75Z" fill="#F3FFDB"/>
<path d="M89.3476 105.75H83.3911V111.625H89.3476V105.75Z" fill="#F3FFDB"/>
<path d="M95.3042 105.75H89.3477V111.625H95.3042V105.75Z" fill="#F3FFDB"/>
<path d="M101.261 105.75H95.3042V111.625H101.261V105.75Z" fill="#F3FFDB"/>
<path d="M107.217 105.75H101.261V111.625H107.217V105.75Z" fill="#F3FFDB"/>
<path d="M113.174 105.75H107.217V111.625H113.174V105.75Z" fill="#F3FFDB"/>
<path d="M119.13 105.75H113.174V111.625H119.13V105.75Z" fill="#F3FFDB"/>
<path d="M125.087 105.75H119.13V111.625H125.087V105.75Z" fill="#F3FFDB"/>
<path d="M131.043 105.75H125.087V111.625H131.043V105.75Z" fill="#F3FFDB"/>
<path d="M137 105.75H131.043V111.625H137V105.75Z" fill="#F3FFDB"/>
<path d="M142.957 105.75H137V111.625H142.957V105.75Z" fill="#F3FFDB"/>
<path d="M148.913 105.75H142.957V111.625H148.913V105.75Z" fill="#F3FFDB"/>
<path d="M154.87 105.75H148.913V111.625H154.87V105.75Z" fill="#F3FFDB"/>
<path d="M160.826 105.75H154.87V111.625H160.826V105.75Z" fill="#F3FFDB"/>
<path d="M166.783 105.75H160.826V111.625H166.783V105.75Z" fill="#F3FFDB"/>
<path d="M172.739 105.75H166.783V111.625H172.739V105.75Z" fill="#F3FFDB"/>
<path d="M178.696 105.75H172.739V111.625H178.696V105.75Z" fill="#F3FFDB"/>
<path d="M184.652 105.75H178.696V111.625H184.652V105.75Z" fill="#F3FFDB"/>
<path d="M190.609 105.75H184.652V111.625H190.609V105.75Z" fill="#F3FFDB"/>
<path d="M196.565 105.75H190.609V111.625H196.565V105.75Z" fill="#F3FFDB"/>
<path d="M202.522 105.75H196.565V111.625H202.522V105.75Z" fill="#F3FFDB"/>
<path d="M208.478 105.75H202.522V111.625H208.478V105.75Z" fill="#F3FFDB"/>
<path d="M214.435 105.75H208.478V111.625H214.435V105.75Z" fill="#F3FFDB"/>
<path d="M220.391 105.75H214.435V111.625H220.391V105.75Z" fill="#F3FFDB"/>
<path d="M226.348 105.75H220.391V111.625H226.348V105.75Z" fill="#F3FFDB"/>
<path d="M232.304 105.75H226.348V111.625H232.304V105.75Z" fill="#F3FFDB"/>
<path d="M238.261 105.75H232.304V111.625H238.261V105.75Z" fill="#F3FFDB"/>
<path d="M244.217 105.75H238.261V111.625H244.217V105.75Z" fill="#F3FFDB"/>
<path d="M250.174 105.75H244.217V111.625H250.174V105.75Z" fill="#F3FFDB"/>
<path d="M256.13 105.75H250.174V111.625H256.13V105.75Z" fill="#F3FFDB"/>
<path d="M262.087 105.75H256.13V111.625H262.087V105.75Z" fill="#77A000"/>
<path d="M268.043 105.75H262.087V111.625H268.043V105.75Z" fill="#77A000"/>
<path d="M274 105.75H268.043V111.625H274V105.75Z" fill="black"/>
<path d="M5.95652 111.625H0V117.5H5.95652V111.625Z" fill="black"/>
<path d="M11.9131 111.625H5.95654V117.5H11.9131V111.625Z" fill="#77A000"/>
<path d="M17.8696 111.625H11.9131V117.5H17.8696V111.625Z" fill="#77A000"/>
<path d="M23.8261 111.625H17.8696V117.5H23.8261V111.625Z" fill="#77A000"/>
<path d="M29.7827 111.625H23.8262V117.5H29.7827V111.625Z" fill="#77A000"/>
<path d="M35.7392 111.625H29.7827V117.5H35.7392V111.625Z" fill="#77A000"/>
<path d="M41.6958 111.625H35.7393V117.5H41.6958V111.625Z" fill="#77A000"/>
<path d="M47.6523 111.625H41.6958V117.5H47.6523V111.625Z" fill="#77A000"/>
<path d="M53.6089 111.625H47.6523V117.5H53.6089V111.625Z" fill="#77A000"/>
<path d="M59.5654 111.625H53.6089V117.5H59.5654V111.625Z" fill="#77A000"/>
<path d="M65.522 111.625H59.5654V117.5H65.522V111.625Z" fill="#77A000"/>
<path d="M71.4785 111.625H65.522V117.5H71.4785V111.625Z" fill="#77A000"/>
<path d="M77.4345 111.625H71.478V117.5H77.4345V111.625Z" fill="#77A000"/>
<path d="M83.3911 111.625H77.4346V117.5H83.3911V111.625Z" fill="#77A000"/>
<path d="M89.3476 111.625H83.3911V117.5H89.3476V111.625Z" fill="#77A000"/>
<path d="M95.3042 111.625H89.3477V117.5H95.3042V111.625Z" fill="#77A000"/>
<path d="M101.261 111.625H95.3042V117.5H101.261V111.625Z" fill="#77A000"/>
<path d="M107.217 111.625H101.261V117.5H107.217V111.625Z" fill="#77A000"/>
<path d="M113.174 111.625H107.217V117.5H113.174V111.625Z" fill="#77A000"/>
<path d="M119.13 111.625H113.174V117.5H119.13V111.625Z" fill="#77A000"/>
<path d="M125.087 111.625H119.13V117.5H125.087V111.625Z" fill="#77A000"/>
<path d="M131.043 111.625H125.087V117.5H131.043V111.625Z" fill="#77A000"/>
<path d="M137 111.625H131.043V117.5H137V111.625Z" fill="#77A000"/>
<path d="M142.957 111.625H137V117.5H142.957V111.625Z" fill="#77A000"/>
<path d="M148.913 111.625H142.957V117.5H148.913V111.625Z" fill="#77A000"/>
<path d="M154.87 111.625H148.913V117.5H154.87V111.625Z" fill="#77A000"/>
<path d="M160.826 111.625H154.87V117.5H160.826V111.625Z" fill="#77A000"/>
<path d="M166.783 111.625H160.826V117.5H166.783V111.625Z" fill="#77A000"/>
<path d="M172.739 111.625H166.783V117.5H172.739V111.625Z" fill="#77A000"/>
<path d="M178.696 111.625H172.739V117.5H178.696V111.625Z" fill="#77A000"/>
<path d="M184.652 111.625H178.696V117.5H184.652V111.625Z" fill="#77A000"/>
<path d="M190.609 111.625H184.652V117.5H190.609V111.625Z" fill="#77A000"/>
<path d="M196.565 111.625H190.609V117.5H196.565V111.625Z" fill="#77A000"/>
<path d="M202.522 111.625H196.565V117.5H202.522V111.625Z" fill="#77A000"/>
<path d="M208.478 111.625H202.522V117.5H208.478V111.625Z" fill="#77A000"/>
<path d="M214.435 111.625H208.478V117.5H214.435V111.625Z" fill="#77A000"/>
<path d="M220.391 111.625H214.435V117.5H220.391V111.625Z" fill="#77A000"/>
<path d="M226.348 111.625H220.391V117.5H226.348V111.625Z" fill="#77A000"/>
<path d="M232.304 111.625H226.348V117.5H232.304V111.625Z" fill="#77A000"/>
<path d="M238.261 111.625H232.304V117.5H238.261V111.625Z" fill="#77A000"/>
<path d="M244.217 111.625H238.261V117.5H244.217V111.625Z" fill="#77A000"/>
<path d="M250.174 111.625H244.217V117.5H250.174V111.625Z" fill="#77A000"/>
<path d="M256.13 111.625H250.174V117.5H256.13V111.625Z" fill="#77A000"/>
<path d="M262.087 111.625H256.13V117.5H262.087V111.625Z" fill="#77A000"/>
<path d="M268.043 111.625H262.087V117.5H268.043V111.625Z" fill="#77A000"/>
<path d="M274 111.625H268.043V117.5H274V111.625Z" fill="black"/>
<path d="M5.95652 117.5H0V123.375H5.95652V117.5Z" fill="black"/>
<path d="M11.9131 117.5H5.95654V123.375H11.9131V117.5Z" fill="#77A000"/>
<path d="M17.8696 117.5H11.9131V123.375H17.8696V117.5Z" fill="#77A000"/>
<path d="M23.8261 117.5H17.8696V123.375H23.8261V117.5Z" fill="#77A000"/>
<path d="M29.7827 117.5H23.8262V123.375H29.7827V117.5Z" fill="#77A000"/>
<path d="M35.7392 117.5H29.7827V123.375H35.7392V117.5Z" fill="#77A000"/>
<path d="M41.6958 117.5H35.7393V123.375H41.6958V117.5Z" fill="#77A000"/>
<path d="M47.6523 117.5H41.6958V123.375H47.6523V117.5Z" fill="#77A000"/>
<path d="M53.6089 117.5H47.6523V123.375H53.6089V117.5Z" fill="#77A000"/>
<path d="M59.5654 117.5H53.6089V123.375H59.5654V117.5Z" fill="#77A000"/>
<path d="M65.522 117.5H59.5654V123.375H65.522V117.5Z" fill="#77A000"/>
<path d="M71.4785 117.5H65.522V123.375H71.4785V117.5Z" fill="#77A000"/>
<path d="M77.4345 117.5H71.478V123.375H77.4345V117.5Z" fill="#77A000"/>
<path d="M83.3911 117.5H77.4346V123.375H83.3911V117.5Z" fill="#77A000"/>
<path d="M89.3476 117.5H83.3911V123.375H89.3476V117.5Z" fill="#77A000"/>
<path d="M95.3042 117.5H89.3477V123.375H95.3042V117.5Z" fill="#77A000"/>
<path d="M101.261 117.5H95.3042V123.375H101.261V117.5Z" fill="#77A000"/>
<path d="M107.217 117.5H101.261V123.375H107.217V117.5Z" fill="#77A000"/>
<path d="M113.174 117.5H107.217V123.375H113.174V117.5Z" fill="#77A000"/>
<path d="M119.13 117.5H113.174V123.375H119.13V117.5Z" fill="#77A000"/>
<path d="M125.087 117.5H119.13V123.375H125.087V117.5Z" fill="#77A000"/>
<path d="M131.043 117.5H125.087V123.375H131.043V117.5Z" fill="#77A000"/>
<path d="M137 117.5H131.043V123.375H137V117.5Z" fill="#77A000"/>
<path d="M142.957 117.5H137V123.375H142.957V117.5Z" fill="#77A000"/>
<path d="M148.913 117.5H142.957V123.375H148.913V117.5Z" fill="#77A000"/>
<path d="M154.87 117.5H148.913V123.375H154.87V117.5Z" fill="#77A000"/>
<path d="M160.826 117.5H154.87V123.375H160.826V117.5Z" fill="#77A000"/>
<path d="M166.783 117.5H160.826V123.375H166.783V117.5Z" fill="#77A000"/>
<path d="M172.739 117.5H166.783V123.375H172.739V117.5Z" fill="#77A000"/>
<path d="M178.696 117.5H172.739V123.375H178.696V117.5Z" fill="#77A000"/>
<path d="M184.652 117.5H178.696V123.375H184.652V117.5Z" fill="#77A000"/>
<path d="M190.609 117.5H184.652V123.375H190.609V117.5Z" fill="#77A000"/>
<path d="M196.565 117.5H190.609V123.375H196.565V117.5Z" fill="#77A000"/>
<path d="M202.522 117.5H196.565V123.375H202.522V117.5Z" fill="#77A000"/>
<path d="M208.478 117.5H202.522V123.375H208.478V117.5Z" fill="#77A000"/>
<path d="M214.435 117.5H208.478V123.375H214.435V117.5Z" fill="#77A000"/>
<path d="M220.391 117.5H214.435V123.375H220.391V117.5Z" fill="#77A000"/>
<path d="M226.348 117.5H220.391V123.375H226.348V117.5Z" fill="#77A000"/>
<path d="M232.304 117.5H226.348V123.375H232.304V117.5Z" fill="#77A000"/>
<path d="M238.261 117.5H232.304V123.375H238.261V117.5Z" fill="#77A000"/>
<path d="M244.217 117.5H238.261V123.375H244.217V117.5Z" fill="#77A000"/>
<path d="M250.174 117.5H244.217V123.375H250.174V117.5Z" fill="#77A000"/>
<path d="M256.13 117.5H250.174V123.375H256.13V117.5Z" fill="#77A000"/>
<path d="M262.087 117.5H256.13V123.375H262.087V117.5Z" fill="#77A000"/>
<path d="M268.043 117.5H262.087V123.375H268.043V117.5Z" fill="#77A000"/>
<path d="M274 117.5H268.043V123.375H274V117.5Z" fill="black"/>
<path d="M5.95652 123.375H0V129.25H5.95652V123.375Z" fill="black"/>
<path d="M11.9131 123.375H5.95654V129.25H11.9131V123.375Z" fill="#77A000"/>
<path d="M17.8696 123.375H11.9131V129.25H17.8696V123.375Z" fill="#77A000"/>
<path d="M23.8261 123.375H17.8696V129.25H23.8261V123.375Z" fill="#77A000"/>
<path d="M29.7827 123.375H23.8262V129.25H29.7827V123.375Z" fill="#77A000"/>
<path d="M35.7392 123.375H29.7827V129.25H35.7392V123.375Z" fill="#77A000"/>
<path d="M41.6958 123.375H35.7393V129.25H41.6958V123.375Z" fill="#77A000"/>
<path d="M47.6523 123.375H41.6958V129.25H47.6523V123.375Z" fill="#77A000"/>
<path d="M53.6089 123.375H47.6523V129.25H53.6089V123.375Z" fill="#77A000"/>
<path d="M59.5654 123.375H53.6089V129.25H59.5654V123.375Z" fill="#77A000"/>
<path d="M65.522 123.375H59.5654V129.25H65.522V123.375Z" fill="#77A000"/>
<path d="M71.4785 123.375H65.522V129.25H71.4785V123.375Z" fill="#77A000"/>
<path d="M77.4345 123.375H71.478V129.25H77.4345V123.375Z" fill="#77A000"/>
<path d="M83.3911 123.375H77.4346V129.25H83.3911V123.375Z" fill="#77A000"/>
<path d="M89.3476 123.375H83.3911V129.25H89.3476V123.375Z" fill="#77A000"/>
<path d="M95.3042 123.375H89.3477V129.25H95.3042V123.375Z" fill="#77A000"/>
<path d="M101.261 123.375H95.3042V129.25H101.261V123.375Z" fill="#77A000"/>
<path d="M107.217 123.375H101.261V129.25H107.217V123.375Z" fill="#77A000"/>
<path d="M113.174 123.375H107.217V129.25H113.174V123.375Z" fill="#77A000"/>
<path d="M119.13 123.375H113.174V129.25H119.13V123.375Z" fill="#77A000"/>
<path d="M125.087 123.375H119.13V129.25H125.087V123.375Z" fill="#77A000"/>
<path d="M131.043 123.375H125.087V129.25H131.043V123.375Z" fill="#77A000"/>
<path d="M137 123.375H131.043V129.25H137V123.375Z" fill="#77A000"/>
<path d="M142.957 123.375H137V129.25H142.957V123.375Z" fill="#77A000"/>
<path d="M148.913 123.375H142.957V129.25H148.913V123.375Z" fill="#77A000"/>
<path d="M154.87 123.375H148.913V129.25H154.87V123.375Z" fill="#77A000"/>
<path d="M160.826 123.375H154.87V129.25H160.826V123.375Z" fill="#77A000"/>
<path d="M166.783 123.375H160.826V129.25H166.783V123.375Z" fill="#77A000"/>
<path d="M172.739 123.375H166.783V129.25H172.739V123.375Z" fill="#77A000"/>
<path d="M178.696 123.375H172.739V129.25H178.696V123.375Z" fill="#77A000"/>
<path d="M184.652 123.375H178.696V129.25H184.652V123.375Z" fill="#77A000"/>
<path d="M190.609 123.375H184.652V129.25H190.609V123.375Z" fill="#77A000"/>
<path d="M196.565 123.375H190.609V129.25H196.565V123.375Z" fill="#77A000"/>
<path d="M202.522 123.375H196.565V129.25H202.522V123.375Z" fill="#77A000"/>
<path d="M208.478 123.375H202.522V129.25H208.478V123.375Z" fill="#77A000"/>
<path d="M214.435 123.375H208.478V129.25H214.435V123.375Z" fill="#77A000"/>
<path d="M220.391 123.375H214.435V129.25H220.391V123.375Z" fill="#77A000"/>
<path d="M226.348 123.375H220.391V129.25H226.348V123.375Z" fill="#77A000"/>
<path d="M232.304 123.375H226.348V129.25H232.304V123.375Z" fill="#77A000"/>
<path d="M238.261 123.375H232.304V129.25H238.261V123.375Z" fill="#77A000"/>
<path d="M244.217 123.375H238.261V129.25H244.217V123.375Z" fill="#77A000"/>
<path d="M250.174 123.375H244.217V129.25H250.174V123.375Z" fill="#77A000"/>
<path d="M256.13 123.375H250.174V129.25H256.13V123.375Z" fill="#77A000"/>
<path d="M262.087 123.375H256.13V129.25H262.087V123.375Z" fill="#77A000"/>
<path d="M268.043 123.375H262.087V129.25H268.043V123.375Z" fill="#77A000"/>
<path d="M274 123.375H268.043V129.25H274V123.375Z" fill="black"/>
<path d="M11.9131 129.25H5.95654V135.125H11.9131V129.25Z" fill="black"/>
<path d="M17.8696 129.25H11.9131V135.125H17.8696V129.25Z" fill="#77A000"/>
<path d="M23.8261 129.25H17.8696V135.125H23.8261V129.25Z" fill="#77A000"/>
<path d="M29.7827 129.25H23.8262V135.125H29.7827V129.25Z" fill="#77A000"/>
<path d="M35.7392 129.25H29.7827V135.125H35.7392V129.25Z" fill="#77A000"/>
<path d="M41.6958 129.25H35.7393V135.125H41.6958V129.25Z" fill="#77A000"/>
<path d="M47.6523 129.25H41.6958V135.125H47.6523V129.25Z" fill="#77A000"/>
<path d="M53.6089 129.25H47.6523V135.125H53.6089V129.25Z" fill="#77A000"/>
<path d="M59.5654 129.25H53.6089V135.125H59.5654V129.25Z" fill="#77A000"/>
<path d="M65.522 129.25H59.5654V135.125H65.522V129.25Z" fill="#77A000"/>
<path d="M71.4785 129.25H65.522V135.125H71.4785V129.25Z" fill="#77A000"/>
<path d="M77.4345 129.25H71.478V135.125H77.4345V129.25Z" fill="#77A000"/>
<path d="M83.3911 129.25H77.4346V135.125H83.3911V129.25Z" fill="#77A000"/>
<path d="M89.3476 129.25H83.3911V135.125H89.3476V129.25Z" fill="#77A000"/>
<path d="M95.3042 129.25H89.3477V135.125H95.3042V129.25Z" fill="#77A000"/>
<path d="M101.261 129.25H95.3042V135.125H101.261V129.25Z" fill="#77A000"/>
<path d="M107.217 129.25H101.261V135.125H107.217V129.25Z" fill="#77A000"/>
<path d="M113.174 129.25H107.217V135.125H113.174V129.25Z" fill="#77A000"/>
<path d="M119.13 129.25H113.174V135.125H119.13V129.25Z" fill="#77A000"/>
<path d="M125.087 129.25H119.13V135.125H125.087V129.25Z" fill="#77A000"/>
<path d="M131.043 129.25H125.087V135.125H131.043V129.25Z" fill="#77A000"/>
<path d="M137 129.25H131.043V135.125H137V129.25Z" fill="#77A000"/>
<path d="M142.957 129.25H137V135.125H142.957V129.25Z" fill="#77A000"/>
<path d="M148.913 129.25H142.957V135.125H148.913V129.25Z" fill="#77A000"/>
<path d="M154.87 129.25H148.913V135.125H154.87V129.25Z" fill="#77A000"/>
<path d="M160.826 129.25H154.87V135.125H160.826V129.25Z" fill="#77A000"/>
<path d="M166.783 129.25H160.826V135.125H166.783V129.25Z" fill="#77A000"/>
<path d="M172.739 129.25H166.783V135.125H172.739V129.25Z" fill="#77A000"/>
<path d="M178.696 129.25H172.739V135.125H178.696V129.25Z" fill="#77A000"/>
<path d="M184.652 129.25H178.696V135.125H184.652V129.25Z" fill="#77A000"/>
<path d="M190.609 129.25H184.652V135.125H190.609V129.25Z" fill="#77A000"/>
<path d="M196.565 129.25H190.609V135.125H196.565V129.25Z" fill="#77A000"/>
<path d="M202.522 129.25H196.565V135.125H202.522V129.25Z" fill="#77A000"/>
<path d="M208.478 129.25H202.522V135.125H208.478V129.25Z" fill="#77A000"/>
<path d="M214.435 129.25H208.478V135.125H214.435V129.25Z" fill="#77A000"/>
<path d="M220.391 129.25H214.435V135.125H220.391V129.25Z" fill="#77A000"/>
<path d="M226.348 129.25H220.391V135.125H226.348V129.25Z" fill="#77A000"/>
<path d="M232.304 129.25H226.348V135.125H232.304V129.25Z" fill="#77A000"/>
<path d="M238.261 129.25H232.304V135.125H238.261V129.25Z" fill="#77A000"/>
<path d="M244.217 129.25H238.261V135.125H244.217V129.25Z" fill="#77A000"/>
<path d="M250.174 129.25H244.217V135.125H250.174V129.25Z" fill="#77A000"/>
<path d="M256.13 129.25H250.174V135.125H256.13V129.25Z" fill="#77A000"/>
<path d="M262.087 129.25H256.13V135.125H262.087V129.25Z" fill="#77A000"/>
<path d="M268.043 129.25H262.087V135.125H268.043V129.25Z" fill="black"/>
<path d="M17.8696 135.125H11.9131V141H17.8696V135.125Z" fill="black"/>
<path d="M23.8261 135.125H17.8696V141H23.8261V135.125Z" fill="black"/>
<path d="M29.7827 135.125H23.8262V141H29.7827V135.125Z" fill="black"/>
<path d="M35.7392 135.125H29.7827V141H35.7392V135.125Z" fill="black"/>
<path d="M41.6958 135.125H35.7393V141H41.6958V135.125Z" fill="black"/>
<path d="M47.6523 135.125H41.6958V141H47.6523V135.125Z" fill="black"/>
<path d="M53.6089 135.125H47.6523V141H53.6089V135.125Z" fill="black"/>
<path d="M59.5654 135.125H53.6089V141H59.5654V135.125Z" fill="black"/>
<path d="M65.522 135.125H59.5654V141H65.522V135.125Z" fill="black"/>
<path d="M71.4785 135.125H65.522V141H71.4785V135.125Z" fill="black"/>
<path d="M77.4345 135.125H71.478V141H77.4345V135.125Z" fill="black"/>
<path d="M83.3911 135.125H77.4346V141H83.3911V135.125Z" fill="black"/>
<path d="M89.3476 135.125H83.3911V141H89.3476V135.125Z" fill="black"/>
<path d="M95.3042 135.125H89.3477V141H95.3042V135.125Z" fill="black"/>
<path d="M101.261 135.125H95.3042V141H101.261V135.125Z" fill="black"/>
<path d="M107.217 135.125H101.261V141H107.217V135.125Z" fill="black"/>
<path d="M113.174 135.125H107.217V141H113.174V135.125Z" fill="black"/>
<path d="M119.13 135.125H113.174V141H119.13V135.125Z" fill="black"/>
<path d="M125.087 135.125H119.13V141H125.087V135.125Z" fill="black"/>
<path d="M131.043 135.125H125.087V141H131.043V135.125Z" fill="black"/>
<path d="M137 135.125H131.043V141H137V135.125Z" fill="black"/>
<path d="M142.957 135.125H137V141H142.957V135.125Z" fill="black"/>
<path d="M148.913 135.125H142.957V141H148.913V135.125Z" fill="black"/>
<path d="M154.87 135.125H148.913V141H154.87V135.125Z" fill="black"/>
<path d="M160.826 135.125H154.87V141H160.826V135.125Z" fill="black"/>
<path d="M166.783 135.125H160.826V141H166.783V135.125Z" fill="black"/>
<path d="M172.739 135.125H166.783V141H172.739V135.125Z" fill="black"/>
<path d="M178.696 135.125H172.739V141H178.696V135.125Z" fill="black"/>
<path d="M184.652 135.125H178.696V141H184.652V135.125Z" fill="black"/>
<path d="M190.609 135.125H184.652V141H190.609V135.125Z" fill="black"/>
<path d="M196.565 135.125H190.609V141H196.565V135.125Z" fill="black"/>
<path d="M202.522 135.125H196.565V141H202.522V135.125Z" fill="black"/>
<path d="M208.478 135.125H202.522V141H208.478V135.125Z" fill="black"/>
<path d="M214.435 135.125H208.478V141H214.435V135.125Z" fill="black"/>
<path d="M220.391 135.125H214.435V141H220.391V135.125Z" fill="black"/>
<path d="M226.348 135.125H220.391V141H226.348V135.125Z" fill="black"/>
<path d="M232.304 135.125H226.348V141H232.304V135.125Z" fill="black"/>
<path d="M238.261 135.125H232.304V141H238.261V135.125Z" fill="black"/>
<path d="M244.217 135.125H238.261V141H244.217V135.125Z" fill="black"/>
<path d="M250.174 135.125H244.217V141H250.174V135.125Z" fill="black"/>
<path d="M256.13 135.125H250.174V141H256.13V135.125Z" fill="black"/>
<path d="M262.087 135.125H256.13V141H262.087V135.125Z" fill="black"/>
</g>
<defs>
<clipPath id="clip0_16478_98635">
<rect width="100%" height="100%" fill="white"/>
</clipPath>
</defs>
</svg>
