<svg width="171" height="172" viewBox="0 0 171 172" fill="none" xmlns="http://www.w3.org/2000/svg">
<path d="M37.0001 5C44.5901 5 52.1801 5 60.0001 5C60.0001 9.29 60.0001 13.58 60.0001 18C65.2801 18 70.5601 18 76.0001 18C76.0001 21.63 76.0001 25.26 76.0001 29C82.6001 29 89.2001 29 96.0001 29C96.0001 25.37 96.0001 21.74 96.0001 18C101.28 18 106.56 18 112 18C112 13.71 112 9.42 112 5C119.59 5 127.18 5 135 5C135 9.29 135 13.58 135 18C140.28 18 145.56 18 151 18C151 23.28 151 28.56 151 34C156.28 34 161.56 34 167 34C167.169 55.0192 166.64 75.993 166 97C158.08 97 150.16 97 142 97C142.039 102.518 142.039 102.518 142.09 108.037C142.094 109.099 142.094 109.099 142.098 110.184C142.103 110.891 142.108 111.598 142.114 112.326C141.948 116.231 141.432 120.115 141 124C133.08 124 125.16 124 117 124C117 130.27 117 136.54 117 143C109.74 143 102.48 143 95.0001 143C95.0001 150.92 95.0001 158.84 95.0001 167C87.4101 167 79.8201 167 72.0001 167C72.0001 158.86 72.3657 151.089 73.0001 143C65.7401 143 58.4801 143 51.0001 143C51.0001 136.73 51.0001 130.46 51.0001 124C43.0801 124 35.1601 124 27.0001 124C27.0001 114.843 27.3264 106.095 28.0001 97C20.0801 97 12.1601 97 4.00014 97C3.97758 88.9335 3.95922 80.867 3.94833 72.8004C3.9431 69.0552 3.936 65.3099 3.9247 61.5647C3.91387 57.9532 3.90786 54.3417 3.90526 50.7302C3.90341 49.3494 3.89978 47.9686 3.89441 46.5879C3.88719 44.6602 3.88673 42.7326 3.88661 40.8049C3.88439 39.7057 3.88217 38.6065 3.87988 37.474C4.00014 35 4.00014 35 5.00014 34C7.69883 33.9267 10.3652 33.9078 13.0626 33.9375C15.682 33.9581 18.3014 33.9787 21.0001 34C21.0001 28.72 21.0001 23.44 21.0001 18C26.2801 18 31.5601 18 37.0001 18C37.0001 13.71 37.0001 9.42 37.0001 5Z" fill="#E85F6F"/>
<path d="M37.0001 5C44.5901 5 52.1801 5 60.0001 5C60.0001 9.29 60.0001 13.58 60.0001 18C65.2801 18 70.5601 18 76.0001 18C76.0001 21.63 76.0001 25.26 76.0001 29C82.6001 29 89.2001 29 96.0001 29C96.0001 25.37 96.0001 21.74 96.0001 18C101.28 18 106.56 18 112 18C112 13.71 112 9.42 112 5C119.59 5 127.18 5 135 5C135 9.29 135 13.58 135 18C140.28 18 145.56 18 151 18C151 23.28 151 28.56 151 34C156.28 34 161.56 34 167 34C167.169 55.0192 166.64 75.993 166 97C158.08 97 150.16 97 142 97C142.039 102.518 142.039 102.518 142.09 108.037C142.094 109.099 142.094 109.099 142.098 110.184C142.103 110.891 142.108 111.598 142.114 112.326C141.948 116.231 141.432 120.115 141 124C133.08 124 125.16 124 117 124C117 130.27 117 136.54 117 143C109.74 143 102.48 143 95.0001 143C95.0001 150.92 95.0001 158.84 95.0001 167C87.4101 167 79.8201 167 72.0001 167C72.0001 158.86 72.3657 151.089 73.0001 143C65.7401 143 58.4801 143 51.0001 143C51.0001 136.73 51.0001 130.46 51.0001 124C43.0801 124 35.1601 124 27.0001 124C27.0001 114.843 27.3264 106.095 28.0001 97C20.0801 97 12.1601 97 4.00014 97C3.97758 88.9335 3.95922 80.867 3.94833 72.8004C3.9431 69.0552 3.936 65.3099 3.9247 61.5647C3.91387 57.9532 3.90786 54.3417 3.90526 50.7302C3.90341 49.3494 3.89978 47.9686 3.89441 46.5879C3.88719 44.6602 3.88673 42.7326 3.88661 40.8049C3.88439 39.7057 3.88217 38.6065 3.87988 37.474C4.00014 35 4.00014 35 5.00014 34C7.69883 33.9267 10.3652 33.9078 13.0626 33.9375C15.682 33.9581 18.3014 33.9787 21.0001 34C21.0001 28.72 21.0001 23.44 21.0001 18C26.2801 18 31.5601 18 37.0001 18C37.0001 13.71 37.0001 9.42 37.0001 5ZM107 29C107 32.63 107 36.26 107 40C92.8101 40 78.6201 40 64.0001 40C64.0001 36.7 64.0001 33.4 64.0001 30C53.4401 30 42.8801 30 32.0001 30C32.0001 35.28 32.0001 40.56 32.0001 46C26.7201 46 21.4401 46 16.0001 46C16.0001 59.2 16.0001 72.4 16.0001 86C23.5901 86 31.1801 86 39.0001 86C39.0001 94.91 39.0001 103.82 39.0001 113C46.9201 113 54.8401 113 63.0001 113C63.0001 119.27 63.0001 125.54 63.0001 132C77.1901 132 91.3801 132 106 132C106 125.73 106 119.46 106 113C114.25 113 122.5 113 131 113C131 104.09 131 95.18 131 86C138.92 86 146.84 86 155 86C155 72.47 155 58.94 155 45C150.05 45 145.1 45 140 45C140 39.72 140 34.44 140 29C129.11 29 118.22 29 107 29Z" fill="#D34259"/>
</svg>
