<svg width="689" height="352" viewBox="0 0 689 352" fill="none" xmlns="http://www.w3.org/2000/svg">
<path d="M61 6C250.09 6 439.18 6 634 6C634 13.26 634 20.52 634 28C638.95 28 643.9 28 649 28C649 31.63 649 35.26 649 39C653.62 39 658.24 39 663 39C663 42.63 663 46.26 663 50C667.95 50 672.9 50 678 50C678 108.08 678 166.16 678 226C673.05 226 668.1 226 663 226C663 233.26 663 240.52 663 248C658.38 248 653.76 248 649 248C649 251.63 649 255.26 649 259C644.05 259 639.1 259 634 259C634 266.26 634 273.52 634 281C629.05 281 624.1 281 619 281C619 284.63 619 288.26 619 292C488.32 292 357.64 292 223 292C223 295.63 223 299.26 223 303C218.38 303 213.76 303 209 303C209 306.63 209 310.26 209 314C204.05 314 199.1 314 194 314C194 317.63 194 321.26 194 325C189.05 325 184.1 325 179 325C179 328.63 179 332.26 179 336C169.43 336 159.86 336 150 336C150 339.63 150 343.26 150 347C135.15 347 120.3 347 105 347C105 335.78 105 324.56 105 313C109.95 313 114.9 313 120 313C120 309.37 120 305.74 120 302C124.95 302 129.9 302 135 302C135 298.7 135 295.4 135 292C105.96 292 76.92 292 47 292C47 284.74 47 277.48 47 270C42.05 270 37.1 270 32 270C32 266.37 32 262.74 32 259C27.05 259 22.1 259 17 259C17 255.37 17 251.74 17 248C12.38 248 7.76 248 3 248C3 186.29 3 124.58 3 61C7.62 61 12.24 61 17 61C17 57.37 17 53.74 17 50C21.95 50 26.9 50 32 50C32 46.37 32 42.74 32 39C36.95 39 41.9 39 47 39C47 35.37 47 31.74 47 28C51.62 28 56.24 28 61 28C61 20.74 61 13.48 61 6Z" fill="#F7F7F7"/>
<path d="M61 6C250.09 6 439.18 6 634 6C634 13.26 634 20.52 634 28C638.95 28 643.9 28 649 28C649 31.63 649 35.26 649 39C653.62 39 658.24 39 663 39C663 42.63 663 46.26 663 50C667.95 50 672.9 50 678 50C678 108.08 678 166.16 678 226C673.05 226 668.1 226 663 226C663 171.88 663 117.76 663 62C658.05 62 653.1 62 648 62C648 54.74 648 47.48 648 40C643.05 40 638.1 40 633 40C633 36.37 633 32.74 633 29C628.38 29 623.76 29 619 29C619 25.37 619 21.74 619 18C439.81 18 260.62 18 76 18C76 21.63 76 25.26 76 29C71.38 29 66.76 29 62 29C62 32.63 62 36.26 62 40C57.05 40 52.1 40 47 40C47 46.93 47 53.86 47 61C42.05 61 37.1 61 32 61C32 115.45 32 169.9 32 226C36.95 226 41.9 226 47 226C47 233.26 47 240.52 47 248C51.95 248 56.9 248 62 248C62 251.3 62 254.6 62 258C62.999 257.988 63.998 257.977 65.0273 257.965C66.3177 257.956 67.608 257.947 68.9375 257.938C70.2253 257.926 71.513 257.914 72.8398 257.902C76 258 76 258 77 259C77 262.3 77 265.6 77 269C101.09 269 125.18 269 150 269C150 272.63 150 276.26 150 280C154.95 280 159.9 280 165 280C165 287.59 165 295.18 165 303C160.05 303 155.1 303 150 303C150 306.63 150 310.26 150 314C145.05 314 140.1 314 135 314C135 317.63 135 321.26 135 325C144.57 325 154.14 325 164 325C164 328.63 164 332.26 164 336C159.38 336 154.76 336 150 336C150 339.63 150 343.26 150 347C135.15 347 120.3 347 105 347C105 335.78 105 324.56 105 313C109.95 313 114.9 313 120 313C120 309.37 120 305.74 120 302C124.95 302 129.9 302 135 302C135 298.7 135 295.4 135 292C105.96 292 76.92 292 47 292C47 284.74 47 277.48 47 270C42.05 270 37.1 270 32 270C32 266.37 32 262.74 32 259C27.05 259 22.1 259 17 259C17 255.37 17 251.74 17 248C12.38 248 7.76 248 3 248C3 186.29 3 124.58 3 61C7.62 61 12.24 61 17 61C17 57.37 17 53.74 17 50C21.95 50 26.9 50 32 50C32 46.37 32 42.74 32 39C36.95 39 41.9 39 47 39C47 35.37 47 31.74 47 28C51.62 28 56.24 28 61 28C61 20.74 61 13.48 61 6ZM648 226C652.95 226 657.9 226 663 226C663 233.26 663 240.52 663 248C658.38 248 653.76 248 649 248C649 251.63 649 255.26 649 259C644.05 259 639.1 259 634 259C634 255.37 634 251.74 634 248C638.62 248 643.24 248 648 248C648 240.74 648 233.48 648 226ZM619 259C623.95 259 628.9 259 634 259C634 266.26 634 273.52 634 281C437.98 280.505 437.98 280.505 238 280C238 276.7 238 273.4 238 270C363.73 270 489.46 270 619 270C619 266.37 619 262.74 619 259Z" fill="#230404"/>
<path d="M76 18C95.47 18 114.94 18 135 18C135 25.26 135 32.52 135 40C130.05 40 125.1 40 120 40C120 43.63 120 47.26 120 51C110.43 51 100.86 51 91 51C91 54.3 91 57.6 91 61C95.95 61 100.9 61 106 61C106 79.15 106 97.3 106 116C101.05 116 96.1 116 91 116C91 159.56 91 203.12 91 248C100.57 248 110.14 248 120 248C120.33 251.3 120.66 254.6 121 258C125.62 258.33 130.24 258.66 135 259C135 262.3 135 265.6 135 269C115.86 269 96.72 269 77 269C76.67 265.7 76.34 262.4 76 259C71.38 258.67 66.76 258.34 62 258C62 254.7 62 251.4 62 248C57.05 248 52.1 248 47 248C47 240.74 47 233.48 47 226C42.05 226 37.1 226 32 226C32 171.55 32 117.1 32 61C36.95 61 41.9 61 47 61C47 54.07 47 47.14 47 40C51.95 40 56.9 40 62 40C62 36.37 62 32.74 62 29C66.62 29 71.24 29 76 29C76 25.37 76 21.74 76 18Z" fill="#FDFDFD"/>
<path d="M575 18C589.52 18 604.04 18 619 18C619 21.63 619 25.26 619 29C623.62 29 628.24 29 633 29C633 32.63 633 36.26 633 40C637.95 40 642.9 40 648 40C648 47.26 648 54.52 648 62C652.95 62 657.9 62 663 62C663 116.12 663 170.24 663 226C658.05 226 653.1 226 648 226C648 233.26 648 240.52 648 248C643.38 248 638.76 248 634 248C634 251.63 634 255.26 634 259C629.05 259 624.1 259 619 259C619 262.3 619 265.6 619 269C604.48 269 589.96 269 575 269C575 265.7 575 262.4 575 259C579.62 258.67 584.24 258.34 589 258C589.33 254.7 589.66 251.4 590 248C594.62 248 599.24 248 604 248C604 244.37 604 240.74 604 237C608.95 237 613.9 237 619 237C619 175.29 619 113.58 619 50C614.38 50 609.76 50 605 50C604.505 45.05 604.505 45.05 604 40C597.07 39.505 597.07 39.505 590 39C590 35.7 590 32.4 590 29C585.05 29 580.1 29 575 29C575 25.37 575 21.74 575 18Z" fill="#FEFEFE"/>
<path d="M638.16 27.9023C640.092 27.9197 640.092 27.9197 642.062 27.9375C643.353 27.9465 644.643 27.9555 645.973 27.9648C646.972 27.9764 647.971 27.988 649 28C649 31.63 649 35.26 649 39C644.05 39 639.1 39 634 39C633.902 31.2852 633.902 31.2852 634 29C635 28 635 28 638.16 27.9023ZM649 39C653.62 39 658.24 39 663 39C663 42.63 663 46.26 663 50C667.95 50 672.9 50 678 50C678 108.08 678 166.16 678 226C673.05 226 668.1 226 663 226C663 171.55 663 117.1 663 61C658.38 61 653.76 61 649 61C649 53.74 649 46.48 649 39ZM648 226C652.95 226 657.9 226 663 226C663 233.26 663 240.52 663 248C658.38 248 653.76 248 649 248C649 251.63 649 255.26 649 259C644.05 259 639.1 259 634 259C634 255.37 634 251.74 634 248C638.62 248 643.24 248 648 248C648 240.74 648 233.48 648 226ZM619 259C623.95 259 628.9 259 634 259C634 266.26 634 273.52 634 281C437.98 280.505 437.98 280.505 238 280C238 276.7 238 273.4 238 270C363.73 270 489.46 270 619 270C619 266.37 619 262.74 619 259Z" fill="#200000"/>
<path d="M3 61C7.62 61 12.24 61 17 61C17 119.08 17 177.16 17 237C21.95 237 26.9 237 32 237C32 244.26 32 251.52 32 259C27.05 259 22.1 259 17 259C17 255.37 17 251.74 17 248C12.38 248 7.76 248 3 248C3 186.29 3 124.58 3 61ZM32 259C41.57 259 51.14 259 61 259C61.495 269.395 61.495 269.395 62 280C90.71 280.33 119.42 280.66 149 281C149 287.93 149 294.86 149 302C144.38 302 139.76 302 135 302C135 298.7 135 295.4 135 292C105.96 292 76.92 292 47 292C47 284.74 47 277.48 47 270C42.05 270 37.1 270 32 270C32 266.37 32 262.74 32 259ZM120 302C124.95 302 129.9 302 135 302C135 305.63 135 309.26 135 313C130.05 313 125.1 313 120 313C120 309.37 120 305.74 120 302ZM105 313C109.95 313 114.9 313 120 313C120 320.26 120 327.52 120 335C129.9 335 139.8 335 150 335C150 338.96 150 342.92 150 347C135.15 347 120.3 347 105 347C105 335.78 105 324.56 105 313Z" fill="#ABA3C4"/>
<path d="M237 270C237.33 270 237.66 270 238 270C238 273.3 238 276.6 238 280C363.73 280 489.46 280 619 280C619 283.96 619 287.92 619 292C488.32 292 357.64 292 223 292C223 295.63 223 299.26 223 303C218.38 303 213.76 303 209 303C209 306.63 209 310.26 209 314C204.05 314 199.1 314 194 314C194 310.04 194 306.08 194 302C198.62 302 203.24 302 208 302C208 298.37 208 294.74 208 291C212.95 291 217.9 291 223 291C223 287.37 223 283.74 223 280C227.62 280 232.24 280 237 280C237 276.7 237 273.4 237 270ZM165 314C174.57 314 184.14 314 194 314C194 317.63 194 321.26 194 325C184.261 325.123 174.709 324.838 165 324C165 320.7 165 317.4 165 314Z" fill="#A69CBC"/>
<path d="M179 259C183.62 259 188.24 259 193 259C193 262.63 193 266.26 193 270C207.52 270 222.04 270 237 270C237 273.3 237 276.6 237 280C232.38 280 227.76 280 223 280C223 283.63 223 287.26 223 291C218.05 291 213.1 291 208 291C208 294.63 208 298.26 208 302C203.38 302 198.76 302 194 302C194 305.96 194 309.92 194 314C184.43 314 174.86 314 165 314C165 317.3 165 320.6 165 324C169.62 324 174.24 324 179 324C179 327.96 179 331.92 179 336C174.05 336 169.1 336 164 336C164 332.37 164 328.74 164 325C154.43 325 144.86 325 135 325C135 321.37 135 317.74 135 314C139.95 314 144.9 314 150 314C150 310.37 150 306.74 150 303C154.95 303 159.9 303 165 303C165 295.41 165 287.82 165 280C160.05 280 155.1 280 150 280C150 276.7 150 273.4 150 270C159.57 270 169.14 270 179 270C179 266.37 179 262.74 179 259Z" fill="#FEFEFE"/>
<path d="M17 61C17.33 61 17.66 61 18 61C18 118.75 18 176.5 18 236C22.95 236 27.9 236 33 236C33 243.26 33 250.52 33 258C42.24 258 51.48 258 61 258C61 254.7 61 251.4 61 248C61.33 248 61.66 248 62 248C62 251.3 62 254.6 62 258C62.999 257.988 63.998 257.977 65.0273 257.965C66.3177 257.956 67.608 257.947 68.9375 257.938C70.2253 257.926 71.513 257.914 72.8398 257.902C76 258 76 258 77 259C77 262.3 77 265.6 77 269C101.09 269 125.18 269 150 269C150 272.63 150 276.26 150 280C154.95 280 159.9 280 165 280C165 287.59 165 295.18 165 303C160.05 303 155.1 303 150 303C150 306.63 150 310.26 150 314C145.05 314 140.1 314 135 314C135 317.63 135 321.26 135 325C144.57 325 154.14 325 164 325C164 328.63 164 332.26 164 336C154.028 336.07 144.091 335.862 134.125 335.5C132.743 335.452 131.362 335.403 129.98 335.355C126.654 335.239 123.327 335.12 120 335C120 327.74 120 320.48 120 313C124.95 313 129.9 313 135 313C135 309.37 135 305.74 135 302C139.62 302 144.24 302 149 302C149 295.07 149 288.14 149 281C146.37 281.005 143.739 281.01 141.03 281.016C132.36 281.032 123.691 281.043 115.022 281.052C109.763 281.057 104.504 281.064 99.2458 281.075C94.1755 281.086 89.1051 281.092 84.0347 281.095C82.0957 281.097 80.1567 281.1 78.2178 281.106C75.5118 281.113 72.8059 281.114 70.0999 281.114C69.2899 281.117 68.48 281.121 67.6456 281.124C62.1141 281.114 62.1141 281.114 61 280C60.9131 278.438 60.893 276.873 60.9023 275.309C60.9048 274.458 60.9073 273.608 60.9099 272.732C60.919 271.645 60.9281 270.558 60.9375 269.438C60.9581 265.993 60.9787 262.549 61 259C51.43 259 41.86 259 32 259C32 251.74 32 244.48 32 237C27.05 237 22.1 237 17 237C17 178.92 17 120.84 17 61Z" fill="#7A6975"/>
<path d="M62 259C66.62 259 71.24 259 76 259C76 262.63 76 266.26 76 270C100.09 270 124.18 270 149 270C149 273.3 149 276.6 149 280C120.29 280 91.58 280 62 280C62 273.07 62 266.14 62 259Z" fill="#200000"/>
<path d="M223 281C227.95 281 232.9 281 238 281C238 284.63 238 288.26 238 292C233.05 292 228.1 292 223 292C223 295.63 223 299.26 223 303C218.38 303 213.76 303 209 303C209 306.63 209 310.26 209 314C204.05 314 199.1 314 194 314C194 310.04 194 306.08 194 302C198.62 302 203.24 302 208 302C208 298.37 208 294.74 208 291C212.95 291 217.9 291 223 291C223 287.7 223 284.4 223 281ZM165 314C174.57 314 184.14 314 194 314C194 317.63 194 321.26 194 325C184.261 325.123 174.709 324.838 165 324C165 320.7 165 317.4 165 314Z" fill="#250606"/>
<path d="M121 314C125.62 314 130.24 314 135 314C135 317.63 135 321.26 135 325C144.57 325 154.14 325 164 325C164 328.63 164 332.26 164 336C154.193 336.068 144.425 335.869 134.625 335.5C133.292 335.452 131.958 335.403 130.625 335.355C127.417 335.239 124.208 335.12 121 335C121 328.07 121 321.14 121 314Z" fill="#200000"/>
<path d="M150 281C154.62 281 159.24 281 164 281C164 287.93 164 294.86 164 302C159.38 302 154.76 302 150 302C150 295.07 150 288.14 150 281Z" fill="#200000"/>
<path d="M193 303C193.33 303 193.66 303 194 303C194 306.63 194 310.26 194 314C184.43 314 174.86 314 165 314C165 317.3 165 320.6 165 324C169.62 324 174.24 324 179 324C179 327.96 179 331.92 179 336C174.05 336 169.1 336 164 336C164 332.37 164 328.74 164 325C154.43 325 144.86 325 135 325C135 324.67 135 324.34 135 324C144.57 324 154.14 324 164 324C164 320.37 164 316.74 164 313C173.57 313 183.14 313 193 313C193 309.7 193 306.4 193 303Z" fill="#ABA3C4"/>
<path d="M135 303C139.62 303 144.24 303 149 303C149 306.3 149 309.6 149 313C144.38 313 139.76 313 135 313C135 309.7 135 306.4 135 303Z" fill="#200000"/>
<path d="M193 303C193.33 303 193.66 303 194 303C194 306.63 194 310.26 194 314C184.43 314 174.86 314 165 314C165 317.3 165 320.6 165 324C169.62 324 174.24 324 179 324C179 324.33 179 324.66 179 325C174.38 325 169.76 325 165 325C165 328.63 165 332.26 165 336C164.67 336 164.34 336 164 336C164 332.37 164 328.74 164 325C154.43 325 144.86 325 135 325C135 324.67 135 324.34 135 324C144.57 324 154.14 324 164 324C164 320.37 164 316.74 164 313C173.57 313 183.14 313 193 313C193 309.7 193 306.4 193 303Z" fill="#7A686D"/>
</svg>
