<svg viewBox="0 0 328 141" preserveAspectRatio="none" shape-rendering="crispEdges" fill="none" xmlns="http://www.w3.org/2000/svg"><g clip-path="url(#clip0_601_30)">
<path d="M28.5217 0H21.3913V5.875H28.5217V0Z" fill="black"/>
<path d="M35.6522 0H28.5217V5.875H35.6522V0Z" fill="black"/>
<path d="M42.7826 0H35.6522V5.875H42.7826V0Z" fill="black"/>
<path d="M49.9131 0H42.7826V5.875H49.9131V0Z" fill="black"/>
<path d="M57.0435 0H49.913V5.875H57.0435V0Z" fill="black"/>
<path d="M64.1739 0H57.0435V5.875H64.1739V0Z" fill="black"/>
<path d="M71.3044 0H64.1739V5.875H71.3044V0Z" fill="black"/>
<path d="M78.4348 0H71.3043V5.875H78.4348V0Z" fill="black"/>
<path d="M85.5652 0H78.4348V5.875H85.5652V0Z" fill="black"/>
<path d="M92.6957 0H85.5652V5.875H92.6957V0Z" fill="black"/>
<path d="M99.8261 0H92.6956V5.875H99.8261V0Z" fill="black"/>
<path d="M106.956 0H99.826V5.875H106.956V0Z" fill="black"/>
<path d="M114.087 0H106.957V5.875H114.087V0Z" fill="black"/>
<path d="M121.217 0H114.087V5.875H121.217V0Z" fill="black"/>
<path d="M128.348 0H121.217V5.875H128.348V0Z" fill="black"/>
<path d="M135.478 0H128.348V5.875H135.478V0Z" fill="black"/>
<path d="M142.609 0H135.478V5.875H142.609V0Z" fill="black"/>
<path d="M149.739 0H142.609V5.875H149.739V0Z" fill="black"/>
<path d="M156.87 0H149.739V5.875H156.87V0Z" fill="black"/>
<path d="M164 0H156.87V5.875H164V0Z" fill="black"/>
<path d="M171.13 0H164V5.875H171.13V0Z" fill="black"/>
<path d="M178.261 0H171.13V5.875H178.261V0Z" fill="black"/>
<path d="M185.391 0H178.261V5.875H185.391V0Z" fill="black"/>
<path d="M192.522 0H185.391V5.875H192.522V0Z" fill="black"/>
<path d="M199.652 0H192.522V5.875H199.652V0Z" fill="black"/>
<path d="M206.783 0H199.652V5.875H206.783V0Z" fill="black"/>
<path d="M213.913 0H206.783V5.875H213.913V0Z" fill="black"/>
<path d="M221.043 0H213.913V5.875H221.043V0Z" fill="black"/>
<path d="M228.174 0H221.043V5.875H228.174V0Z" fill="black"/>
<path d="M235.304 0H228.174V5.875H235.304V0Z" fill="black"/>
<path d="M242.435 0H235.304V5.875H242.435V0Z" fill="black"/>
<path d="M249.565 0H242.435V5.875H249.565V0Z" fill="black"/>
<path d="M256.696 0H249.565V5.875H256.696V0Z" fill="black"/>
<path d="M263.826 0H256.696V5.875H263.826V0Z" fill="black"/>
<path d="M270.956 0H263.826V5.875H270.956V0Z" fill="black"/>
<path d="M278.087 0H270.957V5.875H278.087V0Z" fill="black"/>
<path d="M285.217 0H278.087V5.875H285.217V0Z" fill="black"/>
<path d="M292.348 0H285.217V5.875H292.348V0Z" fill="black"/>
<path d="M299.478 0H292.348V5.875H299.478V0Z" fill="black"/>
<path d="M306.609 0H299.478V5.875H306.609V0Z" fill="black"/>
<path d="M21.3913 5.875H14.2609V11.75H21.3913V5.875Z" fill="black"/>
<path d="M28.5217 5.875H21.3913V11.75H28.5217V5.875Z" fill="#7D83B2"/>
<path d="M35.6522 5.875H28.5217V11.75H35.6522V5.875Z" fill="#7D83B2"/>
<path d="M42.7826 5.875H35.6522V11.75H42.7826V5.875Z" fill="#7D83B2"/>
<path d="M49.9131 5.875H42.7826V11.75H49.9131V5.875Z" fill="#7D83B2"/>
<path d="M57.0435 5.875H49.913V11.75H57.0435V5.875Z" fill="#7D83B2"/>
<path d="M64.1739 5.875H57.0435V11.75H64.1739V5.875Z" fill="#7D83B2"/>
<path d="M71.3044 5.875H64.1739V11.75H71.3044V5.875Z" fill="#7D83B2"/>
<path d="M78.4348 5.875H71.3043V11.75H78.4348V5.875Z" fill="#7D83B2"/>
<path d="M85.5652 5.875H78.4348V11.75H85.5652V5.875Z" fill="#7D83B2"/>
<path d="M92.6957 5.875H85.5652V11.75H92.6957V5.875Z" fill="#7D83B2"/>
<path d="M99.8261 5.875H92.6956V11.75H99.8261V5.875Z" fill="#7D83B2"/>
<path d="M106.956 5.875H99.826V11.75H106.956V5.875Z" fill="#7D83B2"/>
<path d="M114.087 5.875H106.957V11.75H114.087V5.875Z" fill="#7D83B2"/>
<path d="M121.217 5.875H114.087V11.75H121.217V5.875Z" fill="#7D83B2"/>
<path d="M128.348 5.875H121.217V11.75H128.348V5.875Z" fill="#7D83B2"/>
<path d="M135.478 5.875H128.348V11.75H135.478V5.875Z" fill="#7D83B2"/>
<path d="M142.609 5.875H135.478V11.75H142.609V5.875Z" fill="#7D83B2"/>
<path d="M149.739 5.875H142.609V11.75H149.739V5.875Z" fill="#7D83B2"/>
<path d="M156.87 5.875H149.739V11.75H156.87V5.875Z" fill="#7D83B2"/>
<path d="M164 5.875H156.87V11.75H164V5.875Z" fill="#7D83B2"/>
<path d="M171.13 5.875H164V11.75H171.13V5.875Z" fill="#7D83B2"/>
<path d="M178.261 5.875H171.13V11.75H178.261V5.875Z" fill="#7D83B2"/>
<path d="M185.391 5.875H178.261V11.75H185.391V5.875Z" fill="#7D83B2"/>
<path d="M192.522 5.875H185.391V11.75H192.522V5.875Z" fill="#7D83B2"/>
<path d="M199.652 5.875H192.522V11.75H199.652V5.875Z" fill="#7D83B2"/>
<path d="M206.783 5.875H199.652V11.75H206.783V5.875Z" fill="#7D83B2"/>
<path d="M213.913 5.875H206.783V11.75H213.913V5.875Z" fill="#7D83B2"/>
<path d="M221.043 5.875H213.913V11.75H221.043V5.875Z" fill="#7D83B2"/>
<path d="M228.174 5.875H221.043V11.75H228.174V5.875Z" fill="#7D83B2"/>
<path d="M235.304 5.875H228.174V11.75H235.304V5.875Z" fill="#7D83B2"/>
<path d="M242.435 5.875H235.304V11.75H242.435V5.875Z" fill="#7D83B2"/>
<path d="M249.565 5.875H242.435V11.75H249.565V5.875Z" fill="#7D83B2"/>
<path d="M256.696 5.875H249.565V11.75H256.696V5.875Z" fill="#7D83B2"/>
<path d="M263.826 5.875H256.696V11.75H263.826V5.875Z" fill="#7D83B2"/>
<path d="M270.956 5.875H263.826V11.75H270.956V5.875Z" fill="#7D83B2"/>
<path d="M278.087 5.875H270.957V11.75H278.087V5.875Z" fill="#7D83B2"/>
<path d="M285.217 5.875H278.087V11.75H285.217V5.875Z" fill="#7D83B2"/>
<path d="M292.348 5.875H285.217V11.75H292.348V5.875Z" fill="#7D83B2"/>
<path d="M299.478 5.875H292.348V11.75H299.478V5.875Z" fill="#7D83B2"/>
<path d="M306.609 5.875H299.478V11.75H306.609V5.875Z" fill="#7D83B2"/>
<path d="M313.739 5.875H306.609V11.75H313.739V5.875Z" fill="black"/>
<path d="M14.2609 11.75H7.13043V17.625H14.2609V11.75Z" fill="black"/>
<path d="M21.3913 11.75H14.2609V17.625H21.3913V11.75Z" fill="#7D83B2"/>
<path d="M28.5217 11.75H21.3913V17.625H28.5217V11.75Z" fill="#7D83B2"/>
<path d="M35.6522 11.75H28.5217V17.625H35.6522V11.75Z" fill="#7D83B2"/>
<path d="M42.7826 11.75H35.6522V17.625H42.7826V11.75Z" fill="#7D83B2"/>
<path d="M49.9131 11.75H42.7826V17.625H49.9131V11.75Z" fill="#7D83B2"/>
<path d="M57.0435 11.75H49.913V17.625H57.0435V11.75Z" fill="#7D83B2"/>
<path d="M64.1739 11.75H57.0435V17.625H64.1739V11.75Z" fill="#7D83B2"/>
<path d="M71.3044 11.75H64.1739V17.625H71.3044V11.75Z" fill="#7D83B2"/>
<path d="M78.4348 11.75H71.3043V17.625H78.4348V11.75Z" fill="#7D83B2"/>
<path d="M85.5652 11.75H78.4348V17.625H85.5652V11.75Z" fill="#7D83B2"/>
<path d="M92.6957 11.75H85.5652V17.625H92.6957V11.75Z" fill="#7D83B2"/>
<path d="M99.8261 11.75H92.6956V17.625H99.8261V11.75Z" fill="#7D83B2"/>
<path d="M106.956 11.75H99.826V17.625H106.956V11.75Z" fill="#7D83B2"/>
<path d="M114.087 11.75H106.957V17.625H114.087V11.75Z" fill="#7D83B2"/>
<path d="M121.217 11.75H114.087V17.625H121.217V11.75Z" fill="#7D83B2"/>
<path d="M128.348 11.75H121.217V17.625H128.348V11.75Z" fill="#7D83B2"/>
<path d="M135.478 11.75H128.348V17.625H135.478V11.75Z" fill="#7D83B2"/>
<path d="M142.609 11.75H135.478V17.625H142.609V11.75Z" fill="#7D83B2"/>
<path d="M149.739 11.75H142.609V17.625H149.739V11.75Z" fill="#7D83B2"/>
<path d="M156.87 11.75H149.739V17.625H156.87V11.75Z" fill="#7D83B2"/>
<path d="M164 11.75H156.87V17.625H164V11.75Z" fill="#7D83B2"/>
<path d="M171.13 11.75H164V17.625H171.13V11.75Z" fill="#7D83B2"/>
<path d="M178.261 11.75H171.13V17.625H178.261V11.75Z" fill="#7D83B2"/>
<path d="M185.391 11.75H178.261V17.625H185.391V11.75Z" fill="#7D83B2"/>
<path d="M192.522 11.75H185.391V17.625H192.522V11.75Z" fill="#7D83B2"/>
<path d="M199.652 11.75H192.522V17.625H199.652V11.75Z" fill="#7D83B2"/>
<path d="M206.783 11.75H199.652V17.625H206.783V11.75Z" fill="#7D83B2"/>
<path d="M213.913 11.75H206.783V17.625H213.913V11.75Z" fill="#7D83B2"/>
<path d="M221.043 11.75H213.913V17.625H221.043V11.75Z" fill="#7D83B2"/>
<path d="M228.174 11.75H221.043V17.625H228.174V11.75Z" fill="#7D83B2"/>
<path d="M235.304 11.75H228.174V17.625H235.304V11.75Z" fill="#7D83B2"/>
<path d="M242.435 11.75H235.304V17.625H242.435V11.75Z" fill="#7D83B2"/>
<path d="M249.565 11.75H242.435V17.625H249.565V11.75Z" fill="#7D83B2"/>
<path d="M256.696 11.75H249.565V17.625H256.696V11.75Z" fill="#7D83B2"/>
<path d="M263.826 11.75H256.696V17.625H263.826V11.75Z" fill="#7D83B2"/>
<path d="M270.956 11.75H263.826V17.625H270.956V11.75Z" fill="#7D83B2"/>
<path d="M278.087 11.75H270.957V17.625H278.087V11.75Z" fill="#7D83B2"/>
<path d="M285.217 11.75H278.087V17.625H285.217V11.75Z" fill="#7D83B2"/>
<path d="M292.348 11.75H285.217V17.625H292.348V11.75Z" fill="#7D83B2"/>
<path d="M299.478 11.75H292.348V17.625H299.478V11.75Z" fill="#7D83B2"/>
<path d="M306.609 11.75H299.478V17.625H306.609V11.75Z" fill="#7D83B2"/>
<path d="M313.739 11.75H306.609V17.625H313.739V11.75Z" fill="#7D83B2"/>
<path d="M320.87 11.75H313.739V17.625H320.87V11.75Z" fill="black"/>
<path d="M7.13043 17.625H0V23.5H7.13043V17.625Z" fill="black"/>
<path d="M14.2609 17.625H7.13043V23.5H14.2609V17.625Z" fill="#7D83B2"/>
<path d="M21.3913 17.625H14.2609V23.5H21.3913V17.625Z" fill="#7D83B2"/>
<path d="M28.5217 17.625H21.3913V23.5H28.5217V17.625Z" fill="#7D83B2"/>
<path d="M35.6522 17.625H28.5217V23.5H35.6522V17.625Z" fill="#7D83B2"/>
<path d="M42.7826 17.625H35.6522V23.5H42.7826V17.625Z" fill="#7D83B2"/>
<path d="M49.9131 17.625H42.7826V23.5H49.9131V17.625Z" fill="#7D83B2"/>
<path d="M57.0435 17.625H49.913V23.5H57.0435V17.625Z" fill="#7D83B2"/>
<path d="M64.1739 17.625H57.0435V23.5H64.1739V17.625Z" fill="#7D83B2"/>
<path d="M71.3044 17.625H64.1739V23.5H71.3044V17.625Z" fill="#7D83B2"/>
<path d="M78.4348 17.625H71.3043V23.5H78.4348V17.625Z" fill="#7D83B2"/>
<path d="M85.5652 17.625H78.4348V23.5H85.5652V17.625Z" fill="#7D83B2"/>
<path d="M92.6957 17.625H85.5652V23.5H92.6957V17.625Z" fill="#7D83B2"/>
<path d="M99.8261 17.625H92.6956V23.5H99.8261V17.625Z" fill="#7D83B2"/>
<path d="M106.956 17.625H99.826V23.5H106.956V17.625Z" fill="#7D83B2"/>
<path d="M114.087 17.625H106.957V23.5H114.087V17.625Z" fill="#7D83B2"/>
<path d="M121.217 17.625H114.087V23.5H121.217V17.625Z" fill="#7D83B2"/>
<path d="M128.348 17.625H121.217V23.5H128.348V17.625Z" fill="#7D83B2"/>
<path d="M135.478 17.625H128.348V23.5H135.478V17.625Z" fill="#7D83B2"/>
<path d="M142.609 17.625H135.478V23.5H142.609V17.625Z" fill="#7D83B2"/>
<path d="M149.739 17.625H142.609V23.5H149.739V17.625Z" fill="#7D83B2"/>
<path d="M156.87 17.625H149.739V23.5H156.87V17.625Z" fill="#7D83B2"/>
<path d="M164 17.625H156.87V23.5H164V17.625Z" fill="#7D83B2"/>
<path d="M171.13 17.625H164V23.5H171.13V17.625Z" fill="#7D83B2"/>
<path d="M178.261 17.625H171.13V23.5H178.261V17.625Z" fill="#7D83B2"/>
<path d="M185.391 17.625H178.261V23.5H185.391V17.625Z" fill="#7D83B2"/>
<path d="M192.522 17.625H185.391V23.5H192.522V17.625Z" fill="#7D83B2"/>
<path d="M199.652 17.625H192.522V23.5H199.652V17.625Z" fill="#7D83B2"/>
<path d="M206.783 17.625H199.652V23.5H206.783V17.625Z" fill="#7D83B2"/>
<path d="M213.913 17.625H206.783V23.5H213.913V17.625Z" fill="#7D83B2"/>
<path d="M221.043 17.625H213.913V23.5H221.043V17.625Z" fill="#7D83B2"/>
<path d="M228.174 17.625H221.043V23.5H228.174V17.625Z" fill="#7D83B2"/>
<path d="M235.304 17.625H228.174V23.5H235.304V17.625Z" fill="#7D83B2"/>
<path d="M242.435 17.625H235.304V23.5H242.435V17.625Z" fill="#7D83B2"/>
<path d="M249.565 17.625H242.435V23.5H249.565V17.625Z" fill="#7D83B2"/>
<path d="M256.696 17.625H249.565V23.5H256.696V17.625Z" fill="#7D83B2"/>
<path d="M263.826 17.625H256.696V23.5H263.826V17.625Z" fill="#7D83B2"/>
<path d="M270.956 17.625H263.826V23.5H270.956V17.625Z" fill="#7D83B2"/>
<path d="M278.087 17.625H270.957V23.5H278.087V17.625Z" fill="#7D83B2"/>
<path d="M285.217 17.625H278.087V23.5H285.217V17.625Z" fill="#7D83B2"/>
<path d="M292.348 17.625H285.217V23.5H292.348V17.625Z" fill="#7D83B2"/>
<path d="M299.478 17.625H292.348V23.5H299.478V17.625Z" fill="#7D83B2"/>
<path d="M306.609 17.625H299.478V23.5H306.609V17.625Z" fill="#7D83B2"/>
<path d="M313.739 17.625H306.609V23.5H313.739V17.625Z" fill="#7D83B2"/>
<path d="M320.87 17.625H313.739V23.5H320.87V17.625Z" fill="#CBDBFC"/>
<path d="M328 17.625H320.87V23.5H328V17.625Z" fill="black"/>
<path d="M7.13043 23.5H0V29.375H7.13043V23.5Z" fill="black"/>
<path d="M14.2609 23.5H7.13043V29.375H14.2609V23.5Z" fill="#7D83B2"/>
<path d="M21.3913 23.5H14.2609V29.375H21.3913V23.5Z" fill="#7D83B2"/>
<path d="M28.5217 23.5H21.3913V29.375H28.5217V23.5Z" fill="#7D83B2"/>
<path d="M35.6522 23.5H28.5217V29.375H35.6522V23.5Z" fill="#7D83B2"/>
<path d="M42.7826 23.5H35.6522V29.375H42.7826V23.5Z" fill="#7D83B2"/>
<path d="M49.9131 23.5H42.7826V29.375H49.9131V23.5Z" fill="#7D83B2"/>
<path d="M57.0435 23.5H49.913V29.375H57.0435V23.5Z" fill="#7D83B2"/>
<path d="M64.1739 23.5H57.0435V29.375H64.1739V23.5Z" fill="#7D83B2"/>
<path d="M71.3044 23.5H64.1739V29.375H71.3044V23.5Z" fill="#7D83B2"/>
<path d="M78.4348 23.5H71.3043V29.375H78.4348V23.5Z" fill="#7D83B2"/>
<path d="M85.5652 23.5H78.4348V29.375H85.5652V23.5Z" fill="#7D83B2"/>
<path d="M92.6957 23.5H85.5652V29.375H92.6957V23.5Z" fill="#7D83B2"/>
<path d="M99.8261 23.5H92.6956V29.375H99.8261V23.5Z" fill="#7D83B2"/>
<path d="M106.956 23.5H99.826V29.375H106.956V23.5Z" fill="#7D83B2"/>
<path d="M114.087 23.5H106.957V29.375H114.087V23.5Z" fill="#7D83B2"/>
<path d="M121.217 23.5H114.087V29.375H121.217V23.5Z" fill="#7D83B2"/>
<path d="M128.348 23.5H121.217V29.375H128.348V23.5Z" fill="#7D83B2"/>
<path d="M135.478 23.5H128.348V29.375H135.478V23.5Z" fill="#7D83B2"/>
<path d="M142.609 23.5H135.478V29.375H142.609V23.5Z" fill="#7D83B2"/>
<path d="M149.739 23.5H142.609V29.375H149.739V23.5Z" fill="#7D83B2"/>
<path d="M156.87 23.5H149.739V29.375H156.87V23.5Z" fill="#7D83B2"/>
<path d="M164 23.5H156.87V29.375H164V23.5Z" fill="#7D83B2"/>
<path d="M171.13 23.5H164V29.375H171.13V23.5Z" fill="#7D83B2"/>
<path d="M178.261 23.5H171.13V29.375H178.261V23.5Z" fill="#7D83B2"/>
<path d="M185.391 23.5H178.261V29.375H185.391V23.5Z" fill="#7D83B2"/>
<path d="M192.522 23.5H185.391V29.375H192.522V23.5Z" fill="#7D83B2"/>
<path d="M199.652 23.5H192.522V29.375H199.652V23.5Z" fill="#7D83B2"/>
<path d="M206.783 23.5H199.652V29.375H206.783V23.5Z" fill="#7D83B2"/>
<path d="M213.913 23.5H206.783V29.375H213.913V23.5Z" fill="#7D83B2"/>
<path d="M221.043 23.5H213.913V29.375H221.043V23.5Z" fill="#7D83B2"/>
<path d="M228.174 23.5H221.043V29.375H228.174V23.5Z" fill="#7D83B2"/>
<path d="M235.304 23.5H228.174V29.375H235.304V23.5Z" fill="#7D83B2"/>
<path d="M242.435 23.5H235.304V29.375H242.435V23.5Z" fill="#7D83B2"/>
<path d="M249.565 23.5H242.435V29.375H249.565V23.5Z" fill="#7D83B2"/>
<path d="M256.696 23.5H249.565V29.375H256.696V23.5Z" fill="#7D83B2"/>
<path d="M263.826 23.5H256.696V29.375H263.826V23.5Z" fill="#7D83B2"/>
<path d="M270.956 23.5H263.826V29.375H270.956V23.5Z" fill="#7D83B2"/>
<path d="M278.087 23.5H270.957V29.375H278.087V23.5Z" fill="#7D83B2"/>
<path d="M285.217 23.5H278.087V29.375H285.217V23.5Z" fill="#7D83B2"/>
<path d="M292.348 23.5H285.217V29.375H292.348V23.5Z" fill="#7D83B2"/>
<path d="M299.478 23.5H292.348V29.375H299.478V23.5Z" fill="#7D83B2"/>
<path d="M306.609 23.5H299.478V29.375H306.609V23.5Z" fill="#7D83B2"/>
<path d="M313.739 23.5H306.609V29.375H313.739V23.5Z" fill="#7D83B2"/>
<path d="M320.87 23.5H313.739V29.375H320.87V23.5Z" fill="#CBDBFC"/>
<path d="M328 23.5H320.87V29.375H328V23.5Z" fill="black"/>
<path d="M7.13043 29.375H0V35.25H7.13043V29.375Z" fill="black"/>
<path d="M14.2609 29.375H7.13043V35.25H14.2609V29.375Z" fill="#7D83B2"/>
<path d="M21.3913 29.375H14.2609V35.25H21.3913V29.375Z" fill="#7D83B2"/>
<path d="M28.5217 29.375H21.3913V35.25H28.5217V29.375Z" fill="#7D83B2"/>
<path d="M35.6522 29.375H28.5217V35.25H35.6522V29.375Z" fill="#7D83B2"/>
<path d="M42.7826 29.375H35.6522V35.25H42.7826V29.375Z" fill="#7D83B2"/>
<path d="M49.9131 29.375H42.7826V35.25H49.9131V29.375Z" fill="#7D83B2"/>
<path d="M57.0435 29.375H49.913V35.25H57.0435V29.375Z" fill="#7D83B2"/>
<path d="M64.1739 29.375H57.0435V35.25H64.1739V29.375Z" fill="#7D83B2"/>
<path d="M71.3044 29.375H64.1739V35.25H71.3044V29.375Z" fill="#7D83B2"/>
<path d="M78.4348 29.375H71.3043V35.25H78.4348V29.375Z" fill="#7D83B2"/>
<path d="M85.5652 29.375H78.4348V35.25H85.5652V29.375Z" fill="#7D83B2"/>
<path d="M92.6957 29.375H85.5652V35.25H92.6957V29.375Z" fill="#7D83B2"/>
<path d="M99.8261 29.375H92.6956V35.25H99.8261V29.375Z" fill="#7D83B2"/>
<path d="M106.956 29.375H99.826V35.25H106.956V29.375Z" fill="#7D83B2"/>
<path d="M114.087 29.375H106.957V35.25H114.087V29.375Z" fill="#7D83B2"/>
<path d="M121.217 29.375H114.087V35.25H121.217V29.375Z" fill="#7D83B2"/>
<path d="M128.348 29.375H121.217V35.25H128.348V29.375Z" fill="#7D83B2"/>
<path d="M135.478 29.375H128.348V35.25H135.478V29.375Z" fill="#7D83B2"/>
<path d="M142.609 29.375H135.478V35.25H142.609V29.375Z" fill="#7D83B2"/>
<path d="M149.739 29.375H142.609V35.25H149.739V29.375Z" fill="#7D83B2"/>
<path d="M156.87 29.375H149.739V35.25H156.87V29.375Z" fill="#7D83B2"/>
<path d="M164 29.375H156.87V35.25H164V29.375Z" fill="#7D83B2"/>
<path d="M171.13 29.375H164V35.25H171.13V29.375Z" fill="#7D83B2"/>
<path d="M178.261 29.375H171.13V35.25H178.261V29.375Z" fill="#7D83B2"/>
<path d="M185.391 29.375H178.261V35.25H185.391V29.375Z" fill="#7D83B2"/>
<path d="M192.522 29.375H185.391V35.25H192.522V29.375Z" fill="#7D83B2"/>
<path d="M199.652 29.375H192.522V35.25H199.652V29.375Z" fill="#7D83B2"/>
<path d="M206.783 29.375H199.652V35.25H206.783V29.375Z" fill="#7D83B2"/>
<path d="M213.913 29.375H206.783V35.25H213.913V29.375Z" fill="#7D83B2"/>
<path d="M221.043 29.375H213.913V35.25H221.043V29.375Z" fill="#7D83B2"/>
<path d="M228.174 29.375H221.043V35.25H228.174V29.375Z" fill="#7D83B2"/>
<path d="M235.304 29.375H228.174V35.25H235.304V29.375Z" fill="#7D83B2"/>
<path d="M242.435 29.375H235.304V35.25H242.435V29.375Z" fill="#7D83B2"/>
<path d="M249.565 29.375H242.435V35.25H249.565V29.375Z" fill="#7D83B2"/>
<path d="M256.696 29.375H249.565V35.25H256.696V29.375Z" fill="#7D83B2"/>
<path d="M263.826 29.375H256.696V35.25H263.826V29.375Z" fill="#7D83B2"/>
<path d="M270.956 29.375H263.826V35.25H270.956V29.375Z" fill="#7D83B2"/>
<path d="M278.087 29.375H270.957V35.25H278.087V29.375Z" fill="#7D83B2"/>
<path d="M285.217 29.375H278.087V35.25H285.217V29.375Z" fill="#7D83B2"/>
<path d="M292.348 29.375H285.217V35.25H292.348V29.375Z" fill="#7D83B2"/>
<path d="M299.478 29.375H292.348V35.25H299.478V29.375Z" fill="#7D83B2"/>
<path d="M306.609 29.375H299.478V35.25H306.609V29.375Z" fill="#7D83B2"/>
<path d="M313.739 29.375H306.609V35.25H313.739V29.375Z" fill="#7D83B2"/>
<path d="M320.87 29.375H313.739V35.25H320.87V29.375Z" fill="#CBDBFC"/>
<path d="M328 29.375H320.87V35.25H328V29.375Z" fill="black"/>
<path d="M7.13043 35.25H0V41.125H7.13043V35.25Z" fill="black"/>
<path d="M14.2609 35.25H7.13043V41.125H14.2609V35.25Z" fill="#7D83B2"/>
<path d="M21.3913 35.25H14.2609V41.125H21.3913V35.25Z" fill="#7D83B2"/>
<path d="M28.5217 35.25H21.3913V41.125H28.5217V35.25Z" fill="#7D83B2"/>
<path d="M35.6522 35.25H28.5217V41.125H35.6522V35.25Z" fill="#7D83B2"/>
<path d="M42.7826 35.25H35.6522V41.125H42.7826V35.25Z" fill="#7D83B2"/>
<path d="M49.9131 35.25H42.7826V41.125H49.9131V35.25Z" fill="#7D83B2"/>
<path d="M57.0435 35.25H49.913V41.125H57.0435V35.25Z" fill="#7D83B2"/>
<path d="M64.1739 35.25H57.0435V41.125H64.1739V35.25Z" fill="#7D83B2"/>
<path d="M71.3044 35.25H64.1739V41.125H71.3044V35.25Z" fill="#7D83B2"/>
<path d="M78.4348 35.25H71.3043V41.125H78.4348V35.25Z" fill="#7D83B2"/>
<path d="M85.5652 35.25H78.4348V41.125H85.5652V35.25Z" fill="#7D83B2"/>
<path d="M92.6957 35.25H85.5652V41.125H92.6957V35.25Z" fill="#7D83B2"/>
<path d="M99.8261 35.25H92.6956V41.125H99.8261V35.25Z" fill="#7D83B2"/>
<path d="M106.956 35.25H99.826V41.125H106.956V35.25Z" fill="#7D83B2"/>
<path d="M114.087 35.25H106.957V41.125H114.087V35.25Z" fill="#7D83B2"/>
<path d="M121.217 35.25H114.087V41.125H121.217V35.25Z" fill="#7D83B2"/>
<path d="M128.348 35.25H121.217V41.125H128.348V35.25Z" fill="#7D83B2"/>
<path d="M135.478 35.25H128.348V41.125H135.478V35.25Z" fill="#7D83B2"/>
<path d="M142.609 35.25H135.478V41.125H142.609V35.25Z" fill="#7D83B2"/>
<path d="M149.739 35.25H142.609V41.125H149.739V35.25Z" fill="#7D83B2"/>
<path d="M156.87 35.25H149.739V41.125H156.87V35.25Z" fill="#7D83B2"/>
<path d="M164 35.25H156.87V41.125H164V35.25Z" fill="#7D83B2"/>
<path d="M171.13 35.25H164V41.125H171.13V35.25Z" fill="#7D83B2"/>
<path d="M178.261 35.25H171.13V41.125H178.261V35.25Z" fill="#7D83B2"/>
<path d="M185.391 35.25H178.261V41.125H185.391V35.25Z" fill="#7D83B2"/>
<path d="M192.522 35.25H185.391V41.125H192.522V35.25Z" fill="#7D83B2"/>
<path d="M199.652 35.25H192.522V41.125H199.652V35.25Z" fill="#7D83B2"/>
<path d="M206.783 35.25H199.652V41.125H206.783V35.25Z" fill="#7D83B2"/>
<path d="M213.913 35.25H206.783V41.125H213.913V35.25Z" fill="#7D83B2"/>
<path d="M221.043 35.25H213.913V41.125H221.043V35.25Z" fill="#7D83B2"/>
<path d="M228.174 35.25H221.043V41.125H228.174V35.25Z" fill="#7D83B2"/>
<path d="M235.304 35.25H228.174V41.125H235.304V35.25Z" fill="#7D83B2"/>
<path d="M242.435 35.25H235.304V41.125H242.435V35.25Z" fill="#7D83B2"/>
<path d="M249.565 35.25H242.435V41.125H249.565V35.25Z" fill="#7D83B2"/>
<path d="M256.696 35.25H249.565V41.125H256.696V35.25Z" fill="#7D83B2"/>
<path d="M263.826 35.25H256.696V41.125H263.826V35.25Z" fill="#7D83B2"/>
<path d="M270.956 35.25H263.826V41.125H270.956V35.25Z" fill="#7D83B2"/>
<path d="M278.087 35.25H270.957V41.125H278.087V35.25Z" fill="#7D83B2"/>
<path d="M285.217 35.25H278.087V41.125H285.217V35.25Z" fill="#7D83B2"/>
<path d="M292.348 35.25H285.217V41.125H292.348V35.25Z" fill="#7D83B2"/>
<path d="M299.478 35.25H292.348V41.125H299.478V35.25Z" fill="#7D83B2"/>
<path d="M306.609 35.25H299.478V41.125H306.609V35.25Z" fill="#7D83B2"/>
<path d="M313.739 35.25H306.609V41.125H313.739V35.25Z" fill="#7D83B2"/>
<path d="M320.87 35.25H313.739V41.125H320.87V35.25Z" fill="#CBDBFC"/>
<path d="M328 35.25H320.87V41.125H328V35.25Z" fill="black"/>
<path d="M7.13043 41.125H0V47H7.13043V41.125Z" fill="black"/>
<path d="M14.2609 41.125H7.13043V47H14.2609V41.125Z" fill="#7D83B2"/>
<path d="M21.3913 41.125H14.2609V47H21.3913V41.125Z" fill="#7D83B2"/>
<path d="M28.5217 41.125H21.3913V47H28.5217V41.125Z" fill="#7D83B2"/>
<path d="M35.6522 41.125H28.5217V47H35.6522V41.125Z" fill="#7D83B2"/>
<path d="M42.7826 41.125H35.6522V47H42.7826V41.125Z" fill="#7D83B2"/>
<path d="M49.9131 41.125H42.7826V47H49.9131V41.125Z" fill="#7D83B2"/>
<path d="M57.0435 41.125H49.913V47H57.0435V41.125Z" fill="#7D83B2"/>
<path d="M64.1739 41.125H57.0435V47H64.1739V41.125Z" fill="#7D83B2"/>
<path d="M71.3044 41.125H64.1739V47H71.3044V41.125Z" fill="#7D83B2"/>
<path d="M78.4348 41.125H71.3043V47H78.4348V41.125Z" fill="#7D83B2"/>
<path d="M85.5652 41.125H78.4348V47H85.5652V41.125Z" fill="#7D83B2"/>
<path d="M92.6957 41.125H85.5652V47H92.6957V41.125Z" fill="#7D83B2"/>
<path d="M99.8261 41.125H92.6956V47H99.8261V41.125Z" fill="#7D83B2"/>
<path d="M106.956 41.125H99.826V47H106.956V41.125Z" fill="#7D83B2"/>
<path d="M114.087 41.125H106.957V47H114.087V41.125Z" fill="#7D83B2"/>
<path d="M121.217 41.125H114.087V47H121.217V41.125Z" fill="#7D83B2"/>
<path d="M128.348 41.125H121.217V47H128.348V41.125Z" fill="#7D83B2"/>
<path d="M135.478 41.125H128.348V47H135.478V41.125Z" fill="#7D83B2"/>
<path d="M142.609 41.125H135.478V47H142.609V41.125Z" fill="#7D83B2"/>
<path d="M149.739 41.125H142.609V47H149.739V41.125Z" fill="#7D83B2"/>
<path d="M156.87 41.125H149.739V47H156.87V41.125Z" fill="#7D83B2"/>
<path d="M164 41.125H156.87V47H164V41.125Z" fill="#7D83B2"/>
<path d="M171.13 41.125H164V47H171.13V41.125Z" fill="#7D83B2"/>
<path d="M178.261 41.125H171.13V47H178.261V41.125Z" fill="#7D83B2"/>
<path d="M185.391 41.125H178.261V47H185.391V41.125Z" fill="#7D83B2"/>
<path d="M192.522 41.125H185.391V47H192.522V41.125Z" fill="#7D83B2"/>
<path d="M199.652 41.125H192.522V47H199.652V41.125Z" fill="#7D83B2"/>
<path d="M206.783 41.125H199.652V47H206.783V41.125Z" fill="#7D83B2"/>
<path d="M213.913 41.125H206.783V47H213.913V41.125Z" fill="#7D83B2"/>
<path d="M221.043 41.125H213.913V47H221.043V41.125Z" fill="#7D83B2"/>
<path d="M228.174 41.125H221.043V47H228.174V41.125Z" fill="#7D83B2"/>
<path d="M235.304 41.125H228.174V47H235.304V41.125Z" fill="#7D83B2"/>
<path d="M242.435 41.125H235.304V47H242.435V41.125Z" fill="#7D83B2"/>
<path d="M249.565 41.125H242.435V47H249.565V41.125Z" fill="#7D83B2"/>
<path d="M256.696 41.125H249.565V47H256.696V41.125Z" fill="#7D83B2"/>
<path d="M263.826 41.125H256.696V47H263.826V41.125Z" fill="#7D83B2"/>
<path d="M270.956 41.125H263.826V47H270.956V41.125Z" fill="#7D83B2"/>
<path d="M278.087 41.125H270.957V47H278.087V41.125Z" fill="#7D83B2"/>
<path d="M285.217 41.125H278.087V47H285.217V41.125Z" fill="#7D83B2"/>
<path d="M292.348 41.125H285.217V47H292.348V41.125Z" fill="#7D83B2"/>
<path d="M299.478 41.125H292.348V47H299.478V41.125Z" fill="#7D83B2"/>
<path d="M306.609 41.125H299.478V47H306.609V41.125Z" fill="#7D83B2"/>
<path d="M313.739 41.125H306.609V47H313.739V41.125Z" fill="#7D83B2"/>
<path d="M320.87 41.125H313.739V47H320.87V41.125Z" fill="#CBDBFC"/>
<path d="M328 41.125H320.87V47H328V41.125Z" fill="black"/>
<path d="M7.13043 47H0V52.875H7.13043V47Z" fill="black"/>
<path d="M14.2609 47H7.13043V52.875H14.2609V47Z" fill="#7D83B2"/>
<path d="M21.3913 47H14.2609V52.875H21.3913V47Z" fill="#7D83B2"/>
<path d="M28.5217 47H21.3913V52.875H28.5217V47Z" fill="#7D83B2"/>
<path d="M35.6522 47H28.5217V52.875H35.6522V47Z" fill="#7D83B2"/>
<path d="M42.7826 47H35.6522V52.875H42.7826V47Z" fill="#7D83B2"/>
<path d="M49.9131 47H42.7826V52.875H49.9131V47Z" fill="#7D83B2"/>
<path d="M57.0435 47H49.913V52.875H57.0435V47Z" fill="#7D83B2"/>
<path d="M64.1739 47H57.0435V52.875H64.1739V47Z" fill="#7D83B2"/>
<path d="M71.3044 47H64.1739V52.875H71.3044V47Z" fill="#7D83B2"/>
<path d="M78.4348 47H71.3043V52.875H78.4348V47Z" fill="#7D83B2"/>
<path d="M85.5652 47H78.4348V52.875H85.5652V47Z" fill="#7D83B2"/>
<path d="M92.6957 47H85.5652V52.875H92.6957V47Z" fill="#7D83B2"/>
<path d="M99.8261 47H92.6956V52.875H99.8261V47Z" fill="#7D83B2"/>
<path d="M106.956 47H99.826V52.875H106.956V47Z" fill="#7D83B2"/>
<path d="M114.087 47H106.957V52.875H114.087V47Z" fill="#7D83B2"/>
<path d="M121.217 47H114.087V52.875H121.217V47Z" fill="#7D83B2"/>
<path d="M128.348 47H121.217V52.875H128.348V47Z" fill="#7D83B2"/>
<path d="M135.478 47H128.348V52.875H135.478V47Z" fill="#7D83B2"/>
<path d="M142.609 47H135.478V52.875H142.609V47Z" fill="#7D83B2"/>
<path d="M149.739 47H142.609V52.875H149.739V47Z" fill="#7D83B2"/>
<path d="M156.87 47H149.739V52.875H156.87V47Z" fill="#7D83B2"/>
<path d="M164 47H156.87V52.875H164V47Z" fill="#7D83B2"/>
<path d="M171.13 47H164V52.875H171.13V47Z" fill="#7D83B2"/>
<path d="M178.261 47H171.13V52.875H178.261V47Z" fill="#7D83B2"/>
<path d="M185.391 47H178.261V52.875H185.391V47Z" fill="#7D83B2"/>
<path d="M192.522 47H185.391V52.875H192.522V47Z" fill="#7D83B2"/>
<path d="M199.652 47H192.522V52.875H199.652V47Z" fill="#7D83B2"/>
<path d="M206.783 47H199.652V52.875H206.783V47Z" fill="#7D83B2"/>
<path d="M213.913 47H206.783V52.875H213.913V47Z" fill="#7D83B2"/>
<path d="M221.043 47H213.913V52.875H221.043V47Z" fill="#7D83B2"/>
<path d="M228.174 47H221.043V52.875H228.174V47Z" fill="#7D83B2"/>
<path d="M235.304 47H228.174V52.875H235.304V47Z" fill="#7D83B2"/>
<path d="M242.435 47H235.304V52.875H242.435V47Z" fill="#7D83B2"/>
<path d="M249.565 47H242.435V52.875H249.565V47Z" fill="#7D83B2"/>
<path d="M256.696 47H249.565V52.875H256.696V47Z" fill="#7D83B2"/>
<path d="M263.826 47H256.696V52.875H263.826V47Z" fill="#7D83B2"/>
<path d="M270.956 47H263.826V52.875H270.956V47Z" fill="#7D83B2"/>
<path d="M278.087 47H270.957V52.875H278.087V47Z" fill="#7D83B2"/>
<path d="M285.217 47H278.087V52.875H285.217V47Z" fill="#7D83B2"/>
<path d="M292.348 47H285.217V52.875H292.348V47Z" fill="#7D83B2"/>
<path d="M299.478 47H292.348V52.875H299.478V47Z" fill="#7D83B2"/>
<path d="M306.609 47H299.478V52.875H306.609V47Z" fill="#7D83B2"/>
<path d="M313.739 47H306.609V52.875H313.739V47Z" fill="#7D83B2"/>
<path d="M320.87 47H313.739V52.875H320.87V47Z" fill="#CBDBFC"/>
<path d="M328 47H320.87V52.875H328V47Z" fill="black"/>
<path d="M7.13043 52.875H0V58.75H7.13043V52.875Z" fill="black"/>
<path d="M14.2609 52.875H7.13043V58.75H14.2609V52.875Z" fill="#7D83B2"/>
<path d="M21.3913 52.875H14.2609V58.75H21.3913V52.875Z" fill="#7D83B2"/>
<path d="M28.5217 52.875H21.3913V58.75H28.5217V52.875Z" fill="#7D83B2"/>
<path d="M35.6522 52.875H28.5217V58.75H35.6522V52.875Z" fill="#7D83B2"/>
<path d="M42.7826 52.875H35.6522V58.75H42.7826V52.875Z" fill="#7D83B2"/>
<path d="M49.9131 52.875H42.7826V58.75H49.9131V52.875Z" fill="#7D83B2"/>
<path d="M57.0435 52.875H49.913V58.75H57.0435V52.875Z" fill="#7D83B2"/>
<path d="M64.1739 52.875H57.0435V58.75H64.1739V52.875Z" fill="#7D83B2"/>
<path d="M71.3044 52.875H64.1739V58.75H71.3044V52.875Z" fill="#7D83B2"/>
<path d="M78.4348 52.875H71.3043V58.75H78.4348V52.875Z" fill="#7D83B2"/>
<path d="M85.5652 52.875H78.4348V58.75H85.5652V52.875Z" fill="#7D83B2"/>
<path d="M92.6957 52.875H85.5652V58.75H92.6957V52.875Z" fill="#7D83B2"/>
<path d="M99.8261 52.875H92.6956V58.75H99.8261V52.875Z" fill="#7D83B2"/>
<path d="M106.956 52.875H99.826V58.75H106.956V52.875Z" fill="#7D83B2"/>
<path d="M114.087 52.875H106.957V58.75H114.087V52.875Z" fill="#7D83B2"/>
<path d="M121.217 52.875H114.087V58.75H121.217V52.875Z" fill="#7D83B2"/>
<path d="M128.348 52.875H121.217V58.75H128.348V52.875Z" fill="#7D83B2"/>
<path d="M135.478 52.875H128.348V58.75H135.478V52.875Z" fill="#7D83B2"/>
<path d="M142.609 52.875H135.478V58.75H142.609V52.875Z" fill="#7D83B2"/>
<path d="M149.739 52.875H142.609V58.75H149.739V52.875Z" fill="#7D83B2"/>
<path d="M156.87 52.875H149.739V58.75H156.87V52.875Z" fill="#7D83B2"/>
<path d="M164 52.875H156.87V58.75H164V52.875Z" fill="#7D83B2"/>
<path d="M171.13 52.875H164V58.75H171.13V52.875Z" fill="#7D83B2"/>
<path d="M178.261 52.875H171.13V58.75H178.261V52.875Z" fill="#7D83B2"/>
<path d="M185.391 52.875H178.261V58.75H185.391V52.875Z" fill="#7D83B2"/>
<path d="M192.522 52.875H185.391V58.75H192.522V52.875Z" fill="#7D83B2"/>
<path d="M199.652 52.875H192.522V58.75H199.652V52.875Z" fill="#7D83B2"/>
<path d="M206.783 52.875H199.652V58.75H206.783V52.875Z" fill="#7D83B2"/>
<path d="M213.913 52.875H206.783V58.75H213.913V52.875Z" fill="#7D83B2"/>
<path d="M221.043 52.875H213.913V58.75H221.043V52.875Z" fill="#7D83B2"/>
<path d="M228.174 52.875H221.043V58.75H228.174V52.875Z" fill="#7D83B2"/>
<path d="M235.304 52.875H228.174V58.75H235.304V52.875Z" fill="#7D83B2"/>
<path d="M242.435 52.875H235.304V58.75H242.435V52.875Z" fill="#7D83B2"/>
<path d="M249.565 52.875H242.435V58.75H249.565V52.875Z" fill="#7D83B2"/>
<path d="M256.696 52.875H249.565V58.75H256.696V52.875Z" fill="#7D83B2"/>
<path d="M263.826 52.875H256.696V58.75H263.826V52.875Z" fill="#7D83B2"/>
<path d="M270.956 52.875H263.826V58.75H270.956V52.875Z" fill="#7D83B2"/>
<path d="M278.087 52.875H270.957V58.75H278.087V52.875Z" fill="#7D83B2"/>
<path d="M285.217 52.875H278.087V58.75H285.217V52.875Z" fill="#7D83B2"/>
<path d="M292.348 52.875H285.217V58.75H292.348V52.875Z" fill="#7D83B2"/>
<path d="M299.478 52.875H292.348V58.75H299.478V52.875Z" fill="#7D83B2"/>
<path d="M306.609 52.875H299.478V58.75H306.609V52.875Z" fill="#7D83B2"/>
<path d="M313.739 52.875H306.609V58.75H313.739V52.875Z" fill="#7D83B2"/>
<path d="M320.87 52.875H313.739V58.75H320.87V52.875Z" fill="#CBDBFC"/>
<path d="M328 52.875H320.87V58.75H328V52.875Z" fill="black"/>
<path d="M7.13043 58.75H0V64.625H7.13043V58.75Z" fill="black"/>
<path d="M14.2609 58.75H7.13043V64.625H14.2609V58.75Z" fill="#7D83B2"/>
<path d="M21.3913 58.75H14.2609V64.625H21.3913V58.75Z" fill="#7D83B2"/>
<path d="M28.5217 58.75H21.3913V64.625H28.5217V58.75Z" fill="#7D83B2"/>
<path d="M35.6522 58.75H28.5217V64.625H35.6522V58.75Z" fill="#7D83B2"/>
<path d="M42.7826 58.75H35.6522V64.625H42.7826V58.75Z" fill="#7D83B2"/>
<path d="M49.9131 58.75H42.7826V64.625H49.9131V58.75Z" fill="#7D83B2"/>
<path d="M57.0435 58.75H49.913V64.625H57.0435V58.75Z" fill="#7D83B2"/>
<path d="M64.1739 58.75H57.0435V64.625H64.1739V58.75Z" fill="#7D83B2"/>
<path d="M71.3044 58.75H64.1739V64.625H71.3044V58.75Z" fill="#7D83B2"/>
<path d="M78.4348 58.75H71.3043V64.625H78.4348V58.75Z" fill="#7D83B2"/>
<path d="M85.5652 58.75H78.4348V64.625H85.5652V58.75Z" fill="#7D83B2"/>
<path d="M92.6957 58.75H85.5652V64.625H92.6957V58.75Z" fill="#7D83B2"/>
<path d="M99.8261 58.75H92.6956V64.625H99.8261V58.75Z" fill="#7D83B2"/>
<path d="M106.956 58.75H99.826V64.625H106.956V58.75Z" fill="#7D83B2"/>
<path d="M114.087 58.75H106.957V64.625H114.087V58.75Z" fill="#7D83B2"/>
<path d="M121.217 58.75H114.087V64.625H121.217V58.75Z" fill="#7D83B2"/>
<path d="M128.348 58.75H121.217V64.625H128.348V58.75Z" fill="#7D83B2"/>
<path d="M135.478 58.75H128.348V64.625H135.478V58.75Z" fill="#7D83B2"/>
<path d="M142.609 58.75H135.478V64.625H142.609V58.75Z" fill="#7D83B2"/>
<path d="M149.739 58.75H142.609V64.625H149.739V58.75Z" fill="#7D83B2"/>
<path d="M156.87 58.75H149.739V64.625H156.87V58.75Z" fill="#7D83B2"/>
<path d="M164 58.75H156.87V64.625H164V58.75Z" fill="#7D83B2"/>
<path d="M171.13 58.75H164V64.625H171.13V58.75Z" fill="#7D83B2"/>
<path d="M178.261 58.75H171.13V64.625H178.261V58.75Z" fill="#7D83B2"/>
<path d="M185.391 58.75H178.261V64.625H185.391V58.75Z" fill="#7D83B2"/>
<path d="M192.522 58.75H185.391V64.625H192.522V58.75Z" fill="#7D83B2"/>
<path d="M199.652 58.75H192.522V64.625H199.652V58.75Z" fill="#7D83B2"/>
<path d="M206.783 58.75H199.652V64.625H206.783V58.75Z" fill="#7D83B2"/>
<path d="M213.913 58.75H206.783V64.625H213.913V58.75Z" fill="#7D83B2"/>
<path d="M221.043 58.75H213.913V64.625H221.043V58.75Z" fill="#7D83B2"/>
<path d="M228.174 58.75H221.043V64.625H228.174V58.75Z" fill="#7D83B2"/>
<path d="M235.304 58.75H228.174V64.625H235.304V58.75Z" fill="#7D83B2"/>
<path d="M242.435 58.75H235.304V64.625H242.435V58.75Z" fill="#7D83B2"/>
<path d="M249.565 58.75H242.435V64.625H249.565V58.75Z" fill="#7D83B2"/>
<path d="M256.696 58.75H249.565V64.625H256.696V58.75Z" fill="#7D83B2"/>
<path d="M263.826 58.75H256.696V64.625H263.826V58.75Z" fill="#7D83B2"/>
<path d="M270.956 58.75H263.826V64.625H270.956V58.75Z" fill="#7D83B2"/>
<path d="M278.087 58.75H270.957V64.625H278.087V58.75Z" fill="#7D83B2"/>
<path d="M285.217 58.75H278.087V64.625H285.217V58.75Z" fill="#7D83B2"/>
<path d="M292.348 58.75H285.217V64.625H292.348V58.75Z" fill="#7D83B2"/>
<path d="M299.478 58.75H292.348V64.625H299.478V58.75Z" fill="#7D83B2"/>
<path d="M306.609 58.75H299.478V64.625H306.609V58.75Z" fill="#7D83B2"/>
<path d="M313.739 58.75H306.609V64.625H313.739V58.75Z" fill="#7D83B2"/>
<path d="M320.87 58.75H313.739V64.625H320.87V58.75Z" fill="#CBDBFC"/>
<path d="M328 58.75H320.87V64.625H328V58.75Z" fill="black"/>
<path d="M7.13043 64.625H0V70.5H7.13043V64.625Z" fill="black"/>
<path d="M14.2609 64.625H7.13043V70.5H14.2609V64.625Z" fill="#7D83B2"/>
<path d="M21.3913 64.625H14.2609V70.5H21.3913V64.625Z" fill="#7D83B2"/>
<path d="M28.5217 64.625H21.3913V70.5H28.5217V64.625Z" fill="#7D83B2"/>
<path d="M35.6522 64.625H28.5217V70.5H35.6522V64.625Z" fill="#7D83B2"/>
<path d="M42.7826 64.625H35.6522V70.5H42.7826V64.625Z" fill="#7D83B2"/>
<path d="M49.9131 64.625H42.7826V70.5H49.9131V64.625Z" fill="#7D83B2"/>
<path d="M57.0435 64.625H49.913V70.5H57.0435V64.625Z" fill="#7D83B2"/>
<path d="M64.1739 64.625H57.0435V70.5H64.1739V64.625Z" fill="#7D83B2"/>
<path d="M71.3044 64.625H64.1739V70.5H71.3044V64.625Z" fill="#7D83B2"/>
<path d="M78.4348 64.625H71.3043V70.5H78.4348V64.625Z" fill="#7D83B2"/>
<path d="M85.5652 64.625H78.4348V70.5H85.5652V64.625Z" fill="#7D83B2"/>
<path d="M92.6957 64.625H85.5652V70.5H92.6957V64.625Z" fill="#7D83B2"/>
<path d="M99.8261 64.625H92.6956V70.5H99.8261V64.625Z" fill="#7D83B2"/>
<path d="M106.956 64.625H99.826V70.5H106.956V64.625Z" fill="#7D83B2"/>
<path d="M114.087 64.625H106.957V70.5H114.087V64.625Z" fill="#7D83B2"/>
<path d="M121.217 64.625H114.087V70.5H121.217V64.625Z" fill="#7D83B2"/>
<path d="M128.348 64.625H121.217V70.5H128.348V64.625Z" fill="#7D83B2"/>
<path d="M135.478 64.625H128.348V70.5H135.478V64.625Z" fill="#7D83B2"/>
<path d="M142.609 64.625H135.478V70.5H142.609V64.625Z" fill="#7D83B2"/>
<path d="M149.739 64.625H142.609V70.5H149.739V64.625Z" fill="#7D83B2"/>
<path d="M156.87 64.625H149.739V70.5H156.87V64.625Z" fill="#7D83B2"/>
<path d="M164 64.625H156.87V70.5H164V64.625Z" fill="#7D83B2"/>
<path d="M171.13 64.625H164V70.5H171.13V64.625Z" fill="#7D83B2"/>
<path d="M178.261 64.625H171.13V70.5H178.261V64.625Z" fill="#7D83B2"/>
<path d="M185.391 64.625H178.261V70.5H185.391V64.625Z" fill="#7D83B2"/>
<path d="M192.522 64.625H185.391V70.5H192.522V64.625Z" fill="#7D83B2"/>
<path d="M199.652 64.625H192.522V70.5H199.652V64.625Z" fill="#7D83B2"/>
<path d="M206.783 64.625H199.652V70.5H206.783V64.625Z" fill="#7D83B2"/>
<path d="M213.913 64.625H206.783V70.5H213.913V64.625Z" fill="#7D83B2"/>
<path d="M221.043 64.625H213.913V70.5H221.043V64.625Z" fill="#7D83B2"/>
<path d="M228.174 64.625H221.043V70.5H228.174V64.625Z" fill="#7D83B2"/>
<path d="M235.304 64.625H228.174V70.5H235.304V64.625Z" fill="#7D83B2"/>
<path d="M242.435 64.625H235.304V70.5H242.435V64.625Z" fill="#7D83B2"/>
<path d="M249.565 64.625H242.435V70.5H249.565V64.625Z" fill="#7D83B2"/>
<path d="M256.696 64.625H249.565V70.5H256.696V64.625Z" fill="#7D83B2"/>
<path d="M263.826 64.625H256.696V70.5H263.826V64.625Z" fill="#7D83B2"/>
<path d="M270.956 64.625H263.826V70.5H270.956V64.625Z" fill="#7D83B2"/>
<path d="M278.087 64.625H270.957V70.5H278.087V64.625Z" fill="#7D83B2"/>
<path d="M285.217 64.625H278.087V70.5H285.217V64.625Z" fill="#7D83B2"/>
<path d="M292.348 64.625H285.217V70.5H292.348V64.625Z" fill="#7D83B2"/>
<path d="M299.478 64.625H292.348V70.5H299.478V64.625Z" fill="#7D83B2"/>
<path d="M306.609 64.625H299.478V70.5H306.609V64.625Z" fill="#7D83B2"/>
<path d="M313.739 64.625H306.609V70.5H313.739V64.625Z" fill="#7D83B2"/>
<path d="M320.87 64.625H313.739V70.5H320.87V64.625Z" fill="#CBDBFC"/>
<path d="M328 64.625H320.87V70.5H328V64.625Z" fill="black"/>
<path d="M7.13043 70.5H0V76.375H7.13043V70.5Z" fill="black"/>
<path d="M14.2609 70.5H7.13043V76.375H14.2609V70.5Z" fill="#7D83B2"/>
<path d="M21.3913 70.5H14.2609V76.375H21.3913V70.5Z" fill="#7D83B2"/>
<path d="M28.5217 70.5H21.3913V76.375H28.5217V70.5Z" fill="#7D83B2"/>
<path d="M35.6522 70.5H28.5217V76.375H35.6522V70.5Z" fill="#7D83B2"/>
<path d="M42.7826 70.5H35.6522V76.375H42.7826V70.5Z" fill="#7D83B2"/>
<path d="M49.9131 70.5H42.7826V76.375H49.9131V70.5Z" fill="#7D83B2"/>
<path d="M57.0435 70.5H49.913V76.375H57.0435V70.5Z" fill="#7D83B2"/>
<path d="M64.1739 70.5H57.0435V76.375H64.1739V70.5Z" fill="#7D83B2"/>
<path d="M71.3044 70.5H64.1739V76.375H71.3044V70.5Z" fill="#7D83B2"/>
<path d="M78.4348 70.5H71.3043V76.375H78.4348V70.5Z" fill="#7D83B2"/>
<path d="M85.5652 70.5H78.4348V76.375H85.5652V70.5Z" fill="#7D83B2"/>
<path d="M92.6957 70.5H85.5652V76.375H92.6957V70.5Z" fill="#7D83B2"/>
<path d="M99.8261 70.5H92.6956V76.375H99.8261V70.5Z" fill="#7D83B2"/>
<path d="M106.956 70.5H99.826V76.375H106.956V70.5Z" fill="#7D83B2"/>
<path d="M114.087 70.5H106.957V76.375H114.087V70.5Z" fill="#7D83B2"/>
<path d="M121.217 70.5H114.087V76.375H121.217V70.5Z" fill="#7D83B2"/>
<path d="M128.348 70.5H121.217V76.375H128.348V70.5Z" fill="#7D83B2"/>
<path d="M135.478 70.5H128.348V76.375H135.478V70.5Z" fill="#7D83B2"/>
<path d="M142.609 70.5H135.478V76.375H142.609V70.5Z" fill="#7D83B2"/>
<path d="M149.739 70.5H142.609V76.375H149.739V70.5Z" fill="#7D83B2"/>
<path d="M156.87 70.5H149.739V76.375H156.87V70.5Z" fill="#7D83B2"/>
<path d="M164 70.5H156.87V76.375H164V70.5Z" fill="#7D83B2"/>
<path d="M171.13 70.5H164V76.375H171.13V70.5Z" fill="#7D83B2"/>
<path d="M178.261 70.5H171.13V76.375H178.261V70.5Z" fill="#7D83B2"/>
<path d="M185.391 70.5H178.261V76.375H185.391V70.5Z" fill="#7D83B2"/>
<path d="M192.522 70.5H185.391V76.375H192.522V70.5Z" fill="#7D83B2"/>
<path d="M199.652 70.5H192.522V76.375H199.652V70.5Z" fill="#7D83B2"/>
<path d="M206.783 70.5H199.652V76.375H206.783V70.5Z" fill="#7D83B2"/>
<path d="M213.913 70.5H206.783V76.375H213.913V70.5Z" fill="#7D83B2"/>
<path d="M221.043 70.5H213.913V76.375H221.043V70.5Z" fill="#7D83B2"/>
<path d="M228.174 70.5H221.043V76.375H228.174V70.5Z" fill="#7D83B2"/>
<path d="M235.304 70.5H228.174V76.375H235.304V70.5Z" fill="#7D83B2"/>
<path d="M242.435 70.5H235.304V76.375H242.435V70.5Z" fill="#7D83B2"/>
<path d="M249.565 70.5H242.435V76.375H249.565V70.5Z" fill="#7D83B2"/>
<path d="M256.696 70.5H249.565V76.375H256.696V70.5Z" fill="#7D83B2"/>
<path d="M263.826 70.5H256.696V76.375H263.826V70.5Z" fill="#7D83B2"/>
<path d="M270.956 70.5H263.826V76.375H270.956V70.5Z" fill="#7D83B2"/>
<path d="M278.087 70.5H270.957V76.375H278.087V70.5Z" fill="#7D83B2"/>
<path d="M285.217 70.5H278.087V76.375H285.217V70.5Z" fill="#7D83B2"/>
<path d="M292.348 70.5H285.217V76.375H292.348V70.5Z" fill="#7D83B2"/>
<path d="M299.478 70.5H292.348V76.375H299.478V70.5Z" fill="#7D83B2"/>
<path d="M306.609 70.5H299.478V76.375H306.609V70.5Z" fill="#7D83B2"/>
<path d="M313.739 70.5H306.609V76.375H313.739V70.5Z" fill="#7D83B2"/>
<path d="M320.87 70.5H313.739V76.375H320.87V70.5Z" fill="#CBDBFC"/>
<path d="M328 70.5H320.87V76.375H328V70.5Z" fill="black"/>
<path d="M7.13043 76.375H0V82.25H7.13043V76.375Z" fill="black"/>
<path d="M14.2609 76.375H7.13043V82.25H14.2609V76.375Z" fill="#7D83B2"/>
<path d="M21.3913 76.375H14.2609V82.25H21.3913V76.375Z" fill="#7D83B2"/>
<path d="M28.5217 76.375H21.3913V82.25H28.5217V76.375Z" fill="#7D83B2"/>
<path d="M35.6522 76.375H28.5217V82.25H35.6522V76.375Z" fill="#7D83B2"/>
<path d="M42.7826 76.375H35.6522V82.25H42.7826V76.375Z" fill="#7D83B2"/>
<path d="M49.9131 76.375H42.7826V82.25H49.9131V76.375Z" fill="#7D83B2"/>
<path d="M57.0435 76.375H49.913V82.25H57.0435V76.375Z" fill="#7D83B2"/>
<path d="M64.1739 76.375H57.0435V82.25H64.1739V76.375Z" fill="#7D83B2"/>
<path d="M71.3044 76.375H64.1739V82.25H71.3044V76.375Z" fill="#7D83B2"/>
<path d="M78.4348 76.375H71.3043V82.25H78.4348V76.375Z" fill="#7D83B2"/>
<path d="M85.5652 76.375H78.4348V82.25H85.5652V76.375Z" fill="#7D83B2"/>
<path d="M92.6957 76.375H85.5652V82.25H92.6957V76.375Z" fill="#7D83B2"/>
<path d="M99.8261 76.375H92.6956V82.25H99.8261V76.375Z" fill="#7D83B2"/>
<path d="M106.956 76.375H99.826V82.25H106.956V76.375Z" fill="#7D83B2"/>
<path d="M114.087 76.375H106.957V82.25H114.087V76.375Z" fill="#7D83B2"/>
<path d="M121.217 76.375H114.087V82.25H121.217V76.375Z" fill="#7D83B2"/>
<path d="M128.348 76.375H121.217V82.25H128.348V76.375Z" fill="#7D83B2"/>
<path d="M135.478 76.375H128.348V82.25H135.478V76.375Z" fill="#7D83B2"/>
<path d="M142.609 76.375H135.478V82.25H142.609V76.375Z" fill="#7D83B2"/>
<path d="M149.739 76.375H142.609V82.25H149.739V76.375Z" fill="#7D83B2"/>
<path d="M156.87 76.375H149.739V82.25H156.87V76.375Z" fill="#7D83B2"/>
<path d="M164 76.375H156.87V82.25H164V76.375Z" fill="#7D83B2"/>
<path d="M171.13 76.375H164V82.25H171.13V76.375Z" fill="#7D83B2"/>
<path d="M178.261 76.375H171.13V82.25H178.261V76.375Z" fill="#7D83B2"/>
<path d="M185.391 76.375H178.261V82.25H185.391V76.375Z" fill="#7D83B2"/>
<path d="M192.522 76.375H185.391V82.25H192.522V76.375Z" fill="#7D83B2"/>
<path d="M199.652 76.375H192.522V82.25H199.652V76.375Z" fill="#7D83B2"/>
<path d="M206.783 76.375H199.652V82.25H206.783V76.375Z" fill="#7D83B2"/>
<path d="M213.913 76.375H206.783V82.25H213.913V76.375Z" fill="#7D83B2"/>
<path d="M221.043 76.375H213.913V82.25H221.043V76.375Z" fill="#7D83B2"/>
<path d="M228.174 76.375H221.043V82.25H228.174V76.375Z" fill="#7D83B2"/>
<path d="M235.304 76.375H228.174V82.25H235.304V76.375Z" fill="#7D83B2"/>
<path d="M242.435 76.375H235.304V82.25H242.435V76.375Z" fill="#7D83B2"/>
<path d="M249.565 76.375H242.435V82.25H249.565V76.375Z" fill="#7D83B2"/>
<path d="M256.696 76.375H249.565V82.25H256.696V76.375Z" fill="#7D83B2"/>
<path d="M263.826 76.375H256.696V82.25H263.826V76.375Z" fill="#7D83B2"/>
<path d="M270.956 76.375H263.826V82.25H270.956V76.375Z" fill="#7D83B2"/>
<path d="M278.087 76.375H270.957V82.25H278.087V76.375Z" fill="#7D83B2"/>
<path d="M285.217 76.375H278.087V82.25H285.217V76.375Z" fill="#7D83B2"/>
<path d="M292.348 76.375H285.217V82.25H292.348V76.375Z" fill="#7D83B2"/>
<path d="M299.478 76.375H292.348V82.25H299.478V76.375Z" fill="#7D83B2"/>
<path d="M306.609 76.375H299.478V82.25H306.609V76.375Z" fill="#7D83B2"/>
<path d="M313.739 76.375H306.609V82.25H313.739V76.375Z" fill="#7D83B2"/>
<path d="M320.87 76.375H313.739V82.25H320.87V76.375Z" fill="#CBDBFC"/>
<path d="M328 76.375H320.87V82.25H328V76.375Z" fill="black"/>
<path d="M7.13043 82.25H0V88.125H7.13043V82.25Z" fill="black"/>
<path d="M14.2609 82.25H7.13043V88.125H14.2609V82.25Z" fill="#7D83B2"/>
<path d="M21.3913 82.25H14.2609V88.125H21.3913V82.25Z" fill="#7D83B2"/>
<path d="M28.5217 82.25H21.3913V88.125H28.5217V82.25Z" fill="#7D83B2"/>
<path d="M35.6522 82.25H28.5217V88.125H35.6522V82.25Z" fill="#7D83B2"/>
<path d="M42.7826 82.25H35.6522V88.125H42.7826V82.25Z" fill="#7D83B2"/>
<path d="M49.9131 82.25H42.7826V88.125H49.9131V82.25Z" fill="#7D83B2"/>
<path d="M57.0435 82.25H49.913V88.125H57.0435V82.25Z" fill="#7D83B2"/>
<path d="M64.1739 82.25H57.0435V88.125H64.1739V82.25Z" fill="#7D83B2"/>
<path d="M71.3044 82.25H64.1739V88.125H71.3044V82.25Z" fill="#7D83B2"/>
<path d="M78.4348 82.25H71.3043V88.125H78.4348V82.25Z" fill="#7D83B2"/>
<path d="M85.5652 82.25H78.4348V88.125H85.5652V82.25Z" fill="#7D83B2"/>
<path d="M92.6957 82.25H85.5652V88.125H92.6957V82.25Z" fill="#7D83B2"/>
<path d="M99.8261 82.25H92.6956V88.125H99.8261V82.25Z" fill="#7D83B2"/>
<path d="M106.956 82.25H99.826V88.125H106.956V82.25Z" fill="#7D83B2"/>
<path d="M114.087 82.25H106.957V88.125H114.087V82.25Z" fill="#7D83B2"/>
<path d="M121.217 82.25H114.087V88.125H121.217V82.25Z" fill="#7D83B2"/>
<path d="M128.348 82.25H121.217V88.125H128.348V82.25Z" fill="#7D83B2"/>
<path d="M135.478 82.25H128.348V88.125H135.478V82.25Z" fill="#7D83B2"/>
<path d="M142.609 82.25H135.478V88.125H142.609V82.25Z" fill="#7D83B2"/>
<path d="M149.739 82.25H142.609V88.125H149.739V82.25Z" fill="#7D83B2"/>
<path d="M156.87 82.25H149.739V88.125H156.87V82.25Z" fill="#7D83B2"/>
<path d="M164 82.25H156.87V88.125H164V82.25Z" fill="#7D83B2"/>
<path d="M171.13 82.25H164V88.125H171.13V82.25Z" fill="#7D83B2"/>
<path d="M178.261 82.25H171.13V88.125H178.261V82.25Z" fill="#7D83B2"/>
<path d="M185.391 82.25H178.261V88.125H185.391V82.25Z" fill="#7D83B2"/>
<path d="M192.522 82.25H185.391V88.125H192.522V82.25Z" fill="#7D83B2"/>
<path d="M199.652 82.25H192.522V88.125H199.652V82.25Z" fill="#7D83B2"/>
<path d="M206.783 82.25H199.652V88.125H206.783V82.25Z" fill="#7D83B2"/>
<path d="M213.913 82.25H206.783V88.125H213.913V82.25Z" fill="#7D83B2"/>
<path d="M221.043 82.25H213.913V88.125H221.043V82.25Z" fill="#7D83B2"/>
<path d="M228.174 82.25H221.043V88.125H228.174V82.25Z" fill="#7D83B2"/>
<path d="M235.304 82.25H228.174V88.125H235.304V82.25Z" fill="#7D83B2"/>
<path d="M242.435 82.25H235.304V88.125H242.435V82.25Z" fill="#7D83B2"/>
<path d="M249.565 82.25H242.435V88.125H249.565V82.25Z" fill="#7D83B2"/>
<path d="M256.696 82.25H249.565V88.125H256.696V82.25Z" fill="#7D83B2"/>
<path d="M263.826 82.25H256.696V88.125H263.826V82.25Z" fill="#7D83B2"/>
<path d="M270.956 82.25H263.826V88.125H270.956V82.25Z" fill="#7D83B2"/>
<path d="M278.087 82.25H270.957V88.125H278.087V82.25Z" fill="#7D83B2"/>
<path d="M285.217 82.25H278.087V88.125H285.217V82.25Z" fill="#7D83B2"/>
<path d="M292.348 82.25H285.217V88.125H292.348V82.25Z" fill="#7D83B2"/>
<path d="M299.478 82.25H292.348V88.125H299.478V82.25Z" fill="#7D83B2"/>
<path d="M306.609 82.25H299.478V88.125H306.609V82.25Z" fill="#7D83B2"/>
<path d="M313.739 82.25H306.609V88.125H313.739V82.25Z" fill="#7D83B2"/>
<path d="M320.87 82.25H313.739V88.125H320.87V82.25Z" fill="#CBDBFC"/>
<path d="M328 82.25H320.87V88.125H328V82.25Z" fill="black"/>
<path d="M7.13043 88.125H0V94H7.13043V88.125Z" fill="black"/>
<path d="M14.2609 88.125H7.13043V94H14.2609V88.125Z" fill="#7D83B2"/>
<path d="M21.3913 88.125H14.2609V94H21.3913V88.125Z" fill="#7D83B2"/>
<path d="M28.5217 88.125H21.3913V94H28.5217V88.125Z" fill="#7D83B2"/>
<path d="M35.6522 88.125H28.5217V94H35.6522V88.125Z" fill="#7D83B2"/>
<path d="M42.7826 88.125H35.6522V94H42.7826V88.125Z" fill="#7D83B2"/>
<path d="M49.9131 88.125H42.7826V94H49.9131V88.125Z" fill="#7D83B2"/>
<path d="M57.0435 88.125H49.913V94H57.0435V88.125Z" fill="#7D83B2"/>
<path d="M64.1739 88.125H57.0435V94H64.1739V88.125Z" fill="#7D83B2"/>
<path d="M71.3044 88.125H64.1739V94H71.3044V88.125Z" fill="#7D83B2"/>
<path d="M78.4348 88.125H71.3043V94H78.4348V88.125Z" fill="#7D83B2"/>
<path d="M85.5652 88.125H78.4348V94H85.5652V88.125Z" fill="#7D83B2"/>
<path d="M92.6957 88.125H85.5652V94H92.6957V88.125Z" fill="#7D83B2"/>
<path d="M99.8261 88.125H92.6956V94H99.8261V88.125Z" fill="#7D83B2"/>
<path d="M106.956 88.125H99.826V94H106.956V88.125Z" fill="#7D83B2"/>
<path d="M114.087 88.125H106.957V94H114.087V88.125Z" fill="#7D83B2"/>
<path d="M121.217 88.125H114.087V94H121.217V88.125Z" fill="#7D83B2"/>
<path d="M128.348 88.125H121.217V94H128.348V88.125Z" fill="#7D83B2"/>
<path d="M135.478 88.125H128.348V94H135.478V88.125Z" fill="#7D83B2"/>
<path d="M142.609 88.125H135.478V94H142.609V88.125Z" fill="#7D83B2"/>
<path d="M149.739 88.125H142.609V94H149.739V88.125Z" fill="#7D83B2"/>
<path d="M156.87 88.125H149.739V94H156.87V88.125Z" fill="#7D83B2"/>
<path d="M164 88.125H156.87V94H164V88.125Z" fill="#7D83B2"/>
<path d="M171.13 88.125H164V94H171.13V88.125Z" fill="#7D83B2"/>
<path d="M178.261 88.125H171.13V94H178.261V88.125Z" fill="#7D83B2"/>
<path d="M185.391 88.125H178.261V94H185.391V88.125Z" fill="#7D83B2"/>
<path d="M192.522 88.125H185.391V94H192.522V88.125Z" fill="#7D83B2"/>
<path d="M199.652 88.125H192.522V94H199.652V88.125Z" fill="#7D83B2"/>
<path d="M206.783 88.125H199.652V94H206.783V88.125Z" fill="#7D83B2"/>
<path d="M213.913 88.125H206.783V94H213.913V88.125Z" fill="#7D83B2"/>
<path d="M221.043 88.125H213.913V94H221.043V88.125Z" fill="#7D83B2"/>
<path d="M228.174 88.125H221.043V94H228.174V88.125Z" fill="#7D83B2"/>
<path d="M235.304 88.125H228.174V94H235.304V88.125Z" fill="#7D83B2"/>
<path d="M242.435 88.125H235.304V94H242.435V88.125Z" fill="#7D83B2"/>
<path d="M249.565 88.125H242.435V94H249.565V88.125Z" fill="#7D83B2"/>
<path d="M256.696 88.125H249.565V94H256.696V88.125Z" fill="#7D83B2"/>
<path d="M263.826 88.125H256.696V94H263.826V88.125Z" fill="#7D83B2"/>
<path d="M270.956 88.125H263.826V94H270.956V88.125Z" fill="#7D83B2"/>
<path d="M278.087 88.125H270.957V94H278.087V88.125Z" fill="#7D83B2"/>
<path d="M285.217 88.125H278.087V94H285.217V88.125Z" fill="#7D83B2"/>
<path d="M292.348 88.125H285.217V94H292.348V88.125Z" fill="#7D83B2"/>
<path d="M299.478 88.125H292.348V94H299.478V88.125Z" fill="#7D83B2"/>
<path d="M306.609 88.125H299.478V94H306.609V88.125Z" fill="#7D83B2"/>
<path d="M313.739 88.125H306.609V94H313.739V88.125Z" fill="#7D83B2"/>
<path d="M320.87 88.125H313.739V94H320.87V88.125Z" fill="#CBDBFC"/>
<path d="M328 88.125H320.87V94H328V88.125Z" fill="black"/>
<path d="M7.13043 94H0V99.875H7.13043V94Z" fill="black"/>
<path d="M14.2609 94H7.13043V99.875H14.2609V94Z" fill="#7D83B2"/>
<path d="M21.3913 94H14.2609V99.875H21.3913V94Z" fill="#7D83B2"/>
<path d="M28.5217 94H21.3913V99.875H28.5217V94Z" fill="#7D83B2"/>
<path d="M35.6522 94H28.5217V99.875H35.6522V94Z" fill="#7D83B2"/>
<path d="M42.7826 94H35.6522V99.875H42.7826V94Z" fill="#7D83B2"/>
<path d="M49.9131 94H42.7826V99.875H49.9131V94Z" fill="#7D83B2"/>
<path d="M57.0435 94H49.913V99.875H57.0435V94Z" fill="#7D83B2"/>
<path d="M64.1739 94H57.0435V99.875H64.1739V94Z" fill="#7D83B2"/>
<path d="M71.3044 94H64.1739V99.875H71.3044V94Z" fill="#7D83B2"/>
<path d="M78.4348 94H71.3043V99.875H78.4348V94Z" fill="#7D83B2"/>
<path d="M85.5652 94H78.4348V99.875H85.5652V94Z" fill="#7D83B2"/>
<path d="M92.6957 94H85.5652V99.875H92.6957V94Z" fill="#7D83B2"/>
<path d="M99.8261 94H92.6956V99.875H99.8261V94Z" fill="#7D83B2"/>
<path d="M106.956 94H99.826V99.875H106.956V94Z" fill="#7D83B2"/>
<path d="M114.087 94H106.957V99.875H114.087V94Z" fill="#7D83B2"/>
<path d="M121.217 94H114.087V99.875H121.217V94Z" fill="#7D83B2"/>
<path d="M128.348 94H121.217V99.875H128.348V94Z" fill="#7D83B2"/>
<path d="M135.478 94H128.348V99.875H135.478V94Z" fill="#7D83B2"/>
<path d="M142.609 94H135.478V99.875H142.609V94Z" fill="#7D83B2"/>
<path d="M149.739 94H142.609V99.875H149.739V94Z" fill="#7D83B2"/>
<path d="M156.87 94H149.739V99.875H156.87V94Z" fill="#7D83B2"/>
<path d="M164 94H156.87V99.875H164V94Z" fill="#7D83B2"/>
<path d="M171.13 94H164V99.875H171.13V94Z" fill="#7D83B2"/>
<path d="M178.261 94H171.13V99.875H178.261V94Z" fill="#7D83B2"/>
<path d="M185.391 94H178.261V99.875H185.391V94Z" fill="#7D83B2"/>
<path d="M192.522 94H185.391V99.875H192.522V94Z" fill="#7D83B2"/>
<path d="M199.652 94H192.522V99.875H199.652V94Z" fill="#7D83B2"/>
<path d="M206.783 94H199.652V99.875H206.783V94Z" fill="#7D83B2"/>
<path d="M213.913 94H206.783V99.875H213.913V94Z" fill="#7D83B2"/>
<path d="M221.043 94H213.913V99.875H221.043V94Z" fill="#7D83B2"/>
<path d="M228.174 94H221.043V99.875H228.174V94Z" fill="#7D83B2"/>
<path d="M235.304 94H228.174V99.875H235.304V94Z" fill="#7D83B2"/>
<path d="M242.435 94H235.304V99.875H242.435V94Z" fill="#7D83B2"/>
<path d="M249.565 94H242.435V99.875H249.565V94Z" fill="#7D83B2"/>
<path d="M256.696 94H249.565V99.875H256.696V94Z" fill="#7D83B2"/>
<path d="M263.826 94H256.696V99.875H263.826V94Z" fill="#7D83B2"/>
<path d="M270.956 94H263.826V99.875H270.956V94Z" fill="#7D83B2"/>
<path d="M278.087 94H270.957V99.875H278.087V94Z" fill="#7D83B2"/>
<path d="M285.217 94H278.087V99.875H285.217V94Z" fill="#7D83B2"/>
<path d="M292.348 94H285.217V99.875H292.348V94Z" fill="#7D83B2"/>
<path d="M299.478 94H292.348V99.875H299.478V94Z" fill="#7D83B2"/>
<path d="M306.609 94H299.478V99.875H306.609V94Z" fill="#7D83B2"/>
<path d="M313.739 94H306.609V99.875H313.739V94Z" fill="#7D83B2"/>
<path d="M320.87 94H313.739V99.875H320.87V94Z" fill="#CBDBFC"/>
<path d="M328 94H320.87V99.875H328V94Z" fill="black"/>
<path d="M7.13043 99.875H0V105.75H7.13043V99.875Z" fill="black"/>
<path d="M14.2609 99.875H7.13043V105.75H14.2609V99.875Z" fill="#4C539B"/>
<path d="M21.3913 99.875H14.2609V105.75H21.3913V99.875Z" fill="#CBDBFC"/>
<path d="M28.5217 99.875H21.3913V105.75H28.5217V99.875Z" fill="#7D83B2"/>
<path d="M35.6522 99.875H28.5217V105.75H35.6522V99.875Z" fill="#7D83B2"/>
<path d="M42.7826 99.875H35.6522V105.75H42.7826V99.875Z" fill="#7D83B2"/>
<path d="M49.9131 99.875H42.7826V105.75H49.9131V99.875Z" fill="#7D83B2"/>
<path d="M57.0435 99.875H49.913V105.75H57.0435V99.875Z" fill="#7D83B2"/>
<path d="M64.1739 99.875H57.0435V105.75H64.1739V99.875Z" fill="#7D83B2"/>
<path d="M71.3044 99.875H64.1739V105.75H71.3044V99.875Z" fill="#7D83B2"/>
<path d="M78.4348 99.875H71.3043V105.75H78.4348V99.875Z" fill="#7D83B2"/>
<path d="M85.5652 99.875H78.4348V105.75H85.5652V99.875Z" fill="#7D83B2"/>
<path d="M92.6957 99.875H85.5652V105.75H92.6957V99.875Z" fill="#7D83B2"/>
<path d="M99.8261 99.875H92.6956V105.75H99.8261V99.875Z" fill="#7D83B2"/>
<path d="M106.956 99.875H99.826V105.75H106.956V99.875Z" fill="#7D83B2"/>
<path d="M114.087 99.875H106.957V105.75H114.087V99.875Z" fill="#7D83B2"/>
<path d="M121.217 99.875H114.087V105.75H121.217V99.875Z" fill="#7D83B2"/>
<path d="M128.348 99.875H121.217V105.75H128.348V99.875Z" fill="#7D83B2"/>
<path d="M135.478 99.875H128.348V105.75H135.478V99.875Z" fill="#7D83B2"/>
<path d="M142.609 99.875H135.478V105.75H142.609V99.875Z" fill="#7D83B2"/>
<path d="M149.739 99.875H142.609V105.75H149.739V99.875Z" fill="#7D83B2"/>
<path d="M156.87 99.875H149.739V105.75H156.87V99.875Z" fill="#7D83B2"/>
<path d="M164 99.875H156.87V105.75H164V99.875Z" fill="#7D83B2"/>
<path d="M171.13 99.875H164V105.75H171.13V99.875Z" fill="#7D83B2"/>
<path d="M178.261 99.875H171.13V105.75H178.261V99.875Z" fill="#7D83B2"/>
<path d="M185.391 99.875H178.261V105.75H185.391V99.875Z" fill="#7D83B2"/>
<path d="M192.522 99.875H185.391V105.75H192.522V99.875Z" fill="#7D83B2"/>
<path d="M199.652 99.875H192.522V105.75H199.652V99.875Z" fill="#7D83B2"/>
<path d="M206.783 99.875H199.652V105.75H206.783V99.875Z" fill="#7D83B2"/>
<path d="M213.913 99.875H206.783V105.75H213.913V99.875Z" fill="#7D83B2"/>
<path d="M221.043 99.875H213.913V105.75H221.043V99.875Z" fill="#7D83B2"/>
<path d="M228.174 99.875H221.043V105.75H228.174V99.875Z" fill="#7D83B2"/>
<path d="M235.304 99.875H228.174V105.75H235.304V99.875Z" fill="#7D83B2"/>
<path d="M242.435 99.875H235.304V105.75H242.435V99.875Z" fill="#7D83B2"/>
<path d="M249.565 99.875H242.435V105.75H249.565V99.875Z" fill="#7D83B2"/>
<path d="M256.696 99.875H249.565V105.75H256.696V99.875Z" fill="#7D83B2"/>
<path d="M263.826 99.875H256.696V105.75H263.826V99.875Z" fill="#7D83B2"/>
<path d="M270.956 99.875H263.826V105.75H270.956V99.875Z" fill="#7D83B2"/>
<path d="M278.087 99.875H270.957V105.75H278.087V99.875Z" fill="#7D83B2"/>
<path d="M285.217 99.875H278.087V105.75H285.217V99.875Z" fill="#7D83B2"/>
<path d="M292.348 99.875H285.217V105.75H292.348V99.875Z" fill="#7D83B2"/>
<path d="M299.478 99.875H292.348V105.75H299.478V99.875Z" fill="#7D83B2"/>
<path d="M306.609 99.875H299.478V105.75H306.609V99.875Z" fill="#7D83B2"/>
<path d="M313.739 99.875H306.609V105.75H313.739V99.875Z" fill="#CBDBFC"/>
<path d="M320.87 99.875H313.739V105.75H320.87V99.875Z" fill="#4C539B"/>
<path d="M328 99.875H320.87V105.75H328V99.875Z" fill="black"/>
<path d="M7.13043 105.75H0V111.625H7.13043V105.75Z" fill="black"/>
<path d="M14.2609 105.75H7.13043V111.625H14.2609V105.75Z" fill="#4C539B"/>
<path d="M21.3913 105.75H14.2609V111.625H21.3913V105.75Z" fill="#4C539B"/>
<path d="M28.5217 105.75H21.3913V111.625H28.5217V105.75Z" fill="#CBDBFC"/>
<path d="M35.6522 105.75H28.5217V111.625H35.6522V105.75Z" fill="#CBDBFC"/>
<path d="M42.7826 105.75H35.6522V111.625H42.7826V105.75Z" fill="#CBDBFC"/>
<path d="M49.9131 105.75H42.7826V111.625H49.9131V105.75Z" fill="#CBDBFC"/>
<path d="M57.0435 105.75H49.913V111.625H57.0435V105.75Z" fill="#CBDBFC"/>
<path d="M64.1739 105.75H57.0435V111.625H64.1739V105.75Z" fill="#CBDBFC"/>
<path d="M71.3044 105.75H64.1739V111.625H71.3044V105.75Z" fill="#CBDBFC"/>
<path d="M78.4348 105.75H71.3043V111.625H78.4348V105.75Z" fill="#CBDBFC"/>
<path d="M85.5652 105.75H78.4348V111.625H85.5652V105.75Z" fill="#CBDBFC"/>
<path d="M92.6957 105.75H85.5652V111.625H92.6957V105.75Z" fill="#CBDBFC"/>
<path d="M99.8261 105.75H92.6956V111.625H99.8261V105.75Z" fill="#CBDBFC"/>
<path d="M106.956 105.75H99.826V111.625H106.956V105.75Z" fill="#CBDBFC"/>
<path d="M114.087 105.75H106.957V111.625H114.087V105.75Z" fill="#CBDBFC"/>
<path d="M121.217 105.75H114.087V111.625H121.217V105.75Z" fill="#CBDBFC"/>
<path d="M128.348 105.75H121.217V111.625H128.348V105.75Z" fill="#CBDBFC"/>
<path d="M135.478 105.75H128.348V111.625H135.478V105.75Z" fill="#CBDBFC"/>
<path d="M142.609 105.75H135.478V111.625H142.609V105.75Z" fill="#CBDBFC"/>
<path d="M149.739 105.75H142.609V111.625H149.739V105.75Z" fill="#CBDBFC"/>
<path d="M156.87 105.75H149.739V111.625H156.87V105.75Z" fill="#CBDBFC"/>
<path d="M164 105.75H156.87V111.625H164V105.75Z" fill="#CBDBFC"/>
<path d="M171.13 105.75H164V111.625H171.13V105.75Z" fill="#CBDBFC"/>
<path d="M178.261 105.75H171.13V111.625H178.261V105.75Z" fill="#CBDBFC"/>
<path d="M185.391 105.75H178.261V111.625H185.391V105.75Z" fill="#CBDBFC"/>
<path d="M192.522 105.75H185.391V111.625H192.522V105.75Z" fill="#CBDBFC"/>
<path d="M199.652 105.75H192.522V111.625H199.652V105.75Z" fill="#CBDBFC"/>
<path d="M206.783 105.75H199.652V111.625H206.783V105.75Z" fill="#CBDBFC"/>
<path d="M213.913 105.75H206.783V111.625H213.913V105.75Z" fill="#CBDBFC"/>
<path d="M221.043 105.75H213.913V111.625H221.043V105.75Z" fill="#CBDBFC"/>
<path d="M228.174 105.75H221.043V111.625H228.174V105.75Z" fill="#CBDBFC"/>
<path d="M235.304 105.75H228.174V111.625H235.304V105.75Z" fill="#CBDBFC"/>
<path d="M242.435 105.75H235.304V111.625H242.435V105.75Z" fill="#CBDBFC"/>
<path d="M249.565 105.75H242.435V111.625H249.565V105.75Z" fill="#CBDBFC"/>
<path d="M256.696 105.75H249.565V111.625H256.696V105.75Z" fill="#CBDBFC"/>
<path d="M263.826 105.75H256.696V111.625H263.826V105.75Z" fill="#CBDBFC"/>
<path d="M270.956 105.75H263.826V111.625H270.956V105.75Z" fill="#CBDBFC"/>
<path d="M278.087 105.75H270.957V111.625H278.087V105.75Z" fill="#CBDBFC"/>
<path d="M285.217 105.75H278.087V111.625H285.217V105.75Z" fill="#CBDBFC"/>
<path d="M292.348 105.75H285.217V111.625H292.348V105.75Z" fill="#CBDBFC"/>
<path d="M299.478 105.75H292.348V111.625H299.478V105.75Z" fill="#CBDBFC"/>
<path d="M306.609 105.75H299.478V111.625H306.609V105.75Z" fill="#CBDBFC"/>
<path d="M313.739 105.75H306.609V111.625H313.739V105.75Z" fill="#4C539B"/>
<path d="M320.87 105.75H313.739V111.625H320.87V105.75Z" fill="#4C539B"/>
<path d="M328 105.75H320.87V111.625H328V105.75Z" fill="black"/>
<path d="M7.13043 111.625H0V117.5H7.13043V111.625Z" fill="black"/>
<path d="M14.2609 111.625H7.13043V117.5H14.2609V111.625Z" fill="#4C539B"/>
<path d="M21.3913 111.625H14.2609V117.5H21.3913V111.625Z" fill="#4C539B"/>
<path d="M28.5217 111.625H21.3913V117.5H28.5217V111.625Z" fill="#4C539B"/>
<path d="M35.6522 111.625H28.5217V117.5H35.6522V111.625Z" fill="#4C539B"/>
<path d="M42.7826 111.625H35.6522V117.5H42.7826V111.625Z" fill="#4C539B"/>
<path d="M49.9131 111.625H42.7826V117.5H49.9131V111.625Z" fill="#4C539B"/>
<path d="M57.0435 111.625H49.913V117.5H57.0435V111.625Z" fill="#4C539B"/>
<path d="M64.1739 111.625H57.0435V117.5H64.1739V111.625Z" fill="#4C539B"/>
<path d="M71.3044 111.625H64.1739V117.5H71.3044V111.625Z" fill="#4C539B"/>
<path d="M78.4348 111.625H71.3043V117.5H78.4348V111.625Z" fill="#4C539B"/>
<path d="M85.5652 111.625H78.4348V117.5H85.5652V111.625Z" fill="#4C539B"/>
<path d="M92.6957 111.625H85.5652V117.5H92.6957V111.625Z" fill="#4C539B"/>
<path d="M99.8261 111.625H92.6956V117.5H99.8261V111.625Z" fill="#4C539B"/>
<path d="M106.956 111.625H99.826V117.5H106.956V111.625Z" fill="#4C539B"/>
<path d="M114.087 111.625H106.957V117.5H114.087V111.625Z" fill="#4C539B"/>
<path d="M121.217 111.625H114.087V117.5H121.217V111.625Z" fill="#4C539B"/>
<path d="M128.348 111.625H121.217V117.5H128.348V111.625Z" fill="#4C539B"/>
<path d="M135.478 111.625H128.348V117.5H135.478V111.625Z" fill="#4C539B"/>
<path d="M142.609 111.625H135.478V117.5H142.609V111.625Z" fill="#4C539B"/>
<path d="M149.739 111.625H142.609V117.5H149.739V111.625Z" fill="#4C539B"/>
<path d="M156.87 111.625H149.739V117.5H156.87V111.625Z" fill="#4C539B"/>
<path d="M164 111.625H156.87V117.5H164V111.625Z" fill="#4C539B"/>
<path d="M171.13 111.625H164V117.5H171.13V111.625Z" fill="#4C539B"/>
<path d="M178.261 111.625H171.13V117.5H178.261V111.625Z" fill="#4C539B"/>
<path d="M185.391 111.625H178.261V117.5H185.391V111.625Z" fill="#4C539B"/>
<path d="M192.522 111.625H185.391V117.5H192.522V111.625Z" fill="#4C539B"/>
<path d="M199.652 111.625H192.522V117.5H199.652V111.625Z" fill="#4C539B"/>
<path d="M206.783 111.625H199.652V117.5H206.783V111.625Z" fill="#4C539B"/>
<path d="M213.913 111.625H206.783V117.5H213.913V111.625Z" fill="#4C539B"/>
<path d="M221.043 111.625H213.913V117.5H221.043V111.625Z" fill="#4C539B"/>
<path d="M228.174 111.625H221.043V117.5H228.174V111.625Z" fill="#4C539B"/>
<path d="M235.304 111.625H228.174V117.5H235.304V111.625Z" fill="#4C539B"/>
<path d="M242.435 111.625H235.304V117.5H242.435V111.625Z" fill="#4C539B"/>
<path d="M249.565 111.625H242.435V117.5H249.565V111.625Z" fill="#4C539B"/>
<path d="M256.696 111.625H249.565V117.5H256.696V111.625Z" fill="#4C539B"/>
<path d="M263.826 111.625H256.696V117.5H263.826V111.625Z" fill="#4C539B"/>
<path d="M270.956 111.625H263.826V117.5H270.956V111.625Z" fill="#4C539B"/>
<path d="M278.087 111.625H270.957V117.5H278.087V111.625Z" fill="#4C539B"/>
<path d="M285.217 111.625H278.087V117.5H285.217V111.625Z" fill="#4C539B"/>
<path d="M292.348 111.625H285.217V117.5H292.348V111.625Z" fill="#4C539B"/>
<path d="M299.478 111.625H292.348V117.5H299.478V111.625Z" fill="#4C539B"/>
<path d="M306.609 111.625H299.478V117.5H306.609V111.625Z" fill="#4C539B"/>
<path d="M313.739 111.625H306.609V117.5H313.739V111.625Z" fill="#4C539B"/>
<path d="M320.87 111.625H313.739V117.5H320.87V111.625Z" fill="#4C539B"/>
<path d="M328 111.625H320.87V117.5H328V111.625Z" fill="black"/>
<path d="M7.13043 117.5H0V123.375H7.13043V117.5Z" fill="black"/>
<path d="M14.2609 117.5H7.13043V123.375H14.2609V117.5Z" fill="#4C539B"/>
<path d="M21.3913 117.5H14.2609V123.375H21.3913V117.5Z" fill="#4C539B"/>
<path d="M28.5217 117.5H21.3913V123.375H28.5217V117.5Z" fill="#4C539B"/>
<path d="M35.6522 117.5H28.5217V123.375H35.6522V117.5Z" fill="#4C539B"/>
<path d="M42.7826 117.5H35.6522V123.375H42.7826V117.5Z" fill="#4C539B"/>
<path d="M49.9131 117.5H42.7826V123.375H49.9131V117.5Z" fill="#4C539B"/>
<path d="M57.0435 117.5H49.913V123.375H57.0435V117.5Z" fill="#4C539B"/>
<path d="M64.1739 117.5H57.0435V123.375H64.1739V117.5Z" fill="#4C539B"/>
<path d="M71.3044 117.5H64.1739V123.375H71.3044V117.5Z" fill="#4C539B"/>
<path d="M78.4348 117.5H71.3043V123.375H78.4348V117.5Z" fill="#4C539B"/>
<path d="M85.5652 117.5H78.4348V123.375H85.5652V117.5Z" fill="#4C539B"/>
<path d="M92.6957 117.5H85.5652V123.375H92.6957V117.5Z" fill="#4C539B"/>
<path d="M99.8261 117.5H92.6956V123.375H99.8261V117.5Z" fill="#4C539B"/>
<path d="M106.956 117.5H99.826V123.375H106.956V117.5Z" fill="#4C539B"/>
<path d="M114.087 117.5H106.957V123.375H114.087V117.5Z" fill="#4C539B"/>
<path d="M121.217 117.5H114.087V123.375H121.217V117.5Z" fill="#4C539B"/>
<path d="M128.348 117.5H121.217V123.375H128.348V117.5Z" fill="#4C539B"/>
<path d="M135.478 117.5H128.348V123.375H135.478V117.5Z" fill="#4C539B"/>
<path d="M142.609 117.5H135.478V123.375H142.609V117.5Z" fill="#4C539B"/>
<path d="M149.739 117.5H142.609V123.375H149.739V117.5Z" fill="#4C539B"/>
<path d="M156.87 117.5H149.739V123.375H156.87V117.5Z" fill="#4C539B"/>
<path d="M164 117.5H156.87V123.375H164V117.5Z" fill="#4C539B"/>
<path d="M171.13 117.5H164V123.375H171.13V117.5Z" fill="#4C539B"/>
<path d="M178.261 117.5H171.13V123.375H178.261V117.5Z" fill="#4C539B"/>
<path d="M185.391 117.5H178.261V123.375H185.391V117.5Z" fill="#4C539B"/>
<path d="M192.522 117.5H185.391V123.375H192.522V117.5Z" fill="#4C539B"/>
<path d="M199.652 117.5H192.522V123.375H199.652V117.5Z" fill="#4C539B"/>
<path d="M206.783 117.5H199.652V123.375H206.783V117.5Z" fill="#4C539B"/>
<path d="M213.913 117.5H206.783V123.375H213.913V117.5Z" fill="#4C539B"/>
<path d="M221.043 117.5H213.913V123.375H221.043V117.5Z" fill="#4C539B"/>
<path d="M228.174 117.5H221.043V123.375H228.174V117.5Z" fill="#4C539B"/>
<path d="M235.304 117.5H228.174V123.375H235.304V117.5Z" fill="#4C539B"/>
<path d="M242.435 117.5H235.304V123.375H242.435V117.5Z" fill="#4C539B"/>
<path d="M249.565 117.5H242.435V123.375H249.565V117.5Z" fill="#4C539B"/>
<path d="M256.696 117.5H249.565V123.375H256.696V117.5Z" fill="#4C539B"/>
<path d="M263.826 117.5H256.696V123.375H263.826V117.5Z" fill="#4C539B"/>
<path d="M270.956 117.5H263.826V123.375H270.956V117.5Z" fill="#4C539B"/>
<path d="M278.087 117.5H270.957V123.375H278.087V117.5Z" fill="#4C539B"/>
<path d="M285.217 117.5H278.087V123.375H285.217V117.5Z" fill="#4C539B"/>
<path d="M292.348 117.5H285.217V123.375H292.348V117.5Z" fill="#4C539B"/>
<path d="M299.478 117.5H292.348V123.375H299.478V117.5Z" fill="#4C539B"/>
<path d="M306.609 117.5H299.478V123.375H306.609V117.5Z" fill="#4C539B"/>
<path d="M313.739 117.5H306.609V123.375H313.739V117.5Z" fill="#4C539B"/>
<path d="M320.87 117.5H313.739V123.375H320.87V117.5Z" fill="#4C539B"/>
<path d="M328 117.5H320.87V123.375H328V117.5Z" fill="black"/>
<path d="M7.13043 123.375H0V129.25H7.13043V123.375Z" fill="black"/>
<path d="M14.2609 123.375H7.13043V129.25H14.2609V123.375Z" fill="#4C539B"/>
<path d="M21.3913 123.375H14.2609V129.25H21.3913V123.375Z" fill="#4C539B"/>
<path d="M28.5217 123.375H21.3913V129.25H28.5217V123.375Z" fill="#4C539B"/>
<path d="M35.6522 123.375H28.5217V129.25H35.6522V123.375Z" fill="#4C539B"/>
<path d="M42.7826 123.375H35.6522V129.25H42.7826V123.375Z" fill="#4C539B"/>
<path d="M49.9131 123.375H42.7826V129.25H49.9131V123.375Z" fill="#4C539B"/>
<path d="M57.0435 123.375H49.913V129.25H57.0435V123.375Z" fill="#4C539B"/>
<path d="M64.1739 123.375H57.0435V129.25H64.1739V123.375Z" fill="#4C539B"/>
<path d="M71.3044 123.375H64.1739V129.25H71.3044V123.375Z" fill="#4C539B"/>
<path d="M78.4348 123.375H71.3043V129.25H78.4348V123.375Z" fill="#4C539B"/>
<path d="M85.5652 123.375H78.4348V129.25H85.5652V123.375Z" fill="#4C539B"/>
<path d="M92.6957 123.375H85.5652V129.25H92.6957V123.375Z" fill="#4C539B"/>
<path d="M99.8261 123.375H92.6956V129.25H99.8261V123.375Z" fill="#4C539B"/>
<path d="M106.956 123.375H99.826V129.25H106.956V123.375Z" fill="#4C539B"/>
<path d="M114.087 123.375H106.957V129.25H114.087V123.375Z" fill="#4C539B"/>
<path d="M121.217 123.375H114.087V129.25H121.217V123.375Z" fill="#4C539B"/>
<path d="M128.348 123.375H121.217V129.25H128.348V123.375Z" fill="#4C539B"/>
<path d="M135.478 123.375H128.348V129.25H135.478V123.375Z" fill="#4C539B"/>
<path d="M142.609 123.375H135.478V129.25H142.609V123.375Z" fill="#4C539B"/>
<path d="M149.739 123.375H142.609V129.25H149.739V123.375Z" fill="#4C539B"/>
<path d="M156.87 123.375H149.739V129.25H156.87V123.375Z" fill="#4C539B"/>
<path d="M164 123.375H156.87V129.25H164V123.375Z" fill="#4C539B"/>
<path d="M171.13 123.375H164V129.25H171.13V123.375Z" fill="#4C539B"/>
<path d="M178.261 123.375H171.13V129.25H178.261V123.375Z" fill="#4C539B"/>
<path d="M185.391 123.375H178.261V129.25H185.391V123.375Z" fill="#4C539B"/>
<path d="M192.522 123.375H185.391V129.25H192.522V123.375Z" fill="#4C539B"/>
<path d="M199.652 123.375H192.522V129.25H199.652V123.375Z" fill="#4C539B"/>
<path d="M206.783 123.375H199.652V129.25H206.783V123.375Z" fill="#4C539B"/>
<path d="M213.913 123.375H206.783V129.25H213.913V123.375Z" fill="#4C539B"/>
<path d="M221.043 123.375H213.913V129.25H221.043V123.375Z" fill="#4C539B"/>
<path d="M228.174 123.375H221.043V129.25H228.174V123.375Z" fill="#4C539B"/>
<path d="M235.304 123.375H228.174V129.25H235.304V123.375Z" fill="#4C539B"/>
<path d="M242.435 123.375H235.304V129.25H242.435V123.375Z" fill="#4C539B"/>
<path d="M249.565 123.375H242.435V129.25H249.565V123.375Z" fill="#4C539B"/>
<path d="M256.696 123.375H249.565V129.25H256.696V123.375Z" fill="#4C539B"/>
<path d="M263.826 123.375H256.696V129.25H263.826V123.375Z" fill="#4C539B"/>
<path d="M270.956 123.375H263.826V129.25H270.956V123.375Z" fill="#4C539B"/>
<path d="M278.087 123.375H270.957V129.25H278.087V123.375Z" fill="#4C539B"/>
<path d="M285.217 123.375H278.087V129.25H285.217V123.375Z" fill="#4C539B"/>
<path d="M292.348 123.375H285.217V129.25H292.348V123.375Z" fill="#4C539B"/>
<path d="M299.478 123.375H292.348V129.25H299.478V123.375Z" fill="#4C539B"/>
<path d="M306.609 123.375H299.478V129.25H306.609V123.375Z" fill="#4C539B"/>
<path d="M313.739 123.375H306.609V129.25H313.739V123.375Z" fill="#4C539B"/>
<path d="M320.87 123.375H313.739V129.25H320.87V123.375Z" fill="#4C539B"/>
<path d="M328 123.375H320.87V129.25H328V123.375Z" fill="black"/>
<path d="M14.2609 129.25H7.13043V135.125H14.2609V129.25Z" fill="black"/>
<path d="M21.3913 129.25H14.2609V135.125H21.3913V129.25Z" fill="#4C539B"/>
<path d="M28.5217 129.25H21.3913V135.125H28.5217V129.25Z" fill="#4C539B"/>
<path d="M35.6522 129.25H28.5217V135.125H35.6522V129.25Z" fill="#4C539B"/>
<path d="M42.7826 129.25H35.6522V135.125H42.7826V129.25Z" fill="#4C539B"/>
<path d="M49.9131 129.25H42.7826V135.125H49.9131V129.25Z" fill="#4C539B"/>
<path d="M57.0435 129.25H49.913V135.125H57.0435V129.25Z" fill="#4C539B"/>
<path d="M64.1739 129.25H57.0435V135.125H64.1739V129.25Z" fill="#4C539B"/>
<path d="M71.3044 129.25H64.1739V135.125H71.3044V129.25Z" fill="#4C539B"/>
<path d="M78.4348 129.25H71.3043V135.125H78.4348V129.25Z" fill="#4C539B"/>
<path d="M85.5652 129.25H78.4348V135.125H85.5652V129.25Z" fill="#4C539B"/>
<path d="M92.6957 129.25H85.5652V135.125H92.6957V129.25Z" fill="#4C539B"/>
<path d="M99.8261 129.25H92.6956V135.125H99.8261V129.25Z" fill="#4C539B"/>
<path d="M106.956 129.25H99.826V135.125H106.956V129.25Z" fill="#4C539B"/>
<path d="M114.087 129.25H106.957V135.125H114.087V129.25Z" fill="#4C539B"/>
<path d="M121.217 129.25H114.087V135.125H121.217V129.25Z" fill="#4C539B"/>
<path d="M128.348 129.25H121.217V135.125H128.348V129.25Z" fill="#4C539B"/>
<path d="M135.478 129.25H128.348V135.125H135.478V129.25Z" fill="#4C539B"/>
<path d="M142.609 129.25H135.478V135.125H142.609V129.25Z" fill="#4C539B"/>
<path d="M149.739 129.25H142.609V135.125H149.739V129.25Z" fill="#4C539B"/>
<path d="M156.87 129.25H149.739V135.125H156.87V129.25Z" fill="#4C539B"/>
<path d="M164 129.25H156.87V135.125H164V129.25Z" fill="#4C539B"/>
<path d="M171.13 129.25H164V135.125H171.13V129.25Z" fill="#4C539B"/>
<path d="M178.261 129.25H171.13V135.125H178.261V129.25Z" fill="#4C539B"/>
<path d="M185.391 129.25H178.261V135.125H185.391V129.25Z" fill="#4C539B"/>
<path d="M192.522 129.25H185.391V135.125H192.522V129.25Z" fill="#4C539B"/>
<path d="M199.652 129.25H192.522V135.125H199.652V129.25Z" fill="#4C539B"/>
<path d="M206.783 129.25H199.652V135.125H206.783V129.25Z" fill="#4C539B"/>
<path d="M213.913 129.25H206.783V135.125H213.913V129.25Z" fill="#4C539B"/>
<path d="M221.043 129.25H213.913V135.125H221.043V129.25Z" fill="#4C539B"/>
<path d="M228.174 129.25H221.043V135.125H228.174V129.25Z" fill="#4C539B"/>
<path d="M235.304 129.25H228.174V135.125H235.304V129.25Z" fill="#4C539B"/>
<path d="M242.435 129.25H235.304V135.125H242.435V129.25Z" fill="#4C539B"/>
<path d="M249.565 129.25H242.435V135.125H249.565V129.25Z" fill="#4C539B"/>
<path d="M256.696 129.25H249.565V135.125H256.696V129.25Z" fill="#4C539B"/>
<path d="M263.826 129.25H256.696V135.125H263.826V129.25Z" fill="#4C539B"/>
<path d="M270.956 129.25H263.826V135.125H270.956V129.25Z" fill="#4C539B"/>
<path d="M278.087 129.25H270.957V135.125H278.087V129.25Z" fill="#4C539B"/>
<path d="M285.217 129.25H278.087V135.125H285.217V129.25Z" fill="#4C539B"/>
<path d="M292.348 129.25H285.217V135.125H292.348V129.25Z" fill="#4C539B"/>
<path d="M299.478 129.25H292.348V135.125H299.478V129.25Z" fill="#4C539B"/>
<path d="M306.609 129.25H299.478V135.125H306.609V129.25Z" fill="#4C539B"/>
<path d="M313.739 129.25H306.609V135.125H313.739V129.25Z" fill="#4C539B"/>
<path d="M320.87 129.25H313.739V135.125H320.87V129.25Z" fill="black"/>
<path d="M21.3913 135.125H14.2609V141H21.3913V135.125Z" fill="black"/>
<path d="M28.5217 135.125H21.3913V141H28.5217V135.125Z" fill="black"/>
<path d="M35.6522 135.125H28.5217V141H35.6522V135.125Z" fill="black"/>
<path d="M42.7826 135.125H35.6522V141H42.7826V135.125Z" fill="black"/>
<path d="M49.9131 135.125H42.7826V141H49.9131V135.125Z" fill="black"/>
<path d="M57.0435 135.125H49.913V141H57.0435V135.125Z" fill="black"/>
<path d="M64.1739 135.125H57.0435V141H64.1739V135.125Z" fill="black"/>
<path d="M71.3044 135.125H64.1739V141H71.3044V135.125Z" fill="black"/>
<path d="M78.4348 135.125H71.3043V141H78.4348V135.125Z" fill="black"/>
<path d="M85.5652 135.125H78.4348V141H85.5652V135.125Z" fill="black"/>
<path d="M92.6957 135.125H85.5652V141H92.6957V135.125Z" fill="black"/>
<path d="M99.8261 135.125H92.6956V141H99.8261V135.125Z" fill="black"/>
<path d="M106.956 135.125H99.826V141H106.956V135.125Z" fill="black"/>
<path d="M114.087 135.125H106.957V141H114.087V135.125Z" fill="black"/>
<path d="M121.217 135.125H114.087V141H121.217V135.125Z" fill="black"/>
<path d="M128.348 135.125H121.217V141H128.348V135.125Z" fill="black"/>
<path d="M135.478 135.125H128.348V141H135.478V135.125Z" fill="black"/>
<path d="M142.609 135.125H135.478V141H142.609V135.125Z" fill="black"/>
<path d="M149.739 135.125H142.609V141H149.739V135.125Z" fill="black"/>
<path d="M156.87 135.125H149.739V141H156.87V135.125Z" fill="black"/>
<path d="M164 135.125H156.87V141H164V135.125Z" fill="black"/>
<path d="M171.13 135.125H164V141H171.13V135.125Z" fill="black"/>
<path d="M178.261 135.125H171.13V141H178.261V135.125Z" fill="black"/>
<path d="M185.391 135.125H178.261V141H185.391V135.125Z" fill="black"/>
<path d="M192.522 135.125H185.391V141H192.522V135.125Z" fill="black"/>
<path d="M199.652 135.125H192.522V141H199.652V135.125Z" fill="black"/>
<path d="M206.783 135.125H199.652V141H206.783V135.125Z" fill="black"/>
<path d="M213.913 135.125H206.783V141H213.913V135.125Z" fill="black"/>
<path d="M221.043 135.125H213.913V141H221.043V135.125Z" fill="black"/>
<path d="M228.174 135.125H221.043V141H228.174V135.125Z" fill="black"/>
<path d="M235.304 135.125H228.174V141H235.304V135.125Z" fill="black"/>
<path d="M242.435 135.125H235.304V141H242.435V135.125Z" fill="black"/>
<path d="M249.565 135.125H242.435V141H249.565V135.125Z" fill="black"/>
<path d="M256.696 135.125H249.565V141H256.696V135.125Z" fill="black"/>
<path d="M263.826 135.125H256.696V141H263.826V135.125Z" fill="black"/>
<path d="M270.956 135.125H263.826V141H270.956V135.125Z" fill="black"/>
<path d="M278.087 135.125H270.957V141H278.087V135.125Z" fill="black"/>
<path d="M285.217 135.125H278.087V141H285.217V135.125Z" fill="black"/>
<path d="M292.348 135.125H285.217V141H292.348V135.125Z" fill="black"/>
<path d="M299.478 135.125H292.348V141H299.478V135.125Z" fill="black"/>
<path d="M306.609 135.125H299.478V141H306.609V135.125Z" fill="black"/>
<path d="M313.739 135.125H306.609V141H313.739V135.125Z" fill="black"/>
</g>
<defs>
<clipPath id="clip0_601_30">
<rect width="100%" height="100%" fill="white"/>
</clipPath>
</defs>
</svg>
