<svg width="388" height="342" viewBox="0 0 388 342" fill="none" xmlns="http://www.w3.org/2000/svg">
<path d="M364.413 171C364.413 156.108 362.461 141.28 358.606 126.895L194.001 171H364.413Z" fill="url(#paint0_radial_15956_29224)" fill-opacity="0.4"/>
<path d="M341.582 85.7941C334.136 72.8968 325.031 61.0312 314.501 50.5006L194.001 171L341.582 85.7941Z" fill="url(#paint1_radial_15956_29224)" fill-opacity="0.4"/>
<path d="M279.207 23.4191C266.31 15.9729 252.492 10.2494 238.107 6.3949L194.001 171L279.207 23.4191Z" fill="url(#paint2_radial_15956_29224)" fill-opacity="0.4"/>
<path d="M194.001 0.587944C179.108 0.587945 164.28 2.54012 149.895 6.39459L194.001 171L194.001 0.587944Z" fill="url(#paint3_radial_15956_29224)" fill-opacity="0.4"/>
<path d="M108.795 23.4192C95.8978 30.8654 84.0322 39.9702 73.5016 50.5008L194.001 171L108.795 23.4192Z" fill="url(#paint4_radial_15956_29224)" fill-opacity="0.4"/>
<path d="M46.4187 85.7944C38.9724 98.6917 33.2489 112.509 29.3944 126.894L194 171L46.4187 85.7944Z" fill="url(#paint5_radial_15956_29224)" fill-opacity="0.4"/>
<path d="M23.588 171C23.588 185.893 25.5401 200.721 29.3946 215.106L194 171L23.588 171Z" fill="url(#paint6_radial_15956_29224)" fill-opacity="0.4"/>
<path d="M46.4187 256.205C53.865 269.102 62.9697 280.968 73.5003 291.498L194 170.999L46.4187 256.205Z" fill="url(#paint7_radial_15956_29224)" fill-opacity="0.4"/>
<path d="M108.793 318.581C121.69 326.027 135.508 331.751 149.893 335.605L193.999 171L108.793 318.581Z" fill="url(#paint8_radial_15956_29224)" fill-opacity="0.4"/>
<path d="M194 341.413C208.893 341.413 223.721 339.46 238.106 335.606L194 171L194 341.413Z" fill="url(#paint9_radial_15956_29224)" fill-opacity="0.4"/>
<path d="M279.207 318.582C292.104 311.135 303.97 302.031 314.5 291.5L194.001 171L279.207 318.582Z" fill="url(#paint10_radial_15956_29224)" fill-opacity="0.4"/>
<path d="M341.581 256.206C349.028 243.309 354.751 229.491 358.606 215.106L194 171L341.581 256.206Z" fill="url(#paint11_radial_15956_29224)" fill-opacity="0.4"/>
<rect x="112" y="62.9995" width="14" height="13" fill="black"/>
<rect x="126" y="62.9995" width="14" height="13" fill="black"/>
<rect x="98.9995" y="62.9995" width="13" height="13" fill="black"/>
<rect x="98.9995" y="75.9995" width="13" height="14" fill="black"/>
<rect x="98.9995" y="89.9995" width="13" height="14" fill="black"/>
<rect x="112" y="104" width="14" height="15" fill="black"/>
<rect x="112" y="119" width="14" height="15" fill="black"/>
<rect x="112" y="134" width="14" height="13" fill="black"/>
<rect x="126" y="147" width="14" height="13" fill="black"/>
<rect x="126" y="160" width="14" height="14" fill="black"/>
<rect x="126" y="174" width="14" height="13" fill="black"/>
<rect x="140" y="187" width="15" height="15" fill="black"/>
<rect x="140" y="202" width="15" height="15" fill="black"/>
<rect x="140" y="217" width="15" height="14" fill="black"/>
<rect x="155" y="231" width="15" height="14" fill="black"/>
<rect x="155" y="245" width="15" height="13" fill="black"/>
<rect x="170" y="245" width="13" height="13" fill="black"/>
<rect x="183" y="245" width="13" height="13" fill="black"/>
<rect x="196" y="231" width="14" height="14" fill="black"/>
<rect x="210" y="231" width="13" height="14" fill="black"/>
<rect x="223" y="217" width="15" height="14" fill="black"/>
<rect x="238" y="202" width="15" height="15" fill="black"/>
<rect x="253" y="187" width="14" height="15" fill="black"/>
<rect x="267" y="174" width="14" height="13" fill="black"/>
<rect x="267" y="160" width="14" height="14" fill="black"/>
<rect x="281" y="147" width="13" height="13" fill="black"/>
<rect x="281" y="134" width="13" height="13" fill="black"/>
<rect x="281" y="119" width="13" height="15" fill="black"/>
<rect x="267" y="119" width="14" height="15" fill="black"/>
<rect x="253" y="119" width="14" height="15" fill="#FEC200"/>
<rect x="140" y="75.9995" width="15" height="14" fill="black"/>
<rect x="155" y="75.9995" width="15" height="14" fill="black"/>
<rect x="170" y="75.9995" width="13" height="14" fill="black"/>
<rect x="183" y="89.9995" width="13" height="14" fill="black"/>
<rect x="196" y="89.9995" width="14" height="14" fill="black"/>
<rect x="210" y="89.9995" width="13" height="14" fill="black"/>
<rect x="223" y="104" width="15" height="15" fill="black"/>
<rect x="238" y="104" width="15" height="15" fill="black"/>
<rect x="253" y="104" width="14" height="15" fill="black"/>
<rect x="170" y="217" width="13" height="14" fill="black"/>
<rect x="183" y="202" width="13" height="15" fill="#FEC200"/>
<rect x="196" y="187" width="14" height="15" fill="#FEC200"/>
<rect x="210" y="174" width="13" height="13" fill="#FEC200"/>
<rect x="223" y="160" width="15" height="14" fill="#FEC200"/>
<rect x="238" y="147" width="15" height="13" fill="#FEC200"/>
<rect x="253" y="134" width="14" height="13" fill="black"/>
<rect x="170" y="231" width="13" height="14" fill="#FF8B00"/>
<rect x="183" y="231" width="13" height="14" fill="#FF8B00"/>
<rect x="183" y="217" width="13" height="14" fill="black"/>
<rect x="196" y="217" width="14" height="14" fill="#FF8B00"/>
<rect x="210" y="217" width="13" height="14" fill="#FF8B00"/>
<rect x="196" y="202" width="14" height="15" fill="black"/>
<rect x="210" y="202" width="13" height="15" fill="#FF8B00"/>
<rect x="223" y="202" width="15" height="15" fill="#FF8B00"/>
<rect x="223" y="187" width="15" height="15" fill="#FF8B00"/>
<rect x="210" y="187" width="13" height="15" fill="black"/>
<rect x="238" y="187" width="15" height="15" fill="#FF8B00"/>
<rect x="238" y="174" width="15" height="13" fill="#FF8B00"/>
<rect x="223" y="174" width="15" height="13" fill="black"/>
<rect x="253" y="174" width="14" height="13" fill="#FF8B00"/>
<rect x="253" y="160" width="14" height="14" fill="#FF8B00"/>
<rect x="238" y="160" width="15" height="14" fill="black"/>
<rect x="253" y="147" width="14" height="13" fill="black"/>
<rect x="267" y="147" width="14" height="13" fill="#FF8B00"/>
<rect x="267" y="134" width="14" height="13" fill="#FF8B00"/>
<rect x="210" y="160" width="13" height="14" fill="#FEC200"/>
<rect x="126" y="75.9995" width="14" height="14" fill="#FEC200"/>
<rect x="126" y="89.9995" width="14" height="14" fill="black"/>
<rect x="140" y="104" width="15" height="15" fill="black"/>
<rect x="155" y="104" width="15" height="15" fill="#FEC200"/>
<rect x="170" y="89.9995" width="13" height="14" fill="black"/>
<rect x="155" y="89.9995" width="15" height="14" fill="#FEC200"/>
<rect x="140" y="89.9995" width="15" height="14" fill="#FEC200"/>
<rect x="140" y="134" width="15" height="13" fill="#FEC200"/>
<rect x="155" y="134" width="15" height="13" fill="#FEC200"/>
<rect x="170" y="147" width="13" height="13" fill="#FEC200"/>
<rect x="170" y="160" width="13" height="14" fill="black"/>
<rect x="155" y="174" width="15" height="13" fill="#FE0002"/>
<rect x="140" y="147" width="15" height="13" fill="#FEC200"/>
<rect x="140" y="160" width="15" height="14" fill="#FEC200"/>
<rect x="155" y="160" width="15" height="14" fill="black"/>
<rect x="155" y="147" width="15" height="13" fill="#FEC200"/>
<rect x="155" y="119" width="15" height="15" fill="#FEC200"/>
<rect x="170" y="134" width="13" height="13" fill="#FEC200"/>
<rect x="183" y="147" width="13" height="13" fill="#FEC200"/>
<rect x="183" y="160" width="13" height="14" fill="#FEC200"/>
<rect x="196" y="174" width="14" height="13" fill="#FEC200"/>
<rect x="183" y="174" width="13" height="13" fill="black"/>
<rect x="140" y="119" width="15" height="15" fill="black"/>
<rect x="140" y="174" width="15" height="13" fill="black"/>
<rect x="155" y="217" width="15" height="14" fill="#FEC200"/>
<rect x="155" y="202" width="15" height="15" fill="black"/>
<rect x="155" y="187" width="15" height="15" fill="#FE0002"/>
<rect x="126" y="104" width="14" height="15" fill="#FE0002"/>
<rect x="126" y="119" width="14" height="15" fill="#FE0002"/>
<rect x="126" y="134" width="14" height="13" fill="black"/>
<rect x="112" y="75.9995" width="14" height="14" fill="#FEC200"/>
<rect x="112" y="89.9995" width="14" height="14" fill="#FEC200"/>
<rect x="170" y="104" width="13" height="15" fill="#FEC200"/>
<rect x="170" y="119" width="13" height="15" fill="#FEC200"/>
<rect x="170" y="174" width="13" height="13" fill="#FE0002"/>
<rect x="170" y="187" width="13" height="15" fill="#FE0002"/>
<rect x="170" y="202" width="13" height="15" fill="black"/>
<rect x="183" y="187" width="13" height="15" fill="black"/>
<rect x="183" y="134" width="13" height="13" fill="#FEC200"/>
<rect x="183" y="119" width="13" height="15" fill="black"/>
<rect x="183" y="104" width="13" height="15" fill="black"/>
<rect x="196" y="104" width="14" height="15" fill="#FE0002"/>
<rect x="210" y="104" width="13" height="15" fill="black"/>
<rect x="210" y="119" width="13" height="15" fill="#FE0002"/>
<rect x="210" y="134" width="13" height="13" fill="black"/>
<rect x="210" y="147" width="13" height="13" fill="#FEC200"/>
<rect x="196" y="160" width="14" height="14" fill="#FEC200"/>
<rect x="196" y="147" width="14" height="13" fill="#FEC200"/>
<rect x="196" y="134" width="14" height="13" fill="black"/>
<rect x="196" y="119" width="14" height="15" fill="#FE0002"/>
<rect x="223" y="119" width="15" height="15" fill="black"/>
<rect x="238" y="119" width="15" height="15" fill="#FEC200"/>
<rect x="238" y="134" width="15" height="13" fill="#FEC200"/>
<rect x="223" y="147" width="15" height="13" fill="#FEC200"/>
<rect x="223" y="134" width="15" height="13" fill="#FEC200"/>
<defs>
<radialGradient id="paint0_radial_15956_29224" cx="0" cy="0" r="1" gradientUnits="userSpaceOnUse" gradientTransform="translate(194.001 171) rotate(90) scale(170.412)">
<stop stop-color="white"/>
<stop offset="0.0001" stop-color="white"/>
<stop offset="1" stop-color="white" stop-opacity="0"/>
</radialGradient>
<radialGradient id="paint1_radial_15956_29224" cx="0" cy="0" r="1" gradientUnits="userSpaceOnUse" gradientTransform="translate(194.001 171) rotate(60) scale(170.412)">
<stop stop-color="white"/>
<stop offset="0.0001" stop-color="white"/>
<stop offset="1" stop-color="white" stop-opacity="0"/>
</radialGradient>
<radialGradient id="paint2_radial_15956_29224" cx="0" cy="0" r="1" gradientUnits="userSpaceOnUse" gradientTransform="translate(194.001 171) rotate(30) scale(170.412)">
<stop stop-color="white"/>
<stop offset="0.0001" stop-color="white"/>
<stop offset="1" stop-color="white" stop-opacity="0"/>
</radialGradient>
<radialGradient id="paint3_radial_15956_29224" cx="0" cy="0" r="1" gradientUnits="userSpaceOnUse" gradientTransform="translate(194.001 171) scale(170.412)">
<stop stop-color="white"/>
<stop offset="0.0001" stop-color="white"/>
<stop offset="1" stop-color="white" stop-opacity="0"/>
</radialGradient>
<radialGradient id="paint4_radial_15956_29224" cx="0" cy="0" r="1" gradientUnits="userSpaceOnUse" gradientTransform="translate(194.001 171) rotate(-30) scale(170.412)">
<stop stop-color="white"/>
<stop offset="0.0001" stop-color="white"/>
<stop offset="1" stop-color="white" stop-opacity="0"/>
</radialGradient>
<radialGradient id="paint5_radial_15956_29224" cx="0" cy="0" r="1" gradientUnits="userSpaceOnUse" gradientTransform="translate(194 171) rotate(-60) scale(170.412)">
<stop stop-color="white"/>
<stop offset="0.0001" stop-color="white"/>
<stop offset="1" stop-color="white" stop-opacity="0"/>
</radialGradient>
<radialGradient id="paint6_radial_15956_29224" cx="0" cy="0" r="1" gradientUnits="userSpaceOnUse" gradientTransform="translate(194 171) rotate(-90) scale(170.412)">
<stop stop-color="white"/>
<stop offset="0.0001" stop-color="white"/>
<stop offset="1" stop-color="white" stop-opacity="0"/>
</radialGradient>
<radialGradient id="paint7_radial_15956_29224" cx="0" cy="0" r="1" gradientUnits="userSpaceOnUse" gradientTransform="translate(194 170.999) rotate(-120) scale(170.412)">
<stop stop-color="white"/>
<stop offset="0.0001" stop-color="white"/>
<stop offset="1" stop-color="white" stop-opacity="0"/>
</radialGradient>
<radialGradient id="paint8_radial_15956_29224" cx="0" cy="0" r="1" gradientUnits="userSpaceOnUse" gradientTransform="translate(193.999 171) rotate(-150) scale(170.412)">
<stop stop-color="white"/>
<stop offset="0.0001" stop-color="white"/>
<stop offset="1" stop-color="white" stop-opacity="0"/>
</radialGradient>
<radialGradient id="paint9_radial_15956_29224" cx="0" cy="0" r="1" gradientUnits="userSpaceOnUse" gradientTransform="translate(194 171) rotate(-180) scale(170.412)">
<stop stop-color="white"/>
<stop offset="0.0001" stop-color="white"/>
<stop offset="1" stop-color="white" stop-opacity="0"/>
</radialGradient>
<radialGradient id="paint10_radial_15956_29224" cx="0" cy="0" r="1" gradientUnits="userSpaceOnUse" gradientTransform="translate(194.001 171) rotate(150) scale(170.412)">
<stop stop-color="white"/>
<stop offset="0.0001" stop-color="white"/>
<stop offset="1" stop-color="white" stop-opacity="0"/>
</radialGradient>
<radialGradient id="paint11_radial_15956_29224" cx="0" cy="0" r="1" gradientUnits="userSpaceOnUse" gradientTransform="translate(194 171) rotate(120) scale(170.412)">
<stop stop-color="white"/>
<stop offset="0.0001" stop-color="white"/>
<stop offset="1" stop-color="white" stop-opacity="0"/>
</radialGradient>
</defs>
</svg>
