<?xml version="1.0" encoding="UTF-8"?>
<svg version="1.1" xmlns="http://www.w3.org/2000/svg" width="1920" height="1080">
<path d="M0 0 C633.6 0 1267.2 0 1920 0 C1920 356.4 1920 712.8 1920 1080 C1286.4 1080 652.8 1080 0 1080 C0 723.6 0 367.2 0 0 Z " fill="#2C3693" transform="translate(0,0)"/>
<path d="M0 0 C39.6 0 79.2 0 120 0 C120 180.84 120 361.68 120 548 C-513.6 548 -1147.2 548 -1800 548 C-1800 439.1 -1800 330.2 -1800 218 C-1757.76 218 -1715.52 218 -1672 218 C-1672 215.69 -1672 213.38 -1672 211 C-1664.74 211 -1657.48 211 -1650 211 C-1650 208.36 -1650 205.72 -1650 203 C-1642.41 203 -1634.82 203 -1627 203 C-1627 200.69 -1627 198.38 -1627 196 C-1619.74 196 -1612.48 196 -1605 196 C-1605 193.36 -1605 190.72 -1605 188 C-1597.41 188 -1589.82 188 -1582 188 C-1582 185.36 -1582 182.72 -1582 180 C-1567.48 180 -1552.96 180 -1538 180 C-1538 177.69 -1538 175.38 -1538 173 C-1522.82 173 -1507.64 173 -1492 173 C-1492 170.36 -1492 167.72 -1492 165 C-1472.53 165 -1453.06 165 -1433 165 C-1433 162.69 -1433 160.38 -1433 158 C-1425.41 158 -1417.82 158 -1410 158 C-1410 155.69 -1410 153.38 -1410 151 C-1330.8 151 -1251.6 151 -1170 151 C-1170 153.31 -1170 155.62 -1170 158 C-1165.05 158 -1160.1 158 -1155 158 C-1155 160.64 -1155 163.28 -1155 166 C-1150.05 166 -1145.1 166 -1140 166 C-1140 168.31 -1140 170.62 -1140 173 C-1135.05 173 -1130.1 173 -1125 173 C-1125 175.64 -1125 178.28 -1125 181 C-1105.2 181 -1085.4 181 -1065 181 C-1065 178.36 -1065 175.72 -1065 173 C-1052.46 173 -1039.92 173 -1027 173 C-1027 170.69 -1027 168.38 -1027 166 C-1019.74 166 -1012.48 166 -1005 166 C-1005 163.36 -1005 160.72 -1005 158 C-980.25 158 -955.5 158 -930 158 C-930 160.64 -930 163.28 -930 166 C-885.45 166 -840.9 166 -795 166 C-795 168.31 -795 170.62 -795 173 C-772.56 173 -750.12 173 -727 173 C-727 175.31 -727 177.62 -727 180 C-724.69 180 -722.38 180 -720 180 C-720 177.69 -720 175.38 -720 173 C-712.41 173 -704.82 173 -697 173 C-697 170.36 -697 167.72 -697 165 C-682.48 165 -667.96 165 -653 165 C-653 162.69 -653 160.38 -653 158 C-635.51 158 -618.02 158 -600 158 C-600 155.69 -600 153.38 -600 151 C-585.15 151 -570.3 151 -555 151 C-555 148.36 -555 145.72 -555 143 C-540.15 143 -525.3 143 -510 143 C-510 140.36 -510 137.72 -510 135 C-502.74 135 -495.48 135 -488 135 C-488 132.69 -488 130.38 -488 128 C-477.77 128 -467.54 128 -457 128 C-457 125.36 -457 122.72 -457 120 C-447.43 120 -437.86 120 -428 120 C-428 117.69 -428 115.38 -428 113 C-420.41 113 -412.82 113 -405 113 C-405 110.36 -405 107.72 -405 105 C-397.74 105 -390.48 105 -383 105 C-383 102.69 -383 100.38 -383 98 C-372.77 98 -362.54 98 -352 98 C-352 95.69 -352 93.38 -352 91 C-339.79 91 -327.58 91 -315 91 C-315 88.36 -315 85.72 -315 83 C-307.41 83 -299.82 83 -292 83 C-292 80.36 -292 77.72 -292 75 C-287.38 75 -282.76 75 -278 75 C-278 72.69 -278 70.38 -278 68 C-272.72 68 -267.44 68 -262 68 C-262 65.69 -262 63.38 -262 61 C-259.69 61 -257.38 61 -255 61 C-255 58.36 -255 55.72 -255 53 C-245.1 53 -235.2 53 -225 53 C-225 50.36 -225 47.72 -225 45 C-195.3 45 -165.6 45 -135 45 C-135 42.69 -135 40.38 -135 38 C-125.1 38 -115.2 38 -105 38 C-105 35.36 -105 32.72 -105 30 C-97.74 30 -90.48 30 -83 30 C-83 27.69 -83 25.38 -83 23 C-72.77 23 -62.54 23 -52 23 C-52 20.36 -52 17.72 -52 15 C-42.43 15 -32.86 15 -23 15 C-23 12.69 -23 10.38 -23 8 C-15.41 8 -7.82 8 0 8 C0 5.36 0 2.72 0 0 Z " fill="#ACCB6D" transform="translate(1800,532)"/>
<path d="M0 0 C22.44 0 44.88 0 68 0 C68 2.31 68 4.62 68 7 C62.72 7 57.44 7 52 7 C52 9.31 52 11.62 52 14 C49.69 14 47.38 14 45 14 C45 16.64 45 19.28 45 22 C42.36 22 39.72 22 37 22 C37 24.31 37 26.62 37 29 C22.48 29 7.96 29 -7 29 C-7 31.64 -7 34.28 -7 37 C-9.64 37 -12.28 37 -15 37 C-15 39.64 -15 42.28 -15 45 C-19.95 45 -24.9 45 -30 45 C-30 47.31 -30 49.62 -30 52 C-32.64 52 -35.28 52 -38 52 C-38 54.31 -38 56.62 -38 59 C-42.62 59.33 -47.24 59.66 -52 60 C-52.33 64.62 -52.66 69.24 -53 74 C-55.31 74 -57.62 74 -60 74 C-60 79.28 -60 84.56 -60 90 C-62.31 90 -64.62 90 -67 90 C-67 92.31 -67 94.62 -67 97 C-69.64 97 -72.28 97 -75 97 C-75 99.64 -75 102.28 -75 105 C-77.31 105 -79.62 105 -82 105 C-82 107.31 -82 109.62 -82 112 C-86.95 112 -91.9 112 -97 112 C-97 116.95 -97 121.9 -97 127 C-101.95 127 -106.9 127 -112 127 C-112 131.95 -112 136.9 -112 142 C-116.95 142 -121.9 142 -127 142 C-127 146.95 -127 151.9 -127 157 C-129.64 157 -132.28 157 -135 157 C-135 159.64 -135 162.28 -135 165 C-139.95 165 -144.9 165 -150 165 C-150 167.31 -150 169.62 -150 172 C-154.95 172 -159.9 172 -165 172 C-165 174.64 -165 177.28 -165 180 C-167.31 180 -169.62 180 -172 180 C-172 182.31 -172 184.62 -172 187 C-174.64 187 -177.28 187 -180 187 C-180 189.64 -180 192.28 -180 195 C-187.59 195 -195.18 195 -203 195 C-203 199.62 -203 204.24 -203 209 C-210.26 209 -217.52 209 -225 209 C-225 214.28 -225 219.56 -225 225 C-227.31 225 -229.62 225 -232 225 C-232 227.31 -232 229.62 -232 232 C-262.03 232 -292.06 232 -323 232 C-323 234.31 -323 236.62 -323 239 C-330.26 239 -337.52 239 -345 239 C-345 241.64 -345 244.28 -345 247 C-347.64 247 -350.28 247 -353 247 C-353 244.69 -353 242.38 -353 240 C-360.26 240 -367.52 240 -375 240 C-375 237.36 -375 234.72 -375 232 C-384.9 232 -394.8 232 -405 232 C-405 229.69 -405 227.38 -405 225 C-474.3 225 -543.6 225 -615 225 C-615 227.31 -615 229.62 -615 232 C-622.59 232 -630.18 232 -638 232 C-638 234.31 -638 236.62 -638 239 C-647.57 239 -657.14 239 -667 239 C-667 241.64 -667 244.28 -667 247 C-677.23 247 -687.46 247 -698 247 C-698 249.31 -698 251.62 -698 254 C-707.57 254 -717.14 254 -727 254 C-727 256.64 -727 259.28 -727 262 C-739.54 262 -752.08 262 -765 262 C-765 264.64 -765 267.28 -765 270 C-772.26 270 -779.52 270 -787 270 C-787 272.31 -787 274.62 -787 277 C-799.54 277 -812.08 277 -825 277 C-825 274.69 -825 272.38 -825 270 C-829.95 270 -834.9 270 -840 270 C-840 267.36 -840 264.72 -840 262 C-849.9 262 -859.8 262 -870 262 C-870 259.69 -870 257.38 -870 255 C-874.95 255 -879.9 255 -885 255 C-885 252.36 -885 249.72 -885 247 C-892.59 247 -900.18 247 -908 247 C-908 244.36 -908 241.72 -908 239 C-917.57 239 -927.14 239 -937 239 C-937 236.69 -937 234.38 -937 232 C-949.54 232 -962.08 232 -975 232 C-975 229.69 -975 227.38 -975 225 C-979.95 225 -984.9 225 -990 225 C-990 222.36 -990 219.72 -990 217 C-999.9 217 -1009.8 217 -1020 217 C-1020 214.69 -1020 212.38 -1020 210 C-1024.95 210 -1029.9 210 -1035 210 C-1035 207.36 -1035 204.72 -1035 202 C-1114.2 202 -1193.4 202 -1275 202 C-1275 204.64 -1275 207.28 -1275 210 C-1279.95 210 -1284.9 210 -1290 210 C-1290 212.31 -1290 214.62 -1290 217 C-1294.95 217 -1299.9 217 -1305 217 C-1305 219.64 -1305 222.28 -1305 225 C-1309.95 225 -1314.9 225 -1320 225 C-1320 227.31 -1320 229.62 -1320 232 C-1327.59 232 -1335.18 232 -1343 232 C-1343 234.31 -1343 236.62 -1343 239 C-1357.52 239 -1372.04 239 -1387 239 C-1387 241.64 -1387 244.28 -1387 247 C-1392.28 247 -1397.56 247 -1403 247 C-1403 249.31 -1403 251.62 -1403 254 C-1459.76 254 -1516.52 254 -1575 254 C-1575 226.94 -1575 199.88 -1575 172 C-1532.76 172 -1490.52 172 -1447 172 C-1447 169.69 -1447 167.38 -1447 165 C-1439.74 165 -1432.48 165 -1425 165 C-1425 162.36 -1425 159.72 -1425 157 C-1417.41 157 -1409.82 157 -1402 157 C-1402 154.69 -1402 152.38 -1402 150 C-1394.74 150 -1387.48 150 -1380 150 C-1380 147.36 -1380 144.72 -1380 142 C-1372.41 142 -1364.82 142 -1357 142 C-1357 139.36 -1357 136.72 -1357 134 C-1342.48 134 -1327.96 134 -1313 134 C-1313 131.69 -1313 129.38 -1313 127 C-1297.82 127 -1282.64 127 -1267 127 C-1267 124.36 -1267 121.72 -1267 119 C-1247.53 119 -1228.06 119 -1208 119 C-1208 116.69 -1208 114.38 -1208 112 C-1200.41 112 -1192.82 112 -1185 112 C-1185 109.69 -1185 107.38 -1185 105 C-1105.8 105 -1026.6 105 -945 105 C-945 107.31 -945 109.62 -945 112 C-940.05 112 -935.1 112 -930 112 C-930 114.64 -930 117.28 -930 120 C-925.05 120 -920.1 120 -915 120 C-915 122.31 -915 124.62 -915 127 C-910.05 127 -905.1 127 -900 127 C-900 129.64 -900 132.28 -900 135 C-880.2 135 -860.4 135 -840 135 C-840 132.36 -840 129.72 -840 127 C-827.46 127 -814.92 127 -802 127 C-802 124.69 -802 122.38 -802 120 C-794.74 120 -787.48 120 -780 120 C-780 117.36 -780 114.72 -780 112 C-755.25 112 -730.5 112 -705 112 C-705 114.64 -705 117.28 -705 120 C-660.45 120 -615.9 120 -570 120 C-570 122.31 -570 124.62 -570 127 C-547.56 127 -525.12 127 -502 127 C-502 129.31 -502 131.62 -502 134 C-499.69 134 -497.38 134 -495 134 C-495 131.69 -495 129.38 -495 127 C-487.41 127 -479.82 127 -472 127 C-472 124.36 -472 121.72 -472 119 C-457.48 119 -442.96 119 -428 119 C-428 116.69 -428 114.38 -428 112 C-410.51 112 -393.02 112 -375 112 C-375 109.69 -375 107.38 -375 105 C-360.15 105 -345.3 105 -330 105 C-330 102.36 -330 99.72 -330 97 C-315.15 97 -300.3 97 -285 97 C-285 94.36 -285 91.72 -285 89 C-277.74 89 -270.48 89 -263 89 C-263 86.69 -263 84.38 -263 82 C-252.77 82 -242.54 82 -232 82 C-232 79.36 -232 76.72 -232 74 C-222.43 74 -212.86 74 -203 74 C-203 71.69 -203 69.38 -203 67 C-195.41 67 -187.82 67 -180 67 C-180 64.36 -180 61.72 -180 59 C-172.74 59 -165.48 59 -158 59 C-158 56.69 -158 54.38 -158 52 C-147.77 52 -137.54 52 -127 52 C-127 49.69 -127 47.38 -127 45 C-114.79 45 -102.58 45 -90 45 C-90 42.36 -90 39.72 -90 37 C-82.41 37 -74.82 37 -67 37 C-67 34.36 -67 31.72 -67 29 C-62.38 29 -57.76 29 -53 29 C-53 26.69 -53 24.38 -53 22 C-47.72 22 -42.44 22 -37 22 C-37 19.69 -37 17.38 -37 15 C-34.69 15 -32.38 15 -30 15 C-30 12.36 -30 9.72 -30 7 C-20.1 7 -10.2 7 0 7 C0 4.69 0 2.38 0 0 Z " fill="#CDDF7F" transform="translate(1575,578)"/>
<path d="M0 0 C9.9 0 19.8 0 30 0 C30 2.64 30 5.28 30 8 C32.64 8 35.28 8 38 8 C38 17.9 38 27.8 38 38 C27.77 38 17.54 38 7 38 C7 35.69 7 33.38 7 31 C4.69 31 2.38 31 0 31 C0 20.77 0 10.54 0 0 Z " fill="#C9DB80" transform="translate(45,37)"/>
<path d="M0 0 C9.9 0 19.8 0 30 0 C30 9.9 30 19.8 30 30 C20.1 30 10.2 30 0 30 C0 20.1 0 10.2 0 0 Z " fill="#CEE080" transform="translate(1020,225)"/>
<path d="M0 0 C9.9 0 19.8 0 30 0 C30 9.9 30 19.8 30 30 C20.1 30 10.2 30 0 30 C0 20.1 0 10.2 0 0 Z " fill="#CEE080" transform="translate(1065,105)"/>
<path d="M0 0 C9.9 0 19.8 0 30 0 C30 9.9 30 19.8 30 30 C20.1 30 10.2 30 0 30 C0 20.1 0 10.2 0 0 Z " fill="#CEE080" transform="translate(1560,75)"/>
<path d="M0 0 C9.57 0 19.14 0 29 0 C29 9.9 29 19.8 29 30 C19.43 30 9.86 30 0 30 C0 20.1 0 10.2 0 0 Z " fill="#CEE080" transform="translate(68,525)"/>
<path d="M0 0 C9.57 0 19.14 0 29 0 C29 9.9 29 19.8 29 30 C19.43 30 9.86 30 0 30 C0 20.1 0 10.2 0 0 Z " fill="#CEE080" transform="translate(1328,450)"/>
<path d="M0 0 C9.57 0 19.14 0 29 0 C29 9.9 29 19.8 29 30 C19.43 30 9.86 30 0 30 C0 20.1 0 10.2 0 0 Z " fill="#CEE080" transform="translate(1823,405)"/>
<path d="M0 0 C9.57 0 19.14 0 29 0 C29 9.9 29 19.8 29 30 C19.43 30 9.86 30 0 30 C0 20.1 0 10.2 0 0 Z " fill="#CEE080" transform="translate(1733,255)"/>
<path d="M0 0 C9.9 0 19.8 0 30 0 C30 9.57 30 19.14 30 29 C20.1 29 10.2 29 0 29 C0 19.43 0 9.86 0 0 Z " fill="#CEE080" transform="translate(1830,113)"/>
<path d="M0 0 C9.9 0 19.8 0 30 0 C30 9.57 30 19.14 30 29 C20.1 29 10.2 29 0 29 C0 19.43 0 9.86 0 0 Z " fill="#CEE080" transform="translate(270,113)"/>
<path d="M0 0 C9.9 0 19.8 0 30 0 C30 9.57 30 19.14 30 29 C20.1 29 10.2 29 0 29 C0 19.43 0 9.86 0 0 Z " fill="#CEE080" transform="translate(480,53)"/>
<path d="M0 0 C9.57 0 19.14 0 29 0 C29 9.57 29 19.14 29 29 C19.43 29 9.86 29 0 29 C0 19.43 0 9.86 0 0 Z " fill="#CEE080" transform="translate(158,383)"/>
<path d="M0 0 C9.57 0 19.14 0 29 0 C29 9.57 29 19.14 29 29 C19.43 29 9.86 29 0 29 C0 19.43 0 9.86 0 0 Z " fill="#CEE080" transform="translate(608,323)"/>
<path d="M0 0 C9.57 0 19.14 0 29 0 C29 9.57 29 19.14 29 29 C19.43 29 9.86 29 0 29 C0 19.43 0 9.86 0 0 Z " fill="#CEE080" transform="translate(1298,308)"/>
<path d="M0 0 C9.57 0 19.14 0 29 0 C29 9.57 29 19.14 29 29 C19.43 29 9.86 29 0 29 C0 19.43 0 9.86 0 0 Z " fill="#CEE080" transform="translate(773,83)"/>
</svg>
