<svg width="180" height="180" viewBox="0 0 180 180" fill="none" xmlns="http://www.w3.org/2000/svg">
<path d="M163.541 75.3113H157.5V75H90V105H132.386C126.203 122.464 109.586 135 90 135C65.1488 135 45 114.851 45 90C45 65.1488 65.1488 45 90 45C101.471 45 111.908 49.3275 119.854 56.3963L141.068 35.1825C127.673 22.6988 109.755 15 90 15C48.5813 15 15 48.5813 15 90C15 131.419 48.5813 165 90 165C131.419 165 165 131.419 165 90C165 84.9713 164.483 80.0625 163.541 75.3113Z" fill="#FFC107"/>
<path d="M23.6465 55.0912L48.2877 73.1625C54.9552 56.655 71.1027 45 89.999 45C101.47 45 111.906 49.3275 119.853 56.3962L141.066 35.1825C127.671 22.6987 109.754 15 89.999 15C61.1915 15 36.209 31.2637 23.6465 55.0912Z" fill="#FF3D00"/>
<path d="M90.0012 165C109.374 165 126.976 157.586 140.285 145.53L117.072 125.888C109.291 131.809 99.7796 135.011 90.0012 135C70.4937 135 53.9299 122.561 47.6899 105.203L23.2324 124.046C35.6449 148.335 60.8524 165 90.0012 165Z" fill="#4CAF50"/>
<path d="M163.541 75.3113H157.5V75H90V105H132.386C129.428 113.312 124.1 120.574 117.06 125.891L117.071 125.884L140.284 145.526C138.641 147.019 165 127.5 165 90C165 84.9713 164.483 80.0625 163.541 75.3113Z" fill="#1976D2"/>
</svg>
