<svg width="153" height="82" viewBox="0 0 153 82" fill="none" xmlns="http://www.w3.org/2000/svg">
<path d="M46.2256 52.289C47.4605 51.61 49.3574 51.2135 50.6623 51.6859C54.4583 53.06 53.4672 55.5541 58.1876 55.9206C57.7944 56.1686 57.0626 56.4069 56.5992 56.4624C53.6591 56.8142 52.9978 54.8073 51.1254 53.3578C49.7015 52.2553 47.959 52.0315 46.2256 52.289Z" fill="white"/>
<path d="M31.5582 52.3213C31.3279 53.2756 30.9207 54.6925 30.7775 55.6066C29.9472 60.9026 30.1882 67.1527 33.089 71.805C35.3973 75.507 38.4908 78.0578 42.7777 79.0348C43.8796 79.2859 44.7212 79.3696 45.8021 79.546C44.833 79.4393 44.7021 80.0302 43.9165 80.0149C43.1874 80.0013 41.7094 79.4564 40.9914 79.6259C35.8219 78.6572 31.7702 73.8564 30.3627 69.0005C28.8904 63.921 29.0041 57.0228 31.5582 52.3213Z" fill="white"/>
<path d="M40.9609 79.6016C41.6789 79.4321 43.1569 79.977 43.886 79.9906C44.6716 80.0058 44.8025 79.415 45.7716 79.5217C47.8052 79.7116 49.2437 79.7458 51.3018 79.688C50.7798 80.0283 48.944 79.957 48.2028 80.0179L48.3534 80.0419C48.0764 80.0339 47.7657 79.9986 47.5159 80.1011C47.9016 80.2285 48.6657 80.1964 49.1137 80.2637C46.9114 80.5528 43.0736 80.1948 40.9609 79.6016Z" fill="white"/>
<path d="M50.9573 79.6753C51.321 79.5803 53.5816 79.3558 53.9944 79.3433C52.453 79.9259 50.419 80.3031 48.7692 80.251C48.3211 80.1838 47.557 80.2158 47.1714 80.0885C47.4212 79.986 47.7319 80.0212 48.0088 80.0292L47.8583 80.0052C48.5995 79.9443 50.4353 80.0156 50.9573 79.6753Z" fill="white"/>
<path d="M131.391 46.274C132.035 44.8628 133.007 43.4041 134.549 42.9519C137.762 42.009 141.451 42.6854 142.698 46.0582C142.903 46.619 143.026 47.2067 143.063 47.8029C143.142 49.0928 143.073 50.9419 143.069 52.2778L143.068 60.2778L143.071 67.9924C143.072 69.3307 143.135 70.704 143.048 72.0354C142.783 76.1597 140.336 78.2583 136.637 79.3452C135.455 79.1516 134.988 79.4848 133.477 79.0472C130.336 78.2528 128.802 75.3054 127.119 72.8255L122.85 66.5611C122.27 65.7035 121.668 64.6265 120.954 63.8964C120.486 63.4171 119.537 63.8577 119.667 64.7C119.66 66.3856 119.666 68.0712 119.682 69.7568C119.7 72.6218 119.986 75.253 117.749 77.4602C116.625 78.5694 115.629 78.8843 114.13 79.3465C113.611 79.2863 113.065 79.3289 112.522 79.2658C111.135 79.1086 109.868 78.4052 109.002 77.3111C108.402 76.539 108.019 75.6212 107.892 74.6521C107.747 73.5795 107.798 71.926 107.8 70.7997L107.804 64.7087L107.802 55.2658C107.801 52.6611 107.712 50.5243 108.026 47.9313C108.551 46.7484 108.992 45.813 109.882 44.8499C111.966 42.5974 115.549 41.9873 118.34 43.2352C119.218 43.6331 120.008 44.2021 120.665 44.909C121.562 45.8645 122.683 47.6588 123.469 48.8086L128.117 55.6373C128.614 56.3723 129.497 57.9233 130.154 58.3898C130.608 58.3461 131.136 58.2057 131.156 57.6484C131.196 56.4918 131.173 55.3248 131.168 54.1664L131.157 47.1496C131.464 46.9033 131.678 46.8079 131.589 46.4011L131.391 46.274ZM117.077 75.6796C118.272 74.0242 118.006 72.2182 118.002 70.2785C118.006 68.4053 117.995 66.5321 117.969 64.6589C118.268 62.8918 119.153 61.9305 121.041 62.2014C122.285 62.3798 123.378 64.497 124.061 65.4909L128.596 72.1523C130.388 74.7874 131.698 77.5951 135.309 77.7022C137.183 77.7577 139.627 76.7655 140.427 74.9656C141.73 73.1166 141.381 69.9817 141.381 67.7582L141.383 61.2704L141.384 52.8034C141.384 51.2289 141.365 49.6485 141.359 48.0769C141.344 44.4902 137.523 43.2865 134.698 44.7524C132.316 46.0877 132.747 48.49 132.757 50.8283L132.78 55.6601C132.788 57.0463 133.023 58.7472 131.645 59.5794C131.062 59.9318 130.497 59.8421 129.913 59.9989C128.494 59.598 127.262 57.4245 126.449 56.2263L121.885 49.4991C121.161 48.4362 120.112 46.7065 119.261 45.8665C118.661 45.274 117.939 44.8177 117.146 44.5283C115.611 43.9551 114.281 44.1394 112.811 44.8068C108.772 46.6338 109.403 50.6939 109.402 54.4052V61.8249L109.405 69.4726C109.406 70.8483 109.231 74.3852 109.743 75.4882C111.225 78.6859 115.29 78.1684 117.077 75.6796Z" fill="#99CC43" fill-opacity="0.92549"/>
<path d="M129.913 59.9989C130.497 59.8421 131.062 59.9318 131.645 59.5794C133.023 58.7472 132.788 57.0464 132.78 55.6601L132.757 50.8283C132.747 48.49 132.316 46.0877 134.698 44.7524C136.649 45.0707 138.147 44.7263 139.647 46.726C139.94 47.1162 140.39 48.0001 140.434 48.4541C140.62 50.3939 140.532 52.6103 140.528 54.5683L140.532 69.5703C140.532 71.0062 140.54 72.4442 140.508 73.8802C140.502 74.1386 140.409 74.781 140.427 74.9656C139.627 76.7655 137.183 77.7578 135.309 77.7022C131.698 77.5951 130.388 74.7874 128.596 72.1523L124.061 65.4909C123.378 64.4971 122.285 62.3799 121.041 62.2014C119.153 61.9306 118.268 62.8918 117.969 64.659C116.83 65.351 117.122 67.8073 117.126 69.0336L117.14 73.4925C117.142 74.0383 117.174 75.1873 117.078 75.6797C115.29 78.1685 111.225 78.6859 109.743 75.4883C109.231 74.3852 109.406 70.8483 109.405 69.4726L109.402 61.8249V54.4052C109.403 50.6939 108.772 46.6339 112.811 44.8068C113.082 44.826 113.392 44.8641 113.657 44.8714C117.752 44.9839 119.181 47.9083 121.275 50.9981L125.394 57.0675C125.953 57.8996 126.505 58.7376 127.07 59.5657C127.424 60.086 127.806 60.586 128.484 60.6078C128.955 60.623 129.638 60.3963 129.913 59.9989Z" fill="white"/>
<path d="M76.8374 49.393C77.3616 48.325 77.7918 47.4071 78.477 46.4306C81.0919 42.7041 86.2529 41.5714 90.3009 43.5786C91.7399 44.2779 92.9595 45.3586 93.8267 46.7031C94.9494 48.4694 96.0857 52.1863 96.8945 54.2878C98.1534 57.5333 99.385 60.7892 100.59 64.0551C101.285 65.8994 101.975 67.8043 102.675 69.631C104.131 73.4255 102.445 77.3788 98.6787 78.9052C98.3207 79.0504 97.6 79.184 97.2989 79.3552C96.5102 79.2323 95.9432 79.389 95.0776 79.176C91.2122 78.3281 93.1933 73.0171 88.7626 73.4994C86.5452 73.7407 83.214 72.9841 81.2945 74.13C78.5227 75.5595 80.2895 78.6321 75.7103 79.3643C75.4024 79.2863 74.9438 79.2983 74.6073 79.2584C70.953 78.8248 68.3569 75.3802 68.8034 71.74C69.0158 70.0076 69.8948 68.1277 70.539 66.427L74.9112 54.7709C75.3166 53.6872 76.6497 50.3837 76.8302 49.4329L76.8374 49.393ZM100.572 75.3555C101.414 74.4955 101.716 72.4527 101.419 71.3084C101.058 69.9176 100.458 68.4609 99.9471 67.1079L97.5311 60.6859L94.5002 52.6231C93.8628 50.9406 93.2806 49.1491 92.3821 47.5867C90.7926 44.8233 86.0407 43.1615 83.1867 44.8662C79.6116 45.7517 78.4664 50.0302 77.3575 53.0095L74.576 60.411L71.9623 67.3556C71.456 68.7022 70.9649 70.0114 70.5197 71.3811C69.8226 73.5255 71.0604 75.9336 72.9316 77.0372C74.3782 77.8904 76.9212 78.1955 77.7158 76.3047C78.5484 74.3235 79.4314 72.8111 81.6549 72.1963C83.7065 71.6455 87.6295 71.9552 89.8869 71.9511C90.4859 71.9785 90.976 72.2012 91.4925 72.4102C94.079 73.4563 93.0051 77.0191 95.6461 77.632C97.2701 78.0091 99.7437 76.9782 100.511 75.49C100.534 75.4464 100.554 75.4015 100.572 75.3555Z" fill="#99CB43" fill-opacity="0.929412"/>
<path d="M100.572 75.3555C100.554 75.4014 100.534 75.4464 100.511 75.49C99.7435 76.9782 97.2699 78.009 95.6459 77.6319C93.005 77.0191 94.0788 73.4563 91.4923 72.4101C90.9758 72.2012 90.4857 71.9785 89.8867 71.9511C87.6293 71.9552 83.7063 71.6455 81.6547 72.1963C79.4312 72.8111 78.5482 74.3234 77.7156 76.3047C76.921 78.1954 74.378 77.8904 72.9315 77.0372C71.0602 75.9336 69.8224 73.5254 70.5195 71.3811C70.9647 70.0114 71.4559 68.7022 71.9621 67.3556L74.5759 60.411L77.3573 53.0095C78.4662 50.0302 79.6114 45.7516 83.1866 44.8662C84.6808 44.9155 85.7331 44.8563 87.1889 45.3465C91.4715 46.7889 92.3619 50.4087 93.7625 54.1932L96.1849 60.6481L98.9323 67.9642C99.4977 69.4753 100.1 70.9594 100.558 72.5078C100.882 73.6031 100.791 74.2812 100.572 75.3555ZM83.4468 57.7243C82.5468 58.6236 82.1312 61.1296 81.6915 62.3879C81.0637 64.1864 79.8851 66.8646 83.0376 66.6252C84.238 66.5435 85.9989 66.8475 87.0464 66.2908L87.1473 66.1433L87.08 66.0065C87.7526 65.9947 88.2788 65.9633 88.8857 65.6414C89.4271 65.3566 89.8291 64.8632 89.998 64.2754C90.2551 63.3746 88.2259 57.3193 87.7398 56.154C87.5901 55.7939 86.8526 55.271 86.3777 55.1521C85.8572 55.027 85.3087 55.114 84.853 55.3939C84.0154 55.8989 83.6614 56.8168 83.4468 57.7243Z" fill="white"/>
<path d="M83.4469 57.7242C83.6615 56.8168 84.0154 55.8988 84.8531 55.3938C85.3087 55.114 85.8572 55.0269 86.3777 55.152C86.8526 55.2709 87.5901 55.7938 87.7399 56.1539C88.2259 57.3192 90.2551 63.3745 89.9981 64.2753C89.8291 64.8632 89.4271 65.3565 88.8858 65.6413C88.2788 65.9632 87.7527 65.9947 87.08 66.0064C85.3631 65.9999 81.3488 66.4748 81.766 63.5332C82.0191 61.7451 82.8751 59.4898 83.4469 57.7242ZM87.3235 64.3736C87.8247 64.3995 88.1363 64.3763 88.3965 63.9246C88.3076 62.8833 86.7277 57.3736 86.1359 56.8318C85.979 56.6882 85.8965 56.6749 85.6963 56.6826C85.3263 56.9544 85.2807 57.3449 85.1782 57.783C84.7826 58.757 84.5055 59.9588 84.1812 60.9752C83.9281 61.7705 83.2867 63.4086 83.5422 64.1632C83.9826 64.5388 86.5627 64.3833 87.3235 64.3736Z" fill="#98CB42" fill-opacity="0.913725"/>
<path d="M85.1782 57.7832C85.2807 57.3451 85.3264 56.9547 85.6963 56.6829C85.8965 56.6751 85.979 56.6884 86.136 56.8321C86.7277 57.3739 88.3077 62.8836 88.3966 63.9249C88.1363 64.3765 87.8248 64.3998 87.3235 64.3738C87.0745 63.446 85.6307 58.3389 85.1782 57.7832Z" fill="white"/>
<path d="M31.4375 52.5208C33.4533 48.1706 36.2313 44.7201 41.0163 43.1661C46.1358 41.5035 52.8734 41.4806 57.8556 43.7312C61.4243 45.3433 64.4275 48.7173 62.6243 52.8143C61.7427 54.8173 60.0791 55.5329 58.0669 56.1201C53.3465 55.7536 54.3377 53.2595 50.5416 51.8854C49.2368 51.413 47.3398 51.8095 46.1049 52.4885C43.6127 53.3826 42.9233 57.0774 42.7899 59.3198C42.435 65.2833 43.3757 71.8507 51.1216 69.7267C53.603 69.0367 53.7118 65.86 56.1313 65.0389C57.7708 64.428 59.3696 64.2223 61.0232 64.9582C62.3887 65.5532 63.4553 66.6754 63.9803 68.0693C65.8554 73.0107 60.4092 77.4474 56.3004 78.9268C55.7806 79.1139 54.7757 79.4942 54.2488 79.5798C53.836 79.5923 51.5753 79.8168 51.2116 79.9118C49.1535 79.9697 47.715 79.9355 45.6814 79.7455C44.6005 79.5691 43.7589 79.4854 42.6571 79.2343C38.3701 78.2574 35.2766 75.7065 32.9683 72.0045C30.0675 67.3522 29.8265 61.1021 30.6568 55.8061C30.8 54.892 31.2072 53.4751 31.4375 52.5208ZM61.861 72.6548C63.7222 70.2267 62.4023 66.838 59.537 66.1517C58.5546 65.9248 57.5222 66.1021 56.6717 66.6438C54.8803 67.6403 54.7872 69.3069 53.1781 70.4932C52.42 71.0522 51.5809 71.2953 50.6858 71.5527C50.5492 71.592 50.077 71.6968 49.9993 71.7456C48.916 71.8167 47.8127 71.8093 46.7507 71.5628C45.0322 71.164 43.5571 70.2457 42.6196 68.729C40.6325 65.5144 40.8199 59.1953 41.6763 55.6043C42.0378 54.6835 42.5674 53.5738 43.1961 52.8111C44.4465 51.2811 46.2607 50.3195 48.2288 50.1434C50.2631 49.9535 52.3296 50.5142 53.8364 51.9472C54.3798 52.464 54.9282 53.2216 55.5036 53.6911C56.1992 54.2628 57.0977 54.5265 57.992 54.4214C59.0855 54.299 59.9247 53.7673 60.5984 52.925C60.8128 52.7168 61.1239 52.1207 61.2326 51.8421C62.5729 48.4079 58.9494 45.9073 56.2223 44.8358C52.8967 43.5292 49.0698 43.366 45.5548 43.8523C44.4423 44.0062 43.3033 44.1413 42.2672 44.5895C41.9997 44.5867 41.5675 44.7656 41.2906 44.8616C34.8065 47.1087 32.0091 53.2994 31.8595 59.772C31.6393 65.2375 32.7464 70.1474 36.6791 74.173C40.0408 77.6143 44.2285 78.1736 48.813 78.3165C53.6441 78.4672 59.2304 77.156 61.861 72.6548Z" fill="#99CB43" fill-opacity="0.92549"/>
<path d="M42.2673 44.5894L42.3408 44.5881C43.7616 44.557 45.2653 44.2798 46.7666 44.2669C51.0325 44.2301 55.5746 44.9989 58.8216 47.997C60.4065 49.4619 60.8058 50.7926 60.5985 52.9248C59.9248 53.7672 59.0856 54.2989 57.9921 54.4213C57.0978 54.5264 56.1994 54.2627 55.5037 53.691C54.9284 53.2215 54.3799 52.4639 53.8366 51.9471C52.3297 50.5141 50.2632 49.9534 48.2289 50.1433C46.2608 50.3193 44.4466 51.281 43.1962 52.811C42.5676 53.5737 42.0379 54.6834 41.6765 55.6042C40.0652 57.4939 40.196 62.3547 40.3046 64.5982C40.5572 69.8138 42.8611 73.0147 48.3859 72.3189C49.0105 72.2402 49.4921 72.1495 49.9994 71.7454C50.0771 71.6967 50.5493 71.5919 50.6859 71.5525C51.581 71.2952 52.4201 71.052 53.1782 70.4931C54.7873 69.3067 54.8805 67.6402 56.6718 66.6437C58.5242 66.9862 59.759 67.1363 61.0158 68.854C61.822 69.9558 61.8729 71.333 61.8611 72.6547C59.2306 77.1558 53.6442 78.4671 48.8131 78.3164C44.2286 78.1735 40.041 77.6142 36.6792 74.1728C32.7466 70.1472 31.6394 65.2373 31.8596 59.7718C32.0093 53.2993 34.8066 47.1086 41.2907 44.8614C41.5676 44.7654 41.9998 44.5866 42.2673 44.5894Z" fill="white"/>
<path d="M12.6968 48.9879C12.713 47.86 14.0672 45.7197 14.9327 44.8816C16.3246 43.5564 18.1812 42.8309 20.1027 42.8613C21.9995 42.8943 23.9053 43.772 25.2115 45.142C26.5192 46.5344 27.2241 48.3869 27.1729 50.2965C27.1294 51.8702 26.9914 53.4848 26.9455 55.0681C26.8166 59.5177 26.8711 63.9598 27.1482 68.403C27.2587 70.2513 27.7623 72.8399 27.4895 74.5961C27.2438 76.143 26.4918 77.5647 25.3514 78.6386C24.4944 79.4463 22.8192 80.3848 21.6752 80.541C21.0543 80.581 20.4949 80.6083 19.8718 80.573C17.9551 80.4777 16.1574 79.6152 14.8827 78.1807C13.1245 76.2036 12.9766 74.3522 13.1216 71.8935C13.3842 70.0221 13.7731 61.8004 13.4388 60.2883C13.3602 57.3725 13.1277 54.6253 12.7821 51.7281C12.6842 50.9063 12.8074 49.8732 12.6968 48.9879ZM25.4161 75.7126C26.1369 74.7227 25.9562 72.8263 25.8288 71.6277C25.7313 69.9605 25.4794 68.2939 25.4461 66.6092C25.4286 65.7253 25.3821 64.6985 25.2558 63.8346C25.3546 59.6534 25.1597 55.7061 25.4769 51.4508C26.3908 47.1313 21.8144 42.8819 17.8914 44.962C15.9467 45.3784 14.2478 47.9543 14.3071 49.8957C14.3659 51.8172 14.6405 53.7718 14.8134 55.6959C15.0538 58.5223 15.1729 61.3576 15.1703 64.1942C15.1622 65.975 15.0966 67.755 14.9736 69.5315C14.8707 71.081 14.4929 73.2243 14.8104 74.6711C15.132 76.0973 16.008 77.3369 17.245 78.1163C18.5347 78.9359 19.9599 79.2545 21.4708 78.918C23.0435 78.5677 24.9278 77.3315 25.4161 75.7126Z" fill="white"/>
<path d="M17.7709 45.1616C21.6233 45.3413 24.4878 47.2958 24.8477 51.3481C24.8543 53.1739 24.4917 55.3735 24.5497 57.1367C24.6439 59.9999 24.255 63.804 24.6571 66.5671C24.6573 67.2806 24.9601 72.8171 25.1392 73.3213C25.2314 74.1323 25.3701 75.1125 25.2956 75.9122C24.8073 77.5311 22.9229 78.7673 21.3502 79.1175C19.8393 79.454 18.4141 79.1355 17.1244 78.3159C15.8874 77.5365 15.0115 76.2969 14.6898 74.8707C14.3723 73.4239 14.7502 71.2806 14.8531 69.7311C14.9761 67.9546 15.0416 66.1746 15.0497 64.3938C15.0523 61.5572 14.9332 58.7219 14.6928 55.8955C14.5199 53.9713 14.2453 52.0168 14.1866 50.0953C14.1272 48.1539 15.8261 45.5779 17.7709 45.1616Z" fill="#98CB42" fill-opacity="0.886275"/>
<path d="M24.8475 51.3477C24.9914 51.4546 25.1912 51.6348 25.3561 51.65C25.0388 55.9053 25.2338 59.8526 25.1349 64.0338C25.108 63.9296 24.9297 63.1983 24.901 63.1534C24.8773 64.0516 24.8111 64.818 24.698 65.7051C24.6628 65.9813 24.6996 66.2868 24.6569 66.5667C24.2548 63.8036 24.6437 59.9995 24.5495 57.1363C24.4915 55.3731 24.854 53.1735 24.8475 51.3477Z" fill="black" fill-opacity="0.0705882"/>
<path d="M25.7082 71.8271C25.8356 73.0258 26.0163 74.9222 25.2956 75.9121C25.3701 75.1124 25.2314 74.1322 25.1392 73.3212C25.5247 73.4263 25.3976 73.3449 25.6349 73.745C25.6871 73.685 25.6871 72.0635 25.7082 71.8271Z" fill="black" fill-opacity="0.105882"/>
<path d="M20.8086 24.1172C21.5362 24.375 21.7767 24.5498 22.4407 24.925L22.3911 25.1743C22.6247 25.4809 22.983 26.0098 23.4026 26.0048L23.5937 25.787C23.7753 26.1052 24.1458 26.6948 24.2209 27.0251C23.8773 27.1994 23.8297 26.9256 23.4131 27.1686C23.2765 27.6557 23.8696 28.1498 24.2766 28.3255C23.8348 28.3773 23.1398 28.1852 22.859 28.3088C22.8064 28.5875 22.9053 28.8143 23.0591 29.0669C23.2306 29.1059 23.2889 29.112 23.4648 29.1183C23.563 29.3054 23.37 29.7298 23.5179 30.2231C23.3929 30.5272 23.3753 30.4401 23.4516 30.7082C23.6841 30.8851 23.7505 30.8971 24.0255 30.982L24.479 30.8799C23.9155 31.5171 22.2118 31.3828 22.3469 33.2285C22.4432 34.5435 23.5425 34.7169 24.6058 34.3579C24.4801 34.8484 24.1499 36.0097 24.0911 36.4702C21.5842 38.4735 18.2265 38.851 15.4789 37.081L15.6906 36.9868C17.2482 36.6059 18.661 36.2386 20.0438 35.4136C18.8846 34.8406 18.6459 34.5719 17.8953 33.5024C17.2771 32.6217 16.3812 31.7315 15.4436 31.1914L15.3924 30.908C15.7631 30.1955 15.265 30.2066 14.8953 29.7221C14.82 29.4235 14.9096 29.2845 15.0308 28.9988C15.3427 28.7194 15.6372 28.602 16.0905 28.7262C16.4828 28.8338 16.2064 29.2674 16.3563 29.582C16.5789 29.5599 16.9977 29.0839 17.2784 28.9855C17.5317 28.8966 18.286 29.1067 18.4203 29.0297C19.1841 28.5919 19.053 28.382 19.9382 28.0556C19.8189 27.7262 19.6648 27.3655 19.5331 27.037C20.0255 26.8404 20.0953 26.8532 20.3035 26.4144C20.2815 26.1447 20.3197 26.2481 20.148 26.0258C19.8847 25.9688 19.989 25.9567 19.7524 26.0613L19.6828 26.0556C19.4055 25.8341 19.1591 25.721 19.0426 25.4004C19.0398 25.073 19.3047 24.7148 19.4721 24.3859C20.0369 24.3186 20.2671 24.3192 20.8086 24.1172ZM21.7389 27.4786C21.934 27.3249 22.1857 27.1372 22.3652 26.9733C21.9038 26.1818 21.4527 25.5133 20.4182 25.5366C20.5117 26.0654 21.0599 26.1216 21.0351 26.4189C21.0121 26.694 20.6713 27.4082 20.7804 27.7483C21.1179 27.9731 21.4312 27.6773 21.7389 27.4786Z" fill="#2A3B91" fill-opacity="0.878431"/>
<path d="M20.418 25.5362C21.4524 25.513 21.9036 26.1814 22.3649 26.9729C22.1855 27.1368 21.9338 27.3245 21.7387 27.4783C21.431 27.677 21.1177 27.9728 20.7802 27.748C20.6711 27.4078 21.0118 26.6937 21.0348 26.4185C21.0596 26.1213 20.5114 26.0651 20.418 25.5362Z" fill="#98CB42" fill-opacity="0.917647"/>
<path d="M28.7429 11.6289C30.1506 11.709 31.768 13.3174 31.1423 14.7651C30.6775 15.8405 29.7144 17.1182 29.0411 18.1165L25.7176 23.0316C25.399 23.5018 25.2907 23.6101 24.8788 23.9932C24.5044 23.8388 24.1756 23.7294 23.9829 23.3687C23.7883 22.2079 26.1792 15.1213 26.5169 13.4577C26.741 12.3542 27.6919 11.9161 28.7429 11.6289Z" fill="white"/>
<path d="M6.32591 14.2009C7.7699 14.1496 8.40618 14.6436 9.19375 15.8077C10.8233 18.2162 12.5249 20.5831 14.1052 23.0238C14.6705 23.897 14.4486 24.1257 13.6681 24.5946C13.3515 24.4534 13.2141 24.3856 12.9247 24.1975C11.2567 22.8834 9.47907 21.6795 7.80434 20.3763C6.27887 19.1893 4.84683 18.6198 4.27539 16.6618C4.63026 15.2648 4.97229 14.7531 6.32591 14.2009Z" fill="white"/>
<path d="M21.0119 9.39821C21.6498 9.37291 22.0667 9.39477 22.6424 9.71965C23.2401 10.0569 23.8105 10.9956 23.7372 11.6876C23.4652 14.2527 22.5986 16.7813 22.0945 19.3157C21.9293 20.1462 21.6762 21.1582 21.4053 21.9571C20.3543 23.119 19.8625 21.8881 19.8037 20.8875C19.6201 17.7121 19.0684 14.5269 19.0139 11.3529C18.9967 10.3555 20.1115 9.57118 21.0119 9.39821Z" fill="white"/>
<path d="M34.6709 17.6289C35.7445 17.511 36.6218 18.0489 37.0846 18.9804C37.8065 20.3127 37.2182 21.5095 35.9473 22.2232C33.4851 23.6058 30.8818 24.7921 28.3876 26.1294C27.8842 26.4211 27.3859 26.8165 26.8317 26.7082C26.6181 26.5814 26.4074 26.4265 26.3202 26.1823C26.2518 25.9913 26.2765 25.8262 26.3704 25.6525C26.8218 24.8181 32.7479 18.7423 33.606 18.086C33.9231 17.8434 34.2939 17.7404 34.6709 17.6289Z" fill="white"/>
<path d="M12.7945 10.585C14.4578 10.4035 15.2896 11.2872 15.663 12.786C16.373 15.637 17.1073 18.4857 17.7638 21.3498C17.8453 21.7051 17.985 22.3111 17.6551 22.5927C17.1756 22.9654 16.7284 22.7573 16.4324 22.3735C15.3045 20.6631 14.1902 18.9436 13.0899 17.2153C11.9171 15.4049 9.47428 12.7474 11.8266 11.0213C12.1475 10.7859 12.4253 10.6989 12.7945 10.585Z" fill="white"/>
<path d="M38.0432 25.9712C39.6635 26.1408 40.1995 26.8756 40.5851 28.3826C40.211 29.725 39.7328 30.7748 38.1652 30.707C35.7547 30.6027 33.1048 30.5412 30.7188 30.28C29.9286 30.2577 27.9855 30.3712 27.5821 29.6723C27.4754 29.0437 27.6614 28.7622 28.2779 28.5495C29.3243 28.2215 30.4112 27.9389 31.4773 27.6726C33.6197 27.1375 35.8801 26.3619 38.0432 25.9712Z" fill="white"/>
<path d="M114.129 79.3468C111.179 80.5348 107.933 80.1024 107.043 76.3482C106.858 75.5745 106.971 73.657 106.972 72.7929L106.979 65.4909L106.976 55.6811C106.974 53.1114 106.55 50.1205 108.026 47.9316C107.711 50.5247 107.801 52.6615 107.802 55.2662L107.803 64.709L107.799 70.8001C107.798 71.9264 107.746 73.5799 107.891 74.6525C108.019 75.6216 108.401 76.5394 109.001 77.3115C109.868 78.4055 111.135 79.109 112.522 79.2661C113.064 79.3292 113.611 79.2867 114.129 79.3468Z" fill="white"/>
<path d="M15.4785 37.0812C14.2116 36.6419 12.7158 34.1444 12.3516 32.8663C11.2794 29.1035 13.6106 24.9597 17.4483 24.0187C17.9983 23.8838 19.2753 23.5689 19.7652 23.8391C20.1075 24.1637 20.1884 24.1333 20.7163 24.1201L20.8082 24.1174C20.2667 24.3194 20.0365 24.3188 19.4717 24.3861C18.2985 24.5654 15.9077 26.1267 15.0557 27.0372C14.7108 27.4057 14.7362 28.1782 14.6362 28.6643L14.2538 29.5015C14.8216 30.3235 14.9111 30.4992 15.1585 31.4733C15.3686 32.5506 15.3779 32.8128 14.7993 33.8038L15.3772 34.3708C15.3283 35.6225 15.2604 35.8103 15.6902 36.987L15.4785 37.0812Z" fill="#2A3B91" fill-opacity="0.898039"/>
<path d="M119.667 64.7C119.536 63.8577 120.486 63.4171 120.954 63.8964C121.667 64.6265 122.27 65.7035 122.85 66.5611L127.119 72.8254C128.801 75.3054 130.336 78.2528 133.477 79.0472C132.219 79.6781 131.923 79.0007 130.91 79.3255C129.1 78.7669 127.292 75.6689 126.248 74.135L121.716 67.4719C121.259 66.8014 120.216 65.1534 119.667 64.7Z" fill="white"/>
<path d="M19.7651 23.8389C21.2584 24.0741 21.8811 24.084 23.2231 24.8044C27.2453 26.9635 28.0152 33.6954 24.1636 36.4198C24.1394 36.4368 24.1151 36.4537 24.0906 36.4702C24.1495 36.0097 24.4797 34.8484 24.6054 34.3579C23.5421 34.7169 22.4428 34.5436 22.3465 33.2285C22.2114 31.3829 23.915 31.5172 24.4785 30.88C24.7002 30.9233 24.8525 31.1427 25.0392 31.3296C25.3006 31.1537 25.7764 30.8793 25.9036 30.6164C25.7078 30.3652 25.2225 30.444 25.1285 30.3735C24.9207 30.2175 24.8029 30.0107 24.4469 29.8648C24.0977 30.0159 24.2192 30.5582 24.0251 30.982C23.7501 30.8971 23.6837 30.8852 23.4511 30.7082C23.3749 30.4401 23.3924 30.5272 23.5174 30.2232C23.674 29.8786 23.7228 29.3735 23.8872 29.0493C24.0045 28.8183 24.4426 28.6827 24.5628 28.3954L24.4953 28.3093L24.2762 28.3256C23.8691 28.1499 23.2761 27.6557 23.4127 27.1687C23.8293 26.9256 23.8769 27.1994 24.2204 27.0251C24.1453 26.6949 23.7749 26.1052 23.5933 25.787C23.1944 25.3764 22.9201 25.212 22.4403 24.925C21.7763 24.5499 21.5357 24.3751 20.8082 24.1172L20.7162 24.1199C20.1884 24.1331 20.1075 24.1635 19.7651 23.8389Z" fill="#98CB42" fill-opacity="0.917647"/>
<path d="M75.7104 79.3644C74.0713 80.3554 72.1058 80.0125 70.5362 79.0389C68.4963 77.7739 67.3017 74.8749 68.0517 72.5642C68.4905 71.2124 69.0273 69.8573 69.5326 68.5127L72.4547 60.7192L75.0881 53.7279C75.4494 52.7585 76.3411 50.1617 76.8376 49.3931L76.8303 49.4329C76.6498 50.3838 75.3167 53.6873 74.9113 54.771L70.5391 66.427C69.895 68.1277 69.016 70.0077 68.8035 71.7401C68.3571 75.3803 70.9531 78.8249 74.6075 79.2584C74.944 79.2984 75.4026 79.2864 75.7104 79.3644Z" fill="white"/>
<path d="M81.2944 74.1298C83.2139 72.9839 86.5452 73.7405 88.7625 73.4992C93.1932 73.0169 91.2121 78.3279 95.0775 79.1758C95.9431 79.3888 96.5101 79.2321 97.2989 79.355C95.7533 79.9037 93.6473 80.52 92.2771 79.1463C90.911 77.7774 91.108 74.6944 88.656 74.3212C86.2905 73.9612 83.7088 74.1984 81.2944 74.1298Z" fill="white"/>
<path d="M14.6362 28.6639C14.7362 28.1778 14.7108 27.4053 15.0557 27.0368C15.9077 26.1263 18.2985 24.565 19.4717 24.3857C19.3043 24.7146 19.0394 25.0728 19.0421 25.4003C19.1587 25.7208 19.4051 25.834 19.6824 26.0554C18.8544 26.9584 18.2033 25.5381 18.452 27.7372C19.0002 27.2727 19.7455 26.8329 19.752 26.0611C19.9886 25.9566 19.8843 25.9686 20.1476 26.0256C20.3193 26.2479 20.2811 26.1445 20.303 26.4142C20.0949 26.853 20.0251 26.8402 19.5327 27.0368C19.6643 27.3653 19.8185 27.726 19.9378 28.0554C19.0525 28.3818 19.1836 28.5917 18.4199 29.0295C18.2856 29.1065 17.5313 28.8965 17.278 28.9853C16.9973 29.0837 16.5785 29.5597 16.3558 29.5819C16.206 29.2672 16.4824 28.8336 16.09 28.7261C15.6367 28.6018 15.3423 28.7193 15.0304 28.9986C14.8793 28.717 14.9576 28.8053 14.6362 28.6639Z" fill="#98CB42" fill-opacity="0.901961"/>
<path d="M15.4437 31.1914C16.3813 31.7315 17.2772 32.6218 17.8954 33.5025C18.646 34.5719 18.8847 34.8406 20.044 35.4136C18.6611 36.2387 17.2483 36.6059 15.6908 36.9868C15.261 35.8101 15.3288 35.6224 15.3777 34.3706L14.7998 33.8036C15.3784 32.8126 15.3691 32.5504 15.159 31.4731C15.2868 31.3999 15.3495 31.3048 15.4437 31.1914Z" fill="#98CB42" fill-opacity="0.894118"/>
<path d="M12.5759 49.187C12.6865 50.0723 12.5634 51.1054 12.6613 51.9272C13.0068 54.8244 13.2394 57.5717 13.318 60.4874C13.6523 61.9995 13.2634 70.2212 13.0008 72.0926C12.8936 72.2522 12.8203 72.3613 12.6955 72.5098C12.5815 72.4003 12.5776 72.2556 12.5493 72.0961C12.7846 71.4133 12.7488 70.1483 12.7661 69.3709C12.8144 67.7173 12.8275 66.0627 12.8052 64.4084C12.7835 63.4267 12.6932 62.4404 12.6795 61.4694C12.6331 58.2957 12.2495 55.355 11.9724 52.2112C11.894 51.3218 11.9593 49.8821 12.5759 49.187Z" fill="#98CB42" fill-opacity="0.984314"/>
<path d="M13.0011 72.0928C12.8561 74.5514 13.004 76.4028 14.7622 78.3799C16.0369 79.8145 17.8346 80.677 19.7513 80.7723C20.3744 80.8075 20.9338 80.7803 21.5547 80.7403C20.194 81.2976 19.3696 81.5234 17.8761 81.3368C16.1889 81.1342 14.652 80.2678 13.6059 78.9285C11.9755 76.813 12.2126 74.6305 12.5496 72.0962C12.578 72.2557 12.5818 72.4004 12.6959 72.51C12.8207 72.3614 12.894 72.2524 13.0011 72.0928Z" fill="#98CB42" fill-opacity="0.952941"/>
<path d="M130.154 58.3898C130.218 56.4789 130.214 54.5888 130.214 52.6767C130.215 50.3138 129.943 48.7922 131.174 46.6792L131.157 47.1497L131.168 54.1664C131.173 55.3248 131.196 56.4918 131.156 57.6485C131.136 58.2057 130.608 58.3462 130.154 58.3898Z" fill="white"/>
<path d="M130.91 79.3256C131.923 79.0008 132.219 79.6783 133.477 79.0474C134.988 79.4849 135.455 79.1517 136.637 79.3453L136.495 79.4003C134.523 80.151 132.872 80.2087 130.91 79.3256Z" fill="white"/>
<path d="M24.0254 30.9819C24.2195 30.5581 24.098 30.0159 24.4472 29.8647C24.8033 30.0106 24.9211 30.2174 25.1289 30.3734C25.2228 30.444 25.7082 30.3651 25.9039 30.6163C25.7768 30.8793 25.301 31.1536 25.0395 31.3295C24.8528 31.1426 24.7005 30.9232 24.4789 30.8799L24.0254 30.9819Z" fill="#2A3B91" fill-opacity="0.909804"/>
<path d="M23.5179 30.2232C23.37 29.7298 23.5629 29.3055 23.4648 29.1183C23.2889 29.112 23.2305 29.1059 23.0591 29.0669C22.9053 28.8144 22.8064 28.5875 22.859 28.3088C23.1398 28.1853 23.8348 28.3774 24.2766 28.3256L24.4957 28.3093L24.5632 28.3954C24.443 28.6827 24.0049 28.8183 23.8877 29.0493C23.7232 29.3735 23.6744 29.8786 23.5179 30.2232Z" fill="#2A3B91" fill-opacity="0.905882"/>
<path d="M14.6364 28.6641C14.9577 28.8055 14.8795 28.7172 15.0305 28.9988C14.9093 29.2845 14.8197 29.4234 14.895 29.7221C15.2647 30.2066 15.7628 30.1955 15.3921 30.9079L15.4433 31.1913C15.3491 31.3047 15.2864 31.3999 15.1586 31.473C14.9113 30.499 14.8217 30.3233 14.2539 29.5013L14.6364 28.6641Z" fill="#98CB42" fill-opacity="0.909804"/>
<path d="M19.6825 26.0557L19.7521 26.0614C19.7456 26.8332 19.0003 27.273 18.4521 27.7375C18.2034 25.5384 18.8545 26.9587 19.6825 26.0557Z" fill="#2A3B91" fill-opacity="0.894118"/>
<path d="M22.4408 24.9248C22.9205 25.2117 23.1949 25.3762 23.5937 25.7868L23.4026 26.0046C22.983 26.0096 22.6247 25.4807 22.3911 25.1741L22.4408 24.9248Z" fill="#2A3B91" fill-opacity="0.807843"/>
<path d="M131.391 46.2739L131.589 46.401C131.678 46.8078 131.464 46.9033 131.157 47.1496L131.174 46.6791L131.391 46.2739Z" fill="#98CB42" fill-opacity="0.980392"/>
</svg>
