<svg width="153" height="82" viewBox="0 0 153 82" fill="none" xmlns="http://www.w3.org/2000/svg">
<g clip-path="url(#clip0_17202_18937)">
<path d="M46.2256 52.2891C47.4605 51.6101 49.3574 51.2136 50.6623 51.686C54.4583 53.0601 53.4672 55.5542 58.1876 55.9207C57.7944 56.1687 57.0626 56.407 56.5992 56.4625C53.6591 56.8142 52.9978 54.8074 51.1254 53.3579C49.7015 52.2554 47.959 52.0316 46.2256 52.2891Z" fill="white"/>
<path d="M31.5582 52.3214C31.3279 53.2757 30.9207 54.6926 30.7775 55.6067C29.9472 60.9027 30.1882 67.1528 33.089 71.8051C35.3973 75.507 38.4908 78.0579 42.7777 79.0349C43.8796 79.286 44.7212 79.3697 45.8021 79.5461C44.833 79.4393 44.7021 80.0302 43.9165 80.015C43.1874 80.0014 41.7094 79.4565 40.9914 79.626C35.8219 78.6573 31.7702 73.8565 30.3627 69.0006C28.8904 63.9211 29.0041 57.0228 31.5582 52.3214Z" fill="white"/>
<path d="M40.9609 79.6017C41.6789 79.4322 43.1569 79.9772 43.886 79.9908C44.6716 80.006 44.8025 79.4151 45.7716 79.5218C47.8052 79.7118 49.2437 79.746 51.3018 79.6881C50.7798 80.0284 48.944 79.9571 48.2028 80.018L48.3534 80.042C48.0764 80.034 47.7657 79.9988 47.5159 80.1013C47.9016 80.2286 48.6657 80.1966 49.1137 80.2638C46.9114 80.5529 43.0736 80.195 40.9609 79.6017Z" fill="white"/>
<path d="M50.9573 79.6753C51.321 79.5803 53.5816 79.3557 53.9944 79.3433C52.453 79.9259 50.419 80.3031 48.7692 80.251C48.3211 80.1838 47.557 80.2158 47.1714 80.0885C47.4212 79.986 47.7319 80.0212 48.0088 80.0292L47.8583 80.0052C48.5995 79.9443 50.4353 80.0156 50.9573 79.6753Z" fill="white"/>
<path d="M131.391 46.2741C132.035 44.8629 133.007 43.4042 134.549 42.952C137.762 42.0091 141.451 42.6855 142.698 46.0583C142.903 46.6191 143.026 47.2068 143.063 47.803C143.142 49.0929 143.073 50.942 143.069 52.2779L143.068 60.2779L143.071 67.9925C143.072 69.3308 143.135 70.7041 143.048 72.0355C142.783 76.1598 140.336 78.2584 136.637 79.3453C135.455 79.1516 134.988 79.4849 133.477 79.0473C130.336 78.2529 128.802 75.3055 127.119 72.8256L122.85 66.5612C122.27 65.7036 121.668 64.6266 120.954 63.8965C120.486 63.4172 119.537 63.8578 119.667 64.7001C119.66 66.3857 119.666 68.0713 119.682 69.7569C119.7 72.6219 119.986 75.253 117.749 77.4603C116.625 78.5695 115.629 78.8843 114.13 79.3466C113.611 79.2864 113.065 79.3289 112.522 79.2658C111.135 79.1087 109.868 78.4052 109.002 77.3112C108.402 76.5391 108.019 75.6213 107.892 74.6522C107.747 73.5796 107.798 71.9261 107.8 70.7998L107.804 64.7088L107.802 55.2659C107.801 52.6612 107.712 50.5244 108.026 47.9314C108.551 46.7485 108.992 45.813 109.882 44.8499C111.966 42.5975 115.549 41.9874 118.34 43.2353C119.218 43.6332 120.008 44.2022 120.665 44.909C121.562 45.8645 122.683 47.6588 123.469 48.8087L128.117 55.6374C128.614 56.3724 129.497 57.9233 130.154 58.3899C130.608 58.3462 131.136 58.2058 131.156 57.6485C131.196 56.4919 131.173 55.3249 131.168 54.1665L131.157 47.1497C131.464 46.9034 131.678 46.8079 131.589 46.4011L131.391 46.2741ZM117.077 75.6797C118.272 74.0242 118.006 72.2183 118.002 70.2786C118.006 68.4054 117.995 66.5321 117.969 64.659C118.268 62.8919 119.153 61.9306 121.041 62.2014C122.285 62.3799 123.378 64.4971 124.061 65.491L128.596 72.1523C130.388 74.7875 131.698 77.5952 135.309 77.7022C137.183 77.7578 139.627 76.7656 140.427 74.9656C141.73 73.1167 141.381 69.9818 141.381 67.7583L141.383 61.2704L141.384 52.8035C141.384 51.229 141.365 49.6486 141.359 48.077C141.344 44.4902 137.523 43.2866 134.698 44.7525C132.316 46.0878 132.747 48.4901 132.757 50.8283L132.78 55.6602C132.788 57.0464 133.023 58.7473 131.645 59.5794C131.062 59.9319 130.497 59.8422 129.913 59.999C128.494 59.5981 127.262 57.4246 126.449 56.2264L121.885 49.4992C121.161 48.4363 120.112 46.7066 119.261 45.8665C118.661 45.2741 117.939 44.8178 117.146 44.5284C115.611 43.9552 114.281 44.1395 112.811 44.8069C108.772 46.6339 109.403 50.694 109.402 54.4053V61.825L109.405 69.4727C109.406 70.8484 109.231 74.3852 109.743 75.4883C111.225 78.686 115.29 78.1685 117.077 75.6797Z" fill="#99CC43" fill-opacity="0.92549"/>
<path d="M129.913 59.999C130.497 59.8422 131.062 59.9319 131.645 59.5795C133.023 58.7473 132.788 57.0465 132.78 55.6602L132.757 50.8284C132.747 48.4901 132.316 46.0879 134.698 44.7526C136.649 45.0708 138.147 44.7265 139.647 46.7262C139.94 47.1163 140.39 48.0002 140.434 48.4543C140.62 50.3941 140.532 52.6105 140.528 54.5685L140.532 69.5704C140.532 71.0063 140.54 72.4443 140.508 73.8803C140.502 74.1388 140.409 74.7811 140.427 74.9657C139.627 76.7656 137.183 77.7579 135.309 77.7023C131.698 77.5952 130.388 74.7876 128.596 72.1524L124.061 65.491C123.378 64.4972 122.285 62.38 121.041 62.2015C119.153 61.9307 118.268 62.8919 117.969 64.6591C116.83 65.3511 117.122 67.8074 117.126 69.0337L117.14 73.4926C117.142 74.0384 117.174 75.1874 117.078 75.6798C115.29 78.1686 111.225 78.6861 109.743 75.4884C109.231 74.3853 109.406 70.8484 109.405 69.4728L109.402 61.8251V54.4053C109.403 50.694 108.772 46.634 112.811 44.8069C113.082 44.8262 113.392 44.8643 113.657 44.8716C117.752 44.984 119.181 47.9084 121.275 50.9982L125.394 57.0676C125.953 57.8997 126.505 58.7377 127.07 59.5658C127.424 60.0861 127.806 60.5861 128.484 60.608C128.955 60.6232 129.638 60.3965 129.913 59.999Z" fill="white"/>
<path d="M76.8374 49.393C77.3616 48.325 77.7918 47.4071 78.477 46.4306C81.0919 42.7041 86.2529 41.5714 90.3009 43.5786C91.7399 44.2779 92.9595 45.3586 93.8267 46.7031C94.9494 48.4694 96.0857 52.1863 96.8945 54.2877C98.1534 57.5333 99.385 60.7892 100.59 64.0551C101.285 65.8994 101.975 67.8043 102.675 69.631C104.131 73.4255 102.445 77.3788 98.6787 78.9052C98.3207 79.0504 97.6 79.184 97.2989 79.3552C96.5102 79.2323 95.9432 79.389 95.0776 79.176C91.2122 78.3281 93.1933 73.0171 88.7626 73.4994C86.5452 73.7407 83.214 72.9841 81.2945 74.13C78.5227 75.5595 80.2895 78.6321 75.7103 79.3643C75.4024 79.2863 74.9438 79.2983 74.6073 79.2583C70.953 78.8248 68.3569 75.3802 68.8034 71.74C69.0158 70.0076 69.8948 68.1276 70.539 66.4269L74.9112 54.7709C75.3166 53.6872 76.6497 50.3837 76.8302 49.4328L76.8374 49.393ZM100.572 75.3555C101.414 74.4955 101.716 72.4527 101.419 71.3084C101.058 69.9176 100.458 68.4608 99.9471 67.1078L97.5311 60.6859L94.5002 52.6231C93.8628 50.9406 93.2806 49.1491 92.3821 47.5866C90.7926 44.8233 86.0407 43.1615 83.1867 44.8662C79.6116 45.7517 78.4664 50.0302 77.3575 53.0095L74.576 60.411L71.9623 67.3556C71.456 68.7022 70.9649 70.0114 70.5197 71.3811C69.8226 73.5255 71.0604 75.9336 72.9316 77.0372C74.3782 77.8904 76.9212 78.1955 77.7158 76.3047C78.5484 74.3235 79.4314 72.8111 81.6549 72.1963C83.7065 71.6455 87.6295 71.9552 89.8869 71.9511C90.4859 71.9785 90.976 72.2012 91.4925 72.4101C94.079 73.4563 93.0051 77.0191 95.6461 77.632C97.2701 78.009 99.7437 76.9782 100.511 75.49C100.534 75.4464 100.554 75.4015 100.572 75.3555Z" fill="#99CB43" fill-opacity="0.929412"/>
<path d="M100.572 75.3554C100.554 75.4013 100.534 75.4463 100.511 75.4899C99.7435 76.9781 97.2699 78.0089 95.6459 77.6318C93.005 77.019 94.0788 73.4562 91.4923 72.41C90.9758 72.2011 90.4857 71.9784 89.8867 71.951C87.6293 71.9551 83.7063 71.6454 81.6547 72.1962C79.4312 72.811 78.5482 74.3233 77.7156 76.3046C76.921 78.1953 74.378 77.8903 72.9315 77.0371C71.0602 75.9335 69.8224 73.5253 70.5195 71.381C70.9647 70.0113 71.4559 68.7021 71.9621 67.3555L74.5759 60.4109L77.3573 53.0094C78.4662 50.0301 79.6114 45.7515 83.1866 44.8661C84.6808 44.9154 85.7331 44.8562 87.1889 45.3464C91.4715 46.7888 92.3619 50.4086 93.7625 54.1931L96.1849 60.648L98.9323 67.9641C99.4977 69.4752 100.1 70.9593 100.558 72.5077C100.882 73.603 100.791 74.2811 100.572 75.3554ZM83.4468 57.7242C82.5468 58.6235 82.1312 61.1295 81.6915 62.3878C81.0637 64.1863 79.8851 66.8645 83.0376 66.6251C84.238 66.5434 85.9989 66.8474 87.0464 66.2907L87.1473 66.1432L87.08 66.0064C87.7526 65.9946 88.2788 65.9632 88.8857 65.6413C89.4271 65.3565 89.8291 64.8631 89.998 64.2753C90.2551 63.3745 88.2259 57.3192 87.7398 56.1539C87.5901 55.7938 86.8526 55.2709 86.3777 55.152C85.8572 55.0269 85.3087 55.1139 84.853 55.3938C84.0154 55.8988 83.6614 56.8167 83.4468 57.7242Z" fill="white"/>
<path d="M83.4469 57.7243C83.6615 56.8168 84.0154 55.8989 84.8531 55.3939C85.3087 55.114 85.8572 55.027 86.3777 55.1521C86.8526 55.271 87.5901 55.7939 87.7399 56.154C88.2259 57.3193 90.2551 63.3746 89.9981 64.2754C89.8291 64.8632 89.4271 65.3566 88.8858 65.6413C88.2788 65.9633 87.7527 65.9947 87.08 66.0065C85.3631 65.9999 81.3488 66.4749 81.766 63.5333C82.0191 61.7451 82.8751 59.4899 83.4469 57.7243ZM87.3235 64.3736C87.8247 64.3996 88.1363 64.3763 88.3965 63.9247C88.3076 62.8834 86.7277 57.3737 86.1359 56.8319C85.979 56.6882 85.8965 56.6749 85.6963 56.6827C85.3263 56.9545 85.2807 57.3449 85.1782 57.783C84.7826 58.7571 84.5055 59.9588 84.1812 60.9753C83.9281 61.7705 83.2867 63.4087 83.5422 64.1633C83.9826 64.5389 86.5627 64.3834 87.3235 64.3736Z" fill="#98CB42" fill-opacity="0.913725"/>
<path d="M85.1782 57.783C85.2807 57.3449 85.3264 56.9544 85.6963 56.6827C85.8965 56.6749 85.979 56.6882 86.136 56.8318C86.7277 57.3737 88.3077 62.8833 88.3966 63.9247C88.1363 64.3763 87.8248 64.3995 87.3235 64.3736C87.0745 63.4458 85.6307 58.3387 85.1782 57.783Z" fill="white"/>
<path d="M31.4375 52.5206C33.4533 48.1704 36.2313 44.7199 41.0163 43.1659C46.1358 41.5033 52.8734 41.4804 57.8556 43.731C61.4243 45.3431 64.4275 48.717 62.6243 52.8141C61.7427 54.8171 60.0791 55.5327 58.0669 56.1199C53.3465 55.7534 54.3377 53.2593 50.5416 51.8852C49.2368 51.4128 47.3398 51.8093 46.1049 52.4883C43.6127 53.3824 42.9233 57.0772 42.7899 59.3195C42.435 65.283 43.3757 71.8505 51.1216 69.7265C53.603 69.0365 53.7118 65.8598 56.1313 65.0387C57.7708 64.4278 59.3696 64.2221 61.0232 64.958C62.3887 65.553 63.4553 66.6752 63.9803 68.069C65.8554 73.0105 60.4092 77.4472 56.3004 78.9266C55.7806 79.1137 54.7757 79.494 54.2488 79.5796C53.836 79.592 51.5753 79.8166 51.2116 79.9116C49.1535 79.9695 47.715 79.9353 45.6814 79.7453C44.6005 79.5689 43.7589 79.4852 42.6571 79.2341C38.3701 78.2571 35.2766 75.7063 32.9683 72.0043C30.0675 67.352 29.8265 61.1019 30.6568 55.8059C30.8 54.8918 31.2072 53.4749 31.4375 52.5206ZM61.861 72.6546C63.7222 70.2265 62.4023 66.8378 59.537 66.1515C58.5546 65.9246 57.5222 66.1019 56.6717 66.6436C54.8803 67.6401 54.7872 69.3067 53.1781 70.493C52.42 71.052 51.5809 71.2951 50.6858 71.5524C50.5492 71.5918 50.077 71.6966 49.9993 71.7454C48.916 71.8165 47.8127 71.8091 46.7507 71.5626C45.0322 71.1638 43.5571 70.2455 42.6196 68.7288C40.6325 65.5142 40.8199 59.1951 41.6763 55.6041C42.0378 54.6833 42.5674 53.5736 43.1961 52.8109C44.4465 51.2809 46.2607 50.3193 48.2288 50.1432C50.2631 49.9533 52.3296 50.514 53.8364 51.947C54.3798 52.4638 54.9282 53.2214 55.5036 53.6909C56.1992 54.2626 57.0977 54.5263 57.992 54.4212C59.0855 54.2988 59.9247 53.7671 60.5984 52.9248C60.8128 52.7166 61.1239 52.1204 61.2326 51.8419C62.5729 48.4077 58.9494 45.9071 56.2223 44.8356C52.8967 43.5289 49.0698 43.3658 45.5548 43.8521C44.4423 44.006 43.3033 44.1411 42.2672 44.5893C41.9997 44.5865 41.5675 44.7653 41.2906 44.8614C34.8065 47.1085 32.0091 53.2992 31.8595 59.7718C31.6393 65.2372 32.7464 70.1472 36.6791 74.1728C40.0408 77.6141 44.2285 78.1734 48.813 78.3163C53.6441 78.467 59.2304 77.1558 61.861 72.6546Z" fill="#99CB43" fill-opacity="0.92549"/>
<path d="M42.2673 44.5893L42.3408 44.588C43.7616 44.5569 45.2653 44.2797 46.7666 44.2668C51.0325 44.23 55.5746 44.9988 58.8216 47.9969C60.4065 49.4618 60.8058 50.7925 60.5985 52.9247C59.9248 53.7671 59.0856 54.2988 57.9921 54.4212C57.0978 54.5263 56.1994 54.2626 55.5037 53.6909C54.9284 53.2214 54.3799 52.4638 53.8366 51.947C52.3297 50.514 50.2632 49.9533 48.2289 50.1432C46.2608 50.3192 44.4466 51.2809 43.1962 52.8109C42.5676 53.5736 42.0379 54.6833 41.6765 55.6041C40.0652 57.4938 40.196 62.3546 40.3046 64.5981C40.5572 69.8137 42.8611 73.0146 48.3859 72.3188C49.0105 72.2401 49.4921 72.1494 49.9994 71.7453C50.0771 71.6966 50.5493 71.5918 50.6859 71.5524C51.581 71.2951 52.4201 71.0519 53.1782 70.493C54.7873 69.3066 54.8805 67.6401 56.6718 66.6436C58.5242 66.9861 59.759 67.1362 61.0158 68.8539C61.822 69.9557 61.8729 71.3329 61.8611 72.6546C59.2306 77.1557 53.6442 78.467 48.8131 78.3163C44.2286 78.1734 40.041 77.6141 36.6792 74.1727C32.7466 70.1471 31.6394 65.2372 31.8596 59.7717C32.0093 53.2992 34.8066 47.1085 41.2907 44.8613C41.5676 44.7653 41.9998 44.5865 42.2673 44.5893Z" fill="white"/>
<path d="M12.6968 48.988C12.713 47.8601 14.0672 45.7197 14.9327 44.8817C16.3246 43.5565 18.1812 42.831 20.1027 42.8614C21.9995 42.8944 23.9053 43.7721 25.2115 45.1421C26.5192 46.5345 27.2241 48.387 27.1729 50.2966C27.1294 51.8703 26.9914 53.4848 26.9455 55.0682C26.8166 59.5178 26.8711 63.9599 27.1482 68.4031C27.2587 70.2514 27.7623 72.84 27.4895 74.5962C27.2438 76.1431 26.4918 77.5648 25.3514 78.6387C24.4944 79.4464 22.8192 80.3849 21.6752 80.5411C21.0543 80.5811 20.4949 80.6083 19.8718 80.5731C17.9551 80.4778 16.1574 79.6153 14.8827 78.1808C13.1245 76.2036 12.9766 74.3522 13.1216 71.8936C13.3842 70.0222 13.7731 61.8005 13.4388 60.2884C13.3602 57.3726 13.1277 54.6254 12.7821 51.7282C12.6842 50.9064 12.8074 49.8732 12.6968 48.988ZM25.4161 75.7127C26.1369 74.7228 25.9562 72.8263 25.8288 71.6277C25.7313 69.9606 25.4794 68.294 25.4461 66.6092C25.4286 65.7253 25.3821 64.6986 25.2558 63.8347C25.3546 59.6535 25.1597 55.7062 25.4769 51.4509C26.3908 47.1314 21.8144 42.882 17.8914 44.9621C15.9467 45.3784 14.2478 47.9544 14.3071 49.8958C14.3659 51.8173 14.6405 53.7718 14.8134 55.696C15.0538 58.5224 15.1729 61.3577 15.1703 64.1943C15.1622 65.9751 15.0966 67.7551 14.9736 69.5316C14.8707 71.0811 14.4929 73.2244 14.8104 74.6712C15.132 76.0974 16.008 77.337 17.245 78.1164C18.5347 78.936 19.9599 79.2545 21.4708 78.9181C23.0435 78.5678 24.9278 77.3316 25.4161 75.7127Z" fill="white"/>
<path d="M17.7709 45.1614C21.6233 45.3411 24.4878 47.2956 24.8477 51.3478C24.8543 53.1737 24.4917 55.3733 24.5497 57.1364C24.6439 59.9997 24.255 63.8037 24.6571 66.5668C24.6573 67.2804 24.9601 72.8169 25.1392 73.321C25.2314 74.1321 25.3701 75.1123 25.2956 75.912C24.8073 77.5309 22.9229 78.7671 21.3502 79.1173C19.8393 79.4538 18.4141 79.1353 17.1244 78.3157C15.8874 77.5363 15.0115 76.2967 14.6898 74.8705C14.3723 73.4237 14.7502 71.2804 14.8531 69.7309C14.9761 67.9544 15.0416 66.1744 15.0497 64.3936C15.0523 61.557 14.9332 58.7217 14.6928 55.8952C14.5199 53.9711 14.2453 52.0166 14.1866 50.0951C14.1272 48.1537 15.8261 45.5777 17.7709 45.1614Z" fill="#98CB42" fill-opacity="0.886275"/>
<path d="M24.8475 51.3478C24.9914 51.4547 25.1912 51.635 25.3561 51.6502C25.0388 55.9055 25.2338 59.8528 25.1349 64.034C25.108 63.9298 24.9297 63.1985 24.901 63.1536C24.8773 64.0517 24.8111 64.8182 24.698 65.7053C24.6628 65.9815 24.6996 66.287 24.6569 66.5668C24.2548 63.8037 24.6437 59.9997 24.5495 57.1364C24.4915 55.3733 24.854 53.1737 24.8475 51.3478Z" fill="black" fill-opacity="0.0705882"/>
<path d="M25.7082 71.827C25.8356 73.0256 26.0163 74.922 25.2956 75.912C25.3701 75.1123 25.2314 74.1321 25.1392 73.321C25.5247 73.4262 25.3976 73.3447 25.6349 73.7449C25.6871 73.6848 25.6871 72.0633 25.7082 71.827Z" fill="black" fill-opacity="0.105882"/>
<path d="M20.8086 24.1171C21.5362 24.375 21.7767 24.5498 22.4407 24.9249L22.3911 25.1742C22.6247 25.4808 22.983 26.0098 23.4026 26.0047L23.5937 25.7869C23.7753 26.1051 24.1458 26.6948 24.2209 27.025C23.8773 27.1993 23.8297 26.9255 23.4131 27.1686C23.2765 27.6556 23.8696 28.1498 24.2766 28.3255C23.8348 28.3773 23.1398 28.1852 22.859 28.3087C22.8064 28.5874 22.9053 28.8143 23.0591 29.0668C23.2306 29.1058 23.2889 29.1119 23.4648 29.1182C23.563 29.3054 23.37 29.7297 23.5179 30.2231C23.3929 30.5271 23.3753 30.44 23.4516 30.7081C23.6841 30.8851 23.7505 30.897 24.0255 30.9819L24.479 30.8799C23.9155 31.5171 22.2118 31.3828 22.3469 33.2284C22.4432 34.5435 23.5425 34.7168 24.6058 34.3578C24.4801 34.8483 24.1499 36.0096 24.0911 36.4701C21.5842 38.4734 18.2265 38.8509 15.4789 37.0809L15.6906 36.9867C17.2482 36.6058 18.661 36.2385 20.0438 35.4135C18.8846 34.8405 18.6459 34.5718 17.8953 33.5024C17.2771 32.6217 16.3812 31.7314 15.4436 31.1913L15.3924 30.9079C15.7631 30.1954 15.265 30.2066 14.8953 29.722C14.82 29.4234 14.9096 29.2845 15.0308 28.9988C15.3427 28.7194 15.6372 28.6019 16.0905 28.7262C16.4828 28.8337 16.2064 29.2673 16.3563 29.582C16.5789 29.5598 16.9977 29.0838 17.2784 28.9854C17.5317 28.8966 18.286 29.1066 18.4203 29.0296C19.1841 28.5918 19.053 28.3819 19.9382 28.0555C19.8189 27.7262 19.6648 27.3654 19.5331 27.0369C20.0255 26.8403 20.0953 26.8531 20.3035 26.4143C20.2815 26.1446 20.3197 26.248 20.148 26.0257C19.8847 25.9688 19.989 25.9567 19.7524 26.0613L19.6828 26.0555C19.4055 25.8341 19.1591 25.7209 19.0426 25.4004C19.0398 25.0729 19.3047 24.7147 19.4721 24.3859C20.0369 24.3185 20.2671 24.3192 20.8086 24.1171ZM21.7389 27.4786C21.934 27.3248 22.1857 27.1371 22.3652 26.9732C21.9038 26.1817 21.4527 25.5133 20.4182 25.5365C20.5117 26.0653 21.0599 26.1216 21.0351 26.4188C21.0121 26.694 20.6713 27.4081 20.7804 27.7483C21.1179 27.973 21.4312 27.6772 21.7389 27.4786Z" fill="#2A3B91" fill-opacity="0.878431"/>
<path d="M20.418 25.5364C21.4524 25.5132 21.9036 26.1816 22.3649 26.9731C22.1855 27.137 21.9338 27.3247 21.7387 27.4785C21.431 27.6772 21.1177 27.973 20.7802 27.7482C20.6711 27.408 21.0118 26.6939 21.0348 26.4187C21.0596 26.1215 20.5114 26.0653 20.418 25.5364Z" fill="#98CB42" fill-opacity="0.917647"/>
<path d="M28.7429 11.629C30.1506 11.7091 31.768 13.3175 31.1423 14.7652C30.6775 15.8406 29.7144 17.1183 29.0411 18.1166L25.7176 23.0317C25.399 23.5019 25.2907 23.6102 24.8788 23.9933C24.5044 23.8389 24.1756 23.7295 23.9829 23.3688C23.7883 22.208 26.1792 15.1214 26.5169 13.4578C26.741 12.3543 27.6919 11.9162 28.7429 11.629Z" fill="white"/>
<path d="M6.32591 14.201C7.7699 14.1498 8.40618 14.6438 9.19375 15.8079C10.8233 18.2164 12.5249 20.5833 14.1052 23.024C14.6705 23.8971 14.4486 24.1258 13.6681 24.5948C13.3515 24.4536 13.2141 24.3858 12.9247 24.1977C11.2567 22.8836 9.47907 21.6797 7.80434 20.3765C6.27887 19.1895 4.84683 18.62 4.27539 16.662C4.63026 15.265 4.97229 14.7533 6.32591 14.201Z" fill="white"/>
<path d="M21.0119 9.398C21.6498 9.37269 22.0667 9.39456 22.6424 9.71943C23.2401 10.0567 23.8105 10.9954 23.7372 11.6874C23.4652 14.2525 22.5986 16.7811 22.0945 19.3155C21.9293 20.146 21.6762 21.158 21.4053 21.9569C20.3543 23.1187 19.8625 21.8879 19.8037 20.8873C19.6201 17.7119 19.0684 14.5267 19.0139 11.3527C18.9967 10.3553 20.1115 9.57097 21.0119 9.398Z" fill="white"/>
<path d="M34.6709 17.6291C35.7445 17.5112 36.6218 18.0491 37.0846 18.9806C37.8065 20.3129 37.2182 21.5097 35.9473 22.2234C33.4851 23.606 30.8818 24.7923 28.3876 26.1296C27.8842 26.4212 27.3859 26.8167 26.8317 26.7084C26.6181 26.5815 26.4074 26.4267 26.3202 26.1825C26.2518 25.9915 26.2765 25.8264 26.3704 25.6527C26.8218 24.8182 32.7479 18.7425 33.606 18.0861C33.9231 17.8436 34.2939 17.7406 34.6709 17.6291Z" fill="white"/>
<path d="M12.7945 10.585C14.4578 10.4036 15.2896 11.2872 15.663 12.7861C16.373 15.637 17.1073 18.4857 17.7638 21.3498C17.8453 21.7052 17.985 22.3111 17.6551 22.5927C17.1756 22.9654 16.7284 22.7573 16.4324 22.3735C15.3045 20.6631 14.1902 18.9437 13.0899 17.2153C11.9171 15.4049 9.47428 12.7475 11.8266 11.0214C12.1475 10.7859 12.4253 10.699 12.7945 10.585Z" fill="white"/>
<path d="M38.0432 25.971C39.6635 26.1406 40.1995 26.8754 40.5851 28.3824C40.211 29.7248 39.7328 30.7746 38.1652 30.7068C35.7547 30.6025 33.1048 30.5409 30.7188 30.2798C29.9286 30.2575 27.9855 30.371 27.5821 29.6721C27.4754 29.0435 27.6614 28.7619 28.2779 28.5492C29.3243 28.2213 30.4112 27.9386 31.4773 27.6724C33.6197 27.1373 35.8801 26.3617 38.0432 25.971Z" fill="white"/>
<path d="M114.129 79.3467C111.179 80.5346 107.933 80.1022 107.043 76.348C106.858 75.5743 106.971 73.6568 106.972 72.7927L106.979 65.4907L106.976 55.6809C106.974 53.1112 106.55 50.1203 108.026 47.9314C107.711 50.5245 107.801 52.6613 107.802 55.266L107.803 64.7089L107.799 70.7999C107.798 71.9262 107.746 73.5797 107.891 74.6523C108.019 75.6214 108.401 76.5392 109.001 77.3113C109.868 78.4053 111.135 79.1088 112.522 79.2659C113.064 79.329 113.611 79.2865 114.129 79.3467Z" fill="white"/>
<path d="M15.4785 37.0809C14.2116 36.6416 12.7158 34.1442 12.3516 32.866C11.2794 29.1032 13.6106 24.9595 17.4483 24.0184C17.9983 23.8836 19.2753 23.5686 19.7652 23.8388C20.1075 24.1635 20.1884 24.133 20.7163 24.1199L20.8082 24.1172C20.2667 24.3192 20.0365 24.3186 19.4717 24.3859C18.2985 24.5651 15.9077 26.1265 15.0557 27.037C14.7108 27.4055 14.7362 28.1779 14.6362 28.6641L14.2538 29.5013C14.8216 30.3233 14.9111 30.499 15.1585 31.4731C15.3686 32.5504 15.3779 32.8125 14.7993 33.8036L15.3772 34.3705C15.3283 35.6223 15.2604 35.81 15.6902 36.9868L15.4785 37.0809Z" fill="#2A3B91" fill-opacity="0.898039"/>
<path d="M119.667 64.7001C119.536 63.8578 120.486 63.4172 120.954 63.8965C121.667 64.6266 122.27 65.7036 122.85 66.5612L127.119 72.8256C128.801 75.3055 130.336 78.2529 133.477 79.0473C132.219 79.6783 131.923 79.0008 130.91 79.3256C129.1 78.7671 127.292 75.669 126.248 74.1351L121.716 67.472C121.259 66.8015 120.216 65.1535 119.667 64.7001Z" fill="white"/>
<path d="M19.7651 23.8387C21.2584 24.0739 21.8811 24.0838 23.2231 24.8042C27.2453 26.9634 28.0152 33.6952 24.1636 36.4196C24.1394 36.4367 24.1151 36.4535 24.0906 36.4701C24.1495 36.0096 24.4797 34.8483 24.6054 34.3578C23.5421 34.7168 22.4428 34.5434 22.3465 33.2284C22.2114 31.3827 23.915 31.517 24.4785 30.8798C24.7002 30.9232 24.8525 31.1426 25.0392 31.3295C25.3006 31.1535 25.7764 30.8792 25.9036 30.6162C25.7078 30.365 25.2225 30.4439 25.1285 30.3733C24.9207 30.2173 24.8029 30.0106 24.4469 29.8647C24.0977 30.0158 24.2192 30.5581 24.0251 30.9819C23.7501 30.897 23.6837 30.885 23.4511 30.7081C23.3749 30.44 23.3924 30.5271 23.5174 30.223C23.674 29.8785 23.7228 29.3733 23.8872 29.0492C24.0045 28.8181 24.4426 28.6826 24.5628 28.3952L24.4953 28.3092L24.2762 28.3254C23.8691 28.1497 23.2761 27.6556 23.4127 27.1685C23.8293 26.9255 23.8769 27.1993 24.2204 27.025C24.1453 26.6947 23.7749 26.1051 23.5933 25.7869C23.1944 25.3763 22.9201 25.2118 22.4403 24.9249C21.7763 24.5497 21.5357 24.3749 20.8082 24.1171L20.7162 24.1198C20.1884 24.1329 20.1075 24.1634 19.7651 23.8387Z" fill="#98CB42" fill-opacity="0.917647"/>
<path d="M75.7104 79.3642C74.0713 80.3552 72.1058 80.0123 70.5362 79.0388C68.4963 77.7737 67.3017 74.8747 68.0517 72.564C68.4905 71.2122 69.0273 69.8571 69.5326 68.5125L72.4547 60.719L75.0881 53.7277C75.4494 52.7583 76.3411 50.1615 76.8376 49.3929L76.8303 49.4328C76.6498 50.3836 75.3167 53.6871 74.9113 54.7708L70.5391 66.4269C69.895 68.1276 69.016 70.0075 68.8035 71.7399C68.3571 75.3801 70.9531 78.8247 74.6075 79.2583C74.944 79.2982 75.4026 79.2862 75.7104 79.3642Z" fill="white"/>
<path d="M81.2944 74.1299C83.2139 72.984 86.5452 73.7407 88.7625 73.4993C93.1932 73.017 91.2121 78.328 95.0775 79.176C95.9431 79.389 96.5101 79.2323 97.2989 79.3552C95.7533 79.9038 93.6473 80.5202 92.2771 79.1464C90.911 77.7776 91.108 74.6946 88.656 74.3214C86.2905 73.9614 83.7088 74.1985 81.2944 74.1299Z" fill="white"/>
<path d="M14.6362 28.664C14.7362 28.1778 14.7108 27.4054 15.0557 27.0369C15.9077 26.1264 18.2985 24.565 19.4717 24.3858C19.3043 24.7147 19.0394 25.0729 19.0421 25.4003C19.1587 25.7209 19.4051 25.834 19.6824 26.0555C18.8544 26.9585 18.2033 25.5382 18.452 27.7373C19.0002 27.2728 19.7455 26.833 19.752 26.0612C19.9886 25.9566 19.8843 25.9687 20.1476 26.0257C20.3193 26.248 20.2811 26.1446 20.303 26.4143C20.0949 26.8531 20.0251 26.8403 19.5327 27.0369C19.6643 27.3654 19.8185 27.7261 19.9378 28.0555C19.0525 28.3819 19.1836 28.5918 18.4199 29.0296C18.2856 29.1066 17.5313 28.8965 17.278 28.9854C16.9973 29.0838 16.5785 29.5598 16.3558 29.5819C16.206 29.2673 16.4824 28.8337 16.09 28.7261C15.6367 28.6019 15.3423 28.7193 15.0304 28.9987C14.8793 28.7171 14.9576 28.8054 14.6362 28.664Z" fill="#98CB42" fill-opacity="0.901961"/>
<path d="M15.4437 31.1914C16.3813 31.7315 17.2772 32.6217 17.8954 33.5024C18.646 34.5719 18.8847 34.8406 20.044 35.4136C18.6611 36.2386 17.2483 36.6059 15.6908 36.9868C15.261 35.81 15.3288 35.6223 15.3777 34.3706L14.7998 33.8036C15.3784 32.8125 15.3691 32.5504 15.159 31.4731C15.2868 31.3999 15.3495 31.3048 15.4437 31.1914Z" fill="#98CB42" fill-opacity="0.894118"/>
<path d="M12.5759 49.1872C12.6865 50.0725 12.5634 51.1056 12.6613 51.9274C13.0068 54.8246 13.2394 57.5719 13.318 60.4876C13.6523 61.9997 13.2634 70.2214 13.0008 72.0928C12.8936 72.2524 12.8203 72.3615 12.6955 72.51C12.5815 72.4005 12.5776 72.2558 12.5493 72.0963C12.7846 71.4134 12.7488 70.1485 12.7661 69.3711C12.8144 67.7174 12.8275 66.0629 12.8052 64.4086C12.7835 63.4269 12.6932 62.4406 12.6795 61.4696C12.6331 58.2959 12.2495 55.3552 11.9724 52.2113C11.894 51.322 11.9593 49.8823 12.5759 49.1872Z" fill="#98CB42" fill-opacity="0.984314"/>
<path d="M13.0011 72.0929C12.8561 74.5516 13.004 76.403 14.7622 78.3801C16.0369 79.8146 17.8346 80.6771 19.7513 80.7724C20.3744 80.8077 20.9338 80.7804 21.5547 80.7404C20.194 81.2977 19.3696 81.5236 17.8761 81.337C16.1889 81.1344 14.652 80.2679 13.6059 78.9286C11.9755 76.8131 12.2126 74.6306 12.5496 72.0964C12.578 72.2559 12.5818 72.4006 12.6959 72.5101C12.8207 72.3616 12.894 72.2525 13.0011 72.0929Z" fill="#98CB42" fill-opacity="0.952941"/>
<path d="M130.154 58.3899C130.218 56.479 130.214 54.5888 130.214 52.6768C130.215 50.3139 129.943 48.7923 131.174 46.6793L131.157 47.1497L131.168 54.1665C131.173 55.3249 131.196 56.4919 131.156 57.6485C131.136 58.2058 130.608 58.3463 130.154 58.3899Z" fill="white"/>
<path d="M130.91 79.3256C131.923 79.0008 132.219 79.6783 133.477 79.0474C134.988 79.4849 135.455 79.1517 136.637 79.3453L136.495 79.4003C134.523 80.151 132.872 80.2087 130.91 79.3256Z" fill="white"/>
<path d="M24.0254 30.9819C24.2195 30.5582 24.098 30.0159 24.4472 29.8648C24.8033 30.0107 24.9211 30.2174 25.1289 30.3734C25.2228 30.444 25.7082 30.3651 25.9039 30.6163C25.7768 30.8793 25.301 31.1536 25.0395 31.3296C24.8528 31.1427 24.7005 30.9232 24.4789 30.8799L24.0254 30.9819Z" fill="#2A3B91" fill-opacity="0.909804"/>
<path d="M23.5179 30.2231C23.37 29.7297 23.5629 29.3054 23.4648 29.1182C23.2889 29.1119 23.2305 29.1058 23.0591 29.0668C22.9053 28.8142 22.8064 28.5874 22.859 28.3087C23.1398 28.1852 23.8348 28.3773 24.2766 28.3255L24.4957 28.3092L24.5632 28.3953C24.443 28.6826 24.0049 28.8182 23.8877 29.0492C23.7232 29.3734 23.6744 29.8785 23.5179 30.2231Z" fill="#2A3B91" fill-opacity="0.905882"/>
<path d="M14.6364 28.6641C14.9577 28.8055 14.8795 28.7171 15.0305 28.9988C14.9093 29.2845 14.8197 29.4234 14.895 29.722C15.2647 30.2066 15.7628 30.1955 15.3921 30.9079L15.4433 31.1913C15.3491 31.3047 15.2864 31.3998 15.1586 31.473C14.9113 30.499 14.8217 30.3233 14.2539 29.5013L14.6364 28.6641Z" fill="#98CB42" fill-opacity="0.909804"/>
<path d="M19.6825 26.0556L19.7521 26.0613C19.7456 26.8331 19.0003 27.2729 18.4521 27.7374C18.2034 25.5384 18.8545 26.9586 19.6825 26.0556Z" fill="#2A3B91" fill-opacity="0.894118"/>
<path d="M22.4408 24.9249C22.9205 25.2119 23.1949 25.3763 23.5937 25.7869L23.4026 26.0047C22.983 26.0098 22.6247 25.4808 22.3911 25.1742L22.4408 24.9249Z" fill="#2A3B91" fill-opacity="0.807843"/>
<path d="M131.391 46.2741L131.589 46.4011C131.678 46.8079 131.464 46.9034 131.157 47.1497L131.174 46.6793L131.391 46.2741Z" fill="#98CB42" fill-opacity="0.980392"/>
</g>
<defs>
<clipPath id="clip0_17202_18937">
<rect width="152.789" height="82" fill="white"/>
</clipPath>
</defs>
</svg>
