<svg width="70" height="65" viewBox="0 0 70 65" fill="none" xmlns="http://www.w3.org/2000/svg">
<g id="ep:loading">
<path id="Vector" d="M35 4.5C35.5802 4.5 36.1366 4.71071 36.5468 5.08579C36.957 5.46086 37.1875 5.96957 37.1875 6.5V18.5C37.1875 19.0304 36.957 19.5391 36.5468 19.9142C36.1366 20.2893 35.5802 20.5 35 20.5C34.4198 20.5 33.8634 20.2893 33.4532 19.9142C33.043 19.5391 32.8125 19.0304 32.8125 18.5V6.5C32.8125 5.96957 33.043 5.46086 33.4532 5.08579C33.8634 4.71071 34.4198 4.5 35 4.5ZM35 44.5C35.5802 44.5 36.1366 44.7107 36.5468 45.0858C36.957 45.4609 37.1875 45.9696 37.1875 46.5V58.5C37.1875 59.0304 36.957 59.5391 36.5468 59.9142C36.1366 60.2893 35.5802 60.5 35 60.5C34.4198 60.5 33.8634 60.2893 33.4532 59.9142C33.043 59.5391 32.8125 59.0304 32.8125 58.5V46.5C32.8125 45.9696 33.043 45.4609 33.4532 45.0858C33.8634 44.7107 34.4198 44.5 35 44.5ZM65.625 32.5C65.625 33.0304 65.3945 33.5391 64.9843 33.9142C64.5741 34.2893 64.0177 34.5 63.4375 34.5H50.3125C49.7323 34.5 49.1759 34.2893 48.7657 33.9142C48.3555 33.5391 48.125 33.0304 48.125 32.5C48.125 31.9696 48.3555 31.4609 48.7657 31.0858C49.1759 30.7107 49.7323 30.5 50.3125 30.5H63.4375C64.0177 30.5 64.5741 30.7107 64.9843 31.0858C65.3945 31.4609 65.625 31.9696 65.625 32.5ZM21.875 32.5C21.875 33.0304 21.6445 33.5391 21.2343 33.9142C20.8241 34.2893 20.2677 34.5 19.6875 34.5H6.5625C5.98234 34.5 5.42594 34.2893 5.0157 33.9142C4.60547 33.5391 4.375 33.0304 4.375 32.5C4.375 31.9696 4.60547 31.4609 5.0157 31.0858C5.42594 30.7107 5.98234 30.5 6.5625 30.5H19.6875C20.2677 30.5 20.8241 30.7107 21.2343 31.0858C21.6445 31.4609 21.875 31.9696 21.875 32.5ZM13.3438 12.7C13.754 12.3251 14.3103 12.1144 14.8903 12.1144C15.4704 12.1144 16.0267 12.3251 16.4369 12.7L25.725 21.188C26.1235 21.5652 26.344 22.0704 26.339 22.5948C26.334 23.1192 26.1039 23.6208 25.6984 23.9916C25.2928 24.3625 24.7441 24.5728 24.1706 24.5773C23.597 24.5819 23.0444 24.3803 22.6319 24.016L13.3438 15.528C12.9337 15.1529 12.7033 14.6443 12.7033 14.114C12.7033 13.5837 12.9337 13.0751 13.3438 12.7ZM44.2794 40.984C44.6896 40.6091 45.2459 40.3984 45.8259 40.3984C46.406 40.3984 46.9623 40.6091 47.3725 40.984L56.6562 49.472C57.0547 49.8492 57.2752 50.3544 57.2702 50.8788C57.2652 51.4032 57.0352 51.9048 56.6296 52.2756C56.224 52.6465 55.6754 52.8568 55.1018 52.8613C54.5283 52.8659 53.9757 52.6643 53.5631 52.3L44.2794 43.812C43.8693 43.4369 43.6389 42.9283 43.6389 42.398C43.6389 41.8677 43.8693 41.3591 44.2794 40.984ZM56.6562 12.704C57.065 13.0789 57.2945 13.5867 57.2945 14.116C57.2945 14.6453 57.065 15.1531 56.6562 15.528L47.3725 24.02C46.9599 24.3843 46.4074 24.5859 45.8338 24.5813C45.2603 24.5768 44.7116 24.3665 44.306 23.9956C43.9004 23.6248 43.6704 23.1232 43.6654 22.5988C43.6604 22.0744 43.8809 21.5692 44.2794 21.192L53.5631 12.704C53.9733 12.3291 54.5296 12.1184 55.1097 12.1184C55.6897 12.1184 56.246 12.3291 56.6562 12.704ZM25.7206 40.984C26.1307 41.3591 26.3611 41.8677 26.3611 42.398C26.3611 42.9283 26.1307 43.4369 25.7206 43.812L16.4369 52.3C16.0243 52.6643 15.4717 52.8659 14.8982 52.8613C14.3246 52.8568 13.776 52.6465 13.3704 52.2756C12.9648 51.9048 12.7348 51.4032 12.7298 50.8788C12.7248 50.3544 12.9453 49.8492 13.3438 49.472L22.6275 40.984C23.0377 40.6091 23.594 40.3984 24.1741 40.3984C24.7541 40.3984 25.3104 40.6091 25.7206 40.984Z" fill="black"/>
</g>
</svg>
