<svg xmlns="http://www.w3.org/2000/svg" viewBox="201 201 90 90" fill="none">
  <circle cx="198.986" cy="280.247" r="10.7534" fill="#2C3694"/>
  <circle cx="198.987" cy="258.02" r="7.52741" fill="#2C3694"/>
  <circle cx="198.987" cy="241.279" r="5.26919" fill="#2C3694"/>
  <circle cx="198.987" cy="228.376" r="3.68843" fill="#2C3694"/>
  <circle cx="198.986" cy="218.16" r="2.5819" fill="#2C3694"/>
  <circle cx="222.493" cy="280.247" r="10.7534" fill="#2C3694"/>
  <circle cx="222.493" cy="258.02" r="7.52741" fill="#2C3694"/>
  <circle cx="222.494" cy="241.279" r="5.26919" fill="#2C3694"/>
  <circle cx="222.493" cy="228.376" r="3.68843" fill="#2C3694"/>
  <circle cx="222.493" cy="218.16" r="2.5819" fill="#2C3694"/>
  <circle cx="222.493" cy="209.825" r="1.80733" fill="#2C3694"/>
  <circle cx="222.493" cy="202.265" r="1.26513" fill="#2C3694"/>
  <circle cx="246" cy="280.247" r="10.7534" fill="#2C3694"/>
  <circle cx="246" cy="258.02" r="7.52741" fill="#2C3694"/>
  <circle cx="246" cy="241.279" r="5.26919" fill="#2C3694"/>
  <circle cx="246" cy="228.376" r="3.68843" fill="#2C3694"/>
  <circle cx="246" cy="218.16" r="2.5819" fill="#2C3694"/>
  <circle cx="246" cy="209.825" r="1.80733" fill="#2C3694"/>
  <circle cx="246" cy="202.265" r="1.26513" fill="#2C3694"/>
  <circle cx="269.507" cy="280.247" r="10.7534" fill="#2C3694"/>
  <circle cx="269.508" cy="258.02" r="7.52741" fill="#2C3694"/>
  <circle cx="269.507" cy="241.279" r="5.26919" fill="#2C3694"/>
  <circle cx="269.507" cy="228.376" r="3.68843" fill="#2C3694"/>
  <circle cx="269.507" cy="218.16" r="2.5819" fill="#2C3694"/>
  <circle cx="269.507" cy="209.825" r="1.80733" fill="#2C3694"/>
  <circle cx="269.508" cy="202.265" r="1.26513" fill="#2C3694"/>
  <circle cx="293.014" cy="280.247" r="10.7534" fill="#2C3694"/>
  <circle cx="293.014" cy="258.02" r="7.52741" fill="#2C3694"/>
  <circle cx="293.014" cy="241.279" r="5.26919" fill="#2C3694"/>
  <circle cx="293.014" cy="228.376" r="3.68843" fill="#2C3694"/>
  <circle cx="293.014" cy="218.16" r="2.5819" fill="#2C3694"/>
</svg>
