<svg xmlns="http://www.w3.org/2000/svg" viewBox="0 0 100 100" fill="none">
  <rect x="8" y="8" width="18" height="18" rx="2" fill="#2C3694"/>
  <rect x="40" y="8" width="18" height="18" rx="2" fill="#2C3694"/>
  <rect x="72" y="8" width="18" height="18" rx="2" fill="#2C3694"/>
  <rect x="24" y="24" width="18" height="18" rx="2" fill="#2C3694"/>
  <rect x="56" y="24" width="18" height="18" rx="2" fill="#2C3694"/>
  <rect x="8" y="40" width="18" height="18" rx="2" fill="#2C3694"/>
  <rect x="40" y="40" width="18" height="18" rx="2" fill="#2C3694"/>
  <rect x="72" y="40" width="18" height="18" rx="2" fill="#2C3694"/>
  <rect x="24" y="56" width="18" height="18" rx="2" fill="#2C3694"/>
  <rect x="56" y="56" width="18" height="18" rx="2" fill="#2C3694"/>
  <rect x="8" y="72" width="18" height="18" rx="2" fill="#2C3694"/>
  <rect x="40" y="72" width="18" height="18" rx="2" fill="#2C3694"/>
  <rect x="72" y="72" width="18" height="18" rx="2" fill="#2C3694"/>
</svg>
