<svg width="124" height="84" viewBox="0 0 124 84" fill="none" xmlns="http://www.w3.org/2000/svg">
<g clip-path="url(#clip0_16517_4462)">
<path d="M45.6667 55.9997C45.06 55.9997 44.5 55.7664 44.0333 55.3464L34.7 46.3397C34.2693 45.884 34.0203 45.2864 34 44.6597V11.3397C34 10.733 34.28 10.1264 34.7 9.6597L44.0333 0.653036C44.7333 -0.000296841 45.7133 -0.186964 46.6 0.18637C47.44 0.559703 48 1.3997 48 2.33304V53.6664C48 54.5997 47.44 55.4397 46.6 55.813C46.2733 55.953 45.9933 55.9997 45.6667 55.9997ZM78.3333 39.6664C78.0533 39.6664 77.7267 39.6197 77.4467 39.4797C77.0206 39.3047 76.6558 39.0074 76.3984 38.6254C76.1409 38.2434 76.0023 37.7937 76 37.333L75.9533 18.3864C75.9533 17.453 76.5133 16.5664 77.4 16.2397C78.2867 15.8664 79.2667 16.0997 79.92 16.753L87.7133 24.6864C89.4867 26.5064 89.4867 29.4464 87.6667 31.2664L79.9667 38.9664C79.7583 39.1905 79.5054 39.3686 79.2241 39.4892C78.9428 39.6097 78.6394 39.6701 78.3333 39.6664Z" fill="#EFE9DD"/>
<path d="M45.6665 11.666H61.9998C63.3065 11.666 64.3332 12.6927 64.3332 13.9993V18.666M45.6665 44.3327H61.9998C63.3065 44.3327 64.3332 43.306 64.3332 41.9993V37.3327M85.3332 27.9993H57.3332" stroke="#EFE9DD" stroke-linecap="round"/>
</g>
<path d="M11.4016 81V67H14.2016V78.6H18.9816V81H11.4016ZM28.4867 78.66V81H22.5067L20.1867 79.66V72.24L22.5067 70.9H26.1667L28.4867 72.24V77.02H22.9267V78.66H28.4867ZM22.9267 73.24V74.96H25.7467V73.24H22.9267ZM33.0353 77.06V78.8H35.8553V77.06H33.0353ZM32.6153 81.1L30.2953 79.76V76.3L32.6153 74.96H35.8553V73.34H31.2953V71H36.2753L38.5953 72.34V81.1H37.2753L35.8553 80.28L34.4353 81.1H32.6153ZM42.3337 71L44.6337 77.56H44.6737L46.9937 71H49.7337L46.0337 81H43.2937L39.5937 71H42.3337ZM59.0359 78.66V81H53.0559L50.7359 79.66V72.24L53.0559 70.9H56.7159L59.0359 72.24V77.02H53.4759V78.66H59.0359ZM53.4759 73.24V74.96H56.2959V73.24H53.4759ZM70.8398 76.1V73.7H75.9398V79.76L73.6198 81.1H67.9598L65.6398 79.76V68.24L67.9598 66.9H73.6198L75.9398 68.24V71.1H73.1398V69.3H68.4398V78.7H73.1398V76.1H70.8398ZM80.4806 77.06V78.8H83.3006V77.06H80.4806ZM80.0606 81.1L77.7406 79.76V76.3L80.0606 74.96H83.3006V73.34H78.7406V71H83.7206L86.0406 72.34V81.1H84.7206L83.3006 80.28L81.8806 81.1H80.0606ZM102.299 72.24V81H99.5591V73.24H96.6391V81H93.8991V73.24H90.9791V81H88.2391V70.9H90.4991L90.9791 71.72L92.3991 70.9H94.3191L96.1791 71.98L98.0591 70.9H99.9791L102.299 72.24ZM112.79 78.66V81H106.81L104.49 79.66V72.24L106.81 70.9H110.47L112.79 72.24V77.02H107.23V78.66H112.79ZM107.23 73.24V74.96H110.05V73.24H107.23Z" fill="#EFE9DD"/>
<defs>
<clipPath id="clip0_16517_4462">
<rect width="56" height="56" fill="white" transform="translate(34)"/>
</clipPath>
</defs>
</svg>
