<svg width="658" height="389" viewBox="0 0 658 389" fill="none" xmlns="http://www.w3.org/2000/svg">
<rect width="658" height="379" fill="url(#paint0_radial_16447_5397)" fill-opacity="0.95"/>
<path d="M245 211.5L36 144.5L17 81.5L106 54L245 211.5L264.5 380.5L0 389L137 354.5L245 211.5L54.5 310.5L17 222.5L245 211.5Z" fill="url(#paint1_radial_16447_5397)" fill-opacity="0.5"/>
<path d="M493 350.5L406 211.5C405.688 211.347 405.773 211.07 406.223 210.683L461.5 8.5L590 67.5C526.563 116.791 436.024 190.071 411.967 207.622C439.294 195.406 550.999 159.221 612 154L626 231.5C624.667 230.833 573.2 247.1 406 211.5L590 280L626 367L493 350.5Z" fill="url(#paint2_radial_16447_5397)" fill-opacity="0.5"/>
<path d="M328 380.5V252L406 367L328 380.5Z" fill="url(#paint3_radial_16447_5397)" fill-opacity="0.5"/>
<path d="M322 162.5L193.5 16.5L354 8.5L322 162.5Z" fill="url(#paint4_radial_16447_5397)" fill-opacity="0.5"/>
<g filter="url(#filter0_d_16447_5397)">
<mask id="path-2-outside-1_16447_5397" maskUnits="userSpaceOnUse" x="91" y="38" width="475" height="65" fill="black">
<rect fill="white" x="91" y="38" width="475" height="65"/>
<path d="M117.484 73.88H126.444V83.032L119.02 87.32H100.908L93.4837 83.032V46.168L100.908 41.88H119.02L126.444 46.168V55.32H117.484V49.56H102.444V79.64H117.484V73.88ZM161.951 83.032L154.527 87.32H140.895L133.471 83.032V58.968L140.895 54.68H154.527L161.951 58.968V83.032ZM142.239 62.168V79.832H153.183V62.168H142.239ZM197.454 58.968V87H188.686V62.168H177.742V87H168.974V54.68H176.206L177.742 57.304L182.286 54.68H190.03L197.454 58.968ZM203.196 95.832V91.352L210.62 87L204.476 83.416V77.656L209.02 75.032L204.476 72.408V59.288L211.9 55H233.596V59.096L227.772 62.488L231.676 64.792V71.704L224.252 75.992H213.244V80.152H226.172L233.596 84.44V95.832L226.172 100.12H210.62L203.196 95.832ZM224.828 87H211.964V92.76H224.828V87ZM213.244 62.168V68.824H222.908V62.168H213.244ZM259.13 62.488H248.122V87H239.354V55H246.586L248.122 57.624L252.666 55H259.13V62.488ZM270.469 74.392V79.96H279.493V74.392H270.469ZM269.125 87.32L261.701 83.032V71.96L269.125 67.672H279.493V62.488H264.901V55H280.837L288.261 59.288V87.32H284.037L279.493 84.696L274.949 87.32H269.125ZM292.736 62.488V55H298.624V49.624L307.392 44.568V55H314.432V62.488H307.392V79.512H314.432V87H306.048L298.624 82.712V62.488H292.736ZM320.174 83.032V55H328.942V79.832H339.886V55H348.654V87.32H341.422L339.886 84.696L335.342 87.32H327.598L320.174 83.032ZM363.1 87L355.676 82.712V40.28H364.444V79.512H370.844V87H363.1ZM381.542 74.392V79.96H390.566V74.392H381.542ZM380.198 87.32L372.774 83.032V71.96L380.198 67.672H390.566V62.488H375.974V55H391.91L399.334 59.288V87.32H395.11L390.566 84.696L386.022 87.32H380.198ZM403.809 62.488V55H409.697V49.624L418.465 44.568V55H425.505V62.488H418.465V79.512H425.505V87H417.121L409.697 82.712V62.488H403.809ZM440.014 55V87H431.246V55H440.014ZM430.926 49.048V40.28H440.334V49.048H430.926ZM475.541 83.032L468.117 87.32H454.485L447.061 83.032V58.968L454.485 54.68H468.117L475.541 58.968V83.032ZM455.829 62.168V79.832H466.773V62.168H455.829ZM511.044 58.968V87H502.276V62.168H491.332V87H482.564V54.68H489.796L491.332 57.304L495.876 54.68H503.62L511.044 58.968ZM543.41 71.256V82.712L535.986 87H518.066V79.512H534.642V74.584H525.49L518.066 70.296V59.288L525.49 55H542.77V62.488H526.834V66.968H535.986L543.41 71.256ZM551.724 87V74.84H563.884V87H551.724ZM553.964 68.568L552.3 40.28H563.308L561.644 68.568H553.964Z"/>
</mask>
<path d="M117.484 73.88H126.444V83.032L119.02 87.32H100.908L93.4837 83.032V46.168L100.908 41.88H119.02L126.444 46.168V55.32H117.484V49.56H102.444V79.64H117.484V73.88ZM161.951 83.032L154.527 87.32H140.895L133.471 83.032V58.968L140.895 54.68H154.527L161.951 58.968V83.032ZM142.239 62.168V79.832H153.183V62.168H142.239ZM197.454 58.968V87H188.686V62.168H177.742V87H168.974V54.68H176.206L177.742 57.304L182.286 54.68H190.03L197.454 58.968ZM203.196 95.832V91.352L210.62 87L204.476 83.416V77.656L209.02 75.032L204.476 72.408V59.288L211.9 55H233.596V59.096L227.772 62.488L231.676 64.792V71.704L224.252 75.992H213.244V80.152H226.172L233.596 84.44V95.832L226.172 100.12H210.62L203.196 95.832ZM224.828 87H211.964V92.76H224.828V87ZM213.244 62.168V68.824H222.908V62.168H213.244ZM259.13 62.488H248.122V87H239.354V55H246.586L248.122 57.624L252.666 55H259.13V62.488ZM270.469 74.392V79.96H279.493V74.392H270.469ZM269.125 87.32L261.701 83.032V71.96L269.125 67.672H279.493V62.488H264.901V55H280.837L288.261 59.288V87.32H284.037L279.493 84.696L274.949 87.32H269.125ZM292.736 62.488V55H298.624V49.624L307.392 44.568V55H314.432V62.488H307.392V79.512H314.432V87H306.048L298.624 82.712V62.488H292.736ZM320.174 83.032V55H328.942V79.832H339.886V55H348.654V87.32H341.422L339.886 84.696L335.342 87.32H327.598L320.174 83.032ZM363.1 87L355.676 82.712V40.28H364.444V79.512H370.844V87H363.1ZM381.542 74.392V79.96H390.566V74.392H381.542ZM380.198 87.32L372.774 83.032V71.96L380.198 67.672H390.566V62.488H375.974V55H391.91L399.334 59.288V87.32H395.11L390.566 84.696L386.022 87.32H380.198ZM403.809 62.488V55H409.697V49.624L418.465 44.568V55H425.505V62.488H418.465V79.512H425.505V87H417.121L409.697 82.712V62.488H403.809ZM440.014 55V87H431.246V55H440.014ZM430.926 49.048V40.28H440.334V49.048H430.926ZM475.541 83.032L468.117 87.32H454.485L447.061 83.032V58.968L454.485 54.68H468.117L475.541 58.968V83.032ZM455.829 62.168V79.832H466.773V62.168H455.829ZM511.044 58.968V87H502.276V62.168H491.332V87H482.564V54.68H489.796L491.332 57.304L495.876 54.68H503.62L511.044 58.968ZM543.41 71.256V82.712L535.986 87H518.066V79.512H534.642V74.584H525.49L518.066 70.296V59.288L525.49 55H542.77V62.488H526.834V66.968H535.986L543.41 71.256ZM551.724 87V74.84H563.884V87H551.724ZM553.964 68.568L552.3 40.28H563.308L561.644 68.568H553.964Z" fill="white"/>
<path d="M117.484 73.88V71.88H115.484V73.88H117.484ZM126.444 73.88H128.444V71.88H126.444V73.88ZM126.444 83.032L127.444 84.7639L128.444 84.1865V83.032H126.444ZM119.02 87.32V89.32H119.556L120.02 89.0519L119.02 87.32ZM100.908 87.32L99.9074 89.0519L100.372 89.32H100.908V87.32ZM93.4837 83.032H91.4837V84.1865L92.4834 84.7639L93.4837 83.032ZM93.4837 46.168L92.4834 44.4361L91.4837 45.0135V46.168H93.4837ZM100.908 41.88V39.88H100.372L99.9074 40.1481L100.908 41.88ZM119.02 41.88L120.02 40.1481L119.556 39.88H119.02V41.88ZM126.444 46.168H128.444V45.0135L127.444 44.4361L126.444 46.168ZM126.444 55.32V57.32H128.444V55.32H126.444ZM117.484 55.32H115.484V57.32H117.484V55.32ZM117.484 49.56H119.484V47.56H117.484V49.56ZM102.444 49.56V47.56H100.444V49.56H102.444ZM102.444 79.64H100.444V81.64H102.444V79.64ZM117.484 79.64V81.64H119.484V79.64H117.484ZM117.484 73.88V75.88H126.444V73.88V71.88H117.484V73.88ZM126.444 73.88H124.444V83.032H126.444H128.444V73.88H126.444ZM126.444 83.032L125.443 81.3001L118.019 85.5881L119.02 87.32L120.02 89.0519L127.444 84.7639L126.444 83.032ZM119.02 87.32V85.32H100.908V87.32V89.32H119.02V87.32ZM100.908 87.32L101.908 85.5881L94.4841 81.3001L93.4837 83.032L92.4834 84.7639L99.9074 89.0519L100.908 87.32ZM93.4837 83.032H95.4837V46.168H93.4837H91.4837V83.032H93.4837ZM93.4837 46.168L94.4841 47.8999L101.908 43.6119L100.908 41.88L99.9074 40.1481L92.4834 44.4361L93.4837 46.168ZM100.908 41.88V43.88H119.02V41.88V39.88H100.908V41.88ZM119.02 41.88L118.019 43.6119L125.443 47.8999L126.444 46.168L127.444 44.4361L120.02 40.1481L119.02 41.88ZM126.444 46.168H124.444V55.32H126.444H128.444V46.168H126.444ZM126.444 55.32V53.32H117.484V55.32V57.32H126.444V55.32ZM117.484 55.32H119.484V49.56H117.484H115.484V55.32H117.484ZM117.484 49.56V47.56H102.444V49.56V51.56H117.484V49.56ZM102.444 49.56H100.444V79.64H102.444H104.444V49.56H102.444ZM102.444 79.64V81.64H117.484V79.64V77.64H102.444V79.64ZM117.484 79.64H119.484V73.88H117.484H115.484V79.64H117.484ZM161.951 83.032L162.952 84.7639L163.951 84.1865V83.032H161.951ZM154.527 87.32V89.32H155.063L155.528 89.0519L154.527 87.32ZM140.895 87.32L139.895 89.0519L140.359 89.32H140.895V87.32ZM133.471 83.032H131.471V84.1865L132.471 84.7639L133.471 83.032ZM133.471 58.968L132.471 57.2361L131.471 57.8135V58.968H133.471ZM140.895 54.68V52.68H140.359L139.895 52.9481L140.895 54.68ZM154.527 54.68L155.528 52.9481L155.063 52.68H154.527V54.68ZM161.951 58.968H163.951V57.8135L162.952 57.2361L161.951 58.968ZM142.239 62.168V60.168H140.239V62.168H142.239ZM142.239 79.832H140.239V81.832H142.239V79.832ZM153.183 79.832V81.832H155.183V79.832H153.183ZM153.183 62.168H155.183V60.168H153.183V62.168ZM161.951 83.032L160.951 81.3001L153.527 85.5881L154.527 87.32L155.528 89.0519L162.952 84.7639L161.951 83.032ZM154.527 87.32V85.32H140.895V87.32V89.32H154.527V87.32ZM140.895 87.32L141.896 85.5881L134.472 81.3001L133.471 83.032L132.471 84.7639L139.895 89.0519L140.895 87.32ZM133.471 83.032H135.471V58.968H133.471H131.471V83.032H133.471ZM133.471 58.968L134.472 60.6999L141.896 56.4119L140.895 54.68L139.895 52.9481L132.471 57.2361L133.471 58.968ZM140.895 54.68V56.68H154.527V54.68V52.68H140.895V54.68ZM154.527 54.68L153.527 56.4119L160.951 60.6999L161.951 58.968L162.952 57.2361L155.528 52.9481L154.527 54.68ZM161.951 58.968H159.951V83.032H161.951H163.951V58.968H161.951ZM142.239 62.168H140.239V79.832H142.239H144.239V62.168H142.239ZM142.239 79.832V81.832H153.183V79.832V77.832H142.239V79.832ZM153.183 79.832H155.183V62.168H153.183H151.183V79.832H153.183ZM153.183 62.168V60.168H142.239V62.168V64.168H153.183V62.168ZM197.454 58.968H199.454V57.8135L198.454 57.2361L197.454 58.968ZM197.454 87V89H199.454V87H197.454ZM188.686 87H186.686V89H188.686V87ZM188.686 62.168H190.686V60.168H188.686V62.168ZM177.742 62.168V60.168H175.742V62.168H177.742ZM177.742 87V89H179.742V87H177.742ZM168.974 87H166.974V89H168.974V87ZM168.974 54.68V52.68H166.974V54.68H168.974ZM176.206 54.68L177.932 53.6696L177.352 52.68H176.206V54.68ZM177.742 57.304L176.016 58.3144L177.02 60.0302L178.742 59.036L177.742 57.304ZM182.286 54.68V52.68H181.75L181.286 52.948L182.286 54.68ZM190.03 54.68L191.03 52.9481L190.566 52.68H190.03V54.68ZM197.454 58.968H195.454V87H197.454H199.454V58.968H197.454ZM197.454 87V85H188.686V87V89H197.454V87ZM188.686 87H190.686V62.168H188.686H186.686V87H188.686ZM188.686 62.168V60.168H177.742V62.168V64.168H188.686V62.168ZM177.742 62.168H175.742V87H177.742H179.742V62.168H177.742ZM177.742 87V85H168.974V87V89H177.742V87ZM168.974 87H170.974V54.68H168.974H166.974V87H168.974ZM168.974 54.68V56.68H176.206V54.68V52.68H168.974V54.68ZM176.206 54.68L174.48 55.6904L176.016 58.3144L177.742 57.304L179.468 56.2936L177.932 53.6696L176.206 54.68ZM177.742 57.304L178.742 59.036L183.286 56.412L182.286 54.68L181.286 52.948L176.742 55.572L177.742 57.304ZM182.286 54.68V56.68H190.03V54.68V52.68H182.286V54.68ZM190.03 54.68L189.029 56.4119L196.453 60.6999L197.454 58.968L198.454 57.2361L191.03 52.9481L190.03 54.68ZM203.196 95.832H201.196V96.9865L202.196 97.5639L203.196 95.832ZM203.196 91.352L202.185 89.6266L201.196 90.2061V91.352H203.196ZM210.62 87L211.632 88.7254L214.582 86.9958L211.628 85.2724L210.62 87ZM204.476 83.416H202.476V84.5647L203.469 85.1436L204.476 83.416ZM204.476 77.656L203.476 75.924L202.476 76.5014V77.656H204.476ZM209.02 75.032L210.02 76.764L213.02 75.032L210.02 73.3L209.02 75.032ZM204.476 72.408H202.476V73.5626L203.476 74.14L204.476 72.408ZM204.476 59.288L203.476 57.5561L202.476 58.1335V59.288H204.476ZM211.9 55V53H211.364L210.9 53.2681L211.9 55ZM233.596 55H235.596V53H233.596V55ZM233.596 59.096L234.603 60.8242L235.596 60.2456V59.096H233.596ZM227.772 62.488L226.766 60.7598L223.818 62.4766L226.756 64.2104L227.772 62.488ZM231.676 64.792H233.676V63.65L232.693 63.0696L231.676 64.792ZM231.676 71.704L232.677 73.4359L233.676 72.8585V71.704H231.676ZM224.252 75.992V77.992H224.788L225.253 77.7239L224.252 75.992ZM213.244 75.992V73.992H211.244V75.992H213.244ZM213.244 80.152H211.244V82.152H213.244V80.152ZM226.172 80.152L227.173 78.4201L226.708 78.152H226.172V80.152ZM233.596 84.44H235.596V83.2855L234.597 82.7081L233.596 84.44ZM233.596 95.832L234.597 97.5639L235.596 96.9865V95.832H233.596ZM226.172 100.12V102.12H226.708L227.173 101.852L226.172 100.12ZM210.62 100.12L209.62 101.852L210.084 102.12H210.62V100.12ZM224.828 87H226.828V85H224.828V87ZM211.964 87V85H209.964V87H211.964ZM211.964 92.76H209.964V94.76H211.964V92.76ZM224.828 92.76V94.76H226.828V92.76H224.828ZM213.244 62.168V60.168H211.244V62.168H213.244ZM213.244 68.824H211.244V70.824H213.244V68.824ZM222.908 68.824V70.824H224.908V68.824H222.908ZM222.908 62.168H224.908V60.168H222.908V62.168ZM203.196 95.832H205.196V91.352H203.196H201.196V95.832H203.196ZM203.196 91.352L204.208 93.0774L211.632 88.7254L210.62 87L209.609 85.2746L202.185 89.6266L203.196 91.352ZM210.62 87L211.628 85.2724L205.484 81.6884L204.476 83.416L203.469 85.1436L209.613 88.7276L210.62 87ZM204.476 83.416H206.476V77.656H204.476H202.476V83.416H204.476ZM204.476 77.656L205.476 79.388L210.02 76.764L209.02 75.032L208.02 73.3L203.476 75.924L204.476 77.656ZM209.02 75.032L210.02 73.3L205.476 70.676L204.476 72.408L203.476 74.14L208.02 76.764L209.02 75.032ZM204.476 72.408H206.476V59.288H204.476H202.476V72.408H204.476ZM204.476 59.288L205.477 61.0199L212.901 56.7319L211.9 55L210.9 53.2681L203.476 57.5561L204.476 59.288ZM211.9 55V57H233.596V55V53H211.9V55ZM233.596 55H231.596V59.096H233.596H235.596V55H233.596ZM233.596 59.096L232.59 57.3678L226.766 60.7598L227.772 62.488L228.779 64.2162L234.603 60.8242L233.596 59.096ZM227.772 62.488L226.756 64.2104L230.66 66.5144L231.676 64.792L232.693 63.0696L228.789 60.7656L227.772 62.488ZM231.676 64.792H229.676V71.704H231.676H233.676V64.792H231.676ZM231.676 71.704L230.676 69.9721L223.252 74.2601L224.252 75.992L225.253 77.7239L232.677 73.4359L231.676 71.704ZM224.252 75.992V73.992H213.244V75.992V77.992H224.252V75.992ZM213.244 75.992H211.244V80.152H213.244H215.244V75.992H213.244ZM213.244 80.152V82.152H226.172V80.152V78.152H213.244V80.152ZM226.172 80.152L225.172 81.8839L232.596 86.1719L233.596 84.44L234.597 82.7081L227.173 78.4201L226.172 80.152ZM233.596 84.44H231.596V95.832H233.596H235.596V84.44H233.596ZM233.596 95.832L232.596 94.1001L225.172 98.3881L226.172 100.12L227.173 101.852L234.597 97.5639L233.596 95.832ZM226.172 100.12V98.12H210.62V100.12V102.12H226.172V100.12ZM210.62 100.12L211.621 98.3881L204.197 94.1001L203.196 95.832L202.196 97.5639L209.62 101.852L210.62 100.12ZM224.828 87V85H211.964V87V89H224.828V87ZM211.964 87H209.964V92.76H211.964H213.964V87H211.964ZM211.964 92.76V94.76H224.828V92.76V90.76H211.964V92.76ZM224.828 92.76H226.828V87H224.828H222.828V92.76H224.828ZM213.244 62.168H211.244V68.824H213.244H215.244V62.168H213.244ZM213.244 68.824V70.824H222.908V68.824V66.824H213.244V68.824ZM222.908 68.824H224.908V62.168H222.908H220.908V68.824H222.908ZM222.908 62.168V60.168H213.244V62.168V64.168H222.908V62.168ZM259.13 62.488V64.488H261.13V62.488H259.13ZM248.122 62.488V60.488H246.122V62.488H248.122ZM248.122 87V89H250.122V87H248.122ZM239.354 87H237.354V89H239.354V87ZM239.354 55V53H237.354V55H239.354ZM246.586 55L248.312 53.9896L247.732 53H246.586V55ZM248.122 57.624L246.396 58.6344L247.4 60.3502L249.122 59.356L248.122 57.624ZM252.666 55V53H252.13L251.666 53.268L252.666 55ZM259.13 55H261.13V53H259.13V55ZM259.13 62.488V60.488H248.122V62.488V64.488H259.13V62.488ZM248.122 62.488H246.122V87H248.122H250.122V62.488H248.122ZM248.122 87V85H239.354V87V89H248.122V87ZM239.354 87H241.354V55H239.354H237.354V87H239.354ZM239.354 55V57H246.586V55V53H239.354V55ZM246.586 55L244.86 56.0104L246.396 58.6344L248.122 57.624L249.848 56.6136L248.312 53.9896L246.586 55ZM248.122 57.624L249.122 59.356L253.666 56.732L252.666 55L251.666 53.268L247.122 55.892L248.122 57.624ZM252.666 55V57H259.13V55V53H252.666V55ZM259.13 55H257.13V62.488H259.13H261.13V55H259.13ZM270.469 74.392V72.392H268.469V74.392H270.469ZM270.469 79.96H268.469V81.96H270.469V79.96ZM279.493 79.96V81.96H281.493V79.96H279.493ZM279.493 74.392H281.493V72.392H279.493V74.392ZM269.125 87.32L268.125 89.0519L268.589 89.32H269.125V87.32ZM261.701 83.032H259.701V84.1865L260.701 84.7639L261.701 83.032ZM261.701 71.96L260.701 70.2281L259.701 70.8055V71.96H261.701ZM269.125 67.672V65.672H268.589L268.125 65.9401L269.125 67.672ZM279.493 67.672V69.672H281.493V67.672H279.493ZM279.493 62.488H281.493V60.488H279.493V62.488ZM264.901 62.488H262.901V64.488H264.901V62.488ZM264.901 55V53H262.901V55H264.901ZM280.837 55L281.838 53.2681L281.373 53H280.837V55ZM288.261 59.288H290.261V58.1335L289.262 57.5561L288.261 59.288ZM288.261 87.32V89.32H290.261V87.32H288.261ZM284.037 87.32L283.037 89.052L283.501 89.32H284.037V87.32ZM279.493 84.696L280.493 82.964L279.493 82.3865L278.493 82.964L279.493 84.696ZM274.949 87.32V89.32H275.485L275.949 89.052L274.949 87.32ZM270.469 74.392H268.469V79.96H270.469H272.469V74.392H270.469ZM270.469 79.96V81.96H279.493V79.96V77.96H270.469V79.96ZM279.493 79.96H281.493V74.392H279.493H277.493V79.96H279.493ZM279.493 74.392V72.392H270.469V74.392V76.392H279.493V74.392ZM269.125 87.32L270.126 85.5881L262.702 81.3001L261.701 83.032L260.701 84.7639L268.125 89.0519L269.125 87.32ZM261.701 83.032H263.701V71.96H261.701H259.701V83.032H261.701ZM261.701 71.96L262.702 73.6919L270.126 69.4039L269.125 67.672L268.125 65.9401L260.701 70.2281L261.701 71.96ZM269.125 67.672V69.672H279.493V67.672V65.672H269.125V67.672ZM279.493 67.672H281.493V62.488H279.493H277.493V67.672H279.493ZM279.493 62.488V60.488H264.901V62.488V64.488H279.493V62.488ZM264.901 62.488H266.901V55H264.901H262.901V62.488H264.901ZM264.901 55V57H280.837V55V53H264.901V55ZM280.837 55L279.837 56.7319L287.261 61.0199L288.261 59.288L289.262 57.5561L281.838 53.2681L280.837 55ZM288.261 59.288H286.261V87.32H288.261H290.261V59.288H288.261ZM288.261 87.32V85.32H284.037V87.32V89.32H288.261V87.32ZM284.037 87.32L285.037 85.588L280.493 82.964L279.493 84.696L278.493 86.428L283.037 89.052L284.037 87.32ZM279.493 84.696L278.493 82.964L273.949 85.588L274.949 87.32L275.949 89.052L280.493 86.428L279.493 84.696ZM274.949 87.32V85.32H269.125V87.32V89.32H274.949V87.32ZM292.736 62.488H290.736V64.488H292.736V62.488ZM292.736 55V53H290.736V55H292.736ZM298.624 55V57H300.624V55H298.624ZM298.624 49.624L297.625 47.8914L296.624 48.4686V49.624H298.624ZM307.392 44.568H309.392V41.106L306.393 42.8354L307.392 44.568ZM307.392 55H305.392V57H307.392V55ZM314.432 55H316.432V53H314.432V55ZM314.432 62.488V64.488H316.432V62.488H314.432ZM307.392 62.488V60.488H305.392V62.488H307.392ZM307.392 79.512H305.392V81.512H307.392V79.512ZM314.432 79.512H316.432V77.512H314.432V79.512ZM314.432 87V89H316.432V87H314.432ZM306.048 87L305.048 88.7319L305.512 89H306.048V87ZM298.624 82.712H296.624V83.8665L297.624 84.4439L298.624 82.712ZM298.624 62.488H300.624V60.488H298.624V62.488ZM292.736 62.488H294.736V55H292.736H290.736V62.488H292.736ZM292.736 55V57H298.624V55V53H292.736V55ZM298.624 55H300.624V49.624H298.624H296.624V55H298.624ZM298.624 49.624L299.623 51.3566L308.391 46.3006L307.392 44.568L306.393 42.8354L297.625 47.8914L298.624 49.624ZM307.392 44.568H305.392V55H307.392H309.392V44.568H307.392ZM307.392 55V57H314.432V55V53H307.392V55ZM314.432 55H312.432V62.488H314.432H316.432V55H314.432ZM314.432 62.488V60.488H307.392V62.488V64.488H314.432V62.488ZM307.392 62.488H305.392V79.512H307.392H309.392V62.488H307.392ZM307.392 79.512V81.512H314.432V79.512V77.512H307.392V79.512ZM314.432 79.512H312.432V87H314.432H316.432V79.512H314.432ZM314.432 87V85H306.048V87V89H314.432V87ZM306.048 87L307.049 85.2681L299.625 80.9801L298.624 82.712L297.624 84.4439L305.048 88.7319L306.048 87ZM298.624 82.712H300.624V62.488H298.624H296.624V82.712H298.624ZM298.624 62.488V60.488H292.736V62.488V64.488H298.624V62.488ZM320.174 83.032H318.174V84.1865L319.173 84.7639L320.174 83.032ZM320.174 55V53H318.174V55H320.174ZM328.942 55H330.942V53H328.942V55ZM328.942 79.832H326.942V81.832H328.942V79.832ZM339.886 79.832V81.832H341.886V79.832H339.886ZM339.886 55V53H337.886V55H339.886ZM348.654 55H350.654V53H348.654V55ZM348.654 87.32V89.32H350.654V87.32H348.654ZM341.422 87.32L339.696 88.3304L340.275 89.32H341.422V87.32ZM339.886 84.696L341.612 83.6856L340.607 81.9698L338.886 82.964L339.886 84.696ZM335.342 87.32V89.32H335.878L336.342 89.052L335.342 87.32ZM327.598 87.32L326.597 89.0519L327.062 89.32H327.598V87.32ZM320.174 83.032H322.174V55H320.174H318.174V83.032H320.174ZM320.174 55V57H328.942V55V53H320.174V55ZM328.942 55H326.942V79.832H328.942H330.942V55H328.942ZM328.942 79.832V81.832H339.886V79.832V77.832H328.942V79.832ZM339.886 79.832H341.886V55H339.886H337.886V79.832H339.886ZM339.886 55V57H348.654V55V53H339.886V55ZM348.654 55H346.654V87.32H348.654H350.654V55H348.654ZM348.654 87.32V85.32H341.422V87.32V89.32H348.654V87.32ZM341.422 87.32L343.148 86.3096L341.612 83.6856L339.886 84.696L338.16 85.7064L339.696 88.3304L341.422 87.32ZM339.886 84.696L338.886 82.964L334.342 85.588L335.342 87.32L336.342 89.052L340.886 86.428L339.886 84.696ZM335.342 87.32V85.32H327.598V87.32V89.32H335.342V87.32ZM327.598 87.32L328.598 85.5881L321.174 81.3001L320.174 83.032L319.173 84.7639L326.597 89.0519L327.598 87.32ZM363.1 87L362.1 88.7319L362.564 89H363.1V87ZM355.676 82.712H353.676V83.8665L354.676 84.4439L355.676 82.712ZM355.676 40.28V38.28H353.676V40.28H355.676ZM364.444 40.28H366.444V38.28H364.444V40.28ZM364.444 79.512H362.444V81.512H364.444V79.512ZM370.844 79.512H372.844V77.512H370.844V79.512ZM370.844 87V89H372.844V87H370.844ZM363.1 87L364.101 85.2681L356.677 80.9801L355.676 82.712L354.676 84.4439L362.1 88.7319L363.1 87ZM355.676 82.712H357.676V40.28H355.676H353.676V82.712H355.676ZM355.676 40.28V42.28H364.444V40.28V38.28H355.676V40.28ZM364.444 40.28H362.444V79.512H364.444H366.444V40.28H364.444ZM364.444 79.512V81.512H370.844V79.512V77.512H364.444V79.512ZM370.844 79.512H368.844V87H370.844H372.844V79.512H370.844ZM370.844 87V85H363.1V87V89H370.844V87ZM381.542 74.392V72.392H379.542V74.392H381.542ZM381.542 79.96H379.542V81.96H381.542V79.96ZM390.566 79.96V81.96H392.566V79.96H390.566ZM390.566 74.392H392.566V72.392H390.566V74.392ZM380.198 87.32L379.197 89.0519L379.662 89.32H380.198V87.32ZM372.774 83.032H370.774V84.1865L371.773 84.7639L372.774 83.032ZM372.774 71.96L371.773 70.2281L370.774 70.8055V71.96H372.774ZM380.198 67.672V65.672H379.662L379.197 65.9401L380.198 67.672ZM390.566 67.672V69.672H392.566V67.672H390.566ZM390.566 62.488H392.566V60.488H390.566V62.488ZM375.974 62.488H373.974V64.488H375.974V62.488ZM375.974 55V53H373.974V55H375.974ZM391.91 55L392.91 53.2681L392.446 53H391.91V55ZM399.334 59.288H401.334V58.1335L400.334 57.5561L399.334 59.288ZM399.334 87.32V89.32H401.334V87.32H399.334ZM395.11 87.32L394.11 89.052L394.574 89.32H395.11V87.32ZM390.566 84.696L391.566 82.964L390.566 82.3865L389.566 82.964L390.566 84.696ZM386.022 87.32V89.32H386.558L387.022 89.052L386.022 87.32ZM381.542 74.392H379.542V79.96H381.542H383.542V74.392H381.542ZM381.542 79.96V81.96H390.566V79.96V77.96H381.542V79.96ZM390.566 79.96H392.566V74.392H390.566H388.566V79.96H390.566ZM390.566 74.392V72.392H381.542V74.392V76.392H390.566V74.392ZM380.198 87.32L381.198 85.5881L373.774 81.3001L372.774 83.032L371.773 84.7639L379.197 89.0519L380.198 87.32ZM372.774 83.032H374.774V71.96H372.774H370.774V83.032H372.774ZM372.774 71.96L373.774 73.6919L381.198 69.4039L380.198 67.672L379.197 65.9401L371.773 70.2281L372.774 71.96ZM380.198 67.672V69.672H390.566V67.672V65.672H380.198V67.672ZM390.566 67.672H392.566V62.488H390.566H388.566V67.672H390.566ZM390.566 62.488V60.488H375.974V62.488V64.488H390.566V62.488ZM375.974 62.488H377.974V55H375.974H373.974V62.488H375.974ZM375.974 55V57H391.91V55V53H375.974V55ZM391.91 55L390.909 56.7319L398.333 61.0199L399.334 59.288L400.334 57.5561L392.91 53.2681L391.91 55ZM399.334 59.288H397.334V87.32H399.334H401.334V59.288H399.334ZM399.334 87.32V85.32H395.11V87.32V89.32H399.334V87.32ZM395.11 87.32L396.11 85.588L391.566 82.964L390.566 84.696L389.566 86.428L394.11 89.052L395.11 87.32ZM390.566 84.696L389.566 82.964L385.022 85.588L386.022 87.32L387.022 89.052L391.566 86.428L390.566 84.696ZM386.022 87.32V85.32H380.198V87.32V89.32H386.022V87.32ZM403.809 62.488H401.809V64.488H403.809V62.488ZM403.809 55V53H401.809V55H403.809ZM409.697 55V57H411.697V55H409.697ZM409.697 49.624L408.698 47.8914L407.697 48.4686V49.624H409.697ZM418.465 44.568H420.465V41.106L417.466 42.8354L418.465 44.568ZM418.465 55H416.465V57H418.465V55ZM425.505 55H427.505V53H425.505V55ZM425.505 62.488V64.488H427.505V62.488H425.505ZM418.465 62.488V60.488H416.465V62.488H418.465ZM418.465 79.512H416.465V81.512H418.465V79.512ZM425.505 79.512H427.505V77.512H425.505V79.512ZM425.505 87V89H427.505V87H425.505ZM417.121 87L416.12 88.7319L416.585 89H417.121V87ZM409.697 82.712H407.697V83.8665L408.696 84.4439L409.697 82.712ZM409.697 62.488H411.697V60.488H409.697V62.488ZM403.809 62.488H405.809V55H403.809H401.809V62.488H403.809ZM403.809 55V57H409.697V55V53H403.809V55ZM409.697 55H411.697V49.624H409.697H407.697V55H409.697ZM409.697 49.624L410.696 51.3566L419.464 46.3006L418.465 44.568L417.466 42.8354L408.698 47.8914L409.697 49.624ZM418.465 44.568H416.465V55H418.465H420.465V44.568H418.465ZM418.465 55V57H425.505V55V53H418.465V55ZM425.505 55H423.505V62.488H425.505H427.505V55H425.505ZM425.505 62.488V60.488H418.465V62.488V64.488H425.505V62.488ZM418.465 62.488H416.465V79.512H418.465H420.465V62.488H418.465ZM418.465 79.512V81.512H425.505V79.512V77.512H418.465V79.512ZM425.505 79.512H423.505V87H425.505H427.505V79.512H425.505ZM425.505 87V85H417.121V87V89H425.505V87ZM417.121 87L418.121 85.2681L410.697 80.9801L409.697 82.712L408.696 84.4439L416.12 88.7319L417.121 87ZM409.697 82.712H411.697V62.488H409.697H407.697V82.712H409.697ZM409.697 62.488V60.488H403.809V62.488V64.488H409.697V62.488ZM440.014 55H442.014V53H440.014V55ZM440.014 87V89H442.014V87H440.014ZM431.246 87H429.246V89H431.246V87ZM431.246 55V53H429.246V55H431.246ZM430.926 49.048H428.926V51.048H430.926V49.048ZM430.926 40.28V38.28H428.926V40.28H430.926ZM440.334 40.28H442.334V38.28H440.334V40.28ZM440.334 49.048V51.048H442.334V49.048H440.334ZM440.014 55H438.014V87H440.014H442.014V55H440.014ZM440.014 87V85H431.246V87V89H440.014V87ZM431.246 87H433.246V55H431.246H429.246V87H431.246ZM431.246 55V57H440.014V55V53H431.246V55ZM430.926 49.048H432.926V40.28H430.926H428.926V49.048H430.926ZM430.926 40.28V42.28H440.334V40.28V38.28H430.926V40.28ZM440.334 40.28H438.334V49.048H440.334H442.334V40.28H440.334ZM440.334 49.048V47.048H430.926V49.048V51.048H440.334V49.048ZM475.541 83.032L476.542 84.7639L477.541 84.1865V83.032H475.541ZM468.117 87.32V89.32H468.653L469.118 89.0519L468.117 87.32ZM454.485 87.32L453.485 89.0519L453.949 89.32H454.485V87.32ZM447.061 83.032H445.061V84.1865L446.061 84.7639L447.061 83.032ZM447.061 58.968L446.061 57.2361L445.061 57.8135V58.968H447.061ZM454.485 54.68V52.68H453.949L453.485 52.9481L454.485 54.68ZM468.117 54.68L469.118 52.9481L468.653 52.68H468.117V54.68ZM475.541 58.968H477.541V57.8135L476.542 57.2361L475.541 58.968ZM455.829 62.168V60.168H453.829V62.168H455.829ZM455.829 79.832H453.829V81.832H455.829V79.832ZM466.773 79.832V81.832H468.773V79.832H466.773ZM466.773 62.168H468.773V60.168H466.773V62.168ZM475.541 83.032L474.541 81.3001L467.117 85.5881L468.117 87.32L469.118 89.0519L476.542 84.7639L475.541 83.032ZM468.117 87.32V85.32H454.485V87.32V89.32H468.117V87.32ZM454.485 87.32L455.486 85.5881L448.062 81.3001L447.061 83.032L446.061 84.7639L453.485 89.0519L454.485 87.32ZM447.061 83.032H449.061V58.968H447.061H445.061V83.032H447.061ZM447.061 58.968L448.062 60.6999L455.486 56.4119L454.485 54.68L453.485 52.9481L446.061 57.2361L447.061 58.968ZM454.485 54.68V56.68H468.117V54.68V52.68H454.485V54.68ZM468.117 54.68L467.117 56.4119L474.541 60.6999L475.541 58.968L476.542 57.2361L469.118 52.9481L468.117 54.68ZM475.541 58.968H473.541V83.032H475.541H477.541V58.968H475.541ZM455.829 62.168H453.829V79.832H455.829H457.829V62.168H455.829ZM455.829 79.832V81.832H466.773V79.832V77.832H455.829V79.832ZM466.773 79.832H468.773V62.168H466.773H464.773V79.832H466.773ZM466.773 62.168V60.168H455.829V62.168V64.168H466.773V62.168ZM511.044 58.968H513.044V57.8135L512.044 57.2361L511.044 58.968ZM511.044 87V89H513.044V87H511.044ZM502.276 87H500.276V89H502.276V87ZM502.276 62.168H504.276V60.168H502.276V62.168ZM491.332 62.168V60.168H489.332V62.168H491.332ZM491.332 87V89H493.332V87H491.332ZM482.564 87H480.564V89H482.564V87ZM482.564 54.68V52.68H480.564V54.68H482.564ZM489.796 54.68L491.522 53.6696L490.942 52.68H489.796V54.68ZM491.332 57.304L489.606 58.3144L490.61 60.0302L492.332 59.036L491.332 57.304ZM495.876 54.68V52.68H495.34L494.876 52.948L495.876 54.68ZM503.62 54.68L504.62 52.9481L504.156 52.68H503.62V54.68ZM511.044 58.968H509.044V87H511.044H513.044V58.968H511.044ZM511.044 87V85H502.276V87V89H511.044V87ZM502.276 87H504.276V62.168H502.276H500.276V87H502.276ZM502.276 62.168V60.168H491.332V62.168V64.168H502.276V62.168ZM491.332 62.168H489.332V87H491.332H493.332V62.168H491.332ZM491.332 87V85H482.564V87V89H491.332V87ZM482.564 87H484.564V54.68H482.564H480.564V87H482.564ZM482.564 54.68V56.68H489.796V54.68V52.68H482.564V54.68ZM489.796 54.68L488.07 55.6904L489.606 58.3144L491.332 57.304L493.058 56.2936L491.522 53.6696L489.796 54.68ZM491.332 57.304L492.332 59.036L496.876 56.412L495.876 54.68L494.876 52.948L490.332 55.572L491.332 57.304ZM495.876 54.68V56.68H503.62V54.68V52.68H495.876V54.68ZM503.62 54.68L502.619 56.4119L510.043 60.6999L511.044 58.968L512.044 57.2361L504.62 52.9481L503.62 54.68ZM543.41 71.256H545.41V70.1015L544.411 69.5241L543.41 71.256ZM543.41 82.712L544.411 84.4439L545.41 83.8665V82.712H543.41ZM535.986 87V89H536.522L536.987 88.7319L535.986 87ZM518.066 87H516.066V89H518.066V87ZM518.066 79.512V77.512H516.066V79.512H518.066ZM534.642 79.512V81.512H536.642V79.512H534.642ZM534.642 74.584H536.642V72.584H534.642V74.584ZM525.49 74.584L524.49 76.3159L524.954 76.584H525.49V74.584ZM518.066 70.296H516.066V71.4505L517.066 72.0279L518.066 70.296ZM518.066 59.288L517.066 57.5561L516.066 58.1335V59.288H518.066ZM525.49 55V53H524.954L524.49 53.2681L525.49 55ZM542.77 55H544.77V53H542.77V55ZM542.77 62.488V64.488H544.77V62.488H542.77ZM526.834 62.488V60.488H524.834V62.488H526.834ZM526.834 66.968H524.834V68.968H526.834V66.968ZM535.986 66.968L536.987 65.2361L536.522 64.968H535.986V66.968ZM543.41 71.256H541.41V82.712H543.41H545.41V71.256H543.41ZM543.41 82.712L542.41 80.9801L534.986 85.2681L535.986 87L536.987 88.7319L544.411 84.4439L543.41 82.712ZM535.986 87V85H518.066V87V89H535.986V87ZM518.066 87H520.066V79.512H518.066H516.066V87H518.066ZM518.066 79.512V81.512H534.642V79.512V77.512H518.066V79.512ZM534.642 79.512H536.642V74.584H534.642H532.642V79.512H534.642ZM534.642 74.584V72.584H525.49V74.584V76.584H534.642V74.584ZM525.49 74.584L526.491 72.8521L519.067 68.5641L518.066 70.296L517.066 72.0279L524.49 76.3159L525.49 74.584ZM518.066 70.296H520.066V59.288H518.066H516.066V70.296H518.066ZM518.066 59.288L519.067 61.0199L526.491 56.7319L525.49 55L524.49 53.2681L517.066 57.5561L518.066 59.288ZM525.49 55V57H542.77V55V53H525.49V55ZM542.77 55H540.77V62.488H542.77H544.77V55H542.77ZM542.77 62.488V60.488H526.834V62.488V64.488H542.77V62.488ZM526.834 62.488H524.834V66.968H526.834H528.834V62.488H526.834ZM526.834 66.968V68.968H535.986V66.968V64.968H526.834V66.968ZM535.986 66.968L534.986 68.6999L542.41 72.9879L543.41 71.256L544.411 69.5241L536.987 65.2361L535.986 66.968ZM551.724 87H549.724V89H551.724V87ZM551.724 74.84V72.84H549.724V74.84H551.724ZM563.884 74.84H565.884V72.84H563.884V74.84ZM563.884 87V89H565.884V87H563.884ZM553.964 68.568L551.967 68.6854L552.078 70.568H553.964V68.568ZM552.3 40.28V38.28H550.179L550.303 40.3974L552.3 40.28ZM563.308 40.28L565.304 40.3974L565.429 38.28H563.308V40.28ZM561.644 68.568V70.568H563.53L563.64 68.6854L561.644 68.568ZM551.724 87H553.724V74.84H551.724H549.724V87H551.724ZM551.724 74.84V76.84H563.884V74.84V72.84H551.724V74.84ZM563.884 74.84H561.884V87H563.884H565.884V74.84H563.884ZM563.884 87V85H551.724V87V89H563.884V87ZM553.964 68.568L555.96 68.4506L554.296 40.1626L552.3 40.28L550.303 40.3974L551.967 68.6854L553.964 68.568ZM552.3 40.28V42.28H563.308V40.28V38.28H552.3V40.28ZM563.308 40.28L561.311 40.1626L559.647 68.4506L561.644 68.568L563.64 68.6854L565.304 40.3974L563.308 40.28ZM561.644 68.568V66.568H553.964V68.568V70.568H561.644V68.568Z" fill="black" mask="url(#path-2-outside-1_16447_5397)"/>
</g>
<g clip-path="url(#paint5_diamond_16447_5397_clip_path)" data-figma-skip-parse="true"><g transform="matrix(0 0.149 -0.282984 0 329 230)"><rect x="0" y="0" width="1008.8" height="870.407" fill="url(#paint5_diamond_16447_5397)" opacity="1" shape-rendering="crispEdges"/><rect x="0" y="0" width="1008.8" height="870.407" transform="scale(1 -1)" fill="url(#paint5_diamond_16447_5397)" opacity="1" shape-rendering="crispEdges"/><rect x="0" y="0" width="1008.8" height="870.407" transform="scale(-1 1)" fill="url(#paint5_diamond_16447_5397)" opacity="1" shape-rendering="crispEdges"/><rect x="0" y="0" width="1008.8" height="870.407" transform="scale(-1)" fill="url(#paint5_diamond_16447_5397)" opacity="1" shape-rendering="crispEdges"/></g></g><rect width="490" height="258" transform="translate(84 121)" data-figma-gradient-fill="{&#34;type&#34;:&#34;GRADIENT_DIAMOND&#34;,&#34;stops&#34;:[{&#34;color&#34;:{&#34;r&#34;:1.0,&#34;g&#34;:1.0,&#34;b&#34;:1.0,&#34;a&#34;:1.0},&#34;position&#34;:0.55000001192092896},{&#34;color&#34;:{&#34;r&#34;:0.76078432798385620,&#34;g&#34;:0.75686275959014893,&#34;b&#34;:0.98823529481887817,&#34;a&#34;:0.0},&#34;position&#34;:1.0}],&#34;stopsVar&#34;:[{&#34;color&#34;:{&#34;r&#34;:1.0,&#34;g&#34;:1.0,&#34;b&#34;:1.0,&#34;a&#34;:1.0},&#34;position&#34;:0.55000001192092896},{&#34;color&#34;:{&#34;r&#34;:0.76078432798385620,&#34;g&#34;:0.75686275959014893,&#34;b&#34;:0.98823529481887817,&#34;a&#34;:0.0},&#34;position&#34;:1.0}],&#34;transform&#34;:{&#34;m00&#34;:-5.9295498198996821e-12,&#34;m01&#34;:-565.9689941406250,&#34;m02&#34;:611.98449707031250,&#34;m10&#34;:298.0,&#34;m11&#34;:-1.3351392040561461e-11,&#34;m12&#34;:81.000007629394531},&#34;opacity&#34;:1.0,&#34;blendMode&#34;:&#34;NORMAL&#34;,&#34;visible&#34;:true}"/>
<defs>
<filter id="filter0_d_16447_5397" x="91.4836" y="38.2803" width="474.4" height="67.8398" filterUnits="userSpaceOnUse" color-interpolation-filters="sRGB">
<feFlood flood-opacity="0" result="BackgroundImageFix"/>
<feColorMatrix in="SourceAlpha" type="matrix" values="0 0 0 0 0 0 0 0 0 0 0 0 0 0 0 0 0 0 127 0" result="hardAlpha"/>
<feOffset dy="4"/>
<feComposite in2="hardAlpha" operator="out"/>
<feColorMatrix type="matrix" values="0 0 0 0 0.490196 0 0 0 0 0.513726 0 0 0 0 0.698039 0 0 0 1 0"/>
<feBlend mode="normal" in2="BackgroundImageFix" result="effect1_dropShadow_16447_5397"/>
<feBlend mode="normal" in="SourceGraphic" in2="effect1_dropShadow_16447_5397" result="shape"/>
</filter>
<clipPath id="paint5_diamond_16447_5397_clip_path"><rect width="490" height="258" transform="translate(84 121)"/></clipPath><radialGradient id="paint0_radial_16447_5397" cx="0" cy="0" r="1" gradientUnits="userSpaceOnUse" gradientTransform="translate(329 198.812) rotate(90) scale(180.188 312.833)">
<stop stop-color="white"/>
<stop offset="1" stop-color="#4C539B" stop-opacity="0.9"/>
</radialGradient>
<radialGradient id="paint1_radial_16447_5397" cx="0" cy="0" r="1" gradientUnits="userSpaceOnUse" gradientTransform="translate(328.5 197.5) rotate(90) scale(191.5 328.5)">
<stop offset="0.395" stop-color="white"/>
<stop offset="0.88" stop-color="white" stop-opacity="0.5"/>
<stop offset="1" stop-color="#999999" stop-opacity="0"/>
</radialGradient>
<radialGradient id="paint2_radial_16447_5397" cx="0" cy="0" r="1" gradientUnits="userSpaceOnUse" gradientTransform="translate(328.5 197.5) rotate(90) scale(191.5 328.5)">
<stop offset="0.395" stop-color="white"/>
<stop offset="0.88" stop-color="white" stop-opacity="0.5"/>
<stop offset="1" stop-color="#999999" stop-opacity="0"/>
</radialGradient>
<radialGradient id="paint3_radial_16447_5397" cx="0" cy="0" r="1" gradientUnits="userSpaceOnUse" gradientTransform="translate(328.5 197.5) rotate(90) scale(191.5 328.5)">
<stop offset="0.395" stop-color="white"/>
<stop offset="0.88" stop-color="white" stop-opacity="0.5"/>
<stop offset="1" stop-color="#999999" stop-opacity="0"/>
</radialGradient>
<radialGradient id="paint4_radial_16447_5397" cx="0" cy="0" r="1" gradientUnits="userSpaceOnUse" gradientTransform="translate(328.5 197.5) rotate(90) scale(191.5 328.5)">
<stop offset="0.395" stop-color="white"/>
<stop offset="0.88" stop-color="white" stop-opacity="0.5"/>
<stop offset="1" stop-color="#999999" stop-opacity="0"/>
</radialGradient>
<linearGradient id="paint5_diamond_16447_5397" x1="0" y1="0" x2="500" y2="500" gradientUnits="userSpaceOnUse">
<stop offset="0.55" stop-color="white"/>
<stop offset="1" stop-color="#C2C1FC" stop-opacity="0"/>
</linearGradient>
</defs>
</svg>
