<?xml version="1.0" encoding="UTF-8"?>
<svg version="1.1" xmlns="http://www.w3.org/2000/svg" width="669" height="373">
<path d="M0 0 C155.1 0 310.2 0 470 0 C470 12.87 470 25.74 470 39 C482.87 39 495.74 39 509 39 C509 51.87 509 64.74 509 78 C521.87 78 534.74 78 548 78 C548 155.55 548 233.1 548 313 C535.13 313 522.26 313 509 313 C509 325.87 509 338.74 509 352 C328.16 352 147.32 352 -39 352 C-39 339.13 -39 326.26 -39 313 C-51.87 313 -64.74 313 -78 313 C-78.02258492 283.20680661 -78.040498 253.41361417 -78.05106533 223.62041408 C-78.05231611 220.10672461 -78.05361042 216.59303515 -78.05493164 213.0793457 C-78.05519395 212.37980416 -78.05545626 211.68026261 -78.05572652 210.95952284 C-78.06008328 199.61790832 -78.06797086 188.27629884 -78.0771528 176.93468732 C-78.08648916 165.30572509 -78.09198067 153.67676581 -78.09408849 142.0478 C-78.09539604 135.51238696 -78.09848468 128.97698538 -78.10573006 122.441576 C-78.11248618 116.29806153 -78.1146178 110.1545633 -78.11310768 104.01104546 C-78.11338419 101.7490467 -78.11539172 99.48704744 -78.11920547 97.22505188 C-78.12413636 94.15128068 -78.12300053 91.0775719 -78.12025452 88.00379944 C-78.12316736 87.09623038 -78.1260802 86.18866132 -78.12908131 85.25359017 C-78.11412121 79.11412121 -78.11412121 79.11412121 -77 78 C-74.18859849 77.9113874 -71.40120576 77.88470416 -68.58984375 77.90234375 C-67.84383911 77.90335083 -67.09783447 77.90435791 -66.32922363 77.90539551 C-63.53196687 77.91064311 -60.73473196 77.92460427 -57.9375 77.9375 C-51.688125 77.958125 -45.43875 77.97875 -39 78 C-39 65.13 -39 52.26 -39 39 C-26.13 39 -13.26 39 0 39 C0 26.13 0 13.26 0 0 Z " fill="#AA3130" transform="translate(95,9)"/>
<path d="M0 0 C1.66421997 0.00374634 1.66421997 0.00374634 3.36206055 0.00756836 C5.40453979 0.02122437 5.40453979 0.02122437 7.48828125 0.03515625 C11.88140625 0.05578125 16.27453125 0.07640625 20.80078125 0.09765625 C20.80078125 12.96765625 20.80078125 25.83765625 20.80078125 39.09765625 C33.67078125 39.09765625 46.54078125 39.09765625 59.80078125 39.09765625 C59.80078125 116.64765625 59.80078125 194.19765625 59.80078125 274.09765625 C46.93078125 274.09765625 34.06078125 274.09765625 20.80078125 274.09765625 C20.80078125 286.96765625 20.80078125 299.83765625 20.80078125 313.09765625 C-160.03921875 313.09765625 -340.87921875 313.09765625 -527.19921875 313.09765625 C-527.19921875 300.22765625 -527.19921875 287.35765625 -527.19921875 274.09765625 C-540.06921875 274.09765625 -552.93921875 274.09765625 -566.19921875 274.09765625 C-566.19921875 196.87765625 -566.19921875 119.65765625 -566.19921875 40.09765625 C-552.99921875 40.09765625 -539.79921875 40.09765625 -526.19921875 40.09765625 C-526.19921875 116.98765625 -526.19921875 193.87765625 -526.19921875 273.09765625 C-346.01921875 273.09765625 -165.83921875 273.09765625 19.80078125 273.09765625 C19.80078125 196.20765625 19.80078125 119.31765625 19.80078125 40.09765625 C7.26078125 40.09765625 -5.27921875 40.09765625 -18.19921875 40.09765625 C-18.19921875 27.22765625 -18.19921875 14.35765625 -18.19921875 1.09765625 C-5.82421875 -0.02734375 -5.82421875 -0.02734375 0 0 Z " fill="#000000" transform="translate(583.19921875,47.90234375)"/>
<path d="M0 0 C155.1 0 310.2 0 470 0 C470 12.87 470 25.74 470 39 C469.67 39 469.34 39 469 39 C469 26.46 469 13.92 469 1 C417.85 1 366.7 1 314 1 C314 13.54 314 26.08 314 39 C313 40 313 40 309.39819336 40.11352539 C307.79540145 40.11327429 306.19260413 40.1077126 304.58984375 40.09765625 C303.84383911 40.09664917 303.09783447 40.09564209 302.32922363 40.09460449 C299.53196687 40.08935689 296.73473196 40.07539573 293.9375 40.0625 C287.688125 40.041875 281.43875 40.02125 275 40 C275 52.87 275 65.74 275 79 C248.93 79 222.86 79 196 79 C196 66.13 196 53.26 196 40 C183.13 40 170.26 40 157 40 C157 27.13 157 14.26 157 1 C105.52 1 54.04 1 1 1 C1 13.87 1 26.74 1 40 C-1.64 40 -4.28 40 -7 40 C-7 39.67 -7 39.34 -7 39 C-4.69 39 -2.38 39 0 39 C0 26.13 0 13.26 0 0 Z " fill="#8F974B" transform="translate(95,9)"/>
<path d="M0 0 C12.54 0 25.08 0 38 0 C38 76.89 38 153.78 38 233 C25.46 233 12.92 233 0 233 C0 156.11 0 79.22 0 0 Z " fill="#000000" transform="translate(604,88)"/>
<path d="M0 0 C26.07 0 52.14 0 79 0 C79 12.54 79 25.08 79 38 C91.54 38 104.08 38 117 38 C117 50.87 117 63.74 117 77 C104.13 77 91.26 77 78 77 C78 64.46 78 51.92 78 39 C52.26 39 26.52 39 0 39 C0 51.87 0 64.74 0 78 C-12.87 78 -25.74 78 -39 78 C-39 64.8 -39 51.6 -39 38 C-26.13 38 -13.26 38 0 38 C0 25.46 0 12.92 0 0 Z " fill="#90964B" transform="translate(174,88)"/>
<path d="M0 0 C13.2 0 26.4 0 40 0 C40 12.87 40 25.74 40 39 C27.13 39 14.26 39 1 39 C1 51.87 1 64.74 1 78 C-24.74 78 -50.48 78 -77 78 C-77 65.13 -77 52.26 -77 39 C-51.59 39 -26.18 39 0 39 C0 26.13 0 13.26 0 0 Z " fill="#8F974B" transform="translate(369,204)"/>
<path d="M0 0 C1.66421997 0.00374634 1.66421997 0.00374634 3.36206055 0.00756836 C5.40453979 0.02122437 5.40453979 0.02122437 7.48828125 0.03515625 C11.88140625 0.05578125 16.27453125 0.07640625 20.80078125 0.09765625 C20.80078125 12.96765625 20.80078125 25.83765625 20.80078125 39.09765625 C33.67078125 39.09765625 46.54078125 39.09765625 59.80078125 39.09765625 C59.80078125 116.64765625 59.80078125 194.19765625 59.80078125 274.09765625 C46.93078125 274.09765625 34.06078125 274.09765625 20.80078125 274.09765625 C20.80078125 286.96765625 20.80078125 299.83765625 20.80078125 313.09765625 C-160.03921875 313.09765625 -340.87921875 313.09765625 -527.19921875 313.09765625 C-527.19921875 300.22765625 -527.19921875 287.35765625 -527.19921875 274.09765625 C-540.06921875 274.09765625 -552.93921875 274.09765625 -566.19921875 274.09765625 C-566.19921875 196.87765625 -566.19921875 119.65765625 -566.19921875 40.09765625 C-565.86921875 40.09765625 -565.53921875 40.09765625 -565.19921875 40.09765625 C-565.19921875 116.98765625 -565.19921875 193.87765625 -565.19921875 273.09765625 C-372.14921875 273.09765625 -179.09921875 273.09765625 19.80078125 273.09765625 C19.80078125 196.20765625 19.80078125 119.31765625 19.80078125 40.09765625 C7.26078125 40.09765625 -5.27921875 40.09765625 -18.19921875 40.09765625 C-18.19921875 27.22765625 -18.19921875 14.35765625 -18.19921875 1.09765625 C-5.82421875 -0.02734375 -5.82421875 -0.02734375 0 0 Z M20.80078125 40.09765625 C20.80078125 116.98765625 20.80078125 193.87765625 20.80078125 273.09765625 C33.34078125 273.09765625 45.88078125 273.09765625 58.80078125 273.09765625 C58.80078125 196.20765625 58.80078125 119.31765625 58.80078125 40.09765625 C46.26078125 40.09765625 33.72078125 40.09765625 20.80078125 40.09765625 Z M-526.19921875 274.09765625 C-526.19921875 286.63765625 -526.19921875 299.17765625 -526.19921875 312.09765625 C-346.01921875 312.09765625 -165.83921875 312.09765625 19.80078125 312.09765625 C19.80078125 299.55765625 19.80078125 287.01765625 19.80078125 274.09765625 C-160.37921875 274.09765625 -340.55921875 274.09765625 -526.19921875 274.09765625 Z " fill="#41312D" transform="translate(583.19921875,47.90234375)"/>
<path d="M0 0 C26.07 0 52.14 0 79 0 C79 12.87 79 25.74 79 39 C52.93 39 26.86 39 0 39 C0 26.13 0 13.26 0 0 Z " fill="#90944B" transform="translate(408,282)"/>
<path d="M0 0 C25.74 0 51.48 0 78 0 C78 12.87 78 25.74 78 39 C52.26 39 26.52 39 0 39 C0 26.13 0 13.26 0 0 Z " fill="#90954B" transform="translate(135,282)"/>
<path d="M0 0 C25.41 0 50.82 0 77 0 C77 12.54 77 25.08 77 38 C51.59 38 26.18 38 0 38 C0 25.46 0 12.92 0 0 Z " fill="#90964B" transform="translate(409,88)"/>
<path d="M0 0 C25.41 0 50.82 0 77 0 C77 12.54 77 25.08 77 38 C51.59 38 26.18 38 0 38 C0 25.46 0 12.92 0 0 Z " fill="#A93130" transform="translate(292,10)"/>
<path d="M0 0 C155.1 0 310.2 0 470 0 C470 12.87 470 25.74 470 39 C469.67 39 469.34 39 469 39 C469 26.46 469 13.92 469 1 C378.91 1 288.82 1 196 1 C196 13.54 196 26.08 196 39 C183.46 39 170.92 39 158 39 C158 26.46 158 13.92 158 1 C106.19 1 54.38 1 1 1 C1 13.87 1 26.74 1 40 C-1.64 40 -4.28 40 -7 40 C-7 39.67 -7 39.34 -7 39 C-4.69 39 -2.38 39 0 39 C0 26.13 0 13.26 0 0 Z " fill="#9B975F" transform="translate(95,9)"/>
<path d="M0 0 C0.33 0 0.66 0 1 0 C1 12.54 1 25.08 1 38 C13.54 38 26.08 38 39 38 C39 25.46 39 12.92 39 0 C39.33 0 39.66 0 40 0 C40 12.54 40 25.08 40 38 C65.41 38 90.82 38 117 38 C117 25.46 117 12.92 117 0 C130.2 0 143.4 0 157 0 C157.0309375 9.3740625 157.0309375 9.3740625 157.0625 18.9375 C157.071604 20.91226318 157.08070801 22.88702637 157.09008789 24.92163086 C157.09300705 26.47770113 157.09555561 28.03377216 157.09765625 29.58984375 C157.10277222 30.40521606 157.10788818 31.22058838 157.11315918 32.06066895 C157.1134694 34.04080523 157.06238096 36.02084654 157 38 C156 39 156 39 152.39819336 39.11352539 C150.79540145 39.11327429 149.19260413 39.1077126 147.58984375 39.09765625 C146.84383911 39.09664917 146.09783447 39.09564209 145.32922363 39.09460449 C142.53196687 39.08935689 139.73473196 39.07539573 136.9375 39.0625 C130.688125 39.041875 124.43875 39.02125 118 39 C118 51.87 118 64.74 118 78 C91.93 78 65.86 78 39 78 C39 65.13 39 52.26 39 39 C26.13 39 13.26 39 0 39 C0 26.13 0 13.26 0 0 Z M40 39 C40 51.54 40 64.08 40 77 C65.41 77 90.82 77 117 77 C117 64.46 117 51.92 117 39 C91.59 39 66.18 39 40 39 Z " fill="#8F974B" transform="translate(252,10)"/>
<path d="M0 0 C12.87 0 25.74 0 39 0 C39 12.87 39 25.74 39 39 C26.13 39 13.26 39 0 39 C0 26.13 0 13.26 0 0 Z " fill="#91954B" transform="translate(57,243)"/>
<path d="M0 0 C12.87 0 25.74 0 39 0 C39 12.87 39 25.74 39 39 C26.13 39 13.26 39 0 39 C0 26.13 0 13.26 0 0 Z " fill="#8F974B" transform="translate(525,204)"/>
<path d="M0 0 C12.87 0 25.74 0 39 0 C39 12.87 39 25.74 39 39 C26.13 39 13.26 39 0 39 C0 26.13 0 13.26 0 0 Z " fill="#8F974B" transform="translate(252,204)"/>
<path d="M0 0 C12.87 0 25.74 0 39 0 C39 12.87 39 25.74 39 39 C26.13 39 13.26 39 0 39 C0 26.13 0 13.26 0 0 Z " fill="#8F974B" transform="translate(96,204)"/>
<path d="M0 0 C12.87 0 25.74 0 39 0 C39 12.87 39 25.74 39 39 C26.13 39 13.26 39 0 39 C0 26.13 0 13.26 0 0 Z " fill="#8F974B" transform="translate(525,49)"/>
<path d="M0 0 C12.87 0 25.74 0 39 0 C39 12.87 39 25.74 39 39 C26.13 39 13.26 39 0 39 C0 26.13 0 13.26 0 0 Z " fill="#8F954B" transform="translate(96,49)"/>
<path d="M0 0 C12.87 0 25.74 0 39 0 C39 12.87 39 25.74 39 39 C26.13 39 13.26 39 0 39 C0 26.13 0 13.26 0 0 Z " fill="#020100" transform="translate(96,10)"/>
<path d="M0 0 C0 12.54 0 25.08 0 38 C-12.87 38 -25.74 38 -39 38 C-39 25.46 -39 12.92 -39 0 C-13 -1.625 -13 -1.625 0 0 Z " fill="#010100" transform="translate(96,49)"/>
<path d="M0 0 C1.06887451 0.04310303 2.13774902 0.08620605 3.23901367 0.13061523 C4.54845947 0.19192627 5.85790527 0.2532373 7.20703125 0.31640625 C11.43515625 0.50203125 15.66328125 0.68765625 20.01953125 0.87890625 C20.01953125 13.74890625 20.01953125 26.61890625 20.01953125 39.87890625 C7.47953125 39.87890625 -5.06046875 39.87890625 -17.98046875 39.87890625 C-17.98046875 27.00890625 -17.98046875 14.13890625 -17.98046875 0.87890625 C-5.60546875 -0.24609375 -5.60546875 -0.24609375 0 0 Z " fill="#020000" transform="translate(582.98046875,48.12109375)"/>
<path d="M0 0 C12.54 0 25.08 0 38 0 C38 12.87 38 25.74 38 39 C25.46 39 12.92 39 0 39 C0 26.13 0 13.26 0 0 Z " fill="#8F974B" transform="translate(565,243)"/>
<path d="M0 0 C12.54 0 25.08 0 38 0 C38 12.54 38 25.08 38 38 C25.46 38 12.92 38 0 38 C0 25.46 0 12.92 0 0 Z " fill="#8F974A" transform="translate(370,127)"/>
<path d="M0 0 C12.54 0 25.08 0 38 0 C38 12.54 38 25.08 38 38 C25.46 38 12.92 38 0 38 C0 25.46 0 12.92 0 0 Z " fill="#91964C" transform="translate(487,127)"/>
<path d="M0 0 C12.54 0 25.08 0 38 0 C38 12.54 38 25.08 38 38 C25.46 38 12.92 38 0 38 C0 25.46 0 12.92 0 0 Z " fill="#000000" transform="translate(526,10)"/>
<path d="M0 0 C5.61 0 11.22 0 17 0 C17 0.33 17 0.66 17 1 C11.72 1 6.44 1 1 1 C1 13.54 1 26.08 1 39 C6.65125 38.979375 12.3025 38.95875 18.125 38.9375 C38.09627516 38.90245218 58.04012892 39.36144716 78 40 C78 40.33 78 40.66 78 41 C53.25 41 28.5 41 3 41 C3 91.49 3 141.98 3 194 C14.88 194 26.76 194 39 194 C39 181.46 39 168.92 39 156 C39.33 156 39.66 156 40 156 C40 168.87 40 181.74 40 195 C27.13 195 14.26 195 1 195 C1 143.85 1 92.7 1 40 C-11.87 40 -24.74 40 -38 40 C-38 39.67 -38 39.34 -38 39 C-25.46 39 -12.92 39 0 39 C0 26.13 0 13.26 0 0 Z " fill="#843B37" transform="translate(56,48)"/>
<path d="M0 0 C19.42603332 -0.04010881 19.42603332 -0.04010881 27.67773438 -0.04882812 C33.31828751 -0.05481645 38.95882448 -0.06191648 44.59936523 -0.07543945 C49.14455404 -0.08626873 53.68972552 -0.09227692 58.23492622 -0.09487724 C59.97294958 -0.09673142 61.71097194 -0.10035189 63.44898796 -0.10573006 C65.87478595 -0.11294103 68.30051146 -0.11399092 70.72631836 -0.11352539 C71.45208069 -0.11712067 72.17784302 -0.12071594 72.92559814 -0.12442017 C77.88594784 -0.11405216 77.88594784 -0.11405216 79 1 C79.0886126 3.81140151 79.11529584 6.59879424 79.09765625 9.41015625 C79.09664917 10.15616089 79.09564209 10.90216553 79.09460449 11.67077637 C79.08935689 14.46803313 79.07539573 17.26526804 79.0625 20.0625 C79.041875 26.311875 79.02125 32.56125 79 39 C92.2 39 105.4 39 119 39 C119 51.87 119 64.74 119 78 C118.34 78 117.68 78 117 78 C117 65.46 117 52.92 117 40 C104.46 40 91.92 40 79 40 C79 52.54 79 65.08 79 78 C78.67 78 78.34 78 78 78 C78 65.46 78 52.92 78 40 C52.59 40 27.18 40 1 40 C1 52.87 1 65.74 1 79 C-12.2 79 -25.4 79 -39 79 C-39 65.8 -39 52.6 -39 39 C-26.13 39 -13.26 39 0 39 C0 26.13 0 13.26 0 0 Z M1 1 C1 13.54 1 26.08 1 39 C26.41 39 51.82 39 78 39 C78 26.46 78 13.92 78 1 C52.59 1 27.18 1 1 1 Z M-38 40 C-38 52.54 -38 65.08 -38 78 C-25.46 78 -12.92 78 0 78 C0 65.46 0 52.92 0 40 C-12.54 40 -25.08 40 -38 40 Z " fill="#9F5F3A" transform="translate(408,87)"/>
<path d="M0 0 C13.2 0 26.4 0 40 0 C40 12.87 40 25.74 40 39 C39.67 39 39.34 39 39 39 C38.67 26.46 38.34 13.92 38 1 C25.79 1 13.58 1 1 1 C1 26.41 1 51.82 1 78 C-24.74 78 -50.48 78 -77 78 C-77 65.13 -77 52.26 -77 39 C-51.59 39 -26.18 39 0 39 C0 26.13 0 13.26 0 0 Z M-76 41 C-76 52.88 -76 64.76 -76 77 C-51.25 77 -26.5 77 -1 77 C-1 65.45 -1 53.9 -1 42 C-2.11004121 40.66412191 -2.11004121 40.66412191 -4.92958069 40.87974548 C-6.89815285 40.8830764 -6.89815285 40.8830764 -8.90649414 40.88647461 C-9.98935951 40.88625557 -9.98935951 40.88625557 -11.09410095 40.8860321 C-13.49114947 40.88673131 -15.88812123 40.89452405 -18.28515625 40.90234375 C-19.94282489 40.9042079 -21.60049407 40.90563182 -23.25816345 40.90663147 C-27.62954214 40.91045688 -32.00088781 40.92028735 -36.37225342 40.93133545 C-41.61267667 40.94334359 -46.85311094 40.9479517 -52.09354401 40.95378876 C-60.06238566 40.9634991 -68.03115482 40.98265548 -76 41 Z " fill="#A27F4C" transform="translate(369,204)"/>
<path d="M0 0 C1.28753174 0.00607269 1.28753174 0.00607269 2.60107422 0.01226807 C3.92147705 0.00939789 3.92147705 0.00939789 5.26855469 0.00646973 C7.13135056 0.00510755 8.99415591 0.00880625 10.85693359 0.01715088 C13.71457158 0.02785 16.57158088 0.01725675 19.42919922 0.00445557 C21.23649228 0.00577716 23.04378495 0.00833954 24.85107422 0.01226807 C25.70942871 0.0082196 26.5677832 0.00417114 27.45214844 0 C33.49615677 0.04797562 33.49615677 0.04797562 35.72607422 2.27789307 C35.72607422 14.48789307 35.72607422 26.69789307 35.72607422 39.27789307 C72.35607422 39.77289307 72.35607422 39.77289307 109.72607422 40.27789307 C109.72607422 27.73789307 109.72607422 15.19789307 109.72607422 2.27789307 C110.05607422 2.27789307 110.38607422 2.27789307 110.72607422 2.27789307 C110.72607422 15.14789307 110.72607422 28.01789307 110.72607422 41.27789307 C85.31607422 41.27789307 59.90607422 41.27789307 33.72607422 41.27789307 C33.72607422 54.14789307 33.72607422 67.01789307 33.72607422 80.27789307 C33.06607422 80.27789307 32.40607422 80.27789307 31.72607422 80.27789307 C31.72607422 68.06789307 31.72607422 55.85789307 31.72607422 43.27789307 C29.00615234 43.28949463 26.28623047 43.30109619 23.48388672 43.31304932 C20.85612098 43.32084304 18.22835652 43.32691801 15.60058594 43.33282471 C13.77115301 43.33786044 11.94172413 43.34468934 10.11230469 43.35333252 C7.48615524 43.36543131 4.8600589 43.37112889 2.23388672 43.37554932 C1.41300568 43.3807106 0.59212463 43.38587189 -0.25363159 43.39118958 C-6.04618237 43.39176477 -6.04618237 43.39176477 -8.27392578 42.27789307 C-8.32327504 36.61791261 -8.35962107 30.95805671 -8.38378906 25.2979126 C-8.3938616 23.37145812 -8.40752022 21.44501899 -8.42480469 19.51861572 C-8.44899819 16.75344055 -8.46039614 13.98846707 -8.46923828 11.22320557 C-8.47956085 10.35857697 -8.48988342 9.49394836 -8.5005188 8.6031189 C-8.50091684 6.49335786 -8.39657821 4.38408588 -8.27392578 2.27789307 C-5.61322373 -0.38280898 -3.619129 0.02872762 0 0 Z M-6.27392578 2.27789307 C-6.27392578 15.14789307 -6.27392578 28.01789307 -6.27392578 41.27789307 C6.59607422 41.27789307 19.46607422 41.27789307 32.72607422 41.27789307 C32.72607422 28.40789307 32.72607422 15.53789307 32.72607422 2.27789307 C19.85607422 2.27789307 6.98607422 2.27789307 -6.27392578 2.27789307 Z " fill="#9A462B" transform="translate(258.27392578125,201.72210693359375)"/>
<path d="M0 0 C0.33 0 0.66 0 1 0 C1 12.54 1 25.08 1 38 C13.54 38 26.08 38 39 38 C39 25.46 39 12.92 39 0 C39.33 0 39.66 0 40 0 C40 12.54 40 25.08 40 38 C65.41 38 90.82 38 117 38 C117 25.46 117 12.92 117 0 C117.33 0 117.66 0 118 0 C118 25.74 118 51.48 118 78 C91.93 78 65.86 78 39 78 C39 65.13 39 52.26 39 39 C26.13 39 13.26 39 0 39 C0 26.13 0 13.26 0 0 Z M40 39 C40 51.54 40 64.08 40 77 C65.41 77 90.82 77 117 77 C117 64.46 117 51.92 117 39 C91.59 39 66.18 39 40 39 Z " fill="#9B683D" transform="translate(252,10)"/>
<path d="M0 0 C0 0.66 0 1.32 0 2 C-12.54 2 -25.08 2 -38 2 C-38 14.87 -38 27.74 -38 41 C-25.13 41 -12.26 41 1 41 C1 28.13 1 15.26 1 2 C1.33 2 1.66 2 2 2 C2 27.74 2 53.48 2 80 C14.54 80 27.08 80 40 80 C40 80.33 40 80.66 40 81 C34.46411467 81.02464775 28.928261 81.04283496 23.39233398 81.05493164 C21.5075627 81.05997244 19.62279535 81.06680498 17.73803711 81.07543945 C15.03498364 81.08751617 12.33198169 81.09323068 9.62890625 81.09765625 C8.78099014 81.10281754 7.93307404 81.10797882 7.0594635 81.11329651 C5.03928932 81.11349195 3.01922066 81.06206211 1 81 C0 80 0 80 -0.11352539 76.48999023 C-0.11336626 74.92951578 -0.10767142 73.36903607 -0.09765625 71.80859375 C-0.0962413 70.98875504 -0.09482635 70.16891632 -0.09336853 69.32423401 C-0.08775289 66.69528618 -0.07519779 64.06642227 -0.0625 61.4375 C-0.05748701 59.65950643 -0.05292376 57.88151154 -0.04882812 56.10351562 C-0.03777839 51.73564455 -0.02050331 47.36783652 0 43 C-1.14065918 43.00523682 -2.28131836 43.01047363 -3.45654297 43.01586914 C-7.67951679 43.03393869 -11.90248718 43.04543919 -16.12548828 43.05493164 C-17.95492121 43.05996737 -19.78435009 43.06679627 -21.61376953 43.07543945 C-24.23991898 43.08753824 -26.86601532 43.09323583 -29.4921875 43.09765625 C-30.31306854 43.10281754 -31.13394958 43.10797882 -31.97970581 43.11329651 C-37.77225659 43.11387171 -37.77225659 43.11387171 -40 42 C-40.02467609 36.48242521 -40.04284856 30.96488239 -40.05493164 25.44726562 C-40.05996763 23.56933025 -40.06679671 21.6913988 -40.07543945 19.81347656 C-40.08753713 17.11782868 -40.09323557 14.42223253 -40.09765625 11.7265625 C-40.10281754 10.88380768 -40.10797882 10.04105286 -40.11329651 9.17276001 C-40.11387171 3.22774341 -40.11387171 3.22774341 -39 1 C-34.08872547 0.85684967 -29.17742985 0.71445431 -24.26611328 0.57275391 C-22.59585989 0.5244582 -20.92561242 0.47595738 -19.25537109 0.42724609 C-16.8525544 0.35720563 -14.44971728 0.28790647 -12.046875 0.21875 C-11.30193787 0.19687622 -10.55700073 0.17500244 -9.78948975 0.15246582 C-6.52399499 0.05912573 -3.26724072 0 0 0 Z " fill="#9C4C30" transform="translate(563,202)"/>
<path d="M0 0 C0.33 0 0.66 0 1 0 C1 12.54 1 25.08 1 38 C13.54 38 26.08 38 39 38 C39 38.33 39 38.66 39 39 C26.46 39 13.92 39 1 39 C1 51.54 1 64.08 1 77 C0.67 77 0.34 77 0 77 C0 64.46 0 51.92 0 39 C-14.84652855 39.10788267 -29.69301093 39.21984484 -44.53945065 39.33933926 C-51.43245157 39.39468671 -58.32545768 39.44817114 -65.21850586 39.49731445 C-71.86450102 39.5447016 -78.51044257 39.5972213 -85.15637398 39.65294075 C-87.6982141 39.6733991 -90.24006892 39.69210627 -92.78193474 39.70907402 C-96.32855443 39.73304124 -99.8750719 39.76310595 -103.42163086 39.79467773 C-104.48401978 39.8004332 -105.54640869 39.80618866 -106.64099121 39.81211853 C-108.08187355 39.82680176 -108.08187355 39.82680176 -109.55186462 39.84178162 C-110.81149474 39.85146044 -110.81149474 39.85146044 -112.09657192 39.8613348 C-114.01016367 39.79220997 -114.01016367 39.79220997 -115 41 C-115.0885067 43.59334148 -115.1153317 46.16062579 -115.09765625 48.75390625 C-115.09664917 49.44093628 -115.09564209 50.12796631 -115.09460449 50.83581543 C-115.08935776 53.41139384 -115.07539659 55.98694853 -115.0625 58.5625 C-115.041875 64.316875 -115.02125 70.07125 -115 76 C-96.685 76.495 -96.685 76.495 -78 77 C-78 77.33 -78 77.66 -78 78 C-90.87 78 -103.74 78 -117 78 C-117 64.8 -117 51.6 -117 38 C-78.39 38 -39.78 38 0 38 C0 25.46 0 12.92 0 0 Z " fill="#9F663F" transform="translate(252,88)"/>
<path d="M0 0 C38.61 0 77.22 0 117 0 C117 12.54 117 25.08 117 38 C116.67 38 116.34 38 116 38 C115.67 25.79 115.34 13.58 115 1 C77.71 1 40.42 1 2 1 C2.33 26.08 2.66 51.16 3 77 C1.515 77.495 1.515 77.495 0 78 C0 52.26 0 26.52 0 0 Z " fill="#973938" transform="translate(135,10)"/>
<path d="M0 0 C25.74 0 51.48 0 78 0 C78 12.54 78 25.08 78 38 C90.87 38 103.74 38 117 38 C117 25.46 117 12.92 117 0 C117.33 0 117.66 0 118 0 C118.495 19.8 118.495 19.8 119 40 C114.93506814 41.01623297 111.2438556 41.17904293 107.09375 41.203125 C106.33203491 41.20882507 105.57031982 41.21452515 104.78552246 41.22039795 C103.17848083 41.22982305 101.57142009 41.23637201 99.96435547 41.24023438 C97.50844795 41.24996652 95.05336851 41.28102281 92.59765625 41.3125 C91.03385912 41.31902817 89.47005603 41.32427937 87.90625 41.328125 C86.80766663 41.3466452 86.80766663 41.3466452 85.68688965 41.36553955 C81.01405025 41.34514191 79.95142686 40.96357015 76 38 C76 26.12 76 14.24 76 2 C51.25 2 26.5 2 1 2 C1 13.88 1 25.76 1 38 C0.67 38 0.34 38 0 38 C0 25.46 0 12.92 0 0 Z " fill="#9C442C" transform="translate(174,127)"/>
<path d="M0 0 C5.65998046 -0.04934926 11.31983636 -0.08569529 16.97998047 -0.10986328 C18.90643494 -0.11993582 20.83287408 -0.13359443 22.75927734 -0.15087891 C25.52445252 -0.17507241 28.289426 -0.18647036 31.0546875 -0.1953125 C31.9193161 -0.20563507 32.7839447 -0.21595764 33.67477417 -0.22659302 C35.78453521 -0.22699106 37.89380718 -0.12265243 40 0 C42.59457003 2.59457003 42.25865403 4.40687775 42.30354309 7.94334412 C42.30263168 8.754814 42.30172028 9.56628387 42.30078125 10.40234375 C42.30506638 11.23584854 42.3093515 12.06935333 42.31376648 12.92811584 C42.31951435 14.6925465 42.32000668 16.45700085 42.31567383 18.22143555 C42.31251645 20.92342533 42.33595745 23.62431778 42.36132812 26.32617188 C42.36360131 28.03906112 42.36430453 29.75195331 42.36328125 31.46484375 C42.372491 32.2742894 42.38170074 33.08373505 42.39118958 33.91770935 C42.34465639 39.55138512 42.34465639 39.55138512 40.68238831 41.71504211 C37.96464651 43.79077204 34.94217575 43.38672675 31.6640625 43.328125 C30.94769623 43.32625183 30.23132996 43.32437866 29.49325562 43.32244873 C27.9785293 43.31573099 26.46382026 43.30182184 24.94921875 43.28125 C22.64045931 43.25020786 20.33238462 43.2402878 18.0234375 43.234375 C16.54947092 43.2251994 15.07551123 43.21482186 13.6015625 43.203125 C12.57163681 43.19675018 12.57163681 43.19675018 11.52090454 43.19024658 C7.81224636 43.13548209 4.68160724 42.73632145 1 42 C1 54.21 1 66.42 1 79 C0.67 79 0.34 79 0 79 C0 66.13 0 53.26 0 40 C12.87 40 25.74 40 39 40 C39 27.13 39 14.26 39 1 C26.13 1 13.26 1 0 1 C0 0.67 0 0.34 0 0 Z " fill="#9B422B" transform="translate(96,203)"/>
<path d="M0 0 C12.87 0 25.74 0 39 0 C38.67 0.66 38.34 1.32 38 2 C25.79 2 13.58 2 1 2 C1.01160156 4.71992188 1.02320313 7.43984375 1.03515625 10.2421875 C1.04294998 12.86995324 1.04902495 15.4977177 1.05493164 18.12548828 C1.05996737 19.95492121 1.06679627 21.78435009 1.07543945 23.61376953 C1.08753824 26.23991898 1.09323583 28.86601532 1.09765625 31.4921875 C1.10281754 32.31306854 1.10797882 33.13394958 1.11329651 33.97970581 C1.11387171 39.77225659 1.11387171 39.77225659 0 42 C-9.87458265 42.06941369 -19.74910756 42.12276721 -29.6238842 42.15543652 C-34.20881625 42.17111366 -38.79358178 42.19238906 -43.37841797 42.22631836 C-47.80043303 42.25883911 -52.22228761 42.27683757 -56.64441299 42.28463173 C-58.3341843 42.29018839 -60.0239465 42.30103878 -61.71364975 42.31719017 C-64.07475738 42.33886814 -66.4351961 42.34197105 -68.79638672 42.34057617 C-69.85158508 42.35675491 -69.85158508 42.35675491 -70.92810059 42.3732605 C-72.87423706 42.36076355 -72.87423706 42.36076355 -76 42 C-76.66 41.01 -77.32 40.02 -78 39 C-52.26 39 -26.52 39 0 39 C0 26.13 0 13.26 0 0 Z " fill="#9F442E" transform="translate(370,243)"/>
<path d="M0 0 C12.87 0 25.74 0 39 0 C39 12.87 39 25.74 39 39 C26.13 39 13.26 39 0 39 C0 26.13 0 13.26 0 0 Z M2 3 C1.81278148 5.49743862 1.74420233 7.88188683 1.76953125 10.37890625 C1.76998947 11.10617416 1.77044769 11.83344208 1.7709198 12.58274841 C1.77394164 14.12020499 1.78182595 15.65765852 1.79418945 17.19506836 C1.81245427 19.55658735 1.8146991 21.91771461 1.81445312 24.27929688 C1.81936797 25.77083674 1.82519614 27.26237394 1.83203125 28.75390625 C1.83314407 29.46430557 1.8342569 30.1747049 1.83540344 30.90663147 C1.57938617 34.23762905 1.57938617 34.23762905 3 37 C5.59359322 37.08851529 8.16039691 37.11525945 10.75390625 37.09765625 C11.52935287 37.0962413 12.3047995 37.09482635 13.10374451 37.09336853 C15.59003494 37.08775345 18.0762366 37.07519846 20.5625 37.0625 C22.24413933 37.05748694 23.92578006 37.0529237 25.60742188 37.04882812 C29.73831566 37.03777913 33.86914276 37.02050445 38 37 C38.024759 32.51595436 38.04288799 28.03194519 38.05493164 23.54785156 C38.05995365 22.02310493 38.0667725 20.49836309 38.07543945 18.97363281 C38.08759849 16.77928481 38.09324968 14.5850006 38.09765625 12.390625 C38.10289307 11.07094727 38.10812988 9.75126953 38.11352539 8.39160156 C38.02311329 5.69051582 37.81881355 3.5499384 37 1 C32.33692986 0.95062721 27.67401127 0.91429373 23.01074219 0.89013672 C21.42380117 0.88006812 19.83687875 0.86641233 18.25 0.84912109 C15.97130753 0.82490999 13.69285994 0.81352578 11.4140625 0.8046875 C10.70255035 0.79436493 9.99103821 0.78404236 9.25796509 0.77340698 C5.17788754 0.64727815 5.17788754 0.64727815 2 3 Z " fill="#A2854F" transform="translate(525,204)"/>
<path d="M0 0 C25.41 0 50.82 0 77 0 C77 12.54 77 25.08 77 38 C89.87 38 102.74 38 116 38 C116 38.99 116 39.98 116 41 C110.62485095 41.04935509 105.24983315 41.08569802 99.87451172 41.10986328 C98.04506127 41.11993484 96.21562697 41.13359276 94.38623047 41.15087891 C91.76005066 41.17507677 89.13408325 41.18647132 86.5078125 41.1953125 C85.68693146 41.20563507 84.86605042 41.21595764 84.02029419 41.22659302 C82.01210858 41.22699184 80.00444618 41.1224954 78 41 C76 39 76 39 75.77294922 35.28466797 C75.77344985 33.68713953 75.78451549 32.08958866 75.8046875 30.4921875 C75.80670166 29.74718994 75.80871582 29.00219238 75.81079102 28.23461914 C75.8212659 25.44801692 75.84918848 22.66150236 75.875 19.875 C75.91625 13.64625 75.9575 7.4175 76 1 C51.25 1 26.5 1 1 1 C1 12.88 1 24.76 1 37 C0.67 37 0.34 37 0 37 C0 24.79 0 12.58 0 0 Z " fill="#9C432C" transform="translate(409,127)"/>
<path d="M0 0 C12.54 0 25.08 0 38 0 C37.34 0.99 36.68 1.98 36 3 C33.29918608 3.19532501 30.83792754 3.20748701 28.1484375 3.07421875 C27.46241455 3.05153931 26.7763916 3.02885986 26.06958008 3.00549316 C23.50408476 2.91618347 20.93957296 2.80022974 18.375 2.6875 C9.774375 2.3471875 9.774375 2.3471875 1 2 C1 14.54 1 27.08 1 40 C-2.55339498 41.18446499 -5.71718542 41.08911717 -9.40893555 41.02172852 C-10.53613007 41.0073172 -10.53613007 41.0073172 -11.68609619 40.99261475 C-14.16973269 40.95963596 -16.65319268 40.9192994 -19.13671875 40.87890625 C-20.85878375 40.85460404 -22.58085528 40.83076053 -24.30293274 40.80735779 C-28.83545367 40.74452694 -33.367859 40.67545743 -37.90026855 40.60510254 C-42.52525569 40.5344101 -47.15032479 40.46959857 -51.77539062 40.40429688 C-60.8503505 40.27529741 -69.92519913 40.13970919 -79 40 C-79 39.67 -79 39.34 -79 39 C-52.93 39 -26.86 39 0 39 C0 26.13 0 13.26 0 0 Z " fill="#9C3D2A" transform="translate(370,49)"/>
<path d="M0 0 C12.54 0 25.08 0 38 0 C38 12.87 38 25.74 38 39 C25.46 39 12.92 39 0 39 C0 26.13 0 13.26 0 0 Z M1 3 C0.89971554 5.24429055 0.86918581 7.49175214 0.8671875 9.73828125 C0.86575241 10.75404488 0.86575241 10.75404488 0.86428833 11.79032898 C0.86360643 13.22700086 0.8654614 14.6636758 0.86962891 16.1003418 C0.87495236 18.29287726 0.8696972 20.48520554 0.86328125 22.67773438 C0.86394252 24.07291712 0.86522468 25.46809973 0.8671875 26.86328125 C0.86831543 28.13469971 0.86944336 29.40611816 0.87060547 30.71606445 C0.8942074 34.15525852 0.8942074 34.15525852 2 38 C13.22 38 24.44 38 36 38 C37.53297297 34.93405406 37.12131455 31.72888147 37.09765625 28.3671875 C37.0962413 27.61535187 37.09482635 26.86351624 37.09336853 26.08889771 C37.08776465 23.6842249 37.07521157 21.27964473 37.0625 18.875 C37.0574855 17.24609509 37.0529225 15.61718873 37.04882812 13.98828125 C37.03779397 9.99215173 37.02052679 5.99609158 37 2 C32.03377651 1.97534902 27.06758834 1.95716351 22.10131836 1.94506836 C20.41055684 1.9400281 18.71979971 1.93319595 17.02905273 1.92456055 C14.60399293 1.91248143 12.17899056 1.90676877 9.75390625 1.90234375 C8.99348526 1.89718246 8.23306427 1.89202118 7.44960022 1.88670349 C3.93264024 1.55991542 3.93264024 1.55991542 1 3 Z " fill="#9B8750" transform="translate(565,243)"/>
<path d="M0 0 C12.54 0 25.08 0 38 0 C38 12.54 38 25.08 38 38 C25.46 38 12.92 38 0 38 C0 25.46 0 12.92 0 0 Z M1 1 C0.979375 6.0325 0.95875 11.065 0.9375 16.25 C0.928396 17.83200195 0.91929199 19.41400391 0.90991211 21.04394531 C0.90741455 22.29272461 0.90491699 23.54150391 0.90234375 24.828125 C0.89710693 26.1059082 0.89187012 27.38369141 0.88647461 28.70019531 C0.89016207 32.15291549 0.89016207 32.15291549 2 36 C13.22 36 24.44 36 36 36 C37.16864255 32.49407236 37.12526009 29.35225979 37.09765625 25.70703125 C37.09515869 24.41514893 37.09266113 23.1232666 37.09008789 21.79223633 C37.08098389 20.14892334 37.07187988 18.50561035 37.0625 16.8125 C37.041875 11.594375 37.02125 6.37625 37 1 C25.12 1 13.24 1 1 1 Z " fill="#9E8C52" transform="translate(370,127)"/>
<path d="M0 0 C12.21 0 24.42 0 37 0 C36.67 0.66 36.34 1.32 36 2 C25.11 2 14.22 2 3 2 C2.9770898 6.82387067 2.95716314 11.64755389 2.94506836 16.47143555 C2.94002826 18.11369464 2.93319622 19.75594923 2.92456055 21.39819336 C2.91248074 23.75375479 2.90676861 26.10925709 2.90234375 28.46484375 C2.89718246 29.20339096 2.89202118 29.94193817 2.88670349 30.7028656 C2.8865075 32.46898088 2.93805281 34.23497146 3 36 C5.00503509 38.00503509 9.00025444 37.25588663 11.75390625 37.31640625 C12.52935287 37.33718735 13.3047995 37.35796844 14.10374451 37.37937927 C16.58990308 37.44495802 19.07617045 37.50379799 21.5625 37.5625 C23.24415204 37.60567733 24.92579294 37.64929136 26.60742188 37.69335938 C30.73816871 37.80064779 34.86902536 37.90189132 39 38 C39 38.33 39 38.66 39 39 C26.13 39 13.26 39 0 39 C0 26.13 0 13.26 0 0 Z " fill="#98834E" transform="translate(525,49)"/>
<path d="M0 0 C25.41 0 50.82 0 77 0 C77 12.54 77 25.08 77 38 C76.67 38 76.34 38 76 38 C75.67 26.12 75.34 14.24 75 2 C67.15734628 1.97900539 59.31479489 1.9589724 51.47213745 1.94824982 C47.81962883 1.94297879 44.16714357 1.93593968 40.51464844 1.92456055 C36.99388524 1.913661 33.47314465 1.90770822 29.95236588 1.90512276 C27.96163436 1.90238764 25.97091188 1.89458687 23.98019409 1.88670349 C22.75938141 1.88662796 21.53856873 1.88655243 20.28076172 1.88647461 C19.21042694 1.884254 18.14009216 1.88203339 17.037323 1.87974548 C13.94698431 2.00209901 11.04242672 2.46369706 8 3 C6.00034285 3.03703069 3.99943335 3.04760556 2 3 C2.33 3.33 2.66 3.66 3 4 C2.01 4.495 2.01 4.495 1 5 C1 15.56 1 26.12 1 37 C5.455 36.505 5.455 36.505 10 36 C10.66 36.66 11.32 37.32 12 38 C8.04 38 4.08 38 0 38 C0 25.46 0 12.92 0 0 Z " fill="#A28D53" transform="translate(292,49)"/>
<path d="M0 0 C0.66 0 1.32 0 2 0 C2.02464849 5.39346988 2.04283531 10.78690725 2.05493164 16.18041992 C2.05997231 18.01668875 2.06680477 19.85295354 2.07543945 21.68920898 C2.08751672 24.32276401 2.09323081 26.95626616 2.09765625 29.58984375 C2.10281754 30.41588608 2.10797882 31.24192841 2.11329651 32.09300232 C2.11349205 34.06236368 2.06204152 36.03161614 2 38 C1 39 1 39 -2.60180664 39.11352539 C-4.20459855 39.11327429 -5.80739587 39.1077126 -7.41015625 39.09765625 C-8.15616089 39.09664917 -8.90216553 39.09564209 -9.67077637 39.09460449 C-12.46803313 39.08935689 -15.26526804 39.07539573 -18.0625 39.0625 C-24.311875 39.041875 -30.56125 39.02125 -37 39 C-37 26.46 -37 13.92 -37 1 C-36.67 1 -36.34 1 -36 1 C-36 12.88 -36 24.76 -36 37 C-24.12 37 -12.24 37 0 37 C0 24.79 0 12.58 0 0 Z " fill="#A27F4D" transform="translate(407,10)"/>
<path d="M0 0 C0.33 0.66 0.66 1.32 1 2 C2.32 2 3.64 2 5 2 C5 13.88 5 25.76 5 38 C2.525 38.495 2.525 38.495 0 39 C0 26.13 0 13.26 0 0 Z " fill="#878F49" transform="translate(57,243)"/>
<path d="M0 0 C25.74 0 51.48 0 78 0 C78 0.99 78 1.98 78 3 C52.26 3 26.52 3 0 3 C0 2.01 0 1.02 0 0 Z " fill="#A2452F" transform="translate(174,85)"/>
<path d="M0 0 C12.87 0 25.74 0 39 0 C39 12.87 39 25.74 39 39 C26.13 39 13.26 39 0 39 C0 26.13 0 13.26 0 0 Z M1 2 C1 13.88 1 25.76 1 38 C13.21 38 25.42 38 38 38 C38.061875 32.26625 38.12375 26.5325 38.1875 20.625 C38.21481201 18.81596191 38.24212402 17.00692383 38.27026367 15.14306641 C38.27902373 13.71257191 38.28666881 12.28206995 38.29296875 10.8515625 C38.30831665 10.10608154 38.32366455 9.36060059 38.33947754 8.5925293 C38.37621739 6.220834 38.37621739 6.220834 38 3 C34.30313788 0.53542525 32.43900662 0.75520211 28.03125 0.76953125 C27.01617371 0.77021858 27.01617371 0.77021858 25.98059082 0.7709198 C24.55165857 0.77393708 23.12272945 0.78180774 21.69384766 0.79418945 C19.50801931 0.81243307 17.32261526 0.81469912 15.13671875 0.81445312 C7.9639258 0.64645181 7.9639258 0.64645181 1 2 Z " fill="#A4824F" transform="translate(252,204)"/>
<path d="M0 0 C12.87 0 25.74 0 39 0 C39 12.87 39 25.74 39 39 C26.13 39 13.26 39 0 39 C0 26.13 0 13.26 0 0 Z M1 1 C1 13.21 1 25.42 1 38 C9.600625 38.061875 9.600625 38.061875 18.375 38.125 C20.18403809 38.14320801 21.99307617 38.16141602 23.85693359 38.18017578 C25.28743187 38.18601584 26.71793347 38.19111255 28.1484375 38.1953125 C29.26665894 38.2106604 29.26665894 38.2106604 30.4074707 38.22631836 C32.27317284 38.22695317 34.13834854 38.12287692 36 38 C38.37523595 36.06409791 38.37523595 36.06409791 38.22705078 32.56005859 C38.22655041 31.08948026 38.2154947 29.61887742 38.1953125 28.1484375 C38.19329834 27.46241455 38.19128418 26.7763916 38.18920898 26.06958008 C38.17873758 23.50465213 38.15081496 20.93981941 38.125 18.375 C38.08375 12.64125 38.0425 6.9075 38 1 C25.79 1 13.58 1 1 1 Z " fill="#A78551" transform="translate(96,204)"/>
<path d="M0 0 C12.87 0 25.74 0 39 0 C39 12.87 39 25.74 39 39 C38.01 38.505 38.01 38.505 37 38 C37 26.45 37 14.9 37 3 C35.68 3 34.36 3 33 3 C22.66666667 3 12.33333333 3 2 3 C2 2.34 2 1.68 2 1 C1.34 0.67 0.68 0.34 0 0 Z " fill="#999157" transform="translate(96,49)"/>
<path d="M0 0 C0.33 0 0.66 0 1 0 C1.495 19.8 1.495 19.8 2 40 C-2.06493186 41.01623297 -5.7561444 41.17904293 -9.90625 41.203125 C-10.66796509 41.20882507 -11.42968018 41.21452515 -12.21447754 41.22039795 C-13.82151917 41.22982305 -15.42857991 41.23637201 -17.03564453 41.24023438 C-19.49155205 41.24996652 -21.94663149 41.28102281 -24.40234375 41.3125 C-25.96614088 41.31902817 -27.52994397 41.32427937 -29.09375 41.328125 C-29.82613892 41.3404718 -30.55852783 41.3528186 -31.31311035 41.36553955 C-34.47405657 41.35174155 -36.67941021 41.17494754 -39.47851562 39.64746094 C-41 38 -41 38 -41.25 35.3125 C-41.1675 34.549375 -41.085 33.78625 -41 33 C-39 36 -39 36 -39 38 C-26.13 38 -13.26 38 0 38 C0 25.46 0 12.92 0 0 Z " fill="#9B4F32" transform="translate(291,127)"/>
<path d="M0 0 C12.54 0 25.08 0 38 0 C38 12.54 38 25.08 38 38 C25.46 38 12.92 38 0 38 C0.33 36.68 0.66 35.36 1 34 C1.33 34.99 1.66 35.98 2 37 C6.68157901 36.88204075 11.36293288 36.75781451 16.04418945 36.62768555 C17.637893 36.58427854 19.2316448 36.54260781 20.82543945 36.50268555 C23.11163908 36.44512193 25.39759449 36.38138851 27.68359375 36.31640625 C28.7586039 36.29133751 28.7586039 36.29133751 29.85533142 36.26576233 C33.21527382 36.44981346 33.21527382 36.44981346 36 35 C36.15986946 32.48143825 36.25941894 29.98635826 36.31640625 27.46484375 C36.33505737 26.79747192 36.3537085 26.1301001 36.3729248 25.44250488 C36.44140741 22.94097583 36.50143787 20.43922118 36.5625 17.9375 C36.706875 12.348125 36.85125 6.75875 37 1 C24.79 1 12.58 1 0 1 C0 0.67 0 0.34 0 0 Z " fill="#A28852" transform="translate(253,127)"/>
<path d="M0 0 C12.87 0 25.74 0 39 0 C41.18904803 4.37809606 41.25911226 7.52626727 41.1953125 12.265625 C41.1924826 13.05902283 41.18965271 13.85242065 41.18673706 14.66986084 C41.17556779 17.19672917 41.15046944 19.72323932 41.125 22.25 C41.11496598 23.9661407 41.10584087 25.68228698 41.09765625 27.3984375 C41.07563914 31.59909574 41.04113187 35.7994872 41 40 C40.01 40.495 40.01 40.495 39 41 C38.67 28.46 38.34 15.92 38 3 C25.46 2.67 12.92 2.34 0 2 C0 1.34 0 0.68 0 0 Z " fill="#9E3B28" transform="translate(253,124)"/>
<path d="M0 0 C0.66 0 1.32 0 2 0 C2 12.54 2 25.08 2 38 C0.02 38 -1.96 38 -4 38 C-2.02 37.505 -2.02 37.505 0 37 C-0.03552979 35.91468994 -0.07105957 34.82937988 -0.10766602 33.71118164 C-0.23766643 29.69896406 -0.36095557 25.68656387 -0.48217773 21.67407227 C-0.53567262 19.93475677 -0.59100755 18.19549688 -0.64819336 16.45629883 C-0.72989627 13.96187334 -0.80506164 11.46732517 -0.87890625 8.97265625 C-0.91945885 7.7992141 -0.91945885 7.7992141 -0.96083069 6.60206604 C-1.01288386 4.73539067 -1.01187025 2.86736326 -1 1 C-0.67 0.67 -0.34 0.34 0 0 Z " fill="#9C3C28" transform="translate(133,282)"/>
<path d="M0 0 C0.33 0 0.66 0 1 0 C1.33 12.87 1.66 25.74 2 39 C0.515 39.495 0.515 39.495 -1 40 C-1.02464775 34.46411467 -1.04283496 28.928261 -1.05493164 23.39233398 C-1.05997244 21.5075627 -1.06680498 19.62279535 -1.07543945 17.73803711 C-1.08751617 15.03498364 -1.09323068 12.33198169 -1.09765625 9.62890625 C-1.10281754 8.78099014 -1.10797882 7.93307404 -1.11329651 7.0594635 C-1.11349195 5.03928932 -1.06206211 3.01922066 -1 1 C-0.67 0.67 -0.34 0.34 0 0 Z " fill="#98422B" transform="translate(136,48)"/>
<path d="M0 0 C0.33 0 0.66 0 1 0 C1.33 12.54 1.66 25.08 2 38 C1.01 38 0.02 38 -1 38 C-2 35 -2 35 -1 32 C-0.84730819 29.56219623 -0.74317303 27.14716099 -0.68359375 24.70703125 C-0.66281265 24.00100266 -0.64203156 23.29497406 -0.62062073 22.56755066 C-0.55532509 20.31596449 -0.49633353 18.06426338 -0.4375 15.8125 C-0.39429575 14.2844934 -0.35068084 12.75649836 -0.30664062 11.22851562 C-0.19966426 7.48579438 -0.09834078 3.7429577 0 0 Z " fill="#A43629" transform="translate(133,128)"/>
</svg>
