<?xml version="1.0" encoding="UTF-8"?>
<svg version="1.1" xmlns="http://www.w3.org/2000/svg" width="623" height="400">
<path d="M0 0 C0.77403168 0.00141495 1.54806335 0.0028299 2.34555054 0.00428772 C4.82155192 0.00989222 7.29746338 0.02244542 9.7734375 0.03515625 C11.45051953 0.04017067 13.12760297 0.04473368 14.8046875 0.04882812 C18.91930556 0.0598631 23.03385628 0.07713071 27.1484375 0.09765625 C28.69248844 25.58906328 28.69248844 25.58906328 27.1484375 36.09765625 C28.49813881 36.09432533 28.49813881 36.09432533 29.87510681 36.09092712 C38.33657717 36.07092681 46.79803964 36.05568345 55.25952816 36.04584408 C59.61012209 36.0406156 63.96069657 36.0335186 68.3112793 36.0222168 C72.50634008 36.01138666 76.70138209 36.00537915 80.89645576 36.00277901 C82.50050718 36.00092499 84.10455753 35.99730481 85.708601 35.99192619 C87.94760265 35.98471406 90.1865258 35.98366538 92.42553711 35.98413086 C93.70238876 35.98191025 94.97924042 35.97968964 96.29478455 35.97740173 C99.1484375 36.09765625 99.1484375 36.09765625 100.1484375 37.09765625 C100.23698097 39.76367165 100.2637565 42.40435024 100.24609375 45.0703125 C100.24508667 45.77700073 100.24407959 46.48368896 100.24304199 47.21179199 C100.23779495 49.86126316 100.22383379 52.51071127 100.2109375 55.16015625 C100.1903125 61.07953125 100.1696875 66.99890625 100.1484375 73.09765625 C112.0284375 73.09765625 123.9084375 73.09765625 136.1484375 73.09765625 C136.1484375 84.97765625 136.1484375 96.85765625 136.1484375 109.09765625 C159.2484375 109.09765625 182.3484375 109.09765625 206.1484375 109.09765625 C206.1484375 97.21765625 206.1484375 85.33765625 206.1484375 73.09765625 C218.0284375 73.09765625 229.9084375 73.09765625 242.1484375 73.09765625 C242.10883533 61.29502122 242.10883533 61.29502122 242.05834961 49.49243164 C242.05543041 48.01839266 242.05288186 46.54435288 242.05078125 45.0703125 C242.04566528 44.29812378 242.04054932 43.52593506 242.03527832 42.73034668 C242.03496776 40.85240438 242.08610181 38.97456372 242.1484375 37.09765625 C243.1484375 36.09765625 243.1484375 36.09765625 246.00209045 35.97740173 C247.27894211 35.97962234 248.55579376 35.98184296 249.87133789 35.98413086 C250.573741 35.98398483 251.2761441 35.98383881 251.99983215 35.98368835 C254.33195028 35.98438753 256.6639895 35.99218008 258.99609375 36 C260.60892188 36.00186417 262.22175057 36.00328807 263.83457947 36.00428772 C268.08759107 36.00811302 272.34056874 36.0179434 276.59356689 36.0289917 C281.69215442 36.04100013 286.79075328 36.045608 291.88935089 36.05144501 C299.64240339 36.06115516 307.39538137 36.08031161 315.1484375 36.09765625 C315.1484375 24.54765625 315.1484375 12.99765625 315.1484375 1.09765625 C318.85909467 0.35552482 321.66165856 -0.03042734 325.3515625 -0.03515625 C326.82302734 -0.03708984 326.82302734 -0.03708984 328.32421875 -0.0390625 C329.84595703 -0.03326172 329.84595703 -0.03326172 331.3984375 -0.02734375 C332.89697266 -0.03314453 332.89697266 -0.03314453 334.42578125 -0.0390625 C340.41498357 -0.03123348 346.20938948 0.32139064 352.1484375 1.09765625 C353.22623588 4.60344431 353.27761052 7.8519563 353.28125 11.5078125 C353.28253906 12.74466797 353.28382813 13.98152344 353.28515625 15.25585938 C353.28128906 16.54427734 353.27742188 17.83269531 353.2734375 19.16015625 C353.27730469 20.45244141 353.28117187 21.74472656 353.28515625 23.07617188 C353.28322266 24.92952148 353.28322266 24.92952148 353.28125 26.8203125 C353.28012207 27.95218994 353.27899414 29.08406738 353.27783203 30.25024414 C353.1484375 33.09765625 353.1484375 33.09765625 352.1484375 36.09765625 C353.77640259 36.08980103 353.77640259 36.08980103 355.43725586 36.08178711 C359.44961732 36.06373789 363.46197517 36.05222454 367.47436523 36.04272461 C369.21362918 36.03768421 370.95288886 36.03085195 372.69213867 36.0222168 C375.18669687 36.01013833 377.68119923 36.00442517 380.17578125 36 C380.95807602 35.99483871 381.74037079 35.98967743 382.54637146 35.98435974 C384.41410864 35.98416399 386.28172954 36.03565931 388.1484375 36.09765625 C389.1484375 37.09765625 389.1484375 37.09765625 389.26196289 40.51586914 C389.26171183 42.03402612 389.25615175 43.55218882 389.24609375 45.0703125 C389.24508667 45.77700073 389.24407959 46.48368896 389.24304199 47.21179199 C389.23779495 49.86126316 389.22383379 52.51071127 389.2109375 55.16015625 C389.1903125 61.07953125 389.1696875 66.99890625 389.1484375 73.09765625 C401.0284375 73.09765625 412.9084375 73.09765625 425.1484375 73.09765625 C425.1484375 84.97765625 425.1484375 96.85765625 425.1484375 109.09765625 C437.0284375 109.09765625 448.9084375 109.09765625 461.1484375 109.09765625 C461.1484375 169.15765625 461.1484375 229.21765625 461.1484375 291.09765625 C449.2684375 291.09765625 437.3884375 291.09765625 425.1484375 291.09765625 C425.18803967 302.90029128 425.18803967 302.90029128 425.23852539 314.70288086 C425.24144459 316.17691984 425.24399314 317.65095962 425.24609375 319.125 C425.25120972 319.89718872 425.25632568 320.66937744 425.26159668 321.46496582 C425.26190724 323.34290812 425.21077319 325.22074878 425.1484375 327.09765625 C423.36289005 328.8832037 420.95489996 328.22240648 418.57696295 328.23059183 C417.76807702 328.22825067 416.95919108 328.2259095 416.12579346 328.22349739 C414.84303646 328.22567755 414.84303646 328.22567755 413.53436518 328.22790176 C410.63129126 328.23158907 407.72826896 328.22806279 404.82519531 328.22463989 C402.73789569 328.22579063 400.65059627 328.22737784 398.56329727 328.22936714 C392.79828544 328.23356691 387.03329003 328.23146686 381.26827812 328.22838092 C375.06235514 328.22612966 368.8564351 328.22960506 362.6505127 328.23236084 C351.1859618 328.23656233 339.72141827 328.23618156 328.25686741 328.23344937 C317.66737881 328.23093798 307.07789215 328.23027516 296.48840332 328.23147202 C295.78712571 328.2315484 295.08584811 328.23162479 294.36331967 328.23170349 C291.51690688 328.2320148 288.6704941 328.2323332 285.82408132 328.23266325 C259.09957545 328.23572515 232.37507294 328.2329442 205.65056759 328.22756635 C181.88553284 328.22282043 158.12050345 328.22324504 134.35546875 328.22802734 C107.68115532 328.23337709 81.00684487 328.23550804 54.33253098 328.23241508 C51.49117788 328.23209434 48.64982478 328.2317815 45.80847168 328.23147202 C44.75898135 328.2313534 44.75898135 328.2313534 43.6882892 328.23123239 C33.10310507 328.23009289 22.51792309 328.23142894 11.93273926 328.23395157 C-0.09800604 328.23680433 -12.12874362 328.23601316 -24.15948868 328.23067082 C-30.30428171 328.22803262 -36.44906384 328.22703074 -42.59385681 328.23031998 C-48.20929358 328.23328052 -53.82470924 328.23169421 -59.44014406 328.22634242 C-61.48116806 328.22521719 -63.5221938 328.22581173 -65.56321669 328.22821821 C-68.31847666 328.23121983 -71.07366248 328.2281802 -73.82891846 328.22349739 C-75.04224735 328.22700914 -75.04224735 328.22700914 -76.28008795 328.23059183 C-81.73741216 328.21180659 -81.73741216 328.21180659 -82.8515625 327.09765625 C-82.94010597 324.43164085 -82.9668815 321.79096226 -82.94921875 319.125 C-82.94821167 318.41831177 -82.94720459 317.71162354 -82.94616699 316.98352051 C-82.94091995 314.33404934 -82.92695879 311.68460123 -82.9140625 309.03515625 C-82.883125 300.15609375 -82.883125 300.15609375 -82.8515625 291.09765625 C-94.7315625 291.09765625 -106.6115625 291.09765625 -118.8515625 291.09765625 C-119.84115403 287.13929014 -119.97735929 284.01434556 -119.97854614 279.94845581 C-119.98010613 279.22774403 -119.98166612 278.50703224 -119.98327339 277.76448071 C-119.98726232 275.349314 -119.98410191 272.93421014 -119.98095703 270.51904297 C-119.98231198 268.78772952 -119.98409244 267.05641637 -119.98626709 265.32510376 C-119.99082958 260.62286979 -119.98905689 255.92065773 -119.985888 251.21842337 C-119.98335912 246.30260756 -119.98570335 241.38679366 -119.98727417 236.47097778 C-119.98909397 228.21746483 -119.98669415 219.96396082 -119.98193359 211.71044922 C-119.97648774 202.15828418 -119.97825674 192.60614047 -119.98376 183.05397594 C-119.98829222 174.86029943 -119.98894125 166.66662936 -119.98632133 158.47295201 C-119.98475962 153.57574369 -119.98456198 148.67854542 -119.98785782 143.78133774 C-119.99073822 139.179999 -119.98875771 134.57868788 -119.98296356 129.97735214 C-119.98163703 128.28500413 -119.98202828 126.59265381 -119.98422623 124.9003067 C-119.98694181 122.59780247 -119.9835516 120.29538786 -119.97854614 117.9928894 C-119.97816912 116.70204374 -119.97779209 115.41119808 -119.97740364 114.08123589 C-119.8515625 111.09765625 -119.8515625 111.09765625 -118.8515625 109.09765625 C-106.9715625 109.09765625 -95.0915625 109.09765625 -82.8515625 109.09765625 C-82.8515625 97.21765625 -82.8515625 85.33765625 -82.8515625 73.09765625 C-70.9715625 73.09765625 -59.0915625 73.09765625 -46.8515625 73.09765625 C-46.89116467 61.29502122 -46.89116467 61.29502122 -46.94165039 49.49243164 C-46.94456959 48.01839266 -46.94711814 46.54435288 -46.94921875 45.0703125 C-46.95433472 44.29812378 -46.95945068 43.52593506 -46.96472168 42.73034668 C-46.96503224 40.85240438 -46.91389819 38.97456372 -46.8515625 37.09765625 C-45.8515625 36.09765625 -45.8515625 36.09765625 -42.43334961 35.98413086 C-40.91519262 35.98428997 -39.39703021 35.98998399 -37.87890625 36 C-37.08126358 36.00141495 -36.28362091 36.0028299 -35.46180725 36.00428772 C-32.90418815 36.00990309 -30.34665532 36.02245813 -27.7890625 36.03515625 C-26.05924605 36.04016927 -24.32942824 36.04473252 -22.59960938 36.04882812 C-18.35022697 36.0598775 -14.10090938 36.07715239 -9.8515625 36.09765625 C-9.92882568 35.37352539 -10.00608887 34.64939453 -10.08569336 33.90332031 C-10.80223578 26.47418939 -10.83303793 19.29289786 -10.4140625 11.84765625 C-10.36185547 10.80480469 -10.30964844 9.76195312 -10.25585938 8.6875 C-10.12817841 6.15709545 -9.99334873 3.62730273 -9.8515625 1.09765625 C-6.73202122 -0.46211439 -3.42196866 -0.02338501 0 0 Z " fill="#CADCFB" transform="translate(137.8515625,45.90234375)"/>
<path d="M0 0 C0.77403168 0.00141495 1.54806335 0.0028299 2.34555054 0.00428772 C4.82155192 0.00989222 7.29746338 0.02244542 9.7734375 0.03515625 C11.45051953 0.04017067 13.12760297 0.04473368 14.8046875 0.04882812 C18.91930556 0.0598631 23.03385628 0.07713071 27.1484375 0.09765625 C29.09339163 32.20774799 29.09339163 32.20774799 26.1484375 38.09765625 C14.5984375 38.09765625 3.0484375 38.09765625 -8.8515625 38.09765625 C-8.8515625 49.97765625 -8.8515625 61.85765625 -8.8515625 74.09765625 C-21.0615625 74.09765625 -33.2715625 74.09765625 -45.8515625 74.09765625 C-45.8515625 85.97765625 -45.8515625 97.85765625 -45.8515625 110.09765625 C-57.7315625 110.09765625 -69.6115625 110.09765625 -81.8515625 110.09765625 C-81.8515625 169.49765625 -81.8515625 228.89765625 -81.8515625 290.09765625 C85.1284375 290.09765625 252.1084375 290.09765625 424.1484375 290.09765625 C424.1484375 230.69765625 424.1484375 171.29765625 424.1484375 110.09765625 C412.2684375 110.09765625 400.3884375 110.09765625 388.1484375 110.09765625 C388.1484375 98.21765625 388.1484375 86.33765625 388.1484375 74.09765625 C376.2684375 74.09765625 364.3884375 74.09765625 352.1484375 74.09765625 C352.1484375 62.21765625 352.1484375 50.33765625 352.1484375 38.09765625 C340.2684375 38.09765625 328.3884375 38.09765625 316.1484375 38.09765625 C316.1484375 61.85765625 316.1484375 85.61765625 316.1484375 110.09765625 C328.0284375 110.09765625 339.9084375 110.09765625 352.1484375 110.09765625 C352.179375 118.97671875 352.179375 118.97671875 352.2109375 128.03515625 C352.2200415 129.90550537 352.22914551 131.77585449 352.23852539 133.70288086 C352.24144459 135.17691984 352.24399314 136.65095962 352.24609375 138.125 C352.25120972 138.89718872 352.25632568 139.66937744 352.26159668 140.46496582 C352.26190724 142.34290812 352.21077319 144.22074878 352.1484375 146.09765625 C351.1484375 147.09765625 351.1484375 147.09765625 348.29478455 147.21791077 C347.01793289 147.21569016 345.74108124 147.21346954 344.42553711 147.21118164 C343.35484025 147.21136244 343.35484025 147.21136244 342.26251316 147.2115469 C339.94190463 147.2107979 337.62137549 147.2031703 335.30078125 147.1953125 C333.8721114 147.19384304 332.44344101 147.19282235 331.01477051 147.19226074 C325.70515132 147.18700833 320.39554364 147.17304724 315.0859375 147.16015625 C297.296875 147.12921875 297.296875 147.12921875 279.1484375 147.09765625 C279.1484375 123.00765625 279.1484375 98.91765625 279.1484375 74.09765625 C267.2684375 74.09765625 255.3884375 74.09765625 243.1484375 74.09765625 C243.1484375 85.97765625 243.1484375 97.85765625 243.1484375 110.09765625 C231.2684375 110.09765625 219.3884375 110.09765625 207.1484375 110.09765625 C207.1484375 121.97765625 207.1484375 133.85765625 207.1484375 146.09765625 C183.3884375 146.09765625 159.6284375 146.09765625 135.1484375 146.09765625 C135.1484375 134.21765625 135.1484375 122.33765625 135.1484375 110.09765625 C123.2684375 110.09765625 111.3884375 110.09765625 99.1484375 110.09765625 C99.1484375 98.21765625 99.1484375 86.33765625 99.1484375 74.09765625 C87.2684375 74.09765625 75.3884375 74.09765625 63.1484375 74.09765625 C63.1484375 97.85765625 63.1484375 121.61765625 63.1484375 146.09765625 C51.2684375 146.09765625 39.3884375 146.09765625 27.1484375 146.09765625 C27.1484375 110.12765625 27.1484375 74.15765625 27.1484375 37.09765625 C69.13531502 35.9313541 69.13531502 35.9313541 81.19018555 35.96728516 C83.46734384 35.97298518 85.74432949 35.96708367 88.02148438 35.9609375 C89.4947921 35.96159357 90.96809971 35.96286477 92.44140625 35.96484375 C94.35215942 35.96653564 94.35215942 35.96653564 96.30151367 35.96826172 C99.1484375 36.09765625 99.1484375 36.09765625 100.1484375 37.09765625 C100.23698097 39.76367165 100.2637565 42.40435024 100.24609375 45.0703125 C100.24508667 45.77700073 100.24407959 46.48368896 100.24304199 47.21179199 C100.23779495 49.86126316 100.22383379 52.51071127 100.2109375 55.16015625 C100.1903125 61.07953125 100.1696875 66.99890625 100.1484375 73.09765625 C112.0284375 73.09765625 123.9084375 73.09765625 136.1484375 73.09765625 C136.1484375 84.97765625 136.1484375 96.85765625 136.1484375 109.09765625 C159.2484375 109.09765625 182.3484375 109.09765625 206.1484375 109.09765625 C206.1484375 97.21765625 206.1484375 85.33765625 206.1484375 73.09765625 C218.0284375 73.09765625 229.9084375 73.09765625 242.1484375 73.09765625 C242.10883533 61.29502122 242.10883533 61.29502122 242.05834961 49.49243164 C242.05543041 48.01839266 242.05288186 46.54435288 242.05078125 45.0703125 C242.04566528 44.29812378 242.04054932 43.52593506 242.03527832 42.73034668 C242.03496776 40.85240438 242.08610181 38.97456372 242.1484375 37.09765625 C243.1484375 36.09765625 243.1484375 36.09765625 246.00209045 35.97740173 C247.27894211 35.97962234 248.55579376 35.98184296 249.87133789 35.98413086 C250.573741 35.98398483 251.2761441 35.98383881 251.99983215 35.98368835 C254.33195028 35.98438753 256.6639895 35.99218008 258.99609375 36 C260.60892188 36.00186417 262.22175057 36.00328807 263.83457947 36.00428772 C268.08759107 36.00811302 272.34056874 36.0179434 276.59356689 36.0289917 C281.69215442 36.04100013 286.79075328 36.045608 291.88935089 36.05144501 C299.64240339 36.06115516 307.39538137 36.08031161 315.1484375 36.09765625 C315.1484375 24.54765625 315.1484375 12.99765625 315.1484375 1.09765625 C318.85909467 0.35552482 321.66165856 -0.03042734 325.3515625 -0.03515625 C326.82302734 -0.03708984 326.82302734 -0.03708984 328.32421875 -0.0390625 C329.84595703 -0.03326172 329.84595703 -0.03326172 331.3984375 -0.02734375 C332.89697266 -0.03314453 332.89697266 -0.03314453 334.42578125 -0.0390625 C340.41498357 -0.03123348 346.20938948 0.32139064 352.1484375 1.09765625 C353.22623588 4.60344431 353.27761052 7.8519563 353.28125 11.5078125 C353.28253906 12.74466797 353.28382813 13.98152344 353.28515625 15.25585938 C353.28128906 16.54427734 353.27742188 17.83269531 353.2734375 19.16015625 C353.27730469 20.45244141 353.28117187 21.74472656 353.28515625 23.07617188 C353.28322266 24.92952148 353.28322266 24.92952148 353.28125 26.8203125 C353.28012207 27.95218994 353.27899414 29.08406738 353.27783203 30.25024414 C353.1484375 33.09765625 353.1484375 33.09765625 352.1484375 36.09765625 C353.77640259 36.08980103 353.77640259 36.08980103 355.43725586 36.08178711 C359.44961732 36.06373789 363.46197517 36.05222454 367.47436523 36.04272461 C369.21362918 36.03768421 370.95288886 36.03085195 372.69213867 36.0222168 C375.18669687 36.01013833 377.68119923 36.00442517 380.17578125 36 C380.95807602 35.99483871 381.74037079 35.98967743 382.54637146 35.98435974 C384.41410864 35.98416399 386.28172954 36.03565931 388.1484375 36.09765625 C389.1484375 37.09765625 389.1484375 37.09765625 389.26196289 40.51586914 C389.26171183 42.03402612 389.25615175 43.55218882 389.24609375 45.0703125 C389.24508667 45.77700073 389.24407959 46.48368896 389.24304199 47.21179199 C389.23779495 49.86126316 389.22383379 52.51071127 389.2109375 55.16015625 C389.1903125 61.07953125 389.1696875 66.99890625 389.1484375 73.09765625 C401.0284375 73.09765625 412.9084375 73.09765625 425.1484375 73.09765625 C425.1484375 84.97765625 425.1484375 96.85765625 425.1484375 109.09765625 C437.0284375 109.09765625 448.9084375 109.09765625 461.1484375 109.09765625 C461.1484375 169.15765625 461.1484375 229.21765625 461.1484375 291.09765625 C449.2684375 291.09765625 437.3884375 291.09765625 425.1484375 291.09765625 C425.18803967 302.90029128 425.18803967 302.90029128 425.23852539 314.70288086 C425.24144459 316.17691984 425.24399314 317.65095962 425.24609375 319.125 C425.25120972 319.89718872 425.25632568 320.66937744 425.26159668 321.46496582 C425.26190724 323.34290812 425.21077319 325.22074878 425.1484375 327.09765625 C423.36289005 328.8832037 420.95489996 328.22240648 418.57696295 328.23059183 C417.76807702 328.22825067 416.95919108 328.2259095 416.12579346 328.22349739 C414.84303646 328.22567755 414.84303646 328.22567755 413.53436518 328.22790176 C410.63129126 328.23158907 407.72826896 328.22806279 404.82519531 328.22463989 C402.73789569 328.22579063 400.65059627 328.22737784 398.56329727 328.22936714 C392.79828544 328.23356691 387.03329003 328.23146686 381.26827812 328.22838092 C375.06235514 328.22612966 368.8564351 328.22960506 362.6505127 328.23236084 C351.1859618 328.23656233 339.72141827 328.23618156 328.25686741 328.23344937 C317.66737881 328.23093798 307.07789215 328.23027516 296.48840332 328.23147202 C295.78712571 328.2315484 295.08584811 328.23162479 294.36331967 328.23170349 C291.51690688 328.2320148 288.6704941 328.2323332 285.82408132 328.23266325 C259.09957545 328.23572515 232.37507294 328.2329442 205.65056759 328.22756635 C181.88553284 328.22282043 158.12050345 328.22324504 134.35546875 328.22802734 C107.68115532 328.23337709 81.00684487 328.23550804 54.33253098 328.23241508 C51.49117788 328.23209434 48.64982478 328.2317815 45.80847168 328.23147202 C44.75898135 328.2313534 44.75898135 328.2313534 43.6882892 328.23123239 C33.10310507 328.23009289 22.51792309 328.23142894 11.93273926 328.23395157 C-0.09800604 328.23680433 -12.12874362 328.23601316 -24.15948868 328.23067082 C-30.30428171 328.22803262 -36.44906384 328.22703074 -42.59385681 328.23031998 C-48.20929358 328.23328052 -53.82470924 328.23169421 -59.44014406 328.22634242 C-61.48116806 328.22521719 -63.5221938 328.22581173 -65.56321669 328.22821821 C-68.31847666 328.23121983 -71.07366248 328.2281802 -73.82891846 328.22349739 C-75.04224735 328.22700914 -75.04224735 328.22700914 -76.28008795 328.23059183 C-81.73741216 328.21180659 -81.73741216 328.21180659 -82.8515625 327.09765625 C-82.94010597 324.43164085 -82.9668815 321.79096226 -82.94921875 319.125 C-82.94821167 318.41831177 -82.94720459 317.71162354 -82.94616699 316.98352051 C-82.94091995 314.33404934 -82.92695879 311.68460123 -82.9140625 309.03515625 C-82.883125 300.15609375 -82.883125 300.15609375 -82.8515625 291.09765625 C-94.7315625 291.09765625 -106.6115625 291.09765625 -118.8515625 291.09765625 C-119.84115403 287.13929014 -119.97735929 284.01434556 -119.97854614 279.94845581 C-119.98010613 279.22774403 -119.98166612 278.50703224 -119.98327339 277.76448071 C-119.98726232 275.349314 -119.98410191 272.93421014 -119.98095703 270.51904297 C-119.98231198 268.78772952 -119.98409244 267.05641637 -119.98626709 265.32510376 C-119.99082958 260.62286979 -119.98905689 255.92065773 -119.985888 251.21842337 C-119.98335912 246.30260756 -119.98570335 241.38679366 -119.98727417 236.47097778 C-119.98909397 228.21746483 -119.98669415 219.96396082 -119.98193359 211.71044922 C-119.97648774 202.15828418 -119.97825674 192.60614047 -119.98376 183.05397594 C-119.98829222 174.86029943 -119.98894125 166.66662936 -119.98632133 158.47295201 C-119.98475962 153.57574369 -119.98456198 148.67854542 -119.98785782 143.78133774 C-119.99073822 139.179999 -119.98875771 134.57868788 -119.98296356 129.97735214 C-119.98163703 128.28500413 -119.98202828 126.59265381 -119.98422623 124.9003067 C-119.98694181 122.59780247 -119.9835516 120.29538786 -119.97854614 117.9928894 C-119.97816912 116.70204374 -119.97779209 115.41119808 -119.97740364 114.08123589 C-119.8515625 111.09765625 -119.8515625 111.09765625 -118.8515625 109.09765625 C-106.9715625 109.09765625 -95.0915625 109.09765625 -82.8515625 109.09765625 C-82.8515625 97.21765625 -82.8515625 85.33765625 -82.8515625 73.09765625 C-70.9715625 73.09765625 -59.0915625 73.09765625 -46.8515625 73.09765625 C-46.89116467 61.29502122 -46.89116467 61.29502122 -46.94165039 49.49243164 C-46.94456959 48.01839266 -46.94711814 46.54435288 -46.94921875 45.0703125 C-46.95433472 44.29812378 -46.95945068 43.52593506 -46.96472168 42.73034668 C-46.96503224 40.85240438 -46.91389819 38.97456372 -46.8515625 37.09765625 C-45.8515625 36.09765625 -45.8515625 36.09765625 -42.43334961 35.98413086 C-40.91519262 35.98428997 -39.39703021 35.98998399 -37.87890625 36 C-37.08126358 36.00141495 -36.28362091 36.0028299 -35.46180725 36.00428772 C-32.90418815 36.00990309 -30.34665532 36.02245813 -27.7890625 36.03515625 C-26.05924605 36.04016927 -24.32942824 36.04473252 -22.59960938 36.04882812 C-18.35022697 36.0598775 -14.10090938 36.07715239 -9.8515625 36.09765625 C-9.92882568 35.37352539 -10.00608887 34.64939453 -10.08569336 33.90332031 C-10.80223578 26.47418939 -10.83303793 19.29289786 -10.4140625 11.84765625 C-10.36185547 10.80480469 -10.30964844 9.76195312 -10.25585938 8.6875 C-10.12817841 6.15709545 -9.99334873 3.62730273 -9.8515625 1.09765625 C-6.73202122 -0.46211439 -3.42196866 -0.02338501 0 0 Z " fill="#629BFD" transform="translate(137.8515625,45.90234375)"/>
<path d="M0 0 C1.76150391 -0.00193359 1.76150391 -0.00193359 3.55859375 -0.00390625 C4.79738281 -0.00003906 6.03617187 0.00382812 7.3125 0.0078125 C8.52035156 0.00394531 9.72820312 0.00007813 10.97265625 -0.00390625 C17.50477984 0.00320161 23.83867518 0.25382335 30.3125 1.1328125 C31.39029838 4.63860056 31.44167302 7.88711255 31.4453125 11.54296875 C31.44660156 12.77982422 31.44789063 14.01667969 31.44921875 15.29101562 C31.44535156 16.57943359 31.44148438 17.86785156 31.4375 19.1953125 C31.44136719 20.48759766 31.44523437 21.77988281 31.44921875 23.11132812 C31.44728516 24.96467773 31.44728516 24.96467773 31.4453125 26.85546875 C31.44418457 27.98734619 31.44305664 29.11922363 31.44189453 30.28540039 C31.3125 33.1328125 31.3125 33.1328125 30.3125 36.1328125 C42.1925 36.1328125 54.0725 36.1328125 66.3125 36.1328125 C66.3125 48.3428125 66.3125 60.5528125 66.3125 73.1328125 C54.4325 73.1328125 42.5525 73.1328125 30.3125 73.1328125 C30.3125 61.5828125 30.3125 50.0328125 30.3125 38.1328125 C18.4325 38.1328125 6.5525 38.1328125 -5.6875 38.1328125 C-5.6875 61.8928125 -5.6875 85.6528125 -5.6875 110.1328125 C6.1925 110.1328125 18.0725 110.1328125 30.3125 110.1328125 C30.3434375 119.011875 30.3434375 119.011875 30.375 128.0703125 C30.384104 129.94066162 30.39320801 131.81101074 30.40258789 133.73803711 C30.40550709 135.21207609 30.40805564 136.68611587 30.41015625 138.16015625 C30.41527222 138.93234497 30.42038818 139.70453369 30.42565918 140.50012207 C30.42596974 142.37806437 30.37483569 144.25590503 30.3125 146.1328125 C29.3125 147.1328125 29.3125 147.1328125 26.45884705 147.25306702 C25.18199539 147.25084641 23.90514374 147.24862579 22.58959961 147.24633789 C21.51890275 147.24651869 21.51890275 147.24651869 20.42657566 147.24670315 C18.10596713 147.24595415 15.78543799 147.23832655 13.46484375 147.23046875 C12.0361739 147.22899929 10.60750351 147.2279786 9.17883301 147.22741699 C3.86921382 147.22216458 -1.44039386 147.20820349 -6.75 147.1953125 C-24.5390625 147.164375 -24.5390625 147.164375 -42.6875 147.1328125 C-42.6875 123.0428125 -42.6875 98.9528125 -42.6875 74.1328125 C-54.5675 74.1328125 -66.4475 74.1328125 -78.6875 74.1328125 C-78.6875 86.0128125 -78.6875 97.8928125 -78.6875 110.1328125 C-90.5675 110.1328125 -102.4475 110.1328125 -114.6875 110.1328125 C-114.6875 122.0128125 -114.6875 133.8928125 -114.6875 146.1328125 C-138.4475 146.1328125 -162.2075 146.1328125 -186.6875 146.1328125 C-186.6875 134.2528125 -186.6875 122.3728125 -186.6875 110.1328125 C-198.5675 110.1328125 -210.4475 110.1328125 -222.6875 110.1328125 C-222.6875 98.2528125 -222.6875 86.3728125 -222.6875 74.1328125 C-234.5675 74.1328125 -246.4475 74.1328125 -258.6875 74.1328125 C-258.6875 97.8928125 -258.6875 121.6528125 -258.6875 146.1328125 C-270.5675 146.1328125 -282.4475 146.1328125 -294.6875 146.1328125 C-294.6875 110.1628125 -294.6875 74.1928125 -294.6875 37.1328125 C-252.70062248 35.96651035 -252.70062248 35.96651035 -240.64575195 36.00244141 C-238.36859366 36.00814143 -236.09160801 36.00223992 -233.81445312 35.99609375 C-232.3411454 35.99674982 -230.86783779 35.99802102 -229.39453125 36 C-227.48377808 36.00169189 -227.48377808 36.00169189 -225.53442383 36.00341797 C-222.6875 36.1328125 -222.6875 36.1328125 -221.6875 37.1328125 C-221.59895653 39.7988279 -221.572181 42.43950649 -221.58984375 45.10546875 C-221.59085083 45.81215698 -221.59185791 46.51884521 -221.59289551 47.24694824 C-221.59814255 49.89641941 -221.61210371 52.54586752 -221.625 55.1953125 C-221.645625 61.1146875 -221.66625 67.0340625 -221.6875 73.1328125 C-209.8075 73.1328125 -197.9275 73.1328125 -185.6875 73.1328125 C-185.6875 85.0128125 -185.6875 96.8928125 -185.6875 109.1328125 C-162.5875 109.1328125 -139.4875 109.1328125 -115.6875 109.1328125 C-115.6875 97.2528125 -115.6875 85.3728125 -115.6875 73.1328125 C-103.8075 73.1328125 -91.9275 73.1328125 -79.6875 73.1328125 C-79.72710217 61.33017747 -79.72710217 61.33017747 -79.77758789 49.52758789 C-79.78050709 48.05354891 -79.78305564 46.57950913 -79.78515625 45.10546875 C-79.79027222 44.33328003 -79.79538818 43.56109131 -79.80065918 42.76550293 C-79.80096974 40.88756063 -79.74983569 39.00971997 -79.6875 37.1328125 C-78.6875 36.1328125 -78.6875 36.1328125 -75.83384705 36.01255798 C-74.55699539 36.01477859 -73.28014374 36.01699921 -71.96459961 36.01928711 C-71.2621965 36.01914108 -70.5597934 36.01899506 -69.83610535 36.0188446 C-67.50398722 36.01954378 -65.171948 36.02733633 -62.83984375 36.03515625 C-61.22701562 36.03702042 -59.61418693 36.03844432 -58.00135803 36.03944397 C-53.74834643 36.04326927 -49.49536876 36.05309965 -45.24237061 36.06414795 C-40.9057257 36.07436181 -36.56907533 36.07894154 -32.23242188 36.08398438 C-23.71743231 36.09472191 -15.20247037 36.11179847 -6.6875 36.1328125 C-6.69535522 34.55028687 -6.69535522 34.55028687 -6.70336914 32.93579102 C-6.72141901 29.0352462 -6.73293195 25.1347051 -6.74243164 21.23413086 C-6.7474719 19.54336934 -6.75430405 17.85261221 -6.76293945 16.16186523 C-6.77501857 13.73680543 -6.78073123 11.31180306 -6.78515625 8.88671875 C-6.79031754 8.12629776 -6.79547882 7.36587677 -6.80079651 6.58241272 C-6.80099238 4.7654868 -6.74947277 2.94868123 -6.6875 1.1328125 C-4.92118251 -0.63350499 -2.39197741 0.0025247 0 0 Z " fill="#639BFC" transform="translate(459.6875,45.8671875)"/>
<path d="M0 0 C12.54 0 25.08 0 38 0 C38 0.33 38 0.66 38 1 C26.12 1 14.24 1 2 1 C2 36.97 2 72.94 2 110 C25.76 110 49.52 110 74 110 C74 145.64 74 181.28 74 218 C38.03 218 2.06 218 -35 218 C-35 182.36 -35 146.72 -35 110 C-23.12 110 -11.24 110 1 110 C0.67 73.7 0.34 37.4 0 0 Z " fill="#9BACB6" transform="translate(163,82)"/>
<path d="M0 0 C11.22 0 22.44 0 34 0 C35 1 35 1 35.12304783 3.9029398 C35.12166514 5.87050692 35.12166514 5.87050692 35.12025452 7.87782288 C35.12110894 8.60554962 35.12196337 9.33327637 35.12284368 10.08305544 C35.12450064 12.53985113 35.11897362 14.99657966 35.11352539 17.45336914 C35.11324354 19.20718891 35.11340121 20.96100879 35.1139679 22.71482849 C35.11425595 27.49148669 35.10835795 32.26812 35.10139394 37.04477239 C35.09516171 42.03094054 35.09455671 47.0171092 35.09336853 52.00328064 C35.09025482 61.45223294 35.08204091 70.90117374 35.07201904 80.35012096 C35.06085912 91.10447244 35.05534776 101.85882446 35.05032361 112.61318028 C35.03985833 134.74212805 35.02151236 156.87106003 35 179 C23.45 179 11.9 179 0 179 C0 119.93 0 60.86 0 0 Z " fill="#629BFD" transform="translate(563,157)"/>
<path d="M0 0 C11.22 0 22.44 0 34 0 C34 58.74 34 117.48 34 178 C22.78 178 11.56 178 0 178 C0 119.26 0 60.52 0 0 Z " fill="#629BFE" transform="translate(21,157)"/>
<path d="M0 0 C11.88 0 23.76 0 36 0 C36 35.97 36 71.94 36 109 C24.140625 109.020625 12.28125 109.04125 0.0625 109.0625 C-3.68730225 109.071604 -7.43710449 109.08070801 -11.30053711 109.09008789 C-15.86633301 109.09460449 -15.86633301 109.09460449 -18.00123596 109.09544373 C-19.4978617 109.09698308 -20.99448617 109.10050784 -22.49110413 109.10557556 C-24.75312467 109.11285459 -27.01506918 109.11390737 -29.27709961 109.11352539 C-30.55395126 109.115746 -31.83080292 109.11796661 -33.14634705 109.12025452 C-36 109 -36 109 -37 108 C-37.08857875 105.26129758 -37.11530707 102.54725017 -37.09765625 99.80859375 C-37.09614563 98.7190741 -37.09614563 98.7190741 -37.09460449 97.60754395 C-37.08935716 94.88417999 -37.075396 92.16083847 -37.0625 89.4375 C-37.041875 83.353125 -37.02125 77.26875 -37 71 C-24.79 71 -12.58 71 0 71 C0 47.57 0 24.14 0 0 Z " fill="#9CABB5" transform="translate(490,192)"/>
<path d="M0 0 C11.88 0 23.76 0 36 0 C36 23.43 36 46.86 36 71 C47.88 71 59.76 71 72 71 C72 83.21 72 95.42 72 108 C48.24 108 24.48 108 0 108 C0 72.36 0 36.72 0 0 Z " fill="#9CACB6" transform="translate(345,192)"/>
<path d="M0 0 C0.33 0 0.66 0 1 0 C1 11.88 1 23.76 1 36 C12.88 36 24.76 36 37 36 C37 47.88 37 59.76 37 72 C48.88 72 60.76 72 73 72 C73 132.06 73 192.12 73 254 C61.12 254 49.24 254 37 254 C37.03960217 265.80263503 37.03960217 265.80263503 37.09008789 277.60522461 C37.09300709 279.07926359 37.09555564 280.55330337 37.09765625 282.02734375 C37.10277222 282.79953247 37.10788818 283.57172119 37.11315918 284.36730957 C37.11346974 286.24525187 37.06233569 288.12309253 37 290 C35.21445255 291.78554745 32.80646246 291.12475023 30.42852545 291.13293558 C29.61963952 291.13059442 28.81075358 291.12825325 27.97735596 291.12584114 C26.69459896 291.1280213 26.69459896 291.1280213 25.38592768 291.13024551 C22.48285376 291.13393282 19.57983146 291.13040654 16.67675781 291.12698364 C14.58945819 291.12813438 12.50215877 291.12972159 10.41485977 291.13171089 C4.64984794 291.13591066 -1.11514747 291.13381061 -6.88015938 291.13072467 C-13.08608236 291.12847341 -19.2920024 291.13194881 -25.4979248 291.13470459 C-36.9624757 291.13890608 -48.42701923 291.13852531 -59.89157009 291.13579312 C-70.48105869 291.13328173 -81.07054535 291.13261891 -91.66003418 291.13381577 C-92.36131179 291.13389215 -93.06258939 291.13396854 -93.78511783 291.13404724 C-96.63153062 291.13435855 -99.4779434 291.13467695 -102.32435618 291.135007 C-129.04886205 291.1380689 -155.77336456 291.13528795 -182.49786991 291.1299101 C-206.26290466 291.12516418 -230.02793405 291.12558879 -253.79296875 291.13037109 C-280.46728218 291.13572084 -307.14159263 291.13785179 -333.81590652 291.13475883 C-336.65725962 291.13443809 -339.49861272 291.13412525 -342.33996582 291.13381577 C-343.38945615 291.13369715 -343.38945615 291.13369715 -344.4601483 291.13357614 C-355.04533243 291.13243664 -365.63051441 291.13377269 -376.21569824 291.13629532 C-388.24644354 291.13914808 -400.27718112 291.13835691 -412.30792618 291.13301457 C-418.45271921 291.13037637 -424.59750134 291.12937449 -430.74229431 291.13266373 C-436.35773108 291.13562427 -441.97314674 291.13403796 -447.58858156 291.12868617 C-449.62960556 291.12756094 -451.6706313 291.12815548 -453.71165419 291.13056196 C-456.46691416 291.13356358 -459.22209998 291.13052395 -461.97735596 291.12584114 C-463.19068485 291.12935289 -463.19068485 291.12935289 -464.42852545 291.13293558 C-469.88584966 291.11415034 -469.88584966 291.11415034 -471 290 C-471.08854347 287.3339846 -471.115319 284.69330601 -471.09765625 282.02734375 C-471.09664917 281.32065552 -471.09564209 280.61396729 -471.09460449 279.88586426 C-471.08935745 277.23639309 -471.07539629 274.58694498 -471.0625 271.9375 C-471.0315625 263.0584375 -471.0315625 263.0584375 -471 254 C-482.88 254 -494.76 254 -507 254 C-507.98959153 250.04163389 -508.12579679 246.91668931 -508.12698364 242.85079956 C-508.12854363 242.13008778 -508.13010362 241.40937599 -508.13171089 240.66682446 C-508.13569982 238.25165775 -508.13253941 235.83655389 -508.12939453 233.42138672 C-508.13074948 231.69007327 -508.13252994 229.95876012 -508.13470459 228.22744751 C-508.13926708 223.52521354 -508.13749439 218.82300148 -508.1343255 214.12076712 C-508.13179662 209.20495131 -508.13414085 204.28913741 -508.13571167 199.37332153 C-508.13753147 191.11980858 -508.13513165 182.86630457 -508.13037109 174.61279297 C-508.12492524 165.06062793 -508.12669424 155.50848422 -508.1321975 145.95631969 C-508.13672972 137.76264318 -508.13737875 129.56897311 -508.13475883 121.37529576 C-508.13319712 116.47808744 -508.13299948 111.58088917 -508.13629532 106.68368149 C-508.13917572 102.08234275 -508.13719521 97.48103163 -508.13140106 92.87969589 C-508.13007453 91.18734788 -508.13046578 89.49499756 -508.13266373 87.80265045 C-508.13537931 85.50014622 -508.1319891 83.19773161 -508.12698364 80.89523315 C-508.12660662 79.60438749 -508.12622959 78.31354183 -508.12584114 76.98357964 C-508 74 -508 74 -507 72 C-501.06 72 -495.12 72 -489 72 C-489 72.33 -489 72.66 -489 73 C-494.61 73 -500.22 73 -506 73 C-506 132.4 -506 191.8 -506 253 C-327.14 253 -148.28 253 36 253 C36 193.6 36 134.2 36 73 C24.12 73 12.24 73 0 73 C0 61.12 0 49.24 0 37 C-11.88 37 -23.76 37 -36 37 C-36 36.67 -36 36.34 -36 36 C-24.12 36 -12.24 36 0 36 C0 24.12 0 12.24 0 0 Z M37 74 C37 133.07 37 192.14 37 253 C48.55 253 60.1 253 72 253 C72.02254488 229.80895243 72.04097792 206.61791368 72.05181217 183.42685795 C72.05697567 172.65964936 72.0640194 161.89244806 72.07543945 151.12524414 C72.08538464 141.74414755 72.09185303 132.36305623 72.09408849 122.98195451 C72.09539588 118.01149782 72.0984835 113.0410562 72.10573006 108.07060432 C72.11248767 103.39791878 72.11461749 98.72525459 72.11310768 94.05256462 C72.11338413 92.33238484 72.11539078 90.61220438 72.11920547 88.89202881 C72.1241387 86.55393339 72.12299968 84.21591996 72.12025452 81.87782288 C72.12117631 80.56611146 72.1220981 79.25440004 72.12304783 77.9029398 C72.33244011 75.10693113 72.33244011 75.10693113 71 74 C59.78 74 48.56 74 37 74 Z M-469 254 C-469 265.22 -469 276.44 -469 288 C-467.21785685 289.78214315 -464.82151105 289.12364846 -462.44810978 289.13100848 C-461.64214669 289.12838146 -460.8361836 289.12575445 -460.00579739 289.12304783 C-459.1537032 289.12420167 -458.30160902 289.12535552 -457.42369381 289.12654433 C-454.53109569 289.12921867 -451.63855179 289.12468215 -448.74595642 289.12025452 C-446.66619385 289.12069005 -444.58643133 289.12156463 -442.5066691 289.12284368 C-436.76252832 289.12509212 -431.01840599 289.12106262 -425.27426755 289.11606562 C-419.09085995 289.11176628 -412.90745348 289.11320718 -406.7240448 289.1139679 C-396.00120193 289.11449346 -385.27836574 289.11137801 -374.55552483 289.10573006 C-363.30548003 289.09981956 -352.05543765 289.09596543 -340.80539131 289.09487724 C-340.10674127 289.0948085 -339.40809124 289.09473976 -338.68826999 289.09466894 C-335.14039631 289.09433062 -331.59252263 289.09402923 -328.04464895 289.09374207 C-302.89394075 289.09163985 -277.74323571 289.08489746 -252.5925293 289.07543945 C-228.15405291 289.06625987 -203.71557738 289.05917388 -179.27709961 289.05493164 C-178.14779063 289.05473435 -178.14779063 289.05473435 -176.99566733 289.05453308 C-169.43523339 289.05321459 -161.87479945 289.05193877 -154.3143655 289.05069422 C-138.91193393 289.04815778 -123.50950241 289.04533653 -108.10707092 289.04234314 C-107.3988418 289.04220585 -106.69061267 289.04206856 -105.96092205 289.04192711 C-58.64061335 289.03272143 -11.32030655 289.01679897 36 289 C36 277.45 36 265.9 36 254 C-130.65 254 -297.3 254 -469 254 Z " fill="#93BAF2" transform="translate(526,83)"/>
<path d="M0 0 C11.88 0 23.76 0 36 0 C36 35.97 36 71.94 36 109 C24.12 109 12.24 109 0 109 C0 73.03 0 37.06 0 0 Z " fill="#010203" transform="translate(417,83)"/>
<path d="M0 0 C11.88 0 23.76 0 36 0 C36 35.97 36 71.94 36 109 C24.12 109 12.24 109 0 109 C0 73.03 0 37.06 0 0 Z " fill="#010102" transform="translate(165,83)"/>
<path d="M0 0 C11.88 0 23.76 0 36 0 C36 23.76 36 47.52 36 72 C12.24 72 -11.52 72 -36 72 C-36 60.12 -36 48.24 -36 36 C-24.12 36 -12.24 36 0 36 C0 24.12 0 12.24 0 0 Z " fill="#9CADB7" transform="translate(381,120)"/>
<path d="M0 0 C11.22 0 22.44 0 34 0 C34.33 11.22 34.66 22.44 35 34 C46.88 34 58.76 34 71 34 C71 46.21 71 58.42 71 71 C59.12 71 47.24 71 35 71 C35 59.12 35 47.24 35 35 C26.1003383 35.07879563 26.1003383 35.07879563 17.20092773 35.18017578 C15.52172241 35.18766846 15.52172241 35.18766846 13.80859375 35.1953125 C12.67220459 35.20578613 11.53581543 35.21625977 10.36499023 35.22705078 C7 35 7 35 0 33 C0 22.11 0 11.22 0 0 Z " fill="#649CFD" transform="translate(455,48)"/>
<path d="M0 0 C0.56629623 0.0714624 1.13259247 0.1429248 1.71604919 0.21655273 C8.96498147 1.04505899 16.12036357 1.11324695 23.41015625 1.0625 C24.65880966 1.05871338 25.90746307 1.05492676 27.19395447 1.05102539 C31.15016723 1.03888336 35.10632381 1.02041123 39.0625 1 C44.30338007 0.97319485 49.54422906 0.95350381 54.78515625 0.9375 C55.99542984 0.92920166 57.20570343 0.92090332 58.45265198 0.91235352 C59.56148239 0.90905029 60.67031281 0.90574707 61.81274414 0.90234375 C62.79296036 0.89710693 63.77317657 0.89187012 64.78309631 0.88647461 C67 1 67 1 68 2 C68.10292419 4.71840942 68.13843574 7.40650247 68.125 10.125 C68.12886719 10.85332031 68.13273437 11.58164063 68.13671875 12.33203125 C68.12378833 19.94805069 67.51001797 27.3497304 67 35 C44.56 35 22.12 35 -1 35 C-1 2 -1 2 0 0 Z " fill="#629BFE" transform="translate(276,156)"/>
<path d="M0 0 C1.76150391 -0.00193359 1.76150391 -0.00193359 3.55859375 -0.00390625 C4.79738281 -0.00003906 6.03617187 0.00382812 7.3125 0.0078125 C8.52035156 0.00394531 9.72820312 0.00007813 10.97265625 -0.00390625 C17.50477984 0.00320161 23.83867518 0.25382335 30.3125 1.1328125 C31.41078769 4.67469528 31.42695011 7.9537887 31.41015625 11.6484375 C31.40532227 13.52402344 31.40532227 13.52402344 31.40039062 15.4375 C31.38782227 17.39042969 31.38782227 17.39042969 31.375 19.3828125 C31.37048828 20.70023438 31.36597656 22.01765625 31.36132812 23.375 C31.34954316 26.62764991 31.33309011 29.88020834 31.3125 33.1328125 C30.6525 33.1328125 29.9925 33.1328125 29.3125 33.1328125 C29.3125 22.9028125 29.3125 12.6728125 29.3125 2.1328125 C18.0925 2.1328125 6.8725 2.1328125 -4.6875 2.1328125 C-4.3575 13.0228125 -4.0275 23.9128125 -3.6875 35.1328125 C0.71776228 35.86702288 4.60644108 36.30738859 9.0234375 36.44921875 C10.88935547 36.51206055 10.88935547 36.51206055 12.79296875 36.57617188 C14.07816406 36.61548828 15.36335938 36.65480469 16.6875 36.6953125 C17.99589844 36.73849609 19.30429687 36.78167969 20.65234375 36.82617188 C23.87229797 36.93193679 27.09232531 37.03402829 30.3125 37.1328125 C30.3125 37.4628125 30.3125 37.7928125 30.3125 38.1328125 C18.4325 38.1328125 6.5525 38.1328125 -5.6875 38.1328125 C-5.6875 61.8928125 -5.6875 85.6528125 -5.6875 110.1328125 C6.1925 110.1328125 18.0725 110.1328125 30.3125 110.1328125 C30.333125 116.0521875 30.35375 121.9715625 30.375 128.0703125 C30.384104 129.94066162 30.39320801 131.81101074 30.40258789 133.73803711 C30.40550709 135.21207609 30.40805564 136.68611587 30.41015625 138.16015625 C30.41527222 138.93234497 30.42038818 139.70453369 30.42565918 140.50012207 C30.42596974 142.37806437 30.37483569 144.25590503 30.3125 146.1328125 C29.3125 147.1328125 29.3125 147.1328125 26.45884705 147.25306702 C25.18199539 147.25084641 23.90514374 147.24862579 22.58959961 147.24633789 C21.8871965 147.24648392 21.1847934 147.24662994 20.46110535 147.2467804 C18.12898722 147.24608122 15.796948 147.23828867 13.46484375 147.23046875 C11.85201562 147.22860458 10.23918693 147.22718068 8.62635803 147.22618103 C4.37334643 147.22235573 0.12036876 147.21252535 -4.13262939 147.20147705 C-8.4692743 147.19126319 -12.80592467 147.18668346 -17.14257812 147.18164062 C-25.65756769 147.17090309 -34.17252963 147.15382653 -42.6875 147.1328125 C-42.6875 146.8028125 -42.6875 146.4728125 -42.6875 146.1328125 C-30.8075 146.1328125 -18.9275 146.1328125 -6.6875 146.1328125 C-6.6875 110.1628125 -6.6875 74.1928125 -6.6875 37.1328125 C-30.4475 37.1328125 -54.2075 37.1328125 -78.6875 37.1328125 C-78.6875 36.8028125 -78.6875 36.4728125 -78.6875 36.1328125 C-54.9275 36.1328125 -31.1675 36.1328125 -6.6875 36.1328125 C-6.6875 24.5828125 -6.6875 13.0328125 -6.6875 1.1328125 C-4.92118251 -0.63350499 -2.39197741 0.0025247 0 0 Z " fill="#97A7B2" transform="translate(459.6875,45.8671875)"/>
<path d="M0 0 C12.21 0 24.42 0 37 0 C37 11.88 37 23.76 37 36 C24.79 36 12.58 36 0 36 C0 24.12 0 12.24 0 0 Z " fill="#FAFBFC" transform="translate(164,228)"/>
<path d="M0 0 C11.88 0 23.76 0 36 0 C36 11.88 36 23.76 36 36 C24.12 36 12.24 36 0 36 C0 24.12 0 12.24 0 0 Z " fill="#010103" transform="translate(454,264)"/>
<path d="M0 0 C11.88 0 23.76 0 36 0 C36 11.88 36 23.76 36 36 C24.12 36 12.24 36 0 36 C0 24.12 0 12.24 0 0 Z " fill="#010203" transform="translate(381,264)"/>
<path d="M0 0 C11.88 0 23.76 0 36 0 C36 11.88 36 23.76 36 36 C24.12 36 12.24 36 0 36 C0 24.12 0 12.24 0 0 Z " fill="#C9DBFC" transform="translate(345,156)"/>
<path d="M0 0 C11.88 0 23.76 0 36 0 C36 11.88 36 23.76 36 36 C24.12 36 12.24 36 0 36 C0 24.12 0 12.24 0 0 Z " fill="#C9DBFB" transform="translate(381,120)"/>
<path d="M0 0 C11.88 0 23.76 0 36 0 C36 11.88 36 23.76 36 36 C31.730625 36.020625 27.46125 36.04125 23.0625 36.0625 C21.73484619 36.071604 20.40719238 36.08070801 19.03930664 36.09008789 C17.4285022 36.09383423 17.4285022 36.09383423 15.78515625 36.09765625 C14.15912476 36.10551147 14.15912476 36.10551147 12.50024414 36.11352539 C8.31919509 35.97791907 4.15766172 35.46196241 0 35 C0 23.45 0 11.9 0 0 Z " fill="#649CFC" transform="translate(56,120)"/>
<path d="M0 0 C11.88 0 23.76 0 36 0 C36.020625 5.589375 36.04125 11.17875 36.0625 16.9375 C36.071604 18.70343506 36.08070801 20.46937012 36.09008789 22.28881836 C36.09300714 23.68082605 36.09555567 25.07283459 36.09765625 26.46484375 C36.10277222 27.19384888 36.10788818 27.922854 36.11315918 28.6739502 C36.11347011 30.44970076 36.06228515 32.22534208 36 34 C35 35 35 35 31.67358398 35.11352539 C30.19774445 35.11327435 28.72189903 35.10771514 27.24609375 35.09765625 C26.55906372 35.09664917 25.87203369 35.09564209 25.16418457 35.09460449 C22.58860616 35.08935776 20.01305147 35.07539659 17.4375 35.0625 C11.683125 35.041875 5.92875 35.02125 0 35 C0 23.45 0 11.9 0 0 Z " fill="#629BFE" transform="translate(527,120)"/>
<path d="M0 0 C1.02787125 0.00212242 1.02787125 0.00212242 2.07650757 0.00428772 C4.26719511 0.0098895 6.4577808 0.02244219 8.6484375 0.03515625 C10.13281102 0.04017103 11.61718615 0.04473397 13.1015625 0.04882812 C16.74222065 0.05985948 20.38281914 0.07712526 24.0234375 0.09765625 C25.20285835 3.6359188 25.13632939 6.43914351 25.12109375 10.171875 C25.11859619 11.42315186 25.11609863 12.67442871 25.11352539 13.96362305 C25.10442139 15.554729 25.09531738 17.14583496 25.0859375 18.78515625 C25.0653125 23.83828125 25.0446875 28.89140625 25.0234375 34.09765625 C13.8034375 34.09765625 2.5834375 34.09765625 -8.9765625 34.09765625 C-8.9765625 23.20765625 -8.9765625 12.31765625 -8.9765625 1.09765625 C-6.00296801 -0.389141 -3.31357071 -0.0134698 0 0 Z " fill="#629BFD" transform="translate(246.9765625,120.90234375)"/>
<path d="M0 0 C5.10863896 -0.0246501 10.21724359 -0.04283607 15.32592773 -0.05493164 C17.06519168 -0.05997204 18.80445136 -0.0668043 20.54370117 -0.07543945 C23.03825937 -0.08751792 25.53276173 -0.09323108 28.02734375 -0.09765625 C28.80963852 -0.10281754 29.59193329 -0.10797882 30.39793396 -0.11329651 C32.26567114 -0.11349226 34.13329204 -0.06199694 36 0 C37 1 37 1 37.11352539 4.41821289 C37.11327433 5.93636987 37.10771425 7.45453257 37.09765625 8.97265625 C37.09664917 9.67934448 37.09564209 10.38603271 37.09460449 11.11413574 C37.08935745 13.76360691 37.07539629 16.41305502 37.0625 19.0625 C37.041875 24.981875 37.02125 30.90125 37 37 C48.88 37 60.76 37 73 37 C73 48.88 73 60.76 73 73 C96.1 73 119.2 73 143 73 C143 61.12 143 49.24 143 37 C154.88 37 166.76 37 179 37 C179 25.12 179 13.24 179 1 C179.33 1 179.66 1 180 1 C180 12.88 180 24.76 180 37 C191.88 37 203.76 37 216 37 C216 37.33 216 37.66 216 38 C192.24 38 168.48 38 144 38 C144.33 49.55 144.66 61.1 145 73 C156.22 73 167.44 73 179 73 C179.33 72.01 179.66 71.02 180 70 C180 71.32 180 72.64 180 74 C168.12 74 156.24 74 144 74 C144 85.88 144 97.76 144 110 C120.24 110 96.48 110 72 110 C72 98.12 72 86.24 72 74 C60.12 74 48.24 74 36 74 C36 62.12 36 50.24 36 38 C24.45 38 12.9 38 1 38 C1 37.67 1 37.34 1 37 C12.22 36.67 23.44 36.34 35 36 C34.67 25.11 34.34 14.22 34 3 C23.11 2.67 12.22 2.34 1 2 C0.67 1.34 0.34 0.68 0 0 Z M37 40 C37 50.89 37 61.78 37 73 C48.22 73 59.44 73 71 73 C71.0309375 65.4203125 71.0309375 65.4203125 71.0625 57.6875 C71.071604 56.09639404 71.08070801 54.50528809 71.09008789 52.8659668 C71.09258545 51.61468994 71.09508301 50.36341309 71.09765625 49.07421875 C71.10289307 47.79119873 71.10812988 46.50817871 71.11352539 45.1862793 C71.14927176 41.9774026 71.14927176 41.9774026 70 39 C65.6217488 38.97530919 61.24353433 38.95714443 56.86523438 38.94506836 C55.37531834 38.94003486 53.88540726 38.93320758 52.39550781 38.92456055 C50.25584696 38.91245195 48.11625132 38.90676193 45.9765625 38.90234375 C44.04417725 38.89448853 44.04417725 38.89448853 42.07275391 38.88647461 C39.08594772 38.78457369 39.08594772 38.78457369 37 40 Z M75 74 C69.7803789 84.4392422 74 97.3285724 74 109 C96.44 109 118.88 109 142 109 C142.86347712 96.55317197 142.86347712 96.55317197 143.125 84.125 C143.12886719 83.34253906 143.13273437 82.56007813 143.13671875 81.75390625 C143.47681509 78.07634444 143.47681509 78.07634444 142 75 C140.20102136 74.91144662 138.39854526 74.89311259 136.59741211 74.90234375 C135.44208481 74.90564697 134.28675751 74.9089502 133.09642029 74.91235352 C131.83612503 74.92065186 130.57582977 74.9289502 129.27734375 74.9375 C127.3072618 74.9432866 125.33717982 74.94906739 123.3670969 74.95451355 C119.19177044 74.96768088 115.01648133 74.98970981 110.84118652 75.01037598 C107.42054011 75.02699758 103.99991335 75.04160477 100.57923889 75.05102539 C98.01154302 75.05852834 95.44385534 75.0705477 92.87620544 75.08764648 C86.81527176 75.10465068 80.9903468 74.94440102 75 74 Z " fill="#729EEE" transform="translate(201,82)"/>
<path d="M0 0 C0.99 0.33 1.98 0.66 3 1 C1.68 1.33 0.36 1.66 -1 2 C-1 13.22 -1 24.44 -1 36 C0.32 35.67 1.64 35.34 3 35 C5.31800663 34.98429965 7.63674897 35.03275738 9.953125 35.12109375 C10.61334656 35.14470474 11.27356812 35.16831573 11.95379639 35.19264221 C14.052769 35.2689281 16.15133949 35.35310153 18.25 35.4375 C19.67706397 35.4907559 21.10414728 35.54349604 22.53125 35.59570312 C26.02107733 35.72449499 29.51058798 35.86036019 33 36 C33.33 36.66 33.66 37.32 34 38 C22.45 38 10.9 38 -1 38 C-1 49.88 -1 61.76 -1 74 C-25.09 74 -49.18 74 -74 74 C-74 85.55 -74 97.1 -74 109 C-71.03 109 -68.06 109 -65 109 C-65 109.33 -65 109.66 -65 110 C-67.97 110 -70.94 110 -74 110 C-74 169.4 -74 228.8 -74 290 C-85.88 290 -97.76 290 -110 290 C-110 230.6 -110 171.2 -110 110 C-98.34871293 109.31463017 -86.6714276 109 -75 109 C-75 97.12 -75 85.24 -75 73 C-63.12 73 -51.24 73 -39 73 C-39.03960217 61.19736497 -39.03960217 61.19736497 -39.09008789 49.39477539 C-39.09300709 47.92073641 -39.09555564 46.44669663 -39.09765625 44.97265625 C-39.10277222 44.20046753 -39.10788818 43.42827881 -39.11315918 42.63269043 C-39.11346974 40.75474813 -39.06233569 38.87690747 -39 37 C-38 36 -38 36 -34.58178711 35.88647461 C-33.06363012 35.88663372 -31.54546771 35.89232774 -30.02734375 35.90234375 C-29.22970108 35.9037587 -28.43205841 35.90517365 -27.61024475 35.90663147 C-25.05262565 35.91224684 -22.49509282 35.92480188 -19.9375 35.9375 C-18.20768355 35.94251302 -16.47786574 35.94707627 -14.74804688 35.95117188 C-10.49866447 35.96222125 -6.24934688 35.97949614 -2 36 C-2.07726318 35.27586914 -2.15452637 34.55173828 -2.23413086 33.80566406 C-2.95067328 26.37653314 -2.98147543 19.19524161 -2.5625 11.75 C-2.51029297 10.70714844 -2.45808594 9.66429687 -2.40429688 8.58984375 C-2.27661591 6.0594392 -2.14178623 3.52964648 -2 1 C-1.34 0.67 -0.68 0.34 0 0 Z M-38 37 C-38 48.88 -38 60.76 -38 73 C-26.12 73 -14.24 73 -2 73 C-2 61.12 -2 49.24 -2 37 C-13.88 37 -25.76 37 -38 37 Z M-109 111 C-109 169.74 -109 228.48 -109 289 C-97.78 289 -86.56 289 -75 289 C-75 230.26 -75 171.52 -75 111 C-86.22 111 -97.44 111 -109 111 Z " fill="#6D9CF1" transform="translate(130,46)"/>
<path d="M0 0 C0.33 0 0.66 0 1 0 C1 11.88 1 23.76 1 36 C12.88 36 24.76 36 37 36 C37 36.33 37 36.66 37 37 C25.12 37 13.24 37 1 37 C1 48.55 1 60.1 1 72 C11.22656041 71.63878073 11.22656041 71.63878073 21.45214844 71.25170898 C38.72028929 70.70916404 55.61175176 71.5169931 73 72 C73 132.06 73 192.12 73 254 C60.79 254.33 48.58 254.66 36 255 C36 194.94 36 134.88 36 73 C24.12 73 12.24 73 0 73 C0 61.12 0 49.24 0 37 C-11.88 37 -23.76 37 -36 37 C-36 36.67 -36 36.34 -36 36 C-24.12 36 -12.24 36 0 36 C0 24.12 0 12.24 0 0 Z M37 74 C37 133.07 37 192.14 37 253 C48.55 253 60.1 253 72 253 C72.02254488 229.80895243 72.04097792 206.61791368 72.05181217 183.42685795 C72.05697567 172.65964936 72.0640194 161.89244806 72.07543945 151.12524414 C72.08538464 141.74414755 72.09185303 132.36305623 72.09408849 122.98195451 C72.09539588 118.01149782 72.0984835 113.0410562 72.10573006 108.07060432 C72.11248767 103.39791878 72.11461749 98.72525459 72.11310768 94.05256462 C72.11338413 92.33238484 72.11539078 90.61220438 72.11920547 88.89202881 C72.1241387 86.55393339 72.12299968 84.21591996 72.12025452 81.87782288 C72.12117631 80.56611146 72.1220981 79.25440004 72.12304783 77.9029398 C72.33244011 75.10693113 72.33244011 75.10693113 71 74 C59.78 74 48.56 74 37 74 Z " fill="#89ADEB" transform="translate(526,83)"/>
<path d="M0 0 C0.99 0.33 1.98 0.66 3 1 C1.68 1.33 0.36 1.66 -1 2 C-1 13.22 -1 24.44 -1 36 C0.32 35.67 1.64 35.34 3 35 C5.31800663 34.98429965 7.63674897 35.03275738 9.953125 35.12109375 C10.61334656 35.14470474 11.27356812 35.16831573 11.95379639 35.19264221 C14.052769 35.2689281 16.15133949 35.35310153 18.25 35.4375 C19.67706397 35.4907559 21.10414728 35.54349604 22.53125 35.59570312 C26.02107733 35.72449499 29.51058798 35.86036019 33 36 C33.33 36.66 33.66 37.32 34 38 C22.45 38 10.9 38 -1 38 C-1 49.88 -1 61.76 -1 74 C-25.09 74 -49.18 74 -74 74 C-74 85.55 -74 97.1 -74 109 C-71.03 109 -68.06 109 -65 109 C-65 109.33 -65 109.66 -65 110 C-70.28 110 -75.56 110 -81 110 C-81 109.67 -81 109.34 -81 109 C-79.02 109 -77.04 109 -75 109 C-75 97.12 -75 85.24 -75 73 C-63.12 73 -51.24 73 -39 73 C-39.03960217 61.19736497 -39.03960217 61.19736497 -39.09008789 49.39477539 C-39.09300709 47.92073641 -39.09555564 46.44669663 -39.09765625 44.97265625 C-39.10277222 44.20046753 -39.10788818 43.42827881 -39.11315918 42.63269043 C-39.11346974 40.75474813 -39.06233569 38.87690747 -39 37 C-38 36 -38 36 -34.58178711 35.88647461 C-33.06363012 35.88663372 -31.54546771 35.89232774 -30.02734375 35.90234375 C-29.22970108 35.9037587 -28.43205841 35.90517365 -27.61024475 35.90663147 C-25.05262565 35.91224684 -22.49509282 35.92480188 -19.9375 35.9375 C-18.20768355 35.94251302 -16.47786574 35.94707627 -14.74804688 35.95117188 C-10.49866447 35.96222125 -6.24934688 35.97949614 -2 36 C-2.07726318 35.27586914 -2.15452637 34.55173828 -2.23413086 33.80566406 C-2.95067328 26.37653314 -2.98147543 19.19524161 -2.5625 11.75 C-2.51029297 10.70714844 -2.45808594 9.66429687 -2.40429688 8.58984375 C-2.27661591 6.0594392 -2.14178623 3.52964648 -2 1 C-1.34 0.67 -0.68 0.34 0 0 Z M-38 37 C-38 48.88 -38 60.76 -38 73 C-26.12 73 -14.24 73 -2 73 C-2 61.12 -2 49.24 -2 37 C-13.88 37 -25.76 37 -38 37 Z " fill="#96B5F2" transform="translate(130,46)"/>
<path d="M0 0 C1.76150391 -0.00193359 1.76150391 -0.00193359 3.55859375 -0.00390625 C4.79738281 -0.00003906 6.03617187 0.00382812 7.3125 0.0078125 C8.52035156 0.00394531 9.72820312 0.00007813 10.97265625 -0.00390625 C17.50477984 0.00320161 23.83867518 0.25382335 30.3125 1.1328125 C31.41078769 4.67469528 31.42695011 7.9537887 31.41015625 11.6484375 C31.40532227 13.52402344 31.40532227 13.52402344 31.40039062 15.4375 C31.38782227 17.39042969 31.38782227 17.39042969 31.375 19.3828125 C31.37048828 20.70023438 31.36597656 22.01765625 31.36132812 23.375 C31.34954316 26.62764991 31.33309011 29.88020834 31.3125 33.1328125 C30.6525 33.1328125 29.9925 33.1328125 29.3125 33.1328125 C29.3125 22.9028125 29.3125 12.6728125 29.3125 2.1328125 C18.0925 2.1328125 6.8725 2.1328125 -4.6875 2.1328125 C-4.3575 13.0228125 -4.0275 23.9128125 -3.6875 35.1328125 C0.71776228 35.86702288 4.60644108 36.30738859 9.0234375 36.44921875 C10.88935547 36.51206055 10.88935547 36.51206055 12.79296875 36.57617188 C14.07816406 36.61548828 15.36335938 36.65480469 16.6875 36.6953125 C17.99589844 36.73849609 19.30429687 36.78167969 20.65234375 36.82617188 C23.87229797 36.93193679 27.09232531 37.03402829 30.3125 37.1328125 C30.3125 37.4628125 30.3125 37.7928125 30.3125 38.1328125 C6.20376303 38.20393133 -17.89354162 38.03292644 -41.99945068 37.66925049 C-46.16497054 37.6069945 -50.33053402 37.54779824 -54.49609375 37.48828125 C-62.5599393 37.37264663 -70.62373382 37.25385559 -78.6875 37.1328125 C-78.6875 36.8028125 -78.6875 36.4728125 -78.6875 36.1328125 C-54.9275 36.1328125 -31.1675 36.1328125 -6.6875 36.1328125 C-6.6875 24.5828125 -6.6875 13.0328125 -6.6875 1.1328125 C-4.92118251 -0.63350499 -2.39197741 0.0025247 0 0 Z " fill="#95B0E9" transform="translate(459.6875,45.8671875)"/>
<path d="M0 0 C0.33 0 0.66 0 1 0 C1 11.88 1 23.76 1 36 C12.88 36 24.76 36 37 36 C37 36.33 37 36.66 37 37 C13.24 37 -10.52 37 -35 37 C-34.67 48.55 -34.34 60.1 -34 72 C-22.78 72 -11.56 72 0 72 C0.495 70.515 0.495 70.515 1 69 C1 70.32 1 71.64 1 73 C-10.88 73 -22.76 73 -35 73 C-35 84.88 -35 96.76 -35 109 C-35.33 109 -35.66 109 -36 109 C-36 97.12 -36 85.24 -36 73 C-55.8 73 -75.6 73 -96 73 C-96 72.67 -96 72.34 -96 72 C-76.2 72 -56.4 72 -36 72 C-36 60.12 -36 48.24 -36 36 C-24.12 36 -12.24 36 0 36 C0 24.12 0 12.24 0 0 Z " fill="#90B3ED" transform="translate(380,83)"/>
<path d="M0 0 C5.10863896 -0.0246501 10.21724359 -0.04283607 15.32592773 -0.05493164 C17.06519168 -0.05997204 18.80445136 -0.0668043 20.54370117 -0.07543945 C23.03825937 -0.08751792 25.53276173 -0.09323108 28.02734375 -0.09765625 C28.80963852 -0.10281754 29.59193329 -0.10797882 30.39793396 -0.11329651 C32.26567114 -0.11349226 34.13329204 -0.06199694 36 0 C37 1 37 1 37.11352539 4.41821289 C37.11327433 5.93636987 37.10771425 7.45453257 37.09765625 8.97265625 C37.09664917 9.67934448 37.09564209 10.38603271 37.09460449 11.11413574 C37.08935745 13.76360691 37.07539629 16.41305502 37.0625 19.0625 C37.041875 24.981875 37.02125 30.90125 37 37 C48.88 37 60.76 37 73 37 C73 48.88 73 60.76 73 73 C72.67 73 72.34 73 72 73 C72 61.45 72 49.9 72 38 C48.57 38 25.14 38 1 38 C1 37.67 1 37.34 1 37 C12.22 36.67 23.44 36.34 35 36 C34.67 25.11 34.34 14.22 34 3 C23.11 2.67 12.22 2.34 1 2 C0.67 1.34 0.34 0.68 0 0 Z " fill="#94B4EF" transform="translate(201,82)"/>
<path d="M0 0 C11.55 0 23.1 0 35 0 C35 35.97 35 71.94 35 109 C11.24 109 -12.52 109 -37 109 C-37 108.67 -37 108.34 -37 108 C-35.35801636 107.96241577 -35.35801636 107.96241577 -33.68286133 107.92407227 C-29.61064517 107.82969992 -25.53858774 107.72955269 -21.46655273 107.62768555 C-19.70617392 107.58444931 -17.94575622 107.5427665 -16.18530273 107.50268555 C-13.65075987 107.44470815 -11.11641066 107.38109373 -8.58203125 107.31640625 C-7.79850784 107.29969376 -7.01498444 107.28298126 -6.2077179 107.26576233 C-2.29600323 107.16038544 1.13404972 106.77319006 5 106 C14.57 106.33 24.14 106.66 34 107 C34 72.02 34 37.04 34 1 C22.78 1 11.56 1 0 1 C0 0.67 0 0.34 0 0 Z " fill="#A9B8CB" transform="translate(491,192)"/>
<path d="M0 0 C11.88 0 23.76 0 36 0 C36 12.21 36 24.42 36 37 C33.69 37 31.38 37 29 37 C29 36.67 29 36.34 29 36 C30.98 36 32.96 36 35 36 C34.67 25.11 34.34 14.22 34 3 C23.11 2.67 12.22 2.34 1 2 C0.67 1.34 0.34 0.68 0 0 Z " fill="#84ABEE" transform="translate(201,82)"/>
<path d="M0 0 C0.33 0 0.66 0 1 0 C1 11.88 1 23.76 1 36 C12.88 36 24.76 36 37 36 C37 36.33 37 36.66 37 37 C25.12 37 13.24 37 1 37 C0.505 37.99 0.505 37.99 0 39 C0 38.34 0 37.68 0 37 C-11.88 37 -23.76 37 -36 37 C-36 36.67 -36 36.34 -36 36 C-24.12 36 -12.24 36 0 36 C0 24.12 0 12.24 0 0 Z " fill="#97B4ED" transform="translate(526,83)"/>
<path d="M0 0 C11.22 0.33 22.44 0.66 34 1 C34 1.33 34 1.66 34 2 C23.44 2 12.88 2 2 2 C2.33 12.56 2.66 23.12 3 34 C4.32 34.66 5.64 35.32 7 36 C3.535 36.495 3.535 36.495 0 37 C0 24.79 0 12.58 0 0 Z " fill="#6993E6" transform="translate(201,83)"/>
<path d="M0 0 C11.88 0 23.76 0 36 0 C36 11.22 36 22.44 36 34 C35.01 34.33 34.02 34.66 33 35 C33 24.11 33 13.22 33 2 C22.11 2 11.22 2 0 2 C0 1.34 0 0.68 0 0 Z " fill="#6F99E7" transform="translate(527,120)"/>
<path d="M0 0 C6.93 0 13.86 0 21 0 C22.61797753 26.8988764 22.61797753 26.8988764 21 36 C20.67 36 20.34 36 20 36 C19.67 25.11 19.34 14.22 19 3 C12.73 2.67 6.46 2.34 0 2 C0 1.34 0 0.68 0 0 Z " fill="#99B4F2" transform="translate(144,46)"/>
<path d="M0 0 C0.33 1.32 0.66 2.64 1 4 C-8.24 4 -17.48 4 -27 4 C-27 3.67 -27 3.34 -27 3 C-25.87972412 2.970271 -25.87972412 2.970271 -24.73681641 2.93994141 C-21.36584395 2.84491789 -17.99551071 2.73514741 -14.625 2.625 C-13.449375 2.5940625 -12.27375 2.563125 -11.0625 2.53125 C-9.94101562 2.49257812 -8.81953125 2.45390625 -7.6640625 2.4140625 C-6.62717285 2.3826416 -5.5902832 2.3512207 -4.52197266 2.31884766 C-1.83190165 2.24045528 -1.83190165 2.24045528 0 0 Z " fill="#6D99F2" transform="translate(489,79)"/>
</svg>
