<?xml version="1.0" encoding="UTF-8"?>
<svg version="1.1" xmlns="http://www.w3.org/2000/svg" width="654" height="382">
<path d="M0 0 C1.20432253 0.00138269 1.20432253 0.00138269 2.43297482 0.00279331 C3.810751 0.00073132 3.810751 0.00073132 5.21636105 -0.00137234 C6.73981388 0.00402058 6.73981388 0.00402058 8.29404354 0.00952244 C9.35732876 0.00937641 10.42061398 0.00923038 11.51611996 0.00907993 C15.04945535 0.00977958 18.58273878 0.0175744 22.11606503 0.02539158 C24.55844246 0.02725557 27.00082026 0.02867956 29.4431982 0.0296793 C35.88600342 0.03350594 42.32878626 0.04333746 48.7715826 0.05438328 C56.49412988 0.0663881 64.21668462 0.07099894 71.93923855 0.07683659 C83.68439421 0.08654914 95.42950073 0.10570469 107.17465878 0.12304783 C107.17465878 24.21304783 107.17465878 48.30304783 107.17465878 73.12304783 C179.44465878 73.12304783 251.71465878 73.12304783 326.17465878 73.12304783 C326.17465878 49.36304783 326.17465878 25.60304783 326.17465878 1.12304783 C327.73796036 -0.44025375 329.25268536 -0.00291348 331.42624569 -0.00393581 C332.34331799 -0.00675564 333.26039028 -0.00957546 334.20525265 -0.01248074 C335.21931683 -0.0104565 336.233381 -0.00843227 337.2781744 -0.0063467 C338.33985332 -0.00809902 339.40153225 -0.00985134 340.49538326 -0.01165676 C344.02390813 -0.01607765 347.55238335 -0.01313645 351.08090878 -0.00976467 C353.52089097 -0.01043764 355.9608731 -0.01140761 358.40085506 -0.01266384 C363.52224012 -0.01414114 368.64360777 -0.01198524 373.76499081 -0.00732327 C380.34628592 -0.00162597 386.92754027 -0.0049048 393.50883389 -0.01089573 C398.54951951 -0.01450049 403.5901954 -0.01336315 408.63088131 -0.01076794 C411.05830038 -0.01009843 413.48572033 -0.01092791 415.91313839 -0.01324749 C419.299164 -0.01577262 422.68512256 -0.01193539 426.07114315 -0.0063467 C427.08520733 -0.00837093 428.09927151 -0.01039516 429.1440649 -0.01248074 C430.51967335 -0.008251 430.51967335 -0.008251 431.92307186 -0.00393581 C432.72465473 -0.00355879 433.5262376 -0.00318176 434.35211086 -0.00279331 C436.17465878 0.12304783 436.17465878 0.12304783 437.17465878 1.12304783 C437.26316548 3.71638931 437.28999047 6.28367362 437.27231503 8.87695408 C437.27130795 9.56398411 437.27030087 10.25101414 437.26926327 10.95886326 C437.26401654 13.53444167 437.25005536 16.10999636 437.23715878 18.68554783 C437.21653378 24.43992283 437.19590878 30.19429783 437.17465878 36.12304783 C449.38465878 36.12304783 461.59465878 36.12304783 474.17465878 36.12304783 C474.17465878 48.33304783 474.17465878 60.54304783 474.17465878 73.12304783 C486.05465878 73.12304783 497.93465878 73.12304783 510.17465878 73.12304783 C510.17465878 145.72304783 510.17465878 218.32304783 510.17465878 293.12304783 C498.29465878 293.12304783 486.41465878 293.12304783 474.17465878 293.12304783 C474.17465878 305.66304783 474.17465878 318.20304783 474.17465878 331.12304783 C304.55465878 331.12304783 134.93465878 331.12304783 -39.82534122 331.12304783 C-41.03611823 327.49071681 -40.94978287 324.17182796 -40.92299747 320.39257908 C-40.92158253 319.64215839 -40.92016758 318.89173771 -40.91870975 318.118577 C-40.91311682 315.72419322 -40.90056566 313.3299033 -40.88784122 310.93554783 C-40.88282531 309.31120022 -40.87826256 307.68685115 -40.87416935 306.06250095 C-40.86314971 302.08264714 -40.84588996 298.10286339 -40.82534122 294.12304783 C-41.70270939 294.12828465 -42.58007755 294.13352146 -43.48403263 294.13891697 C-46.76040659 294.1560288 -50.03673258 294.16853194 -53.31313419 294.17797947 C-54.72720435 294.18298703 -56.14126939 294.18979501 -57.55532169 294.19848728 C-59.59586195 294.21071039 -61.63633334 294.21631202 -63.67690372 294.22070408 C-65.51502628 294.2285593 -65.51502628 294.2285593 -67.39028263 294.23657322 C-70.82534122 294.12304783 -70.82534122 294.12304783 -76.82534122 293.12304783 C-76.82534122 220.52304783 -76.82534122 147.92304783 -76.82534122 73.12304783 C-64.94534122 72.79304783 -53.06534122 72.46304783 -40.82534122 72.12304783 C-40.8647467 62.89437991 -40.8647467 62.89437991 -40.91542912 53.66577244 C-40.91792667 52.50569675 -40.92042423 51.34562107 -40.92299747 50.15039158 C-40.92823429 48.97210789 -40.93347111 47.7938242 -40.93886662 46.57983494 C-40.82534122 43.12304783 -40.82534122 43.12304783 -39.82534122 36.12304783 C-27.61534122 36.12304783 -15.40534122 36.12304783 -2.82534122 36.12304783 C-2.8649427 24.64951371 -2.8649427 24.64951371 -2.91542912 13.17602634 C-2.91834834 11.74300301 -2.92089688 10.30997885 -2.92299747 8.87695408 C-2.92811344 8.12635715 -2.93322941 7.37576023 -2.9385004 6.60241795 C-2.93881115 4.77557182 -2.88765236 2.948831 -2.82534122 1.12304783 C-1.82534122 0.12304783 -1.82534122 0.12304783 0 0 Z M-1.82534122 37.12304783 C-1.82534122 49.00304783 -1.82534122 60.88304783 -1.82534122 73.12304783 C9.72465878 73.12304783 21.27465878 73.12304783 33.17465878 73.12304783 C33.19528378 68.66804783 33.21590878 64.21304783 33.23715878 59.62304783 C33.24626278 58.23408298 33.25536678 56.84511814 33.26474667 55.41406345 C33.26724422 54.2970908 33.26974178 53.18011814 33.27231503 52.02929783 C33.27755184 50.89814548 33.28278866 49.76699314 33.28818417 48.60156345 C33.16279317 44.75947557 32.65146485 40.93749643 32.17465878 37.12304783 C20.95465878 37.12304783 9.73465878 37.12304783 -1.82534122 37.12304783 Z M400.17465878 37.12304783 C400.17465878 49.00304783 400.17465878 60.88304783 400.17465878 73.12304783 C411.72465878 73.12304783 423.27465878 73.12304783 435.17465878 73.12304783 C435.17465878 61.24304783 435.17465878 49.36304783 435.17465878 37.12304783 C423.62465878 37.12304783 412.07465878 37.12304783 400.17465878 37.12304783 Z " fill="#744289" transform="translate(110.82534122467041,32.876952171325684)"/>
<path d="M0 0 C96.69 0 193.38 0 293 0 C293 24.42 293 48.84 293 74 C281.45 74 269.9 74 258 74 C258 86.21 258 98.42 258 111 C184.74 111 111.48 111 36 111 C36 98.79 36 86.58 36 74 C24.12 74 12.24 74 0 74 C0 49.58 0 25.16 0 0 Z " fill="#45263C" transform="translate(181,179)"/>
<path d="M0 0 C1.29359099 -0.00346153 1.29359099 -0.00346153 2.61331514 -0.006993 C5.5048794 -0.0122894 8.39622123 -0.00331182 11.28777409 0.00558662 C13.38096499 0.00471449 15.47415568 0.00296335 17.5673452 0.00040829 C23.32075402 -0.00406758 29.07408849 0.0039418 34.82748783 0.01396441 C41.03124005 0.02259312 47.23498801 0.01967916 53.43874454 0.01815987 C64.18768316 0.01711065 74.93659186 0.02332132 85.68552303 0.03463554 C96.95852047 0.04647097 108.23150823 0.05416772 119.50451183 0.05634117 C120.55602727 0.05654739 120.55602727 0.05654739 121.62878545 0.05675778 C125.18888546 0.05743444 128.74898547 0.05803721 132.3090855 0.05861153 C157.52302201 0.06281197 182.73694589 0.07628562 207.95087528 0.09521675 C232.44534074 0.11358646 256.93980275 0.12775328 281.43427372 0.13623238 C282.56688113 0.13662695 282.56688113 0.13662695 283.7223695 0.1370295 C291.3051325 0.13966655 298.88789552 0.14221818 306.47065857 0.14470722 C321.91751993 0.1497796 337.36438107 0.15542211 352.8112421 0.16140938 C353.52145847 0.16168396 354.23167483 0.16195854 354.96341291 0.16224144 C402.38770592 0.18064171 449.81199127 0.21248572 497.23627567 0.24609566 C497.23627567 12.12609566 497.23627567 24.00609566 497.23627567 36.24609566 C448.43789081 36.26314858 399.63950582 36.27912708 350.84111881 36.2884388 C349.75864747 36.28864588 349.75864747 36.28864588 348.65430801 36.28885715 C332.97287825 36.29184971 317.29144846 36.29461994 301.61001861 36.29716099 C293.92041484 36.29840838 286.23081108 36.29970492 278.54120731 36.3010273 C277.77597861 36.30115806 277.01074991 36.30128882 276.22233247 36.30142354 C251.3963946 36.30568875 226.570459 36.31320293 201.74452251 36.32239288 C176.24345091 36.33181565 150.74238057 36.33797882 125.24130726 36.34001065 C121.64365164 36.34029882 118.04599603 36.34062446 114.44834042 36.3409729 C113.38618198 36.34107403 113.38618198 36.34107403 112.3025658 36.34117721 C100.88069129 36.34236127 89.45882066 36.3470056 78.03694773 36.35292769 C66.56824526 36.35880081 55.09954815 36.36098594 43.63084394 36.35959703 C37.41112219 36.35895331 31.19141184 36.35997503 24.97169209 36.36530113 C19.28775134 36.3701332 13.60382978 36.37043559 7.91988819 36.36699455 C5.85393482 36.36656867 3.78798029 36.36786602 1.72202922 36.37097884 C-1.06686557 36.37493959 -3.85568927 36.37286107 -6.64458275 36.36914349 C-7.4633806 36.3717705 -8.28217845 36.37439751 -9.12578836 36.37710413 C-14.64957853 36.36024146 -14.64957853 36.36024146 -15.76372433 35.24609566 C-15.85216226 32.79779139 -15.87901184 30.37788967 -15.86138058 27.92968941 C-15.85996563 27.19863487 -15.85855068 26.46758034 -15.85709286 25.71437263 C-15.85147841 23.37073934 -15.83892354 21.02720026 -15.82622433 18.68359566 C-15.82121118 17.09831058 -15.81664796 15.513024 -15.81255245 13.92773628 C-15.80150429 10.03381956 -15.78423004 6.1399736 -15.76372433 2.24609566 C-10.3591633 0.44360517 -5.67527865 -0.03758218 0 0 Z " fill="#000000" transform="translate(86.7637243270874,326.75390434265137)"/>
<path d="M0 0 C96.36 0 192.72 0 292 0 C292 11.88 292 23.76 292 36 C207.52 36.33 123.04 36.66 36 37 C35.67 48.55 35.34 60.1 35 72 C23.45 72 11.9 72 0 72 C0 48.24 0 24.48 0 0 Z " fill="#211F33" transform="translate(182,180)"/>
<path d="M0 0 C11.88 0 23.76 0 36 0 C36 72.27 36 144.54 36 219 C23.99537126 219 11.98125066 218.74882817 0 218 C0 146.06 0 74.12 0 0 Z " fill="#010101" transform="translate(585,107)"/>
<path d="M0 0 C11.88 0 23.76 0 36 0 C36 71.94 36 143.88 36 218 C26.1 218.495 26.1 218.495 16 219 C11.59176312 219.42104377 11.59176312 219.42104377 7.19140625 219.9140625 C5 220 5 220 0 219 C0 146.73 0 74.46 0 0 Z " fill="#000001" transform="translate(35,107)"/>
<path d="M0 0 C72.27 0 144.54 0 219 0 C219 11.55 219 23.1 219 35 C146.73 35 74.46 35 0 35 C0 23.45 0 11.9 0 0 Z " fill="#744189" transform="translate(218,217)"/>
<path d="M0 0 C11.88 0 23.76 0 36 0 C36 11.88 36 23.76 36 36 C24.45 36 12.9 36 1 36 C1 47.88 1 59.76 1 72 C-11.54 72 -24.08 72 -37 72 C-38.54166667 45.79166667 -38.54166667 45.79166667 -37 35 C-24.79 35 -12.58 35 0 35 C0 23.45 0 11.9 0 0 Z " fill="#090909" transform="translate(108,34)"/>
<path d="M0 0 C96.69 0 193.38 0 293 0 C293 0.33 293 0.66 293 1 C196.64 1 100.28 1 1 1 C1 24.76 1 48.52 1 73 C12.55 73 24.1 73 36 73 C35.96039853 61.52646588 35.96039853 61.52646588 35.90991211 50.05297852 C35.90699289 48.61995518 35.90444434 47.18693102 35.90234375 45.75390625 C35.89722778 45.00330933 35.89211182 44.2527124 35.88684082 43.47937012 C35.88653008 41.65252399 35.93768887 39.82578317 36 38 C37 37 37 37 38.76567799 36.8758015 C39.93160926 36.87637108 39.93160926 36.87637108 41.1210947 36.87695217 C42.01483502 36.87496112 42.90857534 36.87297007 43.82939869 36.87091869 C44.82256861 36.87383153 45.81573854 36.87674437 46.83900452 36.87974548 C47.88524835 36.87889106 48.93149217 36.87803663 50.00944036 36.87715632 C53.54415234 36.87549839 57.07881772 36.88102798 60.61352539 36.88647461 C63.1358083 36.88675644 65.65809129 36.88659883 68.18037415 36.8860321 C73.62555098 36.88580378 79.0707126 36.88865526 84.51588631 36.89426994 C92.388778 36.90238265 100.2616639 36.90499993 108.13455933 36.90625793 C120.90652265 36.90844882 133.67847959 36.91510988 146.45043945 36.92456055 C158.86026986 36.93373373 171.27009853 36.94081502 183.67993164 36.94506836 C184.44433979 36.94533108 185.20874793 36.94559381 185.99631996 36.94586449 C189.83097155 36.94716949 193.66562316 36.94843321 197.50027478 36.94967639 C229.33352134 36.96005013 261.16675933 36.97794384 293 37 C293 49.21 293 61.42 293 74 C281.45 74 269.9 74 258 74 C258 86.21 258 98.42 258 111 C184.74 111 111.48 111 36 111 C36 98.79 36 86.58 36 74 C24.12 74 12.24 74 0 74 C0 49.58 0 25.16 0 0 Z M37 38 C37 49.55 37 61.1 37 73 C109.27 73 181.54 73 256 73 C256 61.45 256 49.9 256 38 C183.73 38 111.46 38 37 38 Z M37 74 C37 85.88 37 97.76 37 110 C109.27 110 181.54 110 256 110 C256 98.12 256 86.24 256 74 C183.73 74 111.46 74 37 74 Z " fill="#45263D" transform="translate(181,179)"/>
<path d="M0 0 C12.21 0 24.42 0 37 0 C37 12.21 37 24.42 37 37 C24.79 37 12.58 37 0 37 C0 24.79 0 12.58 0 0 Z " fill="#010002" transform="translate(547,70)"/>
<path d="M0 0 C96.69 0 193.38 0 293 0 C293 0.33 293 0.66 293 1 C196.64 1 100.28 1 1 1 C1 24.76 1 48.52 1 73 C12.55 73 24.1 73 36 73 C35.96039853 61.52646588 35.96039853 61.52646588 35.90991211 50.05297852 C35.90699289 48.61995518 35.90444434 47.18693102 35.90234375 45.75390625 C35.89722778 45.00330933 35.89211182 44.2527124 35.88684082 43.47937012 C35.88653008 41.65252399 35.93768887 39.82578317 36 38 C37.84170695 36.15829305 40.43625379 36.87726991 42.88716656 36.87091869 C43.74026234 36.87383153 44.59335813 36.87674437 45.4723053 36.87974548 C46.37154124 36.87889106 47.27077719 36.87803663 48.1972627 36.87715632 C51.2344742 36.87549875 54.27163142 36.88102738 57.30883789 36.88647461 C59.4764455 36.88675645 61.64405321 36.88659881 63.81166077 36.8860321 C69.71638021 36.885744 75.62107952 36.89164283 81.52579427 36.89860606 C87.68910576 36.90483744 93.85241766 36.90544323 100.01573181 36.90663147 C111.695889 36.90974543 123.37603688 36.91795968 135.05618995 36.92798096 C148.34979226 36.93914011 161.64339431 36.94465204 174.93700039 36.94967639 C202.29133894 36.96014224 229.64566856 36.97794324 257 37 C257 48.88 257 60.76 257 73 C268.88 73 280.76 73 293 73 C293 73.33 293 73.66 293 74 C281.45 74 269.9 74 258 74 C258 86.21 258 98.42 258 111 C184.74 111 111.48 111 36 111 C36 98.79 36 86.58 36 74 C24.12 74 12.24 74 0 74 C0 49.58 0 25.16 0 0 Z M37 38 C37 49.55 37 61.1 37 73 C109.27 73 181.54 73 256 73 C256 61.45 256 49.9 256 38 C183.73 38 111.46 38 37 38 Z M37 74 C37 85.88 37 97.76 37 110 C109.27 110 181.54 110 256 110 C256 98.12 256 86.24 256 74 C183.73 74 111.46 74 37 74 Z " fill="#53305E" transform="translate(181,179)"/>
<path d="M0 0 C11.88 0 23.76 0 36 0 C35.67 11.88 35.34 23.76 35 36 C23.45 36 11.9 36 0 36 C0 24.12 0 12.24 0 0 Z " fill="#45263C" transform="translate(182,216)"/>
<path d="M0 0 C11.55 0 23.1 0 35 0 C35 11.88 35 23.76 35 36 C23.45 36 11.9 36 0 36 C0 24.12 0 12.24 0 0 Z " fill="#000001" transform="translate(109,34)"/>
<path d="M0 0 C11.55 0 23.1 0 35 0 C35.020625 5.589375 35.04125 11.17875 35.0625 16.9375 C35.071604 18.70343506 35.08070801 20.46937012 35.09008789 22.28881836 C35.09300714 23.68082605 35.09555567 25.07283459 35.09765625 26.46484375 C35.10277222 27.19384888 35.10788818 27.922854 35.11315918 28.6739502 C35.11347011 30.44970076 35.06228515 32.22534208 35 34 C34 35 34 35 30.76538086 35.11352539 C29.33185875 35.11327438 27.89833058 35.10771608 26.46484375 35.09765625 C25.46378601 35.09614563 25.46378601 35.09614563 24.44250488 35.09460449 C21.9408192 35.08935808 19.43915794 35.07539691 16.9375 35.0625 C8.5534375 35.0315625 8.5534375 35.0315625 0 35 C0 23.45 0 11.9 0 0 Z " fill="#000000" transform="translate(512,34)"/>
<path d="M0 0 C27.16257699 -0.04010881 27.16257699 -0.04010881 38.69726562 -0.04882812 C46.58309599 -0.05481732 54.46891481 -0.06191965 62.35473633 -0.07543945 C68.70892018 -0.08626578 75.06309165 -0.09227629 81.41728401 -0.09487724 C83.84749611 -0.09673195 86.27770749 -0.10035343 88.70791435 -0.10573006 C92.09882981 -0.11293711 95.48969341 -0.11399108 98.88061523 -0.11352539 C99.89625046 -0.11712067 100.91188568 -0.12071594 101.95829773 -0.12442017 C102.87681519 -0.1230455 103.79533264 -0.12167084 104.74168396 -0.12025452 C105.54456565 -0.12117631 106.34744734 -0.1220981 107.17465878 -0.12304783 C109 0 109 0 110 1 C110.0885067 3.59334148 110.1153317 6.16062579 110.09765625 8.75390625 C110.09664917 9.44093628 110.09564209 10.12796631 110.09460449 10.83581543 C110.08935776 13.41139384 110.07539659 15.98694853 110.0625 18.5625 C110.041875 24.316875 110.02125 30.07125 110 36 C122.21 36 134.42 36 147 36 C147 48.21 147 60.42 147 73 C158.88 73 170.76 73 183 73 C183 73.33 183 73.66 183 74 C170.79 74 158.58 74 146 74 C146 61.79 146 49.58 146 37 C121.58 37 97.16 37 72 37 C72 36.01 72 35.02 72 34 C71.34 33.67 70.68 33.34 70 33 C70.33 32.67 70.66 32.34 71 32 C71.33 22.1 71.66 12.2 72 2 C48.57 2 25.14 2 1 2 C1.33 3.65 1.66 5.3 2 7 C2.05838439 9.17737069 2.05978752 11.35660304 2.02172852 13.53442383 C2.00163223 14.83539505 1.98153595 16.13636627 1.96083069 17.47676086 C1.93363831 18.88685323 1.9063274 20.29694331 1.87890625 21.70703125 C1.85458604 23.15719331 1.83074345 24.60736346 1.80735779 26.05754089 C1.74470584 29.86340584 1.67558636 33.66912663 1.60510254 37.47485352 C1.53424783 41.36272652 1.46953363 45.25070126 1.40429688 49.13867188 C1.27552824 56.75922714 1.13992435 64.37964053 1 72 C0.67 72 0.34 72 0 72 C0 48.24 0 24.48 0 0 Z M74 1 C74 12.55 74 24.1 74 36 C82.3840625 36.0309375 82.3840625 36.0309375 90.9375 36.0625 C92.70343506 36.071604 94.46937012 36.08070801 96.28881836 36.09008789 C97.68082605 36.09300714 99.07283459 36.09555567 100.46484375 36.09765625 C101.19384888 36.10277222 101.922854 36.10788818 102.6739502 36.11315918 C104.44970076 36.11347011 106.22534208 36.06228515 108 36 C109.37317088 34.85411899 109.37317088 34.85411899 109.11352539 31.76538086 C109.11327438 30.33185875 109.10771608 28.89833058 109.09765625 27.46484375 C109.09664917 26.79747192 109.09564209 26.1301001 109.09460449 25.44250488 C109.08935808 22.9408192 109.07539691 20.43915794 109.0625 17.9375 C109.041875 12.348125 109.02125 6.75875 109 1 C97.45 1 85.9 1 74 1 Z " fill="#6C5675" transform="translate(438,33)"/>
<path d="M0 0 C93.06 0 186.12 0 282 0 C282 0.33 282 0.66 282 1 C189.93 1.33 97.86 1.66 3 2 C1.52793987 4.94412027 1.76192808 7.96285915 1.68359375 11.1953125 C1.66281265 11.90275604 1.64203156 12.61019958 1.62062073 13.33908081 C1.55518922 15.60095425 1.49627026 17.86294462 1.4375 20.125 C1.39430867 21.65756422 1.35069418 23.19011657 1.30664062 24.72265625 C1.19951445 28.48165073 1.0982291 32.24076292 1 36 C0.67 36 0.34 36 0 36 C0 24.12 0 12.24 0 0 Z " fill="#27193A" transform="translate(182,180)"/>
<path d="M0 0 C0.495 0.99 0.495 0.99 1 2 C0.12674072 2.02505615 -0.74651855 2.0501123 -1.64624023 2.07592773 C-4.87602552 2.17087709 -8.10564154 2.27012029 -11.33520508 2.37231445 C-12.73489199 2.41571434 -14.13463359 2.45738564 -15.53442383 2.49731445 C-17.54261495 2.55489445 -19.55061149 2.61914 -21.55859375 2.68359375 C-22.76829834 2.72025146 -23.97800293 2.75690918 -25.22436523 2.79467773 C-27.90705456 2.68938266 -27.90705456 2.68938266 -29 4 C-30.98 4 -32.96 4 -35 4 C-34.67 74.95 -34.34 145.9 -34 219 C-34.66 219 -35.32 219 -36 219 C-36 147.06 -36 75.12 -36 1 C-24.12 0.67 -12.24 0.34 0 0 Z " fill="#6D447E" transform="translate(108,106)"/>
<path d="M0 0 C2.64 0 5.28 0 8 0 C8 11.88 8 23.76 8 36 C7.67 36 7.34 36 7 36 C6.06061705 28.43621983 5.87734992 20.99092495 5.9375 13.375 C5.94201172 12.27542969 5.94652344 11.17585937 5.95117188 10.04296875 C5.96282861 7.36191997 5.97918983 4.68099068 6 2 C4.35 2 2.7 2 1 2 C0.67 1.34 0.34 0.68 0 0 Z " fill="#2B1D3E" transform="translate(466,180)"/>
<path d="M0 0 C2.31 0 4.62 0 7 0 C6.360625 0.4125 5.72125 0.825 5.0625 1.25 C2.643209 3.30273176 2.52217446 3.94849202 2 7 C1.85321886 9.09647443 1.75294862 11.19641323 1.68359375 13.296875 C1.64169922 14.50214844 1.59980469 15.70742187 1.55664062 16.94921875 C1.51732422 18.20347656 1.47800781 19.45773438 1.4375 20.75 C1.39431641 22.01972656 1.35113281 23.28945312 1.30664062 24.59765625 C1.20060278 27.73166365 1.09853942 30.86574933 1 34 C3.31 34 5.62 34 8 34 C8 34.33 8 34.66 8 35 C5.36 35 2.72 35 0 35 C0 23.45 0 11.9 0 0 Z " fill="#71457E" transform="translate(218,217)"/>
</svg>
