<svg width="124" height="73" viewBox="0 0 124 73" fill="none" xmlns="http://www.w3.org/2000/svg">
<path d="M62.0001 5.625C65.9808 5.62506 69.8333 7.03238 72.8768 9.59822C75.9203 12.1641 77.9587 15.7232 78.6318 19.6466C79.3049 23.57 78.5693 27.6051 76.5551 31.0386C74.5409 34.4721 71.3777 37.0831 67.6247 38.4099C63.8716 39.7368 59.7703 39.6942 56.0456 38.2896C52.3209 36.8851 49.2126 34.209 47.2702 30.7343C45.3277 27.2597 44.6762 23.2102 45.4307 19.3016C46.1851 15.3931 48.2971 11.877 51.3932 9.375" stroke="#EFE9DD" stroke-width="2.5" stroke-linecap="round" stroke-linejoin="round"/>
<path d="M45.125 8.4375H52.625V15.9375" stroke="#EFE9DD" stroke-width="2.5" stroke-linecap="round" stroke-linejoin="round"/>
<path d="M40.8411 70H37.7611L34.7611 64.72H33.0211V70H30.2211V56H37.8011L40.1211 57.34V63.38L37.8011 64.72L40.8411 70ZM33.0211 58.4V62.32H37.3211V58.4H33.0211ZM50.8219 67.66V70H44.8419L42.5219 68.66V61.24L44.8419 59.9H48.5019L50.8219 61.24V66.02H45.2619V67.66H50.8219ZM45.2619 62.24V63.96H48.0819V62.24H45.2619ZM60.9505 65.08V68.66L58.6305 70H53.0305V67.66H58.2105V66.12H55.3505L53.0305 64.78V61.34L55.3505 60H60.7505V62.34H55.7705V63.74H58.6305L60.9505 65.08ZM62.3484 62.34V60H64.1884V58.32L66.9284 56.74V60H69.1284V62.34H66.9284V67.66H69.1284V70H66.5084L64.1884 68.66V62.34H62.3484ZM73.2627 66.06V67.8H76.0827V66.06H73.2627ZM72.8427 70.1L70.5227 68.76V65.3L72.8427 63.96H76.0827V62.34H71.5227V60H76.5027L78.8227 61.34V70.1H77.5027L76.0827 69.28L74.6627 70.1H72.8427ZM87.2011 62.34H83.7611V70H81.0211V60H83.2811L83.7611 60.82L85.1811 60H87.2011V62.34ZM87.6047 62.34V60H89.4447V58.32L92.1847 56.74V60H94.3847V62.34H92.1847V67.66H94.3847V70H91.7647L89.4447 68.66V62.34H87.6047Z" fill="#EFE9DD"/>
</svg>
