<?xml version="1.0" encoding="UTF-8" ?>
<svg version="1.1" width="14" height="4" xmlns="http://www.w3.org/2000/svg" shape-rendering="crispEdges">
<rect x="0" y="0" width="1" height="1" fill="#060608" />
<rect x="1" y="0" width="1" height="1" fill="#DAE0EA" />
<rect x="2" y="0" width="1" height="1" fill="#DAE0EA" />
<rect x="3" y="0" width="1" height="1" fill="#DF3E23" />
<rect x="4" y="0" width="1" height="1" fill="#DF3E23" />
<rect x="5" y="0" width="1" height="1" fill="#060608" />
<rect x="8" y="0" width="1" height="1" fill="#060608" />
<rect x="9" y="0" width="1" height="1" fill="#DF3E23" />
<rect x="10" y="0" width="1" height="1" fill="#DF3E23" />
<rect x="11" y="0" width="1" height="1" fill="#DAE0EA" />
<rect x="12" y="0" width="1" height="1" fill="#DAE0EA" />
<rect x="13" y="0" width="1" height="1" fill="#060608" />
<rect x="0" y="1" width="1" height="1" fill="#060608" />
<rect x="1" y="1" width="1" height="1" fill="#8B93AF" />
<rect x="2" y="1" width="1" height="1" fill="#8B93AF" />
<rect x="3" y="1" width="1" height="1" fill="#8B93AF" />
<rect x="4" y="1" width="1" height="1" fill="#8B93AF" />
<rect x="5" y="1" width="1" height="1" fill="#060608" />
<rect x="8" y="1" width="1" height="1" fill="#060608" />
<rect x="9" y="1" width="1" height="1" fill="#8B93AF" />
<rect x="10" y="1" width="1" height="1" fill="#8B93AF" />
<rect x="11" y="1" width="1" height="1" fill="#8B93AF" />
<rect x="12" y="1" width="1" height="1" fill="#8B93AF" />
<rect x="13" y="1" width="1" height="1" fill="#060608" />
<rect x="0" y="2" width="1" height="1" fill="#060608" />
<rect x="1" y="2" width="1" height="1" fill="#060608" />
<rect x="2" y="2" width="1" height="1" fill="#060608" />
<rect x="3" y="2" width="1" height="1" fill="#060608" />
<rect x="4" y="2" width="1" height="1" fill="#060608" />
<rect x="5" y="2" width="1" height="1" fill="#060608" />
<rect x="8" y="2" width="1" height="1" fill="#060608" />
<rect x="9" y="2" width="1" height="1" fill="#060608" />
<rect x="10" y="2" width="1" height="1" fill="#060608" />
<rect x="11" y="2" width="1" height="1" fill="#060608" />
<rect x="12" y="2" width="1" height="1" fill="#060608" />
<rect x="13" y="2" width="1" height="1" fill="#060608" />
</svg>