<?xml version="1.0" encoding="UTF-8" ?>
<svg version="1.1" width="16" height="3" xmlns="http://www.w3.org/2000/svg" shape-rendering="crispEdges">
<rect x="2" y="0" width="1" height="1" fill="#000000" />
<rect x="3" y="0" width="1" height="1" fill="#FBF236" />
<rect x="4" y="0" width="1" height="1" fill="#000000" />
<rect x="11" y="0" width="1" height="1" fill="#000000" />
<rect x="12" y="0" width="1" height="1" fill="#FBF236" />
<rect x="13" y="0" width="1" height="1" fill="#000000" />
<rect x="0" y="1" width="1" height="1" fill="#000000" />
<rect x="1" y="1" width="1" height="1" fill="#000000" />
<rect x="2" y="1" width="1" height="1" fill="#FBF236" />
<rect x="3" y="1" width="1" height="1" fill="#FBF236" />
<rect x="4" y="1" width="1" height="1" fill="#000000" />
<rect x="11" y="1" width="1" height="1" fill="#000000" />
<rect x="12" y="1" width="1" height="1" fill="#FBF236" />
<rect x="13" y="1" width="1" height="1" fill="#FBF236" />
<rect x="14" y="1" width="1" height="1" fill="#000000" />
<rect x="15" y="1" width="1" height="1" fill="#000000" />
<rect x="0" y="2" width="1" height="1" fill="#000000" />
<rect x="1" y="2" width="1" height="1" fill="#FBF236" />
<rect x="2" y="2" width="1" height="1" fill="#FBF236" />
<rect x="3" y="2" width="1" height="1" fill="#FBF236" />
<rect x="4" y="2" width="1" height="1" fill="#000000" />
<rect x="11" y="2" width="1" height="1" fill="#000000" />
<rect x="12" y="2" width="1" height="1" fill="#FBF236" />
<rect x="13" y="2" width="1" height="1" fill="#FBF236" />
<rect x="14" y="2" width="1" height="1" fill="#FBF236" />
<rect x="15" y="2" width="1" height="1" fill="#000000" />
</svg>