<svg xmlns="http://www.w3.org/2000/svg" viewBox="479 409 90 90" fill="none">
  <path d="M490.529 417.543H491.287V419.058H490.529V417.543ZM490.529 425.878H491.287V424.363H490.529V425.878ZM489.771 419.058H490.529V420.574H489.771V419.058ZM489.771 424.363H490.529V422.847H489.771V424.363ZM491.287 419.058H492.045V420.574H491.287V419.058ZM491.287 424.363H492.045V422.847H491.287V424.363ZM488.256 420.574H489.771V421.332H488.256V420.574ZM493.56 420.574H492.045V421.332H493.56V420.574ZM486.74 421.332H488.256V422.089H486.74V421.332ZM495.076 421.332H493.56V422.089H495.076V421.332ZM488.256 422.089H489.771V422.847H488.256V422.089ZM493.56 422.089H492.045V422.847H493.56V422.089Z" fill="#FFFFFF"/>
  <path d="M478.621 438.733H479.379V440.248H478.621V438.733ZM478.621 447.068H479.379V445.552H478.621V447.068ZM477.864 440.248H478.621V441.764H477.864V440.248ZM477.864 445.552H478.621V444.037H477.864V445.552ZM479.379 440.248H480.137V441.764H479.379V440.248ZM479.379 445.552H480.137V444.037H479.379V445.552ZM476.348 441.764H477.864V442.521H476.348V441.764ZM481.652 441.764H480.137V442.521H481.652V441.764ZM474.833 442.521H476.348V443.279H474.833V442.521ZM483.168 442.521H481.652V443.279H483.168V442.521ZM476.348 443.279H477.864V444.037H476.348V443.279ZM481.652 443.279H480.137V444.037H481.652V443.279Z" fill="#FFFFFF"/>
  <path d="M509.227 425.089H510.08V426.794H509.227V425.089ZM509.227 434.466H510.08V432.762H509.227V434.466ZM508.375 426.794H509.227V428.499H508.375V426.794ZM508.375 432.762H509.227V431.057H508.375V432.762ZM510.08 426.794H510.932V428.499H510.08V426.794ZM510.08 432.762H510.932V431.057H510.08V432.762ZM506.67 428.499H508.375V429.352H506.67V428.499ZM512.637 428.499H510.932V429.352H512.637V428.499ZM504.965 429.352H506.67V430.204H504.965V429.352ZM514.342 429.352H512.637V430.204H514.342V429.352ZM506.67 430.204H508.375V431.057H506.67V430.204ZM512.637 430.204H510.932V431.057H512.637V430.204Z" fill="#FFFFFF"/>
  <path d="M520.499 410.77H521.73V413.233H520.499V410.77ZM520.499 424.315H521.73V421.853H520.499V424.315ZM519.268 413.233H520.499V415.696H519.268V413.233ZM519.268 421.853H520.499V419.39H519.268V421.853ZM521.73 413.233H522.962V415.696H521.73V413.233ZM521.73 421.853H522.962V419.39H521.73V421.853ZM516.805 415.696H519.268V416.927H516.805V415.696ZM525.425 415.696H522.962V416.927H525.425V415.696ZM514.342 416.927H516.805V418.158H514.342V416.927ZM527.887 416.927H525.425V418.158H527.887V416.927ZM516.805 418.158H519.268V419.39H516.805V418.158ZM525.425 418.158H522.962V419.39H525.425V418.158Z" fill="#FFFFFF"/>
  <path d="M547.591 447.228H549.484V451.015H547.591V447.228ZM547.591 468.058H549.484V464.271H547.591V468.058ZM545.697 451.015H547.591V454.802H545.697V451.015ZM545.697 464.271H547.591V460.483H545.697V464.271ZM549.484 451.015H551.378V454.802H549.484V451.015ZM549.484 464.271H551.378V460.483H549.484V464.271ZM541.909 454.802H545.697V456.696H541.909V454.802ZM555.165 454.802H551.378V456.696H555.165V454.802ZM538.122 456.696H541.909V458.59H538.122V456.696ZM558.953 456.696H555.165V458.59H558.953V456.696ZM541.909 458.59H545.697V460.483H541.909V458.59ZM555.165 458.59H551.378V460.483H555.165V458.59Z" fill="#FFFFFF"/>
  <path d="M498.989 459.67H500.22V462.132H498.989V459.67ZM498.989 473.215H500.22V470.752H498.989V473.215ZM497.758 462.132H498.989V464.595H497.758V462.132ZM497.758 470.752H498.989V468.289H497.758V470.752ZM500.22 462.132H501.452V464.595H500.22V462.132ZM500.22 470.752H501.452V468.289H500.22V470.752ZM495.295 464.595H497.758V465.826H495.295V464.595ZM503.914 464.595H501.452V465.826H503.914V464.595ZM492.832 465.826H495.295V467.058H492.832V465.826ZM506.377 465.826H503.914V467.058H506.377V465.826ZM495.295 467.058H497.758V468.289H495.295V467.058ZM503.914 467.058H501.452V468.289H503.914V467.058Z" fill="#FFFFFF"/>
  <path d="M520.268 485.871H521.763V488.86H520.268V485.871ZM520.268 502.311H521.763V499.322H520.268V502.311ZM518.774 488.86H520.268V491.849H518.774V488.86ZM518.774 499.322H520.268V496.333H518.774V499.322ZM521.763 488.86H523.258V491.849H521.763V488.86ZM521.763 499.322H523.258V496.333H521.763V499.322ZM515.785 491.849H518.774V493.344H515.785V491.849ZM526.247 491.849H523.258V493.344H526.247V491.849ZM512.796 493.344H515.785V494.838H512.796V493.344ZM529.236 493.344H526.247V494.838H529.236V493.344ZM515.785 494.838H518.774V496.333H515.785V494.838ZM526.247 494.838H523.258V496.333H526.247V494.838Z" fill="#FFFFFF"/>
  <path d="M549.623 420.988H550.745V423.232H549.623V420.988ZM549.623 433.331H550.745V431.087H549.623V433.331ZM548.5 423.232H549.623V425.477H548.5V423.232ZM548.5 431.087H549.623V428.843H548.5V431.087ZM550.745 423.232H551.867V425.477H550.745V423.232ZM550.745 431.087H551.867V428.843H550.745V431.087ZM546.256 425.477H548.5V426.599H546.256V425.477ZM554.111 425.477H551.867V426.599H554.111V425.477ZM544.012 426.599H546.256V427.721H544.012V426.599ZM556.355 426.599H554.111V427.721H556.355V426.599ZM546.256 427.721H548.5V428.843H546.256V427.721ZM554.111 427.721H551.867V428.843H554.111V427.721Z" fill="#FFFFFF"/>
  <path d="M530.238 436.711H530.885V438.006H530.238V436.711ZM530.238 443.834H530.885V442.539H530.238V443.834ZM529.59 438.006H530.238V439.301H529.59V438.006ZM529.59 442.539H530.238V441.244H529.59V442.539ZM530.885 438.006H531.533V439.301H530.885V438.006ZM530.885 442.539H531.533V441.244H530.885V442.539ZM528.295 439.301H529.59V439.949H528.295V439.301ZM532.828 439.301H531.533V439.949H532.828V439.301ZM527 439.949H528.295V440.596H527V439.949ZM534.123 439.949H532.828V440.596H534.123V439.949ZM528.295 440.596H529.59V441.244H528.295V440.596ZM532.828 440.596H531.533V441.244H532.828V440.596Z" fill="#FFFFFF"/>
  <path d="M537.798 466.36H538.446V467.655H537.798V466.36ZM537.798 473.484H538.446V472.188H537.798V473.484ZM537.15 467.655H537.798V468.95H537.15V467.655ZM537.15 472.188H537.798V470.893H537.15V472.188ZM538.446 467.655H539.093V468.95H538.446V467.655ZM538.446 472.188H539.093V470.893H538.446V472.188ZM535.855 468.95H537.15V469.598H535.855V468.95ZM540.389 468.95H539.093V469.598H540.389V468.95ZM534.56 469.598H535.855V470.245H534.56V469.598ZM541.684 469.598H540.389V470.245H541.684V469.598ZM535.855 470.245H537.15V470.893H535.855V470.245ZM540.389 470.245H539.093V470.893H540.389V470.245Z" fill="#FFFFFF"/>
  <path d="M562.358 489.412H563.006V490.707H562.358V489.412ZM562.358 496.536H563.006V495.24H562.358V496.536ZM561.711 490.707H562.358V492.002H561.711V490.707ZM561.711 495.24H562.358V493.945H561.711V495.24ZM563.006 490.707H563.653V492.002H563.006V490.707ZM563.006 495.24H563.653V493.945H563.006V495.24ZM560.415 492.002H561.711V492.65H560.415V492.002ZM564.949 492.002H563.653V492.65H564.949V492.002ZM559.12 492.65H560.415V493.298H559.12V492.65ZM566.244 492.65H564.949V493.298H566.244V492.65ZM560.415 493.298H561.711V493.945H560.415V493.298ZM564.949 493.298H563.653V493.945H564.949V493.298Z" fill="#FFFFFF"/>
</svg>
