<svg xmlns="http://www.w3.org/2000/svg" viewBox="379 409 90 90" fill="none">
  <path d="M437.996 459.863C438.503 459.948 440.071 460.16 445.068 460.5C448.753 460.751 454.79 460.84 460.808 461.032C466.826 461.225 472.647 461.436 475.835 461.565C479.024 461.695 479.404 461.737 479.346 461.907C479.289 462.076 478.782 462.371 478.261 462.676" stroke="#FFFFFF" stroke-width="3" stroke-linecap="round"/>
  <path d="M421.124 468.3C422.474 468.384 424.519 468.428 428.715 468.406C431.562 468.385 435.865 468.343 443.902 468.343C451.94 468.342 463.582 468.384 475.449 468.811" stroke="#FFFFFF" stroke-width="3" stroke-linecap="round"/>
  <path d="M402.59 476.353C403.686 476.311 404.783 476.268 407.352 476.226C409.92 476.183 413.928 476.141 421.771 476.203C429.614 476.266 441.172 476.435 450.901 476.606C460.63 476.777 468.181 476.946 472.239 477.054C476.298 477.162 476.635 477.204 476.471 478.014" stroke="#FFFFFF" stroke-width="3" stroke-linecap="round"/>
  <path d="M401.567 486.323C404.773 486.66 408.027 486.876 412.143 486.982C414.656 487.047 418.031 487.131 427.256 487.364C436.482 487.597 451.456 487.977 461.87 488.299C472.284 488.621 477.683 488.874 483.246 489.135" stroke="#FFFFFF" stroke-width="3" stroke-linecap="round"/>
  <path d="M402.462 494.504C402.631 494.504 405.038 494.377 410.345 494.122C413.333 493.978 416.919 493.867 421.128 493.781C425.337 493.694 430.062 493.652 440.193 494.052C450.325 494.452 465.722 495.296 474.244 495.815C482.766 496.334 483.947 496.503 485.164 497.188" stroke="#FFFFFF" stroke-width="3" stroke-linecap="round"/>
  <path d="M385.972 483.383C385.551 486.504 384.912 489.968 384.104 493.751C383.38 497.617 382.779 501.051 382.248 504.194C381.97 505.903 381.675 507.843 381.754 510.609" stroke="#FFFFFF" stroke-width="3" stroke-linecap="round"/>
  <path d="M393.77 480.571C393.348 482.68 392.413 486.93 391.158 492.672C390.283 497.149 389.766 500.033 389.3 502.072C389.002 503.183 388.58 504.448 388.145 506.519" stroke="#FFFFFF" stroke-width="3" stroke-linecap="round"/>
  <path d="M431.861 457.818C429.415 458.831 424.864 460.491 417.517 462.934C413.473 464.278 408.735 465.672 402.843 467.465C396.95 469.258 390.032 471.368 382.504 473.846C374.975 476.324 367.045 479.108 359.002 482.105" stroke="#FFFFFF" stroke-width="3" stroke-linecap="round"/>
  <path d="M404.635 459.608C403.662 459.479 400.266 460.495 394.985 462.433C391.939 463.551 387.83 464.799 381.613 466.729C377.884 467.942 372.991 469.629 370.301 470.562C367.612 471.494 367.275 471.621 366.927 471.879" stroke="#FFFFFF" stroke-width="3" stroke-linecap="round"/>
  <path d="M396.326 453.217C396.204 453.256 392.561 454.784 386.678 456.746C383.5 457.806 379.814 458.665 374.639 460.276C371.403 461.298 366.932 462.732 364.46 463.555C361.988 464.378 361.65 464.547 362.07 464.721" stroke="#FFFFFF" stroke-width="3" stroke-linecap="round"/>
  <path d="M388.912 445.419C386.803 446.01 382.891 447.284 377.069 449.324C374.073 450.393 370.994 451.532 368.522 452.372C366.05 453.212 364.278 453.718 362.197 454.239" stroke="#FFFFFF" stroke-width="3" stroke-linecap="round"/>
  <path d="M385.973 437.75C385.045 438.003 382.12 439.019 377.823 440.593C375.972 441.282 374.791 441.746 373.233 442.217C371.676 442.688 369.777 443.152 368.333 444.269" stroke="#FFFFFF" stroke-width="3" stroke-linecap="round"/>
  <path d="M403.74 406.561C402.167 407.411 398.783 410.37 392.86 415.741C390.801 417.608 387.696 419.934 383.073 423.429C378.45 426.925 372.334 431.438 368.635 434.206C364.936 436.974 363.839 437.86 363.084 438.59C362.329 439.321 361.95 439.869 361.942 440.946" stroke="#FFFFFF" stroke-width="3" stroke-linecap="round"/>
  <path d="M390.063 406.817C387.552 409.455 384.758 411.828 377.437 418.444C374.45 421.153 371.039 424.73 367.653 428.606C366.418 430.035 366.165 430.372 365.904 430.72" stroke="#FFFFFF" stroke-width="3" stroke-linecap="round"/>
  <path d="M381.882 403.11C380.011 405.195 377.892 407.481 373.446 411.697C369.739 415.212 366.09 418.69 363.726 420.947C362.839 421.812 362.586 422.107 362.325 422.539" stroke="#FFFFFF" stroke-width="3" stroke-linecap="round"/>
  <path d="M427.004 405.155C428.578 407.836 430.527 409.872 434.595 415.276C435.439 416.398 435.816 416.779 437.72 419.084C439.624 421.389 443.041 425.607 444.991 428.096C446.941 430.586 447.32 431.218 448.971 433.421C453.532 439.379 456.911 443.584 458.013 444.855C458.736 445.788 459.791 447.306 460.366 448.871" stroke="#FFFFFF" stroke-width="3" stroke-linecap="round"/>
  <path d="M415.883 407.839C417.968 409.113 419.074 410.731 421.217 414.018C422.363 415.777 424.491 418.52 427.538 422.612C430.586 426.704 434.551 432.018 437.121 435.389C439.69 438.76 440.745 440.025 443.018 443.018C445.29 446.011 448.749 450.693 450.615 453.295C452.482 455.897 452.65 456.277 452.696 456.668" stroke="#FFFFFF" stroke-width="3" stroke-linecap="round"/>
  <path d="M409.492 413.719C411.96 417.762 413.361 419.675 416.263 423.38C418.389 426.095 421.737 430.587 425.521 435.653C429.306 440.719 433.397 446.245 435.653 449.239C437.908 452.234 438.203 452.529 438.208 452.491C438.212 452.454 437.917 452.074 437.613 451.683" stroke="#FFFFFF" stroke-width="3" stroke-linecap="round"/>
  <path d="M401.95 418.577C403.301 420.734 407.05 425.378 410.17 429.346C412.048 431.734 414.428 434.958 416.827 438.403C421.546 445.432 424.442 449.801 425.314 451.014C425.681 451.551 425.892 451.931 426.62 452.833" stroke="#FFFFFF" stroke-width="3" stroke-linecap="round"/>
  <path d="M395.048 422.283C395.934 423.633 396.82 424.983 399.111 428.041C401.402 431.098 405.072 435.822 408.165 439.901C411.257 443.98 413.662 447.27 415.006 449.155C416.35 451.04 416.561 451.419 417.034 452.578" stroke="#FFFFFF" stroke-width="3" stroke-linecap="round"/>
  <path d="M391.597 429.697C391.85 430.456 393.752 433.21 397.722 438.814C399.922 442.055 402.495 446.105 404.116 448.781C405.736 451.458 406.327 452.639 407.319 454.623" stroke="#FFFFFF" stroke-width="3" stroke-linecap="round"/>
  <path d="M437.357 411.035C438.37 410.36 439.482 409.464 440.693 408.19C442.099 406.711 445.087 403.178 449.617 398.753C455.416 393.698 457.377 392.25 458.799 391.125C459.63 390.505 460.685 389.788 462.283 388.666" stroke="#FFFFFF" stroke-width="3" stroke-linecap="round"/>
  <path d="M441.703 414.87C443.524 413.092 447.904 409.261 453.397 404.956C456.907 402.17 461.884 398.163 464.617 395.993C467.35 393.824 467.687 393.613 467.907 393.651" stroke="#FFFFFF" stroke-width="3" stroke-linecap="round"/>
  <path d="M447.2 421.389C448.133 420.71 450.845 418.423 459.322 410.754C462.456 407.919 466.463 404.291 469.582 401.684C472.701 399.077 474.81 397.601 476.599 396.463" stroke="#FFFFFF" stroke-width="3" stroke-linecap="round"/>
  <path d="M453.719 430.464C454.61 429.062 456.899 427.11 463.923 421.173C467.549 417.7 473.455 411.71 476.919 408.308C480.383 404.906 481.226 404.273 482.095 404.133" stroke="#FFFFFF" stroke-width="3" stroke-linecap="round"/>
  <path d="M460.494 438.517C462.181 436.408 463.345 434.984 464.151 434.156C465.312 432.964 469.281 429.176 474.729 423.559C477.012 421.148 478.32 419.63 479.183 418.637C480.047 417.643 480.426 417.222 481.712 416.915" stroke="#FFFFFF" stroke-width="3" stroke-linecap="round"/>
  <path d="M465.095 446.698C467.474 445.083 470.912 442.791 476.089 439.122C479.282 436.803 483.627 433.555 485.992 431.776C488.356 429.998 488.609 429.787 488.998 429.314" stroke="#FFFFFF" stroke-width="3" stroke-linecap="round"/>
</svg>
