<svg xmlns="http://www.w3.org/2000/svg" viewBox="278 508 92 92" fill="none">
  <path d="M276.427 566.226C276.903 566.362 277.995 566.363 279.262 566.141C280.379 565.945 281.756 566.123 283.333 566.14C284.572 566.153 285.864 566.464 287.437 566.874C289.711 567.467 291.64 568.921 293.289 570.377C294.376 571.337 294.627 572.786 295.071 574.329C295.512 575.861 296.029 577.674 296.508 579.188C296.956 580.606 297.298 581.853 297.212 583.156C297.122 584.522 296.306 585.959 295.793 588.029C295.378 589.707 294.362 592.113 293.161 593.592C292.273 594.686 290.601 595.404 287.645 596.602C283.402 598.322 279.728 596.545 277.903 595.379C277.322 594.833 276.874 594.249 276.363 593.702C276.022 593.461 275.514 593.291 274.99 593.117" stroke="#FFFFFF" stroke-width="4" stroke-linecap="round"/>
  <path d="M367.672 568.073C366.923 568.619 365.287 569.098 363.896 569.288C361.948 569.554 357.363 568.047 354.255 566.795C352.328 566.019 349.555 565.069 346.872 563.942C342.601 562.147 337.505 560.889 335.657 561.262C332.514 561.898 331.205 565.399 330.622 566.851C329.4 569.898 329.696 571.317 329.934 572.704C330.065 573.464 330.481 574.16 331.957 575.909C333.197 577.379 335.702 579.793 339.16 582.692C342.618 585.592 347.021 588.843 350.492 591.179C356.233 595.042 359.184 596.433 359.883 596.962C361.752 598.374 363.868 599.749 365.357 600.725C366.747 601.637 368.245 602.962 369.907 604.862C370.236 605.26 370.439 605.497 370.645 605.704C370.852 605.911 371.055 606.08 370.956 606.357" stroke="#FFFFFF" stroke-width="4" stroke-linecap="round"/>
  <path d="M367.672 556.167C366.205 555.826 363.688 555.35 361.827 554.852C361.516 554.768 361.212 554.698 358.43 553.884C355.648 553.07 350.398 551.512 344.595 550.049C338.791 548.586 332.593 547.265 327.249 545.941C321.905 544.617 317.604 543.329 314.49 542.582C311.377 541.834 309.582 541.665 307.539 541.662C305.497 541.66 303.261 541.829 300.687 542.306C298.113 542.782 295.268 543.561 290.737 545.267C286.206 546.972 280.075 549.58 275.562 551.144C271.049 552.707 268.34 553.148 265.445 553.601" stroke="#FFFFFF" stroke-width="4" stroke-linecap="round"/>
  <path d="M270.782 536.358C273.406 537.005 277.029 538.099 280.434 538.564C282.009 538.779 285.026 538.311 288.752 537.731C290.953 537.388 292.295 536.398 293.44 535.357C295.234 533.724 295.653 530.925 295.383 529.385C295.232 528.524 294.563 527.707 292.983 525.888C287.251 519.29 286.488 517.516 286.213 515.428C285.882 512.915 287.775 509.28 289.676 506.961C290.342 506.329 291.324 505.448 292.135 504.791C292.946 504.134 293.555 503.728 294.492 503.206" stroke="#FFFFFF" stroke-width="4" stroke-linecap="round"/>
  <path d="M309.477 505.978C309.41 506.794 308.66 509.18 307.804 512.72C307.35 514.596 307.047 516.437 307.183 518.06C307.417 520.85 310.965 524.434 313.114 526.38C313.972 527.158 315.658 528.105 319.028 530.048C321.275 531.344 324.903 532.735 327.819 533.741C332.816 535.463 336.457 535.775 339.237 535.93C340.695 536.011 342.255 535.847 344.785 535.524C347.315 535.201 350.77 534.659 353.684 534.447C358.855 534.072 362.629 534.782 365.106 535.328C366.848 535.712 369.093 537.237 372.403 539.353C375.78 541.334 378.101 542.514 379.465 543.076C380.252 543.435 381.235 543.943 382.555 544.261" stroke="#FFFFFF" stroke-width="4" stroke-linecap="round"/>
  <path d="M372.085 518.089C369.904 518.225 367.101 518.159 362.288 518.327C359.514 518.424 357.314 518.942 354.473 519.487C352.459 519.874 349.228 520.168 346.046 520.343C339.824 520.685 335.592 520.178 333.662 519.649C330.158 518.689 327.104 515.599 325.766 513.734C324.593 512.098 325.008 509.412 325.741 507.336C326.518 505.138 330.018 503.048 333.721 501.193C336.328 500.47 338.648 500.57 341.308 500.963C342.815 501.119 344.644 501.186 346.734 501.154" stroke="#FFFFFF" stroke-width="4" stroke-linecap="round"/>
  <path d="M310.169 602.594C310.465 603.047 310.928 603.364 311.458 603.475C311.987 603.586 312.539 603.482 312.992 603.187C313.445 602.891 313.762 602.427 313.873 601.897C313.984 601.368 313.88 600.816 313.584 600.363C313.584 600.363 313.584 600.363 313.584 600.363C312.935 599.277 312.256 597.272 311.675 595.565C311.492 595.022 311.313 594.473 311.135 593.923C311.135 593.922 311.134 593.921 311.134 593.92C309.763 589.714 308.352 585.568 307.079 581.461C307.078 581.457 307.076 581.453 307.075 581.45C306.44 579.33 305.871 577.492 305.878 575.57C305.877 575.564 305.877 575.558 305.877 575.552C305.84 573.684 305.921 571.735 306.182 569.919C306.183 569.912 306.184 569.905 306.185 569.899C306.477 567.928 306.987 565.872 307.781 564.485C307.783 564.481 307.785 564.478 307.787 564.474C308.311 563.594 309.281 562.762 310.293 561.921C310.297 561.917 310.302 561.913 310.307 561.909C311.276 561.103 312.41 560.493 313.57 560.2C313.573 560.199 313.577 560.198 313.581 560.197C314.998 559.84 316.446 560.009 317.997 560.629C317.997 560.629 317.997 560.629 317.997 560.63C318.745 560.873 319.784 562.055 320.514 563.526C320.515 563.529 320.517 563.532 320.518 563.534C321.089 564.578 320.955 565.743 320.592 567.541C320.591 567.543 320.591 567.544 320.591 567.546C320.45 568.195 319.629 569.528 319.091 570.707C319.09 570.71 319.089 570.713 319.087 570.716C318.073 572.911 317.015 575.149 316.038 577.551C316.037 577.554 316.037 577.556 316.036 577.558C315.12 579.838 314.437 582.49 314.685 585.227C314.685 585.232 314.685 585.236 314.686 585.241C314.862 587.169 315.703 588.612 316.345 589.751C316.349 589.756 316.352 589.761 316.355 589.767C317.375 591.472 318.607 592.525 319.701 593.562C319.705 593.566 319.709 593.569 319.712 593.573C320.995 594.719 322.028 595.658 323.183 596.47C323.185 596.472 323.188 596.474 323.191 596.476C324.895 597.646 326.604 598.686 328.216 599.818C328.218 599.82 328.219 599.821 328.221 599.822C329.689 600.85 331.128 601.97 332.698 603.078C332.801 603.15 332.904 603.222 333.008 603.294C333.009 603.294 333.01 603.295 333.01 603.295C334.143 604.083 335.455 604.708 336.513 605.28C336.514 605.28 336.514 605.281 336.514 605.281C336.684 605.374 336.848 605.463 336.942 605.508C336.988 605.53 337.01 605.535 337.003 605.51C336.998 605.487 336.976 605.429 337.024 605.482C337.31 605.853 337.756 606.104 338.24 606.192C338.725 606.28 339.208 606.2 339.607 605.953C340.005 605.707 340.293 605.311 340.431 604.838C340.568 604.365 340.544 603.854 340.34 603.432C340.34 603.432 340.34 603.432 340.34 603.432C340.268 603.291 340.115 603.045 339.956 602.853C339.797 602.658 339.648 602.509 339.519 602.386C339.26 602.141 339.05 601.97 338.84 601.808C338.839 601.807 338.839 601.807 338.839 601.807C337.687 600.939 336.749 600.179 335.729 599.438C335.728 599.438 335.727 599.437 335.726 599.437C335.634 599.37 335.542 599.303 335.449 599.235C334.022 598.19 332.55 597.042 331.016 595.923C331.014 595.922 331.012 595.92 331.01 595.919C329.329 594.69 327.655 593.496 326.02 592.372C326.017 592.37 326.014 592.368 326.011 592.366C324.868 591.574 323.538 590.987 322.725 590.267C322.723 590.265 322.72 590.262 322.718 590.26C321.663 589.307 320.68 588.356 320.192 587.522C320.19 587.519 320.189 587.517 320.187 587.514C319.539 586.436 319.077 585.546 319.034 584.874C319.033 584.873 319.033 584.871 319.033 584.87C318.865 583.052 319.373 581.175 320.182 579.266C320.183 579.264 320.183 579.263 320.184 579.261C321.105 577.116 322.254 574.94 323.308 572.664C323.309 572.661 323.311 572.657 323.312 572.654C323.857 571.382 324.362 570.344 324.83 568.37C324.831 568.364 324.832 568.358 324.833 568.353C325.168 566.604 325.552 563.856 324.303 561.605C324.3 561.6 324.297 561.595 324.295 561.59C323.363 559.874 322.333 557.693 319.628 556.517C319.627 556.517 319.626 556.517 319.626 556.516C317.556 555.653 314.921 555.263 312.513 555.886C312.507 555.887 312.501 555.889 312.495 555.891C310.604 556.364 308.897 557.268 307.45 558.469C307.444 558.473 307.438 558.478 307.433 558.483C306.235 559.492 305.072 560.68 304.103 562.285C304.099 562.292 304.095 562.298 304.091 562.305C302.756 564.713 302.319 566.972 301.95 569.272C301.948 569.279 301.947 569.287 301.946 569.295C301.64 571.447 301.526 573.517 301.566 575.653C301.566 575.66 301.566 575.666 301.566 575.673C301.564 578.192 302.344 580.627 302.996 582.722C302.997 582.725 302.998 582.729 302.999 582.733C304.357 586.966 305.912 591.065 307.251 595.173C307.252 595.174 307.252 595.175 307.252 595.177C307.434 595.739 307.618 596.302 307.807 596.863C308.474 598.73 308.9 600.401 310.169 602.594Z" fill="#FFFFFF"/>
</svg>
