<svg width="338" height="500" viewBox="0 0 338 500" fill="none" xmlns="http://www.w3.org/2000/svg">
<g opacity="0.5">
<rect width="135" height="48" transform="translate(101.5 396)" fill="#ACCC6E" fill-opacity="0.5"/>
<g filter="url(#filter1_d_16313_16818)">
<mask id="path-1-outside-1_16313_16818" maskUnits="userSpaceOnUse" x="110.5" y="405" width="117" height="29" fill="black">
<rect fill="white" x="110.5" y="405" width="117" height="29"/>
<path d="M124.575 424.44H129.055V429.016L125.343 431.16H116.287L112.575 429.016V410.584L116.287 408.44H125.343L129.055 410.584V415.16H124.575V412.28H117.055V427.32H124.575V424.44ZM146.809 429.016L143.097 431.16H136.281L132.569 429.016V416.984L136.281 414.84H143.097L146.809 416.984V429.016ZM136.953 418.584V427.416H142.425V418.584H136.953ZM160.208 418.744H154.704V431H150.32V415H153.936L154.704 416.312L156.976 415H160.208V418.744ZM172.022 418.744H166.518V431H162.134V415H165.75L166.518 416.312L168.79 415H172.022V418.744ZM187.228 427.256V431H177.66L173.948 428.856V416.984L177.66 414.84H183.516L187.228 416.984V424.632H178.332V427.256H187.228ZM178.332 418.584V421.336H182.844V418.584H178.332ZM195.145 418.744V427.256H203.081V431H194.473L190.761 428.856V417.144L194.473 415H203.081V418.744H195.145ZM204.67 418.744V415H207.614V412.312L211.998 409.784V415H215.518V418.744H211.998V427.256H215.518V431H211.326L207.614 428.856V418.744H204.67ZM219.029 431V424.92H225.109V431H219.029ZM220.149 421.784L219.317 407.64H224.821L223.989 421.784H220.149Z"/>
</mask>
<path d="M124.575 424.44H129.055V429.016L125.343 431.16H116.287L112.575 429.016V410.584L116.287 408.44H125.343L129.055 410.584V415.16H124.575V412.28H117.055V427.32H124.575V424.44ZM146.809 429.016L143.097 431.16H136.281L132.569 429.016V416.984L136.281 414.84H143.097L146.809 416.984V429.016ZM136.953 418.584V427.416H142.425V418.584H136.953ZM160.208 418.744H154.704V431H150.32V415H153.936L154.704 416.312L156.976 415H160.208V418.744ZM172.022 418.744H166.518V431H162.134V415H165.75L166.518 416.312L168.79 415H172.022V418.744ZM187.228 427.256V431H177.66L173.948 428.856V416.984L177.66 414.84H183.516L187.228 416.984V424.632H178.332V427.256H187.228ZM178.332 418.584V421.336H182.844V418.584H178.332ZM195.145 418.744V427.256H203.081V431H194.473L190.761 428.856V417.144L194.473 415H203.081V418.744H195.145ZM204.67 418.744V415H207.614V412.312L211.998 409.784V415H215.518V418.744H211.998V427.256H215.518V431H211.326L207.614 428.856V418.744H204.67ZM219.029 431V424.92H225.109V431H219.029ZM220.149 421.784L219.317 407.64H224.821L223.989 421.784H220.149Z" fill="white"/>
<path d="M124.575 424.44V422.44H122.575V424.44H124.575ZM129.055 424.44H131.055V422.44H129.055V424.44ZM129.055 429.016L130.055 430.748L131.055 430.17V429.016H129.055ZM125.343 431.16V433.16H125.879L126.343 432.892L125.343 431.16ZM116.287 431.16L115.287 432.892L115.751 433.16H116.287V431.16ZM112.575 429.016H110.575V430.17L111.575 430.748L112.575 429.016ZM112.575 410.584L111.575 408.852L110.575 409.43V410.584H112.575ZM116.287 408.44V406.44H115.751L115.287 406.708L116.287 408.44ZM125.343 408.44L126.343 406.708L125.879 406.44H125.343V408.44ZM129.055 410.584H131.055V409.43L130.055 408.852L129.055 410.584ZM129.055 415.16V417.16H131.055V415.16H129.055ZM124.575 415.16H122.575V417.16H124.575V415.16ZM124.575 412.28H126.575V410.28H124.575V412.28ZM117.055 412.28V410.28H115.055V412.28H117.055ZM117.055 427.32H115.055V429.32H117.055V427.32ZM124.575 427.32V429.32H126.575V427.32H124.575ZM124.575 424.44V426.44H129.055V424.44V422.44H124.575V424.44ZM129.055 424.44H127.055V429.016H129.055H131.055V424.44H129.055ZM129.055 429.016L128.055 427.284L124.343 429.428L125.343 431.16L126.343 432.892L130.055 430.748L129.055 429.016ZM125.343 431.16V429.16H116.287V431.16V433.16H125.343V431.16ZM116.287 431.16L117.287 429.428L113.575 427.284L112.575 429.016L111.575 430.748L115.287 432.892L116.287 431.16ZM112.575 429.016H114.575V410.584H112.575H110.575V429.016H112.575ZM112.575 410.584L113.575 412.316L117.287 410.172L116.287 408.44L115.287 406.708L111.575 408.852L112.575 410.584ZM116.287 408.44V410.44H125.343V408.44V406.44H116.287V408.44ZM125.343 408.44L124.343 410.172L128.055 412.316L129.055 410.584L130.055 408.852L126.343 406.708L125.343 408.44ZM129.055 410.584H127.055V415.16H129.055H131.055V410.584H129.055ZM129.055 415.16V413.16H124.575V415.16V417.16H129.055V415.16ZM124.575 415.16H126.575V412.28H124.575H122.575V415.16H124.575ZM124.575 412.28V410.28H117.055V412.28V414.28H124.575V412.28ZM117.055 412.28H115.055V427.32H117.055H119.055V412.28H117.055ZM117.055 427.32V429.32H124.575V427.32V425.32H117.055V427.32ZM124.575 427.32H126.575V424.44H124.575H122.575V427.32H124.575ZM146.809 429.016L147.809 430.748L148.809 430.17V429.016H146.809ZM143.097 431.16V433.16H143.633L144.097 432.892L143.097 431.16ZM136.281 431.16L135.28 432.892L135.745 433.16H136.281V431.16ZM132.569 429.016H130.569V430.17L131.568 430.748L132.569 429.016ZM132.569 416.984L131.568 415.252L130.569 415.83V416.984H132.569ZM136.281 414.84V412.84H135.745L135.28 413.108L136.281 414.84ZM143.097 414.84L144.097 413.108L143.633 412.84H143.097V414.84ZM146.809 416.984H148.809V415.83L147.809 415.252L146.809 416.984ZM136.953 418.584V416.584H134.953V418.584H136.953ZM136.953 427.416H134.953V429.416H136.953V427.416ZM142.425 427.416V429.416H144.425V427.416H142.425ZM142.425 418.584H144.425V416.584H142.425V418.584ZM146.809 429.016L145.808 427.284L142.096 429.428L143.097 431.16L144.097 432.892L147.809 430.748L146.809 429.016ZM143.097 431.16V429.16H136.281V431.16V433.16H143.097V431.16ZM136.281 431.16L137.281 429.428L133.569 427.284L132.569 429.016L131.568 430.748L135.28 432.892L136.281 431.16ZM132.569 429.016H134.569V416.984H132.569H130.569V429.016H132.569ZM132.569 416.984L133.569 418.716L137.281 416.572L136.281 414.84L135.28 413.108L131.568 415.252L132.569 416.984ZM136.281 414.84V416.84H143.097V414.84V412.84H136.281V414.84ZM143.097 414.84L142.096 416.572L145.808 418.716L146.809 416.984L147.809 415.252L144.097 413.108L143.097 414.84ZM146.809 416.984H144.809V429.016H146.809H148.809V416.984H146.809ZM136.953 418.584H134.953V427.416H136.953H138.953V418.584H136.953ZM136.953 427.416V429.416H142.425V427.416V425.416H136.953V427.416ZM142.425 427.416H144.425V418.584H142.425H140.425V427.416H142.425ZM142.425 418.584V416.584H136.953V418.584V420.584H142.425V418.584ZM160.208 418.744V420.744H162.208V418.744H160.208ZM154.704 418.744V416.744H152.704V418.744H154.704ZM154.704 431V433H156.704V431H154.704ZM150.32 431H148.32V433H150.32V431ZM150.32 415V413H148.32V415H150.32ZM153.936 415L155.662 413.99L155.083 413H153.936V415ZM154.704 416.312L152.978 417.322L153.982 419.038L155.704 418.044L154.704 416.312ZM156.976 415V413H156.44L155.976 413.268L156.976 415ZM160.208 415H162.208V413H160.208V415ZM160.208 418.744V416.744H154.704V418.744V420.744H160.208V418.744ZM154.704 418.744H152.704V431H154.704H156.704V418.744H154.704ZM154.704 431V429H150.32V431V433H154.704V431ZM150.32 431H152.32V415H150.32H148.32V431H150.32ZM150.32 415V417H153.936V415V413H150.32V415ZM153.936 415L152.21 416.01L152.978 417.322L154.704 416.312L156.43 415.302L155.662 413.99L153.936 415ZM154.704 416.312L155.704 418.044L157.976 416.732L156.976 415L155.976 413.268L153.704 414.58L154.704 416.312ZM156.976 415V417H160.208V415V413H156.976V415ZM160.208 415H158.208V418.744H160.208H162.208V415H160.208ZM172.022 418.744V420.744H174.022V418.744H172.022ZM166.518 418.744V416.744H164.518V418.744H166.518ZM166.518 431V433H168.518V431H166.518ZM162.134 431H160.134V433H162.134V431ZM162.134 415V413H160.134V415H162.134ZM165.75 415L167.476 413.99L166.896 413H165.75V415ZM166.518 416.312L164.792 417.322L165.796 419.038L167.518 418.044L166.518 416.312ZM168.79 415V413H168.254L167.79 413.268L168.79 415ZM172.022 415H174.022V413H172.022V415ZM172.022 418.744V416.744H166.518V418.744V420.744H172.022V418.744ZM166.518 418.744H164.518V431H166.518H168.518V418.744H166.518ZM166.518 431V429H162.134V431V433H166.518V431ZM162.134 431H164.134V415H162.134H160.134V431H162.134ZM162.134 415V417H165.75V415V413H162.134V415ZM165.75 415L164.024 416.01L164.792 417.322L166.518 416.312L168.244 415.302L167.476 413.99L165.75 415ZM166.518 416.312L167.518 418.044L169.79 416.732L168.79 415L167.79 413.268L165.518 414.58L166.518 416.312ZM168.79 415V417H172.022V415V413H168.79V415ZM172.022 415H170.022V418.744H172.022H174.022V415H172.022ZM187.228 427.256H189.228V425.256H187.228V427.256ZM187.228 431V433H189.228V431H187.228ZM177.66 431L176.659 432.732L177.123 433H177.66V431ZM173.948 428.856H171.948V430.01L172.947 430.588L173.948 428.856ZM173.948 416.984L172.947 415.252L171.948 415.83V416.984H173.948ZM177.66 414.84V412.84H177.123L176.659 413.108L177.66 414.84ZM183.516 414.84L184.516 413.108L184.052 412.84H183.516V414.84ZM187.228 416.984H189.228V415.83L188.228 415.252L187.228 416.984ZM187.228 424.632V426.632H189.228V424.632H187.228ZM178.331 424.632V422.632H176.331V424.632H178.331ZM178.331 427.256H176.331V429.256H178.331V427.256ZM178.331 418.584V416.584H176.331V418.584H178.331ZM178.331 421.336H176.331V423.336H178.331V421.336ZM182.843 421.336V423.336H184.843V421.336H182.843ZM182.843 418.584H184.843V416.584H182.843V418.584ZM187.228 427.256H185.228V431H187.228H189.228V427.256H187.228ZM187.228 431V429H177.66V431V433H187.228V431ZM177.66 431L178.66 429.268L174.948 427.124L173.948 428.856L172.947 430.588L176.659 432.732L177.66 431ZM173.948 428.856H175.948V416.984H173.948H171.948V428.856H173.948ZM173.948 416.984L174.948 418.716L178.66 416.572L177.66 414.84L176.659 413.108L172.947 415.252L173.948 416.984ZM177.66 414.84V416.84H183.516V414.84V412.84H177.66V414.84ZM183.516 414.84L182.515 416.572L186.227 418.716L187.228 416.984L188.228 415.252L184.516 413.108L183.516 414.84ZM187.228 416.984H185.228V424.632H187.228H189.228V416.984H187.228ZM187.228 424.632V422.632H178.331V424.632V426.632H187.228V424.632ZM178.331 424.632H176.331V427.256H178.331H180.331V424.632H178.331ZM178.331 427.256V429.256H187.228V427.256V425.256H178.331V427.256ZM178.331 418.584H176.331V421.336H178.331H180.331V418.584H178.331ZM178.331 421.336V423.336H182.843V421.336V419.336H178.331V421.336ZM182.843 421.336H184.843V418.584H182.843H180.843V421.336H182.843ZM182.843 418.584V416.584H178.331V418.584V420.584H182.843V418.584ZM195.145 418.744V416.744H193.145V418.744H195.145ZM195.145 427.256H193.145V429.256H195.145V427.256ZM203.081 427.256H205.081V425.256H203.081V427.256ZM203.081 431V433H205.081V431H203.081ZM194.473 431L193.473 432.732L193.937 433H194.473V431ZM190.761 428.856H188.761V430.01L189.761 430.588L190.761 428.856ZM190.761 417.144L189.761 415.412L188.761 415.99V417.144H190.761ZM194.473 415V413H193.937L193.473 413.268L194.473 415ZM203.081 415H205.081V413H203.081V415ZM203.081 418.744V420.744H205.081V418.744H203.081ZM195.145 418.744H193.145V427.256H195.145H197.145V418.744H195.145ZM195.145 427.256V429.256H203.081V427.256V425.256H195.145V427.256ZM203.081 427.256H201.081V431H203.081H205.081V427.256H203.081ZM203.081 431V429H194.473V431V433H203.081V431ZM194.473 431L195.474 429.268L191.762 427.124L190.761 428.856L189.761 430.588L193.473 432.732L194.473 431ZM190.761 428.856H192.761V417.144H190.761H188.761V428.856H190.761ZM190.761 417.144L191.762 418.876L195.474 416.732L194.473 415L193.473 413.268L189.761 415.412L190.761 417.144ZM194.473 415V417H203.081V415V413H194.473V415ZM203.081 415H201.081V418.744H203.081H205.081V415H203.081ZM203.081 418.744V416.744H195.145V418.744V420.744H203.081V418.744ZM204.67 418.744H202.67V420.744H204.67V418.744ZM204.67 415V413H202.67V415H204.67ZM207.614 415V417H209.614V415H207.614ZM207.614 412.312L206.615 410.579L205.614 411.157V412.312H207.614ZM211.998 409.784H213.998V406.322L210.999 408.051L211.998 409.784ZM211.998 415H209.998V417H211.998V415ZM215.518 415H217.518V413H215.518V415ZM215.518 418.744V420.744H217.518V418.744H215.518ZM211.998 418.744V416.744H209.998V418.744H211.998ZM211.998 427.256H209.998V429.256H211.998V427.256ZM215.518 427.256H217.518V425.256H215.518V427.256ZM215.518 431V433H217.518V431H215.518ZM211.326 431L210.326 432.732L210.79 433H211.326V431ZM207.614 428.856H205.614V430.01L206.614 430.588L207.614 428.856ZM207.614 418.744H209.614V416.744H207.614V418.744ZM204.67 418.744H206.67V415H204.67H202.67V418.744H204.67ZM204.67 415V417H207.614V415V413H204.67V415ZM207.614 415H209.614V412.312H207.614H205.614V415H207.614ZM207.614 412.312L208.613 414.045L212.997 411.517L211.998 409.784L210.999 408.051L206.615 410.579L207.614 412.312ZM211.998 409.784H209.998V415H211.998H213.998V409.784H211.998ZM211.998 415V417H215.518V415V413H211.998V415ZM215.518 415H213.518V418.744H215.518H217.518V415H215.518ZM215.518 418.744V416.744H211.998V418.744V420.744H215.518V418.744ZM211.998 418.744H209.998V427.256H211.998H213.998V418.744H211.998ZM211.998 427.256V429.256H215.518V427.256V425.256H211.998V427.256ZM215.518 427.256H213.518V431H215.518H217.518V427.256H215.518ZM215.518 431V429H211.326V431V433H215.518V431ZM211.326 431L212.326 429.268L208.614 427.124L207.614 428.856L206.614 430.588L210.326 432.732L211.326 431ZM207.614 428.856H209.614V418.744H207.614H205.614V428.856H207.614ZM207.614 418.744V416.744H204.67V418.744V420.744H207.614V418.744ZM219.029 431H217.029V433H219.029V431ZM219.029 424.92V422.92H217.029V424.92H219.029ZM225.109 424.92H227.109V422.92H225.109V424.92ZM225.109 431V433H227.109V431H225.109ZM220.149 421.784L218.152 421.901L218.263 423.784H220.149V421.784ZM219.317 407.64V405.64H217.196L217.32 407.757L219.317 407.64ZM224.821 407.64L226.817 407.757L226.942 405.64H224.821V407.64ZM223.989 421.784V423.784H225.875L225.985 421.901L223.989 421.784ZM219.029 431H221.029V424.92H219.029H217.029V431H219.029ZM219.029 424.92V426.92H225.109V424.92V422.92H219.029V424.92ZM225.109 424.92H223.109V431H225.109H227.109V424.92H225.109ZM225.109 431V429H219.029V431V433H225.109V431ZM220.149 421.784L222.145 421.667L221.313 407.523L219.317 407.64L217.32 407.757L218.152 421.901L220.149 421.784ZM219.317 407.64V409.64H224.821V407.64V405.64H219.317V407.64ZM224.821 407.64L222.824 407.523L221.992 421.667L223.989 421.784L225.985 421.901L226.817 407.757L224.821 407.64ZM223.989 421.784V419.784H220.149V421.784V423.784H223.989V421.784Z" fill="#353859" mask="url(#path-1-outside-1_16313_16818)"/>
</g>
<rect width="126" height="48" transform="translate(106 452)" fill="#ACCC6E" fill-opacity="0.5"/>
<g filter="url(#filter3_d_16313_16818)">
<mask id="path-3-outside-2_16313_16818" maskUnits="userSpaceOnUse" x="111" y="462" width="113" height="28" fill="black">
<rect fill="white" x="111" y="462" width="113" height="28"/>
<path d="M114.906 487L122.138 475.544L115.226 464.6H120.282L124.666 471.544L129.082 464.6H134.138L127.194 475.544L134.458 487H129.402L124.666 479.544L119.962 487H114.906ZM136.702 487V464.6H148.51L152.222 466.744V476.728L148.51 478.872H141.182V487H136.702ZM141.182 468.44V475.032H147.742V468.44H141.182ZM161.174 476.536H167.35V470.36H171.638V476.536H177.814V480.824H171.638V487H167.35V480.824H161.174V476.536ZM187.738 472.088V467.896L193.498 464.6H197.338V483.16H202.458V487H187.738V483.16H192.858V469.144L187.738 472.088ZM221.181 485.016L217.469 487.16H208.733L205.021 485.016V466.584L208.733 464.44H217.469L221.181 466.584V485.016ZM209.501 468.28V483.32H216.701V468.28H209.501Z"/>
</mask>
<path d="M114.906 487L122.138 475.544L115.226 464.6H120.282L124.666 471.544L129.082 464.6H134.138L127.194 475.544L134.458 487H129.402L124.666 479.544L119.962 487H114.906ZM136.702 487V464.6H148.51L152.222 466.744V476.728L148.51 478.872H141.182V487H136.702ZM141.182 468.44V475.032H147.742V468.44H141.182ZM161.174 476.536H167.35V470.36H171.638V476.536H177.814V480.824H171.638V487H167.35V480.824H161.174V476.536ZM187.738 472.088V467.896L193.498 464.6H197.338V483.16H202.458V487H187.738V483.16H192.858V469.144L187.738 472.088ZM221.181 485.016L217.469 487.16H208.733L205.021 485.016V466.584L208.733 464.44H217.469L221.181 466.584V485.016ZM209.501 468.28V483.32H216.701V468.28H209.501Z" fill="white"/>
<path d="M114.906 487L113.214 485.932L111.278 489H114.906V487ZM122.138 475.544L123.829 476.612L124.503 475.544L123.829 474.476L122.138 475.544ZM115.226 464.6V462.6H111.597L113.535 465.668L115.226 464.6ZM120.282 464.6L121.973 463.532L121.384 462.6H120.282V464.6ZM124.666 471.544L122.974 472.612L124.659 475.281L126.353 472.617L124.666 471.544ZM129.082 464.6V462.6H127.983L127.394 463.527L129.082 464.6ZM134.138 464.6L135.826 465.672L137.775 462.6H134.138V464.6ZM127.194 475.544L125.505 474.472L124.825 475.544L125.505 476.615L127.194 475.544ZM134.458 487V489H138.094L136.147 485.929L134.458 487ZM129.402 487L127.713 488.072L128.303 489H129.402V487ZM124.666 479.544L126.354 478.472L124.66 475.805L122.974 478.477L124.666 479.544ZM119.962 487V489H121.065L121.653 488.067L119.962 487ZM114.906 487L116.597 488.068L123.829 476.612L122.138 475.544L120.446 474.476L113.214 485.932L114.906 487ZM122.138 475.544L123.829 474.476L116.917 463.532L115.226 464.6L113.535 465.668L120.447 476.612L122.138 475.544ZM115.226 464.6V466.6H120.282V464.6V462.6H115.226V464.6ZM120.282 464.6L118.59 465.668L122.974 472.612L124.666 471.544L126.357 470.476L121.973 463.532L120.282 464.6ZM124.666 471.544L126.353 472.617L130.769 465.673L129.082 464.6L127.394 463.527L122.978 470.471L124.666 471.544ZM129.082 464.6V466.6H134.138V464.6V462.6H129.082V464.6ZM134.138 464.6L132.449 463.528L125.505 474.472L127.194 475.544L128.882 476.616L135.826 465.672L134.138 464.6ZM127.194 475.544L125.505 476.615L132.769 488.071L134.458 487L136.147 485.929L128.883 474.473L127.194 475.544ZM134.458 487V485H129.402V487V489H134.458V487ZM129.402 487L131.09 485.928L126.354 478.472L124.666 479.544L122.977 480.616L127.713 488.072L129.402 487ZM124.666 479.544L122.974 478.477L118.27 485.933L119.962 487L121.653 488.067L126.357 480.611L124.666 479.544ZM119.962 487V485H114.906V487V489H119.962V487ZM136.702 487H134.702V489H136.702V487ZM136.702 464.6V462.6H134.702V464.6H136.702ZM148.51 464.6L149.51 462.868L149.046 462.6H148.51V464.6ZM152.222 466.744H154.222V465.59L153.222 465.012L152.222 466.744ZM152.222 476.728L153.222 478.46L154.222 477.882V476.728H152.222ZM148.51 478.872V480.872H149.046L149.51 480.604L148.51 478.872ZM141.182 478.872V476.872H139.182V478.872H141.182ZM141.182 487V489H143.182V487H141.182ZM141.182 468.44V466.44H139.182V468.44H141.182ZM141.182 475.032H139.182V477.032H141.182V475.032ZM147.742 475.032V477.032H149.742V475.032H147.742ZM147.742 468.44H149.742V466.44H147.742V468.44ZM136.702 487H138.702V464.6H136.702H134.702V487H136.702ZM136.702 464.6V466.6H148.51V464.6V462.6H136.702V464.6ZM148.51 464.6L147.51 466.332L151.222 468.476L152.222 466.744L153.222 465.012L149.51 462.868L148.51 464.6ZM152.222 466.744H150.222V476.728H152.222H154.222V466.744H152.222ZM152.222 476.728L151.222 474.996L147.51 477.14L148.51 478.872L149.51 480.604L153.222 478.46L152.222 476.728ZM148.51 478.872V476.872H141.182V478.872V480.872H148.51V478.872ZM141.182 478.872H139.182V487H141.182H143.182V478.872H141.182ZM141.182 487V485H136.702V487V489H141.182V487ZM141.182 468.44H139.182V475.032H141.182H143.182V468.44H141.182ZM141.182 475.032V477.032H147.742V475.032V473.032H141.182V475.032ZM147.742 475.032H149.742V468.44H147.742H145.742V475.032H147.742ZM147.742 468.44V466.44H141.182V468.44V470.44H147.742V468.44ZM161.174 476.536V474.536H159.174V476.536H161.174ZM167.35 476.536V478.536H169.35V476.536H167.35ZM167.35 470.36V468.36H165.35V470.36H167.35ZM171.638 470.36H173.638V468.36H171.638V470.36ZM171.638 476.536H169.638V478.536H171.638V476.536ZM177.814 476.536H179.814V474.536H177.814V476.536ZM177.814 480.824V482.824H179.814V480.824H177.814ZM171.638 480.824V478.824H169.638V480.824H171.638ZM171.638 487V489H173.638V487H171.638ZM167.35 487H165.35V489H167.35V487ZM167.35 480.824H169.35V478.824H167.35V480.824ZM161.174 480.824H159.174V482.824H161.174V480.824ZM161.174 476.536V478.536H167.35V476.536V474.536H161.174V476.536ZM167.35 476.536H169.35V470.36H167.35H165.35V476.536H167.35ZM167.35 470.36V472.36H171.638V470.36V468.36H167.35V470.36ZM171.638 470.36H169.638V476.536H171.638H173.638V470.36H171.638ZM171.638 476.536V478.536H177.814V476.536V474.536H171.638V476.536ZM177.814 476.536H175.814V480.824H177.814H179.814V476.536H177.814ZM177.814 480.824V478.824H171.638V480.824V482.824H177.814V480.824ZM171.638 480.824H169.638V487H171.638H173.638V480.824H171.638ZM171.638 487V485H167.35V487V489H171.638V487ZM167.35 487H169.35V480.824H167.35H165.35V487H167.35ZM167.35 480.824V478.824H161.174V480.824V482.824H167.35V480.824ZM161.174 480.824H163.174V476.536H161.174H159.174V480.824H161.174ZM187.738 472.088H185.738V475.545L188.735 473.822L187.738 472.088ZM187.738 467.896L186.745 466.16L185.738 466.736V467.896H187.738ZM193.498 464.6V462.6H192.966L192.505 462.864L193.498 464.6ZM197.338 464.6H199.338V462.6H197.338V464.6ZM197.338 483.16H195.338V485.16H197.338V483.16ZM202.458 483.16H204.458V481.16H202.458V483.16ZM202.458 487V489H204.458V487H202.458ZM187.738 487H185.738V489H187.738V487ZM187.738 483.16V481.16H185.738V483.16H187.738ZM192.858 483.16V485.16H194.858V483.16H192.858ZM192.858 469.144H194.858V465.687L191.861 467.41L192.858 469.144ZM187.738 472.088H189.738V467.896H187.738H185.738V472.088H187.738ZM187.738 467.896L188.731 469.632L194.491 466.336L193.498 464.6L192.505 462.864L186.745 466.16L187.738 467.896ZM193.498 464.6V466.6H197.338V464.6V462.6H193.498V464.6ZM197.338 464.6H195.338V483.16H197.338H199.338V464.6H197.338ZM197.338 483.16V485.16H202.458V483.16V481.16H197.338V483.16ZM202.458 483.16H200.458V487H202.458H204.458V483.16H202.458ZM202.458 487V485H187.738V487V489H202.458V487ZM187.738 487H189.738V483.16H187.738H185.738V487H187.738ZM187.738 483.16V485.16H192.858V483.16V481.16H187.738V483.16ZM192.858 483.16H194.858V469.144H192.858H190.858V483.16H192.858ZM192.858 469.144L191.861 467.41L186.741 470.354L187.738 472.088L188.735 473.822L193.855 470.878L192.858 469.144ZM221.181 485.016L222.181 486.748L223.181 486.17V485.016H221.181ZM217.469 487.16V489.16H218.005L218.469 488.892L217.469 487.16ZM208.733 487.16L207.732 488.892L208.197 489.16H208.733V487.16ZM205.021 485.016H203.021V486.17L204.02 486.748L205.021 485.016ZM205.021 466.584L204.02 464.852L203.021 465.43V466.584H205.021ZM208.733 464.44V462.44H208.197L207.732 462.708L208.733 464.44ZM217.469 464.44L218.469 462.708L218.005 462.44H217.469V464.44ZM221.181 466.584H223.181V465.43L222.181 464.852L221.181 466.584ZM209.501 468.28V466.28H207.501V468.28H209.501ZM209.501 483.32H207.501V485.32H209.501V483.32ZM216.701 483.32V485.32H218.701V483.32H216.701ZM216.701 468.28H218.701V466.28H216.701V468.28ZM221.181 485.016L220.18 483.284L216.468 485.428L217.469 487.16L218.469 488.892L222.181 486.748L221.181 485.016ZM217.469 487.16V485.16H208.733V487.16V489.16H217.469V487.16ZM208.733 487.16L209.733 485.428L206.021 483.284L205.021 485.016L204.02 486.748L207.732 488.892L208.733 487.16ZM205.021 485.016H207.021V466.584H205.021H203.021V485.016H205.021ZM205.021 466.584L206.021 468.316L209.733 466.172L208.733 464.44L207.732 462.708L204.02 464.852L205.021 466.584ZM208.733 464.44V466.44H217.469V464.44V462.44H208.733V464.44ZM217.469 464.44L216.468 466.172L220.18 468.316L221.181 466.584L222.181 464.852L218.469 462.708L217.469 464.44ZM221.181 466.584H219.181V485.016H221.181H223.181V466.584H221.181ZM209.501 468.28H207.501V483.32H209.501H211.501V468.28H209.501ZM209.501 483.32V485.32H216.701V483.32V481.32H209.501V483.32ZM216.701 483.32H218.701V468.28H216.701H214.701V483.32H216.701ZM216.701 468.28V466.28H209.501V468.28V470.28H216.701V468.28Z" fill="#353859" mask="url(#path-3-outside-2_16313_16818)"/>
</g>
</g>
<defs>
<filter id="filter1_d_16313_16818" x="110.575" y="405.64" width="116.534" height="29.52" filterUnits="userSpaceOnUse" color-interpolation-filters="sRGB">
<feFlood flood-opacity="0" result="BackgroundImageFix"/>
<feColorMatrix in="SourceAlpha" type="matrix" values="0 0 0 0 0 0 0 0 0 0 0 0 0 0 0 0 0 0 127 0" result="hardAlpha"/>
<feOffset dy="2"/>
<feComposite in2="hardAlpha" operator="out"/>
<feColorMatrix type="matrix" values="0 0 0 0 0.587952 0 0 0 0 0.610086 0 0 0 0 0.797222 0 0 0 1 0"/>
<feBlend mode="normal" in2="BackgroundImageFix" result="effect1_dropShadow_16313_16818"/>
<feBlend mode="normal" in="SourceGraphic" in2="effect1_dropShadow_16313_16818" result="shape"/>
</filter>
<filter id="filter3_d_16313_16818" x="111.278" y="462.44" width="111.903" height="28.7202" filterUnits="userSpaceOnUse" color-interpolation-filters="sRGB">
<feFlood flood-opacity="0" result="BackgroundImageFix"/>
<feColorMatrix in="SourceAlpha" type="matrix" values="0 0 0 0 0 0 0 0 0 0 0 0 0 0 0 0 0 0 127 0" result="hardAlpha"/>
<feOffset dy="2"/>
<feComposite in2="hardAlpha" operator="out"/>
<feColorMatrix type="matrix" values="0 0 0 0 0.587952 0 0 0 0 0.610086 0 0 0 0 0.797222 0 0 0 1 0"/>
<feBlend mode="normal" in2="BackgroundImageFix" result="effect1_dropShadow_16313_16818"/>
<feBlend mode="normal" in="SourceGraphic" in2="effect1_dropShadow_16313_16818" result="shape"/>
</filter>
</defs>
</svg>
